<svg xmlns="http://www.w3.org/2000/svg" width="94" height="23" viewBox="0 0 94 23">
  <path fill="#1A1919" fill-rule="evenodd" d="M462.191,45.853 C461.272,46.501 460.247,47.041 459.092,47.452 C457.789,47.681 456.734,48.159 455.294,48.252 C455.067,48.424 454.708,48.465 454.294,48.452 C454.075,48.632 453.583,48.539 453.295,48.652 C452.484,48.607 451.806,48.695 451.096,48.752 C449.723,48.911 448.28,49.001 446.899,49.152 C444.113,49.506 441.372,49.408 438.303,49.252 C435.493,49.138 432.5,49.443 429.408,49.351 C428.5,49.392 428.056,48.97 427.109,49.052 L425.809,49.052 C425.44,49.115 424.814,48.922 424.61,49.152 C423.028,49.302 421.546,49.552 419.712,49.451 C418.146,49.627 416.463,49.451 414.715,49.451 L409.618,49.451 C402.998,49.728 395.752,49.379 389.128,49.651 C388.644,49.669 388.275,49.572 387.929,49.451 C387.75,49.396 387.514,49.4 387.429,49.252 C387.284,49.197 386.913,49.368 386.929,49.152 C385.992,49.223 385.302,49.046 384.43,49.052 C384.221,48.828 383.641,48.975 383.431,48.752 C382.938,48.812 382.825,48.492 382.332,48.552 C382.306,48.344 381.893,48.525 381.832,48.352 C381.591,48.393 381.615,48.17 381.333,48.252 C380.982,48.17 380.731,47.988 380.333,47.952 C379.725,47.494 379.069,47.085 378.333,46.753 C378.101,46.353 377.594,46.227 377.534,45.653 C377.282,45.306 376.84,45.147 376.634,44.754 C375.892,44.264 375.572,43.351 375.135,42.555 C375.068,41.691 374.847,40.786 375.036,39.956 C374.942,39.396 375.291,39.278 375.335,38.857 C375.614,38.902 375.257,38.312 375.536,38.357 C375.52,38.109 375.692,38.048 375.735,37.857 C376.015,37.238 376.341,36.664 376.634,36.058 C377.664,34.889 378.801,33.827 380.133,32.96 C380.25,32.976 380.311,32.938 380.333,32.86 C380.952,32.612 381.708,32.503 382.432,32.36 C382.924,31.986 383.815,32.011 384.43,31.76 C386.514,31.523 388.819,31.561 391.127,31.561 C393.428,31.561 395.725,31.387 397.824,31.561 C401.737,30.849 406.145,31.361 410.517,31.361 C412.751,31.361 415.015,31.261 417.213,31.361 C419.356,31.458 421.479,31.557 423.51,31.261 C424.681,31.401 425.833,31.359 426.809,31.061 L427.009,31.061 C426.991,30.977 427.047,30.965 427.109,30.961 C429.109,30.814 431.292,31.075 433.106,31.261 C434.288,31.223 434.907,31.236 436.104,31.261 C437.065,31.189 437.96,31.052 438.903,30.961 C442.578,30.889 446.154,31.089 449.597,30.961 C450.693,31.065 451.911,31.047 452.795,31.361 C454.432,31.089 455.848,31.46 457.293,31.66 C458.68,31.906 460.098,32.121 461.192,32.66 C461.161,32.89 461.48,32.771 461.492,32.96 C462.396,33.355 462.899,34.151 463.39,34.959 C463.643,35.373 463.945,35.736 464.09,36.258 C464.307,36.674 464.65,36.965 464.79,37.458 C464.878,38.368 465.005,39.24 464.99,40.256 C464.639,42.704 463.532,44.395 462.191,45.853 Z M378.234,47.552 C378.182,47.501 378.306,47.424 378.333,47.452 C378.385,47.504 378.261,47.58 378.234,47.552 Z M466.389,37.058 C466.047,35.966 465.755,34.826 465.089,34.059 C464.422,33.294 464.014,32.27 462.991,31.861 C462.991,31.76 462.91,31.741 462.89,31.66 C461.27,30.982 459.556,30.397 457.593,30.061 C455.552,29.803 453.496,29.562 451.396,29.361 C447.085,29.22 442.805,29.627 438.703,29.361 L438.103,29.361 C438.026,29.384 437.906,29.365 437.903,29.462 C436.917,29.631 435.802,29.471 434.705,29.462 C431.052,29.43 427.289,29.5 423.911,29.662 C419.301,29.949 414.336,29.882 409.618,30.061 C409.218,29.861 408.418,30.062 408.018,29.862 C407.592,29.688 407.184,29.497 406.519,29.562 L406.32,29.562 C399.708,30.163 391.821,29.62 385.53,30.261 C385.397,30.427 384.963,30.295 384.831,30.461 C384.591,30.522 384.105,30.336 384.031,30.561 C383.426,30.556 382.803,30.532 382.432,30.761 C381.429,30.991 380.515,31.31 379.333,31.361 C379.311,31.439 379.25,31.477 379.133,31.461 C378.803,31.442 378.721,31.818 378.534,31.961 C378.493,31.992 378.382,31.939 378.333,31.961 C378.301,31.975 378.272,32.136 378.234,32.16 C378.11,32.24 377.955,32.216 377.834,32.36 C377.383,32.676 376.907,32.965 376.435,33.26 C375.581,33.905 374.833,34.656 374.236,35.558 C373.975,36.231 373.792,36.98 373.736,37.857 C373.382,38.436 373.33,39.316 373.237,40.156 C373.164,40.896 373.348,41.377 373.336,42.055 C373.542,42.25 373.465,42.726 373.636,42.955 C373.698,43.326 373.875,43.583 373.936,43.954 C374.231,44.493 374.457,45.099 374.835,45.553 C375.389,46.699 376.108,47.679 376.934,48.552 C377.107,48.547 377.191,48.629 377.235,48.752 C377.787,48.999 378.583,49.002 379.034,49.351 C379.635,49.583 380.162,49.889 381.033,49.851 C382.609,49.941 383.888,50.327 385.23,50.651 C388.058,51.121 391.051,51.427 394.425,51.35 C396.014,51.382 397.546,51.088 399.124,51.151 C400.718,51.215 402.305,51.308 404.021,51.251 C406.971,50.902 410.548,51.182 413.616,50.951 C415.217,50.982 416.991,50.841 418.313,51.151 C419.616,50.97 420.972,51.051 422.311,51.051 C423.753,51.051 425.173,51.044 426.609,50.951 C426.584,50.952 426.67,50.862 426.709,50.851 C426.792,50.825 426.921,50.855 427.009,50.851 C428.272,50.791 429.422,50.751 430.707,50.751 C438.007,50.751 445.113,50.622 452.096,50.751 C452.109,50.53 452.52,50.708 452.696,50.651 C453.579,50.601 454.077,50.166 454.895,50.051 C455.692,49.882 456.5,49.724 457.494,49.751 C459.204,49.562 460.783,49.243 462.091,48.652 C462.157,48.518 462.304,48.465 462.491,48.452 C463.066,48.094 463.47,47.565 463.99,47.153 C464.6,46.53 464.893,45.59 465.389,44.854 C465.725,43.958 466.284,43.283 466.489,42.255 C466.647,40.702 466.692,38.474 466.389,37.058 L466.389,37.058 Z" transform="translate(-373 -29)"/>
</svg>
