<svg xmlns="http://www.w3.org/2000/svg" width="128" height="23" viewBox="0 0 128 23">
  <path fill="#1A1919" fill-rule="evenodd" d="M129.842,126.658 C129.477,129.658 129.807,133.353 127.944,134.854 C125.957,135.264 123.215,134.997 121.048,134.954 C118.217,135.277 115.098,135.308 111.852,135.254 C111.614,135.25 111.404,135.272 111.152,135.254 C107.805,135.016 103.628,135.125 100.257,135.054 C98.96,134.964 97.667,134.854 96.36,134.854 C92.802,134.854 89.058,134.761 85.366,134.854 C85.083,134.861 84.704,134.936 84.465,134.954 C79.257,135.359 73.995,135.296 68.774,135.154 C67.92,135.501 66.523,135.301 65.376,135.354 C65.302,135.579 64.815,135.393 64.576,135.454 L63.677,135.454 C63.074,135.451 62.648,135.624 61.977,135.554 C50.98,135.441 40.84,135.743 30.494,135.554 C26.096,135.922 20.945,135.534 16.6,135.954 C13.243,135.692 9.934,135.992 7.405,134.954 C7.375,134.651 7.02,134.673 7.006,134.355 C6.818,134.242 6.793,133.967 6.606,133.855 C6.373,133.488 6.427,132.834 6.106,132.555 C5.928,132.065 5.89049039,131.516 6.006,131.056 C6.081,130.757 5.917,130.189 5.906,129.857 C5.84,127.995 6.006,125.946 6.006,123.86 C6.006,122.916 5.888,121.942 6.306,121.161 C6.504,120.027 6.96,119.15 7.605,118.463 C8.696,118.288 10.041,118.366 11.204,118.262 C12.415,118.208 13.515,118.043 14.802,118.063 C14.908,117.836 15.431,118.025 15.701,117.963 C16.078,118.04 16.179,117.841 16.501,117.863 L18.4,117.863 C19.371,117.601 20.671,117.67 21.898,117.663 C26.574,118.12 31.677,117.689 36.59,117.763 C38.873,117.979 41.581,117.769 43.787,118.063 C46.481,118.11 48.295,117.896 50.983,117.963 C52.848,117.915 54.713,117.784 56.581,117.863 C57.45,117.9 58.309,118.023 59.179,118.063 C60.11,118.105 61.045,118.045 61.977,118.063 C63.575,118.094 65.105,118.208 66.875,118.163 C67.004,118.159 67.146,118.181 67.275,118.163 C67.365,118.15 67.474,118.063 67.474,118.063 C69.271,117.977 71.145,117.963 72.971,117.963 C76.664,117.963 80.325,117.767 84.066,117.963 C87.698,118.153 91.388,118.194 95.06,118.163 C96.273,117.98 97.51,118.063 98.758,118.063 C99.378,118.063 100.015,118.065 100.658,118.063 C100.739,118.063 100.756,117.95 100.857,117.963 C103.458,118.283 106.711,117.898 109.453,117.763 C112.052,117.864 114.206,117.518 116.75,117.563 C117.943,117.402 119.238,117.434 120.448,117.463 C120.795,117.471 121.11,117.451 121.447,117.463 C121.549,117.466 121.658,117.585 121.846,117.563 C122.245,117.519 123.182,117.27 123.845,117.363 C123.961,117.38 124.024,117.341 124.045,117.263 C125.016,117.372 125.733,117.218 126.544,117.363 C127.017,117.324 127.378,117.395 127.744,117.463 C128.058,117.582 128.498,117.575 128.743,117.763 C129.19,117.749 129.031,118.342 129.243,118.563 C129.412,118.827 129.474,119.198 129.644,119.462 C129.85,120.088 130.003,120.767 129.943,121.661 C130.013,123.43 129.839,124.956 129.842,126.658 Z M131.242,128.557 C131.199,127.615 131.281,126.797 131.341,125.959 C131.328,124.178 131.33,122.415 131.442,120.761 C131.212,120.558 131.406,119.931 131.341,119.562 C131.413,119.025 131.228,118.743 131.142,118.363 C130.787,117.818 130.644,117.063 130.142,116.664 C130.03,116.642 129.987,116.552 129.943,116.463 C128.757,116.083 127.342,115.933 126.044,115.664 L121.048,115.664 C120.919,115.67 120.909,115.792 120.748,115.764 C119.168,115.891 117.323,115.917 115.75,115.764 C114.449,115.896 113.411,116.291 111.952,116.264 C110.616,116.435 109.165,116.3 107.854,116.164 C105.563,116.534 102.655,116.547 100.257,116.264 C97.6,116.338 94.93,116.4 92.162,116.364 C91.142,116.367 90.2,116.498 89.263,116.463 C88.988,116.454 88.645,116.365 88.364,116.364 C87.706,116.359 87.088,116.499 86.464,116.463 C85.8,116.426 85.234,116.183 84.566,116.264 C80.433,116.162 76.314,116.364 72.473,116.364 C71.084,116.364 69.727,116.316 68.375,116.364 C65.805,116.455 63.196,116.364 60.578,116.364 C57.822,116.364 55.221,116.059 52.782,116.164 C49.99,116.104 47.46,116.305 44.886,116.463 C42.999,116.212 41.058,116.164 39.089,116.164 C37.106,116.164 35.118,116.064 33.092,116.064 C31.615,116.064 30.115,115.95 28.694,115.964 C26.179,115.988 23.635,116.183 21.098,115.964 C18.681,116.213 16.132,116.329 13.402,116.264 C12.95,116.478 12.117,116.311 11.503,116.364 C10.765,116.291 10.42,116.613 9.704,116.564 C8.969,116.494 8.542,116.734 8.006,116.863 C7.469,116.993 6.957,117.148 6.606,117.463 C6.069,117.759 5.708,118.231 5.306,118.663 C4.932,119.594 4.817,120.658 4.707,121.761 C4.353,125.295 4.668,129.144 4.707,132.755 C4.814,133.114 4.958,133.437 5.006,133.855 C5.277,134.084 5.155,134.706 5.506,134.854 C5.933,135.426 6.177,136.182 6.806,136.553 C6.992,136.567 7.14,136.619 7.206,136.754 C7.907,136.851 8.482,137.076 9.205,137.153 C10.023,137.286 10.798,136.908 11.403,137.153 C13.071,137.085 14.529,137.226 16,137.353 C19.314,137.434 22.289,137.177 25.496,137.153 C28.486,137.11 31.743,137.179 34.991,137.153 C38.177,137.103 41.337,137.484 44.287,137.353 C50.535,137.199 56.634,137.361 63.077,137.153 C69.324,137.057 75.983,136.884 82.167,137.053 C83.156,136.942 83.978,136.666 85.066,136.653 C86.839,136.645 88.292,136.958 90.163,136.853 C91.228,137.062 92.982,136.663 94.661,136.653 C95.705,136.609 96.406,136.907 97.359,136.953 C106.118,136.949 114.316,137.152 122.846,136.754 C124.066,136.541 125.724,136.766 126.944,136.553 C127.75,136.626 128.236,136.379 128.844,136.254 C129.763,136.441 129.814,135.758 130.442,135.654 C130.602,135.28 130.731,134.732 130.842,134.454 C130.949,134.187 130.908,133.953 130.942,133.555 C131.015,132.727 131.038,131.836 131.142,131.056 C131.372,130.853 131.178,130.226 131.242,129.857 L131.242,128.557 L131.242,128.557 Z" transform="translate(-4 -115)"/>
</svg>
