<svg xmlns="http://www.w3.org/2000/svg" width="275" height="275" viewBox="0 0 275 275">
  <g fill="#1A202C" fill-rule="evenodd" transform="matrix(-1 0 0 1 275 -7)">
    <path d="M214.912724 178.98C215.773821 185.21891 210.995859 191.179017 205.175106 193.581853 199.354354 195.984302 192.780433 195.573086 186.548156 194.673381 183.424059 194.22217 180.228139 193.659515 177.138982 194.307597 173.05013 195.164976 169.684164 198.03378 166.862111 201.114987 162.192465 206.213831 158.491455 212.140543 153.787257 217.207546 149.08267 222.274161 142.988214 226.584356 136.089344 227.028189 133.890402 227.169921 131.546649 226.862383 129.80582 225.511855 125.423077 222.110684 127.547478 215.03381 130.833857 210.564021 135.173118 204.662549 140.902247 199.746985 144.315577 193.265384 145.329637 191.340164 146.139876 189.174194 145.797844 187.024921 145.235685 183.491726 141.812262 181.169269 138.492884 179.835826 135.173894 178.502384 131.507438 177.626366 128.931523 175.143927 125.37416 171.715575 124.914494 165.993111 126.507019 161.315579 128.099155 156.638047 131.372722 152.754988 134.576406 148.99347 149.270185 154.752045 164.880578 149.464096 185.435873 156.739006 205.991169 164.014305 214.912724 178.98 214.912724 178.98M237.777996 136.342077C237.777996 136.342077 252.872818 127.543843 251.7155 142.594966 250.557794 157.646477 270.236463 157.067513 270.236463 157.067513 270.236463 157.067513 262.48426 175.78502 251.890592 183.503764 241.297313 191.222507 228.564102 197.011371 228.564102 197.011371L219.303232 180.80232C219.303232 180.80232 233.100973 160.191822 237.777996 136.342077M11.2885052 164.048864C11.2885052 164.048864 34.0920479 153.015153 34.0920479 173.855528 34.0920479 194.695903 50.2979878 183.117787 56.0857402 194.695903 61.8738809 206.27363 35.2497537 232.902868 35.2497537 232.902868 35.2497537 232.902868 19.0434257 215.535889 15.5710848 198.169299 12.0979675 180.80232 11.2885052 164.048864 11.2885052 164.048864M99.163887 258.505038C101.881118 260.607714 105.116638 261.639443 108.557144 261.215024 110.235856 261.008057 110.256432 258.342338 108.557144 258.552023 105.863983 258.884413 103.21974 258.303507 101.046421 256.622143 99.707799 255.586531 97.8097361 257.457777 99.163887 258.505038M118.594476 262.021536C120.909888 262.021536 123.224911 262.021536 125.539934 262.021536 127.253199 262.021536 127.255917 259.358534 125.539934 259.358534 123.224911 259.358534 120.909888 259.358534 118.594476 259.358534 116.8816 259.358534 116.878882 262.021536 118.594476 262.021536M213.703384 226.731524C213.948746 228.746054 213.514703 230.552065 212.350786 232.219838 211.367784 233.627835 213.674655 234.960501 214.649892 233.563765 216.040925 231.570591 216.659765 229.147174 216.365874 226.731524 216.161276 225.052101 213.496456 225.031521 213.703384 226.731524M208.972785 240.998269C206.80296 242.620611 205.522962 244.869678 205.260129 247.569957 205.094743 249.27462 207.758009 249.26297 207.923008 247.569957 208.085288 245.898689 208.968903 244.305081 210.316454 243.297816 211.672934 242.283561 210.347124 239.9712 208.972785 240.998269M206.361541 231.139183C205.147542 232.12781 204.482114 233.66356 204.487899 235.217948 204.494537 236.931153 207.156639 236.93426 207.150427 235.217948 207.146933 234.304264 207.544094 233.592111 208.244075 233.022078 208.801963 232.567761 208.715776 231.610975 208.244075 231.139183 207.692398 230.587401 206.920594 230.683701 206.361541 231.139183M38.0997598 89.093798C40.3744071 86.8917155 42.6335251 84.6729359 44.8759492 82.4382358 44.179074 82.3481488 43.4821988 82.2584502 42.7853236 82.1687515 44.1414155 84.3805416 44.744727 86.7391113 44.6344693 89.3302763 44.5610936 91.04387 47.223584 91.0403752 47.2965715 89.3302763 47.4258525 86.2999374 46.6688014 83.4093887 45.0844294 80.8244367 44.6371869 80.0951983 43.6110916 79.939876 42.9934155 80.5549524 40.7506032 82.7900409 38.4918734 85.0084322 36.2172262 87.2109029 34.9838153 88.4049434 36.8675136 90.2866736 38.0997598 89.093798M105.327059 102.770318C106.51 101.964972 111.999591 98.0590034 113.215143 99.3703122 113.827772 100.031209 112.979487 101.453185 112.771006 102.26785 112.522538 103.236674 112.456151 104.137155 112.692195 105.117239 113.093627 106.782294 115.661777 106.077131 115.259569 104.409357 114.910161 102.960588 115.997985 101.479978 116.125325 100.040528 116.246453 98.6721383 115.680412 97.3794682 114.397307 96.7655566 112.885535 96.0421428 111.204105 96.6529479 109.775414 97.2676361 107.737199 98.144819 105.816619 99.2231443 103.983391 100.471159 102.575276 101.429886 103.905744 103.738365 105.327059 102.770318M107.988385 253.144864C110.77278 254.386278 113.770314 254.594798 116.65332 253.532781 118.247397 252.945275 117.558287 250.370807 115.945574 250.964915 113.768761 251.766767 111.472373 251.799773 109.332053 250.845317 107.780681 250.153744 106.424589 252.447467 107.988385 253.144864"/>
    <path d="M52.9756191,249.90717 C38.148677,236.916009 24.5357341,220.372627 18.137682,201.479218 C11.6262664,182.250701 11.6243253,160.631384 13.5080236,140.60917 C15.1964416,122.660509 19.4153513,104.285876 29.1914041,88.9089644 C31.5312742,85.2286016 34.1863882,81.7532643 37.170334,78.5707095 C40.0572221,75.4922208 43.8285011,70.1506855 47.821072,74.2403227 C50.780171,77.2714382 52.7325863,81.7221998 54.2233946,85.6382643 C54.454004,86.2444097 54.8705762,86.5503947 55.5072755,86.6156301 C60.3896726,87.1161563 65.2557639,87.9249974 70.0686675,88.8759584 C74.0262975,89.6580064 77.9602454,90.5705251 81.8386763,91.6826331 C83.9681251,92.2930499 86.0793269,92.9609359 88.1617997,93.7173557 C89.8292532,94.3231128 92.0297483,95.9990409 93.7069076,95.8782778 C96.5604078,95.6724757 100.209006,92.9500634 102.794238,91.8573707 C108.707777,89.357846 115.424179,86.3442043 121.931712,86.0529749 C130.114852,85.6860259 127.526126,97.0529029 126.75471,102.280665 C125.763167,109.000297 124.136478,115.688089 123.709424,122.480723 C123.210546,130.415365 122.687987,140.643729 128.649667,146.810414 C138.081747,156.567375 154.539261,151.452611 166.439715,153.108347 C182.845594,155.391197 199.193627,162.78454 211.280044,174.186753 C224.528438,186.685542 229.096367,202.5125 225.691967,220.284482 C222.779844,235.487044 216.045195,249.926973 208.220781,263.188395 C206.737349,265.702675 204.911886,270.289344 202.547557,272.145057 C199.095016,274.855044 189.919557,274.848443 185.413744,275.15171 C178.929117,275.588554 171.74839,276.032387 165.360044,274.540516 C164.654628,274.375874 163.155666,274.248122 162.668824,273.697116 C161.493648,272.367557 164.16235,270.120431 165.315786,268.992014 C167.555104,266.800804 170.303781,265.003725 173.093612,263.576312 C173.733029,263.24897 173.918991,262.348101 173.571136,261.75477 C167.980994,252.220696 163.501969,239.192647 166.294905,228.178351 C169.553719,215.325428 190.296141,202.519101 203.004117,210.317835 C204.468525,211.216375 205.807535,208.91411 204.347786,208.018677 C191.49927,200.13335 170.612037,211.19929 165.100705,223.507032 C159.534633,235.938255 164.740427,251.95859 171.272419,263.098696 C171.431593,262.491386 171.59038,261.884075 171.749943,261.277153 C168.317202,263.033461 156.71258,269.877351 159.969064,274.889215 C162.815964,279.270858 174.619749,278.142829 178.789742,278.084195 C186.003079,277.983236 196.915097,278.352126 203.391184,274.524984 C207.29912,272.215729 209.751189,265.920515 211.899661,262.155113 C222.876902,242.919218 234.753286,216.954759 227.697182,194.473792 C220.688053,172.141934 197.1954,157.656185 175.615951,152.202429 C169.924091,150.763756 164.039281,149.877254 158.164176,149.787943 C151.501739,149.686207 144.865313,150.875976 138.300321,149.130153 C128.716831,146.581702 126.31562,138.810537 126.252727,129.832906 C126.17974,119.400681 128.637632,109.470924 129.843478,99.1672283 C130.544624,93.1783872 131.45425,83.7549809 123.272663,83.3581323 C114.591423,82.9372088 105.038991,87.8582088 97.3349292,91.3653872 C96.3523158,91.8123272 94.7714379,92.9857875 93.6929313,93.0739329 C92.7530233,93.1508175 91.1174047,91.9839584 89.6405728,91.4290694 C83.076746,88.9641038 76.1968988,87.3258415 69.3178281,86.0265701 C65.683983,85.3400454 60.5492356,83.6190739 56.8074622,84.0986316 C56.4759127,84.1409569 56.0096469,84.0190289 55.6722739,83.9701023 C55.8512485,83.9961188 56.8517206,85.4860484 56.5978173,84.4380109 C56.2821852,83.1329149 55.4843699,81.7769509 54.9093993,80.5778625 C52.3641548,75.2724397 47.4549698,66.2373392 40.8154379,71.438696 C19.0317788,88.5031848 12.1802725,119.762582 10.4258552,145.83499 C9.33220757,162.080153 9.67928636,178.754783 13.4505654,194.658237 C17.011423,209.676354 24.9876354,223.062422 34.7089475,234.915069 C39.6938376,240.992832 45.1826519,246.611618 51.0930855,251.790453 C52.3769664,252.915375 54.267653,251.039081 52.9756191,249.90717"/>
    <path d="M51.4510348 228.307269C52.5920466 240.957885 51.6676678 253.637624 48.3261609 265.91469 47.5166986 268.889113 44.6554338 273.679642 46.0802427 276.753859 47.4293466 279.664212 52.6960926 281.19569 55.4971815 281.628263 63.1740676 282.813761 69.8652343 279.053795 74.1843077 272.868471 80.6592296 263.596504 84.00656 251.344678 88.2576929 240.969534 88.9068156 239.384858 86.3320655 238.69445 85.6903192 240.261653 82.1593554 248.880101 78.9851761 257.784342 74.925053 266.168254 70.8230009 274.639146 63.0878802 281.8993 53.0144423 278.284173 46.6031903 275.983461 49.9194622 270.387197 51.1652965 265.623849 52.2135211 261.616533 53.0148305 257.547864 53.5898011 253.446189 54.7607067 245.095284 54.870188 236.699335 54.1131369 228.307269 53.960562 226.613867 51.2965187 226.597946 51.4510348 228.307269M220.664371 182.157895C230.996759 170.175942 235.485102 155.155107 238.464001 139.890027 240.263453 130.669705 241.31556 121.136796 243.908945 112.092765 244.480421 110.099979 245.074415 107.515804 246.66694 106.053444 249.560428 103.397044 254.26385 105.494284 257.04941 106.988873 260.998499 109.10747 264.248383 112.51097 266.627853 116.261617 276.372459 131.621054 271.267217 152.662183 262.977314 167.544393 255.399039 181.1483 243.381338 192.129201 227.89285 195.47135 226.218797 195.832474 226.927319 198.400341 228.600596 198.039216 255.003043 192.341993 272.757637 164.90236 274.387044 138.993429 275.228341 125.617458 270.284604 110.743402 257.65738 104.313834 253.667139 102.282218 248.424463 100.613668 244.784406 104.170549 240.320523 108.532777 239.909386 117.413332 238.834762 123.100459 235.065424 143.053555 232.557061 164.300098 218.781838 180.274612 217.667614 181.566506 219.542771 183.458332 220.664371 182.157895"/>
    <path d="M79.683216 263.449336C105.269213 273.710707 135.381986 276.205183 162.357463 270.657458 164.034622 270.312254 163.324547 267.745164 161.649717 268.089591 135.117989 273.546065 105.535928 270.965773 80.3909617 260.88147 78.8007662 260.243871 78.1097145 262.818339 79.683216 263.449336M33.6715934 233.40456C35.0090503 239.410098 36.3465072 245.416024 37.6835758 251.421951 38.3521102 254.423943 39.0610206 257.420111 39.6895671 260.430647 40.5871579 264.727639 40.3922657 265.724032 39.3110415 270.226826 38.101701 275.261988 41.0553648 276.956555 46.1951592 275.566808 47.8470835 275.119868 47.1459377 272.550449 45.4870253 272.998942 39.5102042 274.614683 43.1716137 268.864261 43.3525295 267.269101 43.6716557 264.455437 42.6016902 261.271329 42.0061433 258.596678 40.0840101 249.963474 38.1614886 241.329882 36.2389671 232.696678 35.8666533 231.024633 33.2992796 231.732126 33.6715934 233.40456M39.8200128 107.362035C38.1211125 110.925906 39.4298403 115.594119 43.2251896 117.208306 47.0236448 118.823659 51.2848718 116.519063 52.6751281 112.826275 53.2796043 111.22063 50.7071836 110.526728 50.1077544 112.118393 49.2680101 114.34921 46.5080736 115.713717 44.2617673 114.748777 42.012355 113.782672 41.0899174 110.864554 42.1187304 108.70635 42.8524876 107.167105 40.5576523 105.814248 39.8200128 107.362035M84.6312241 120.550843C82.7510199 123.795527 83.7379039 128.342976 87.1244456 130.19869 90.4807054 132.037318 94.9251775 130.402939 96.5712782 127.048753 97.3236705 125.51611 95.028447 124.164805 94.2725606 125.704826 93.2689827 127.749257 90.6371626 129.048528 88.4681142 127.899143 86.3293479 126.766066 85.7695184 123.897651 86.9299418 121.89477 87.7910388 120.4095 85.4911565 119.067126 84.6312241 120.550843M52.3447432 127.110882C52.3855075 129.316071 53.7544112 131.07432 55.7891315 131.891704 58.2885647 132.895862 60.9654196 132.054792 63.3701244 131.187317 64.9696374 130.610294 64.2797503 128.035826 62.6623787 128.61945 60.5570003 129.378976 55.0802211 131.052186 55.0068454 127.110882 54.9753986 125.399618 52.3129083 125.393793 52.3447432 127.110882"/>
    <path d="M48.6957571 137.321384C52.926702 138.100326 56.7690273 136.566906 59.3418362 133.131176 58.530821 132.789467 57.7198058 132.447369 56.9087906 132.105272 56.3004321 136.51332 58.9563226 140.683336 63.4524294 141.508874 65.1272593 141.816413 65.8454872 139.250488 64.1601751 138.941008 61.2356286 138.403981 59.0514392 135.889312 59.4757761 132.813153 59.683868 131.30808 57.9791443 130.536904 57.0427304 131.787249 55.2347372 134.201735 52.3563902 135.297146 49.4035028 134.753906 47.7286729 134.445591 47.010445 137.011516 48.6957571 137.321384M33.0088826 120.997783C23.1850774 116.44412 13.5891639 111.473417 4.2025072 106.075189 2.7148048 105.219363 1.37230091 107.519687 2.85883861 108.374348 12.2454954 113.772576 21.8414088 118.743668 31.665214 123.29733 33.2095982 124.012978 34.5633608 121.718479 33.0088826 120.997783M26.7956286 124.678922C18.3050097 123.904641 9.80313215 123.348198 1.28378417 123.009207-.429480629 122.940865-.426374778 125.603867 1.28378417 125.67182 9.80313215 126.0112 18.3050097 126.567642 26.7956286 127.341924 28.501517 127.497246 28.4910348 124.833468 26.7956286 124.678922M20.9453709 131.058011C14.6051653 132.759955 8.20983084 134.183485 1.74577943 135.331317.0616319855 135.630701.775589375 138.197402 2.45391335 137.899183 8.91718829 136.751351 15.3125228 135.327822 21.6531166 133.625877 23.3062055 133.182044 22.6046716 130.612624 20.9453709 131.058011M83.8675731 137.744638C94.9620594 138.273898 105.613186 140.550147 115.967703 144.545426 117.567216 145.162444 118.259821 142.588753 116.675449 141.97756 106.114392 137.902678 95.1682103 135.620993 83.8675731 135.081636 82.1550848 134.999704 82.1593554 137.663093 83.8675731 137.744638M83.813609 144.006458C90.4092708 147.826222 97.3019296 150.968005 104.503232 153.460152 106.125548 154.021642 106.822914 151.450281 105.210978 150.892285 98.2204849 148.47314 91.5572708 145.413678 85.1572776 141.70691 83.6715163 140.846813 82.3297889 143.147137 83.813609 144.006458M83.2708616 152.469584C85.968681 155.337611 88.2526459 158.496867 90.1479911 161.946964 90.9733709 163.44932 93.2732532 162.106946 92.447097 160.60265 90.4449881 156.958787 88.0014602 153.614698 85.1533953 150.586689 83.9770544 149.335955 82.0972383 151.221569 83.2708616 152.469584"/>
    <g transform="scale(-1 1) rotate(-46 -19.22 182.351)">
      <path d="M2.74479032 57.9687725C2.30997124 47.634789 3.6322871 37.5873752 6.730373 27.715864 5.87471118 27.715864 5.01904936 27.715864 4.16299931 27.715864 5.93372234 33.6732523 8.20836962 39.35572 11.0249878 44.8949029 11.4279719 45.6874352 12.5231725 45.717723 13.1156134 45.1643872 19.5870412 39.1242897 26.4439827 33.6041338 33.7353551 28.5813977 33.0835147 28.0800948 32.4316743 27.5791803 31.7798339 27.0778775 30.6027166 34.1900873 29.4259875 41.3022972 28.2492584 48.4145071 28.0609662 49.5522433 29.1154024 50.4911668 30.2047795 49.9184157 36.5539144 46.579762 42.9030494 43.24072 49.2525725 39.9020664 48.6453787 39.294756 48.038185 38.687834 47.4309912 38.0805236 41.6692502 48.5209029 35.9075093 58.9608939 30.1457683 69.4012733 30.7529621 69.2420679 31.3601559 69.0828625 31.9673497 68.9236571 22.5702107 63.2703122 12.594607 58.9671068 2.0366564 56.0054981.383955686 55.541861-.321072383 58.1105041 1.32891071 58.5733647 11.6776047 61.4763392 21.4132814 65.6820798 30.6236811 71.222816 31.2285455 71.5870469 32.1001248 71.3699839 32.4448742 70.7451998 38.2066151 60.3052088 43.9683561 49.8648295 49.730097 39.4244502 50.3865962 38.234681 49.0833037 36.9851128 47.9089039 37.6029074 41.5593808 40.9415611 35.2102458 44.2802148 28.8611109 47.6188685 29.5129513 48.1201713 30.1647917 48.6214742 30.816632 49.1223887 31.9933612 42.0101788 33.1700903 34.8979689 34.3468194 27.785759 34.5172529 26.7579134 33.4457345 25.5561068 32.3916865 26.2822388 24.9124102 31.4338924 17.8733882 37.0833542 11.2330798 43.2814921 11.929955 43.3711908 12.6268302 43.4612778 13.3237054 43.5509764 10.6146273 38.2222553 8.43315555 32.7366586 6.730373 27.0075941 6.35029454 25.7292912 4.5558894 25.7560843 4.16299931 27.0075941.996196471 37.0992748-.362613134 47.399864.0822999539 57.9687725.154122747 59.6761533 2.81700134 59.6850843 2.74479032 57.9687725M23.6091177 1.28621478C23.6091177 4.75961058 23.6091177 8.23300639 23.6091177 11.7064022 23.6091177 13.4199959 26.271608 13.422714 26.271608 11.7064022 26.271608 8.23300639 26.271608 4.75961058 26.271608 1.28621478 26.271608-.427378921 23.6091177-.430097062 23.6091177 1.28621478M39.997138 5.2453812C38.4535303 7.56084897 36.9103108 9.87670504 35.3667031 12.1921728 34.4135952 13.6219149 36.7189127 14.9569104 37.6654207 13.5360993 39.2090284 11.2206316 40.7526361 8.90516381 42.2958556 6.58930774 43.2489635 5.15956561 40.9440341 3.8245701 39.997138 5.2453812M55.2868519 9.64915781C53.3534599 11.1876256 51.4196797 12.7260933 49.4862878 14.2641728 48.1461133 15.330849 50.0410703 17.2040364 51.3692097 16.1474562 53.3026016 14.6089884 55.2359936 13.0705206 57.1697737 11.5320529 58.5099482 10.4653767 56.6149912 8.59218929 55.2868519 9.64915781"/>
      <path d="M19.0835052,46.9051623 C17.6998488,49.8632763 17.379558,53.002729 18.2383257,56.1643152 C18.4821349,57.06169 19.4263135,57.3074876 20.1938468,56.9599539 C23.5602005,55.4354652 26.5969459,51.3283542 25.9726699,47.4445191 C25.400417,43.8876376 19.7384515,45.5064846 19.2904325,48.4440184 C19.0349763,50.120723 21.6000206,50.8433602 21.8581944,49.1518999 C21.9859225,48.3123827 22.9898887,47.6875986 23.6999638,48.3857725 C23.5699063,48.0720214 23.4402371,47.7582703 23.3101796,47.4445191 C23.4596486,50.6142598 21.7300781,53.3564757 18.8501782,54.6604067 C19.5020186,54.9256196 20.153859,55.1908325 20.8056993,55.4564337 C20.1433767,53.0186496 20.3079868,50.5466945 21.3826111,48.2490888 C22.1043331,46.7063497 19.8102743,45.3527155 19.0835052,46.9051623"/>
    </g>
  </g>
</svg>
