<svg xmlns="http://www.w3.org/2000/svg" width="69" height="95" viewBox="0 0 69 95">
  <g fill="none" fill-rule="evenodd">
    <path fill="#1A1919" d="M6.775,15.264 C6.747,15.237 6.621,15.313 6.673,15.366 C6.702,15.394 6.827,15.316 6.775,15.264 Z M56.21,38.213 C56.071,39.051 56.091,40.048 56.009,40.943 C55.664,41.406 55.456,42.006 55.097,42.46 C54.951,43.12 54.419,43.397 54.19,43.975 C53.83,44.424 53.656,45.061 53.179,45.391 C52.986,46.007 52.45,46.281 52.267,46.908 C51.773,47.02 51.667,47.521 51.256,47.716 C50.976,48.043 50.564,48.237 50.347,48.626 C49.919,48.805 49.635,49.129 49.335,49.435 C48.992,49.698 48.573,49.884 48.325,50.244 C46.693,51.039 45.533,52.304 44.08,53.277 C41.961,53.957 39.88,54.673 37.304,54.894 L30.835,54.894 C30.486,54.975 30.446,54.744 30.128,54.793 L28.712,54.793 C28.207,54.626 27.792,54.364 27.094,54.389 C26.505,53.967 25.458,54.005 24.972,53.479 C23.541,53.462 22.842,52.711 21.535,52.568 C20.858,51.931 19.963,51.511 19.31,50.85 C18.818,50.667 18.622,50.191 18.097,50.042 C17.971,49.831 17.804,49.662 17.591,49.537 C17.318,49.474 17.339,49.114 16.985,49.131 C16.737,48.605 16.485,48.083 16.177,47.616 C16.237,47.084 16.101,46.746 16.076,46.301 C15.887,45.915 15.45,46.307 15.367,46.2 C15.094,45.664 15.13,44.865 15.166,44.076 C15.194,43.442 15.509,42.72 15.064,42.358 C14.497,42.093 14.35,43.037 14.256,43.571 C13.722,43.105 14.119,42.277 14.256,41.651 C14.347,41.089 14.976,40.196 14.357,39.831 C13.871,39.75 13.937,40.22 13.75,40.438 C13.449,40.543 13.621,41.117 13.246,41.145 C13.171,40.678 13.041,40.272 12.84,39.931 C13.021,39.298 13.311,38.37 13.042,37.606 C12.558,37.398 12.623,38.256 12.436,38.011 C12.058,36.676 13.107,35.393 12.74,34.068 C12.364,33.998 12.565,34.501 12.335,34.574 C12.251,34.827 12.058,34.97 12.031,35.281 C11.781,35.195 12.061,34.578 11.828,34.472 C11.988,33.823 12.163,33.188 12.436,32.653 C12.534,32.076 13.261,31.4 12.74,30.833 C12.421,30.786 12.472,31.105 12.234,31.136 C12.244,31.258 12.087,31.198 12.234,31.136 L12.234,30.833 C12.431,30.592 12.488,30.212 12.638,29.923 C12.792,29.606 12.974,29.317 13.042,28.913 C13.239,28.57 13.605,28.397 13.65,27.902 C13.541,27.672 13.341,27.534 13.042,27.497 C12.826,27.493 12.492,27.878 12.436,27.699 C12.652,26.972 13.019,26.396 13.144,25.576 C13.254,24.71 13.695,24.173 13.851,23.352 C14.272,23.1 14.509,22.664 14.66,22.139 C14.899,22.108 14.848,21.788 15.166,21.836 C15.276,21.305 15.613,21.004 15.873,20.623 C16.199,20.275 16.433,19.835 16.782,19.511 C17.375,18.79 18.105,18.204 18.704,17.489 C20.226,16.383 21.632,15.16 23.05,13.95 C23.419,13.847 23.745,13.7 24.062,13.546 C24.417,13.564 24.394,13.205 24.667,13.142 C24.748,13.118 24.869,13.138 24.871,13.041 C26.494,12.844 27.618,12.148 29.318,12.029 C29.669,11.841 30.072,11.703 30.33,11.423 C31.033,11.453 31.576,11.321 32.048,11.119 C34.21,11.088 36.698,11.2 38.417,11.018 C40.296,11.095 41.554,11.792 43.169,12.131 C43.632,12.578 44.283,12.836 44.888,13.142 C45.417,13.522 46.027,13.823 46.505,14.254 C47.56,15.017 48.482,15.918 49.537,16.68 C49.695,16.894 49.828,17.13 49.942,17.387 C50.162,17.472 50.288,17.65 50.65,17.589 C50.796,18.118 51.187,18.4 51.56,18.702 C51.638,19.602 52.23,19.987 52.671,20.521 C52.745,21.19 53.015,21.661 53.38,22.038 C53.697,23.675 54.226,25.101 54.593,26.688 C54.873,27.386 55.023,28.214 55.3,28.913 C55.306,29.412 55.597,29.627 55.605,30.126 C55.814,30.423 55.759,30.979 56.009,31.237 C56.095,31.993 56.06,32.872 56.21,33.563 L56.21,38.213 Z M54.794,21.331 C54.737,20.917 54.329,20.852 54.291,20.421 C54.007,20.23 54.059,19.708 53.885,19.41 C53.373,18.978 53.082,18.327 52.773,17.691 C49.46,13.995 45.503,10.94 39.731,9.704 L34.07,9.704 C34.048,9.818 33.957,9.861 33.868,9.906 C31.232,9.663 29.833,10.656 27.802,11.018 C27.3,11.295 26.449,10.794 25.88,11.119 C24.837,11.392 24.142,12.009 23.152,12.332 C22.433,12.928 21.513,13.322 20.927,14.051 C20.322,14.76 19.268,15.02 18.804,15.872 C17.919,16.301 17.318,17.012 16.48,17.489 C16.283,18 15.835,18.258 15.468,18.6 C14.318,20.145 13.341,21.865 12.335,23.555 C11.766,25.581 11.138,27.548 10.515,29.519 C10.585,32.447 10.337,35.695 10.716,38.314 C11.291,40.302 11.88,42.274 12.74,43.975 C13.065,44.931 13.626,45.649 13.952,46.604 C14.23,46.966 14.406,47.431 14.66,47.818 C14.848,48.303 15.201,48.625 15.367,49.131 C15.802,49.474 16.162,49.888 16.581,50.244 C16.822,50.407 17.027,50.607 17.289,50.75 C17.369,51.073 17.525,51.323 17.894,51.356 C18.3,51.726 18.812,51.991 19.109,52.468 C19.63,52.755 19.91,53.285 20.523,53.479 C21.07,53.808 21.794,53.962 22.342,54.288 C23.029,54.478 23.599,54.783 24.365,54.894 C24.791,54.907 24.849,55.286 25.274,55.298 C25.621,55.391 25.9989994,55.451 26.285,55.602 C26.505,55.901 26.813,55.589 27.094,55.906 C27.458,55.98 27.732,56.143 28.106,56.209 L28.612,56.209 C28.769,56.253 28.699,56.527 29.015,56.411 C34.003,56.379 39.292,56.646 43.269,55.602 C45.189,54.689 46.912,53.582 48.527,52.367 C49.317,51.741 50.101,51.11 50.853,50.446 C51.674,49.819 52.316,49.01 53.179,48.423 C53.404,47.876 53.759,47.455 54.088,47.008 C54.351,46.497 54.701,46.072 54.998,45.593 C55.325,45.146 55.681,44.726 55.908,44.177 C56.236,43.731 56.589,43.311 56.817,42.762 C57.056,41.114 57.523,39.694 57.83,38.113 C57.83,35.719 57.886,33.269 57.624,31.136 C56.717,27.834 55.749,24.589 54.794,21.331 Z M66.218,40.64 C66.126,40.951 66.027,41.256 65.816,41.448 C64.201,42.226 62.644,43.064 61.669,44.481 C61.737,46.637 62.564,48.036 62.681,50.143 C61.201,50.415 59.574,50.541 58.131,50.85 C57.378,51.175 56.74,51.617 56.009,51.963 C56.015,52.508 55.851,52.883 55.806,53.378 C55.66,53.736 55.761,54.343 55.503,54.59 C55.351,55.451 55.225,56.335 55.2,57.321 C54.898,58.502 54.646,59.733 54.695,61.263 C53.62,61.191 52.763,60.903 51.865,60.657 C50.898,60.477 50.148,60.081 49.436,59.645 C49.263,59.668 49.175,59.473 49.132,59.645 C49.118,59.764 48.951,59.732 48.83,59.747 C48.28,59.388 47.787,58.97 46.91,58.939 C46.298,58.866 46.162,59.27 45.698,59.342 C45.287,59.538 45.043,59.904 44.687,60.152 C44.556,60.495 44.384,60.793 44.18,61.061 C44.102,61.455 43.898,61.721 43.674,61.972 C43.462,62.702 42.921,63.105 42.461,63.589 C42.219,64.088 42.14,64.751 41.855,65.207 C40.996,65.088 40.818,64.288 40.236,63.892 C39.722,63.464 39.307,62.933 38.822,62.476 C38.414,62.379 38.251,62.035 38.013,61.769 C37.7,61.611 37.484,61.356 37.205,61.162 C36.892,60.531 36.216,60.262 35.587,59.95 C34.616,60.327 34.005,61.064 33.261,61.669 C32.523,62.244 31.71,62.745 31.038,63.387 C30.56,63.584 30.277,63.974 29.826,64.195 C29.419,64.464 29.017,64.736 28.612,65.005 C28.226,65.294 27.658,65.399 27.398,65.813 C27.101,66.096 26.509,66.366 26.083,66.217 C25.66,66.202 25.66,65.764 25.477,65.509 C25.386,65.196 25.138,65.04 25.072,64.701 C24.771,64.159 24.632,63.456 24.265,62.983 C23.9,61.694 23.311,60.632 22.85,59.443 C22.568,59.015 22.094,58.782 21.738,58.432 C20.808,58.383 19.673,58.543 18.906,58.332 C18.632,58.564 17.93,58.367 17.49,58.432 L16.076,58.432 C15.249,58.61 14.174,58.547 13.449,58.332 C13.207,55.877 12.951,53.436 12.74,50.951 C12.406,50.309 11.278,50.459 10.716,50.042 C9.992,49.824 9.503,49.369 8.594,49.335 C7.524,48.551 5.871,48.35 4.55,47.818 C4.76,47.321 4.916,46.768 5.156,46.301 C5.362,45.125 5.554,43.935 5.764,42.762 C5.858,41.51 6.564,40.869 6.572,39.527 C6.738,39.255 6.378,39.204 6.269,39.022 C6.185,38.881 6.171,38.649 6.066,38.516 C5.865,38.262 5.496,38.132 5.359,37.809 C4.873,37.35 4.355,36.926 3.943,36.393 C3.261,36.132 3.06,35.389 2.528,34.978 C2.22,34.343 1.73,33.89 1.517,33.159 C2.642,32.799 3.296,31.972 4.247,31.439 C4.566,31.119 4.819,30.73 5.256,30.53 C5.61,30.275 5.811,29.871 6.269,29.721 C6.412,29.326 6.695,29.068 6.875,28.711 C6.208,25.907 4.961,23.683 4.55,20.623 C4.92,20.555 5.318,20.515 5.662,20.421 C7.124,19.422 8.798,18.636 10.716,18.095 C11.541,17.74 12.199,17.218 12.942,16.781 C12.822,13.798 12.054,11.467 12.031,8.39 C15.019,8.806 17.869,9.36 21.332,9.3 C21.619,9.318 21.581,8.851 21.837,8.693 C22.167,8.654 22.283,8.398 22.545,8.289 C23.194,7.218 24.029,6.335 24.568,5.155 C25.259,4.162 25.792,3.01 26.488,2.021 C27.185,2.199 27.457,2.807 28.106,3.032 C28.454,3.527 29.144,3.679 29.318,4.346 C29.821,4.249 29.857,4.615 30.228,4.65 C30.79,5.301 31.593,5.71 32.249,6.267 C33.022,5.859 33.651,5.309 34.474,4.953 C34.753,4.624 35.203,4.467 35.587,4.245 C35.937,4.022 36.232,3.745 36.799,3.739 C37.828,3.015 39.209,2.645 40.035,1.718 C40.331,1.744 40.345,1.488 40.642,1.515 C40.653,1.435 40.975,1.21 40.945,1.414 L41.146,1.414 C41.117,1.536 41.312,1.463 41.349,1.515 C41.402,1.59 41.322,1.99 41.552,2.021 C41.546,2.329 41.764,2.414 41.855,2.628 C42.54,3.459 43.185,4.332 43.775,5.256 C44.214,5.591 44.555,6.027 44.789,6.57 C45.175,6.923 45.441,7.399 45.595,7.985 C46.117,8.172 46.728,8.269 47.212,8.491 C50.093,8.54 52.425,8.042 55.097,7.884 C55.095,10.644 54.167,12.48 53.987,15.063 C53.938,15.38 54.113,15.475 54.291,15.567 C54.292,15.837 54.251,16.145 54.39,16.275 C55.253,16.76 56.339,17.022 57.322,17.387 C58.373,17.686 59.31,18.094 60.355,18.398 C60.768,18.491 60.889,18.876 61.367,18.904 C61.646,19.13 61.984,19.298 62.377,19.41 C62.199,19.78 62.227,20.087 62.076,20.521 C62.066,20.544 61.992,20.547 61.974,20.623 C61.921,20.831 61.798,21.149 61.669,21.431 C61.294,22.245 60.623,23.254 60.355,24.363 C60.109,24.783 59.923,25.599 60.052,26.082 C59.953,26.517 60.433,26.376 60.457,26.688 C60.686,26.761 60.759,26.993 60.861,27.194 C61.074,27.479 61.241,27.177 61.367,27.497 C61.64,27.559 61.619,27.919 61.974,27.902 C62.238,28.31 62.702,28.52 63.083,28.811 C63.904,29.306 64.688,29.838 65.512,30.328 C64.959,31.798 64.099,32.96 63.49,34.372 C63.318,34.571 63.18,34.803 62.883,34.877 C62.652,34.982 62.931,35.599 62.681,35.685 C62.859,36.249 63.499,36.35 63.692,36.899 C64.132,37.168 64.337,37.669 64.703,38.011 C65.347,38.815 66.173,39.439 66.927,40.133 C66.777,40.387 66.472,40.489 66.218,40.64 Z M49.335,92.098 C48.013,91.535 47.132,90.528 45.898,89.874 C45.326,89.503 44.774,89.111 44.08,88.863 C43.681,88.352 43.039,88.083 42.461,87.751 C41.777,87.492 41.285,87.041 40.541,86.84 C40.38,86.529 39.917,86.522 39.731,86.234 C39.373,86.124 39.218,85.804 38.822,85.728 C38.374,85.234 37.649,85.015 37.104,84.617 C36.508,84.302 35.864,84.037 35.181,83.808 C35.038,83.515 34.939,83.173 34.574,83.1 C33.681,83.15 33.23,83.642 32.655,84.01 C32.181,84.479 31.559,84.8 31.038,85.223 C30.374,85.504 29.769,85.842 29.318,86.336 C28.923,86.412 28.769,86.73 28.409,86.84 C28.224,87.129 27.76,87.135 27.601,87.448 C26.929,87.72 26.467,88.203 25.78,88.459 C25.261,88.883 24.586,89.152 24.062,89.57 C23.474,89.925 23.033,90.428 22.444,90.784 C21.98,91.262 21.285,91.511 20.828,91.997 C20.595,91.857 20.79,91.294 20.726,90.985 C20.587,90.35 20.572,89.589 20.421,88.964 C20.445,88.284 21.207,87.593 20.726,87.043 C20.302,86.957 20.504,87.496 20.32,87.65 C19.63,86.566 21.042,85.823 20.726,84.819 C20.385,84.423 19.902,85.081 19.816,84.921 C19.175,83.437 20.406,82.704 20.421,81.28 C19.992,80.874 19.701,81.865 19.512,81.685 C19.427,81.298 19.38,80.874 19.412,80.371 C19.67,79.854 19.898,79.308 20.218,78.854 C20.275,78.505 20.491,78.316 20.523,77.945 C20.665,77.65 20.773,77.443 20.523,77.237 C20.121,77.205 20.251,77.705 19.916,77.742 C19.809,78.005 19.55,78.118 19.512,78.45 C19.124,78.131 19.388,77.159 19.31,76.529 C19.453,75.83 19.984,75.517 20.018,74.71 C19.874,74.152 19.283,74.918 19.21,74.71 L19.21,73.193 C19.46,72.905 19.67,72.576 19.816,72.182 C19.994,72.089 20.001,71.828 20.119,71.676 C20.296,71.584 20.47,71.489 20.421,71.172 C20.248,70.611 19.363,70.927 19.31,71.374 C19.083,71.298 19.272,70.806 19.21,70.565 L19.21,69.756 C19.338,69.28 19.578,68.911 19.816,68.543 C19.943,68.063 20.371,67.884 20.421,67.33 C20.141,67.059 19.921,67.424 19.614,67.43 C19.489,67.518 19.333,68.081 19.21,67.836 L19.21,66.824 C19.471,66.446 19.739,66.074 19.916,65.61 C20.15,65.203 20.582,64.996 20.624,64.398 C20.269,64.093 20.052,64.574 19.715,64.599 C19.634,64.797 19.348,65.302 19.21,65.105 L19.21,63.69 C19.484,63.392 19.673,63.009 19.916,62.679 C20.197,62.484 20.704,62.102 20.421,61.669 C19.821,61.368 19.664,62.301 19.109,62.376 C19.328,61.854 19.154,60.938 19.21,60.253 C20.014,60.189 20.516,60.427 21.332,60.353 C21.923,61.548 22.482,62.776 22.951,64.094 C23.395,65.4 24.292,66.256 24.871,67.43 C25.108,67.463 25.249,67.59 25.579,67.532 C25.746,67.735 25.851,68.002 26.183,68.037 C26.422,68.005 26.564,67.878 26.892,67.936 C27.623,67.454 28.339,66.958 29.015,66.421 C29.803,66.028 30.333,65.38 31.139,65.005 C32.515,63.988 34.332,63.411 35.587,62.275 C36.004,62.294 35.929,62.808 36.296,62.881 C36.894,63.564 37.533,64.204 38.216,64.801 C39.126,65.577 39.845,66.544 40.945,67.128 C41.451,67.059 41.726,67.221 42.158,67.228 C42.842,67.002 43.132,66.383 43.371,65.712 C44.062,65.055 44.533,64.176 45.09,63.387 C45.55,62.534 46.088,61.756 46.606,60.961 C46.816,61.179 46.933,60.947 47.113,60.86 C47.843,61.004 48.617,61.108 49.132,61.465 C49.069,64.4 49.265,67.596 49.033,70.363 L49.033,71.879 C49.116,72.164 48.89,72.14 48.931,72.383 C48.91,77.124 48.466,82.008 49.132,86.336 L49.132,88.054 C49.326,88.873 49.199,90.011 49.234,90.985 C49.223,91.403 49.412,91.619 49.335,92.098 Z M65.207,36.798 C64.832,36.422 64.384,36.034 64.197,35.483 C64.862,34.194 65.673,33.051 66.218,31.642 C66.636,31.25 66.884,30.691 67.13,30.126 C66.427,29.176 65.251,28.701 64.298,28.004 C63.738,27.754 63.236,27.448 62.782,27.092 C62.458,27.012 62.339,26.726 62.076,26.588 C61.863,26.361 61.443,26.341 61.367,25.981 C61.849,23.261 63.71,21.922 63.894,18.904 C63.522,18.332 62.777,18.134 62.175,17.792 C61.53,17.495 60.759,17.321 60.255,16.881 L59.647,16.881 C59.382,16.912 59.568,16.49 59.244,16.579 C58.798,16.62 58.461,16.551 58.232,16.377 C58.208,16.116 58.059,16.515 57.83,16.377 C57.744,16.226 57.503,16.23 57.322,16.174 C56.724,15.928 55.916,15.896 55.605,15.366 C55.67,14.422 55.763,13.503 55.806,12.534 C55.98,12.17 55.999,11.65 56.21,11.322 C56.035,9.878 56.658,8.505 56.616,6.873 C56.228,6.89 56.287,6.46 56.109,6.267 C52.915,6.009 49.476,6.372 46.404,6.57 C46.083,5.611 45.257,5.155 44.888,4.245 C44.25,3.568 43.64,2.863 43.066,2.121 C42.949,1.634 42.65,1.328 42.36,1.009 C42.201,0.563 41.904,0.254 41.552,4.26325641e-14 L40.744,4.26325641e-14 C40.597,0.055 40.496,0.157 40.439,0.303 C40.198,0.364 39.979,0.448 39.63,0.403 C38.965,1.086 38.067,1.534 37.205,2.021 C36.857,2.338 36.507,2.041 36.193,2.324 C35.931,2.433 35.816,2.69 35.486,2.729 C35.289,2.902 35.179,3.164 34.878,3.235 C33.933,3.637 33.162,4.214 32.249,4.65 C31.389,4.095 30.491,3.578 29.926,2.729 C29.647,2.814 29.506,2.527 29.318,2.425 C29.106,2.31 28.904,2.309 28.812,2.223 C28.662,2.079 28.521,2.025 28.409,1.92 C28.224,1.746 28.025,1.629 27.904,1.515 C27.705,1.329 27.557,1.241 27.398,1.11 C27.099,0.866 26.759,0.714 26.386,0.606 C25.457,1.024 25.167,2.082 24.568,2.829 C24.404,3.912 23.728,4.483 23.455,5.458 C23.173,5.581 22.897,5.71 22.748,5.964 C22.319,6.648 21.941,7.381 21.332,7.884 C20.81,7.513 20.456,7.884 19.816,7.884 C19.396,7.798 19.065,7.624 18.501,7.682 C17.91,7.563 17.81,7.936 17.289,7.884 C16.505,7.724 15.65,7.635 15.064,7.277 C14.206,7.159 13.404,6.984 12.537,6.873 C11.679,6.86 10.843,6.865 10.314,7.177 C10.176,7.974 10.441,8.651 10.617,9.401 C10.677,10.957 10.744,12.509 11.122,13.748 C11.035,14.743 11.341,15.348 11.323,16.275 C10.725,16.552 10.16,16.863 9.503,17.085 C8.798,17.29 8.13,17.53 7.38,17.691 C6.673,18.163 5.818,18.488 5.056,18.904 C4.275,19 3.437,19.039 2.932,19.41 C2.802,21.426 3.477,22.637 3.742,24.262 C3.955,24.52 3.898,25.048 4.146,25.273 C4.123,25.768 4.455,25.909 4.449,26.384 C4.636,26.67 4.762,27.014 4.855,27.396 C5.037,27.718 5.215,28.045 5.256,28.508 C4.859,28.379 5.013,28.802 4.751,28.811 C4.673,29.035 4.4,29.064 4.247,29.216 C3.888,29.429 3.494,29.608 3.234,29.923 C2.883,30.144 2.542,30.378 2.326,30.732 C2.091,30.8 2.054,31.069 1.82,31.136 C1.658,31.278 1.714,31.635 1.517,31.744 C1.161,31.892 0.904,32.142 0.607,32.35 C0.348,32.36 0.462,32.745 0.203,32.755 C0.111,32.931 0.167,33.258 -1.42108547e-14,33.361 C0.132,34.847 1.205,35.39 1.921,36.293 C2.324,36.8 2.613,37.42 3.033,37.91 C3.216,38.2 3.414,38.474 3.64,38.718 C3.798,39.032 3.904,39.398 4.146,39.628 C4.471,39.896 4.661,39.906 5.156,39.831 C4.639,40.256 4.614,41.176 4.247,41.752 L4.247,42.864 C3.962,43.354 3.96,44.128 3.64,44.582 C3.599,45.316 3.257,45.749 3.234,46.503 C3.189,46.827 2.851,46.859 2.831,47.211 C2.89,47.641 2.759,47.88 2.73,48.222 C3.134,48.861 3.591,49.451 4.55,49.537 C5.214,49.916 5.996,50.181 6.673,50.547 C7.497,50.768 8.218,51.09 8.998,51.356 C9.789,51.61 10.577,51.868 11.221,52.266 C11.232,52.796 11.398,53.169 11.526,53.58 C11.564,55.269 11.345,56.703 11.425,58.432 C11.666,58.392 11.369,58.893 11.728,58.736 C11.738,58.927 12.061,58.805 12.031,59.039 L12.031,59.95 C12.587,59.84 12.866,60.405 13.246,60.152 L17.289,60.152 C17.53,60.213 18.022,60.024 18.097,60.253 C18.034,63.11 17.861,66.269 17.996,69.25 C18.05,70.455 18.166,72.289 18.097,73.496 C18.093,73.569 17.996,73.698 17.996,73.698 C17.992,73.86 18.096,74.042 18.097,74.204 C18.103,75.747 18.032,77.249 18.097,78.754 C18.172,80.495 18.419,82.189 18.401,83.909 C18.729,85.636 18.977,87.443 19.21,89.267 L19.21,91.289 C19.275,91.93 19.039,92.877 19.412,93.21 C19.541,93.351 19.908,93.254 19.916,93.514 C20.544,93.467 20.972,93.22 21.332,92.907 C21.74,92.64 22.242,92.469 22.545,92.098 C22.996,91.874 23.371,91.576 23.757,91.289 C24.107,90.964 24.662,90.844 24.972,90.48 C25.928,90.09 26.685,89.497 27.499,88.964 C28.311,88.426 29.142,87.911 29.926,87.346 C30.873,87.081 31.429,86.423 32.352,86.133 C32.631,85.807 33.148,85.716 33.363,85.324 C33.924,85.247 34.058,84.74 34.574,84.617 C34.911,84.652 35.014,84.921 35.181,85.123 C35.474,85.234 35.667,85.445 35.89,85.628 C36.742,85.956 37.476,86.399 38.417,86.638 C39.205,87.234 39.983,87.837 40.945,88.256 C41.748,88.87 42.615,89.418 43.574,89.874 C44.001,90.153 44.441,90.423 44.888,90.683 C45.295,90.982 45.598,91.387 46.101,91.592 C46.744,92.366 47.744,92.78 48.426,93.514 C48.89,93.623 49.201,93.884 49.638,94.018 C49.736,94.427 50.542,94.552 50.954,94.322 C51.513,93.881 51.386,92.524 51.256,91.694 L51.256,88.661 C50.968,86.555 50.783,84.348 50.752,81.988 C50.478,79.902 50.735,77.469 50.65,75.013 C50.162,71.388 50.695,67.061 50.449,63.387 C50.512,63.047 50.318,62.448 50.55,62.275 C51.178,62.455 51.746,62.696 52.369,62.881 C53.47,62.878 54.403,63.414 55.908,63.285 C56.318,62.483 56.431,61.382 56.414,60.152 C56.537,59.601 56.658,59.048 56.616,58.332 C56.717,57.996 56.92,57.759 56.918,57.321 C56.762,55.965 57.257,54.714 57.221,53.175 C57.618,53.1 57.771,52.781 58.131,52.671 C58.606,52.639 58.631,52.159 59.142,52.165 C60.257,52.27 60.889,51.889 61.974,51.963 C62.314,51.798 62.992,51.97 63.287,51.76 C63.873,51.805 64.078,51.473 64.499,51.356 C64.345,50.432 64.251,49.449 63.996,48.626 C63.992,48.089 63.567,47.976 63.692,47.313 C63.464,47.269 63.689,46.775 63.49,46.706 C63.417,46.475 63.4,46.189 63.287,45.998 C63.575,45.782 63.455,45.459 63.388,45.089 C63.999,44.115 65.052,43.584 65.816,42.762 C66.281,42.421 66.749,42.08 67.23,41.752 C67.357,41.071 68.283,41.186 68.342,40.438 C68.124,39.14 67.082,38.667 66.32,37.91 C66.025,37.465 65.58,37.169 65.207,36.798 Z"/>
    <path fill="#0A0B09" fill-rule="nonzero" d="M21.7543775,36.3834881 C22.2183232,36.0359726 21.9590594,35.5436589 21.5224046,35.1671837 C21.1539772,34.8775874 20.5945132,35.529179 20.1851494,35.6739772 C19.0935124,36.0649322 17.8517754,35.4423002 17.5106388,34.2549554 C17.1831478,33.1400096 17.4833479,31.8223465 18.5749849,31.4169117 C18.9979942,31.2576338 19.5438127,31.6630686 20.0623402,31.4893108 C20.3898313,31.3734723 20.7309678,31.4313915 20.9083588,31.0693962 C21.1266862,30.6639614 20.7173224,30.3164458 20.4580586,30.2295669 C19.789431,30.0268495 19.2026761,29.911011 18.4794666,30.0847688 C16.9648204,30.461244 16.2416109,31.8223465 16.036929,33.2992876 C15.9141198,34.283915 16.0778654,35.297502 16.8283658,35.9635735 C17.2650205,36.3400487 17.8244845,36.5572459 18.343012,36.7310037 C19.5438127,37.1219586 20.7719042,37.1509183 21.7543775,36.3834881 Z M24.8385219,34.7342005 C25.6595178,33.9507275 26.2326659,33.0133579 25.9073656,31.9081013 C25.7679512,31.4324213 25.5510843,30.9567412 25.1483316,30.5370235 C24.5596931,29.9494187 23.4753588,29.7255693 23.1035871,30.4810611 C22.9177012,30.8727977 22.3600436,31.2785248 22.1121958,32.0619978 C21.7714051,33.1252827 22.2206292,34.3004922 23.2739825,34.8601158 C23.6922257,35.0699747 24.4977311,35.0559841 24.8385219,34.7342005 Z M23.8547905,32.9752648 C21.8676616,32.640415 23.9115656,30.7150286 24.3279164,31.0359264 C25.3498685,31.8590988 25.2173932,33.198498 23.8547905,32.9752648 Z M28.8753982,36.654808 C29.20137,36.2823148 29.2665643,35.5373285 29.0057869,35.1648353 C28.7450096,34.7923422 28.7450096,34.419849 28.8753982,34.1963531 C29.0057869,33.8983586 28.8884371,33.4513668 29.0709813,33.1533722 C29.6055749,32.2593886 30.3879071,31.8868955 30.9094618,31.0525108 C31.1832781,30.6204187 30.7790731,30.4565217 30.4531014,30.3075244 C29.5273417,30.0095299 29.3317587,31.2760067 28.5494265,31.4250039 C28.6798152,30.4565217 27.8974831,29.5625381 27.2455396,30.2330258 C26.6587905,30.8290149 27.2976951,31.6633996 27.3759283,32.4083859 C27.506317,33.600364 27.6236668,34.8668408 27.5715113,36.0588189 C27.5584725,36.3568135 27.5715113,36.5803094 27.7670944,36.7293066 C28.0278718,37.1017998 28.6146209,37.1017998 28.8753982,36.654808 Z M32.8753982,36.654808 C33.20137,36.2823148 33.2665643,35.5373285 33.0057869,35.1648353 C32.7450096,34.7923422 32.7450096,34.419849 32.8753982,34.1963531 C33.0057869,33.8983586 32.8884371,33.4513668 33.0709813,33.1533722 C33.6055749,32.2593886 34.3879071,31.8868955 34.9094618,31.0525108 C35.1832781,30.6204187 34.7790731,30.4565217 34.4531014,30.3075244 C33.5273417,30.0095299 33.3317587,31.2760067 32.5494265,31.4250039 C32.6798152,30.4565217 31.8974831,29.5625381 31.2455396,30.2330258 C30.6587905,30.8290149 31.2976951,31.6633996 31.3759283,32.4083859 C31.506317,33.600364 31.6236668,34.8668408 31.5715113,36.0588189 C31.5584725,36.3568135 31.5715113,36.5803094 31.7670944,36.7293066 C32.0278718,37.1017998 32.6146209,37.1017998 32.8753982,36.654808 Z M40.1955473,35.8613357 C40.8421318,35.7765409 41.1417686,34.9285928 40.5740358,34.5611486 C39.6908959,34.9709902 38.6815931,35.3525668 38.1296307,34.4904862 C38.0350086,34.3491616 38.318875,34.2078369 38.3819564,34.1937044 C38.9812299,33.6849355 40.7475097,33.1055043 40.9998354,32.4271459 C41.0156057,31.2400185 39.8959105,30.1800834 38.6658228,30.0246263 C37.1203279,29.8267717 35.969092,30.8443094 36.0006327,32.2434238 C36.0321734,33.6001407 36.3791212,35.1971097 37.9561568,35.8330707 C38.7131338,36.1298526 39.4858813,35.9602629 40.1955473,35.8613357 Z M37.3298335,34 C36.9708172,33.968081 36.7763501,32.4838492 37.4345465,32.1167811 C38.032907,31.781632 39.2745049,32.1965786 38.9454066,32.9945526 C38.7210215,33.7606078 38.032907,33.968081 37.3298335,34 Z M45.7545902,35.131077 C45.8908271,34.9001563 46.2722905,33.9909059 45.672848,34.0342035 C45.0734055,34.0630686 44.5965762,35.1022119 43.8745205,34.813561 C43.3976912,34.6259379 42.9072382,34.5682077 42.6211407,34.0919337 C42.3759142,33.702255 42.3077957,33.1538183 42.3350431,32.749707 C42.3759142,32.0425123 42.8527435,31.4652105 43.3976912,31.0178016 C44.0516285,30.5126625 44.8145553,30.5703927 45.1006529,29.6900074 C45.1960187,29.386924 45.0870292,29.1993009 44.9235449,29.1271382 C43.8881442,28.6364317 42.9208619,29.6755749 42.1715588,30.3827696 C41.5721163,30.9456389 41.1906529,31.6672661 41.0407923,32.6053816 C40.8228132,34.0342035 41.4903741,35.3764302 42.7573776,35.766109 C43.806402,36.083625 45.0734055,36.242383 45.7545902,35.131077 Z M49.3123216,39 C49.6190454,39 49.833752,38.7839648 49.8490882,38.5103203 C49.910433,37.6029725 49.4043387,33.6423276 49.5423644,32.7349798 C50.3551824,32.7349798 51.7354394,32.8357963 51.9654822,32.1300813 C52.2568698,31.2227336 50.6312338,31.5827922 49.8030796,31.654804 C49.8030796,30.6754445 49.9564415,29.6240733 50.401191,28.7167255 C50.4778719,28.5150927 50.401191,28.2990575 50.32451,28.2270458 C49.7417349,27.8813895 48.775555,27.8813895 48.6988741,28.5727021 C48.6375293,29.0623818 48.5455122,29.5376592 48.4688313,30.0417413 C48.3921503,30.531421 48.4688313,31.1651242 48.1774437,31.5107805 C47.8093752,31.9284485 46.981221,31.8564368 46.3984459,32.1300813 C46.168403,32.2741048 45.9383602,32.5621517 46.0150412,32.7637845 C46.3064287,33.5415112 47.4106343,33.1958549 47.9934094,32.7781869 C48.4381589,33.5415112 48.3461418,37.7181913 48.6682017,38.539125 C48.7908912,38.8991836 48.9442531,39 49.3123216,39 Z" transform="rotate(-10 34 33.5)"/>
  </g>
</svg>
