<svg width="40" height="40" viewBox="0 0 40 40" fill="none" xmlns="http://www.w3.org/2000/svg">
<path d="M25.0003 6.66602V8.33268H23.3337V6.66602H25.0003Z" fill="#090909"/>
<path d="M23.3337 8.33268V9.99935H21.667V8.33268H23.3337Z" fill="#090909"/>
<path d="M30.0003 9.99935V11.666H28.3337V9.99935H30.0003Z" fill="#090909"/>
<path d="M28.3337 11.666V13.3327H26.667V11.666H28.3337Z" fill="#090909"/>
<path d="M31.667 18.3327V16.666H33.3337V14.9993H31.667V16.666H30.0003V18.3327H31.667Z" fill="#090909"/>
<path d="M11.667 13.3327V11.666H13.3337V13.3327H11.667Z" fill="#090909"/>
<path d="M10.0003 9.99935V11.666H11.667V9.99935H10.0003Z" fill="#090909"/>
<path d="M16.667 9.99935V8.33268H18.3337V9.99935H16.667Z" fill="#090909"/>
<path d="M15.0003 6.66602V8.33268H16.667V6.66602H15.0003Z" fill="#090909"/>
<path d="M28.3337 26.666V28.3327H26.667V26.666H28.3337Z" fill="#090909"/>
<path d="M28.3337 28.3327H30.0003V29.9993H28.3337V28.3327Z" fill="#090909"/>
<path d="M11.667 26.666V28.3327H10.0003V29.9993H11.667V28.3327H13.3337V26.666H11.667Z" fill="#090909"/>
<path d="M8.33366 24.9993V23.3327H10.0003V21.666H8.33366V23.3327H6.66699V24.9993H8.33366Z" fill="#090909"/>
<path d="M31.667 24.9993V23.3327H33.3337V24.9993H31.667Z" fill="#090909"/>
<path d="M31.667 23.3327H30.0003V21.666H31.667V23.3327Z" fill="#090909"/>
<path d="M23.3337 29.9993V31.666H21.667V29.9993H23.3337Z" fill="#090909"/>
<path d="M23.3337 31.666H25.0003V33.3327H23.3337V31.666Z" fill="#090909"/>
<path d="M16.667 29.9993V31.666H15.0003V33.3327H16.667V31.666H18.3337V29.9993H16.667Z" fill="#090909"/>
<path d="M8.33366 14.9993V16.666H6.66699V14.9993H8.33366Z" fill="#090909"/>
<path d="M10.0003 18.3327V16.666H8.33366V18.3327H10.0003Z" fill="#090909"/>
<path d="M16.667 11.666H23.3337V13.3327H16.667V11.666Z" fill="#090909"/>
<path d="M15.0003 14.9993V13.3327H16.667V14.9993H15.0003Z" fill="#090909"/>
<path d="M13.3337 16.666V14.9993H15.0003V16.666H13.3337Z" fill="#090909"/>
<path d="M13.3337 16.666H11.667V23.3327H13.3337V24.9993H15.0003V26.666H16.667V28.3327H23.3337V26.666H25.0003V24.9993H26.667V23.3327H28.3337V16.666H26.667V14.9993H25.0003V13.3327H23.3337V14.9993H25.0003V16.666H26.667V23.3327H25.0003V24.9993H23.3337V26.666H16.667V24.9993H15.0003V23.3327H13.3337V16.666Z" fill="#090909"/>
</svg>
