<svg width="40" height="40" viewBox="0 0 40 40" fill="none" xmlns="http://www.w3.org/2000/svg">
<path d="M14.444 7.77734V9.44401H17.7773V11.1107H19.444V9.44401H21.1107V11.1107H22.7773V9.44401H26.1107V7.77734H14.444Z" fill="#3A2406"/>
<path d="M12.7773 9.44401H11.1107V11.1107H14.444V9.44401H12.7773Z" fill="#3A2406"/>
<path d="M9.44401 14.444H11.1107V11.1107H9.44401L9.44401 12.7773V14.444Z" fill="#3A2406"/>
<path d="M14.444 26.1107H16.1107V21.1107H24.444V26.1107H26.1107V21.1107H31.1107V26.1107H32.7773V14.444H31.1107V19.444H26.1107V14.444H24.444V19.444H16.1107V14.444H14.444V19.444H9.44401V14.444H7.77734V26.1107H9.44401L9.44401 21.1107H14.444V26.1107Z" fill="#3A2406"/>
<path d="M16.1107 14.444H17.7773V11.1107H16.1107V14.444Z" fill="#3A2406"/>
<path d="M22.7773 14.444H24.444V11.1107H22.7773V14.444Z" fill="#3A2406"/>
<path d="M29.444 11.1107V9.44401H26.1107V11.1107H29.444Z" fill="#3A2406"/>
<path d="M29.444 14.444H31.1107V11.1107H29.444V14.444Z" fill="#3A2406"/>
<path d="M31.1107 26.1107H29.444V29.444H31.1107V26.1107Z" fill="#3A2406"/>
<path d="M29.444 31.1107V29.444H26.1107V31.1107H29.444Z" fill="#3A2406"/>
<path d="M24.444 26.1107H22.7773V29.444H24.444V26.1107Z" fill="#3A2406"/>
<path d="M14.444 31.1107V32.7773H26.1107V31.1107H22.7773V29.444H21.1107V31.1107H19.444V29.444H17.7773V31.1107H14.444Z" fill="#3A2406"/>
<path d="M17.7773 26.1107H16.1107V29.444H17.7773V26.1107Z" fill="#3A2406"/>
<path d="M11.1107 29.444V31.1107H14.444V29.444H11.1107Z" fill="#3A2406"/>
<path d="M11.1107 26.1107H9.44401V29.444H11.1107V26.1107Z" fill="#3A2406"/>
</svg>
