<svg width="40" height="40" viewBox="0 0 40 40" fill="none" xmlns="http://www.w3.org/2000/svg">
<path d="M16.666 10.0007H18.3327V11.6673H16.666V10.0007Z" fill="#3A2406"/>
<path d="M23.3327 10.0007H21.666V11.6673H23.3327V10.0007Z" fill="#3A2406"/>
<path d="M9.99935 10.0007H11.666V11.6673H9.99935V10.0007Z" fill="#3A2406"/>
<path d="M29.9993 10.0007H28.3327V11.6673H29.9993V10.0007Z" fill="#3A2406"/>
<path d="M8.33268 11.6673H9.99935V13.334H8.33268V11.6673Z" fill="#3A2406"/>
<path d="M31.666 11.6673H29.9993V13.334H31.666V11.6673Z" fill="#3A2406"/>
<path d="M8.33268 20.0007H9.99935V21.6673H8.33268V20.0007Z" fill="#3A2406"/>
<path d="M31.666 20.0007H29.9993V21.6673H31.666V20.0007Z" fill="#3A2406"/>
<path d="M14.9993 26.6673H16.666V28.334H14.9993V26.6673Z" fill="#3A2406"/>
<path d="M24.9993 26.6673H23.3327V28.334H24.9993V26.6673Z" fill="#3A2406"/>
<path d="M16.666 28.334H18.3327V30.0007H16.666V28.334Z" fill="#3A2406"/>
<path d="M23.3327 28.334H21.666V30.0007H23.3327V28.334Z" fill="#3A2406"/>
<path d="M13.3327 25.0007H14.9993V26.6673H13.3327V25.0007Z" fill="#3A2406"/>
<path d="M26.666 25.0007H24.9993V26.6673H26.666V25.0007Z" fill="#3A2406"/>
<path d="M11.666 23.334H13.3327V25.0007H11.666V23.334Z" fill="#3A2406"/>
<path d="M28.3327 23.334H26.666V25.0007H28.3327V23.334Z" fill="#3A2406"/>
<path d="M9.99935 21.6673H11.666V23.334H9.99935V21.6673Z" fill="#3A2406"/>
<path d="M29.9993 21.6673H28.3327V23.334H29.9993V21.6673Z" fill="#3A2406"/>
<path d="M11.666 8.33398V10.0007H16.666V8.33398H11.666Z" fill="#3A2406"/>
<path d="M28.3327 10.0007V8.33398H23.3327V10.0007H28.3327Z" fill="#3A2406"/>
<path d="M31.666 20.0007H33.3327V13.334H31.666V20.0007Z" fill="#3A2406"/>
<path d="M6.66602 20.0007H8.33268V13.334H6.66602V20.0007Z" fill="#3A2406"/>
<path d="M18.3327 30.0007V31.6673H21.666V30.0007H18.3327Z" fill="#3A2406"/>
<path d="M18.3327 11.6673V13.334H21.666V11.6673H18.3327Z" fill="#3A2406"/>
</svg>
