<svg width="80" height="80" viewBox="0 0 80 80" fill="none" xmlns="http://www.w3.org/2000/svg">
<path d="M33.333 60L33.333 56.6667L36.6663 56.6667L36.6663 60L33.333 60Z" fill="#090909"/>
<path d="M33.333 50L33.333 46.6667L36.6663 46.6667L36.6663 50L33.333 50Z" fill="#090909"/>
<path d="M43.333 50L43.333 46.6667L46.6663 46.6667L46.6663 50L43.333 50Z" fill="#090909"/>
<path d="M43.333 60L43.333 56.6667L46.6663 56.6667L46.6663 60L43.333 60Z" fill="#090909"/>
<path d="M26.6663 66.6667L26.6663 63.3333L29.9997 63.3333L29.9997 66.6667L26.6663 66.6667Z" fill="#090909"/>
<path d="M49.9997 66.6667L49.9997 63.3333L53.333 63.3333L53.333 66.6667L49.9997 66.6667Z" fill="#090909"/>
<path d="M49.9997 43.3333L49.9997 40L53.333 40L53.333 43.3333L49.9997 43.3333Z" fill="#090909"/>
<path d="M26.6663 43.3333L26.6663 40L29.9997 40L29.9997 43.3333L26.6663 43.3333Z" fill="#090909"/>
<path d="M29.9997 66.6667L29.9997 70L49.9997 70L49.9997 66.6667L29.9997 66.6667Z" fill="#090909"/>
<path d="M36.6663 60L36.6663 63.3333L43.333 63.3333L43.333 60L36.6663 60Z" fill="#090909"/>
<path d="M29.9997 56.6667L33.333 56.6667L33.333 50L29.9997 50L29.9997 56.6667Z" fill="#090909"/>
<path d="M36.6663 43.3333L36.6663 46.6667L43.333 46.6667L43.333 43.3333L36.6663 43.3333Z" fill="#090909"/>
<path d="M46.6663 56.6667L49.9997 56.6667L49.9997 50L46.6663 50L46.6663 56.6667Z" fill="#090909"/>
<path d="M53.333 63.3333L56.6663 63.3333L56.6663 43.3333L53.333 43.3333L53.333 63.3333Z" fill="#090909"/>
<path d="M49.9997 36.6667L46.6663 36.6667L46.6663 23.3333L53.333 23.3333L53.333 20L56.6663 20L56.6663 13.3333L53.333 13.3333L53.333 16.6667L46.6663 16.6667L46.6663 20L43.333 20L43.333 40L49.9997 40L49.9997 36.6667Z" fill="#090909"/>
<path d="M36.6663 10L36.6663 13.3333L53.333 13.3333L53.333 9.99999L36.6663 10Z" fill="#090909"/>
<path d="M29.9997 36.6667L29.9997 40L36.6663 40L36.6663 13.3333L33.333 13.3333L33.333 36.6667L29.9997 36.6667Z" fill="#090909"/>
<path d="M26.6663 43.3333L23.333 43.3333L23.333 63.3333L26.6663 63.3333L26.6663 43.3333Z" fill="#090909"/>
</svg>
