<svg width="80" height="80" viewBox="0 0 80 80" fill="none" xmlns="http://www.w3.org/2000/svg">
<path fill-rule="evenodd" clip-rule="evenodd" d="M46.6663 13.334H36.6677V16.6673H29.9997V20.0007H26.6663V26.6673H23.333V40.0007H26.6663V46.6673H29.9997V63.3181H33.333V66.6514L49.9997 66.6673V63.334H53.333V46.6673H56.6663V40.0007H59.9997V26.6673H56.6663V20.0007H53.333V16.6673H46.6663V13.334ZM46.6663 16.6673V20.0007H53.333V26.6673H56.6663V40.0007H53.333V46.6673H49.9997L50.001 50.0006L43.3353 49.987V30.0007H46.6663V26.6514L36.6663 26.6673V30.0007H39.9997V49.987L33.333 50.0006V46.6673H29.9997V40.0007H26.6663V26.6673H29.9997V20.0007H36.6677V16.6673H46.6663ZM39.9997 30.0007L43.3353 29.9911V30.0007H39.9997ZM49.9997 63.334L33.333 63.3181V59.9848H50.001L49.9997 63.334ZM33.333 56.6514V53.334H49.9997L50.001 56.6514H33.333Z" fill="#090909"/>
</svg>
