<svg width="36" height="40" viewBox="0 0 36 40" fill="none" xmlns="http://www.w3.org/2000/svg">
<path d="M10.7083 11.6667H9.25V28.3333H10.7083V11.6667Z" fill="#3A2406"/>
<path d="M10.7084 10L10.7083 11.6667L13.625 11.6667V10H10.7084Z" fill="#3A2406"/>
<path d="M13.625 11.6667L13.625 13.3333L16.5417 13.3333L16.5417 11.6667L13.625 11.6667Z" fill="#3A2406"/>
<path d="M16.5417 13.3333V15L19.4584 15L19.4583 13.3333H16.5417Z" fill="#3A2406"/>
<path d="M19.4584 15V16.6667L22.375 16.6667L22.375 15H19.4584Z" fill="#3A2406"/>
<path d="M22.375 16.6667V18.3333L25.2917 18.3333L25.2917 16.6667H22.375Z" fill="#3A2406"/>
<path d="M25.2917 21.6667H26.75V18.3333H25.2917V21.6667Z" fill="#3A2406"/>
<path d="M22.375 21.6667V23.3333H25.2917L25.2917 21.6667L22.375 21.6667Z" fill="#3A2406"/>
<path d="M19.4584 23.3333V25H22.375L22.375 23.3333L19.4584 23.3333Z" fill="#3A2406"/>
<path d="M16.5417 25V26.6667H19.4583L19.4584 25L16.5417 25Z" fill="#3A2406"/>
<path d="M13.625 26.6667L13.625 28.3333L16.5417 28.3333L16.5417 26.6667L13.625 26.6667Z" fill="#3A2406"/>
<path d="M10.7083 28.3333L10.7084 30H13.625V28.3333L10.7083 28.3333Z" fill="#3A2406"/>
</svg>
