<svg width="40" height="40" viewBox="0 0 40 40" fill="none" xmlns="http://www.w3.org/2000/svg">
<path d="M16.6663 18.334H14.9997V15.0007H16.6663V18.334Z" fill="#090909"/>
<path d="M23.333 18.334H24.9997V15.0007H23.333V18.334Z" fill="#090909"/>
<path d="M14.9997 8.33398V10.0007H24.9997V8.33398H14.9997Z" fill="#090909"/>
<path d="M11.6663 10.0007V11.6673H14.9997V10.0007H11.6663Z" fill="#090909"/>
<path d="M9.99967 15.0007H11.6663V11.6673H9.99967L9.99967 15.0007Z" fill="#090909"/>
<path d="M8.33301 25.0007H9.99967V15.0007H8.33301V25.0007Z" fill="#090909"/>
<path d="M11.6663 25.0007H9.99967V28.334H11.6663V25.0007Z" fill="#090909"/>
<path d="M11.6663 28.334V30.0007H14.9997V28.334H11.6663Z" fill="#090909"/>
<path d="M14.9997 30.0007V31.6673H24.9997V30.0007H14.9997Z" fill="#090909"/>
<path d="M28.333 30.0007V28.334H24.9997V30.0007H28.333Z" fill="#090909"/>
<path d="M29.9997 25.0007H28.333V28.334H29.9997V25.0007Z" fill="#090909"/>
<path d="M29.9997 25.0007H31.6663V15.0007H29.9997V25.0007Z" fill="#090909"/>
<path d="M28.333 15.0007H29.9997V11.6673H28.333V15.0007Z" fill="#090909"/>
<path d="M28.333 11.6673V10.0007H24.9997V11.6673H28.333Z" fill="#090909"/>
<path d="M15.8337 24.1667H24.167M14.167 22.5H15.8337M24.167 22.5H25.8337" stroke="#090909"/>
</svg>
