<svg width="40" height="40" viewBox="0 0 40 40" fill="none" xmlns="http://www.w3.org/2000/svg">
<path d="M13.333 11.6673H11.6663V10.0007L13.333 10.0007V11.6673Z" fill="#090909"/>
<path d="M11.6663 13.334H9.99967V11.6673L11.6663 11.6673V13.334Z" fill="#090909"/>
<path d="M13.333 25.0007H11.6663V23.334H13.333V25.0007Z" fill="#090909"/>
<path d="M23.333 11.6673H21.6663V10.0007L23.333 10.0007V11.6673Z" fill="#090909"/>
<path d="M24.9997 13.334H23.333V11.6673H24.9997V13.334Z" fill="#090909"/>
<path d="M26.6663 26.6673H24.9997V25.0007H26.6663V26.6673Z" fill="#090909"/>
<path d="M28.333 28.334H26.6663V26.6673H28.333V28.334Z" fill="#090909"/>
<path d="M29.9997 30.0007H28.333V28.334H29.9997V30.0007Z" fill="#090909"/>
<path d="M31.6663 31.6673H29.9997V30.0007H31.6663V31.6673Z" fill="#090909"/>
<path d="M11.6663 23.334H9.99967V21.6673H11.6663V23.334Z" fill="#090909"/>
<path d="M23.333 21.6673V23.334H21.6663V25.0007H24.9997V21.6673H23.333Z" fill="#090909"/>
<path d="M26.6663 13.334H24.9997V21.6673H26.6663V13.334Z" fill="#090909"/>
<path d="M13.333 8.33398V10.0007L21.6663 10.0007V8.33398L13.333 8.33398Z" fill="#090909"/>
<path d="M8.33301 21.6673H9.99967V13.334H8.33301L8.33301 21.6673Z" fill="#090909"/>
<path d="M13.333 25.0007V26.6673H21.6663V25.0007H13.333Z" fill="#090909"/>
</svg>
