<svg xmlns="http://www.w3.org/2000/svg" width="157" height="150" viewBox="0 0 157 150"><defs><clipPath id="a"><path d="M133.829751,22.1018727 C154.210088,49.6354973 165.729409,86.0509363 148.893478,123.354557 C127.627039,145.559093 102.816194,149.111819 76.2331447,150 L69.9851402,149.431202 C69.9307189,149.426247 69.8763044,149.421219 69.8218968,149.416116 L68.6560621,149.306769 C54.1364451,147.927246 40.7922687,145.975078 27.3888528,136.652218 C15.8857519,128.650928 7.56497158,117.52023 1.37105808,105.156887 C1.26416615,104.482705 1.09127718,103.87393 1.0040015,103.181301 C-0.786729228,89.2096497 -0.138897972,76.15805 2.60305821,65.561318 C5.34501439,54.9645859 4.45891276,56.7409488 9.77552253,45.1945901 C11.7557933,40.8939327 19.5226404,28.3191427 34.5863681,17.6609655 C52.3084007,1.67369954 98.3856854,-14.3135664 133.829751,22.1018727 Z"/></clipPath><clipPath id="b"><path d="M73.3333333,142.666667 C56.4703196,141.116858 41.4390249,140.345163 26.3295022,129.897595 C15.2598399,122.243211 7.25258791,111.595098 1.29206206,99.7677835 C1.18919784,99.1228323 1.02282335,98.5404509 0.938836234,97.8778518 C-0.784419476,84.5119594 -0.0566910855,72.5322309 2.47764023,61.8889312 C29.290488,41.0724082 72.9205966,77.1912816 73.3333333,142.666667 Z M43.4831668,39.8471569 C73.7967785,55.3467603 87.956204,92.3801638 88.6666667,126.140647 C88.2712508,131.249089 87.2987848,136.303168 87.1026843,141.378033 C85.5499535,141.608273 83.9875785,141.814529 82.4139518,142 C83.1790655,137.069035 82.1487338,131.453746 81.3434356,126.900118 C81.2309189,126.26536 81.0653586,125.657784 80.9383754,125.03102 C75.8670861,85.2411367 40.55291,35.4630108 4.66666667,53.3913224 C6.15397696,49.2390148 7.94058173,45.3265401 9.98340315,41.6538984 C11.7303056,40.3252239 13.4886204,39.3131289 15.237291,38.4976969 C16.022497,38.2962372 16.7567489,37.9956466 17.4312063,37.6023206 C30.408724,32.8999961 42.2663789,40.0662043 43.4831668,39.8471569 Z M119.258379,109.692856 C119.429732,112.806763 119.277049,116.018477 119.102934,119.246363 L118.998315,121.184383 C118.776556,125.384801 118.620858,129.584958 119.19604,133.605504 C112.425056,136.446976 104.289006,138.645066 92.685944,140.666667 C102.262187,104.504081 79.2718513,24.1775429 17.3333333,30.8055051 C51.2752077,-12.1368232 115.473278,40.8429129 119.258379,109.692856 Z M11.0876797,105.49694 C15.3891,114.697923 22.9298635,122.214333 31.5749377,127.598552 C40.2792027,132.883302 50.3880524,136.204319 60.5160991,135.85457 C51.0855454,132.328195 42.3236892,128.47774 34.1441436,123.39193 C25.9018877,118.405591 18.4982232,112.32508 11.0876797,105.49694 Z M55.8008909,4 C82.9387881,5.17801946 104.767761,17.5287922 121.247614,38.1577562 C150.244117,75.3735547 142.410962,107.311505 142.258221,117.83194 C138.950996,122.837321 133.579368,126.299256 127.053346,130 C137.412341,65.0550658 82.1831265,2.89570693 38.6666667,11.9993131 C44.1604871,8.67200916 49.934063,6.0082427 55.8008909,4 Z M116.63056,10.9076351 C143.052393,28.8941328 154.713515,74.8222735 148.2531,103.333333 C148.091229,96.5212409 152.242178,63.8553676 127.323661,33.3722592 C111.68468,13.7965414 88.824008,1.22111312 63.3333333,1.62485225 C78.0892366,-2.09726863 101.740031,0.403983735 116.63056,10.9076351 Z"/></clipPath></defs><g clip-path="url(#a)"><polygon fill="#FFF" points="0 0 157 0 157 150 0 150 0 0"/></g><g clip-path="url(#b)" transform="translate(3 4)"><polygon fill="#795E58" points="0 0 150 0 150 142.667 0 142.667 0 0"/></g></svg>