<svg xmlns="http://www.w3.org/2000/svg" width="334" height="67" viewBox="0 0 334 67">
  <path d="M662.896,906 L662.896,888.072 L675.712,888.072 C687.52,888.072 693.856,881.304 693.856,871.44 C693.856,861.504 687.52,854.736 675.712,854.736 L653.176,854.736 L653.176,906 L662.896,906 Z M675.28,879.72 L662.896,879.72 L662.896,863.088 L675.28,863.088 C680.968,863.088 684.064,866.112 684.064,871.44 C684.064,876.768 680.968,879.72 675.28,879.72 Z M708.616,906 L708.616,854.736 L699.544,854.736 L699.544,906 L708.616,906 Z M727.336,906.864 C732.808,906.864 736.84,904.92 739.288,901.464 C739.432,903.264 739.72,904.992 740.296,906 L749.368,906 C748.36,904.56 747.856,901.608 747.856,898.944 L747.856,879.144 C747.856,872.448 743.464,867.984 732.376,867.984 C720.784,867.984 716.176,872.808 715.672,880.656 L724.6,880.656 C724.96,876.12 727.12,874.752 732.304,874.752 C737.56,874.752 739.072,876.48 739.072,879.36 C739.072,882.096 737.272,883.176 733.816,883.608 L728.2,884.112 C717.688,885.12 713.944,889.512 713.944,895.704 C713.944,902.904 719.416,906.864 727.336,906.864 Z M729.496,900.384 C725.32,900.384 723.232,898.44 723.232,895.344 C723.232,892.392 724.888,890.592 729.928,890.016 L734.824,889.44 C736.768,889.224 738.136,888.792 739.072,887.928 L739.072,891.312 C739.072,897.792 734.32,900.384 729.496,900.384 Z M758.224,920.184 C767.224,920.184 771.256,917.304 774.208,909.024 L788.536,868.848 L779.032,868.848 L776.008,878.208 C773.992,884.76 771.976,891.528 770.032,898.872 C768.16,891.6 766.144,884.616 764.128,878.136 L761.104,868.848 L751.312,868.848 L762.112,899.376 C762.976,901.824 763.84,904.632 763.84,906.864 C763.84,909.96 762.184,912.84 757.72,912.84 L754.264,912.84 L754.264,919.968 C755.416,920.112 756.496,920.184 758.224,920.184 Z M801.424,906 L801.424,885.192 C801.424,878.568 805.744,875.832 809.704,875.832 C814.312,875.832 816.688,878.136 816.688,882.888 L816.688,906 L825.76,906 L825.76,881.376 C825.76,872.52 820.504,867.984 812.728,867.984 C807.688,867.984 803.872,870.432 801.424,873.816 L801.424,854.736 L792.352,854.736 L792.352,906 L801.424,906 Z M850.384,906.864 C861.688,906.864 869.248,899.232 869.248,887.424 C869.248,875.616 861.688,867.984 850.384,867.984 C839.08,867.984 831.448,875.616 831.448,887.424 C831.448,899.232 839.08,906.864 850.384,906.864 Z M850.384,899.376 C844.48,899.376 840.736,895.272 840.736,887.424 C840.736,879.576 844.48,875.472 850.384,875.472 C856.216,875.472 860.032,879.576 860.032,887.424 C860.032,895.272 856.216,899.376 850.384,899.376 Z M887.896,906.864 C893.224,906.864 897.112,904.2 899.56,900.6 L899.56,906 L908.344,906 L908.344,868.848 L899.272,868.848 L899.272,889.656 C899.272,896.28 894.952,899.016 890.992,899.016 C886.312,899.016 884.008,896.712 884.008,891.96 L884.008,868.848 L874.936,868.848 L874.936,893.472 C874.936,902.328 880.192,906.864 887.896,906.864 Z M930.304,907.008 C940.672,907.008 946.792,902.832 946.792,895.344 C946.792,888.936 942.832,885.624 933.904,884.04 L929.224,883.32 C925.192,882.6 923.032,881.52 923.032,878.784 C923.032,876.12 925.12,874.464 929.512,874.464 C934.192,874.464 937.144,875.832 937.36,880.584 L945.928,880.584 C945.64,872.952 940.96,867.984 929.512,867.984 C919.576,867.984 914.104,872.232 914.104,879.216 C914.104,885.552 918.28,889.08 926.272,890.448 L930.52,891.168 C936.136,892.104 937.792,893.4 937.792,896.064 C937.792,898.872 935.704,900.528 930.448,900.528 C925.048,900.528 922.672,898.872 922.168,894.192 L913.312,894.192 C913.888,903.192 919.72,907.008 930.304,907.008 Z M968.464,906.864 C977.392,906.864 983.872,902.04 985.744,894.48 L977.032,894.48 C975.664,897.792 972.856,899.808 968.536,899.808 C963.28,899.808 959.536,896.856 958.888,890.232 L986.68,890.232 L986.68,888.072 C986.68,876.264 979.696,867.984 968.32,867.984 C957.304,867.984 949.96,875.76 949.96,887.424 C949.96,899.304 957.52,906.864 968.464,906.864 Z M977.608,883.896 L958.96,883.896 C959.824,877.776 963.424,875.04 968.248,875.04 C973.648,875.04 976.888,878.64 977.608,883.896 Z" transform="translate(-653 -854)"/>
</svg>
