<svg xmlns="http://www.w3.org/2000/svg" width="501" height="150" viewBox="0 0 501 150"><g fill="none" fill-rule="evenodd"><path fill="#FFF" d="M2.60305821,65.561318 C5.34501439,54.9645859 4.45891276,56.7409488 9.77552253,45.1945901 C11.7557933,40.8939327 19.5226404,28.3191427 34.5863681,17.6609655 C52.3084007,1.67369954 98.3856854,-14.3135664 133.829751,22.1018727 C154.210088,49.6354973 165.729409,86.0509363 148.893478,123.354557 C127.627039,145.559093 102.816194,149.111819 76.2331447,150 L69.9851402,149.431202 C69.9307189,149.426247 69.8763044,149.421219 69.8218968,149.416116 L68.6560621,149.306769 L68.6560621,149.306769 C54.1364451,147.927246 40.7922687,145.975078 27.3888528,136.652218 C15.8857519,128.650928 7.56497158,117.52023 1.37105808,105.156887 C1.26416615,104.482705 1.09127718,103.87393 1.0040015,103.181301 C-0.786729228,89.2096497 -0.138897972,76.15805 2.60305821,65.561318 Z"/><path fill="#020000" d="M5.47764023,65.8889312 C32.290488,45.0724082 75.9205966,81.1912816 76.3333333,146.666667 C59.4703196,145.116858 44.4390249,144.345163 29.3295022,133.897595 C18.2598399,126.243211 10.2525879,115.595098 4.29206206,103.767784 C4.18919784,103.122832 4.02282335,102.540451 3.93883623,101.877852 C2.21558052,88.5119594 2.94330891,76.5322309 5.47764023,65.8889312 Z M20.4312063,41.6023206 C33.408724,36.8999961 45.2663789,44.0662043 46.4831668,43.8471569 C76.7967785,59.3467603 90.956204,96.3801638 91.6666667,130.140647 C91.2712508,135.249089 90.2987848,140.303168 90.1026843,145.378033 C88.5499535,145.608273 86.9875785,145.814529 85.4139518,146 C86.1790655,141.069035 85.1487338,135.453746 84.3434356,130.900118 C84.2309189,130.26536 84.0653586,129.657784 83.9383754,129.03102 C78.8670861,89.2411367 43.55291,39.4630108 7.66666667,57.3913224 C9.15397696,53.2390148 10.9405817,49.3265401 12.9834031,45.6538984 C14.7303056,44.3252239 16.4886204,43.3131289 18.237291,42.4976969 C19.022497,42.2962372 19.7567489,41.9956466 20.4312063,41.6023206 Z M20.3333333,34.8055051 C54.2752077,-8.13682318 118.473278,44.8429129 122.258379,113.692856 C122.429732,116.806763 122.277049,120.018477 122.102934,123.246363 L121.998315,125.184383 C121.776556,129.384801 121.620858,133.584958 122.19604,137.605504 C115.425056,140.446976 107.289006,142.645066 95.685944,144.666667 C105.262187,108.504081 82.2718513,28.1775429 20.3333333,34.8055051 Z M14.0876797,109.49694 C18.3891,118.697923 25.9298635,126.214333 34.5749377,131.598552 C43.2792027,136.883302 53.3880524,140.204319 63.5160991,139.85457 C54.0855454,136.328195 45.3236892,132.47774 37.1441436,127.39193 C28.9018877,122.405591 21.4982232,116.32508 14.0876797,109.49694 Z M58.8008909,8 C85.9387881,9.17801946 107.767761,21.5287922 124.247614,42.1577562 C153.244117,79.3735547 145.410962,111.311505 145.258221,121.83194 C141.950996,126.837321 136.579368,130.299256 130.053346,134 C140.412341,69.0550658 85.1831265,6.89570693 41.6666667,15.9993131 C47.1604871,12.6720092 52.934063,10.0082427 58.8008909,8 Z M66.3333333,5.62485225 C81.0892366,1.90273137 104.740031,4.40398373 119.63056,14.9076351 C146.052393,32.8941328 157.713515,78.8222735 151.2531,107.333333 C151.091229,100.521241 155.242178,67.8553676 130.323661,37.3722592 C114.68468,17.7965414 91.824008,5.22111312 66.3333333,5.62485225 Z"/><path fill="#020000" fill-rule="nonzero" stroke="#FFF" stroke-width="3" d="M157.620551,10.8135424 C159.343414,11.0392744 161.868785,11.918423 165.183795,13.5005867 C167.649301,14.6764435 169.761711,16.4897081 171.50761,18.9567389 C172.927302,21.0150984 174.426189,23.5509091 176.016079,26.5894323 C176.695753,27.9087991 177.084292,29.4063048 177.164318,31.0868554 C177.200155,31.981698 177.217773,32.8298076 177.217773,33.6425781 C177.217773,36.7453367 176.885477,39.2156057 176.260916,41.0524666 C175.755959,42.5673374 174.927794,43.7218541 173.811437,44.542705 C172.728325,45.3391113 171.355784,45.8277855 169.672191,45.9556533 C168.378143,46.0449343 167.0759,45.7251771 165.765459,44.9477968 C164.501825,44.1981837 163.557875,43.2377863 162.916303,42.0829566 C162.324679,40.9789624 161.880522,39.2476315 161.647382,36.8385027 C161.503244,35.3250584 161.433594,34.2079432 161.433594,33.4873047 C161.433594,32.814765 161.307056,32.2363143 161.003073,31.7687013 C160.84486,31.5271479 160.558227,30.9896935 160.156532,30.1480475 C159.863979,29.5350779 159.601211,29.0667766 159.349702,28.7557784 C159.160224,28.5378015 158.957595,28.3758099 158.717022,28.3116571 C157.998369,28.1024704 157.32773,28 156.670898,28 C154.730539,28 152.885293,28.8529262 151.111243,30.4524109 C150.325452,31.1727198 149.283386,32.389242 147.974092,34.091324 C147.789956,34.3219292 147.727497,34.7110273 147.647048,35.214046 C147.553512,35.8750114 147.508789,36.6452444 147.508789,37.5244141 C147.508789,38.8852713 147.62676,40.4783294 147.859511,42.307112 C147.938489,42.9389358 148.05803,43.8137604 148.218039,44.9315982 L148.3189,45.6314626 L148.372971,46.0032662 C148.561843,47.2983893 148.708797,48.3423849 148.814118,49.1351765 C149.596455,49.0947712 150.989565,49.0372836 152.99367,48.9648461 C155.775295,48.8643054 157.887136,48.70039 159.328323,48.4657782 C159.769451,48.4148232 160.135215,48.3945312 160.500977,48.3945313 C161.698527,48.3945313 162.854258,48.6695118 163.966719,49.225742 C165.530541,50.0506829 166.64915,51.1676564 167.371389,52.5696547 C168.003823,53.7923601 168.31543,55.0579551 168.31543,56.3642578 L168.31543,57.2319485 C168.115594,58.9430193 167.444534,60.4069561 166.311335,61.6281339 C165.339233,62.7108961 163.851434,63.6123424 161.795443,64.2599427 C159.644429,65.0063878 155.972734,65.578584 150.769692,65.9349733 C150.161189,65.978374 149.595132,65.7683763 149.527945,65.8355625 C149.471717,65.8917904 149.868571,66.440656 149.887462,66.7901309 C149.956765,68.2792393 150.077116,70.3757031 150.248958,73.0907997 C150.421357,75.8147104 150.525086,77.6317734 150.560601,78.5418221 C150.596374,79.0854986 150.614258,79.6291752 150.614258,80.1728516 C150.614258,82.2564907 150.322183,84.110931 149.754191,85.7391754 C148.98529,87.7315456 147.671661,89.0462269 145.818173,89.7523175 C144.97094,90.0062487 144.277318,90.109375 143.62793,90.109375 C142.467444,90.109375 141.373111,89.7697153 140.350214,89.0723556 C139.104969,88.2367407 138.042833,86.7420325 137.290148,84.4839261 C135.002276,77.7259051 133.712306,70.0351263 133.432617,61.4091628 L133.432863,60.4418263 C133.437444,58.8365256 133.50617,55.8136476 133.63964,51.3731479 C133.638565,49.9589751 133.535682,48.2253208 133.333956,45.7709669 L133.259904,44.8663028 C132.936749,40.9768162 132.584126,37.4867587 132.201771,34.3964801 C132.125162,33.8173799 132.086914,33.2382773 132.086914,32.6591797 C132.086914,29.3934016 133.184354,26.2129681 135.430476,23.1293186 C137.311899,20.5604522 138.768612,18.8331896 139.782064,17.9278797 C144.460001,13.6234564 149.243281,11.3378658 154.095737,10.9762262 Z M201.459419,10.8135424 C203.182281,11.0392744 205.707653,11.918423 209.022662,13.5005867 C211.488168,14.6764435 213.600578,16.4897081 215.346477,18.9567389 C216.766169,21.0150984 218.265056,23.5509091 219.854946,26.5894323 C220.53462,27.9087991 220.923159,29.4063048 221.003185,31.0868554 C221.039022,31.981698 221.056641,32.8298076 221.056641,33.6425781 C221.056641,36.7453367 220.724344,39.2156057 220.099783,41.0524666 C219.594826,42.5673374 218.766662,43.7218541 217.650304,44.542705 C216.567192,45.3391113 215.194652,45.8277855 213.511058,45.9556533 C212.21701,46.0449343 210.914767,45.7251771 209.604326,44.9477968 C208.340692,44.1981837 207.396742,43.2377863 206.75517,42.0829566 C206.163546,40.9789624 205.719389,39.2476315 205.486249,36.8385027 C205.342111,35.3250584 205.272461,34.2079432 205.272461,33.4873047 C205.272461,32.814765 205.145923,32.2363143 204.84194,31.7687013 C204.683727,31.5271479 204.397094,30.9896935 203.9954,30.1480475 C203.702846,29.5350779 203.440078,29.0667766 203.188569,28.7557784 C202.999092,28.5378015 202.796462,28.3758099 202.555889,28.3116571 C201.837237,28.1024704 201.166597,28 200.509766,28 C198.569407,28 196.72416,28.8529262 194.95011,30.4524109 C194.164319,31.1727198 193.122253,32.389242 191.812959,34.091324 C191.628824,34.3219292 191.566365,34.7110273 191.485916,35.214046 C191.392379,35.8750114 191.347656,36.6452444 191.347656,37.5244141 C191.347656,38.8852713 191.465627,40.4783294 191.698378,42.307112 C191.801049,43.1284829 191.972272,44.3605252 192.211839,46.0032662 C192.400711,47.2983893 192.547664,48.3423849 192.652985,49.1351765 C193.435322,49.0947712 194.828432,49.0372836 196.832537,48.9648461 C199.614162,48.8643054 201.726003,48.70039 203.16719,48.4657782 C203.608318,48.4148232 203.974082,48.3945312 204.339844,48.3945312 C205.537395,48.3945312 206.693126,48.6695118 207.805586,49.225742 C209.369408,50.0506829 210.488017,51.1676564 211.210256,52.5696547 C211.84269,53.7923601 212.154297,55.0579551 212.154297,56.3642578 L212.154297,57.2319485 C211.954461,58.9430193 211.283401,60.4069561 210.150202,61.6281339 C209.1781,62.7108961 207.690302,63.6123424 205.63431,64.2599427 C203.483296,65.0063878 199.811602,65.578584 194.608559,65.9349733 C194.000056,65.978374 193.433999,65.7683763 193.366813,65.8355625 C193.310585,65.8917904 193.707439,66.440656 193.726329,66.7901309 C193.795632,68.2792393 193.915983,70.3757031 194.087825,73.0907997 C194.260224,75.8147104 194.363953,77.6317734 194.399468,78.5418221 C194.435242,79.0854986 194.453125,79.6291752 194.453125,80.1728516 C194.453125,82.2564907 194.16105,84.110931 193.593058,85.7391754 C192.824157,87.7315456 191.510528,89.0462269 189.65704,89.7523175 C188.809807,90.0062487 188.116185,90.109375 187.466797,90.109375 C186.306311,90.109375 185.211979,89.7697153 184.189081,89.0723556 C182.943836,88.2367407 181.8817,86.7420325 181.129015,84.4839261 C178.841144,77.7259051 177.551173,70.0351263 177.271484,61.4091628 L177.27173,60.4418263 C177.276311,58.8365256 177.345037,55.8136476 177.478507,51.3731479 C177.477433,49.9589751 177.374549,48.2253208 177.172823,45.7709669 L177.098771,44.8663028 C176.775616,40.9768162 176.422993,37.4867587 176.040638,34.3964801 C175.964029,33.8173799 175.925781,33.2382773 175.925781,32.6591797 C175.925781,29.3934016 177.023222,26.2129681 179.269343,23.1293186 C181.150766,20.5604522 182.607479,18.8331896 183.620931,17.9278797 C188.298869,13.6234564 193.082148,11.3378658 197.934605,10.9762262 Z M49.8188249,-1.49964175 C51.0606625,-1.50000817 51.8424145,-1.48176904 52.4469072,-1.44685562 C55.0602047,-1.36430972 57.1631878,-0.714228178 58.7831893,0.431626541 C61.4395062,2.38206425 62.7294922,4.88145482 62.7294922,7.91894531 C62.7294922,8.3382138 62.7106689,8.77655264 62.672553,9.23394322 C62.4619414,11.0933071 61.8510752,12.6330046 60.8628434,13.9094707 C59.8881417,15.1684604 58.5377035,16.1786514 56.7801091,16.9143609 C55.5279822,17.4299426 53.7263815,17.8830966 51.3657101,18.2519492 C47.0781138,18.9142608 42.250449,19.3857297 36.8825161,19.6646665 C36.5660096,19.6787513 36.0921667,19.4051164 36.0395096,19.465296 C35.9875147,19.5247187 36.3112297,19.9455406 36.3304194,20.2527373 C36.3651674,20.8434542 36.408635,21.6947798 36.4607571,22.8067177 C36.5127319,23.9155136 36.5560388,24.92036 36.5906886,25.8212566 C36.6259782,26.7387851 36.6435547,27.6033801 36.6435547,28.4150391 C36.6435547,31.2324409 36.7815012,36.0082696 37.056523,42.7464279 C37.2644458,48.1870749 37.3681641,52.6400909 37.3681641,56.1054688 L37.3687361,59.6319934 C37.3755999,61.265915 37.444216,63.605907 37.5738197,66.6515936 C37.6784147,69.0921451 37.7304687,71.1666168 37.7304688,72.875 C37.7304688,73.9363571 37.7125422,74.8561922 37.6773737,75.62973 C37.5707384,78.1534333 37.4956388,79.5569869 37.4600965,79.8413255 C37.0555745,82.5944928 35.8661375,84.8088963 33.9040219,86.5307442 C32.0014013,88.190477 29.7754628,89.0224609 27.2246094,89.0224609 C24.1411107,88.9418355 21.8605611,87.9887918 19.9622646,86.2103877 C18.0535085,84.4221847 16.9678156,82.1658084 16.7251131,79.4317818 C16.6193889,78.3996094 16.5637499,76.8403656 16.5634734,74.7534719 C16.5303025,73.1364132 16.4499684,70.5145247 16.3226086,66.8881924 C16.1666802,62.4813381 16.0976563,59.6610643 16.0976563,57.9428711 L16.0978342,57.7239569 C16.1005635,56.0008105 16.1346828,53.2471544 16.2003434,49.4626793 C15.9940977,46.1716503 15.890625,42.4337733 15.890625,38.2490234 C15.890625,34.8242602 15.9595998,31.0887803 16.0976744,27.0425488 C16.098578,26.3697014 16.1333105,25.3606592 16.2031917,24.0154446 C16.2721358,22.6882711 16.3238448,21.679964 16.3583168,20.9905233 C15.6784286,20.8212686 14.8642118,20.8056641 13.7675781,20.8056641 C12.5957737,20.8056641 11.5571427,20.7787024 10.6516631,20.7254389 C9.73464338,20.6714966 8.86259513,20.5904019 8.03548341,20.4825178 C6.19113922,20.2022013 4.68037764,19.676107 3.46029754,18.9283159 C0.116759765,16.8082315 -1.5,13.95506 -1.5,10.4033203 C-1.5,10.1093723 -1.48030156,9.8154179 -1.44077262,9.52113175 C-1.29159801,7.50937676 -0.686485296,5.80543229 0.340379631,4.39600985 C1.36884676,2.9843883 2.8294529,1.85838151 4.74896919,1.05016412 C6.22824844,0.465827689 7.82782754,0.118499753 9.58109223,0.00415640355 C13.2385312,-0.137048658 15.9540018,-0.188623451 17.7675047,-0.154298397 C20.711,-0.154913285 23.8064307,-0.341781378 27.0538915,-0.713871866 C27.0719813,-0.716087256 27.0918222,-0.718354335 27.1134145,-0.720672625 L27.263984,-0.735193049 C28.1219141,-0.810829408 30.5561187,-0.931691601 34.5683269,-1.08482926 C41.5590375,-1.35370275 46.641442,-1.49172912 49.8188249,-1.49964175 Z M227.941406,12.5263672 C228.537382,12.5263672 229.176508,12.6078258 229.857944,12.7781847 C232.073651,13.3321113 233.735865,14.6099671 234.843801,16.6127751 C235.571005,17.952262 236.114894,19.9558284 236.419279,22.657244 C236.559184,24.2945396 236.857541,26.5448449 237.316117,29.4491616 C237.786991,32.4313636 238.091542,34.5503742 238.231081,35.8058198 C238.404024,37.2593926 238.64586,39.4531098 238.956505,42.3869812 C239.266335,45.3131445 239.507287,47.5163762 239.679472,48.9971661 C239.959252,51.4102669 240.153452,54.8374522 240.258371,59.2790299 C240.360866,63.6180141 240.47925,66.6075581 240.615289,68.2402296 C240.712353,69.3402919 240.854916,70.9635916 241.042981,73.1101569 C241.286249,75.887424 241.424584,77.67455 241.495203,78.8904754 C241.532186,79.1766775 241.552734,79.5177589 241.552734,79.9140625 C241.386498,82.6206719 240.747292,84.5007475 239.778182,85.7121201 C238.604218,87.1904449 237.023803,88.0755406 235.019204,88.33701 C234.621832,88.3814362 234.273302,88.4013672 233.945313,88.4013672 C232.427347,88.4013672 231.039118,87.9685508 229.781213,87.1010301 C228.329246,85.9929777 227.261396,84.3398121 226.602596,82.0341429 C226.24555,80.8132983 225.859155,78.367317 225.466544,74.6910497 C225.363885,73.732898 225.166921,72.1673711 224.876054,69.9944225 C224.578858,67.7741944 224.378276,66.0696429 224.273383,64.8808642 C224.200758,63.8411753 224.132635,62.9054567 224.068889,62.0725348 L224.015319,61.383749 C223.919063,60.1670283 223.83353,59.2033241 223.758242,58.4880819 C223.65604,57.3655324 223.403221,55.8140477 223.002762,53.8117523 C222.582549,51.7106872 222.320414,50.3081718 222.214486,49.6045701 C221.478903,45.2226968 221.061411,41.6635963 220.956277,38.9300692 C220.923176,38.1025569 220.796789,36.927709 220.581649,35.4051841 C220.354373,33.7967691 220.206058,32.677838 220.136128,32.0484598 C219.921871,29.8360446 219.816406,27.8038163 219.816406,25.9306641 C219.816406,23.7037705 219.961981,21.6925952 220.249277,19.8963554 C220.624963,17.3790283 221.794203,15.4057649 223.741861,13.9554316 C225.054219,12.9930357 226.457081,12.5263672 227.941406,12.5263672 Z M266.947207,20.3434947 C270.932777,20.3417969 274.275219,21.6190496 277.216077,24.1779785 C279.802409,26.4727979 281.943017,29.1385284 283.650103,32.1895044 C285.308925,35.1753829 286.167969,38.9663018 286.167969,43.5800781 L286.167969,44.1772368 C286.089837,46.3565649 285.402828,48.1676021 284.150604,49.6285308 C282.558615,51.4030427 280.918939,52.1708984 279.285156,52.1708984 C277.506266,52.1708984 275.217194,52.6122609 272.295739,53.4615638 L271.530204,53.6860177 C269.856311,54.1488828 267.509129,54.3964844 264.482422,54.3964844 C263.781618,54.3964844 263.028954,54.3792955 262.224435,54.3447266 L258.139161,54.3447266 C258.790349,56.1761103 259.692803,57.766323 260.856818,59.1114109 C262.440389,60.9483529 263.694665,62.1904858 264.649449,62.7994927 C266.308959,63.7728815 267.905589,64.2841797 269.451172,64.2841797 C270.462592,64.2841797 271.472617,64.0622618 272.487908,63.627146 C274.518235,62.7649523 275.798469,61.3638325 276.273655,59.3792333 C276.640089,57.9131902 277.121609,56.7927255 277.683847,55.9841173 C278.37405,54.9367293 279.292726,54.1866959 280.436078,53.7293553 C281.593314,53.266461 282.750325,53.1783118 283.906362,53.4504809 C285.067171,53.6890872 286.070092,54.2570354 286.908846,55.1656853 C287.74986,56.0767837 288.244119,57.1618415 288.38438,58.4241965 C288.460716,59.2605782 288.49707,60.0304643 288.49707,60.7636719 C288.49707,63.3896802 287.991706,65.7268694 286.998692,67.7892121 C285.310743,71.238499 283.0509,74.0977586 280.216211,76.3801703 C277.532742,78.5045834 274.038934,79.8195079 269.709036,80.2674283 C267.427219,80.4814182 265.637995,80.5859375 264.327148,80.5859375 C263.511317,80.5859375 262.850777,80.5432435 262.343935,80.4658321 C257.697359,79.8298042 253.8181,77.9588517 250.69554,74.8735897 C247.443735,71.7280426 245.107004,68.593178 243.661949,65.4863076 C241.424145,60.6858587 240.3125,55.8843928 240.3125,51.0849609 C240.3125,49.1699039 240.492329,47.27283 240.851899,45.393665 C240.920977,44.9391449 241.046867,43.9872023 241.23011,42.537917 C241.433696,40.9277296 241.671187,39.6985576 241.930224,38.8474373 C242.109188,38.3089035 242.342143,37.5071639 242.642698,36.4051286 C242.966059,35.21947 243.290125,34.1867487 243.61348,33.3065043 C243.959994,32.3632147 244.384267,31.4877043 244.88476,30.6790953 C245.631097,29.4495254 246.471114,28.3505733 247.402696,27.3806137 C248.197971,26.5163447 248.821145,25.8501575 249.272059,25.3819008 C249.76006,24.8751303 250.424268,24.2908805 251.26903,23.6338428 C252.146112,22.9516679 253.015093,22.4186936 253.87246,22.0289815 C256.396781,20.9575316 258.642629,20.4288314 260.638656,20.3935547 L264.148354,20.393214 C265.36479,20.3907134 266.29775,20.3744212 266.947207,20.3434947 Z M266.720022,34.830675 C265.181884,34.8961277 263.496892,35.1441419 261.650591,35.572679 C261.306133,35.6492252 261.010519,35.9114858 260.712796,36.2650317 C260.541293,36.4708671 260.285467,36.7709093 259.950176,37.1591407 C259.676845,37.4756295 259.479433,37.7179241 259.262256,38.026365 C258.62642,38.7793286 258.081126,39.5273913 257.714022,40.3552258 C259.218848,40.1960958 261.078002,40.1132813 263.291992,40.1132813 C265.753144,40.1132812 267.919705,39.9046514 269.745443,38.9092159 C269.375231,37.9917185 268.969245,37.203836 268.267041,36.1617223 L268.251039,36.1373066 L268.217151,36.0896756 C268.095974,35.9301317 267.865734,35.7399044 266.720022,34.830675 Z M311.892578,20.7558594 C315.174043,20.7558594 318.420107,21.4881696 321.624169,22.9613104 C324.333328,24.1963678 326.24256,26.170823 327.357772,28.878899 C327.779222,29.8721104 327.895432,30.900545 327.706336,31.9642102 C327.5089,33.0747866 327.046612,33.9633802 326.358512,34.6514805 C325.720843,35.2891496 324.859101,35.7013354 323.732057,35.8086729 C323.060142,35.8491815 322.478695,35.8671875 321.933594,35.8671875 C320.788664,35.8671875 319.822756,35.7608868 319.033504,35.5636201 C318.076261,35.332613 317.162332,35.255192 316.291244,35.3416623 C315.632259,35.4138786 314.53986,35.445312 313.013394,35.4271398 C311.697268,35.4114716 310.771327,35.4397378 310.238217,35.533816 C309.759681,35.6105765 309.391506,35.808563 309.125532,36.1570803 C308.881277,36.4771385 308.772633,36.8512609 308.774078,37.271567 C310.402324,38.1562578 312.161516,39.155426 314.051582,40.2691112 C314.837087,40.7178934 316.126742,41.0263338 317.890999,41.265555 C321.016193,41.7666785 323.786835,43.1683085 326.221701,45.4890897 C329.916557,48.9622548 332.189697,53.2110109 333.039546,58.2362033 C333.115035,58.7257905 333.207232,59.678608 333.315135,61.1173073 C333.281833,67.909169 330.33787,73.1314556 324.439028,76.8886406 C320.944423,79.0820632 317.244061,80.171875 313.341797,80.171875 L310.672598,80.1716048 C309.752895,80.1699849 309.039774,80.1610938 308.533226,80.1452642 C307.93599,80.1266006 307.189249,80.0539227 306.293305,79.9232643 C305.352622,79.7860814 304.510747,79.5774927 303.765389,79.3030598 C299.140041,77.6621686 295.660668,75.6527446 293.301967,73.3302773 C290.780098,70.8825814 289.116436,68.643002 288.261422,66.6424118 C287.58321,65.1577866 287.256836,63.731355 287.256836,62.3681641 C287.256836,61.0618614 287.568443,59.7962664 288.196644,58.5818066 C289.384243,56.2505942 291.295242,54.9918964 293.936354,54.8158223 C296.998133,54.8125 298.800672,55.8724161 300.105064,57.8724853 C301.17697,59.5118715 302.681485,60.9701602 304.603867,62.2622528 C306.218805,63.348666 307.859165,63.8997866 309.537165,63.870348 C311.18187,63.8701172 312.82408,63.3740106 314.499108,62.4192181 L315.186747,62.0066347 C315.545493,61.7266238 315.815986,61.4517889 315.897814,61.1244778 C316.008514,60.6816758 315.894342,60.0582101 315.678082,59.2623913 C315.279631,57.963971 314.677573,56.9111116 313.840894,56.1240659 C313.014281,55.3464891 311.964781,54.8382384 310.707002,54.5721282 C309.207153,54.2749777 306.754984,53.2443055 303.366605,51.4228115 C301.250275,50.3273682 299.834039,49.4768401 299.108594,48.8964622 C296.079127,46.4964951 294.554688,43.3128363 294.554688,39.3359375 C294.629441,36.0111332 295.218931,33.3379686 296.29415,31.0021765 C297.837765,27.6137533 299.689394,25.1740203 301.791573,23.6349273 C303.665209,22.2583784 306.010364,21.3596769 308.842983,20.9765878 C309.841138,20.8295717 310.857659,20.7558594 311.892578,20.7558594 Z M79.6810528,22.4129371 C79.9063588,22.4120379 80.2511134,22.4321388 80.8551237,22.4779008 C82.3348406,22.5932846 83.0413126,22.6661752 83.5422102,22.737732 C83.9056728,22.802718 84.339204,22.8147085 84.897082,22.8007615 C85.6618334,22.7816427 86.2543322,22.7941017 86.6748661,22.8323321 C88.2824543,23.0036245 89.6102117,23.500662 90.6957015,24.2910673 C91.794512,25.091172 92.6555334,26.1972846 93.2547326,27.6310847 C93.6816177,28.6556091 93.8876953,29.6597088 93.8876953,30.640625 C93.8876953,32.2286446 93.3531109,33.7625362 92.2351398,35.2244945 C90.8546383,37.0364028 89.0607735,38.0193521 86.8633806,38.1916966 C86.6129378,38.1962891 86.4266868,38.2122552 86.1871317,38.2388725 C85.8545475,38.2758263 85.5589049,38.3033949 85.3002299,38.3218716 C85.02307,38.3416688 84.7459099,38.3515625 84.46875,38.3515625 C82.941237,38.3515625 81.430096,38.9791007 79.9110929,40.1519267 C79.5418047,40.4549101 79.0108114,40.9119286 78.3177177,41.5225111 C77.7456782,42.0264507 77.3312926,42.3882462 77.0747817,42.6082809 C77.2850674,44.7135758 77.7073918,47.6549171 78.3398253,51.4328754 L78.5350431,52.6007656 C79.0772114,55.8494897 79.4102949,57.8933578 79.5345864,58.7323254 C79.9517469,61.5481583 80.3344404,64.7982101 80.6821237,68.4818782 C80.7563909,69.1552656 80.7929688,69.7915338 80.7929688,70.390625 C80.7929688,71.6356873 80.6526706,72.7634818 80.3810813,73.7754865 C80.0735272,74.9953253 79.5799494,75.9647383 78.9379153,76.7047097 C78.231577,77.5187945 77.3418791,78.0738799 76.2634471,78.3614618 C74.9019045,78.7020361 73.6360197,78.5534028 72.44176,77.9323877 C71.3204802,77.3493222 70.4062277,76.4220187 69.7309782,75.1166758 C68.7538552,73.2668152 67.8918412,70.7344733 67.1695156,67.5199813 C65.5387821,60.4766003 64.307607,54.3525766 63.4759606,49.1546926 C63.0267236,46.4247142 62.3873873,42.3297525 61.5580267,36.8697954 C61.5098246,36.4883898 61.4892578,36.1675518 61.4892578,35.8681641 C61.4892578,34.6046731 61.8124806,33.4052685 62.4656913,32.2730377 C63.3032044,30.8184097 64.4762245,29.8118755 65.9730829,29.2395472 C66.4546429,28.9008067 66.6057425,28.7229521 66.8191229,28.4740083 C69.8277111,24.8703775 73.3631378,23.028753 77.7991551,22.5285358 C78.0455482,22.4904566 78.3921396,22.4588601 78.8396293,22.439404 C79.1899042,22.4241747 79.4703817,22.4154753 79.6810528,22.4129371 Z M122.821289,25.4140625 C124.676576,25.4140625 126.371909,26.1017781 127.896736,27.539548 C129.852649,29.4156272 130.917416,31.9746587 130.99778,35.2705313 C131.031622,37.0641377 131.133226,38.8915805 131.302434,40.7528683 C131.473272,42.6320904 131.738325,44.8871268 132.097085,47.5180333 C132.461887,50.1932459 132.696293,52.0362426 132.801043,53.0467825 C133.017661,54.9101865 133.1733,56.3543467 133.268838,57.3863435 C133.34335,58.235341 133.367042,58.584421 133.377606,58.8379448 C133.302019,61.9182371 132.913855,64.0410689 132.304415,65.3362137 C131.616456,66.8220197 130.413525,68.3971822 128.649173,70.0463852 C126.390682,72.1197536 124.035496,73.611289 121.602122,74.5329863 C119.920413,75.1827376 118.067509,75.5136719 116.041016,75.5136719 C114.859554,75.5136719 113.604108,75.4042529 112.274886,75.1827159 C109.450216,74.6693043 107.050032,73.9351548 105.053543,72.9913478 C103.293321,72.1674143 101.367097,70.6524468 99.2958241,68.3927953 C96.307543,65.0765321 94.2124446,60.8022996 93.0444156,55.5461313 C92.7756814,54.3176319 92.6474609,53.2615255 92.6474609,52.3789062 L92.6474609,50.2568359 C92.6474609,44.7598107 92.9988009,39.6655581 93.6992127,34.9728018 C94.0385946,32.7102555 94.6159228,30.8295793 95.4072547,29.3222804 C96.1530619,27.9617649 97.1695772,26.9527229 98.4621169,26.2633089 C99.4417967,25.7314961 100.487992,25.4658203 101.600586,25.4658203 C101.928576,25.4658203 102.277105,25.4857513 102.646116,25.5267525 C104.13004,25.7571235 105.374887,26.3932155 106.439566,27.4578945 C107.499259,28.5175867 108.141799,29.7971146 108.363374,31.2981868 C108.505439,32.1982964 108.618718,34.0358712 108.689954,36.8121786 C108.895187,42.8964773 109.167253,47.4603076 109.508963,50.5015339 C109.800771,53.0694485 110.767928,55.0412999 112.495008,56.3585779 C113.481756,57.1053061 114.545741,57.4792947 115.695594,57.4525539 C115.932891,57.4521484 116.135313,57.4465723 116.337726,57.4352939 C116.206243,56.1216881 116.082072,54.3235649 115.966281,52.040833 C115.847048,49.6902378 115.753981,48.1401556 115.685848,47.3906864 C115.474369,44.3642496 115.369141,40.5856564 115.369141,36.0234375 C115.369141,35.8219968 115.308666,35.2869276 115.20218,34.4206865 C114.967887,32.5437417 115.132227,31.6402326 115.320469,31.2637499 L117.005302,27.8940833 C117.845443,26.9508013 118.926406,26.2720981 120.238674,25.8487549 C121.120441,25.556328 121.981717,25.4140625 122.821289,25.4140625 Z" transform="translate(165.828 28.206)"/></g></svg>