<svg xmlns="http://www.w3.org/2000/svg" width="501" height="150" viewBox="0 0 501 150"><defs><clipPath id="a"><path d="M133.829751,22.1018727 C154.210088,49.6354973 165.729409,86.0509363 148.893478,123.354557 C127.627039,145.559093 102.816194,149.111819 76.2331447,150 L69.9851402,149.431202 C69.9307189,149.426247 69.8763044,149.421219 69.8218968,149.416116 L68.6560621,149.306769 C54.1364451,147.927246 40.7922687,145.975078 27.3888528,136.652218 C15.8857519,128.650928 7.56497158,117.52023 1.37105808,105.156887 C1.26416615,104.482705 1.09127718,103.87393 1.0040015,103.181301 C-0.786729228,89.2096497 -0.138897972,76.15805 2.60305821,65.561318 C5.34501439,54.9645859 4.45891276,56.7409488 9.77552253,45.1945901 C11.7557933,40.8939327 19.5226404,28.3191427 34.5863681,17.6609655 C52.3084007,1.67369954 98.3856854,-14.3135664 133.829751,22.1018727 Z"/></clipPath><clipPath id="b"><path d="M73.3333333,142.666667 C56.4703196,141.116858 41.4390249,140.345163 26.3295022,129.897595 C15.2598399,122.243211 7.25258791,111.595098 1.29206206,99.7677835 C1.18919784,99.1228323 1.02282335,98.5404509 0.938836234,97.8778518 C-0.784419476,84.5119594 -0.0566910855,72.5322309 2.47764023,61.8889312 C29.290488,41.0724082 72.9205966,77.1912816 73.3333333,142.666667 Z M43.4831668,39.8471569 C73.7967785,55.3467603 87.956204,92.3801638 88.6666667,126.140647 C88.2712508,131.249089 87.2987848,136.303168 87.1026843,141.378033 C85.5499535,141.608273 83.9875785,141.814529 82.4139518,142 C83.1790655,137.069035 82.1487338,131.453746 81.3434356,126.900118 C81.2309189,126.26536 81.0653586,125.657784 80.9383754,125.03102 C75.8670861,85.2411367 40.55291,35.4630108 4.66666667,53.3913224 C6.15397696,49.2390148 7.94058173,45.3265401 9.98340315,41.6538984 C11.7303056,40.3252239 13.4886204,39.3131289 15.237291,38.4976969 C16.022497,38.2962372 16.7567489,37.9956466 17.4312063,37.6023206 C30.408724,32.8999961 42.2663789,40.0662043 43.4831668,39.8471569 Z M119.258379,109.692856 C119.429732,112.806763 119.277049,116.018477 119.102934,119.246363 L118.998315,121.184383 C118.776556,125.384801 118.620858,129.584958 119.19604,133.605504 C112.425056,136.446976 104.289006,138.645066 92.685944,140.666667 C102.262187,104.504081 79.2718513,24.1775429 17.3333333,30.8055051 C51.2752077,-12.1368232 115.473278,40.8429129 119.258379,109.692856 Z M11.0876797,105.49694 C15.3891,114.697923 22.9298635,122.214333 31.5749377,127.598552 C40.2792027,132.883302 50.3880524,136.204319 60.5160991,135.85457 C51.0855454,132.328195 42.3236892,128.47774 34.1441436,123.39193 C25.9018877,118.405591 18.4982232,112.32508 11.0876797,105.49694 Z M55.8008909,4 C82.9387881,5.17801946 104.767761,17.5287922 121.247614,38.1577562 C150.244117,75.3735547 142.410962,107.311505 142.258221,117.83194 C138.950996,122.837321 133.579368,126.299256 127.053346,130 C137.412341,65.0550658 82.1831265,2.89570693 38.6666667,11.9993131 C44.1604871,8.67200916 49.934063,6.0082427 55.8008909,4 Z M116.63056,10.9076351 C143.052393,28.8941328 154.713515,74.8222735 148.2531,103.333333 C148.091229,96.5212409 152.242178,63.8553676 127.323661,33.3722592 C111.68468,13.7965414 88.824008,1.22111312 63.3333333,1.62485225 C78.0892366,-2.09726863 101.740031,0.403983735 116.63056,10.9076351 Z"/></clipPath><clipPath id="c"><path d="M157.550781,12.3183594 C159.172526,12.5598958 161.501628,13.4052734 164.538086,14.8544922 C166.780924,15.9241536 168.695964,17.5804036 170.283203,19.8232422 C171.663411,21.8245443 173.129883,24.3089193 174.682617,27.2763672 C175.269206,28.4150391 175.597005,29.7089844 175.666016,31.1582031 C175.700521,32.0208333 175.717773,32.8489583 175.717773,33.6425781 C175.717773,36.5410156 175.424479,38.8528646 174.837891,40.578125 C174.044271,42.9589844 172.284505,44.2529297 169.558594,44.4599609 C168.557943,44.5289714 167.548665,44.261556 166.530762,43.6577148 C165.512858,43.0538737 164.745117,42.2861328 164.227539,41.3544922 C163.709961,40.3883464 163.347656,38.835612 163.140625,36.6962891 C163.002604,35.2470703 162.933594,34.1774089 162.933594,33.4873047 C162.933594,32.4866536 162.70931,31.641276 162.260742,30.9511719 C162.122721,30.7441406 161.872559,30.2610677 161.510254,29.5019531 C161.147949,28.7428385 160.811523,28.1735026 160.500977,27.7939453 C160.086914,27.3108724 159.621094,27.0003255 159.103516,26.8623047 C158.275391,26.6207682 157.464518,26.5 156.670898,26.5 C154.393555,26.5 152.202474,27.4488932 150.097656,29.3466797 C149.269531,30.1057943 148.165365,31.382487 146.785156,33.1767578 C146.509115,33.5218099 146.302083,34.125651 146.164062,34.9882812 C146.060547,35.7128906 146.008789,36.5582682 146.008789,37.5244141 C146.008789,38.9391276 146.129557,40.5953776 146.371094,42.4931641 C146.474609,43.3212891 146.647135,44.5634766 146.888672,46.2197266 C147.130208,47.8759766 147.302734,49.1181641 147.40625,49.9462891 C147.440755,50.4638672 147.734049,50.7054036 148.286133,50.6708984 C148.59668,50.6363932 150.183919,50.5673828 153.047852,50.4638672 C155.911784,50.3603516 158.085612,50.1878255 159.569336,49.9462891 C159.879883,49.9117839 160.19043,49.8945312 160.500977,49.8945312 C161.467122,49.8945312 162.398763,50.1188151 163.295898,50.5673828 C164.538086,51.2229818 165.452474,52.1201172 166.039062,53.2587891 C166.556641,54.2594401 166.81543,55.2945964 166.81543,56.3642578 L166.81543,57.140625 C166.642904,58.4863281 166.108073,59.6422526 165.210938,60.6083984 C164.382812,61.5400391 163.088867,62.281901 161.329102,62.8339844 C159.258789,63.5585938 155.704753,64.0934245 150.666992,64.4384766 C149.321289,64.5419922 148.588053,64.6541341 148.467285,64.7749023 C148.346517,64.8956706 148.320638,65.594401 148.389648,66.8710938 C148.458659,68.3548177 148.579427,70.4596354 148.751953,73.1855469 C148.924479,75.9114583 149.027995,77.7229818 149.0625,78.6201172 C149.097005,79.1376953 149.114258,79.6552734 149.114258,80.1728516 C149.114258,82.070638 148.855469,83.7613932 148.337891,85.2451172 C147.751302,86.7633464 146.733398,87.7985026 145.28418,88.3505859 C144.697591,88.523112 144.145508,88.609375 143.62793,88.609375 C142.765299,88.609375 141.954427,88.3505859 141.195312,87.8330078 C140.160156,87.1429036 139.332031,85.8662109 138.710938,84.0029297 C136.468099,77.3779297 135.208659,69.8385417 134.932617,61.3847656 L134.932617,60.6083984 C134.932617,59.0556641 135.001628,55.9847005 135.139648,51.3955078 L135.139648,50.9814453 C135.139648,49.9462891 135.036133,48.1692708 134.829102,45.6503906 C134.484049,41.3717448 134.104492,37.5589193 133.69043,34.2119141 C133.621419,33.6943359 133.586914,33.1767578 133.586914,32.6591797 C133.586914,29.6917318 134.604818,26.8105469 136.640625,24.015625 C138.434896,21.5657552 139.815104,19.9095052 140.78125,19.046875 C145.163411,15.0097656 149.631836,12.8186849 154.186523,12.4736328 C154.221029,12.4736328 154.341797,12.421875 154.548828,12.3183594 L157.550781,12.3183594 Z M201.389648,12.3183594 C203.011393,12.5598958 205.340495,13.4052734 208.376953,14.8544922 C210.619792,15.9241536 212.534831,17.5804036 214.12207,19.8232422 C215.502279,21.8245443 216.96875,24.3089193 218.521484,27.2763672 C219.108073,28.4150391 219.435872,29.7089844 219.504883,31.1582031 C219.539388,32.0208333 219.556641,32.8489583 219.556641,33.6425781 C219.556641,36.5410156 219.263346,38.8528646 218.676758,40.578125 C217.883138,42.9589844 216.123372,44.2529297 213.397461,44.4599609 C212.39681,44.5289714 211.387533,44.261556 210.369629,43.6577148 C209.351725,43.0538737 208.583984,42.2861328 208.066406,41.3544922 C207.548828,40.3883464 207.186523,38.835612 206.979492,36.6962891 C206.841471,35.2470703 206.772461,34.1774089 206.772461,33.4873047 C206.772461,32.4866536 206.548177,31.641276 206.099609,30.9511719 C205.961589,30.7441406 205.711426,30.2610677 205.349121,29.5019531 C204.986816,28.7428385 204.650391,28.1735026 204.339844,27.7939453 C203.925781,27.3108724 203.459961,27.0003255 202.942383,26.8623047 C202.114258,26.6207682 201.303385,26.5 200.509766,26.5 C198.232422,26.5 196.041341,27.4488932 193.936523,29.3466797 C193.108398,30.1057943 192.004232,31.382487 190.624023,33.1767578 C190.347982,33.5218099 190.140951,34.125651 190.00293,34.9882812 C189.899414,35.7128906 189.847656,36.5582682 189.847656,37.5244141 C189.847656,38.9391276 189.968424,40.5953776 190.209961,42.4931641 C190.313477,43.3212891 190.486003,44.5634766 190.727539,46.2197266 C190.969076,47.8759766 191.141602,49.1181641 191.245117,49.9462891 C191.279622,50.4638672 191.572917,50.7054036 192.125,50.6708984 C192.435547,50.6363932 194.022786,50.5673828 196.886719,50.4638672 C199.750651,50.3603516 201.924479,50.1878255 203.408203,49.9462891 C203.71875,49.9117839 204.029297,49.8945312 204.339844,49.8945312 C205.30599,49.8945312 206.23763,50.1188151 207.134766,50.5673828 C208.376953,51.2229818 209.291341,52.1201172 209.87793,53.2587891 C210.395508,54.2594401 210.654297,55.2945964 210.654297,56.3642578 L210.654297,57.140625 C210.481771,58.4863281 209.94694,59.6422526 209.049805,60.6083984 C208.22168,61.5400391 206.927734,62.281901 205.167969,62.8339844 C203.097656,63.5585938 199.54362,64.0934245 194.505859,64.4384766 C193.160156,64.5419922 192.426921,64.6541341 192.306152,64.7749023 C192.185384,64.8956706 192.159505,65.594401 192.228516,66.8710938 C192.297526,68.3548177 192.418294,70.4596354 192.59082,73.1855469 C192.763346,75.9114583 192.866862,77.7229818 192.901367,78.6201172 C192.935872,79.1376953 192.953125,79.6552734 192.953125,80.1728516 C192.953125,82.070638 192.694336,83.7613932 192.176758,85.2451172 C191.590169,86.7633464 190.572266,87.7985026 189.123047,88.3505859 C188.536458,88.523112 187.984375,88.609375 187.466797,88.609375 C186.604167,88.609375 185.793294,88.3505859 185.03418,87.8330078 C183.999023,87.1429036 183.170898,85.8662109 182.549805,84.0029297 C180.306966,77.3779297 179.047526,69.8385417 178.771484,61.3847656 L178.771484,60.6083984 C178.771484,59.0556641 178.840495,55.9847005 178.978516,51.3955078 L178.978516,50.9814453 C178.978516,49.9462891 178.875,48.1692708 178.667969,45.6503906 C178.322917,41.3717448 177.943359,37.5589193 177.529297,34.2119141 C177.460286,33.6943359 177.425781,33.1767578 177.425781,32.6591797 C177.425781,29.6917318 178.443685,26.8105469 180.479492,24.015625 C182.273763,21.5657552 183.653971,19.9095052 184.620117,19.046875 C189.002279,15.0097656 193.470703,12.8186849 198.025391,12.4736328 C198.059896,12.4736328 198.180664,12.421875 198.387695,12.3183594 L201.389648,12.3183594 Z M52.3789062,0.0517578125 C54.65625,0.120768229 56.5022786,0.655598958 57.9169922,1.65625 C60.1253255,3.27799479 61.2294922,5.3655599 61.2294922,7.91894531 C61.2294922,8.2985026 61.2122396,8.6953125 61.1777344,9.109375 C60.8326823,12.1458333 59.1764323,14.2851562 56.2089844,15.5273438 C55.0358073,16.0104167 53.3450521,16.4244792 51.1367188,16.7695312 C46.8925781,17.4251302 42.1136068,17.8909505 36.7998047,18.1669922 C35.6611328,18.2360026 35.0314128,18.3395182 34.9106445,18.4775391 C34.7898763,18.6155599 34.7639974,19.2366536 34.8330078,20.3408203 C34.867513,20.9274089 34.9106445,21.7727865 34.9624023,22.8769531 C35.0141602,23.9811198 35.0572917,24.9817708 35.0917969,25.8789063 C35.1263021,26.7760417 35.1435547,27.6214193 35.1435547,28.4150391 C35.1435547,31.2444661 35.2815755,36.0406901 35.5576172,42.8037109 C35.7646484,48.2210286 35.8681641,52.6549479 35.8681641,56.1054688 L35.8681641,59.3662109 C35.8681641,61.0224609 35.9371745,63.4723307 36.0751953,66.7158203 C36.1787109,69.1311849 36.2304688,71.1842448 36.2304688,72.875 C36.2304688,73.9101562 36.2132161,74.8072917 36.1787109,75.5664062 C36.0751953,78.016276 36.0061849,79.3792318 35.9716797,79.6552734 C35.6266276,82.0016276 34.608724,83.9166667 32.9179688,85.4003906 C31.296224,86.8151042 29.3984375,87.5224609 27.2246094,87.5224609 L26.9140625,87.5224609 C24.6022135,87.4534505 22.6267904,86.6512044 20.987793,85.1157227 C19.3487956,83.5802409 18.4257812,81.6393229 18.21875,79.2929688 C18.1152344,78.2923177 18.0634766,76.7740885 18.0634766,74.7382812 C18.0304091,73.1179742 17.9498071,70.4835974 17.8216705,66.8351508 L17.8046875,66.3535156 C17.6666667,62.4544271 17.5976562,59.6508789 17.5976562,57.9428711 C17.5976562,56.2348633 17.6321615,53.3968099 17.7011719,49.4287109 C17.4941406,46.1507161 17.390625,42.4241536 17.390625,38.2490234 C17.390625,34.8330078 17.4596354,31.1064453 17.5976562,27.0693359 C17.5976562,26.413737 17.6321615,25.4217122 17.7011719,24.0932617 C17.7701823,22.7648112 17.8219401,21.7555339 17.8564453,21.0654297 C17.8909505,20.2373047 17.8391927,19.7542318 17.7011719,19.6162109 C17.563151,19.4781901 17.0973307,19.3919271 16.3037109,19.3574219 C15.7516276,19.3229167 14.90625,19.3056641 13.7675781,19.3056641 C12.6289062,19.3056641 11.6196289,19.2797852 10.7397461,19.2280273 C9.85986328,19.1762695 9.02311198,19.0986328 8.22949219,18.9951172 C6.6422526,18.7535807 5.31380208,18.305013 4.24414062,17.6494141 C1.41471354,15.8551432 0,13.4397786 0,10.4033203 C0,10.1617839 0.0172526042,9.9202474 0.0517578125,9.67871094 C0.293294271,6.2281901 2.0530599,3.81282552 5.33105469,2.43261719 C6.6422526,1.91503906 8.09147135,1.60449219 9.67871094,1.50097656 C13.2672526,1.36295573 15.9586589,1.31119792 17.7529297,1.34570312 C20.7548828,1.34570312 23.9121094,1.15592448 27.2246094,0.776367188 C27.6386719,0.707356771 30.1057943,0.586588542 34.6259766,0.4140625 C41.5919692,0.146139706 46.6563995,0.00823826773 49.8192675,0.000358185554 L50.1015625,0 C51.0332031,0 51.7923177,0.0172526042 52.3789062,0.0517578125 Z M227.941406,14.0263672 C228.424479,14.0263672 228.942057,14.0953776 229.494141,14.2333984 C231.288411,14.6819661 232.634115,15.7171224 233.53125,17.3388672 C234.186849,18.5465495 234.652669,20.3753255 234.928711,22.8251953 C235.066732,24.4469401 235.368652,26.7329102 235.834473,29.6831055 C236.300293,32.6333008 236.602214,34.7294922 236.740234,35.9716797 C236.91276,37.4208984 237.154297,39.6119792 237.464844,42.5449219 C237.775391,45.4778646 238.016927,47.6861979 238.189453,49.1699219 C238.465495,51.5507812 238.655273,54.9322917 238.758789,59.3144531 C238.862305,63.6966146 238.983073,66.7158203 239.121094,68.3720703 C239.21814,69.4719238 239.360676,71.0949154 239.548702,73.241045 L239.586914,73.6772461 C239.793945,76.0408529 239.931966,77.8264974 240.000977,79.0341797 C240.035482,79.2757161 240.052734,79.5690104 240.052734,79.9140625 C239.914714,82.1223958 239.431641,83.7441406 238.603516,84.7792969 C237.671875,85.952474 236.412435,86.6425781 234.825195,86.8496094 C234.514648,86.8841146 234.221354,86.9013672 233.945312,86.9013672 C232.73763,86.9013672 231.633464,86.5563151 230.632812,85.8662109 C229.459635,84.9690755 228.597005,83.554362 228.044922,81.6220703 C227.69987,80.4488932 227.337565,78.0852865 226.958008,74.53125 C226.854492,73.5651042 226.656087,71.9864909 226.362793,69.7954102 C226.069499,67.6043294 225.871094,65.9222005 225.767578,64.7490234 C225.560547,61.7815755 225.388021,59.6422526 225.25,58.3310547 C225.146484,57.1923828 224.887695,55.5878906 224.473633,53.5175781 C224.05957,51.4472656 223.800781,50.0670573 223.697266,49.3769531 C222.972656,45.0638021 222.558594,41.5615234 222.455078,38.8701172 C222.420573,38.007487 222.291178,36.7825521 222.066895,35.1953125 C221.842611,33.6080729 221.695964,32.5039062 221.626953,31.8828125 C221.419922,29.7434896 221.316406,27.7594401 221.316406,25.9306641 C221.316406,23.7913411 221.454427,21.8590495 221.730469,20.1337891 C222.041016,18.0289714 223.007161,16.3727214 224.628906,15.1650391 C225.664062,14.4059245 226.768229,14.0263672 227.941406,14.0263672 Z M267.173828,21.8417969 C270.555339,21.8417969 273.574544,22.9977214 276.231445,25.3095703 C278.681315,27.4833984 280.717122,30.0195312 282.338867,32.9179688 C283.891602,35.7128906 284.667969,39.2669271 284.667969,43.5800781 L284.667969,44.1494141 C284.598958,45.9436849 284.046875,47.4446615 283.011719,48.6523438 C281.804036,49.9980469 280.561849,50.6708984 279.285156,50.6708984 L279.129883,50.6708984 C277.301107,50.6708984 274.713216,51.171224 271.366211,52.171875 C269.778971,52.6549479 267.484375,52.8964844 264.482422,52.8964844 C263.792318,52.8964844 263.050456,52.8792318 262.256836,52.8447266 L256.874023,52.8447266 C256.563477,52.8447266 256.373698,52.8792318 256.304688,52.9482422 C256.235677,53.0172526 256.235677,53.2070312 256.304688,53.5175781 C257.029297,56.1054688 258.167969,58.2965495 259.720703,60.0908203 C261.445964,62.0921224 262.826172,63.4205729 263.861328,64.0761719 C265.79362,65.2148438 267.656901,65.7841797 269.451172,65.7841797 C270.658854,65.7841797 271.866536,65.5253906 273.074219,65.0078125 C275.593099,63.938151 277.145833,62.1783854 277.732422,59.7285156 C278.042969,58.4863281 278.439779,57.5201823 278.922852,56.8300781 C279.44043,56.0364583 280.130534,55.4671224 280.993164,55.1220703 C281.855794,54.7770182 282.718424,54.7080078 283.581055,54.9150391 C284.443685,55.0875651 285.185547,55.5102539 285.806641,56.1831055 C286.427734,56.855957 286.790039,57.6582031 286.893555,58.5898438 C286.962565,59.3489583 286.99707,60.0735677 286.99707,60.7636719 C286.99707,63.1445312 286.548503,65.2666016 285.651367,67.1298828 C284.064128,70.3733724 281.942057,73.0647786 279.285156,75.2041016 C276.800781,77.1708984 273.557292,78.3613281 269.554688,78.7753906 C267.346354,78.9824219 265.603841,79.0859375 264.327148,79.0859375 C263.602539,79.0859375 263.015951,79.0514323 262.567383,78.9824219 C258.254232,78.3958333 254.648438,76.6705729 251.75,73.8066406 C248.644531,70.8046875 246.401693,67.819987 245.021484,64.8525391 C242.882161,60.2633464 241.8125,55.6741536 241.8125,51.0849609 C241.8125,49.2561849 241.985026,47.4446615 242.330078,45.6503906 C242.399089,45.2018229 242.528483,44.2270508 242.718262,42.7260742 C242.90804,41.2250977 243.123698,40.0777995 243.365234,39.2841797 C243.53776,38.7666016 243.779297,37.9384766 244.089844,36.7998047 C244.400391,35.6611328 244.710938,34.6691081 245.021484,33.8237305 C245.332031,32.9783529 245.711589,32.1933594 246.160156,31.46875 C246.85026,30.3300781 247.626628,29.3121745 248.489258,28.4150391 C249.282878,27.5524089 249.903971,26.8881836 250.352539,26.4223633 C250.801107,25.956543 251.413574,25.4217122 252.189941,24.8178711 C252.966309,24.2140299 253.734049,23.7395833 254.493164,23.3945312 C256.770508,22.4283854 258.823568,21.9280599 260.652344,21.8935547 L263.80957,21.8935547 C265.224284,21.8935547 266.293945,21.8763021 267.018555,21.8417969 L267.173828,21.8417969 Z M311.892578,22.2558594 C314.963542,22.2558594 318,22.9459635 321.001953,24.3261719 C323.348307,25.3958333 325.004557,27.1038411 325.970703,29.4501953 C326.28125,30.1748047 326.367513,30.925293 326.229492,31.7016602 C326.091471,32.4780273 325.780924,33.1077474 325.297852,33.5908203 C324.883789,34.0048828 324.314453,34.2464193 323.589844,34.3154297 C323.003255,34.3499349 322.451172,34.3671875 321.933594,34.3671875 C320.932943,34.3671875 320.087565,34.2809245 319.397461,34.1083984 C318.258789,33.8323568 317.171875,33.7460938 316.136719,33.8496094 C315.515625,33.9186198 314.480469,33.9444987 313.03125,33.9272461 C311.582031,33.9099935 310.564128,33.953125 309.977539,34.0566406 C309.114909,34.1946615 308.433431,34.5914714 307.933105,35.2470703 C307.43278,35.9026693 307.217122,36.6790365 307.286133,37.5761719 C307.320638,37.9902344 307.527669,38.3007812 307.907227,38.5078125 C309.563477,39.4049479 311.357747,40.4228516 313.290039,41.5615234 C314.187174,42.0791016 315.653646,42.4759115 317.689453,42.7519531 C320.484375,43.2005208 322.986003,44.4772135 325.194336,46.5820312 C328.644857,49.8255208 330.766927,53.7936198 331.560547,58.4863281 C331.629557,58.9348958 331.71582,59.8492839 331.819336,61.2294922 C331.784831,67.3714193 329.058919,72.1676432 323.641602,75.6181641 C320.398112,77.6539714 316.964844,78.671875 313.341797,78.671875 L310.986816,78.671875 C309.934408,78.671875 309.132161,78.6632487 308.580078,78.6459961 C308.027995,78.6287435 307.337891,78.5597331 306.509766,78.4389648 C305.681641,78.3181966 304.939779,78.1370443 304.28418,77.8955078 C299.902018,76.3427734 296.589518,74.4622396 294.34668,72.2539062 C292.000326,69.9765625 290.430339,67.90625 289.636719,66.0429688 C289.05013,64.766276 288.756836,63.5413411 288.756836,62.3681641 C288.756836,61.2985026 289.015625,60.2633464 289.533203,59.2626953 C290.464844,57.4339193 291.96582,56.4505208 294.036133,56.3125 L294.501953,56.3125 C296.365234,56.3125 297.814453,57.1061198 298.849609,58.6933594 C300.022786,60.4876302 301.661784,62.0921224 303.766602,63.5068359 C305.664388,64.7835286 307.59668,65.4046224 309.563477,65.3701172 C311.426758,65.3701172 313.324544,64.8180339 315.256836,63.7138672 L316.033203,63.2480469 C316.757812,62.6959635 317.197754,62.109375 317.353027,61.4882812 C317.508301,60.8671875 317.430664,59.9873047 317.120117,58.8486328 C316.153971,55.6741536 314.118164,53.7591146 311.012695,53.1035156 C309.597982,52.827474 307.286133,51.8268229 304.077148,50.1015625 C302.075846,49.0664062 300.730143,48.2727865 300.040039,47.7207031 C297.383138,45.6158854 296.054688,42.8209635 296.054688,39.3359375 L296.054688,39.0771484 C296.123698,36.2822266 296.658529,33.7978516 297.65918,31.6240234 C299.073893,28.5185547 300.747396,26.2584635 302.679688,24.84375 C304.370443,23.6015625 306.492513,22.8079427 309.045898,22.4628906 C309.977539,22.3248698 310.926432,22.2558594 311.892578,22.2558594 Z M80.7385124,23.9733612 L81.0894855,24.000312 C81.1525749,24.0052122 81.2179612,24.0103165 81.2856445,24.015625 C82.1655273,24.0846354 82.8470052,24.1536458 83.3300781,24.2226563 C83.7096354,24.2916667 84.2444661,24.3175456 84.9345703,24.300293 C85.6246745,24.2830404 86.1595052,24.2916667 86.5390625,24.3261719 C89.1269531,24.6022135 90.9039714,25.8961589 91.8701172,28.2080078 C92.2151693,29.0361328 92.3876953,29.8470052 92.3876953,30.640625 C92.3876953,31.9173177 91.9391276,33.1422526 91.0419922,34.3154297 C89.9378255,35.7646484 88.5058594,36.5582682 86.7460938,36.6962891 C86.5735677,36.6962891 86.3320312,36.7135417 86.0214844,36.7480469 C85.7109375,36.7825521 85.4348958,36.808431 85.1933594,36.8256836 C84.9518229,36.8429362 84.7102865,36.8515625 84.46875,36.8515625 C82.639974,36.8515625 80.8111979,37.5589193 78.9824219,38.9736328 C78.6028646,39.2841797 78.0507812,39.7586263 77.3261719,40.3969727 C76.6015625,41.035319 76.1357422,41.4407552 75.9287109,41.6132813 C75.6526693,41.8548177 75.531901,42.1826172 75.5664062,42.5966797 C75.7734375,44.7360026 76.2047526,47.7638346 76.8603516,51.6801758 L76.927249,52.079991 L77.055505,52.8476806 C77.5952797,56.0820618 77.9270384,58.1168844 78.0507812,58.9521484 C78.4648438,61.7470703 78.844401,64.9733073 79.1894531,68.6308594 C79.2584635,69.2519531 79.2929688,69.8385417 79.2929688,70.390625 C79.2929688,71.4947917 79.1722005,72.4954427 78.9306641,73.3925781 C78.4475911,75.3248698 77.4296875,76.4980469 75.8769531,76.9121094 C74.9108073,77.1536458 73.9964193,77.0501302 73.1337891,76.6015625 C72.2711589,76.1529948 71.5810547,75.4283854 71.0634766,74.4277344 C70.1318359,72.6679688 69.3209635,70.2526042 68.6308594,67.1816406 C67.0091146,60.1770833 65.7841797,54.0869141 64.9560547,48.9111328 C64.507487,46.1852214 63.8691406,42.0963542 63.0410156,36.6445313 C63.0065104,36.3684896 62.9892578,36.1097005 62.9892578,35.8681641 C62.9892578,34.867513 63.2480469,33.9186198 63.765625,33.0214844 C64.421224,31.8828125 65.335612,31.0891927 66.5087891,30.640625 C66.7158203,30.5716146 66.9142253,30.468099 67.1040039,30.3300781 C67.2937826,30.1920573 67.4318034,30.0712891 67.5180664,29.9677734 C67.6043294,29.8642578 67.7509766,29.6917318 67.9580078,29.4501953 C68.1650391,29.2086589 68.2858073,29.0533854 68.3203125,28.984375 C70.7356771,26.1204427 73.9619141,24.4641927 77.9990234,24.015625 C78.2060547,23.9811198 78.5079753,23.9552409 78.9047852,23.9379883 C79.2354601,23.9236111 79.5002396,23.9152244 79.6991238,23.9128282 L79.8105469,23.9121094 C79.8901743,23.9121094 80.1994961,23.9325267 80.7385124,23.9733612 Z M122.821289,26.9140625 C124.305013,26.9140625 125.650716,27.4833984 126.858398,28.6220703 C128.549154,30.2438151 129.429036,32.469401 129.498047,35.2988281 C129.532552,37.1276042 129.636068,38.9908854 129.808594,40.8886719 C129.98112,42.7864583 130.248535,45.0638021 130.61084,47.7207031 C130.973145,50.3776042 131.206055,52.2063802 131.30957,53.2070312 C131.525228,55.0616862 131.680232,56.4985046 131.774582,57.5174866 L131.809087,57.9027947 C131.845569,58.3263222 131.868842,58.6588542 131.878906,58.9003906 C131.809896,61.5917969 131.499349,63.5240885 130.947266,64.6972656 C130.326172,66.0429688 129.222005,67.4576823 127.634766,68.9414062 C125.529948,70.8736979 123.338867,72.2711589 121.061523,73.1337891 C119.543294,73.7203776 117.869792,74.0136719 116.041016,74.0136719 C114.936849,74.0136719 113.763672,73.9101562 112.521484,73.703125 C109.864583,73.2200521 107.58724,72.5299479 105.689453,71.6328125 C104.067708,70.8736979 102.307943,69.4589844 100.410156,67.3886719 C97.5807292,64.2486979 95.6139323,60.1943359 94.5097656,55.2255859 C94.2682292,54.1214193 94.1474609,53.172526 94.1474609,52.3789062 L94.1474609,50.2568359 C94.1474609,44.8395182 94.492513,39.8190104 95.1826172,35.1953125 C95.4931641,33.125 96.0107422,31.3997396 96.7353516,30.0195312 C97.3219401,28.9498698 98.1328125,28.1389974 99.1679688,27.5869141 C99.9270833,27.1728516 100.737956,26.9658203 101.600586,26.9658203 C101.876628,26.9658203 102.169922,26.9830729 102.480469,27.0175781 C103.584635,27.1901042 104.550781,27.6904297 105.378906,28.5185547 C106.207031,29.3466797 106.707357,30.3473307 106.879883,31.5205078 C107.017904,32.383138 107.121419,34.1601562 107.19043,36.8515625 C107.397461,42.9934896 107.673503,47.5999349 108.018555,50.6708984 C108.363607,53.7073568 109.554036,56.0019531 111.589844,57.5546875 C112.866536,58.5208333 114.246745,58.9866536 115.730469,58.9521484 C116.110026,58.9521484 116.489583,58.9348958 116.869141,58.9003906 C117.317708,58.8313802 117.611003,58.7019857 117.749023,58.512207 C117.887044,58.3224284 117.921549,57.9860026 117.852539,57.5029297 C117.714518,56.1917318 117.585124,54.3457031 117.464355,51.9648438 C117.343587,49.5839844 117.248698,48.0139974 117.179688,47.2548828 C116.972656,44.2874349 116.869141,40.5436198 116.869141,36.0234375 C116.869141,35.7991536 116.809637,35.2029705 116.690629,34.2348882 L116.662109,34.0048828 C116.524089,32.9007161 116.524089,32.210612 116.662109,31.9345703 C117.214193,29.5192057 118.559896,27.9664714 120.699219,27.2763672 C121.423828,27.0348307 122.131185,26.9140625 122.821289,26.9140625 Z M267.096191,33.3320312 C267.009928,33.4010417 266.863281,33.4010417 266.65625,33.3320312 C265.034505,33.4010417 263.257487,33.6598307 261.325195,34.1083984 C260.704102,34.2464193 260.117513,34.6432292 259.56543,35.2988281 C259.392904,35.5058594 259.142741,35.7991536 258.814941,36.1787109 C258.487142,36.5582682 258.254232,36.8515625 258.116211,37.0585938 C256.805013,38.6113281 255.873372,40.1640625 255.321289,41.7167969 C255.217773,41.9238281 255.200521,42.061849 255.269531,42.1308594 C255.338542,42.1998698 255.493815,42.2171224 255.735352,42.1826172 C257.391602,41.8030599 259.910482,41.6132812 263.291992,41.6132812 C265.879883,41.6132812 268.157227,41.3889974 270.124023,40.9404297 C270.779622,40.7679036 271.167806,40.6040039 271.288574,40.4487305 C271.409342,40.293457 271.435221,39.9052734 271.366211,39.2841797 C271.262695,38.8011068 271.193685,38.5078125 271.15918,38.4042969 C270.745117,37.3691406 270.296549,36.4892578 269.813477,35.7646484 C269.783901,35.7350725 269.709961,35.6294444 269.591657,35.4477639 L269.528809,35.3505859 C269.373535,35.1090495 269.278646,34.9710286 269.244141,34.9365234 C269.214565,34.9069475 269.134287,34.807657 269.003308,34.6386519 L268.933594,34.5483398 C268.761068,34.324056 268.657552,34.1946615 268.623047,34.1601562 C268.588542,34.125651 268.4764,34.0221354 268.286621,33.8496094 C268.096842,33.6770833 267.976074,33.5994466 267.924316,33.6166992 C267.872559,33.6339518 267.743164,33.5735677 267.536133,33.4355469 C267.329102,33.297526 267.182454,33.2630208 267.096191,33.3320312 Z"/></clipPath><clipPath id="d"><path d="M335.819967,-4 L335.819967,92.609375 L-4,92.609375 L-4,-4 L335.819967,-4 Z M157.550781,12.3183594 L154.548828,12.3183594 C154.341797,12.421875 154.221029,12.4736328 154.186523,12.4736328 C149.631836,12.8186849 145.163411,15.0097656 140.78125,19.046875 C139.815104,19.9095052 138.434896,21.5657552 136.640625,24.015625 C134.604818,26.8105469 133.586914,29.6917318 133.586914,32.6591797 C133.586914,33.1767578 133.621419,33.6943359 133.69043,34.2119141 C134.104492,37.5589193 134.484049,41.3717448 134.829102,45.6503906 C135.036133,48.1692708 135.139648,49.9462891 135.139648,50.9814453 L135.139648,51.3955078 C135.001628,55.9847005 134.932617,59.0556641 134.932617,60.6083984 L134.932617,61.3847656 C135.208659,69.8385417 136.468099,77.3779297 138.710938,84.0029297 C139.332031,85.8662109 140.160156,87.1429036 141.195312,87.8330078 C141.954427,88.3505859 142.765299,88.609375 143.62793,88.609375 C144.145508,88.609375 144.697591,88.523112 145.28418,88.3505859 C146.733398,87.7985026 147.751302,86.7633464 148.337891,85.2451172 C148.855469,83.7613932 149.114258,82.070638 149.114258,80.1728516 C149.114258,79.6552734 149.097005,79.1376953 149.0625,78.6201172 C149.027995,77.7229818 148.924479,75.9114583 148.751953,73.1855469 C148.579427,70.4596354 148.458659,68.3548177 148.389648,66.8710938 C148.320638,65.594401 148.346517,64.8956706 148.467285,64.7749023 C148.588053,64.6541341 149.321289,64.5419922 150.666992,64.4384766 C155.704753,64.0934245 159.258789,63.5585938 161.329102,62.8339844 C163.088867,62.281901 164.382812,61.5400391 165.210938,60.6083984 C166.108073,59.6422526 166.642904,58.4863281 166.81543,57.140625 L166.81543,56.3642578 C166.81543,55.2945964 166.556641,54.2594401 166.039062,53.2587891 C165.452474,52.1201172 164.538086,51.2229818 163.295898,50.5673828 C162.398763,50.1188151 161.467122,49.8945312 160.500977,49.8945312 C160.19043,49.8945312 159.879883,49.9117839 159.569336,49.9462891 C158.085612,50.1878255 155.911784,50.3603516 153.047852,50.4638672 C150.183919,50.5673828 148.59668,50.6363932 148.286133,50.6708984 C147.734049,50.7054036 147.440755,50.4638672 147.40625,49.9462891 C147.302734,49.1181641 147.130208,47.8759766 146.888672,46.2197266 C146.647135,44.5634766 146.474609,43.3212891 146.371094,42.4931641 C146.129557,40.5953776 146.008789,38.9391276 146.008789,37.5244141 C146.008789,36.5582682 146.060547,35.7128906 146.164062,34.9882812 C146.302083,34.125651 146.509115,33.5218099 146.785156,33.1767578 C148.165365,31.382487 149.269531,30.1057943 150.097656,29.3466797 C152.202474,27.4488932 154.393555,26.5 156.670898,26.5 C157.464518,26.5 158.275391,26.6207682 159.103516,26.8623047 C159.621094,27.0003255 160.086914,27.3108724 160.500977,27.7939453 C160.811523,28.1735026 161.147949,28.7428385 161.510254,29.5019531 C161.872559,30.2610677 162.122721,30.7441406 162.260742,30.9511719 C162.70931,31.641276 162.933594,32.4866536 162.933594,33.4873047 C162.933594,34.1774089 163.002604,35.2470703 163.140625,36.6962891 C163.347656,38.835612 163.709961,40.3883464 164.227539,41.3544922 C164.745117,42.2861328 165.512858,43.0538737 166.530762,43.6577148 C167.548665,44.261556 168.557943,44.5289714 169.558594,44.4599609 C172.284505,44.2529297 174.044271,42.9589844 174.837891,40.578125 C175.424479,38.8528646 175.717773,36.5410156 175.717773,33.6425781 C175.717773,32.8489583 175.700521,32.0208333 175.666016,31.1582031 C175.597005,29.7089844 175.269206,28.4150391 174.682617,27.2763672 C173.129883,24.3089193 171.663411,21.8245443 170.283203,19.8232422 C168.695964,17.5804036 166.780924,15.9241536 164.538086,14.8544922 C161.501628,13.4052734 159.172526,12.5598958 157.550781,12.3183594 Z M201.389648,12.3183594 L198.387695,12.3183594 C198.180664,12.421875 198.059896,12.4736328 198.025391,12.4736328 C193.470703,12.8186849 189.002279,15.0097656 184.620117,19.046875 C183.653971,19.9095052 182.273763,21.5657552 180.479492,24.015625 C178.443685,26.8105469 177.425781,29.6917318 177.425781,32.6591797 C177.425781,33.1767578 177.460286,33.6943359 177.529297,34.2119141 C177.943359,37.5589193 178.322917,41.3717448 178.667969,45.6503906 C178.875,48.1692708 178.978516,49.9462891 178.978516,50.9814453 L178.978516,51.3955078 C178.840495,55.9847005 178.771484,59.0556641 178.771484,60.6083984 L178.771484,61.3847656 C179.047526,69.8385417 180.306966,77.3779297 182.549805,84.0029297 C183.170898,85.8662109 183.999023,87.1429036 185.03418,87.8330078 C185.793294,88.3505859 186.604167,88.609375 187.466797,88.609375 C187.984375,88.609375 188.536458,88.523112 189.123047,88.3505859 C190.572266,87.7985026 191.590169,86.7633464 192.176758,85.2451172 C192.694336,83.7613932 192.953125,82.070638 192.953125,80.1728516 C192.953125,79.6552734 192.935872,79.1376953 192.901367,78.6201172 C192.866862,77.7229818 192.763346,75.9114583 192.59082,73.1855469 C192.418294,70.4596354 192.297526,68.3548177 192.228516,66.8710938 C192.159505,65.594401 192.185384,64.8956706 192.306152,64.7749023 C192.426921,64.6541341 193.160156,64.5419922 194.505859,64.4384766 C199.54362,64.0934245 203.097656,63.5585938 205.167969,62.8339844 C206.927734,62.281901 208.22168,61.5400391 209.049805,60.6083984 C209.94694,59.6422526 210.481771,58.4863281 210.654297,57.140625 L210.654297,56.3642578 C210.654297,55.2945964 210.395508,54.2594401 209.87793,53.2587891 C209.291341,52.1201172 208.376953,51.2229818 207.134766,50.5673828 C206.23763,50.1188151 205.30599,49.8945312 204.339844,49.8945312 C204.029297,49.8945312 203.71875,49.9117839 203.408203,49.9462891 C201.924479,50.1878255 199.750651,50.3603516 196.886719,50.4638672 C194.022786,50.5673828 192.435547,50.6363932 192.125,50.6708984 C191.572917,50.7054036 191.279622,50.4638672 191.245117,49.9462891 C191.141602,49.1181641 190.969076,47.8759766 190.727539,46.2197266 C190.486003,44.5634766 190.313477,43.3212891 190.209961,42.4931641 C189.968424,40.5953776 189.847656,38.9391276 189.847656,37.5244141 C189.847656,36.5582682 189.899414,35.7128906 190.00293,34.9882812 C190.140951,34.125651 190.347982,33.5218099 190.624023,33.1767578 C192.004232,31.382487 193.108398,30.1057943 193.936523,29.3466797 C196.041341,27.4488932 198.232422,26.5 200.509766,26.5 C201.303385,26.5 202.114258,26.6207682 202.942383,26.8623047 C203.459961,27.0003255 203.925781,27.3108724 204.339844,27.7939453 C204.650391,28.1735026 204.986816,28.7428385 205.349121,29.5019531 C205.711426,30.2610677 205.961589,30.7441406 206.099609,30.9511719 C206.548177,31.641276 206.772461,32.4866536 206.772461,33.4873047 C206.772461,34.1774089 206.841471,35.2470703 206.979492,36.6962891 C207.186523,38.835612 207.548828,40.3883464 208.066406,41.3544922 C208.583984,42.2861328 209.351725,43.0538737 210.369629,43.6577148 C211.387533,44.261556 212.39681,44.5289714 213.397461,44.4599609 C216.123372,44.2529297 217.883138,42.9589844 218.676758,40.578125 C219.263346,38.8528646 219.556641,36.5410156 219.556641,33.6425781 C219.556641,32.8489583 219.539388,32.0208333 219.504883,31.1582031 C219.435872,29.7089844 219.108073,28.4150391 218.521484,27.2763672 C216.96875,24.3089193 215.502279,21.8245443 214.12207,19.8232422 C212.534831,17.5804036 210.619792,15.9241536 208.376953,14.8544922 C205.340495,13.4052734 203.011393,12.5598958 201.389648,12.3183594 Z M50.4428406,0.00080871582 L49.8192675,0.000358185554 C46.6563995,0.00823826773 41.5919692,0.146139706 34.6259766,0.4140625 C30.1057943,0.586588542 27.6386719,0.707356771 27.2246094,0.776367188 C23.9121094,1.15592448 20.7548828,1.34570312 17.7529297,1.34570312 C15.9586589,1.31119792 13.2672526,1.36295573 9.67871094,1.50097656 C8.09147135,1.60449219 6.6422526,1.91503906 5.33105469,2.43261719 C2.0530599,3.81282552 0.293294271,6.2281901 0.0517578125,9.67871094 C0.0172526042,9.9202474 0,10.1617839 0,10.4033203 C0,13.4397786 1.41471354,15.8551432 4.24414062,17.6494141 C5.31380208,18.305013 6.6422526,18.7535807 8.22949219,18.9951172 C9.02311198,19.0986328 9.85986328,19.1762695 10.7397461,19.2280273 C11.6196289,19.2797852 12.6289062,19.3056641 13.7675781,19.3056641 C14.90625,19.3056641 15.7516276,19.3229167 16.3037109,19.3574219 C17.0973307,19.3919271 17.563151,19.4781901 17.7011719,19.6162109 C17.8391927,19.7542318 17.8909505,20.2373047 17.8564453,21.0654297 C17.8219401,21.7555339 17.7701823,22.7648112 17.7011719,24.0932617 C17.6321615,25.4217122 17.5976562,26.413737 17.5976562,27.0693359 C17.4596354,31.1064453 17.390625,34.8330078 17.390625,38.2490234 C17.390625,42.4241536 17.4941406,46.1507161 17.7011719,49.4287109 C17.6321615,53.3968099 17.5976562,56.2348633 17.5976562,57.9428711 C17.5976562,59.6508789 17.6666667,62.4544271 17.8046875,66.3535156 L17.8216705,66.8351508 C17.9498071,70.4835974 18.0304091,73.1179742 18.0634766,74.7382812 C18.0634766,76.7740885 18.1152344,78.2923177 18.21875,79.2929688 C18.4257812,81.6393229 19.3487956,83.5802409 20.987793,85.1157227 C22.6267904,86.6512044 24.6022135,87.4534505 26.9140625,87.5224609 L27.2246094,87.5224609 C29.3984375,87.5224609 31.296224,86.8151042 32.9179688,85.4003906 C34.608724,83.9166667 35.6266276,82.0016276 35.9716797,79.6552734 C36.0061849,79.3792318 36.0751953,78.016276 36.1787109,75.5664062 C36.2132161,74.8072917 36.2304688,73.9101562 36.2304688,72.875 C36.2304688,71.1842448 36.1787109,69.1311849 36.0751953,66.7158203 C35.9371745,63.4723307 35.8681641,61.0224609 35.8681641,59.3662109 L35.8681641,56.1054688 C35.8681641,52.6549479 35.7646484,48.2210286 35.5576172,42.8037109 C35.2815755,36.0406901 35.1435547,31.2444661 35.1435547,28.4150391 C35.1435547,27.6214193 35.1263021,26.7760417 35.0917969,25.8789063 C35.0572917,24.9817708 35.0141602,23.9811198 34.9624023,22.8769531 C34.9106445,21.7727865 34.867513,20.9274089 34.8330078,20.3408203 C34.7639974,19.2366536 34.7898763,18.6155599 34.9106445,18.4775391 C35.0314128,18.3395182 35.6611328,18.2360026 36.7998047,18.1669922 C42.1136068,17.8909505 46.8925781,17.4251302 51.1367188,16.7695312 C53.3450521,16.4244792 55.0358073,16.0104167 56.2089844,15.5273438 C59.1764323,14.2851562 60.8326823,12.1458333 61.1777344,9.109375 C61.2122396,8.6953125 61.2294922,8.2985026 61.2294922,7.91894531 C61.2294922,5.3655599 60.1253255,3.27799479 57.9169922,1.65625 C56.5022786,0.655598958 54.65625,0.120768229 52.3789062,0.0517578125 C51.7923177,0.0172526042 51.0332031,0 50.1015625,0 Z M227.941406,14.0263672 C226.768229,14.0263672 225.664062,14.4059245 224.628906,15.1650391 C223.007161,16.3727214 222.041016,18.0289714 221.730469,20.1337891 C221.454427,21.8590495 221.316406,23.7913411 221.316406,25.9306641 C221.316406,27.7594401 221.419922,29.7434896 221.626953,31.8828125 C221.695964,32.5039062 221.842611,33.6080729 222.066895,35.1953125 C222.291178,36.7825521 222.420573,38.007487 222.455078,38.8701172 C222.558594,41.5615234 222.972656,45.0638021 223.697266,49.3769531 C223.800781,50.0670573 224.05957,51.4472656 224.473633,53.5175781 C224.887695,55.5878906 225.146484,57.1923828 225.25,58.3310547 C225.388021,59.6422526 225.560547,61.7815755 225.767578,64.7490234 C225.871094,65.9222005 226.069499,67.6043294 226.362793,69.7954102 C226.656087,71.9864909 226.854492,73.5651042 226.958008,74.53125 C227.337565,78.0852865 227.69987,80.4488932 228.044922,81.6220703 C228.597005,83.554362 229.459635,84.9690755 230.632812,85.8662109 C231.633464,86.5563151 232.73763,86.9013672 233.945312,86.9013672 C234.221354,86.9013672 234.514648,86.8841146 234.825195,86.8496094 C236.412435,86.6425781 237.671875,85.952474 238.603516,84.7792969 C239.431641,83.7441406 239.914714,82.1223958 240.052734,79.9140625 C240.052734,79.5690104 240.035482,79.2757161 240.000977,79.0341797 C239.931966,77.8264974 239.793945,76.0408529 239.586914,73.6772461 L239.548702,73.241045 C239.360676,71.0949154 239.21814,69.4719238 239.121094,68.3720703 C238.983073,66.7158203 238.862305,63.6966146 238.758789,59.3144531 C238.655273,54.9322917 238.465495,51.5507812 238.189453,49.1699219 C238.016927,47.6861979 237.775391,45.4778646 237.464844,42.5449219 C237.154297,39.6119792 236.91276,37.4208984 236.740234,35.9716797 C236.602214,34.7294922 236.300293,32.6333008 235.834473,29.6831055 C235.368652,26.7329102 235.066732,24.4469401 234.928711,22.8251953 C234.652669,20.3753255 234.186849,18.5465495 233.53125,17.3388672 C232.634115,15.7171224 231.288411,14.6819661 229.494141,14.2333984 C228.942057,14.0953776 228.424479,14.0263672 227.941406,14.0263672 Z M267.173828,21.8417969 L267.018555,21.8417969 C266.293945,21.8763021 265.224284,21.8935547 263.80957,21.8935547 L260.652344,21.8935547 C258.823568,21.9280599 256.770508,22.4283854 254.493164,23.3945312 C253.734049,23.7395833 252.966309,24.2140299 252.189941,24.8178711 C251.413574,25.4217122 250.801107,25.956543 250.352539,26.4223633 C249.903971,26.8881836 249.282878,27.5524089 248.489258,28.4150391 C247.626628,29.3121745 246.85026,30.3300781 246.160156,31.46875 C245.711589,32.1933594 245.332031,32.9783529 245.021484,33.8237305 C244.710938,34.6691081 244.400391,35.6611328 244.089844,36.7998047 C243.779297,37.9384766 243.53776,38.7666016 243.365234,39.2841797 C243.123698,40.0777995 242.90804,41.2250977 242.718262,42.7260742 C242.528483,44.2270508 242.399089,45.2018229 242.330078,45.6503906 C241.985026,47.4446615 241.8125,49.2561849 241.8125,51.0849609 C241.8125,55.6741536 242.882161,60.2633464 245.021484,64.8525391 C246.401693,67.819987 248.644531,70.8046875 251.75,73.8066406 C254.648438,76.6705729 258.254232,78.3958333 262.567383,78.9824219 C263.015951,79.0514323 263.602539,79.0859375 264.327148,79.0859375 C265.603841,79.0859375 267.346354,78.9824219 269.554688,78.7753906 C273.557292,78.3613281 276.800781,77.1708984 279.285156,75.2041016 C281.942057,73.0647786 284.064128,70.3733724 285.651367,67.1298828 C286.548503,65.2666016 286.99707,63.1445312 286.99707,60.7636719 C286.99707,60.0735677 286.962565,59.3489583 286.893555,58.5898438 C286.790039,57.6582031 286.427734,56.855957 285.806641,56.1831055 C285.185547,55.5102539 284.443685,55.0875651 283.581055,54.9150391 C282.718424,54.7080078 281.855794,54.7770182 280.993164,55.1220703 C280.130534,55.4671224 279.44043,56.0364583 278.922852,56.8300781 C278.439779,57.5201823 278.042969,58.4863281 277.732422,59.7285156 C277.145833,62.1783854 275.593099,63.938151 273.074219,65.0078125 C271.866536,65.5253906 270.658854,65.7841797 269.451172,65.7841797 C267.656901,65.7841797 265.79362,65.2148438 263.861328,64.0761719 C262.826172,63.4205729 261.445964,62.0921224 259.720703,60.0908203 C258.167969,58.2965495 257.029297,56.1054688 256.304688,53.5175781 C256.235677,53.2070312 256.235677,53.0172526 256.304688,52.9482422 C256.373698,52.8792318 256.563477,52.8447266 256.874023,52.8447266 L262.256836,52.8447266 C263.050456,52.8792318 263.792318,52.8964844 264.482422,52.8964844 C267.484375,52.8964844 269.778971,52.6549479 271.366211,52.171875 C274.713216,51.171224 277.301107,50.6708984 279.129883,50.6708984 L279.285156,50.6708984 C280.561849,50.6708984 281.804036,49.9980469 283.011719,48.6523438 C284.046875,47.4446615 284.598958,45.9436849 284.667969,44.1494141 L284.667969,43.5800781 C284.667969,39.2669271 283.891602,35.7128906 282.338867,32.9179688 C280.717122,30.0195312 278.681315,27.4833984 276.231445,25.3095703 C273.574544,22.9977214 270.555339,21.8417969 267.173828,21.8417969 Z M311.892578,22.2558594 C310.926432,22.2558594 309.977539,22.3248698 309.045898,22.4628906 C306.492513,22.8079427 304.370443,23.6015625 302.679688,24.84375 C300.747396,26.2584635 299.073893,28.5185547 297.65918,31.6240234 C296.658529,33.7978516 296.123698,36.2822266 296.054688,39.0771484 L296.054688,39.3359375 C296.054688,42.8209635 297.383138,45.6158854 300.040039,47.7207031 C300.730143,48.2727865 302.075846,49.0664062 304.077148,50.1015625 C307.286133,51.8268229 309.597982,52.827474 311.012695,53.1035156 C314.118164,53.7591146 316.153971,55.6741536 317.120117,58.8486328 C317.430664,59.9873047 317.508301,60.8671875 317.353027,61.4882812 C317.197754,62.109375 316.757812,62.6959635 316.033203,63.2480469 L315.256836,63.7138672 C313.324544,64.8180339 311.426758,65.3701172 309.563477,65.3701172 C307.59668,65.4046224 305.664388,64.7835286 303.766602,63.5068359 C301.661784,62.0921224 300.022786,60.4876302 298.849609,58.6933594 C297.814453,57.1061198 296.365234,56.3125 294.501953,56.3125 L294.036133,56.3125 C291.96582,56.4505208 290.464844,57.4339193 289.533203,59.2626953 C289.015625,60.2633464 288.756836,61.2985026 288.756836,62.3681641 C288.756836,63.5413411 289.05013,64.766276 289.636719,66.0429688 C290.430339,67.90625 292.000326,69.9765625 294.34668,72.2539062 C296.589518,74.4622396 299.902018,76.3427734 304.28418,77.8955078 C304.939779,78.1370443 305.681641,78.3181966 306.509766,78.4389648 C307.337891,78.5597331 308.027995,78.6287435 308.580078,78.6459961 C309.132161,78.6632487 309.934408,78.671875 310.986816,78.671875 L313.341797,78.671875 C316.964844,78.671875 320.398112,77.6539714 323.641602,75.6181641 C329.058919,72.1676432 331.784831,67.3714193 331.819336,61.2294922 C331.71582,59.8492839 331.629557,58.9348958 331.560547,58.4863281 C330.766927,53.7936198 328.644857,49.8255208 325.194336,46.5820312 C322.986003,44.4772135 320.484375,43.2005208 317.689453,42.7519531 C315.653646,42.4759115 314.187174,42.0791016 313.290039,41.5615234 C311.357747,40.4228516 309.563477,39.4049479 307.907227,38.5078125 C307.527669,38.3007812 307.320638,37.9902344 307.286133,37.5761719 C307.217122,36.6790365 307.43278,35.9026693 307.933105,35.2470703 C308.433431,34.5914714 309.114909,34.1946615 309.977539,34.0566406 C310.564128,33.953125 311.582031,33.9099935 313.03125,33.9272461 C314.480469,33.9444987 315.515625,33.9186198 316.136719,33.8496094 C317.171875,33.7460938 318.258789,33.8323568 319.397461,34.1083984 C320.087565,34.2809245 320.932943,34.3671875 321.933594,34.3671875 C322.451172,34.3671875 323.003255,34.3499349 323.589844,34.3154297 C324.314453,34.2464193 324.883789,34.0048828 325.297852,33.5908203 C325.780924,33.1077474 326.091471,32.4780273 326.229492,31.7016602 C326.367513,30.925293 326.28125,30.1748047 325.970703,29.4501953 C325.004557,27.1038411 323.348307,25.3958333 321.001953,24.3261719 C318,22.9459635 314.963542,22.2558594 311.892578,22.2558594 Z M79.8455965,23.9128656 L79.6991238,23.9128282 C79.5002396,23.9152244 79.2354601,23.9236111 78.9047852,23.9379883 C78.5079753,23.9552409 78.2060547,23.9811198 77.9990234,24.015625 C73.9619141,24.4641927 70.7356771,26.1204427 68.3203125,28.984375 C68.2858073,29.0533854 68.1650391,29.2086589 67.9580078,29.4501953 C67.7509766,29.6917318 67.6043294,29.8642578 67.5180664,29.9677734 C67.4318034,30.0712891 67.2937826,30.1920573 67.1040039,30.3300781 C66.9142253,30.468099 66.7158203,30.5716146 66.5087891,30.640625 C65.335612,31.0891927 64.421224,31.8828125 63.765625,33.0214844 C63.2480469,33.9186198 62.9892578,34.867513 62.9892578,35.8681641 C62.9892578,36.1097005 63.0065104,36.3684896 63.0410156,36.6445313 C63.8691406,42.0963542 64.507487,46.1852214 64.9560547,48.9111328 C65.7841797,54.0869141 67.0091146,60.1770833 68.6308594,67.1816406 C69.3209635,70.2526042 70.1318359,72.6679688 71.0634766,74.4277344 C71.5810547,75.4283854 72.2711589,76.1529948 73.1337891,76.6015625 C73.9964193,77.0501302 74.9108073,77.1536458 75.8769531,76.9121094 C77.4296875,76.4980469 78.4475911,75.3248698 78.9306641,73.3925781 C79.1722005,72.4954427 79.2929688,71.4947917 79.2929688,70.390625 C79.2929688,69.8385417 79.2584635,69.2519531 79.1894531,68.6308594 C78.844401,64.9733073 78.4648438,61.7470703 78.0507812,58.9521484 C77.9270384,58.1168844 77.5952797,56.0820618 77.055505,52.8476806 L76.927249,52.079991 L76.8603516,51.6801758 C76.2047526,47.7638346 75.7734375,44.7360026 75.5664062,42.5966797 C75.531901,42.1826172 75.6526693,41.8548177 75.9287109,41.6132813 C76.1357422,41.4407552 76.6015625,41.035319 77.3261719,40.3969727 C78.0507812,39.7586263 78.6028646,39.2841797 78.9824219,38.9736328 C80.8111979,37.5589193 82.639974,36.8515625 84.46875,36.8515625 C84.7102865,36.8515625 84.9518229,36.8429362 85.1933594,36.8256836 C85.4348958,36.808431 85.7109375,36.7825521 86.0214844,36.7480469 C86.3320312,36.7135417 86.5735677,36.6962891 86.7460938,36.6962891 C88.5058594,36.5582682 89.9378255,35.7646484 91.0419922,34.3154297 C91.9391276,33.1422526 92.3876953,31.9173177 92.3876953,30.640625 C92.3876953,29.8470052 92.2151693,29.0361328 91.8701172,28.2080078 C90.9039714,25.8961589 89.1269531,24.6022135 86.5390625,24.3261719 C86.1595052,24.2916667 85.6246745,24.2830404 84.9345703,24.300293 C84.2444661,24.3175456 83.7096354,24.2916667 83.3300781,24.2226563 C82.8470052,24.1536458 82.1655273,24.0846354 81.2856445,24.015625 C81.2179612,24.0103165 81.1525749,24.0052122 81.0894855,24.000312 L80.7385124,23.9733612 C80.1994961,23.9325267 79.8901743,23.9121094 79.8105469,23.9121094 Z M122.821289,26.9140625 C122.131185,26.9140625 121.423828,27.0348307 120.699219,27.2763672 C118.559896,27.9664714 117.214193,29.5192057 116.662109,31.9345703 C116.524089,32.210612 116.524089,32.9007161 116.662109,34.0048828 L116.690629,34.2348882 C116.809637,35.2029705 116.869141,35.7991536 116.869141,36.0234375 C116.869141,40.5436198 116.972656,44.2874349 117.179688,47.2548828 C117.248698,48.0139974 117.343587,49.5839844 117.464355,51.9648438 C117.585124,54.3457031 117.714518,56.1917318 117.852539,57.5029297 C117.921549,57.9860026 117.887044,58.3224284 117.749023,58.512207 C117.611003,58.7019857 117.317708,58.8313802 116.869141,58.9003906 C116.489583,58.9348958 116.110026,58.9521484 115.730469,58.9521484 C114.246745,58.9866536 112.866536,58.5208333 111.589844,57.5546875 C109.554036,56.0019531 108.363607,53.7073568 108.018555,50.6708984 C107.673503,47.5999349 107.397461,42.9934896 107.19043,36.8515625 C107.121419,34.1601562 107.017904,32.383138 106.879883,31.5205078 C106.707357,30.3473307 106.207031,29.3466797 105.378906,28.5185547 C104.550781,27.6904297 103.584635,27.1901042 102.480469,27.0175781 C102.169922,26.9830729 101.876628,26.9658203 101.600586,26.9658203 C100.737956,26.9658203 99.9270833,27.1728516 99.1679688,27.5869141 C98.1328125,28.1389974 97.3219401,28.9498698 96.7353516,30.0195312 C96.0107422,31.3997396 95.4931641,33.125 95.1826172,35.1953125 C94.492513,39.8190104 94.1474609,44.8395182 94.1474609,50.2568359 L94.1474609,52.3789062 C94.1474609,53.172526 94.2682292,54.1214193 94.5097656,55.2255859 C95.6139323,60.1943359 97.5807292,64.2486979 100.410156,67.3886719 C102.307943,69.4589844 104.067708,70.8736979 105.689453,71.6328125 C107.58724,72.5299479 109.864583,73.2200521 112.521484,73.703125 C113.763672,73.9101562 114.936849,74.0136719 116.041016,74.0136719 C117.869792,74.0136719 119.543294,73.7203776 121.061523,73.1337891 C123.338867,72.2711589 125.529948,70.8736979 127.634766,68.9414062 C129.222005,67.4576823 130.326172,66.0429688 130.947266,64.6972656 C131.499349,63.5240885 131.809896,61.5917969 131.878906,58.9003906 C131.868842,58.6588542 131.845569,58.3263222 131.809087,57.9027947 L131.774582,57.5174866 C131.680232,56.4985046 131.525228,55.0616862 131.30957,53.2070312 C131.206055,52.2063802 130.973145,50.3776042 130.61084,47.7207031 C130.248535,45.0638021 129.98112,42.7864583 129.808594,40.8886719 C129.636068,38.9908854 129.532552,37.1276042 129.498047,35.2988281 C129.429036,32.469401 128.549154,30.2438151 126.858398,28.6220703 C125.650716,27.4833984 124.305013,26.9140625 122.821289,26.9140625 Z M267.096191,33.3320312 C267.182454,33.2630208 267.329102,33.297526 267.536133,33.4355469 C267.743164,33.5735677 267.872559,33.6339518 267.924316,33.6166992 C267.976074,33.5994466 268.096842,33.6770833 268.286621,33.8496094 C268.4764,34.0221354 268.588542,34.125651 268.623047,34.1601562 C268.657552,34.1946615 268.761068,34.324056 268.933594,34.5483398 L269.003308,34.6386519 C269.134287,34.807657 269.214565,34.9069475 269.244141,34.9365234 C269.278646,34.9710286 269.373535,35.1090495 269.528809,35.3505859 L269.591657,35.4477639 C269.709961,35.6294444 269.783901,35.7350725 269.813477,35.7646484 C270.296549,36.4892578 270.745117,37.3691406 271.15918,38.4042969 C271.193685,38.5078125 271.262695,38.8011068 271.366211,39.2841797 C271.435221,39.9052734 271.409342,40.293457 271.288574,40.4487305 C271.167806,40.6040039 270.779622,40.7679036 270.124023,40.9404297 C268.157227,41.3889974 265.879883,41.6132812 263.291992,41.6132812 C259.910482,41.6132812 257.391602,41.8030599 255.735352,42.1826172 C255.493815,42.2171224 255.338542,42.1998698 255.269531,42.1308594 C255.200521,42.061849 255.217773,41.9238281 255.321289,41.7167969 C255.873372,40.1640625 256.805013,38.6113281 258.116211,37.0585938 C258.254232,36.8515625 258.487142,36.5582682 258.814941,36.1787109 C259.142741,35.7991536 259.392904,35.5058594 259.56543,35.2988281 C260.117513,34.6432292 260.704102,34.2464193 261.325195,34.1083984 C263.257487,33.6598307 265.034505,33.4010417 266.65625,33.3320312 C266.863281,33.4010417 267.009928,33.4010417 267.096191,33.3320312 Z"/></clipPath></defs><g clip-path="url(#a)"><polygon fill="#FFF" points="0 0 157 0 157 150 0 150 0 0"/></g><g clip-path="url(#b)" transform="translate(3 4)"><polygon fill="#795E58" points="0 0 150 0 150 142.667 0 142.667 0 0"/></g><g transform="translate(165.828 28.206)"><g clip-path="url(#c)"><polygon fill="#282424" points="0 0 331.819 0 331.819 88.609 0 88.609 0 0"/></g><g clip-path="url(#d)"><path fill="none" stroke="#FFF" stroke-miterlimit="5" stroke-width="6" d="M0.0517578125,9.67871094 C0.293294271,6.2281901 2.0530599,3.81282552 5.33105469,2.43261719 C6.6422526,1.91503906 8.09147135,1.60449219 9.67871094,1.50097656 C13.2672526,1.36295573 15.9586589,1.31119792 17.7529297,1.34570312 C20.7548828,1.34570312 23.9121094,1.15592448 27.2246094,0.776367188 C27.6386719,0.707356771 30.1057943,0.586588542 34.6259766,0.4140625 C41.8030599,0.138020833 46.9615885,0 50.1015625,0 C51.0332031,0 51.7923177,0.0172526042 52.3789062,0.0517578125 C54.65625,0.120768229 56.5022786,0.655598958 57.9169922,1.65625 C60.1253255,3.27799479 61.2294922,5.3655599 61.2294922,7.91894531 C61.2294922,8.2985026 61.2122396,8.6953125 61.1777344,9.109375 C60.8326823,12.1458333 59.1764323,14.2851562 56.2089844,15.5273438 C55.0358073,16.0104167 53.3450521,16.4244792 51.1367188,16.7695312 C46.8925781,17.4251302 42.1136068,17.8909505 36.7998047,18.1669922 C35.6611328,18.2360026 35.0314128,18.3395182 34.9106445,18.4775391 C34.7898763,18.6155599 34.7639974,19.2366536 34.8330078,20.3408203 C34.867513,20.9274089 34.9106445,21.7727865 34.9624023,22.8769531 C35.0141602,23.9811198 35.0572917,24.9817708 35.0917969,25.8789063 C35.1263021,26.7760417 35.1435547,27.6214193 35.1435547,28.4150391 C35.1435547,31.2444661 35.2815755,36.0406901 35.5576172,42.8037109 C35.7646484,48.2210286 35.8681641,52.6549479 35.8681641,56.1054688 C35.8681641,56.968099 35.8681641,57.7617188 35.8681641,58.4863281 C35.8681641,58.7623698 35.8681641,59.0556641 35.8681641,59.3662109 C35.8681641,61.0224609 35.9371745,63.4723307 36.0751953,66.7158203 C36.1787109,69.1311849 36.2304688,71.1842448 36.2304688,72.875 C36.2304688,73.9101562 36.2132161,74.8072917 36.1787109,75.5664062 C36.0751953,78.016276 36.0061849,79.3792318 35.9716797,79.6552734 C35.6266276,82.0016276 34.608724,83.9166667 32.9179688,85.4003906 C31.296224,86.8151042 29.3984375,87.5224609 27.2246094,87.5224609 C27.1210938,87.5224609 27.0175781,87.5224609 26.9140625,87.5224609 C24.6022135,87.4534505 22.6267904,86.6512044 20.987793,85.1157227 C19.3487956,83.5802409 18.4257812,81.6393229 18.21875,79.2929688 C18.1152344,78.2923177 18.0634766,76.7740885 18.0634766,74.7382812 C18.0289714,73.047526 17.9427083,70.2526042 17.8046875,66.3535156 C17.6666667,62.4544271 17.5976562,59.6508789 17.5976562,57.9428711 C17.5976562,56.2348633 17.6321615,53.3968099 17.7011719,49.4287109 C17.4941406,46.1507161 17.390625,42.4241536 17.390625,38.2490234 C17.390625,34.8330078 17.4596354,31.1064453 17.5976562,27.0693359 C17.5976562,26.413737 17.6321615,25.4217122 17.7011719,24.0932617 C17.7701823,22.7648112 17.8219401,21.7555339 17.8564453,21.0654297 C17.8909505,20.2373047 17.8391927,19.7542318 17.7011719,19.6162109 C17.563151,19.4781901 17.0973307,19.3919271 16.3037109,19.3574219 C15.7516276,19.3229167 14.90625,19.3056641 13.7675781,19.3056641 C12.6289062,19.3056641 11.6196289,19.2797852 10.7397461,19.2280273 C9.85986328,19.1762695 9.02311198,19.0986328 8.22949219,18.9951172 C6.6422526,18.7535807 5.31380208,18.305013 4.24414062,17.6494141 C1.41471354,15.8551432 0,13.4397786 0,10.4033203 C0,10.1617839 0.0172526042,9.9202474 0.0517578125,9.67871094 Z M63.0410156,36.6445313 C63.0065104,36.3684896 62.9892578,36.1097005 62.9892578,35.8681641 C62.9892578,34.867513 63.2480469,33.9186198 63.765625,33.0214844 C64.421224,31.8828125 65.335612,31.0891927 66.5087891,30.640625 C66.7158203,30.5716146 66.9142253,30.468099 67.1040039,30.3300781 C67.2937826,30.1920573 67.4318034,30.0712891 67.5180664,29.9677734 C67.6043294,29.8642578 67.7509766,29.6917318 67.9580078,29.4501953 C68.1650391,29.2086589 68.2858073,29.0533854 68.3203125,28.984375 C70.7356771,26.1204427 73.9619141,24.4641927 77.9990234,24.015625 C78.2060547,23.9811198 78.5079753,23.9552409 78.9047852,23.9379883 C79.3015951,23.9207357 79.6035156,23.9121094 79.8105469,23.9121094 C79.9140625,23.9121094 80.4057617,23.9466146 81.2856445,24.015625 C82.1655273,24.0846354 82.8470052,24.1536458 83.3300781,24.2226563 C83.7096354,24.2916667 84.2444661,24.3175456 84.9345703,24.300293 C85.6246745,24.2830404 86.1595052,24.2916667 86.5390625,24.3261719 C89.1269531,24.6022135 90.9039714,25.8961589 91.8701172,28.2080078 C92.2151693,29.0361328 92.3876953,29.8470052 92.3876953,30.640625 C92.3876953,31.9173177 91.9391276,33.1422526 91.0419922,34.3154297 C89.9378255,35.7646484 88.5058594,36.5582682 86.7460938,36.6962891 C86.5735677,36.6962891 86.3320312,36.7135417 86.0214844,36.7480469 C85.7109375,36.7825521 85.4348958,36.808431 85.1933594,36.8256836 C84.9518229,36.8429362 84.7102865,36.8515625 84.46875,36.8515625 C82.639974,36.8515625 80.8111979,37.5589193 78.9824219,38.9736328 C78.6028646,39.2841797 78.0507812,39.7586263 77.3261719,40.3969727 C76.6015625,41.035319 76.1357422,41.4407552 75.9287109,41.6132813 C75.6526693,41.8548177 75.531901,42.1826172 75.5664062,42.5966797 C75.7734375,44.7360026 76.2047526,47.7638346 76.8603516,51.6801758 C77.5159505,55.5965169 77.9127604,58.0205078 78.0507812,58.9521484 C78.4648438,61.7470703 78.844401,64.9733073 79.1894531,68.6308594 C79.2584635,69.2519531 79.2929688,69.8385417 79.2929688,70.390625 C79.2929688,71.4947917 79.1722005,72.4954427 78.9306641,73.3925781 C78.4475911,75.3248698 77.4296875,76.4980469 75.8769531,76.9121094 C74.9108073,77.1536458 73.9964193,77.0501302 73.1337891,76.6015625 C72.2711589,76.1529948 71.5810547,75.4283854 71.0634766,74.4277344 C70.1318359,72.6679688 69.3209635,70.2526042 68.6308594,67.1816406 C67.0091146,60.1770833 65.7841797,54.0869141 64.9560547,48.9111328 C64.507487,46.1852214 63.8691406,42.0963542 63.0410156,36.6445313 Z M94.1474609,52.3789062 C94.1474609,51.6542969 94.1474609,50.9469401 94.1474609,50.2568359 C94.1474609,44.8395182 94.492513,39.8190104 95.1826172,35.1953125 C95.4931641,33.125 96.0107422,31.3997396 96.7353516,30.0195312 C97.3219401,28.9498698 98.1328125,28.1389974 99.1679688,27.5869141 C99.9270833,27.1728516 100.737956,26.9658203 101.600586,26.9658203 C101.876628,26.9658203 102.169922,26.9830729 102.480469,27.0175781 C103.584635,27.1901042 104.550781,27.6904297 105.378906,28.5185547 C106.207031,29.3466797 106.707357,30.3473307 106.879883,31.5205078 C107.017904,32.383138 107.121419,34.1601562 107.19043,36.8515625 C107.397461,42.9934896 107.673503,47.5999349 108.018555,50.6708984 C108.363607,53.7073568 109.554036,56.0019531 111.589844,57.5546875 C112.866536,58.5208333 114.246745,58.9866536 115.730469,58.9521484 C116.110026,58.9521484 116.489583,58.9348958 116.869141,58.9003906 C117.317708,58.8313802 117.611003,58.7019857 117.749023,58.512207 C117.887044,58.3224284 117.921549,57.9860026 117.852539,57.5029297 C117.714518,56.1917318 117.585124,54.3457031 117.464355,51.9648438 C117.343587,49.5839844 117.248698,48.0139974 117.179688,47.2548828 C116.972656,44.2874349 116.869141,40.5436198 116.869141,36.0234375 C116.869141,35.781901 116.80013,35.1090495 116.662109,34.0048828 C116.524089,32.9007161 116.524089,32.210612 116.662109,31.9345703 C117.214193,29.5192057 118.559896,27.9664714 120.699219,27.2763672 C121.423828,27.0348307 122.131185,26.9140625 122.821289,26.9140625 C124.305013,26.9140625 125.650716,27.4833984 126.858398,28.6220703 C128.549154,30.2438151 129.429036,32.469401 129.498047,35.2988281 C129.532552,37.1276042 129.636068,38.9908854 129.808594,40.8886719 C129.98112,42.7864583 130.248535,45.0638021 130.61084,47.7207031 C130.973145,50.3776042 131.206055,52.2063802 131.30957,53.2070312 C131.654622,56.1744792 131.844401,58.0722656 131.878906,58.9003906 C131.809896,61.5917969 131.499349,63.5240885 130.947266,64.6972656 C130.326172,66.0429688 129.222005,67.4576823 127.634766,68.9414062 C125.529948,70.8736979 123.338867,72.2711589 121.061523,73.1337891 C119.543294,73.7203776 117.869792,74.0136719 116.041016,74.0136719 C114.936849,74.0136719 113.763672,73.9101562 112.521484,73.703125 C109.864583,73.2200521 107.58724,72.5299479 105.689453,71.6328125 C104.067708,70.8736979 102.307943,69.4589844 100.410156,67.3886719 C97.5807292,64.2486979 95.6139323,60.1943359 94.5097656,55.2255859 C94.2682292,54.1214193 94.1474609,53.172526 94.1474609,52.3789062 Z M133.69043,34.2119141 C133.621419,33.6943359 133.586914,33.1767578 133.586914,32.6591797 C133.586914,29.6917318 134.604818,26.8105469 136.640625,24.015625 C138.434896,21.5657552 139.815104,19.9095052 140.78125,19.046875 C145.163411,15.0097656 149.631836,12.8186849 154.186523,12.4736328 C154.221029,12.4736328 154.341797,12.421875 154.548828,12.3183594 L157.550781,12.3183594 C159.172526,12.5598958 161.501628,13.4052734 164.538086,14.8544922 C166.780924,15.9241536 168.695964,17.5804036 170.283203,19.8232422 C171.663411,21.8245443 173.129883,24.3089193 174.682617,27.2763672 C175.269206,28.4150391 175.597005,29.7089844 175.666016,31.1582031 C175.700521,32.0208333 175.717773,32.8489583 175.717773,33.6425781 C175.717773,36.5410156 175.424479,38.8528646 174.837891,40.578125 C174.044271,42.9589844 172.284505,44.2529297 169.558594,44.4599609 C168.557943,44.5289714 167.548665,44.261556 166.530762,43.6577148 C165.512858,43.0538737 164.745117,42.2861328 164.227539,41.3544922 C163.709961,40.3883464 163.347656,38.835612 163.140625,36.6962891 C163.002604,35.2470703 162.933594,34.1774089 162.933594,33.4873047 C162.933594,32.4866536 162.70931,31.641276 162.260742,30.9511719 C162.122721,30.7441406 161.872559,30.2610677 161.510254,29.5019531 C161.147949,28.7428385 160.811523,28.1735026 160.500977,27.7939453 C160.086914,27.3108724 159.621094,27.0003255 159.103516,26.8623047 C158.275391,26.6207682 157.464518,26.5 156.670898,26.5 C154.393555,26.5 152.202474,27.4488932 150.097656,29.3466797 C149.269531,30.1057943 148.165365,31.382487 146.785156,33.1767578 C146.509115,33.5218099 146.302083,34.125651 146.164062,34.9882812 C146.060547,35.7128906 146.008789,36.5582682 146.008789,37.5244141 C146.008789,38.9391276 146.129557,40.5953776 146.371094,42.4931641 C146.474609,43.3212891 146.647135,44.5634766 146.888672,46.2197266 C147.130208,47.8759766 147.302734,49.1181641 147.40625,49.9462891 C147.440755,50.4638672 147.734049,50.7054036 148.286133,50.6708984 C148.59668,50.6363932 150.183919,50.5673828 153.047852,50.4638672 C155.911784,50.3603516 158.085612,50.1878255 159.569336,49.9462891 C159.879883,49.9117839 160.19043,49.8945312 160.500977,49.8945312 C161.467122,49.8945312 162.398763,50.1188151 163.295898,50.5673828 C164.538086,51.2229818 165.452474,52.1201172 166.039062,53.2587891 C166.556641,54.2594401 166.81543,55.2945964 166.81543,56.3642578 C166.81543,56.6402995 166.81543,56.8990885 166.81543,57.140625 C166.642904,58.4863281 166.108073,59.6422526 165.210938,60.6083984 C164.382812,61.5400391 163.088867,62.281901 161.329102,62.8339844 C159.258789,63.5585938 155.704753,64.0934245 150.666992,64.4384766 C149.321289,64.5419922 148.588053,64.6541341 148.467285,64.7749023 C148.346517,64.8956706 148.320638,65.594401 148.389648,66.8710938 C148.458659,68.3548177 148.579427,70.4596354 148.751953,73.1855469 C148.924479,75.9114583 149.027995,77.7229818 149.0625,78.6201172 C149.097005,79.1376953 149.114258,79.6552734 149.114258,80.1728516 C149.114258,82.070638 148.855469,83.7613932 148.337891,85.2451172 C147.751302,86.7633464 146.733398,87.7985026 145.28418,88.3505859 C144.697591,88.523112 144.145508,88.609375 143.62793,88.609375 C142.765299,88.609375 141.954427,88.3505859 141.195312,87.8330078 C140.160156,87.1429036 139.332031,85.8662109 138.710938,84.0029297 C136.468099,77.3779297 135.208659,69.8385417 134.932617,61.3847656 C134.932617,61.2122396 134.932617,60.9534505 134.932617,60.6083984 C134.932617,59.0556641 135.001628,55.9847005 135.139648,51.3955078 C135.139648,51.257487 135.139648,51.1194661 135.139648,50.9814453 C135.139648,49.9462891 135.036133,48.1692708 134.829102,45.6503906 C134.484049,41.3717448 134.104492,37.5589193 133.69043,34.2119141 Z M177.529297,34.2119141 C177.460286,33.6943359 177.425781,33.1767578 177.425781,32.6591797 C177.425781,29.6917318 178.443685,26.8105469 180.479492,24.015625 C182.273763,21.5657552 183.653971,19.9095052 184.620117,19.046875 C189.002279,15.0097656 193.470703,12.8186849 198.025391,12.4736328 C198.059896,12.4736328 198.180664,12.421875 198.387695,12.3183594 L201.389648,12.3183594 C203.011393,12.5598958 205.340495,13.4052734 208.376953,14.8544922 C210.619792,15.9241536 212.534831,17.5804036 214.12207,19.8232422 C215.502279,21.8245443 216.96875,24.3089193 218.521484,27.2763672 C219.108073,28.4150391 219.435872,29.7089844 219.504883,31.1582031 C219.539388,32.0208333 219.556641,32.8489583 219.556641,33.6425781 C219.556641,36.5410156 219.263346,38.8528646 218.676758,40.578125 C217.883138,42.9589844 216.123372,44.2529297 213.397461,44.4599609 C212.39681,44.5289714 211.387533,44.261556 210.369629,43.6577148 C209.351725,43.0538737 208.583984,42.2861328 208.066406,41.3544922 C207.548828,40.3883464 207.186523,38.835612 206.979492,36.6962891 C206.841471,35.2470703 206.772461,34.1774089 206.772461,33.4873047 C206.772461,32.4866536 206.548177,31.641276 206.099609,30.9511719 C205.961589,30.7441406 205.711426,30.2610677 205.349121,29.5019531 C204.986816,28.7428385 204.650391,28.1735026 204.339844,27.7939453 C203.925781,27.3108724 203.459961,27.0003255 202.942383,26.8623047 C202.114258,26.6207682 201.303385,26.5 200.509766,26.5 C198.232422,26.5 196.041341,27.4488932 193.936523,29.3466797 C193.108398,30.1057943 192.004232,31.382487 190.624023,33.1767578 C190.347982,33.5218099 190.140951,34.125651 190.00293,34.9882812 C189.899414,35.7128906 189.847656,36.5582682 189.847656,37.5244141 C189.847656,38.9391276 189.968424,40.5953776 190.209961,42.4931641 C190.313477,43.3212891 190.486003,44.5634766 190.727539,46.2197266 C190.969076,47.8759766 191.141602,49.1181641 191.245117,49.9462891 C191.279622,50.4638672 191.572917,50.7054036 192.125,50.6708984 C192.435547,50.6363932 194.022786,50.5673828 196.886719,50.4638672 C199.750651,50.3603516 201.924479,50.1878255 203.408203,49.9462891 C203.71875,49.9117839 204.029297,49.8945312 204.339844,49.8945312 C205.30599,49.8945312 206.23763,50.1188151 207.134766,50.5673828 C208.376953,51.2229818 209.291341,52.1201172 209.87793,53.2587891 C210.395508,54.2594401 210.654297,55.2945964 210.654297,56.3642578 C210.654297,56.6402995 210.654297,56.8990885 210.654297,57.140625 C210.481771,58.4863281 209.94694,59.6422526 209.049805,60.6083984 C208.22168,61.5400391 206.927734,62.281901 205.167969,62.8339844 C203.097656,63.5585938 199.54362,64.0934245 194.505859,64.4384766 C193.160156,64.5419922 192.426921,64.6541341 192.306152,64.7749023 C192.185384,64.8956706 192.159505,65.594401 192.228516,66.8710938 C192.297526,68.3548177 192.418294,70.4596354 192.59082,73.1855469 C192.763346,75.9114583 192.866862,77.7229818 192.901367,78.6201172 C192.935872,79.1376953 192.953125,79.6552734 192.953125,80.1728516 C192.953125,82.070638 192.694336,83.7613932 192.176758,85.2451172 C191.590169,86.7633464 190.572266,87.7985026 189.123047,88.3505859 C188.536458,88.523112 187.984375,88.609375 187.466797,88.609375 C186.604167,88.609375 185.793294,88.3505859 185.03418,87.8330078 C183.999023,87.1429036 183.170898,85.8662109 182.549805,84.0029297 C180.306966,77.3779297 179.047526,69.8385417 178.771484,61.3847656 C178.771484,61.2122396 178.771484,60.9534505 178.771484,60.6083984 C178.771484,59.0556641 178.840495,55.9847005 178.978516,51.3955078 C178.978516,51.257487 178.978516,51.1194661 178.978516,50.9814453 C178.978516,49.9462891 178.875,48.1692708 178.667969,45.6503906 C178.322917,41.3717448 177.943359,37.5589193 177.529297,34.2119141 Z M221.626953,31.8828125 C221.419922,29.7434896 221.316406,27.7594401 221.316406,25.9306641 C221.316406,23.7913411 221.454427,21.8590495 221.730469,20.1337891 C222.041016,18.0289714 223.007161,16.3727214 224.628906,15.1650391 C225.664062,14.4059245 226.768229,14.0263672 227.941406,14.0263672 C228.424479,14.0263672 228.942057,14.0953776 229.494141,14.2333984 C231.288411,14.6819661 232.634115,15.7171224 233.53125,17.3388672 C234.186849,18.5465495 234.652669,20.3753255 234.928711,22.8251953 C235.066732,24.4469401 235.368652,26.7329102 235.834473,29.6831055 C236.300293,32.6333008 236.602214,34.7294922 236.740234,35.9716797 C236.91276,37.4208984 237.154297,39.6119792 237.464844,42.5449219 C237.775391,45.4778646 238.016927,47.6861979 238.189453,49.1699219 C238.465495,51.5507812 238.655273,54.9322917 238.758789,59.3144531 C238.862305,63.6966146 238.983073,66.7158203 239.121094,68.3720703 C239.224609,69.5452474 239.379883,71.3136393 239.586914,73.6772461 C239.793945,76.0408529 239.931966,77.8264974 240.000977,79.0341797 C240.035482,79.2757161 240.052734,79.5690104 240.052734,79.9140625 C239.914714,82.1223958 239.431641,83.7441406 238.603516,84.7792969 C237.671875,85.952474 236.412435,86.6425781 234.825195,86.8496094 C234.514648,86.8841146 234.221354,86.9013672 233.945312,86.9013672 C232.73763,86.9013672 231.633464,86.5563151 230.632812,85.8662109 C229.459635,84.9690755 228.597005,83.554362 228.044922,81.6220703 C227.69987,80.4488932 227.337565,78.0852865 226.958008,74.53125 C226.854492,73.5651042 226.656087,71.9864909 226.362793,69.7954102 C226.069499,67.6043294 225.871094,65.9222005 225.767578,64.7490234 C225.560547,61.7815755 225.388021,59.6422526 225.25,58.3310547 C225.146484,57.1923828 224.887695,55.5878906 224.473633,53.5175781 C224.05957,51.4472656 223.800781,50.0670573 223.697266,49.3769531 C222.972656,45.0638021 222.558594,41.5615234 222.455078,38.8701172 C222.420573,38.007487 222.291178,36.7825521 222.066895,35.1953125 C221.842611,33.6080729 221.695964,32.5039062 221.626953,31.8828125 Z M242.330078,45.6503906 C242.399089,45.2018229 242.528483,44.2270508 242.718262,42.7260742 C242.90804,41.2250977 243.123698,40.0777995 243.365234,39.2841797 C243.53776,38.7666016 243.779297,37.9384766 244.089844,36.7998047 C244.400391,35.6611328 244.710938,34.6691081 245.021484,33.8237305 C245.332031,32.9783529 245.711589,32.1933594 246.160156,31.46875 C246.85026,30.3300781 247.626628,29.3121745 248.489258,28.4150391 C249.282878,27.5524089 249.903971,26.8881836 250.352539,26.4223633 C250.801107,25.956543 251.413574,25.4217122 252.189941,24.8178711 C252.966309,24.2140299 253.734049,23.7395833 254.493164,23.3945312 C256.770508,22.4283854 258.823568,21.9280599 260.652344,21.8935547 C261.342448,21.8935547 262.394857,21.8935547 263.80957,21.8935547 C265.224284,21.8935547 266.293945,21.8763021 267.018555,21.8417969 C267.05306,21.8417969 267.104818,21.8417969 267.173828,21.8417969 C270.555339,21.8417969 273.574544,22.9977214 276.231445,25.3095703 C278.681315,27.4833984 280.717122,30.0195312 282.338867,32.9179688 C283.891602,35.7128906 284.667969,39.2669271 284.667969,43.5800781 C284.667969,43.7526042 284.667969,43.9423828 284.667969,44.1494141 C284.598958,45.9436849 284.046875,47.4446615 283.011719,48.6523438 C281.804036,49.9980469 280.561849,50.6708984 279.285156,50.6708984 C279.216146,50.6708984 279.164388,50.6708984 279.129883,50.6708984 C277.301107,50.6708984 274.713216,51.171224 271.366211,52.171875 C269.778971,52.6549479 267.484375,52.8964844 264.482422,52.8964844 C263.792318,52.8964844 263.050456,52.8792318 262.256836,52.8447266 L256.874023,52.8447266 C256.563477,52.8447266 256.373698,52.8792318 256.304688,52.9482422 C256.235677,53.0172526 256.235677,53.2070312 256.304688,53.5175781 C257.029297,56.1054688 258.167969,58.2965495 259.720703,60.0908203 C261.445964,62.0921224 262.826172,63.4205729 263.861328,64.0761719 C265.79362,65.2148438 267.656901,65.7841797 269.451172,65.7841797 C270.658854,65.7841797 271.866536,65.5253906 273.074219,65.0078125 C275.593099,63.938151 277.145833,62.1783854 277.732422,59.7285156 C278.042969,58.4863281 278.439779,57.5201823 278.922852,56.8300781 C279.44043,56.0364583 280.130534,55.4671224 280.993164,55.1220703 C281.855794,54.7770182 282.718424,54.7080078 283.581055,54.9150391 C284.443685,55.0875651 285.185547,55.5102539 285.806641,56.1831055 C286.427734,56.855957 286.790039,57.6582031 286.893555,58.5898438 C286.962565,59.3489583 286.99707,60.0735677 286.99707,60.7636719 C286.99707,63.1445312 286.548503,65.2666016 285.651367,67.1298828 C284.064128,70.3733724 281.942057,73.0647786 279.285156,75.2041016 C276.800781,77.1708984 273.557292,78.3613281 269.554688,78.7753906 C267.346354,78.9824219 265.603841,79.0859375 264.327148,79.0859375 C263.602539,79.0859375 263.015951,79.0514323 262.567383,78.9824219 C258.254232,78.3958333 254.648438,76.6705729 251.75,73.8066406 C248.644531,70.8046875 246.401693,67.819987 245.021484,64.8525391 C242.882161,60.2633464 241.8125,55.6741536 241.8125,51.0849609 C241.8125,49.2561849 241.985026,47.4446615 242.330078,45.6503906 Z M255.321289,41.7167969 C255.217773,41.9238281 255.200521,42.061849 255.269531,42.1308594 C255.338542,42.1998698 255.493815,42.2171224 255.735352,42.1826172 C257.391602,41.8030599 259.910482,41.6132812 263.291992,41.6132812 C265.879883,41.6132812 268.157227,41.3889974 270.124023,40.9404297 C270.779622,40.7679036 271.167806,40.6040039 271.288574,40.4487305 C271.409342,40.293457 271.435221,39.9052734 271.366211,39.2841797 C271.262695,38.8011068 271.193685,38.5078125 271.15918,38.4042969 C270.745117,37.3691406 270.296549,36.4892578 269.813477,35.7646484 C269.778971,35.7301432 269.684082,35.5921224 269.528809,35.3505859 C269.373535,35.1090495 269.278646,34.9710286 269.244141,34.9365234 C269.209635,34.9020182 269.10612,34.7726237 268.933594,34.5483398 C268.761068,34.324056 268.657552,34.1946615 268.623047,34.1601562 C268.588542,34.125651 268.4764,34.0221354 268.286621,33.8496094 C268.096842,33.6770833 267.976074,33.5994466 267.924316,33.6166992 C267.872559,33.6339518 267.743164,33.5735677 267.536133,33.4355469 C267.329102,33.297526 267.182454,33.2630208 267.096191,33.3320312 C267.009928,33.4010417 266.863281,33.4010417 266.65625,33.3320312 C265.034505,33.4010417 263.257487,33.6598307 261.325195,34.1083984 C260.704102,34.2464193 260.117513,34.6432292 259.56543,35.2988281 C259.392904,35.5058594 259.142741,35.7991536 258.814941,36.1787109 C258.487142,36.5582682 258.254232,36.8515625 258.116211,37.0585938 C256.805013,38.6113281 255.873372,40.1640625 255.321289,41.7167969 Z M289.533203,59.2626953 C290.464844,57.4339193 291.96582,56.4505208 294.036133,56.3125 C294.174154,56.3125 294.329427,56.3125 294.501953,56.3125 C296.365234,56.3125 297.814453,57.1061198 298.849609,58.6933594 C300.022786,60.4876302 301.661784,62.0921224 303.766602,63.5068359 C305.664388,64.7835286 307.59668,65.4046224 309.563477,65.3701172 C311.426758,65.3701172 313.324544,64.8180339 315.256836,63.7138672 L316.033203,63.2480469 C316.757812,62.6959635 317.197754,62.109375 317.353027,61.4882812 C317.508301,60.8671875 317.430664,59.9873047 317.120117,58.8486328 C316.153971,55.6741536 314.118164,53.7591146 311.012695,53.1035156 C309.597982,52.827474 307.286133,51.8268229 304.077148,50.1015625 C302.075846,49.0664062 300.730143,48.2727865 300.040039,47.7207031 C297.383138,45.6158854 296.054688,42.8209635 296.054688,39.3359375 C296.054688,39.2324219 296.054688,39.1461589 296.054688,39.0771484 C296.123698,36.2822266 296.658529,33.7978516 297.65918,31.6240234 C299.073893,28.5185547 300.747396,26.2584635 302.679688,24.84375 C304.370443,23.6015625 306.492513,22.8079427 309.045898,22.4628906 C309.977539,22.3248698 310.926432,22.2558594 311.892578,22.2558594 C314.963542,22.2558594 318,22.9459635 321.001953,24.3261719 C323.348307,25.3958333 325.004557,27.1038411 325.970703,29.4501953 C326.28125,30.1748047 326.367513,30.925293 326.229492,31.7016602 C326.091471,32.4780273 325.780924,33.1077474 325.297852,33.5908203 C324.883789,34.0048828 324.314453,34.2464193 323.589844,34.3154297 C323.003255,34.3499349 322.451172,34.3671875 321.933594,34.3671875 C320.932943,34.3671875 320.087565,34.2809245 319.397461,34.1083984 C318.258789,33.8323568 317.171875,33.7460938 316.136719,33.8496094 C315.515625,33.9186198 314.480469,33.9444987 313.03125,33.9272461 C311.582031,33.9099935 310.564128,33.953125 309.977539,34.0566406 C309.114909,34.1946615 308.433431,34.5914714 307.933105,35.2470703 C307.43278,35.9026693 307.217122,36.6790365 307.286133,37.5761719 C307.320638,37.9902344 307.527669,38.3007812 307.907227,38.5078125 C309.563477,39.4049479 311.357747,40.4228516 313.290039,41.5615234 C314.187174,42.0791016 315.653646,42.4759115 317.689453,42.7519531 C320.484375,43.2005208 322.986003,44.4772135 325.194336,46.5820312 C328.644857,49.8255208 330.766927,53.7936198 331.560547,58.4863281 C331.629557,58.9348958 331.71582,59.8492839 331.819336,61.2294922 C331.784831,67.3714193 329.058919,72.1676432 323.641602,75.6181641 C320.398112,77.6539714 316.964844,78.671875 313.341797,78.671875 C313.272786,78.671875 313.203776,78.671875 313.134766,78.671875 C312.755208,78.671875 312.039225,78.671875 310.986816,78.671875 C309.934408,78.671875 309.132161,78.6632487 308.580078,78.6459961 C308.027995,78.6287435 307.337891,78.5597331 306.509766,78.4389648 C305.681641,78.3181966 304.939779,78.1370443 304.28418,77.8955078 C299.902018,76.3427734 296.589518,74.4622396 294.34668,72.2539062 C292.000326,69.9765625 290.430339,67.90625 289.636719,66.0429688 C289.05013,64.766276 288.756836,63.5413411 288.756836,62.3681641 C288.756836,61.2985026 289.015625,60.2633464 289.533203,59.2626953 Z"/></g></g></svg>