<svg xmlns="http://www.w3.org/2000/svg" width="157" height="150" viewBox="0 0 157 150"><g fill="none" fill-rule="evenodd"><path fill="#FFF" d="M2.60305821,65.561318 C5.34501439,54.9645859 4.45891276,56.7409488 9.77552253,45.1945901 C11.7557933,40.8939327 19.5226404,28.3191427 34.5863681,17.6609655 C52.3084007,1.67369954 98.3856854,-14.3135664 133.829751,22.1018727 C154.210088,49.6354973 165.729409,86.0509363 148.893478,123.354557 C127.627039,145.559093 102.816194,149.111819 76.2331447,150 L69.9851402,149.431202 C69.9307189,149.426247 69.8763044,149.421219 69.8218968,149.416116 L68.6560621,149.306769 L68.6560621,149.306769 C54.1364451,147.927246 40.7922687,145.975078 27.3888528,136.652218 C15.8857519,128.650928 7.56497158,117.52023 1.37105808,105.156887 C1.26416615,104.482705 1.09127718,103.87393 1.0040015,103.181301 C-0.786729228,89.2096497 -0.138897972,76.15805 2.60305821,65.561318 Z"/><path fill="#020000" d="M5.47764023,65.8889312 C32.290488,45.0724082 75.9205966,81.1912816 76.3333333,146.666667 C59.4703196,145.116858 44.4390249,144.345163 29.3295022,133.897595 C18.2598399,126.243211 10.2525879,115.595098 4.29206206,103.767784 C4.18919784,103.122832 4.02282335,102.540451 3.93883623,101.877852 C2.21558052,88.5119594 2.94330891,76.5322309 5.47764023,65.8889312 Z M20.4312063,41.6023206 C33.408724,36.8999961 45.2663789,44.0662043 46.4831668,43.8471569 C76.7967785,59.3467603 90.956204,96.3801638 91.6666667,130.140647 C91.2712508,135.249089 90.2987848,140.303168 90.1026843,145.378033 C88.5499535,145.608273 86.9875785,145.814529 85.4139518,146 C86.1790655,141.069035 85.1487338,135.453746 84.3434356,130.900118 C84.2309189,130.26536 84.0653586,129.657784 83.9383754,129.03102 C78.8670861,89.2411367 43.55291,39.4630108 7.66666667,57.3913224 C9.15397696,53.2390148 10.9405817,49.3265401 12.9834031,45.6538984 C14.7303056,44.3252239 16.4886204,43.3131289 18.237291,42.4976969 C19.022497,42.2962372 19.7567489,41.9956466 20.4312063,41.6023206 Z M20.3333333,34.8055051 C54.2752077,-8.13682318 118.473278,44.8429129 122.258379,113.692856 C122.429732,116.806763 122.277049,120.018477 122.102934,123.246363 L121.998315,125.184383 C121.776556,129.384801 121.620858,133.584958 122.19604,137.605504 C115.425056,140.446976 107.289006,142.645066 95.685944,144.666667 C105.262187,108.504081 82.2718513,28.1775429 20.3333333,34.8055051 Z M14.0876797,109.49694 C18.3891,118.697923 25.9298635,126.214333 34.5749377,131.598552 C43.2792027,136.883302 53.3880524,140.204319 63.5160991,139.85457 C54.0855454,136.328195 45.3236892,132.47774 37.1441436,127.39193 C28.9018877,122.405591 21.4982232,116.32508 14.0876797,109.49694 Z M58.8008909,8 C85.9387881,9.17801946 107.767761,21.5287922 124.247614,42.1577562 C153.244117,79.3735547 145.410962,111.311505 145.258221,121.83194 C141.950996,126.837321 136.579368,130.299256 130.053346,134 C140.412341,69.0550658 85.1831265,6.89570693 41.6666667,15.9993131 C47.1604871,12.6720092 52.934063,10.0082427 58.8008909,8 Z M66.3333333,5.62485225 C81.0892366,1.90273137 104.740031,4.40398373 119.63056,14.9076351 C146.052393,32.8941328 157.713515,78.8222735 151.2531,107.333333 C151.091229,100.521241 155.242178,67.8553676 130.323661,37.3722592 C114.68468,17.7965414 91.824008,5.22111312 66.3333333,5.62485225 Z"/></g></svg>