<?xml version="1.0" ?><!DOCTYPE svg  PUBLIC '-//W3C//DTD SVG 1.1//EN'  'http://www.w3.org/Graphics/SVG/1.1/DTD/svg11.dtd'><svg enable-background="new 0 0 100 100" height="100px" version="1.1" viewBox="0 0 100 100" width="100px" xml:space="preserve" xmlns="http://www.w3.org/2000/svg" xmlns:xlink="http://www.w3.org/1999/xlink"><g id="Layer_1"><path d="M31.495,82.727   c0.078,4.367,1.994,6.596,6.5,6.75l24.125-0.25c4.75,0.25,6.25-2.133,6.25-6l0.125-61.25c0-1.386,0.16-3.705-0.747-5.128   c-0.989-1.552-1.628-2.247-4.378-2.247l-26.75,0.25c-3.784-0.14-5.087,1.891-5.125,5.25V82.727z" fill="none" stroke="#000000" stroke-linecap="round" stroke-linejoin="round" stroke-miterlimit="10"/><path d="M64.92,80.727   c-5.183,0-10.418-0.156-15.558,0.25c-2.84,0.224-5.946,0.341-8.817,0.125c-1.582-0.119-3.812-0.404-5.5-0.375l-1.25,0.125   c0.575-1.667-0.146-4.356-0.125-6.25c0.027-2.389,0.09-4.756,0-7.152c-0.195-5.152-0.02-10.357-0.25-15.464   c-0.126-2.807-0.232-5.865,0-8.636c0.202-2.407,0.159-4.712,0.247-7.095c0.087-2.34,0.541-4.21,0.135-6.65   c-0.351-2.113-0.007-4.702-0.007-6.628l1.125-0.25c2.051-0.006,3.834-0.481,5.903-0.222c2.59,0.324,5.287,0.222,7.94,0.222   c2.735,0,5.413-0.125,8.148-0.125c2.253,0,5.458-0.544,7.384-0.192h2.027c0.374,7.373,0.223,15.902,0.223,23.696   c0,3.065,0.28,6.099,0.125,9.125c-0.106,2.075-0.394,3.812-0.247,5.88c0.092,1.298-0.027,2.64-0.125,3.924   c-0.223,2.927,0.122,5.923,0.122,8.914c0,2.295,0.547,4.731,0.085,6.604L64.92,80.727z" fill="none" stroke="#000000" stroke-linecap="round" stroke-linejoin="round" stroke-miterlimit="10"/><path d="M51.814,84.152   c0.091,0.16,0.164,0.316,0.221,0.471c0.983,2.689-2.785,4.259-3.976,1.551C46.847,83.415,50.249,81.421,51.814,84.152z" fill="none" stroke="#000000" stroke-linecap="round" stroke-linejoin="round" stroke-miterlimit="10"/><path d="M46.667,18.643   c1.87,0.562,4.594,0,6.666,0" fill="none" stroke="#000000" stroke-linecap="round" stroke-linejoin="round" stroke-miterlimit="10"/></g></svg>