<svg xmlns="http://www.w3.org/2000/svg" width="74" height="60" viewBox="0 0 74 60">
  <g fill="none" fill-rule="evenodd" stroke="#000" stroke-linecap="round" stroke-linejoin="round">
    <path d="M69.32,0.977 C71.807,1.01 72.559,1.548 72.445,4.227 C72.346,6.535 72.6,8.659 72.445,10.98 C72.257,13.79 72.534,15.921 72.351,18.322 C72.091,21.728 72.277,23.647 72.199,26.468 C72.121,29.3 72.39,31.161 72.445,34.106 C72.49,36.516 72.641,38.818 72.543,41.206 C72.452,43.384 72.939,45.727 72.564,47.853 C72.202,49.902 71.355,50.18 69.946,50.353 L66.946,50.353 C65.696,50.353 63.955,50.387 63.008,50.353 C60.375,50.258 57.876,50.12 55.227,50.103 C44.735,50.035 34.23,50.103 23.716,50.103 C19.654,50.103 15.614,50.561 11.536,50.234 C9.322,50.057 2.695,50.228 2.695,50.228 C0.650259238,50.04 1.075,47.576 1.07,45.231 C1.065,42.782 0.956,40.522 1.073,38.103 C1.222,35.015 1.229,31.876 1.195,28.765 C1.163,25.792 1.001,22.476 0.827,19.503 C0.701,17.352 0.848,15.351 0.952,13 C1.041,10.957 0.737,9.13 0.918,7.104 C1.043,5.693 0.32,3.353 0.842,2.104 C1.458,0.628 3.405,0.87 4.571,0.854 L6.446,0.854 C13.008,1.104 20.447,1.103 27.008,0.854 C31.453,0.686 35.506,1.042 40.07,0.854 C45.119,0.646 50.155,1.108 55.186,1.104 C58.757,1.101 62.276,0.747 65.82,0.729 L69.32,0.977 Z"/>
    <path d="M1.195 43.602C2.849 44.235 5.765 43.789 7.57 43.79 11.314 43.79 15.055 43.683 18.702 43.602 23.132 43.504 28.307 43.948 32.695 43.866 37.883 43.768 42.238 43.394 47.257 43.394 55.807 43.393 63.888 43.522 72.423 43.869 72.442 44.051 72.509 44.181 72.569 44.352M4.07 40.227C5.158 40.554 6.523 40.306 7.688 40.352 9.785 40.436 13.031 40.126 15.153 40.144 21.011 40.192 25.699 40.727 31.576 40.727 43.408 40.727 55.215 40.477 67.077 40.477 67.741 40.477 68.92 40.665 69.584 40.665 69.584 40.665 69.565 29.176 69.57 24.602 69.575 19.926 69.14 15.213 69.566 10.602 69.679 9.375 69.195 4.352 69.195 4.352 67.133 4.414 63.163 4.102 60.72 4.102 55.02 4.102 49.38 4.606 43.664 4.477 37.151 4.33 30.575 3.956 24.042 4.221 19.546 4.403 15.228 4.101 10.694 3.928 8.768 3.854 6.006 3.829 3.65760701 3.901L3.819 6.477C3.819 6.433 3.819 6.023 3.819 6.209 3.819 7.657 3.875 9.05 3.816 10.446 3.613 15.329 3.557 20.489 3.941 25.355 4.114 27.546 4.018 29.163 4.006 31.54 3.996 33.569 4.068 36.486 4.068 38.228L4.068 40.227 4.07 40.227zM29.82 50.477C29.994 52.272 29.948 54.626 28.438 55.949 27.94 56.385 26.434 56.989 26.195 57.63 25.695 58.968 27.7 58.579 28.57 58.613 34.003 58.825 39.5 58.811 44.952 58.359 45.692 58.297 48.284 58.516 48.448 57.853 48.669 56.96 46.185 56.311 45.726 55.728 44.48 54.148 44.58 52.228 44.32 50.353"/>
  </g>
</svg>
