<svg xmlns="http://www.w3.org/2000/svg" width="24" height="24" viewBox="0 0 12 8">
  <path fill="#1A1919" fill-rule="evenodd" d="M129.535,1006.82 C129.342,1006.71 129.632,1006.5 129.535,1006.26 C129.362,1006.13 129.354,1005.85 129.12,1005.78 C129.017,1005.88 128.726,1005.8 128.774,1006.06 C128.694,1006.04 128.701,1005.95 128.706,1005.85 C128.338,1005.85 128.289,1006.17 128.084,1006.33 C127.938,1006.58 127.801,1006.83 127.669,1007.09 C127.57,1007.38 127.473,1007.68 127.324,1007.92 C127.257,1008.25 127.238,1008.62 126.84,1008.61 C127.098,1008.06 127.29,1007.45 127.6,1006.95 C127.678,1006.31 128.248,1005.81 128.084,1005.16 C127.662,1005.08 127.692,1005.46 127.461,1005.57 C127.528,1005.86 127.255,1005.59 127.461,1005.57 C127.521,1005.24 127.748,1005.07 127.808,1004.74 C128.717,1005.12 129.48,1005.65 130.157,1006.26 C130.109,1006.61 129.712,1006.6 129.535,1006.82 Z M128.084,1007.71 C128.12,1007.61 128.186,1007.54 128.222,1007.44 C128.391,1007.48 128.258,1007.79 128.084,1007.71 Z M126.77,1005.3 C126.837,1004.88 126.993,1004.55 127.116,1004.19 C127.238,1004.25 127.317,1004.36 127.461,1004.4 C127.214,1004.68 127.04,1005.03 126.77,1005.3 C126.777,1005.38 126.671,1005.34 126.77,1005.3 Z M126.564,1003.98 C126.414,1003.99 126.532,1003.74 126.494,1003.64 C126.671,1003.64 126.657,1003.89 126.564,1003.98 Z M124.903,1006.33 C124.901,1005.94 124.627,1006.09 124.421,1006.19 C124.43,1006.02 124.432,1005.86 124.351,1005.78 C124.126,1005.76 124.019,1005.86 124.006,1006.06 C123.796,1005.97 124.108,1005.79 123.936,1005.71 C123.925,1005.63 123.811,1005.65 123.73,1005.64 C123.759,1005.5 123.682,1005.46 123.66,1005.36 C123.494,1005.34 123.511,1005.49 123.315,1005.43 C123.286,1005.27 123.441,1005.28 123.384,1005.09 C124.134,1005.26 124.503,1005.81 125.181,1006.06 C125.173,1006.23 125.08,1006.32 124.903,1006.33 Z M121.725,1007.65 C121.57,1007.61 121.697,1007.3 121.656,1007.16 C121.656,1006.97 121.86,1006.99 121.933,1006.82 C122.113,1006 122.541,1005.44 122.761,1004.67 C122.969,1004.67 122.997,1004.85 123.176,1004.88 C122.712,1005.82 122.243,1006.76 121.725,1007.65 Z M122.9,1007.71 C122.918,1007.63 123.038,1007.64 123.038,1007.71 C122.977,1007.76 122.915,1007.8 122.9,1007.71 Z M121.794,1008.75 C121.64,1008.72 121.766,1008.41 121.725,1008.27 L122.14,1008.27 C122.21,1008.61 121.831,1008.51 121.794,1008.75 Z M121.725,1004.95 C121.889,1004.79 121.888,1004.47 122.071,1004.33 L122.071,1004.12 C122.173,1004.16 122.244,1004.22 122.347,1004.26 C122.083,1004.73 121.801,1005.19 121.587,1005.71 C121.355,1005.45 121.722,1005.2 121.725,1004.95 Z M121.448,1003.64 C121.592,1003.68 121.673,1003.78 121.794,1003.84 C121.748,1004.01 121.565,1004.03 121.518,1004.19 C121.362,1004.14 121.492,1003.8 121.448,1003.64 Z M130.434,1005.5 C130.154,1005.28 129.912,1005.01 129.535,1004.88 C129.264,1004.67 128.91,1004.54 128.567,1004.4 C128.232,1004.23 127.992,1003.96 127.6,1003.84 C127.112,1003.41 126.811,1002.79 125.942,1002.74 C125.752,1002.88 125.817,1003.17 125.803,1003.43 C125.773,1003.96 125.847,1004.53 125.872,1004.88 C125.83,1005.07 125.96,1005.43 125.803,1005.5 C125.358,1005.32 125.013,1005.05 124.628,1004.81 C124.279,1004.54 123.768,1004.43 123.454,1004.12 C122.66,1003.65 122.037,1003.03 121.103,1002.67 C121.083,1002.66 121.054,1002.68 121.035,1002.67 C121.02,1002.59 120.958,1002.63 120.897,1002.67 C120.827,1002.67 120.814,1002.72 120.757,1002.74 C120.878,1003.48 120.694,1004.27 120.757,1005.16 C120.837,1005.93 120.911,1006.71 120.965,1007.51 C120.963,1007.92 121.083,1008.22 121.035,1008.68 C121.212,1008.94 120.983,1009.61 121.241,1009.79 C121.931,1009.9 121.961,1009.35 122.347,1009.17 C122.629,1008.85 122.96,1008.58 123.315,1008.34 C123.637,1008.06 124.067,1007.89 124.351,1007.58 C124.748,1007.37 124.974,1007 125.457,1006.88 C125.478,1006.74 125.645,1006.75 125.664,1006.61 C125.762,1006.52 125.669,1006.24 125.942,1006.33 C125.98,1006.92 126.082,1007.43 126.079,1008.06 C126.17,1008.31 126.091,1008.69 126.148,1008.96 C126.218,1009.27 126.25,1009.47 126.494,1009.58 C127.045,1009.65 127.103,1009.22 127.531,1009.17 C127.755,1008.88 128.163,1008.78 128.36,1008.47 C128.727,1008.33 128.889,1007.99 129.259,1007.85 C129.541,1007.63 129.828,1007.41 130.226,1007.3 C130.362,1007.02 130.678,1006.92 130.918,1006.75 C130.924,1006.43 131.232,1006.42 131.262,1006.12 C131.028,1005.88 130.729,1005.69 130.434,1005.5 L130.434,1005.5 Z" transform="translate(-120 -1002)"/>
</svg>
