<svg xmlns="http://www.w3.org/2000/svg" width="24" height="24" viewBox="0 0 11 7">
  <path fill="#1A1919" fill-rule="evenodd" d="M143.569,980.058 C143.611,979.85 143.501,979.794 143.469,979.66 C143.121,979.973 142.812,979.882 142.378,979.958 C142.209,979.994 142.19,979.881 142.178,979.76 C141.94,979.719 141.963,979.941 141.682,979.859 C141.587,979.656 141.48,979.466 141.384,979.263 C141.241,979.319 141.142,979.418 141.087,979.561 C140.829,979.423 141.16,979.047 141.186,978.866 C141.112,978.798 141.052,978.747 140.987,978.667 C140.92,978.585 140.99,978.414 140.789,978.469 C140.835,978.117 141.009,977.896 140.987,977.476 C140.963,977.351 140.79,977.376 140.789,977.476 C140.639,977.196 140.614,976.791 140.59,976.384 C140.516,976.16 140.034,976.345 139.796,976.284 C140.236,975.765 140.711,975.28 140.987,974.597 C141.252,974.631 141.323,974.858 141.384,975.093 C141.775,975.331 141.987,975.748 142.378,975.988 C142.282,976.189 141.997,976.201 141.682,976.186 C141.54,976.208 141.648,976.482 141.484,976.484 C141.443,977.517 141.59,978.363 141.881,979.065 C142.303,979.667 143.44,979.558 144.462,979.561 C144.493,979.795 144.807,979.745 144.76,980.058 L143.569,980.058 Z M140.789,979.958 C140.737,979.906 140.861,979.831 140.888,979.859 C140.94,979.91 140.816,979.986 140.789,979.958 Z M145.456,979.859 C145.197,979.655 145.132,979.255 144.86,979.065 C144.277,978.978 143.093,979.185 142.378,978.965 C142.028,978.409 141.898,977.144 141.98,976.484 C142.344,976.45 142.859,976.568 143.073,976.384 C143.008,975.777 142.582,975.468 142.178,975.291 C141.905,974.87 141.678,974.403 141.087,974.299 L140.888,974.299 C140.882,974.426 140.761,974.437 140.789,974.597 C140.487,974.891 140.171,975.17 139.995,975.59 C139.812,975.705 139.659,975.849 139.499,975.988 C139.494,976.314 139.074,976.224 139.101,976.582 C139.305,976.842 140.097,976.513 140.293,976.781 C140.261,977.743 140.073,979.114 140.391,980.156 C141.516,981.102 144.288,980.935 146.051,980.654 C146.006,980.235 145.582,980.196 145.456,979.859 Z M148.236,979.76 C148.168,979.41 147.891,979.271 147.541,979.462 L147.541,978.965 C147.334,979.022 147.219,979.249 147.044,979.065 C147.059,978.881 147.38,979.004 147.441,978.866 C147.379,978.241 147.726,978.027 147.739,977.476 C147.714,977.351 147.542,977.376 147.541,977.476 C147.292,977.316 147.716,976.998 147.739,976.781 C147.696,976.634 147.612,976.821 147.441,976.781 C147.498,976.03 147.274,975.558 146.845,975.291 C146.116,975.456 145.273,975.507 144.363,975.49 C144.215,975.109 143.981,974.814 143.669,974.597 C143.65,974.512 143.707,974.503 143.767,974.497 L146.944,974.497 C147.223,974.55 147.461,974.643 147.739,974.696 C148.218,975.508 148.256,976.761 148.236,978.072 C148.278,978.427 148.5,978.602 148.434,979.065 C148.668,979.033 148.807,978.907 149.129,978.965 C148.86,979.259 148.67,979.631 148.236,979.76 Z M149.427,978.469 C149.221,978.409 148.774,978.592 148.732,978.369 L148.732,976.484 C148.639,976.146 148.598,975.755 148.534,975.391 C148.45,975.011 148.269,974.728 148.136,974.399 C147.003,973.844 144.957,974.201 143.37,974.1 C143.27,974.1 143.253,974.181 143.171,974.199 L143.171,974.497 C143.394,974.738 143.553,975.042 143.767,975.291 C143.933,975.589 144.119,975.866 144.363,976.086 C144.703,975.962 145.256,976.053 145.554,975.888 C145.954,975.951 146.611,975.758 146.845,975.988 C147.065,976.627 146.887,977.666 146.944,978.469 C146.712,978.501 146.572,978.626 146.25,978.569 C146.024,978.641 145.475,978.39 145.554,978.767 C145.862,979.155 146.294,979.418 146.747,979.66 C146.903,979.902 147.101,980.1 147.342,980.256 C147.531,980.464 147.612,980.78 148.037,980.752 C148.596,980.616 148.702,980.028 149.129,979.76 C149.407,979.343 149.832,979.073 150.023,978.569 C149.778,978.581 149.545,978.583 149.427,978.469 L149.427,978.469 Z" transform="translate(-139 -974)"/>
</svg>
