<svg xmlns="http://www.w3.org/2000/svg" width="24" height="24" viewBox="0 0 13 15">
  <path fill="#1A1919" fill-rule="evenodd" d="M534.247,477.493584 C533.965,476.624217 534.983,476.280211 535.646,476.680331 C535.595,477.288645 534.985,477.442349 534.247,477.493584 Z M536.346,476.354217 C536.078,476.175301 535.733,475.925633 535.446,475.867078 C535.388,475.855693 535.347,475.785753 535.347,475.785753 C534.458,475.607651 533.421,475.855693 533.048,476.273705 C533.05,476.786867 533.008,477.335813 533.147,477.736747 C534.106,478.555693 536.507,478.084006 536.446,476.842169 C536.448,476.651867 536.273,476.603886 536.346,476.354217 Z M540.044,469.444819 C539.509,470.013283 539.014,470.612651 538.245,470.990813 C537.604,471.471446 536.994,471.978102 536.245,472.37253 C536.066,472.687259 535.704,472.853976 535.546,473.184157 L535.146,473.184157 C534.886,473.433825 534.923,473.924217 534.446,473.99741 C534.417,473.635512 535.185,472.890572 534.347,472.859669 C534.405,472.554699 534.696,472.439217 534.847,472.209066 C535.042,472.043976 535.437,472.039096 535.446,471.721114 C535.274,471.39256 534.563,471.739819 534.446,471.965904 C534.176,471.891084 534.53,471.665813 534.646,471.639789 C534.679,471.449488 534.956,471.459247 535.046,471.314488 C535.349,471.155904 535.644,470.98756 535.946,470.826536 C536.385,470.534578 536.775,470.201145 537.245,469.932771 C537.521,469.506627 537.699,469.001596 537.944,468.552681 L537.944,468.226566 C537.803,467.853283 537.63,467.506837 537.245,467.332801 C537.473,467.011566 537.042,466.957892 536.845,466.763524 C536.573,466.703343 536.644,466.924548 536.446,466.926175 C536.011,466.758645 535.419,466.884699 534.946,466.926175 C534.733,466.963584 534.756,466.80988 534.747,466.683012 C534.257,466.695211 534.153,467.405181 533.747,467.006687 C533.571,467.081506 533.399,467.157952 533.447,467.413313 C533.301,467.48488 533.13,467.536114 533.147,467.739428 C532.813,467.846777 532.668,468.107831 532.448,468.307892 C532.281,468.323343 532.377,467.731295 532.147,468.064729 C531.931,468.077741 532.103,467.775211 532.048,467.658102 C531.95,467.573524 531.851,467.493012 531.748,467.413313 C531.821,467.04003 532.293,466.989608 532.548,466.763524 C532.716,466.493524 533.209,466.488645 533.347,466.19506 C534.173,466.079578 534.694,465.718494 535.546,465.62497 C536.02,465.593253 536.233,465.771355 536.745,465.706295 C538.065,466.285331 539.269,466.959518 539.944,468.064729 C539.907,468.581145 540.122,468.89506 540.044,469.444819 Z M540.843,467.494639 C540.563,467.17991 540.248,466.895271 540.044,466.519548 C538.979,465.868133 538.081,465.081717 536.546,464.813343 L535.146,464.813343 C534.343,465.053253 533.618,465.358223 532.747,465.543645 C532.43,465.774608 532.158,466.039729 531.748,466.19506 C531.562,466.556958 530.925,466.554518 530.648,466.844849 C530.427,467.151446 530.183,467.440151 529.948,467.739428 C529.933,467.859789 529.984,468.039518 529.849,468.064729 C529.95,468.621807 529.831,469.036566 529.948,469.444819 C530.777,469.557861 531.727,469.571687 532.647,469.608283 C532.773,469.33259 532.821,468.991024 532.947,468.714518 C533.442,468.439639 533.727,467.993163 534.347,467.81994 C534.757,467.583283 535.563,467.672741 536.245,467.658102 C536.315,467.872801 536.7,467.829699 536.745,468.064729 C536.932,468.337982 536.866,468.998343 536.745,469.282982 C535.904,470.034428 534.657,470.456506 533.747,471.152651 C533.524,471.459247 533.28,471.749578 533.048,472.046416 C532.938,472.766145 532.687,473.72741 532.947,474.484548 C533.791,474.608976 534.915,474.857831 535.846,474.648825 C536.036,474.450392 535.876,473.967319 536.046,473.754247 C536.315,473.594036 536.524,473.384217 536.646,473.102831 C537.039,472.990602 537.228,472.709217 537.545,472.534367 C537.894,472.357892 538.229,472.169217 538.444,471.884578 C539.171,471.579608 539.63,471.060753 540.243,470.664699 C540.268,470.414217 540.522,470.349157 540.644,470.17756 C540.791,469.999458 540.839,469.74003 541.043,469.608283 C541.076,468.822681 541.04,468.093193 540.843,467.494639 L540.843,467.494639 Z" transform="translate(-529 -464)"/>
</svg>
