<svg xmlns="http://www.w3.org/2000/svg" width="24" height="24" viewBox="0 0 10 9">
  <path fill="#1A1919" fill-rule="evenodd" d="M553.538,242.666 C553.33,242.607 553.215,242.456 553.039,242.366 C553.015,242.09 552.667,242.138 552.539,241.965926 C552.168,241.962 551.959,242.12 551.739,242.266 C551.633,243.272 552.233,243.571 552.539,244.165 C552.834,244.303 552.943,244.627 553.238,244.765 C553.18,245.162 553.938,245.258 553.639,245.564 C551.653,245.693 549.797,245.355 548.141,245.465 C547.865,245.79 547.576,246.402 547.741,246.863 C548.319,247.188 549.07,247.064 549.84,247.064 C551.231,247.064 552.707,247.009 553.838,246.964 C553.492,247.483 552.946,247.804 552.539,248.263 C552.061,248.684 551.293,248.816 551.239,249.662 C551.42,250.115 551.779,250.389 552.44,250.362 C552.962,250.218 553.098,249.688 553.538,249.463 C553.897,249.126 554.219,248.728 554.638,248.563 C555.113,247.706 556.045,247.305 556.337,246.264 C555.873,245.662 555.527,244.942 555.037,244.365 C554.558,243.779 553.967,243.303 553.538,242.666 Z" transform="translate(-547 -242)"/>
</svg>
