<svg xmlns="http://www.w3.org/2000/svg" width="39" height="76" viewBox="0 0 39 76">
  <g fill="none" fill-rule="evenodd" stroke="#000" stroke-linecap="round" stroke-linejoin="round" transform="translate(1)">
    <path d="M0.495,68.727 C0.573,73.094 2.489,75.323 6.995,75.477 L31.12,75.227 C35.87,75.477 37.37,73.094 37.37,69.227 L37.495,7.977 C37.495,6.591 37.655,4.272 36.748,2.849 C35.759,1.297 35.12,0.602 32.37,0.602 L5.62,0.852 C1.836,0.712 0.533,2.743 0.495,6.102 L0.495,68.727 Z"/>
    <path d="M33.92 66.727C28.737 66.727 23.502 66.571 18.362 66.977 15.522 67.201 12.416 67.318 9.545 67.102 7.963 66.983 5.733 66.698 4.045 66.727L2.795 66.852C3.37 65.185 2.649 62.496 2.67 60.602 2.697 58.213 2.76 55.846 2.67 53.45 2.475 48.298 2.65 43.093 2.42 37.986 2.294 35.179 2.188 32.121 2.42 29.35 2.622 26.943 2.579 24.638 2.667 22.255 2.754 19.915 3.208 18.045 2.802 15.605 2.451 13.492 2.795 10.903 2.795 8.977L3.92 8.727C5.971 8.721 7.754 8.246 9.823 8.505 12.413 8.829 15.11 8.727 17.763 8.727 20.498 8.727 23.176 8.602 25.911 8.602 28.164 8.602 31.369 8.058 33.295 8.41L35.322 8.41C35.696 15.783 35.545 24.312 35.545 32.106 35.545 35.171 35.825 38.205 35.67 41.231 35.564 43.306 35.276 45.043 35.423 47.111 35.515 48.409 35.396 49.751 35.298 51.035 35.075 53.962 35.42 56.958 35.42 59.949 35.42 62.244 35.967 64.68 35.505 66.553L33.92 66.727zM20.814 70.152C20.905 70.312 20.978 70.468 21.035 70.623 22.018 73.312 18.25 74.882 17.059 72.174 15.847 69.415 19.249 67.421 20.814 70.152zM15.667 4.643C17.537 5.205 20.261 4.643 22.333 4.643"/>
  </g>
</svg>
