<svg xmlns="http://www.w3.org/2000/svg" version="1.1" xmlns:xlink="http://www.w3.org/1999/xlink" width="200" height="200"><svg xmlns="http://www.w3.org/2000/svg" xmlns:xlink="http://www.w3.org/1999/xlink" width="200" height="200" viewBox="0 0 200 200"><defs><path id="SvgjsPath1016" d="M30,0 L170,0 C186.568542,-3.55271368e-15 200,13.4314575 200,30 L200,170 C200,186.568542 186.568542,200 170,200 L30,200 C13.4314575,200 0,186.568542 0,170 L0,30 C-3.55271368e-15,13.4314575 13.4314575,3.55271368e-15 30,0 Z"></path></defs><g fill="none" fill-rule="evenodd"><use xlink:href="#a" fill="#000"></use><polygon fill="#FFF" points="0 .513 46.867 0 39.158 11.538 23.433 11.538 55.5 56.923 86.95 11.795 70.917 11.795 55.5 33.846 47.483 22.821 62.9 0 111 0 55.192 80" transform="translate(45 60)"></polygon></g></svg><style>@media (prefers-color-scheme: light) { :root { filter: none; } }
@media (prefers-color-scheme: dark) { :root { filter: none; } }
</style></svg>