<?xml version="1.0" standalone="no"?>
<!DOCTYPE svg PUBLIC "-//W3C//DTD SVG 20010904//EN"
 "http://www.w3.org/TR/2001/REC-SVG-20010904/DTD/svg10.dtd">
<svg version="1.0" xmlns="http://www.w3.org/2000/svg"
 width="700.000000pt" height="700.000000pt" viewBox="0 0 700.000000 700.000000"
 preserveAspectRatio="xMidYMid meet">
<metadata>
Created by potrace 1.14, written by Peter Selinger 2001-2017
</metadata>
<g transform="translate(0.000000,700.000000) scale(0.100000,-0.100000)"
fill="#000000" stroke="none">
<path d="M1045 6985 c-185 -29 -370 -102 -522 -207 -99 -68 -233 -202 -301
-301 -76 -110 -148 -268 -185 -404 l-32 -118 -3 -2390 c-2 -1729 0 -2416 8
-2483 33 -270 154 -523 340 -711 106 -108 196 -173 335 -241 132 -65 221 -93
365 -115 143 -22 4757 -22 4900 0 136 21 230 49 347 105 184 87 340 215 461
375 66 87 164 285 192 385 52 188 50 89 50 2620 0 2532 2 2434 -50 2620 -28
99 -106 261 -172 357 -68 99 -202 233 -301 301 -96 66 -258 144 -357 172 -187
52 -86 50 -2630 49 -1847 -1 -2383 -4 -2445 -14z m4300 -1789 c23 -10 37 -24
41 -42 11 -41 -3 -259 -21 -349 -36 -178 -126 -395 -228 -553 -184 -285 -536
-616 -937 -882 -112 -74 -125 -85 -85 -70 128 48 443 233 618 362 37 28 70 48
73 46 6 -7 -64 -376 -76 -398 -15 -28 -71 -73 -248 -198 -312 -223 -574 -388
-851 -537 -193 -104 -254 -129 -281 -115 -11 6 -20 16 -20 22 0 6 31 81 69
167 60 136 91 218 91 243 0 4 -40 -7 -89 -25 -83 -30 -92 -31 -128 -18 -154
54 -319 228 -370 388 l-17 53 36 87 c20 49 32 89 27 91 -5 2 -98 -27 -207 -64
-112 -38 -206 -65 -215 -61 -28 11 -19 49 34 142 171 301 628 922 834 1131 69
71 47 65 414 109 l204 24 147 100 c282 192 524 298 785 345 110 20 355 21 400
2z m-2586 -2081 c86 -164 220 -306 377 -398 l70 -42 -58 -95 c-33 -52 -71
-105 -86 -117 -15 -13 -157 -92 -317 -177 -581 -310 -1089 -576 -1092 -572 -5
5 789 1294 829 1346 16 20 209 138 228 139 3 1 25 -37 49 -84z"/>
<path d="M4990 5045 c-371 -62 -729 -254 -1051 -562 -246 -235 -574 -659 -788
-1018 -47 -78 -56 -87 138 135 283 325 591 635 819 826 309 258 661 474 982
603 l75 30 -50 0 c-27 -1 -84 -7 -125 -14z"/>
</g>
</svg>
