<svg xmlns="http://www.w3.org/2000/svg" width="637" height="655" viewBox="0 0 637 655">
  <g fill="none" fill-rule="evenodd" transform="translate(-.06 .464)">
    <path fill="#D7A9FF" d="M179.707155 430.457C177.845155 430.449 174.383155 430.439 170.896155 429.596 169.119155 429.167 167.693155 428.283 166.126155 427.587 162.814155 426.112 159.374155 424.926 156.248155 423.016 153.510155 421.342 150.839155 419.634 148.681155 417.211 147.619155 416.018 146.475155 414.895 145.321155 413.79 140.925155 409.579 138.426155 404.458 137.289155 398.47 136.686155 395.298 136.432155 392.164 136.391155 388.97 136.377155 387.86 136.358155 386.714 136.083155 385.651 135.214155 382.29 135.618155 379.076 136.520155 375.758 137.839155 370.908 139.730155 366.432 143.180155 362.709 144.010155 359.584 146.563155 358.494 149.194155 357.269 150.760155 356.541 152.294155 355.701 153.874155 354.952 158.323155 352.843 162.945155 353.638 167.525155 353.975 168.742155 354.064 170.057155 354.603 171.065155 355.31 172.327155 356.196 173.592155 356.553 175.080155 356.552 177.449155 356.55 179.287155 357.733 181.063155 359.206 185.593155 362.961 189.676155 367.243 194.710155 370.418 196.707155 371.676 198.377155 373.49 199.766155 375.478 200.312155 376.259 200.872155 377.047 201.529155 377.732 203.197155 379.473 204.655155 381.229 205.012155 383.806 205.200155 385.163 206.032155 386.511 206.835155 387.683 208.621155 390.289 209.186155 393.213 209.420155 396.249 209.542155 397.838 209.431155 399.444 210.026155 400.98 210.191155 401.406 210.303155 401.974 210.160155 402.381 209.068155 405.495 209.732155 408.729 209.408155 411.885 209.131155 414.589 208.614155 417.314 205.544155 418.498 204.399155 418.939 203.666155 419.701 204.242155 421.096 204.591155 421.939 204.201155 422.736 203.690155 423.316 201.682155 425.592 199.573155 427.778 196.423155 428.432 195.489155 428.627 194.428155 428.482 193.600155 428.868 189.666155 430.697 185.494155 430.409 179.707155 430.457M507.076155 385.559C507.076155 386.517 506.948155 387.497 507.100155 388.43 507.622155 391.633 506.430155 394.423 504.844155 396.982 502.658155 400.514 500.085155 403.609 495.785155 404.993 492.313155 406.111 488.985155 407.687 485.385155 408.458 484.768155 408.59 484.162155 408.819 483.581155 409.074 476.846155 412.029 469.738155 412.377 462.536155 412.145 461.383155 412.108 460.355155 411.782 459.327155 411.316 452.729155 408.331 448.511155 403.396 446.189155 396.48 444.605155 391.762 443.448155 386.977 442.954155 382.101 442.476155 377.373 442.231155 372.549 443.297155 367.809 443.366155 367.499 443.531155 367.184 443.508155 366.882 443.174155 362.384 445.250155 358.454 446.821155 354.53 448.523155 350.279 451.113155 346.388 454.030155 342.774 457.137155 338.925 461.447155 337.436 466.032155 336.445 475.887155 334.313 484.156155 337.411 491.301155 344.163 492.113155 344.93 492.885155 345.74 493.673155 346.533 499.424155 352.318 499.424155 352.318 502.478155 359.906 503.093155 364.973 505.515155 369.552 506.285155 374.634 506.840155 378.295 507.070155 381.899 507.076155 385.559"/>
    <path fill="#1A1919" d="M629.926155 654.586C629.751155 653.006 629.488155 651.426 629.417155 649.846 629.204155 645.056 629.111155 640.266 628.871155 635.476 628.800155 634.056 628.500155 632.626 628.131155 631.246 626.993155 626.99 627.094155 622.713 627.569155 618.387 627.847155 615.851 628.004155 613.29 628.013155 610.738 628.052155 600.195 628.013155 589.652 628.003155 579.109 627.995155 571.595 627.964155 564.083 627.983155 556.57 628.008155 546.98 628.110155 537.391 628.111155 527.802 628.111155 515.015 628.092155 502.228 627.991155 489.442 627.934155 482.253 627.811155 475.06 627.514155 467.878 627.071155 457.187 626.517155 446.501 625.883155 435.821 625.211155 424.501 624.427155 413.187 623.609155 401.877 623.380155 398.701 622.731155 395.554 622.496155 392.379 622.012155 385.847 621.709155 379.302 621.271155 372.767 621.036155 369.257 620.815155 365.723 618.604155 362.717 618.332155 362.348 618.242155 361.835 618.112155 361.375 616.148155 354.461 614.159155 347.552 612.258155 340.62 611.882155 339.247 611.878155 337.775 611.649155 336.357 611.319155 334.314 611.394155 332.045 610.490155 330.287 608.224155 325.88 608.049155 321.019 607.122155 316.374 605.500155 308.239 604.509155 299.987 603.754155 291.696 603.017155 283.599 601.541155 275.562 600.173155 267.536 599.557155 263.927 598.510155 260.38 597.493155 256.852 595.855155 251.173 593.857155 245.59 592.426155 239.862 590.918155 233.831 589.887155 227.679 588.667155 221.577 588.385155 220.169 588.253155 218.726 587.924155 217.33 585.874155 208.621 583.850155 199.905 581.691155 191.222 580.113155 184.877 578.566155 178.507 576.576155 172.284 575.122155 167.739 573.099155 163.358 571.097155 159.011 568.424155 153.207 565.281155 147.609 562.799155 141.728 560.695155 136.74 559.191155 131.492 557.522155 126.326 556.546155 123.304 554.999155 120.424 554.999155 117.16 557.261155 114.029 559.457155 110.905 561.745155 107.851 563.058155 106.098 563.642155 104.251 563.424155 102.039 563.033155 98.079 563.595155 94.062 562.512155 90.121 562.147155 88.794 562.571155 87.263 562.537155 85.828 562.439155 81.565 558.920155 76.56 554.966155 75.038 553.926155 74.637 552.823155 74.398 551.791155 73.981 548.402155 72.613 545.142155 73.133 542.126155 74.89 539.097155 76.655 536.231155 78.629 533.931155 81.426 530.694155 85.364 525.721155 86.579 520.924155 84.74 518.105155 83.66 515.328155 82.485 512.839155 80.615 510.297155 78.705 507.397155 77.4 504.293155 76.406 500.202155 75.096 496.208155 73.399 492.324155 71.548 487.689155 69.339 482.913155 67.568 478.023155 66.064 468.094155 63.011 458.144155 60.025 448.233155 56.914 440.433155 54.466 432.421155 53.071 424.379155 51.767 421.386155 51.281 418.411155 50.668 415.442155 50.048 410.443155 49.003 405.455155 47.898 400.460155 46.833 392.774155 45.194 384.939155 44.707 377.137155 44.191 369.012155 43.654 360.849155 43.532 352.702155 43.516 343.597155 43.499 334.492155 43.881 325.386155 43.949 315.796155 44.022 306.204155 43.896 296.614155 43.929 293.258155 43.94 289.895155 44.059 286.550155 44.312 275.074155 45.18 263.602155 46.086 252.135155 47.061 240.667155 48.036 229.279155 49.651 217.969155 51.77 209.340155 53.387 200.777155 55.326 192.234155 57.36 179.950155 60.283 167.526155 62.465 155.040155 64.358 145.249155 65.842 135.405155 67.184 125.897155 70.094 121.169155 71.541 116.449155 73.032 112.082155 75.498 109.168155 77.144 105.967155 78.275 103.006155 79.846 101.064155 80.876 99.355155 80.688 97.565155 79.698 95.750155 78.695 93.975155 77.608 92.104155 76.723 88.607155 75.07 84.898155 75.706 81.262155 76.051 80.630155 76.111 79.876155 76.916 79.523155 77.564 77.525155 81.23 75.012155 84.527 72.501155 87.84 71.120155 89.663 70.467155 91.819 70.496155 94.134 70.531155 96.839 70.118155 99.56 71.003155 102.232 71.410155 103.458 71.635155 104.752 72.816155 105.49 74.136155 106.317 74.302155 107.649 74.037155 108.872 73.500155 111.357 72.974155 113.911 71.942155 116.212 66.963155 127.317 62.973155 138.751 59.793155 150.495 58.542155 155.113 56.958155 159.652 55.308155 164.148 52.550155 171.665 50.314155 179.288 48.826155 187.18 46.814155 197.852 44.488155 208.47 42.052155 219.056 39.761155 229.016 37.069155 238.884 34.716155 248.83 33.283155 254.884 32.139155 261.006 30.902155 267.105 29.378155 274.619 27.761155 282.117 26.426155 289.665 25.203155 296.582 24.269155 303.551 23.269155 310.506 22.521155 315.712 22.377155 321.062 21.064155 326.115 18.872155 334.556 18.677155 343.182 17.824155 351.74 16.969155 360.325 16.644155 368.964 16.086155 377.578 15.693155 383.638 15.203155 389.695 14.929155 395.761 14.641155 402.147 14.486155 408.542 14.404155 414.934 14.275155 425.173 13.720155 435.374 12.603155 445.558 11.820155 452.705 11.396155 459.892 10.870155 467.066 10.263155 475.357 9.76315497 483.656 9.13815497 491.945 8.17715497 504.693 8.15915497 517.472 7.86615497 530.24 7.60915497 541.424 7.75615497 552.616 7.68315497 563.804 7.66715497 566.2 7.39515497 568.593 7.38015497 570.988 7.35815497 574.659 7.47315497 578.332 7.50015497 582.004 7.55715497 589.677 7.47015497 597.355 7.67515497 605.025 7.90115497 613.493 8.34915497 621.955 8.77215497 630.416 9.08315497 636.636 9.49215497 642.856 9.90215497 649.066 9.97615497 650.176 10.406155 651.266 10.422155 652.366 10.432155 653.106 10.000155 653.846 9.76615497 654.586 7.20615497 654.586 4.64615497 654.586 2.08615497 654.586 1.94815497 653.976 1.59115497 653.306 1.70615497 652.746 2.99915497 646.356 1.96315497 639.996 1.57615497 633.636.908154972 622.631-.218845028 611.658.0371549718 600.6.245154972 591.651-.203845028 582.683.127154972 573.743.482154972 564.146-.0738450282 554.569.111154972 544.984.244154972 538.113.409154972 531.243.584154972 524.373.711154972 519.42.803154972 514.464 1.04515497 509.515 1.31715497 503.945 1.26415497 498.363 1.94915497 492.803 2.43615497 488.848 2.49315497 484.841 2.75915497 480.858 3.22515497 473.85 3.67415497 466.842 4.18915497 459.837 4.51715497 455.374 4.96315497 450.921 5.33415497 446.461 5.87615497 439.933 6.56315497 433.413 6.88915497 426.874 7.39015497 416.826 7.56215497 406.761 8.01315497 396.71 8.52215497 385.369 9.06115497 374.027 9.82115497 362.701 10.389155 354.25 11.139155 345.801 12.157155 337.393 13.154155 329.149 14.583155 320.957 15.841155 312.745 17.002155 305.164 18.138155 297.579 19.382155 290.011 20.029155 286.075 20.848155 282.166 21.654155 278.258 25.173155 261.193 28.712155 244.133 32.856155 227.206 34.033155 222.397 35.329155 217.619 36.557155 212.823 36.875155 211.585 37.215155 210.345 37.421155 209.087 39.488155 196.46 42.476155 184.031 45.654155 171.653 46.763155 167.333 48.582155 163.199 49.919155 158.93 51.970155 152.379 53.925155 145.797 55.849155 139.207 58.273155 130.904 61.635155 122.967 65.067155 115.052 65.827155 113.3 66.505155 111.511 67.214155 109.759 66.963155 109.043 66.844155 108.396 66.532155 107.861 62.766155 101.39 63.529155 94.688 65.482155 87.925 65.658155 87.316 65.885155 86.691 66.228155 86.163 69.009155 81.873 71.876155 77.637 74.609155 73.317 76.236155 70.745 78.570155 69.703 81.466155 69.685 83.383155 69.674 85.311155 69.678 87.218155 69.856 90.442155 70.156 93.489155 71.014 96.086155 73.105 96.947155 73.799 97.915155 74.358 98.965155 75.067 101.917155 74.234 104.543155 72.655 107.119155 71.15 112.701155 67.888 118.650155 65.636 124.886155 64.154 131.880155 62.492 138.898155 60.891 145.965155 59.583 153.817155 58.13 161.753155 57.138 169.618155 55.753 175.436155 54.728 181.203155 53.406 186.988155 52.194 199.653155 49.538 212.244155 46.448 224.995155 44.306 242.969155 41.287 261.106155 39.414 279.333155 38.571 284.283155 38.342 289.226155 37.903 294.178155 37.749 302.328155 37.495 310.484155 37.407 318.636155 37.224 321.514155 37.159 324.388155 36.956 327.265155 36.926 332.214155 36.876 337.164155 36.941 342.112155 36.903 345.941155 36.874 349.770155 36.769 353.598155 36.685 369.776155 36.33 385.892155 36.94 401.854155 39.836 407.512155 40.863 413.150155 41.996 418.794155 43.099 425.853155 44.479 432.902155 45.912 439.968155 47.26 447.524155 48.701 454.841155 51.003 462.148155 53.333 469.152155 55.567 476.100155 57.977 483.113155 60.182 488.001155 61.72 492.798155 63.448 497.452155 65.606 500.346155 66.948 503.333155 68.103 506.325155 69.217 510.235155 70.672 513.991155 72.381 517.494155 74.683 520.154155 76.432 522.934155 78.055 526.257155 77.878 526.745155 77.477 527.188155 77.236 527.462155 76.869 531.832155 71.008 537.770155 67.426 544.565155 65.106 547.514155 64.099 550.505155 63.917 553.501155 64.977 554.104155 65.19 554.711155 65.444 555.337155 65.527 562.398155 66.462 566.325155 71.52 570.053155 76.774 571.573155 78.917 572.073155 81.438 572.009155 84.071 571.947155 86.632 572.022155 89.167 572.853155 91.655 573.195155 92.68 573.145155 93.858 573.160155 94.967 573.197155 97.686 573.054155 100.411 573.194155 103.123 573.367155 106.477 572.432155 109.434 570.513155 112.128 568.477155 114.985 566.429155 117.833 564.345155 120.742 565.520155 126.55 568.505155 135.634 571.121155 140.989 573.223155 145.292 575.666155 149.443 577.531155 153.843 580.017155 159.713 583.058155 165.363 584.511155 171.667 585.369155 175.389 586.833155 178.968 587.856155 182.658 588.922155 186.501 589.866155 190.383 590.724155 194.278 593.538155 207.074 596.181155 219.908 599.108155 232.677 600.678155 239.524 602.488155 246.333 604.561155 253.045 607.210155 261.622 609.115155 270.357 610.538155 279.188 611.477155 285.015 611.949155 290.926 612.455155 296.814 613.579155 309.9 615.700155 322.811 619.072155 335.504 621.164155 343.38 623.509155 351.189 625.534155 359.082 626.723155 363.717 627.798155 368.417 628.416155 373.154 629.678155 382.818 630.704155 392.517 631.618155 402.221 632.202155 408.42 632.390155 414.653 632.795155 420.868 633.283155 428.364 633.937155 435.852 634.299155 443.354 634.839155 454.52 635.661155 465.674 635.643155 476.866 635.624155 488.379 635.805155 499.89 635.855155 511.402 635.887155 518.749 635.852155 526.095 635.825155 533.441 635.784155 544.788 635.428155 556.142 635.746155 567.477 636.159155 582.177 635.784155 596.871 635.995155 611.565 636.052155 615.557 636.284155 619.546 636.394155 623.537 636.473155 626.409 636.675155 629.286 635.936155 632.126 635.702155 633.026 635.672155 634.076 635.865155 634.986 637.244155 641.476 636.656155 648.046 636.646155 654.586 634.406155 654.586 632.166155 654.586 629.926155 654.586M91.870155 1.3C91.846155 1.01 91.820155.721 91.800155.431 91.791155.288 91.795155.144 91.792155 0 91.926155.179 92.178155.365 92.167155.535 92.150155.809 91.959155 1.071 91.823155 1.357 91.805155 1.376 91.870155 1.3 91.870155 1.3"/>
    <path fill="#1A1919" d="M406.119155 411.176C406.142155 411.176 406.165155 411.176 406.188155 411.176 406.188155 410.217 406.146155 409.255 406.195155 408.299 406.648155 399.441 405.540155 390.743 403.346155 382.189 401.998155 376.934 400.464155 371.72 398.830155 366.547 394.303155 352.212 389.174155 338.116 381.808155 324.939 381.418155 324.242 381.052155 323.53 380.715155 322.806 379.504155 320.21 378.312155 317.604 377.110155 315.004 375.772155 312.109 374.436155 309.214 373.089155 306.324 372.214155 304.445 371.478155 302.478 370.405155 300.718 367.495155 295.948 364.407155 291.287 361.450155 286.546 358.985155 282.593 356.410155 278.775 352.514155 276.02 351.222155 275.106 350.176155 273.846 349.009155 272.754 343.511155 267.603 337.566155 263.021 331.172155 259.052 329.716155 258.147 327.977155 257.637 326.308155 257.154 324.782155 256.713 323.172155 256.569 321.604155 256.264 315.262155 255.033 308.890155 255.093 302.512155 255.874 301.592155 255.987 300.676155 256.391 299.830155 256.809 298.399155 257.516 297.094155 258.523 295.615155 259.082 291.775155 260.531 289.952155 264.084 287.285155 266.753 284.748155 272.258 281.846155 277.584 280.291155 283.531 278.838155 289.086 277.069155 294.569 275.183155 299.995 273.402155 305.12 271.234155 310.11 269.334155 315.195 267.322155 320.577 265.428155 326.004 263.477155 331.408 262.230155 334.865 260.924155 338.301 259.728155 341.775 256.716155 350.533 253.714155 359.296 250.788155 368.084 249.831155 370.955 249.009155 373.883 248.324155 376.831 247.313155 381.186 246.459155 385.58 245.583155 389.966 245.240155 391.688 244.847155 393.427 244.767155 395.171 244.399155 403.151 244.018155 411.135 243.870155 419.12 243.762155 424.876 244.073155 430.626 246.204155 436.106 246.548155 436.99 246.635155 437.969 246.887155 438.892 248.780155 445.844 251.012155 452.685 254.487155 459.024 258.016155 465.466 261.692155 471.829 265.395155 478.172 271.456155 488.554 279.649155 496.56 291.095155 500.862 291.543155 501.031 292.010155 501.195 292.401155 501.46 295.376155 503.468 298.706155 504.302 302.197155 505.059 311.593155 507.096 321.070155 508.242 330.648155 508.89 336.230155 509.269 341.411155 508.262 346.454155 505.943 350.807155 503.942 355.154155 501.85 359.680155 500.324 366.095155 498.16 371.315155 494.341 375.930155 489.613 381.736155 483.667 387.164155 477.389 392.104155 470.679 396.819155 464.275 399.968155 457.115 402.231155 449.618 404.681155 441.5 405.434155 433.022 406.061155 424.592 406.391155 420.142 406.119155 415.649 406.119155 411.176zM413.737155 411.805C413.737155 413.846 413.664155 415.768 413.749155 417.683 414.118155 426.043 412.787155 434.218 411.432155 442.427 410.250155 449.584 408.156155 456.457 405.309155 463.037 403.048155 468.264 400.675155 473.569 396.582155 477.793 395.928155 478.467 395.546155 479.398 395.010155 480.192 390.256155 487.244 384.710155 493.619 378.474155 499.392 372.607155 504.825 365.492155 508.021 358.076155 510.68 355.827155 511.486 353.652155 512.495 351.414155 513.333 347.830155 514.674 344.262155 516.081 340.612155 517.213 337.209155 518.268 333.620155 518.115 330.144155 517.758 321.577155 516.877 312.997155 516.078 304.503155 514.55 298.778155 513.519 293.393155 511.643 288.295155 508.88 287.031155 508.195 285.805155 507.416 284.486155 506.864 272.592155 501.885 264.177155 493.089 258.131155 482.049 253.302155 473.23 249.058155 464.083 244.772155 454.979 243.217155 451.677 242.201155 448.106 241.106155 444.605 240.104155 441.407 239.167155 438.172 238.498155 434.891 237.862155 431.776 237.279155 428.585 237.257155 425.422 237.203155 418.088 236.729155 410.758 237.362155 403.409 237.966155 396.387 238.952155 389.455 240.584155 382.607 241.139155 380.276 241.683155 377.943 242.259155 375.617 243.217155 371.746 243.969155 367.821 245.800155 364.206 246.516155 362.791 247.010155 361.237 247.414155 359.696 249.808155 350.561 253.260155 341.785 256.450155 332.921 257.260155 330.669 258.351155 328.516 259.150155 326.261 261.230155 320.393 263.173155 314.475 265.263155 308.611 266.656155 304.703 268.279155 300.876 269.671155 296.968 271.383155 292.158 272.881155 287.271 274.629155 282.475 275.774155 279.337 277.010155 276.201 278.545155 273.241 280.528155 269.42 282.890155 265.804 284.385155 261.726 285.657155 258.258 288.024155 255.801 291.485155 254.351 293.835155 253.367 296.149155 252.285 298.009155 250.415 298.525155 249.895 299.400155 249.661 300.154155 249.461 306.694155 247.728 313.307155 246.811 320.082155 247.74 322.298155 248.045 324.547155 248.147 326.741155 248.553 330.221155 249.198 333.597155 250.305 336.474155 252.402 340.084155 255.033 343.576155 257.833 347.027155 260.673 349.985155 263.106 352.685155 265.865 355.724155 268.185 361.826155 272.843 366.120155 278.937 370.075155 285.361 372.167155 288.757 374.362155 292.09 376.529155 295.439 378.533155 298.536 380.166155 301.789 381.337155 305.311 382.087155 307.569 383.225155 309.707 384.290155 311.848 387.134155 317.566 390.237155 323.165 392.850155 328.985 395.595155 335.097 397.823155 341.44 400.398155 347.632 404.461155 357.4 406.825155 367.699 409.800155 377.797 413.069155 388.898 414.480155 400.314 413.737155 411.805L413.737155 411.805zM148.081155 236.103C147.153155 230.892 150.656155 227.353 152.868155 223.41 153.349155 222.552 154.548155 221.971 155.539155 221.552 158.214155 220.419 161.103155 220.097 163.955155 220.153 167.751155 220.226 170.412155 222.593 172.776155 225.284 173.065155 225.613 173.197155 226.143 173.259155 226.6 173.751155 230.227 174.219155 233.859 174.666155 237.492 174.723155 237.959 174.712155 238.472 174.579155 238.918 173.544155 242.383 171.352155 245.144 168.856155 247.609 166.939155 249.502 164.186155 249.447 161.694155 249.907 156.552155 248.507 151.432155 246.927 148.913155 241.655 148.142155 240.04 148.331155 237.967 148.081155 236.103M475.445155 213.252C478.782155 213.252 482.116155 213.162 485.439155 213.316 486.243155 213.353 487.298155 214.006 487.747155 214.694 490.213155 218.474 492.035155 222.511 491.825155 227.188 491.768155 228.459 491.554155 229.76 491.741155 230.999 492.179155 233.893 490.916155 235.889 488.766155 237.575 487.647155 238.452 486.570155 239.392 485.547155 240.38 483.853155 242.013 481.901155 242.889 479.521155 242.783 477.321155 242.684 474.843155 243.443 473.078155 241.767 471.024155 239.815 469.121155 237.618 467.567155 235.255 466.412155 233.5 466.689155 231.231 467.103155 229.186 467.835155 225.57 469.061155 222.12 471.191155 219.063 472.547155 217.117 473.991155 215.231 475.445155 213.252M558.957155 98.797C558.823155 99.104 558.621155 99.887 558.187155 100.508 556.203155 103.343 553.292155 104.513 549.971155 104.725 549.249155 104.771 548.355155 104.438 547.773155 103.983 543.962155 100.998 540.682155 97.599 539.212155 92.786 538.443155 90.269 538.856155 88.46 540.965155 86.899 542.118155 86.046 543.323155 85.229 544.597155 84.58 547.860155 82.916 551.281155 83.538 553.797155 86.132 556.180155 88.589 558.818155 94.836 558.957155 98.797M94.318155 92.582C94.286155 94.26 93.834155 95.919 92.296155 97.073 91.028155 98.025 89.748155 98.971 88.411155 99.821 87.467155 100.42 86.451155 100.834 85.254155 100.303 84.705155 100.06 83.874155 99.832 83.432155 100.074 80.890155 101.467 79.558155 99.657 78.172155 98.163 77.313155 97.237 76.459155 96.188 76.007155 95.036 75.565155 93.912 75.197155 92.431 75.567155 91.378 76.744155 88.025 78.548155 85.043 82.028155 83.473 83.709155 82.716 85.326155 82.534 87.116155 83.126 90.574155 84.269 94.306155 88.997 94.318155 92.582M212.418155 351.323C212.294155 351.749 212.189155 352.556 211.836155 353.235 210.854155 355.128 208.701155 355.584 206.997155 354.296 204.782155 352.622 204.104155 350.212 204.100152 347.61 204.098155 346.189 205.146155 345.339 206.448155 344.958 207.863155 344.544 209.333155 344.416 210.349155 345.767 211.498155 347.296 212.344155 348.989 212.418155 351.323M504.151155 356.076C503.978155 356.436 503.811155 357.07 503.431155 357.529 502.112155 359.122 499.589155 359.526 497.863155 358.44 497.340155 358.111 496.874155 357.657 496.461155 357.189 494.079155 354.487 494.390155 352.025 497.454155 350.137 498.014155 349.793 499.073155 349.7 499.626155 349.999 501.782155 351.167 502.802155 353.37 504.029155 355.359 504.104155 355.482 504.084155 355.664 504.151155 356.076M166.356155 362.332C166.241155 365.445 163.359155 367.445 160.655155 366.318 157.013155 364.802 156.630155 362.583 158.937155 359.15 159.483155 358.338 160.588155 357.975 161.497155 358.441 163.024155 359.223 164.462155 360.195 165.871155 361.181 166.189155 361.405 166.233155 362.018 166.356155 362.332M155.990155 343.636C155.638155 343.402 154.935155 343.177 154.679155 342.709 154.164155 341.767 153.769155 340.717 153.555155 339.665 153.355155 338.677 153.844155 337.788 154.740155 337.285 155.561155 336.824 156.427155 336.4 157.324155 336.128 159.641155 335.423 161.821155 337.019 161.874155 339.477 161.886155 340.058 161.656155 340.804 161.262155 341.205 159.900155 342.592 158.190155 343.374 155.990155 343.636M185.145155 341.913C184.861155 342.417 184.599155 343.417 183.951155 343.908 182.752155 344.816 181.264155 344.871 179.878155 344.202 178.325155 343.452 177.125155 341.003 177.677155 339.334 177.943155 338.53 178.727155 337.77 179.470155 337.293 180.089155 336.895 180.984155 336.875 181.767155 336.8 183.394155 336.643 184.204155 337.184 184.575155 338.682 184.804155 339.605 184.912155 340.558 185.145155 341.913M204.982155 375.684C207.107155 375.612 209.285155 377.538 209.889155 379.525 210.329155 380.971 209.410155 382.462 207.693155 383.253 206.352155 383.871 205.185155 383.49 204.151155 382.676 202.866155 381.663 202.121155 378.891 202.938155 377.445 203.420155 376.592 204.503155 376.078 204.982155 375.684M436.843155 357.093C437.113155 357.202 437.617155 357.287 437.955155 357.57 438.671155 358.172 439.362155 358.825 439.950155 359.55 441.166155 361.048 441.180155 362.074 440.133155 363.331 438.894155 364.817 437.459155 365.375 436.001155 364.54 434.968155 363.948 433.965155 363.027 433.367155 362.008 432.156155 359.944 434.219155 356.993 436.843155 357.093M461.659155 396.002C462.757155 396.587 463.770155 397.014 464.661155 397.623 466.749155 399.05 466.879155 401.538 464.941155 403.204 464.508155 403.576 463.784155 403.826 463.217155 403.789 460.446155 403.609 458.661155 400.257 460.050155 397.867 460.425155 397.221 461.036155 396.712 461.659155 396.002M172.277155 382.745C172.995155 383.107 174.208155 383.491 175.130155 384.236 176.450155 385.304 176.090155 387.415 174.580155 388.198 172.958155 389.04 171.249155 389.027 169.543155 388.497 168.483155 388.168 167.840155 386.866 167.922155 385.391 167.989155 384.19 168.694155 383.326 169.885155 383.07 170.496155 382.938 171.126155 382.897 172.277155 382.745M482.525155 386.769C480.354155 386.577 479.171155 385.586 478.372155 384.095 477.712155 382.862 477.994155 381.379 478.963155 380.618 480.242155 379.614 481.838155 379.554 482.888155 380.597 483.561155 381.265 484.147155 382.048 484.648155 382.855 485.182155 383.718 485.337155 384.767 484.570155 385.519 483.938155 386.139 483.027155 386.474 482.525155 386.769M450.953155 377.062C452.321155 376.973 454.406155 379.118 454.622155 380.835 454.796155 382.211 453.104155 383.905 451.584155 383.88 450.044155 383.853 448.165155 381.9 447.903155 380.052 447.702155 378.642 449.198155 377.177 450.953155 377.062M420.887155 351.555C422.642155 351.426 424.360155 352.884 424.499155 354.62 424.638155 356.352 423.490155 357.721 421.762155 357.884 420.088155 358.041 418.180155 356.482 418.081155 354.876 417.985155 353.311 419.375155 351.667 420.887155 351.555M478.700155 329.595991C480.197155 329.591 481.884155 331.593 481.768155 333.238 481.652155 334.897 480.600155 335.972 479.080155 335.984 477.067155 336 475.520155 334.747 475.413155 333.013 475.310155 331.342 476.982155 329.603 478.700155 329.595991M430.868155 385.035C431.086155 384.462 431.270155 383.674 431.662155 383.009 432.662155 381.313 434.913155 381.416 435.816155 383.166 436.105155 383.724 436.374155 384.304 436.560155 384.903 437.033155 386.422 436.745155 387.534 435.664155 388.29 434.730155 388.942 433.731155 389.335 432.567155 388.794 431.409155 388.256 430.819155 387.228 430.867155 385.697 430.872155 385.539 430.868155 385.382 430.868155 385.035M149.705155 396.063C149.464155 397.724 148.441155 398.838 147.223155 399.054 145.953155 399.281 144.144155 398.457 143.489155 397.354 142.809155 396.211 143.087155 394.351 144.117155 393.368 144.337155 393.158 144.648155 392.921 144.925155 392.911 146.594155 392.849 148.107155 393.35 149.227155 394.601 149.603155 395.022 149.616155 395.767 149.705155 396.063M424.452155 335.804C422.121155 335.745 419.602155 333.537 419.634155 331.636 419.647155 330.822 420.238155 329.886 420.826155 329.245 421.541155 328.465 422.553155 328.675 423.418155 329.191 425.346155 330.343 426.234155 332.264 425.636155 334.361 425.458155 334.983 424.752155 335.456 424.452155 335.804M194.388155 403.502C196.211155 403.639 197.995155 405.447 197.718155 406.876 197.414155 408.44 195.788155 409.697 194.266155 409.544 192.594155 409.376 191.331155 407.832 191.568155 406.247 191.798155 404.71 193.136155 403.407 194.388155 403.502M191.781155 363.113C191.709155 364.562 190.383155 365.894 189.039155 365.867 187.179155 365.829 185.616155 364.01 185.713155 361.997 185.780155 360.609 187.244155 359.351 188.651155 359.473 190.237155 359.611 191.862155 361.501 191.781155 363.113M452.713155 322.711C454.370155 322.802 456.023155 324.686 455.870155 326.312 455.755155 327.535 454.484155 328.805 453.362155 328.82 451.390155 328.844 449.726155 327.168 449.723154 325.154 449.722155 323.795 451.153155 322.625 452.713155 322.711M462.580155 359.912C460.948155 359.894 459.790155 358.494 459.894155 356.661 459.992155 354.922 461.346155 353.67 463.015155 353.778 464.749155 353.89 466.268155 355.987 466.035155 357.949 465.913155 358.981 464.243155 359.929 462.580155 359.912M164.867155 421.579C162.852155 421.468 161.808155 420.607 161.165155 419.231 160.717155 418.272 161.021155 417.382 161.633155 416.604 162.261155 415.805 163.109155 415.329 164.102155 415.77 164.944155 416.145 165.760155 416.659 166.456155 417.262 167.298155 417.992 167.474155 419.337 166.739155 420.259 166.214155 420.917 165.316155 421.276 164.867155 421.579M225.437155 363.707C225.546155 365.141 224.298155 366.445 222.813155 366.448015 221.101155 366.453 219.551155 365.218 219.433155 363.759 219.332155 362.501 220.598155 361.267 222.208155 361.055 223.915155 360.831 225.306155 361.973 225.437155 363.707M135.737155 362.281C134.676155 362.371 133.519155 361.673 133.049155 360.656 132.601155 359.689 133.015155 358.552 134.097155 357.782 134.227155 357.69 134.355155 357.594 134.493155 357.516 135.521155 356.936 136.615155 356.686 137.642155 357.382 138.520155 357.974 138.697155 358.953 138.448155 359.942 138.125155 361.225 136.970155 362.176 135.737155 362.281M444.740155 333.848C446.408155 333.894 447.802155 335.346 447.678155 336.913 447.580155 338.168 446.311155 339.353 445.146155 339.279 443.707155 339.185 442.537155 337.904 442.537155 336.42 442.538155 334.939 443.502155 333.813 444.740155 333.848M472.421155 310.078981C473.901155 310.073 475.459155 311.527 475.539155 312.99 475.603155 314.15 474.331155 315.405 473.139155 315.359 471.579155 315.298 470.292155 313.844 470.358155 312.218 470.402155 311.108 471.391155 310.084 472.421155 310.078981"/>
    <path fill="#1A1919" d="M289.339155,462.86 C291.853155,462.715 294.360155,462.554 296.868155,462.428 C298.735155,462.335 300.217155,461.536 301.456155,460.158 C304.342155,456.952 307.335155,453.839 310.116155,450.546 C310.996155,449.505 311.503155,448.061 311.908155,446.719 C313.722155,440.704 314.380155,434.57 314.125155,428.262 C313.860155,421.716 314.063155,415.151 314.037155,408.594 C314.031155,407.317 313.947155,406.037 313.836155,404.763 C313.728155,403.506 313.012155,402.76 311.771155,402.456 C306.157155,401.078 300.936155,398.625 295.580155,396.537 C292.404155,395.299 289.627155,393.459 287.115155,391.193 C283.190155,387.652 281.348155,383.221 281.615155,377.948 C281.727155,375.713 281.883155,373.472 282.174155,371.255 C282.580155,368.152 284.444155,365.723 286.203155,363.284 C286.556155,362.795 287.174155,362.367 287.755155,362.191 C292.295155,360.813 296.741155,359.02 301.645155,359.298 C305.628155,359.523 309.621155,359.558 313.608155,359.731 C319.674155,359.995 325.744155,360.22 331.800155,360.644 C333.683155,360.777 335.574155,361.355 337.375155,361.981 C341.692155,363.482 343.565155,367.263 345.439155,371.001 C345.493155,374.506 345.600155,378.023 344.059155,381.309 C341.016155,387.796 336.691155,393.234 330.855155,397.44 C328.010155,399.492 325.191155,401.578 321.962155,403.939 C321.936155,404.35 321.761155,405.286 321.836155,406.202 C322.507155,414.344 321.968155,422.498 322.108155,430.645 C322.133155,432.084 322.058155,433.524 322.075155,434.963 C322.101155,437.218 321.832155,439.39 321.071155,441.554 C320.387155,443.499 319.839155,445.557 319.665155,447.601 C319.003155,455.376 323.911155,463.193 331.209155,466.26 C332.829155,466.941 334.432155,467.711 336.114155,468.186 C339.542155,469.157 343.003155,469.762 346.332155,467.737 C346.731155,467.495 347.256155,467.243 347.679155,467.302 C348.408155,467.405 349.350155,467.552 349.744155,468.047 C350.147155,468.55 350.308155,469.64 350.036155,470.221 C348.635155,473.208 346.827155,475.616 342.985155,475.785 C340.722155,475.885049 338.504155,476.085 336.363155,475.32 C332.755155,474.032 329.068155,472.872 325.641155,471.195 C322.300155,469.559 319.748155,466.827 317.948155,463.516 C316.812155,461.427 315.797155,459.27 314.737155,457.161 C312.928155,457.679 312.025155,459.058 310.975155,460.24 C309.276155,462.152 307.684155,464.163 305.929155,466.02 C303.900155,468.168 301.565155,469.729 298.361155,469.319 C296.938155,469.136 295.479155,469.235 294.058155,469.047 C290.329155,468.551 289.257155,467.087 289.339155,462.86"/>
  </g>
</svg>
