<svg xmlns="http://www.w3.org/2000/svg" width="352" height="375" viewBox="0 0 352 375">
  <path d="M2304.62432,556 C2294.68954,555.868454 2284.10151,555.749639 2273.51349,555.579903 C2269.83662,555.520495 2266.20869,555.306203 2262.60417,554.222014 C2260.0061,553.441227 2257.17185,553.347872 2254.42696,553.169649 C2248.01798,552.751674 2241.54303,553.063564 2235.31916,550.929132 C2234.05524,550.494183 2232.57853,550.526008 2231.20609,550.574808 C2224.49921,550.81456 2220.30528,547.96087 2217.20717,541.763378 C2212.49831,532.347264 2206.63617,523.512496 2201.43366,514.334013 C2197.13547,506.751049 2192.75642,499.185059 2189.00295,491.330518 C2183.62169,480.064279 2180.66616,468.123339 2180.32996,455.550132 C2180.15335,448.943152 2182.08754,442.868718 2184.38345,436.898249 C2187.23473,429.485021 2192.00317,423.344815 2198.02915,418.142401 C2200.8783,415.683349 2204.13386,413.633784 2207.66178,412.976057 C2214.41548,411.717887 2220.91809,409.188818 2227.94627,409.214279 C2232.98707,409.231252 2238.00021,408.796303 2243.0325,407.875485 C2247.96053,406.973761 2253.12048,407.334451 2258.17618,407.113793 C2263.22549,406.893136 2268.33226,407.054386 2273.1241,405.004822 C2283.99938,403.279878 2294.70018,400.65321 2305.52226,398.677906 C2325.0535,395.113446 2343.79319,387.804182 2359.44329,378.661767 C2367.78221,373.790339 2375.97857,368.708862 2383.86426,363.143638 C2387.2326,360.767331 2390.43496,358.151272 2393.64797,355.562796 C2396.32689,353.405025 2396.47158,348.930355 2394.95657,345.395599 C2394.66506,344.716654 2393.56711,344.012249 2392.80322,343.967693 C2388.21352,343.693994 2383.61105,343.623978 2379.01496,343.454242 C2376.63606,343.36513 2374.55931,342.365808 2372.62087,341.094909 C2365.72248,336.573561 2361.61367,330.166021 2359.97525,322.156595 C2359.51777,319.922443 2359.40074,317.637369 2357.9368,315.687525 C2357.14099,314.626674 2355.30043,313.896809 2354.44718,314.613944 C2353.39603,315.496572 2352.23637,316.270993 2351.30226,317.259706 C2349.08507,319.604187 2347.20834,322.186299 2345.821,325.14183 C2344.26131,328.462294 2342.39947,331.640604 2340.84404,334.961068 C2334.04779,349.469267 2323.28528,360.669733 2310.89074,370.421076 C2300.32187,378.736027 2288.11245,384.197288 2275.74345,389.19814 C2271.52611,390.901867 2266.98109,392.140941 2262.47012,392.724409 C2249.27339,394.436623 2236.1022,396.734426 2222.6863,395.917571 C2219.01369,395.694792 2215.29214,395.452918 2211.64506,395.786026 C2202.30606,396.634706 2193.36923,394.150193 2184.326,392.732896 C2180.30655,392.102751 2176.3169,390.577247 2172.60385,388.841694 C2156.54521,381.33299 2142.32926,371.47344 2132.43491,356.339339 C2131.69017,355.199985 2130.7284,354.19642 2129.80705,353.184368 C2129.54533,352.895816 2128.91975,352.543614 2128.72612,352.660307 C2127.96223,353.116473 2127.26644,353.708428 2126.62383,354.330087 C2126.31105,354.631369 2126.05783,355.085413 2125.97059,355.509753 C2124.77689,361.333826 2123.35338,367.128194 2122.5363,373.005309 C2121.96391,377.112925 2120.82766,381.067778 2120.11697,385.103255 C2119.00837,391.408954 2116.72735,397.428223 2116.35073,403.941849 C2116.01028,409.844424 2114.17397,415.606967 2113.87395,421.609263 C2113.55478,428.010438 2110.76095,434.053046 2110.56945,440.522116 C2108.28843,445.699069 2109.15019,451.459491 2107.682,456.710703 C2106.17338,462.108314 2105.94357,467.556845 2105.40736,473.02235 C2105.18394,475.298936 2105.15202,477.668878 2104.45835,479.809675 C2103.15613,483.821814 2103.09017,487.935794 2102.74972,492.045531 C2102.40927,496.153147 2102.09222,500.237424 2101.33472,504.325944 C2100.50487,508.798492 2100.68361,513.453506 2100.31762,518.019409 C2100.17293,519.814369 2099.89844,521.63479 2099.36436,523.34276 C2099.16222,523.992001 2098.11959,524.503331 2097.35357,524.821587 C2096.40669,525.21198 2095.60663,524.71338 2095.18745,523.682233 C2094.85126,522.854769 2094.35548,522.014575 2094.31079,521.16165 C2093.55967,506.92715 2094.3342,492.709624 2094.90658,478.492098 C2097.08334,470.917621 2096.68544,463.031254 2097.76424,455.33584 C2098.46004,450.371057 2100.10271,445.53782 2100.324,440.466952 C2103.29018,433.607489 2102.0603,425.899345 2104.68816,418.955013 C2105.16053,417.703209 2105.12862,416.247721 2105.24139,414.879223 C2105.65419,409.863519 2105.65419,404.856302 2107.14366,399.910615 C2108.58632,395.119811 2108.86719,390.053186 2110.28006,385.160541 C2112.04828,379.041552 2112.44618,372.542778 2113.80586,366.285879 C2115.45705,358.698672 2116.58479,351.00538 2118.96369,343.558205 C2121.3277,336.153464 2122.97463,328.538675 2124.82796,320.983294 C2128.00266,308.047276 2132.25617,295.467703 2140.23549,284.492138 C2141.85263,282.268594 2143.10378,279.775594 2144.77625,277.598728 C2147.26367,274.358889 2147.38921,270.828376 2146.48063,267.136614 C2143.19103,253.748674 2139.09072,240.698084 2131.34333,229.03933 C2128.04734,224.078791 2125.29608,218.759683 2122.11499,213.716397 C2120.65743,211.405863 2118.89986,209.243849 2117.03376,207.243084 C2114.80806,204.858291 2112.11424,203.184268 2108.71612,202.740832 C2106.45638,202.448037 2104.18599,201.947315 2102.0369,201.204719 C2100.80915,200.778257 2099.76439,199.738623 2098.7324,198.864482 C2097.70679,197.996706 2097.48337,196.072322 2098.1898,195.089974 C2098.98561,193.982445 2099.67502,192.756101 2100.64743,191.828917 C2105.41587,187.286353 2110.94394,184.175938 2117.58699,183.29331 C2118.4977,183.172373 2119.45096,183.11933 2120.29996,182.805318 C2131.41568,178.689216 2141.36749,182.043627 2150.16814,188.506332 C2163.10953,198.013679 2176.86374,206.500488 2188.45184,217.781578 C2189.09019,218.403237 2189.95621,218.889107 2190.80308,219.16705 C2191.63718,219.438628 2192.60534,219.510766 2193.47775,219.394072 C2194.36505,219.275257 2195.24596,218.901837 2196.06092,218.500835 C2217.74551,207.832917 2218.00085,207.788361 2242.66439,202.456524 C2247.60305,201.389307 2252.43958,199.95928 2257.55699,199.823491 C2262.63183,199.687702 2267.31516,197.220163 2272.46235,197.198946 C2274.73273,197.190459 2277.09035,196.834013 2279.25434,196.150825 C2283.77383,194.725041 2288.43588,194.413151 2292.90642,195.333969 C2298.25789,196.437255 2303.78596,196.88069 2308.87357,199.388542 C2314.65272,202.235867 2320.36592,205.081069 2325.7344,208.704937 C2333.34986,213.843699 2340.99298,218.916689 2348.35098,224.433115 C2353.93224,228.61499 2358.72622,233.443984 2362.79035,239.062251 C2366.55659,244.266787 2370.42496,249.399184 2374.15077,254.633423 C2375.4764,256.494156 2376.55308,258.535234 2377.67656,260.531756 C2378.80005,262.530399 2379.76821,264.618154 2380.92574,266.597702 C2387.6922,278.171587 2392.02019,290.721456 2395.58854,303.538659 C2396.45243,306.640587 2397.29292,309.695838 2398.62706,312.628031 C2401.48898,318.920999 2402.95079,325.593753 2404.436,332.328035 C2406.12336,339.985258 2407.22557,347.625508 2407.3809,355.446102 C2407.42559,357.716324 2407.9086,359.984423 2408.27246,362.239793 C2408.41715,363.139394 2408.97251,363.992319 2409.01932,364.883433 C2409.60447,375.878094 2412.5898,386.624516 2412.53661,397.672219 C2412.50682,403.697853 2414.21333,409.462518 2414.75167,415.37358 C2415.2517,420.892127 2416.30072,426.221843 2417.8753,431.51549 C2421.00319,442.03489 2423.13101,452.81738 2425.98654,463.415282 C2426.94406,466.973377 2428.04627,470.446603 2429.33999,473.864666 C2433.71691,485.432186 2437.75125,497.1164 2441.33024,508.953376 C2442.78354,513.765397 2444.2645,518.579539 2445.44331,523.463697 C2447.27749,531.057269 2444.69432,536.660685 2435.97665,538.988192 C2423.57573,542.300169 2410.95138,544.706179 2398.38874,547.347699 C2389.41574,549.233892 2380.2874,550.2417 2371.3378,552.291265 C2368.23331,553.002035 2364.93094,552.870489 2361.72006,553.110242 C2356.68564,553.483661 2351.6491,553.43274 2346.66575,554.771534 C2343.62084,555.590511 2340.26953,555.374098 2337.05226,555.441992 C2326.45786,555.662649 2315.86984,555.811169 2304.62432,556 Z M2156.28518,259 C2161.01882,253.972439 2164.15056,247.821294 2167.94975,242.152592 C2170.26995,238.690854 2172.88892,235.59518 2175.92319,232.814787 C2177.59925,231.280704 2179.45753,229.945522 2181.20774,228.48973 C2182.17396,227.685659 2182.28626,225.671249 2181.37937,224.831206 C2176.69871,220.487106 2172.25961,215.827725 2167.23145,211.927979 C2160.02929,206.341801 2152.34402,201.379835 2144.9554,196.024298 C2141.57998,193.578228 2138.02446,191.739444 2133.94981,190.72166 C2131.69529,190.15881 2129.60182,189.689063 2127.26466,190.258261 C2124.61391,190.90575 2121.86569,191.142739 2119.20011,191.733097 C2117.67238,192.069537 2115.30133,191.282393 2115.01316,193.684027 C2114.85,195.03402 2116.23365,196.01795 2117.53677,196.606191 C2121.39954,198.351872 2124.3999,201.147077 2126.79639,204.545336 C2137.61975,219.8904 2147.23534,235.870257 2152.54532,254.08247 C2152.92036,255.368984 2153.41407,256.676657 2154.14297,257.785429 C2154.53921,258.390599 2155.54145,258.602196 2156.28518,259 Z M2238.2099,306.772465 C2236.32744,310.648122 2234.87634,313.469685 2233.58647,316.363651 C2233.03995,317.592362 2232.83684,318.976525 2232.45784,320.284027 C2232.18353,321.225258 2233.34776,323.633702 2234.17068,323.571947 C2234.9957,323.508063 2236.09711,323.237618 2236.53684,322.643493 C2237.87696,320.833433 2238.9344,318.810426 2240.1447,316.896021 C2240.86711,315.754619 2241.52461,314.504613 2242.49201,313.620878 C2242.99665,313.16091 2244.15042,313.186464 2244.93564,313.356823 C2246.08731,313.605972 2247.46513,315.452233 2247.36252,316.361522 C2247.00865,319.504637 2246.58358,322.639234 2246.25064,325.784479 C2246.10406,327.170771 2247.14057,328.49318 2248.38856,328.710387 C2249.55488,328.912687 2250.59348,328.058765 2251.16931,326.284907 C2251.5902,324.983793 2251.7975,323.603889 2252.2791,322.330459 C2252.59319,321.502091 2253.21928,320.795103 2253.72183,320.043396 C2254.32907,319.136236 2256.55703,318.95523 2257.30457,319.892202 C2258.13167,320.92926 2259.1242,322.060015 2259.37129,323.290855 C2259.72726,325.049807 2259.37757,326.942917 2259.50949,328.765753 C2259.60581,330.096679 2259.88849,331.440382 2260.28006,332.718071 C2260.59834,333.753 2261.49455,334.247039 2262.36772,333.878639 C2263.12154,333.559217 2264.18945,332.97148 2264.31509,332.336894 C2264.75901,330.115845 2264.85951,327.824522 2265.08147,325.558754 C2265.33484,322.973563 2266.71265,321.478666 2269.21073,320.910095 C2270.05459,320.718441 2270.8461,320.226531 2271.62086,319.798505 C2272.70133,319.200121 2273.17456,317.769109 2272.94214,316.216717 C2272.76415,315.030595 2271.39052,313.595325 2270.2912,313.418578 C2269.40128,313.275902 2268.51135,313.041659 2267.61933,313.031012 C2259.95341,312.943703 2253.89982,308.9275 2248.04934,304.585487 C2242.81448,300.701312 2239.22337,295.537319 2237.11686,289.2447 C2236.24369,286.640344 2235.14227,284.14672 2234.90356,281.350711 C2234.7884,279.994231 2234.46802,278.627103 2234.04505,277.332378 C2233.61998,276.035524 2232.9562,274.81746 2232.38245,273.571714 C2231.90085,272.524008 2229.53679,271.561483 2228.95048,272.210975 C2228.36208,272.864726 2227.57895,273.578102 2227.43865,274.36814 C2226.70368,278.480169 2226.87957,282.611364 2228.06265,286.61266 C2230.14194,293.627173 2232.11234,300.726866 2238.2099,306.772465 Z M2230.0381,344 C2228.02543,344.899506 2226.54114,346.013391 2226.10957,347.863236 C2225.83126,349.050053 2226.11158,350.621427 2226.62988,351.750782 C2227.45269,353.540954 2230.04617,354.590746 2230.89924,353.644828 C2231.7402,352.709961 2232.54083,351.494412 2232.82115,350.256762 C2233.10752,348.985961 2233.07122,347.359335 2232.55696,346.22335 C2232.09312,345.197868 2230.79437,344.625455 2230.0381,344 Z M2220.37487,325.041721 C2219.05562,324.725341 2217.3217,326.257081 2217.04203,327.985594 C2216.77587,329.633082 2217.80581,331.450335 2219.22535,331.840022 C2221.49739,332.463135 2223.95652,331.187972 2223.99895,329.36686 C2224.04524,327.34126 2222.55626,325.562589 2220.37487,325.041721 Z M2201.95391,341.572593 C2201.4444,341.021923 2200.77944,339.922616 2199.77985,339.315051 C2198.45426,338.512415 2197.06606,339.268315 2195.42526,341.298274 C2194.6869,342.21267 2194.92222,343.523304 2196.03624,344.655123 C2196.98402,345.618286 2198.10235,346.205531 2199.54452,345.933245 C2201.20907,345.618286 2202.23457,343.99879 2201.95391,341.572593 Z M2186.0408,358.940132 C2187.46129,359.321559 2189.31153,357.832692 2189.90216,355.832364 C2190.39965,354.150616 2188.93682,352.219639 2186.94475,352.026758 C2185.53484,351.890225 2184.16939,352.260816 2183.37341,353.493954 C2182.24294,355.245053 2183.83702,358.350653 2186.0408,358.940132 Z M2181.99979,333.318471 C2181.3017,332.68829 2180.49899,331.572559 2179.4247,331.093208 C2178.13715,330.520879 2175.88395,332.713084 2176.00466,334.155269 C2176.08312,335.085045 2177.62415,336.744177 2178.61797,336.967324 C2179.988,337.275183 2182.02393,335.357779 2181.99979,333.318471 Z M2199.08571,323.918643 C2200.22463,324.290785 2201.48776,323.345797 2201.93407,321.909498 C2202.2688,320.834888 2201.28777,319.467583 2199.92358,319.064081 C2198.84782,318.744207 2197.59942,319.651563 2197.10048,321.123402 C2196.70049,322.308819 2197.52153,323.464965 2199.08571,323.918643 Z" transform="translate(-2094 -181)"/>
</svg>
