<svg xmlns="http://www.w3.org/2000/svg" width="457" height="361" viewBox="0 0 457 361">
  <g fill="none">
    <path fill="#D7A9FF" d="M317.462245 277.936003C318.114356 274.085669 317.491774 270.075926 315.203234 266.62534 314.019591 264.839962 312.373318 263.356234 310.498191 262.318851 310.372691 261.867601 310.225043 261.433519 310.042944 261.021509 308.128445 256.683138 304.530761 254.784948 299.948758 254.252768 283.601689 252.35703 267.269385 261.288825 259.394837 275.530158 255.236092 283.051798 261.090326 289.783752 267.576985 290.379696 267.825525 290.933948 268.101134 291.493105 268.430881 292.057166 271.644681 297.53347 276.777902 299.206036 282.012015 298.590473 285.405453 304.167326 292.499928 307.188735 298.96444 305.560314 302.419398 304.692149 305.682413 302.678694 308.202269 300.187013 309.024175 299.375254 309.676286 298.470303 310.426828 297.594781 310.540025 297.464802 310.650761 297.33237 310.763957 297.20239 320.149434 295.873167 322.381376 284.412904 317.462245 277.936003zM179.886476 261.5063C179.59023 260.196333 179.122602 258.908362 178.449315 257.666826 167.578799 237.687387 139.959363 256.989847 130.645974 268.24432 127.497442 272.049579 126.611152 277.260119 129.336126 281.341545 129.091294 281.820563 128.834221 282.289805 128.606528 282.783487 126.442218 287.495457 126.180249 292.566691 129.598096 296.850967 132.46752 300.448488 138.247991 303.295711 142.936513 301.389416 145.426449 300.377613 147.911488 299.351146 150.396527 298.327124 163.722703 307.296487 182.195237 292.388281 187.642736 279.853169 191.347036 271.32372 187.042899 263.40282 179.886476 261.5063z"/>
    <path fill="#000" d="M456.008025,321.893197 C454.784203,320.950449 453.297089,320.090525 451.802661,319.807944 C448.119005,319.113672 444.347586,318.87494 440.661492,318.195284 C439.786289,318.034505 438.90621,316.974826 438.374749,316.114903 C437.831099,315.235491 437.472729,314.097859 437.44835,313.064977 C437.146051,300.127151 436.916889,287.18689 436.692603,274.246628 C436.682852,273.732623 436.799871,273.150409 437.053411,272.709485 C437.570245,271.808149 438.040758,270.702186 438.852576,270.18818 C440.181227,269.347746 441.756106,268.880025 443.245658,268.312427 C444.725459,267.749701 446.25158,267.308777 447.716753,266.714383 C448.982019,266.200378 449.384271,265.162623 448.650466,264.037171 C448.10194,263.196736 447.307187,262.059104 446.492931,261.939738 C443.840504,261.552407 441.12713,261.588948 438.438134,261.428169 C436.148953,261.291751 434.271776,260.412339 433.516029,258.095662 C430.205372,247.949542 427.143379,237.735213 425.405161,227.140861 C426.224293,226.656089 427.099497,226.059258 428.045399,225.603718 C428.998615,225.145742 430.054222,224.897265 431.005,224.431981 C432.133744,223.878999 432.74078,222.81932 432.238574,221.771822 C431.833884,220.931387 430.941615,219.976458 430.098104,219.77183 C428.554918,219.399116 426.870335,219.674389 425.278391,219.442965 C422.998961,219.114099 420.951132,216.904608 421.199797,215.13604 C421.428959,213.513635 422.111569,212.047137 423.603559,211.20183 C424.529958,210.678081 425.566062,210.337035 426.568036,209.949704 C428.052713,209.377234 429.583709,208.914386 431.029379,208.256654 C432.162999,207.740213 432.718839,206.64643 432.24345,205.56239 C431.860701,204.687851 431.029379,203.455213 430.295574,203.384568 C427.633395,203.121475 424.929772,203.306614 422.243215,203.267638 C419.841891,203.233533 418.225568,201.939994 417.474697,199.759736 C414.300561,190.561236 412.886584,180.926686 411.250758,171.433425 C409.232183,159.713621 406.421293,148.266654 402.337823,137.17535 C400.31681,131.684508 401.216392,127.901333 405.923963,124.749093 C406.333529,124.476257 406.626076,123.88917 406.76016,123.389781 C406.889368,122.907445 406.930812,122.218045 406.674834,121.85751 C406.097053,121.046308 405.324241,119.796618 404.609939,119.782001 C403.071629,119.752769 401.506502,120.342291 399.975505,120.766163 C397.074413,121.567621 395.916414,121.211959 394.482934,118.997595 C392.730089,116.288715 391.033316,113.540859 389.404804,110.958653 C390.718828,107.682175 391.98897,104.722382 393.000695,101.679764 C393.107962,101.360643 391.562338,99.9355574 391.018688,100.059796 C389.014741,100.517772 387.154629,101.621299 385.148243,102.02081 C384.443692,102.159665 383.397837,101.039085 382.659155,100.337505 C382.351981,100.045179 382.273968,99.3094943 382.366608,98.8295938 C383.005336,95.4873426 386.011257,93.5872289 387.398418,90.7273141 C388.298,88.8710492 388.739259,86.7809242 389.243903,84.7590083 C389.317039,84.4691192 388.639305,83.8722886 388.193171,83.6091959 C387.75435,83.3485393 387.11806,83.1268594 386.659737,83.2437894 C382.120381,84.3936018 380.87218,89.4678798 376.956925,91.4191504 C374.638489,91.1852903 373.244014,89.5117286 372.112832,87.8064984 C366.40085,79.2023938 358.992095,72.1135081 351.929521,64.6908845 C345.917678,58.3742244 338.803908,53.5289345 331.692576,48.64954 C327.267801,45.6117941 321.224265,44.7421267 318.011123,40.359685 C314.629766,35.7482552 317.913608,29.8213621 316.694661,24.6033576 C316.470375,23.6435566 315.636616,22.7373485 314.885745,22.0138437 C314.176318,21.3293155 311.321546,22.8323542 310.950987,24.0211433 C310.634061,25.0345372 310.312259,26.0528033 310.11479,27.0929937 C309.814929,28.6812939 309.805177,30.3475475 309.315161,31.8676384 C309.020176,32.7835907 308.181541,33.6776185 307.355095,34.2379084 C305.555931,35.45593 300.977569,33.4486305 300.663081,31.3828658 C300.421729,29.8043098 300.095052,28.1965213 300.168188,26.6179653 C300.450984,20.6935083 300.977569,14.7812314 301.192103,8.85433833 C301.245737,7.34886363 300.538748,5.79710412 300.063359,4.30380964 C299.941464,3.92135086 299.385625,3.45119452 299.002876,3.42683409 C298.517735,3.39760157 297.905824,3.66556632 297.527951,4.00661237 C295.882373,5.4804185 294.841393,7.37322407 294.531781,9.5291223 C293.993007,13.2635765 293.744342,17.0394435 293.142182,20.7617175 C292.893517,22.3012968 292.225535,23.8579284 291.396651,25.188008 C290.892008,25.9992104 289.565794,27.0369648 288.863681,26.8737499 C283.631964,25.6508562 278.531893,23.7970273 273.263607,22.820174 C264.287287,21.1563565 255.623018,17.6070415 246.332209,17.8871865 C238.713796,18.1161746 231.361112,16.2428573 223.867031,15.5193525 C221.538843,15.2952365 220.056605,13.6630876 219.764058,11.3853872 C219.354492,8.2039148 219.06682,4.99564591 218.418341,1.86289435 C218.267192,1.12964535 216.95073,0.459733473 216.034082,0.108943253 C215.04186,-0.271079486 213.832665,0.372035918 213.669326,1.58762147 C213.174434,5.29040713 212.981841,9.03216948 212.618595,12.7544435 C212.428439,14.700842 210.319662,16.7422462 208.303525,17.0248272 C206.706706,17.2489432 205.112324,17.5169079 203.508191,17.631402 C199.202873,17.9407795 194.848797,17.8969307 190.592237,18.5181217 C186.352742,19.1368767 182.203449,20.3792587 178.022463,21.3707283 C162.237109,25.1124906 147.158745,30.8006515 132.799558,38.2890483 C126.173366,41.7433575 123.279588,42.5959727 121.563312,34.2208561 C121.2537,32.7105094 120.24685,31.2440114 119.242438,30.0186816 C118.769487,29.4437754 117.540789,29.3780023 116.643645,29.3365895 C116.373039,29.3244093 115.814761,30.1721524 115.812324,30.6276924 C115.809886,33.8335253 115.624606,37.0807709 116.063427,40.2378828 C116.675338,44.6373769 114.932244,47.4729311 111.187642,49.4120215 C108.793631,50.6519675 106.45813,52.0112796 104.015362,53.1416037 C102.457549,53.8626724 100.875357,53.3827719 99.5174505,52.4083547 C98.644685,51.7822916 97.9401341,50.8906997 97.0210486,50.3669505 C96.1872894,49.891922 94.8952064,49.2585508 94.2881712,49.5874166 C93.5324245,49.9966719 92.8888209,51.3121352 92.8693178,52.2500118 C92.8254357,54.3718055 93.408092,56.5106514 93.339831,58.6275729 C93.2691321,60.8541164 91.9965523,62.6202477 90.3363475,64.1330306 C89.0369508,65.3169476 87.6083459,65.3193836 85.9676442,65.3802847 C82.1474668,65.5215752 81.3697791,66.298673 80.4970136,69.8211914 C80.1191403,71.3534626 79.8582858,72.9174023 79.4170272,74.4301852 C79.2805053,74.8954694 78.7319795,75.5629452 78.3589819,75.5702534 C77.3911386,75.5946138 75.999102,75.6555149 75.5115235,75.0806087 C73.0906963,72.2158219 70.9599783,69.1074308 68.6000984,66.186615 C67.9662464,65.4022091 66.9228284,64.9125644 65.9964293,64.4253557 C65.6990064,64.269449 65.0773439,64.4326639 64.7652936,64.666524 C64.3508519,64.9783376 63.851084,65.4825985 63.8169535,65.9381386 C63.6511768,68.1208333 64.1241279,70.1719816 65.30163,72.0696593 C67.8419139,76.1646479 71.2037676,79.8089685 72.2788781,84.7102875 C69.5362491,89.3436416 66.5815235,93.8673738 64.1046248,98.6371464 C60.381963,105.803985 57.0444882,113.17058 53.4485969,120.405628 C51.2983757,124.732041 49.0457631,129.012169 46.646877,133.204599 C46.2226837,133.945157 44.8233334,134.563911 43.9237511,134.505446 C41.8052226,134.369028 39.7257003,133.723477 37.6096097,133.416535 C36.558878,133.2655 35.7811903,133.964645 35.5130221,135.126637 C35.4008791,135.61141 35.3667486,136.327607 35.6397926,136.641856 C36.6856484,137.857442 37.8948431,138.929301 38.9943326,140.101038 C40.8446929,142.066925 41.5736228,144.476171 40.5521458,145.811123 C39.1674229,147.621103 37.2878078,148.512695 34.9303659,148.105876 C34.3989053,148.013306 33.8576932,147.971893 33.3189189,147.942661 C32.7801447,147.915864 32.1755474,147.77701 31.7147857,147.967021 C30.756694,148.36166 29.5060552,148.736811 29.0769861,149.509036 C28.7088643,150.17164 29.0599208,151.533388 29.5377478,152.312922 C30.9029675,154.541902 34.4135327,155.102192 34.6426945,158.142374 C34.8450396,160.797661 34.7548376,163.56257 34.2380044,166.169136 C32.7752689,173.543039 31.1833252,180.899889 29.3329648,188.186094 C28.1432733,192.865733 28.1335217,197.779232 25.9369806,202.285912 C24.5595714,205.114159 22.7896615,206.390645 19.7764264,206.246919 C19.2449658,206.220122 18.5891728,206.186018 18.1917963,206.453982 C17.3555992,207.014272 16.407259,207.642771 15.953811,208.483206 C15.3784684,209.550193 15.8757985,210.651285 16.8997133,211.301708 C18.6842506,212.43934 20.6126235,213.382089 22.2679525,214.678064 C23.0236991,215.270023 23.8135763,216.609846 23.6526754,217.428357 C23.2479852,219.503866 22.6628911,221.723101 21.4683238,223.399099 C20.7028255,224.470958 18.7598252,224.819312 17.2727109,225.226131 C15.7392765,225.642695 13.9035435,225.474608 12.9649549,226.970338 C12.4993174,227.710895 12.2701555,229.153033 12.6845973,229.786404 C13.9644908,231.740111 16.3097433,231.781523 18.3648867,232.329633 C19.6667212,232.677987 20.2249986,233.469701 19.8422495,234.215131 C19.6155255,234.656054 19.1157575,235.096978 18.6428064,235.252885 C16.1073983,236.08114 13.2745672,235.155443 10.8074201,236.626813 C9.74449897,237.260185 9.13990165,238.010486 9.4129456,239.262612 C9.5104613,239.705972 9.86151781,240.112791 10.1589407,240.487942 C11.3023122,241.925207 13.0722222,241.666987 14.5934671,242.088422 C17.5335653,242.899625 18.8207726,244.120082 18.6891264,246.144434 C18.4112066,250.436742 18.7988315,254.955602 17.5555064,258.962893 C15.7612175,264.74606 15.6807671,270.651029 14.7689953,276.487788 C14.3862462,278.933576 12.7674856,280.071208 10.4978077,280.565724 C9.4763308,280.787404 8.45485387,281.060241 7.47969689,281.432956 C6.10716344,281.954269 5.41236409,284.434161 6.4119,285.423195 C7.91607964,286.911617 9.81519785,288.076046 11.0536472,289.742299 C12.757734,292.037052 12.0848757,294.896967 12.0483073,297.561998 C11.9800463,302.404852 11.9142233,307.250142 11.8337728,312.092996 C11.8118318,313.345122 10.2564564,315.315881 9.01313124,315.583845 C7.96239959,315.810397 6.87753746,315.883479 5.81217846,316.051566 C4.74925735,316.217217 3.67902256,316.368251 2.6331667,316.614292 C1.19724805,316.950466 -0.492211414,319.315864 0.134326945,320.234252 C0.70723167,321.072251 1.4069068,322.18065 2.25041759,322.40233 C4.31775039,322.943132 6.5069778,322.994289 8.63282002,323.332899 C10.3027763,323.598428 11.828897,324.962612 11.9702948,326.319488 C12.2457766,328.994263 12.3944881,331.678783 12.6626562,334.353558 C13.0112749,337.829792 14.8128774,340.52162 17.8651187,342.01735 C21.2318482,343.671423 24.7058449,345.140358 28.6040349,345.359601 C32.3608272,345.571537 36.2248867,345.70552 39.8134644,346.696989 C44.5551652,348.005144 49.3358723,348.614155 54.1726509,348.848015 C58.5194132,349.057515 62.6735819,349.844357 66.7643654,351.296239 C68.7195552,351.988075 72.4812232,348.911352 72.5056021,346.72135 C72.5226674,345.150102 72.3642044,343.564238 72.1642972,342.000298 C69.9141225,324.270775 70.5552882,306.512021 71.6157714,288.748394 C73.7854957,282.497507 73.1516436,275.956731 73.6270327,269.528013 C73.9439587,265.233269 73.9195798,260.843519 74.8581684,256.680321 C78.7539205,239.369798 83.0251081,222.144537 90.4923726,205.925361 C92.7449852,201.033786 95.2048187,196.239653 97.511065,191.370003 C98.4277125,189.433348 99.415059,187.482078 99.9513953,185.426057 C100.799782,182.178812 100.475542,179.002211 98.0571529,176.371285 C97.328223,175.579571 96.5749143,174.785421 95.719214,174.142305 C89.9779773,169.823201 86.1968061,163.91336 82.574098,157.901205 C81.7622798,156.551637 81.1211141,154.965773 80.896828,153.41645 C79.6973849,145.119287 81.1333035,137.472547 85.9895853,130.359301 C89.736626,124.86846 94.5100194,120.644361 99.9538332,117.124278 C106.021748,113.199813 112.755206,111.47753 119.990871,112.71504 C122.067956,113.070702 124.201112,113.767411 126.022217,114.810037 C131.680566,118.047539 136.84646,121.850202 140.01572,127.855049 C141.705179,131.056009 144.803741,132.115688 148.241169,131.820927 C150.90091,131.594375 153.660604,131.345898 156.142378,130.459179 C166.705766,126.688184 177.471499,127.46041 188.098273,129.336163 C198.122886,131.107166 206.041161,136.432357 210.429367,146.088832 C210.873064,147.065685 211.494726,147.962149 211.99937,148.914642 C213.003782,150.814756 213.925305,152.761154 214.988226,154.627163 C216.99705,158.154554 221.821639,158.2861 224.325354,154.804994 C226.207407,152.188684 227.877364,149.418903 229.625333,146.707587 C235.071584,138.256953 242.473026,132.286211 252.012499,128.990245 C258.658194,126.695492 265.323392,124.607803 272.507861,125.197325 C274.11687,125.328872 275.74782,125.292331 277.364142,125.211942 C286.828041,124.734477 295.475245,127.097439 303.322821,132.44699 C304.634407,133.341018 306.165404,133.945157 307.65008,134.551731 C310.582865,135.747828 314.883307,135.116893 316.558139,132.658926 C320.697681,126.588306 326.487675,122.87334 333.135808,120.337419 C338.333395,118.356916 343.747954,118.169341 348.977233,120.118175 C354.647771,122.232661 359.255388,125.976859 363.095068,130.627266 C363.767927,131.440904 364.406654,132.408013 364.674823,133.409227 C365.791377,137.560245 367.273616,141.701518 367.678306,145.937797 C368.641274,155.99622 366.315524,165.192283 358.850697,172.551569 C356.161702,175.201984 353.299616,177.684312 350.708137,180.424861 C349.637902,181.557621 348.986985,183.123997 348.292185,184.566134 C347.343845,186.534457 346.77094,188.588041 348.13616,190.631882 C350.530171,194.215301 352.831541,197.869366 355.376701,201.340728 C359.235884,206.602581 362.29544,212.319974 364.594372,218.351617 C367.081022,224.875341 369.579862,231.518431 370.871945,238.336916 C372.168904,245.184633 374.662868,251.76195 374.853024,258.904428 C375.34304,277.245398 375.196766,295.564442 374.818893,313.905412 C374.650678,322.073465 372.483392,329.868803 371.856854,337.895565 C371.474105,342.806628 370.094257,347.374209 368.648587,352.009999 C368.039114,353.96127 368.329223,356.248715 368.475497,358.365636 C368.62177,360.448453 371.678888,361.700579 373.507307,360.579999 C373.965631,360.299854 374.594607,360.17318 374.901781,359.783413 C377.429876,356.580016 380.645456,355.266989 384.767932,355.344942 C394.480496,355.532518 404.200373,355.556878 413.912936,355.410716 C418.015909,355.349815 421.053523,356.869906 423.898544,359.703024 C425.953687,361.7493 429.105882,360.882069 430.731956,358.346148 C431.022066,357.893044 431.4682,357.513021 431.658355,357.028248 C434.020673,351.045326 436.838877,345.203695 436.631656,338.499704 C436.548768,335.820056 436.916889,333.123356 437.111921,330.436401 C437.265508,328.304863 439.17194,326.390133 441.212456,326.270767 C446.041921,325.98575 450.876262,325.725093 455.700851,325.384047 C456.173802,325.349943 457.034378,324.76042 456.998939,324.563101 C456.824719,323.613044 456.656505,322.392586 456.008025,321.893197 Z M66.3645511,113.419057 C67.1422388,112.934284 68.60985,112.391046 69.0779254,112.756453 C72.781084,115.665088 76.4403606,118.673602 78.7051626,123.048735 C78.3321651,123.392217 78.0298664,123.842885 77.6129868,124.010972 C77.179042,124.183931 76.4549879,124.300861 76.1721924,124.067001 C72.9736775,121.40197 69.8166068,118.688218 66.6961044,115.930617 C65.7063201,115.058514 65.5381055,113.935498 66.3645511,113.419057 Z M72.6372483,132.924454 C72.3325118,133.231396 72.0253373,133.535901 71.7206008,133.842843 C71.442681,133.263064 71.1671992,132.683286 70.8892795,132.103508 C71.4719357,132.376345 72.054592,132.649182 72.6372483,132.924454 Z M62.0299783,123.984176 C62.105553,123.796601 62.9417501,123.64313 63.1367815,123.811217 C65.8013979,126.108406 69.2924599,127.686962 70.2212969,131.528602 C66.2962901,131.803875 63.304996,130.091336 61.2815453,126.788062 C60.925613,126.205847 61.6642944,124.902564 62.0299783,123.984176 Z M55.6865822,136.817251 C56.2741142,136.113235 57.0298609,135.289852 57.8514306,135.109585 C58.7973329,134.902521 59.9723971,135.124201 60.8914825,135.521276 C63.3098718,136.568775 65.7063201,137.701535 67.997939,138.999946 C71.330538,140.890316 71.8156786,143.51637 69.0657359,146.958499 C64.2704015,144.773369 59.6896015,142.252064 56.0863965,138.278877 C55.7670326,137.928087 55.4939886,137.04624 55.6865822,136.817251 Z M49.1042725,148.834253 C50.0501748,147.650336 51.3349441,146.736819 52.3417937,145.818431 C56.2741142,148.069335 59.9090119,150.225233 63.6316736,152.220353 C64.4605571,152.666148 65.5917392,152.597939 66.5888372,152.671021 C71.8108028,153.055915 71.9131943,153.20695 72.7323261,157.448101 C73.0151217,158.909727 71.4109884,160.909719 70.1457223,160.614957 C62.9466259,158.934088 55.9449988,156.705108 49.4626427,153.058351 C48.2436965,152.371387 47.9194568,150.315367 49.1042725,148.834253 Z M54.1019521,163.815918 C53.1706771,163.723349 52.2394022,163.640523 51.3105652,163.516285 C49.9185286,163.32871 49.1140241,162.439554 49.5089627,162.256851 C50.3524735,161.867084 51.4422114,161.767206 52.3832379,161.896316 C53.3827738,162.035171 53.9386133,162.79278 54.1019521,163.815918 Z M21.8461971,294.804397 C21.9242096,292.953004 23.1553453,291.888453 24.9423205,292.244116 C27.0486596,292.663115 29.1354955,293.179556 31.232083,293.654585 C31.2686514,293.49137 31.3052198,293.328155 31.3417882,293.16494 C35.0156921,293.937166 38.7432296,294.51938 42.3513105,295.530338 C47.5952171,296.999272 52.9829594,296.748359 58.2926892,297.374423 C59.0338085,297.46212 59.7798036,298.655781 60.2600684,299.491344 C60.9182993,300.631412 58.9484822,302.697177 57.5101257,302.611915 C56.9762273,302.580247 56.4252636,302.726409 55.8962409,302.665508 C50.5572564,302.049189 45.557139,299.730076 40.0767568,299.695972 C35.2302266,299.664303 30.3885722,299.313513 25.5444799,299.065037 C25.0373983,299.03824 24.5522577,298.692322 24.0378624,298.60706 C22.6385121,298.3732 21.7608708,296.887214 21.8461971,294.804397 Z M19.9860851,309.452325 C20.1908681,308.546117 21.0880125,307.739786 21.8071908,307.030898 C22.1363063,306.706904 22.8018509,306.621643 23.3186841,306.611898 C25.4640295,306.56805 27.6118127,306.59241 29.7571581,306.59241 C35.1327109,306.575358 40.4424407,306.72152 45.6960989,308.426751 C49.2139777,309.566819 53.0926646,309.600923 56.8128885,310.119801 C59.7139805,310.524184 61.0133771,312.565588 60.5721186,315.976048 C60.3746493,317.493703 58.7656403,319.138032 57.5101257,319.094184 C55.8986788,319.040591 54.1921541,319.301247 52.6928502,318.860324 C44.3381928,316.407228 35.7909419,315.834758 27.1559268,315.837194 C26.0954436,315.837194 25.0349604,315.586281 23.9720393,315.471787 C21.5560879,315.216003 19.376612,312.1271 19.9860851,309.452325 Z M58.5096616,342.321856 C57.1127492,342.292623 55.7158369,342.309675 55.5524981,342.314547 C48.9043654,341.593479 44.1480372,341.208584 39.4282774,339.902865 C35.3496834,338.774977 30.9492875,338.821261 26.6976031,338.309692 C21.0246273,337.6276 18.6111138,334.005204 19.8056811,328.007666 C19.9105105,327.486352 20.0714114,326.950423 20.3347038,326.492447 C21.1367704,325.091722 22.0631695,323.776259 23.8306415,323.513166 C29.1769397,322.71658 34.5012968,322.891975 39.7963992,323.963834 C42.9388425,324.599641 46.0642207,325.352379 49.2286051,325.846895 C60.133298,327.542381 60.1284222,327.508277 62.1762518,338.450983 C62.5785041,340.611753 60.8890446,342.373012 58.5096616,342.321856 Z M58.1269125,291.700878 C55.6012559,290.906728 53.1024162,290.027316 49.4382638,288.797114 C45.8496861,288.229516 41.1348021,287.318436 36.378474,286.787379 C32.6094922,286.365943 29.0355419,285.508456 25.5444799,284.037086 C22.4678597,282.738675 21.5268332,279.588871 23.4040104,276.102893 C23.9769151,275.038342 24.8545564,274.517029 26.0661889,274.619343 C27.1193584,274.707041 28.2237237,274.6705 29.2061944,274.992058 C32.7557658,276.15405 36.3809119,277.184497 39.7598308,278.736256 C46.6029949,281.876316 53.6192494,284.134528 61.1791538,284.663149 C61.7666859,284.704562 62.671144,286.231961 62.7077124,287.096756 C62.8539859,290.563246 60.7842153,292.538877 58.1269125,291.700878 Z M62.1348077,278.848314 C50.7327847,275.861725 39.6598772,272.146759 28.8331968,267.708288 C25.9394185,266.521935 24.9715752,264.529252 25.6956293,261.364832 C26.0930057,259.625497 27.7093284,258.395295 29.0501693,258.833783 C35.6105378,260.979937 42.2684221,262.875179 48.7044582,265.347763 C52.744046,266.899522 56.6666149,268.246654 61.0548213,268.129724 C61.8056922,268.110236 63.1343436,269.26492 63.261114,270.032274 C63.7706335,273.089508 64.4532434,276.285597 62.1348077,278.848314 Z M66.0549387,256.007973 C65.1504806,258.487865 64.7994241,261.233286 62.8734891,263.204045 C62.3566559,263.296614 61.8593258,263.552399 61.493642,263.425725 C51.8907836,260.120014 42.3025526,256.775327 32.7167595,253.425767 C32.2169916,253.250372 31.7684193,252.936123 31.278403,252.726623 C28.4504477,251.520781 27.4167813,247.369764 29.2671417,244.475745 C29.5401856,244.047001 30.1155283,243.360037 30.3641933,243.433118 C37.0464565,245.374644 44.1797298,244.984878 50.7474121,247.781455 C55.1307427,249.647464 59.9455803,250.504951 64.5605107,251.835031 C65.6307454,252.141972 66.5717719,254.58776 66.0549387,256.007973 Z M64.7628557,246.434323 C63.2684277,245.744923 61.8008164,244.992186 60.3502704,244.210216 C54.6602294,242.580503 48.5191784,242.463573 42.9315289,240.417297 C42.4951461,240.256518 42.2074748,239.810722 42.1489654,239.364926 C38.9065684,238.707194 35.6373547,238.507439 32.4071472,237.876503 C31.0224243,237.606103 30.4690227,236.865546 30.9297843,236.22243 C31.2125799,235.827791 31.7611057,235.4161 32.2194294,235.379559 C38.1483839,234.921583 43.9627574,235.204164 49.4650806,237.883812 C49.7478761,238.022666 50.0428611,238.132288 50.3427219,238.224858 C51.3495715,238.368584 52.3491074,238.561032 53.3413296,238.799764 C53.9410512,238.90695 54.533459,239.043368 55.0917364,239.265048 C57.45893,239.949576 59.7846794,240.841168 62.0689846,241.798533 C63.4756485,241.981236 64.8262409,242.458701 66.0573766,243.511071 C66.0646903,243.51838 66.072004,243.528124 66.0793177,243.535432 C66.7984959,243.854553 66.7789928,244.575622 66.4011195,245.067703 C66.1987744,246.156614 65.5112887,246.780241 64.7628557,246.434323 Z M67.9540569,234.755932 C67.4055311,234.787601 66.8667569,234.768112 66.3328585,234.712083 C64.6165822,234.731572 62.9003059,234.712083 61.7447449,233.484318 C61.4034399,233.355207 61.0645729,233.221225 60.7281437,233.084807 C59.5628311,232.619522 58.3828912,232.215139 57.1980755,231.83268 C55.14537,231.830244 53.1072919,231.776651 51.2496179,231.172513 C46.078848,229.491643 40.8446929,228.570818 35.5008327,227.910651 C32.7167595,227.567169 31.1686978,224.729178 32.0170844,221.869264 C32.455905,220.395457 34.3794022,219.072686 35.6276031,219.372319 C36.6661453,219.620796 37.8338958,219.523354 38.7749222,219.952098 C45.6229621,223.077541 52.4539368,226.249269 59.2142125,229.562288 C59.5018838,229.703579 59.7091047,230.008084 59.8821951,230.380799 C60.2941989,230.529397 60.7062027,230.682868 61.1157686,230.848519 C63.3123097,231.72793 65.5405434,232.656063 67.9516191,232.522081 C69.3948514,232.439255 69.3875377,234.675543 67.9540569,234.755932 Z M76.1063693,217.304119 C74.8264758,220.777916 73.4929486,224.234662 72.2423098,227.537936 C61.2303496,222.673158 50.4719302,217.922874 39.7183866,213.167717 C38.7432296,212.736538 37.7705106,212.290742 36.8172946,211.813277 C34.7133934,210.756035 34.1965602,207.189667 35.8250724,204.819397 C36.1176195,204.39309 36.6637074,203.720742 36.9635682,203.784079 C40.6057795,204.551433 44.2187361,205.450332 47.84632,206.288331 C56.6983075,208.337044 65.4649688,210.712186 74.1560553,213.357729 C75.4213215,213.742624 76.5720068,216.044684 76.1063693,217.304119 Z M77.9786707,205.910745 C77.5203469,206.091012 76.9328148,206.198198 76.4696153,206.07396 C66.6059024,203.464957 56.8177642,200.590426 46.8004642,198.553894 C44.2479908,198.035017 41.9003004,196.466205 39.4965384,195.29934 C37.602296,194.380952 37.5632897,189.896197 39.4136501,188.125193 C39.7622687,187.791455 40.2157167,187.479642 40.6716026,187.362712 C41.1762463,187.233601 41.7979089,187.189753 42.2732979,187.367584 C53.8654765,191.689124 65.4942235,195.942456 76.5963857,201.440605 C77.8299593,202.052052 78.5759543,203.642788 79.5706145,204.804781 C78.8685014,205.309042 78.4662492,205.718297 77.9786707,205.910745 Z M86.0554084,193.728093 C85.4361837,194.471086 84.6536202,195.126381 83.819861,195.618462 C83.4395498,195.842578 82.7008684,195.747572 82.254734,195.530765 C71.172075,190.193394 59.8505025,185.45529 48.1242398,181.701347 C46.6078707,181.216575 45.1963309,180.390756 43.7506607,179.691612 C41.1713705,178.439486 40.6691647,173.321359 42.9364046,171.326239 C43.3020885,171.002246 43.7726018,170.800054 44.1163446,170.588118 C45.2524025,170.588118 46.4323424,170.276305 47.34899,170.634403 C60.3039504,175.698937 72.8298418,181.620958 84.2391785,189.672081 C85.065624,190.254295 85.6409667,191.270125 86.1504862,192.183641 C86.3674586,192.575844 86.3308902,193.396791 86.0554084,193.728093 Z M85.1533882,175.655088 C87.0232517,177.530841 89.2466096,179.050932 91.2651845,180.785395 C91.5967379,181.067976 91.957546,181.771993 91.8258998,182.059446 C91.2846877,183.236055 90.2558971,183.659926 89.1759107,183.099636 C77.8177698,177.197103 66.4766941,171.267774 55.1575595,165.29216 C54.8869534,165.148434 54.7723725,164.712382 54.64804,164.295819 C57.1322524,164.534551 59.6725363,164.558911 62.0494814,165.197155 C64.6019548,165.884119 67.2226892,166.914565 69.3558451,168.434656 C72.5397326,170.702612 75.4944583,169.058283 79.0172129,168.636848 C80.94071,170.860955 82.9056513,173.399312 85.1533882,175.655088 Z M85.792116,114.342317 C84.8608411,114.442195 83.5809475,114.222951 82.9446576,113.630992 C80.1995907,111.080455 77.4472101,108.495813 75.0580755,105.623718 C72.5616737,102.622513 72.644562,100.364301 74.9069262,96.7906257 C75.6846139,95.5628599 77.2156104,94.8101225 78.6637185,93.6262056 C82.9373439,98.0671123 85.5580783,103.419099 89.0881466,108.088994 C90.4216737,109.855125 88.1983158,114.088968 85.792116,114.342317 Z M101.436072,105.380114 C100.499921,105.811294 99.300478,105.962328 98.2741253,105.830782 C97.2672757,105.701672 96.0166369,105.307033 95.4096017,104.581092 C90.9336312,99.2388491 86.5966205,93.7772402 83.8320505,87.2876212 C83.6370191,86.829645 83.5785096,86.0817798 83.8271747,85.7139372 C84.3659489,84.912479 85.0704998,84.1694859 85.8579391,83.6165041 C86.1504862,83.4118764 87.0256896,83.6433005 87.3645566,83.9624222 C90.165695,86.600657 91.435837,90.2157451 93.3105763,93.4508104 C94.9342127,96.2522601 96.7236257,98.9733204 99.4662547,100.797917 C100.134237,101.243713 101.582345,101.333846 102.157688,100.902667 C102.87199,100.364301 103.444895,99.0853784 103.371758,98.1840424 C103.247426,96.6371549 102.806167,95.0171862 102.091865,93.6335137 C99.3858043,88.3814045 96.4700849,83.2389174 93.7298938,78.0038605 C92.1891458,75.0635564 92.9180756,72.8930419 96.2653019,69.5654069 C97.3769809,68.4594433 99.458941,68.7468964 100.268321,70.0842841 C100.543803,70.5373881 101.075264,70.86869 101.248354,71.3437184 C104.563888,80.456956 109.515247,88.7979679 113.552397,97.5701595 C113.996094,98.5348326 114.281327,99.575023 114.729899,100.834457 C110.675684,103.372814 105.707259,103.411791 101.436072,105.380114 Z M128.733154,105.063428 C126.558553,104.61276 124.588736,103.721169 123.586763,101.706561 C118.135635,90.7321862 112.747893,79.723707 107.428411,68.6835593 C106.757991,67.2901425 106.416686,65.6531215 106.311857,64.101362 C106.248472,63.1586133 106.716547,62.0039288 107.316268,61.224395 C109.700527,58.120876 113.44513,57.1123541 116.760664,55.4655889 C117.119034,55.2877577 117.706566,55.5679027 118.186831,55.6361119 C118.959643,56.3376923 120.151772,56.9077264 120.429692,57.7700857 C121.726651,61.8066093 122.816389,65.9113421 123.893937,70.0160749 C126.19287,78.76147 128.386973,87.5287894 131.261248,96.1158417 C131.919479,98.0841646 131.785395,100.325324 131.973113,102.444682 C132.08038,103.691936 129.947224,105.316777 128.733154,105.063428 Z M148.111961,118.595648 C144.962204,118.554236 143.501906,116.278971 142.7681,113.769847 C141.422384,109.160853 140.552056,104.420313 139.33311,99.7577263 C135.539749,85.251089 131.407522,70.8516377 127.068073,56.5057793 C125.883257,52.5910579 126.668259,50.6105548 130.220268,48.6008191 C132.626468,47.239071 136.000511,48.4546565 136.736754,50.9345485 C137.041491,51.9625588 137.648526,52.9710806 137.670467,53.9990909 C137.850871,62.6543523 140.286326,70.9588236 141.963596,79.329068 C143.640866,87.7090566 144.559951,96.247388 147.03685,104.49583 C148.397194,109.019563 148.926217,113.808823 148.111961,118.595648 Z M149.640519,120.366652 C149.291901,120.254594 148.772629,120.242414 148.631232,120.006117 C148.4362,119.679688 148.409384,119.255816 148.350874,118.848997 C149.474743,118.941566 149.903812,119.445827 149.640519,120.366652 Z M166.927615,115.752786 C166.252318,116.517703 165.720858,117.630975 164.872471,117.984201 C161.325338,119.467752 158.412056,118.159597 157.202862,114.817345 C154.469984,107.263175 153.460697,99.3070583 151.783427,91.509284 C151.225149,88.9100259 151.688349,85.981902 150.71563,83.5994518 C148.036386,77.0440595 148.597101,69.9235052 146.559023,63.2438748 C144.706225,57.1756912 143.865152,50.7981301 142.585258,44.5569874 C142.312214,43.2269078 143.660369,41.7920784 145.530233,41.3950034 C147.317208,41.0149806 149.30409,41.7092529 149.652709,42.9321466 C150.666872,46.4912057 151.656656,50.060009 152.597683,53.6409925 C156.249646,67.541055 160.179528,81.3802164 163.378043,95.3850287 C164.792021,101.582323 165.635532,107.945267 167.103143,114.164486 C167.215286,114.656566 166.993438,115.221728 166.927615,115.752786 Z M181.645171,117.43122 C180.550558,118.081643 177.87619,117.718673 177.264279,116.775924 C176.401265,115.448281 175.306651,114.110893 174.967784,112.627342 C173.897549,107.947704 173.495297,103.158443 172.493323,98.4252107 C168.612198,80.1207821 164.302004,61.9552079 158.529075,44.1452961 C158.046372,42.6520017 158.121947,40.9735679 157.963484,39.3803956 C157.856217,38.3036645 159.311639,35.6995344 160.272168,35.3925929 C163.82174,34.2549607 167.373749,33.1197646 170.957451,32.0966265 C172.032561,31.789685 173.23688,32.4352365 173.383154,33.6264616 C174.548466,43.1392103 177.032679,52.4741278 177.154573,62.1354751 C177.210645,66.4180391 177.625087,70.698167 177.888379,75.1512539 C180.843105,84.344881 180.377467,94.0598212 180.757778,103.672448 C180.908928,107.472675 181.674426,111.082891 182.744661,114.678491 C183.093279,115.859972 182.739785,116.780796 181.645171,117.43122 Z M195.809326,119.438519 C195.436329,120.549355 194.412414,120.819756 193.249539,120.071891 C192.38165,119.514037 191.218775,118.819764 190.987175,117.969585 C189.590263,112.839278 187.891052,107.757692 187.747216,102.356984 C187.66189,99.1438434 187.508303,95.9331385 187.362029,92.7224335 C187.191377,88.9757991 186.930522,85.2340367 186.818379,81.4874023 C186.628223,75.044068 183.94898,69.007553 184.019678,62.4716491 C184.083064,56.6080931 183.380951,50.793258 181.840203,45.0076554 C180.762654,40.9589516 181.164906,36.5180449 180.933307,32.2500972 C180.872359,31.1343894 182.527688,28.912718 183.646681,28.6934741 C185.219122,28.3865327 186.813503,28.1136958 188.407885,28.011382 C190.753137,27.8627834 192.876542,29.5217288 192.961868,31.4729994 C193.078887,34.1477748 193.149586,36.8225503 193.205657,39.4973257 C193.429943,50.2086076 193.624975,60.9198896 193.866326,71.6287355 C193.927273,74.3035109 193.632288,77.1147048 194.344153,79.6238293 C196.5797,87.501993 196.133566,95.5409355 196.421237,104.04029 C196.089684,108.846603 197.567047,114.208335 195.809326,119.438519 Z M212.17246,61.1634939 C209.115343,76.5203102 209.766261,92.1353471 208.976383,107.645634 C208.700902,113.024418 207.579471,118.142544 205.55602,123.092584 C205.487759,123.260671 204.632059,123.319136 204.610118,123.260671 C204.259062,122.271638 203.75198,121.263116 203.725163,120.249722 C203.469184,110.59081 203.34729,100.927027 203.086435,91.2681157 C202.940162,85.9185649 202.401388,80.6274791 201.650517,75.2949805 C200.460825,66.8297304 200.512021,58.1915212 200.075638,50.3011773 C200.075638,44.2451739 200.146337,38.8761347 200.058573,33.5095315 C199.929365,25.7068852 201.928436,24.4986077 209.890593,25.5241819 C210.763359,25.6362399 211.755581,26.6350176 212.233408,27.4827607 C212.723424,28.347556 212.80875,29.5363451 212.796561,30.5765355 C212.672228,39.7019533 212.486949,48.8249351 212.313858,57.9479169 C212.289479,59.0222119 212.379681,60.1233035 212.17246,61.1634939 Z M223.886534,52.5934939 C223.004017,55.6361119 223.067402,58.9832352 222.911377,62.2036844 C222.545693,69.7456741 222.531065,77.3120243 221.943533,84.8345257 C221.48521,90.7078258 220.16631,96.5104807 219.615346,102.383781 C219.061945,108.283877 219.293544,114.2668 218.591431,120.142536 C218.089225,124.33253 216.631366,128.410466 215.534314,132.522507 C215.441674,132.868425 214.846828,133.080361 214.483583,133.355634 C214.227604,132.880606 213.737587,132.398269 213.752215,131.932985 C213.874109,128.18635 213.359714,124.208292 214.459204,120.751547 C215.985324,115.954977 215.907312,111.202257 216.051147,106.371584 C216.260806,99.3630873 216.472903,92.354591 216.699627,85.3460947 C216.770326,83.1901965 216.555791,80.9587809 217.033618,78.8930163 C220.21263,65.0757793 219.120454,51.0149379 219.639725,37.0466663 C219.739679,34.3524025 219.800626,31.6581387 219.910331,28.9638749 C219.978592,27.3049295 221.092709,26.038187 222.706594,25.643548 C224.00599,25.3244264 225.83441,27.0199125 225.836848,28.4912825 C225.841723,31.1855463 225.839286,33.8798101 225.839286,34.6422916 C225.363897,41.938241 225.419968,47.3048442 223.886534,52.5934939 Z M234.988696,92.8223113 C234.871677,94.4203556 234.803416,96.0890452 234.286583,97.5774676 C232.309452,103.272937 232.772652,109.241242 232.024219,115.068258 C231.45619,119.48724 232.926239,123.267979 234.893618,127.414125 C232.887233,129.258209 230.949108,131.077934 228.952474,132.834321 C228.574601,133.168059 227.716463,133.550518 227.514118,133.382431 C226.802253,132.792908 225.751521,131.967089 225.763606,131.248457 C225.975808,120.013425 225.575993,108.751598 228.065081,97.6359327 C228.99148,93.4970953 228.918344,89.1243977 229.162133,84.8491419 C229.710659,75.2365155 229.727724,65.6458134 231.58296,56.0672915 C232.9945,48.7737782 232.426471,41.1026782 232.814096,33.6021012 C232.921363,31.507104 233.172466,29.3999267 233.586908,27.3463422 C233.833135,26.1210125 234.908245,25.4925134 236.007735,25.8311234 C236.93901,26.1185765 237.994617,26.6301455 238.533392,27.3731387 C239.103858,28.1599807 239.37934,29.3463337 239.350085,30.3475475 C239.035597,40.5350801 238.630907,50.7201767 238.253034,60.9077094 C235.378759,71.3632068 235.761508,82.1524421 234.988696,92.8223113 Z M251.13242,120.215617 C247.646233,121.621214 244.040591,122.734486 240.498333,123.974432 C239.937618,123.063352 238.925892,122.179068 238.955147,121.333761 C239.14774,115.952541 238.83569,110.400799 240.105832,105.25344 C241.675835,98.8783147 242.029329,92.5031896 242.414516,86.0647275 C242.704625,81.2316178 243.326288,76.4715894 244.101538,71.6725843 C245.298543,64.2670129 245.45213,56.6787384 245.798311,49.1538009 C246.120113,42.1501768 246.373654,35.1611688 248.531188,28.4182012 C248.904186,27.2489005 249.918349,26.5838607 250.822807,26.939523 C251.771148,27.3122376 252.604907,28.0698471 253.363091,28.7909159 C253.706834,29.1197817 253.833605,29.7531529 253.906741,30.2695941 C254.060329,31.3244008 254.167596,32.3938237 254.194413,33.4608107 C254.635671,51.7774195 255.008669,70.0964643 255.537691,88.4106371 C255.647396,92.1499634 256.371451,95.8698013 256.7542,99.6042556 C257.136949,103.348454 257.622089,107.092652 257.746422,110.846595 C257.93414,116.632198 257.87563,117.494557 251.13242,120.215617 Z M270.840342,66.9052477 L270.603867,66.9052477 C270.603867,76.0452818 270.455155,85.1877519 270.655062,94.3204779 C270.798898,100.841766 269.509253,107.082908 267.875865,113.302126 C267.76616,113.723562 266.788565,114.344753 266.71299,114.281416 C266.025505,113.699201 264.921139,112.995185 264.916264,112.315529 C264.789493,98.8807507 261.825016,85.6798326 261.932283,72.2012056 C262.034675,59.309665 261.315496,46.4108163 261.008322,33.5144036 C260.935185,30.4279369 263.165857,29.248892 266.398502,30.544867 C266.89827,30.7446225 267.371221,31.0345116 267.885617,31.1611859 C269.728663,31.616726 270.730637,33.2098982 270.752578,34.6495997 C270.913479,45.4022944 270.840342,56.1549891 270.840342,66.9052477 Z M426.034138,273.713135 C426.465645,276.858067 426.646049,280.056591 426.616794,283.233192 C426.60948,284.012726 425.234509,285.552305 424.878577,285.445119 C417.545396,283.247808 410.017184,284.054138 403.685977,283.795918 C397.754585,283.795918 392.947061,283.805662 388.139537,283.78861 C387.054675,283.786174 385.323772,281.53527 385.472483,280.339172 C385.669952,278.743564 385.979565,277.160136 387.569071,276.322137 C388.500345,275.830056 389.485254,275.245406 390.494541,275.135784 C394.20989,274.731401 397.944741,274.485361 401.674716,274.217396 C406.470051,273.873914 411.223941,273.601077 415.897381,272.073678 C418.325522,271.279528 421.170542,271.557237 423.808342,271.713143 C424.617722,271.761864 425.924432,272.926293 426.034138,273.713135 Z M422.382175,255.959252 C422.847812,257.459855 422.903884,259.089568 423.130608,260.663252 C423.31345,261.925122 422.835623,262.989673 421.606925,263.233277 C410.577899,265.420844 399.636638,268.300247 388.229739,267.6888 C387.022983,267.623027 385.109237,265.666884 385.370092,264.392834 C385.572437,263.401364 385.847918,262.044488 386.557345,261.610872 C388.35651,260.509781 390.34583,259.542672 392.386346,259.043283 C399.690272,257.255227 407.050269,255.683979 414.593108,253.983621 C415.409802,253.696168 416.4069,253.264988 417.44788,252.99946 C419.510337,252.473274 421.675186,253.681552 422.382175,255.959252 Z M417.620971,240.75347 C418.691206,242.356387 418.601003,244.105466 417.177274,244.755889 C415.224522,245.647481 413.332718,246.804602 411.28245,247.318607 C404.531926,249.011657 397.720455,250.465975 389.758298,252.278391 C389.70954,252.297879 388.783141,252.624309 387.837239,252.899582 C386.194099,253.379482 384.919081,252.448914 384.531457,250.636498 C384.129204,248.748564 384.706985,246.875247 385.835729,246.385602 C386.803572,245.966603 387.732409,245.416057 388.739259,245.123732 C393.880774,243.630438 398.936963,241.878922 404.246693,240.899633 C407.359881,240.324727 410.243908,238.512311 413.559442,238.629241 C415.207457,238.687706 416.618997,239.252868 417.620971,240.75347 Z M413.859303,228.724289 C414.480965,228.782754 414.74182,229.372277 414.641866,229.837561 C414.680872,229.99834 414.678435,230.173735 414.634552,230.33695 C414.675997,230.436828 414.700376,230.544013 414.700376,230.648763 L414.700376,231.192001 C414.700376,231.547663 414.441959,231.920378 414.083589,232.003203 C411.414097,232.607342 408.739729,233.165196 406.050733,233.598812 C405.84595,233.874085 405.628978,234.076276 405.377875,234.124997 C398.149524,235.576879 391.255164,238.166393 384.165773,240.061634 C383.570927,240.219977 382.378797,239.323513 381.939977,238.621933 C381.281746,237.569562 381.735194,236.453854 382.844435,235.978826 C385.238445,234.950816 387.642207,233.908189 390.121544,233.123783 C391.603783,232.656063 393.232295,232.539133 394.802297,232.478232 C395.913976,232.434383 397.025655,232.400278 398.137334,232.371046 C400.487463,231.781523 402.781519,230.941088 405.087766,230.227328 C407.884028,229.360096 410.897263,228.449016 413.859303,228.724289 Z M397.113419,153.591845 C397.347457,154.612547 397.342581,155.686842 397.444973,156.739213 C397.006152,157.662473 396.808683,159.065634 396.084629,159.433476 C389.933826,162.554048 383.692822,165.499224 377.456693,168.449272 C377.130015,168.602743 376.332824,168.461453 376.21093,168.225156 C375.757482,167.336001 375.150446,166.325043 375.218707,165.404218 C375.42349,162.629565 376.632685,160.205702 379.138838,158.841518 C383.80984,156.298289 388.578358,153.935327 393.320059,151.523644 C394.402483,150.968226 396.806245,152.244713 397.113419,153.591845 Z M392.10355,137.411646 C393.580913,139.467666 393.307869,141.538303 391.569652,142.939028 C388.273621,145.599187 384.602155,147.57969 380.706403,149.16799 C380.321216,149.326333 379.814135,149.189915 379.343621,149.189915 C379.019382,148.8172 378.475732,148.471282 378.363589,148.018178 C377.095885,142.926848 377.797998,140.532217 381.203733,138.485941 C383.00046,137.406774 384.858134,136.425048 386.727998,135.474992 C388.429647,134.602888 390.7042,135.462811 392.10355,137.411646 Z M383.168675,120.259466 C384.034126,121.535952 385.011721,122.761282 385.745527,124.118158 C386.75969,125.996348 386.511025,127.27527 384.958088,128.066984 C382.646966,129.243593 380.257831,130.278911 377.863821,131.280125 C377.532267,131.41898 376.947173,131.085242 376.530294,130.873306 C375.360105,130.278911 375.109002,129.370267 375.647776,128.171734 C377.195838,124.722297 379.728808,122.2083 383.168675,120.259466 Z M374.099715,109.531132 C374.682371,109.143801 376.196302,109.501899 376.84722,110.040265 C377.554208,110.622479 377.758991,111.81614 378.183185,112.744273 C378.041787,113.760103 378.112486,114.866066 377.717547,115.769838 C376.644874,118.227806 374.911533,120.242414 372.471203,121.375174 C371.752024,121.708912 370.386805,121.362993 369.692005,120.834372 C368.975265,120.288698 368.317034,119.141322 368.321883,118.259474 C368.343851,114.169358 370.996278,111.601768 374.099715,109.531132 Z M280.001942,104.24979 C279.107236,102.873426 278.244222,102.152357 278.202777,101.385003 C277.976053,97.0878229 277.854159,92.7784625 277.871224,88.4739742 C277.927296,73.3997389 278.037001,58.3255036 278.178398,43.2488322 C278.197902,41.1246026 278.5002,39.0003729 278.700107,36.8785793 C278.812251,35.6849181 280.930779,34.3085537 282.473965,34.6154951 C284.036654,34.9248726 285.818753,35.1562967 286.996255,36.074685 C288.127438,36.9540966 288.605264,38.669071 289.368325,40.0162029 C286.986504,46.1623399 288.222515,52.9223598 286.301456,59.0733688 C284.336515,65.3632324 285.07032,71.9795257 283.527135,78.1670754 C281.430547,86.5665524 280.96491,95.1219361 280.001942,104.24979 Z M301.68212,77.689611 C301.216482,80.3107934 300.597257,82.9319759 300.441232,85.5775188 C299.936589,94.1499548 296.95017,102.264415 295.90919,110.739409 C295.738538,112.125518 294.38307,113.467777 293.339652,114.61759 C291.811093,116.29846 287.393632,115.896512 286.130804,114.09384 C285.84557,113.687021 285.365305,113.180324 285.431129,112.795429 C286.147869,108.605435 287.064516,104.449545 287.715434,100.252243 C288.856367,92.8856484 291.021216,85.7261175 291.262567,78.1573313 C291.499043,70.7152193 294.500088,63.6092813 294.553722,56.0307509 C294.587853,51.2098214 297.220776,46.9662342 298.008216,42.1988976 C299.790315,42.8663735 300.76791,43.2195997 301.738191,43.5971864 C306.340932,45.3901142 306.860203,48.3888834 306.428696,50.9564729 C304.926954,59.8821352 303.264312,68.7785649 301.68212,77.689611 Z M307.308775,122.383695 C307.555002,122.486009 307.803668,122.588323 308.049895,122.693073 C307.508683,122.905009 307.379474,122.673585 307.308775,122.383695 Z M307.65008,107.794233 C306.141025,112.264372 306.479892,116.963499 306.650544,121.606598 C304.631969,120.846552 303.322821,119.465316 303.522728,117.134022 C303.885974,112.883127 303.737263,108.420296 305.053725,104.461726 C306.784628,99.2510293 306.850452,93.9575074 307.547689,88.6810379 C308.244926,83.3972602 310.495101,78.4058077 310.453657,72.9588151 C310.436591,70.8345854 310.699884,68.6640709 311.165521,66.5885621 C312.206501,61.9454638 313.420572,57.3389061 314.644394,52.7372205 C314.985699,51.4607339 316.04862,51.0222461 317.240749,51.636129 C318.140332,52.0989772 319.154495,52.7031159 319.632322,53.5264985 C320.124776,54.3791136 320.253984,55.5922631 320.151593,56.6105292 C319.8883,59.2682523 319.773719,62.0209811 318.959463,64.5276696 C314.342095,78.7346735 312.425912,93.6335137 307.65008,107.794233 Z M340.705464,107.645634 C339.754686,108.142587 339.313427,108.488505 338.816097,108.615179 C330.966084,110.585938 323.435434,113.302126 316.714164,117.950097 C316.328977,118.215626 315.373324,118.347172 315.22705,118.147416 C314.622453,117.319162 313.693616,116.237559 313.847203,115.431228 C314.639518,111.23149 315.707315,107.085344 316.716602,102.927018 C320.256422,88.3472999 323.808431,73.7748895 327.440891,58.854125 C332.13871,59.4314672 335.654151,61.2292671 338.02622,65.7676155 C334.471773,76.0842585 330.800307,86.715151 327.15322,97.3557877 C326.104926,100.413022 325.237036,103.516541 326.270703,106.763787 C326.42429,107.248559 326.88749,107.996424 327.211729,107.99886 C328.150318,108.006169 329.266873,107.945267 329.988489,107.445879 C330.822248,106.868536 331.512172,105.877067 331.916862,104.919702 C333.379597,101.458084 334.774072,97.9623624 336.051527,94.4276638 C338.76734,86.9124705 341.395388,79.3631726 344.035625,71.8991363 C346.653922,72.3156997 348.153225,73.8504069 349.652529,75.4167827 C351.246911,77.0830362 352.183062,79.0903358 351.339551,81.246234 C347.833862,90.2084369 344.606092,99.2973141 340.705464,107.645634 Z M351.654039,109.933079 C350.130356,109.080464 348.947978,107.594477 349.430681,106.115799 C351.412688,100.05736 353.294741,93.935583 356.449373,88.3302476 C357.075912,87.2169759 358.129081,86.5641163 359.060356,87.1877434 C360.264675,87.9940737 361.164257,89.251072 361.954135,90.0671464 C361.815175,91.6432664 361.985827,92.807695 361.588451,93.7236473 C359.25295,99.0975586 356.822371,104.430057 354.330845,109.733323 C353.892024,110.65902 352.807162,110.576194 351.654039,109.933079 Z M366.803103,107.596913 C366.027853,108.6639 365.208721,109.694346 364.372524,110.712613 C364.019029,111.224182 363.653346,111.726007 363.268159,112.215651 C363.168205,112.342325 363.051186,112.412971 362.931729,112.437331 C362.229616,113.268022 361.52019,114.096277 360.822952,114.931839 C360.279302,115.579827 359.421164,114.749136 359.730777,114.091404 C359.913619,113.701638 360.101336,113.314307 360.289054,112.926976 C360.157408,112.710168 360.162284,112.410535 360.274427,112.191291 C360.893651,110.980577 361.603078,109.818585 362.395393,108.717493 C362.556294,108.050017 362.841527,107.443443 363.348609,106.944054 C363.660659,106.369148 363.97271,105.794241 364.294511,105.224207 C364.50417,104.812516 364.716267,104.405697 364.942991,104.00375 C365.096578,103.728477 365.259917,103.448332 365.425693,103.165751 C365.625601,102.057351 366.0888,101.031777 367.015199,100.157237 C367.117591,100.059796 367.271178,99.9988946 367.446706,99.9623539 C367.502778,99.8746564 367.556411,99.7893948 367.612483,99.7016973 C367.841645,99.3435989 368.234146,99.3168025 368.531568,99.4678371 C368.833867,99.2534653 369.153231,99.063454 369.492098,98.9099832 C369.947984,98.7029196 370.552581,98.9392158 370.537954,99.5092499 C370.462379,102.481223 368.482811,105.285108 366.803103,107.596913 Z M361.685966,190.161725 C360.506026,190.190958 359.02135,187.623368 359.435792,186.570998 C360.488961,183.90353 362.436837,181.918155 364.95518,181.016819 C375.60877,177.204412 385.957624,172.670935 396.311353,168.147203 C398.312863,167.272663 400.487463,168.675824 400.86046,171.111868 C401.101811,172.700168 401.179824,174.312828 401.377293,176.393209 C400.631298,177.384679 399.938937,178.948619 398.739494,179.745205 C396.969584,180.919377 394.902251,181.759812 392.849546,182.371259 C384.090198,184.977825 375.304034,187.496694 366.491052,189.915685 C364.979559,190.327376 363.292538,190.120313 361.685966,190.161725 Z M372.749122,205.196984 C372.278609,205.389431 371.695953,205.313914 371.208374,205.360199 C368.953324,204.75606 367.675868,203.165324 366.717776,201.204309 C365.91571,199.557544 366.371596,197.664738 367.81239,197.204326 C378.412346,193.808482 389.017179,190.432126 399.629324,187.075259 C400.116903,186.921788 400.787323,186.83409 401.199327,187.048462 C402.09891,187.513746 403.261784,188.030188 403.610403,188.834082 C403.939518,189.594127 403.693291,191.065497 403.115511,191.657456 C402.05259,192.748803 400.655677,193.642831 399.236824,194.242098 C390.433594,197.957064 381.591358,201.577024 372.749122,205.196984 Z M375.740416,216.904608 C374.675057,215.808388 374.987108,213.518508 376.040277,212.668328 C376.859409,212.005725 377.561522,211.145801 378.470856,210.665901 C380.352909,209.674431 382.298347,208.78284 384.285229,208.022794 C390.738331,205.557518 397.220687,203.170196 403.690853,200.756077 C404.900048,200.302973 405.953217,200.597734 406.409103,201.776779 C406.950315,203.177504 407.237987,204.675671 407.564664,205.871768 C406.672396,207.048377 406.221386,208.24691 405.399816,208.614753 C402.008707,210.122663 398.539587,211.484411 395.031459,212.702433 C389.516947,214.617163 383.968303,216.446631 378.375778,218.117757 C377.661476,218.327257 376.386458,217.572083 375.740416,216.904608 Z M379.845827,227.562297 C379.719057,227.433186 379.931153,226.656089 380.177381,226.51967 C389.036682,221.613479 398.85895,219.313854 408.369169,216.171359 C409.563736,217.136032 410.853381,218.005699 411.926054,219.089738 C412.935341,220.112876 412.133275,222.400321 410.75099,223.118954 C409.817277,223.603726 408.920133,224.412493 407.942538,224.522115 C400.024263,225.421015 392.20838,226.919181 384.387621,228.397859 C383.363706,228.590307 382.273968,228.424656 381.340255,228.424656 C380.742972,228.103098 380.20176,227.925267 379.845827,227.562297 Z M424.166712,347.383953 C423.791277,347.724999 423.259816,348.10015 422.791741,348.102586 C410.031812,348.148871 397.27432,348.158615 384.514391,348.146435 C383.222308,348.146435 381.581607,346.353507 381.525535,345.035608 C381.608423,343.988109 381.44996,342.833425 381.849775,341.927217 C382.230086,341.067293 383.407588,339.72747 383.880539,339.859016 C393.210354,342.47289 402.844905,341.849263 412.325868,342.784704 C416.49954,343.196395 420.678088,344.029522 424.303234,346.41928 C424.430004,346.504542 424.361743,347.208558 424.166712,347.383953 Z M425.358841,334.602035 C424.956589,334.928464 424.634787,335.508243 424.193529,335.608121 C423.167176,335.839545 422.08719,335.966219 421.036458,335.924806 C414.668683,335.673894 408.308222,335.191557 401.940446,335.120912 C396.009054,335.052703 390.406777,333.566716 384.814252,331.912643 C383.585554,331.549673 382.993146,330.602052 383.373458,329.654431 C383.751331,328.711682 384.280354,327.6788 385.050728,327.081969 C385.833291,326.477831 386.988852,326.085628 387.988388,326.071011 C393.82714,325.978442 399.668331,326.027163 405.507083,326.027163 C405.507083,326.066139 405.507083,326.105116 405.507083,326.144093 C411.345836,326.144093 417.18215,326.129476 423.020902,326.156273 C424.469011,326.163581 426.209666,327.48148 426.594853,328.726298 C427.21164,330.721418 426.599729,333.595949 425.358841,334.602035 Z M427.019046,315.211131 C426.84108,316.531466 425.066294,318.631335 424.086261,318.675184 C422.474815,318.74583 420.863368,318.826219 419.9004,318.872504 C417.099262,318.748266 414.931975,318.779934 412.798819,318.531458 C408.542259,318.032069 404.310078,316.977262 400.053518,316.911489 C396.352797,316.85546 392.639887,317.876162 388.924539,318.363371 C386.99129,318.616719 384.967839,316.63378 384.763056,314.375568 C384.714298,313.842075 384.721612,313.303709 384.726488,312.767779 C384.731364,312.23185 384.736239,311.691048 384.787435,311.157555 C385.014159,308.762924 386.720684,306.870119 388.670998,306.887171 C391.357555,306.911532 394.112374,306.61677 396.720919,307.091799 C405.721618,308.723948 414.790578,309.620412 423.896106,310.319556 C425.797662,310.465719 427.323783,312.967535 427.019046,315.211131 Z M427.123875,299.367106 C427.062928,300.358575 425.08336,302.931037 424.361743,302.901805 C419.58835,302.706921 414.624801,303.252595 410.092759,302.100346 C403.291039,300.370756 396.438123,300.224593 389.573018,299.669175 C386.294053,299.403647 385.053166,297.856759 385.306706,294.363473 C385.40666,292.996853 386.99129,290.933524 388.022519,290.931088 C393.866147,290.914036 399.707337,290.921344 405.550965,290.921344 C405.550965,290.789798 405.550965,290.658251 405.550965,290.526705 C410.865571,290.526705 416.180176,290.531577 421.492344,290.524257 C425.631885,290.519397 427.167758,291.998075 427.275025,296.197814 C427.30428,297.25262 427.189699,298.309863 427.123875,299.367106 Z"/>
    <path fill="#000" d="M406.907834 233.002195C406.917051 232.984146 406.9447 232.966585 407 232.95 406.526882 232.972927 406.059908 232.996341 405.596006 233.019756 405.396313 233.029512 405.196621 233.039756 405 233.05 405.632873 233.03439 406.271889 233.01878 406.907834 233.002195zM221.988033 267.470041C221.100241 276.491054 221.12685 285.584993 220.97445 294.664347 220.921231 297.875546 221.557442 301.013818 223.199978 303.926017 224.508686 306.245081 225.481145 308.756185 226.572138 311.196793 226.927738 311.989262 225.125544 314.305895 223.83377 314.806657 222.825025 315.20046 221.850147 315.010851 221.032507 314.070099 219.985058 312.869242 218.877132 311.685401 218.035301 310.343553 215.161467 305.766197 213.114949 306.590267 210.5314 308.821819 208.523587 310.557471 206.764936 312.696649 204.038663 313.326248 203.042014 313.557182 201.941345 313.481825 200.90599 313.372435 199.86096 313.260614 198.6853 310.251179 199.077187 309.34689 200.412504 306.259667 203.090395 304.42678 205.378819 302.217106 206.530288 301.106191 207.662404 299.958814 208.697759 298.73851 210.105647 297.080646 211.039401 295.169971 211.14584 292.945712 211.559498 284.39629 211.96348 275.846869 211.760279 267.744731 209.481532 263.517423 205.845696 261.020904 204.103978 256.912709 201.075324 249.758616 203.029919 241.513055 209.48637 237.120447 210.799915 236.225881 212.321499 235.647331 213.666492 234.79409 219.075494 231.35925 223.983752 233.381746 228.529151 236.464108 233.200342 239.63155 235.329108 248.414336 233.130189 254.015095 231.548129 258.045501 229.540315 261.774478 225.759336 264.253981 224.465143 265.10479 223.37415 266.274046 221.988033 267.470041zM152.230913 241.995486C145.417504 242.174139 141.938475 237.019747 142.000823 231.935367 142.058184 227.181738 144.517196 222.821629 149.173358 220.192527 153.834508 217.561011 160.802541 219.468257 163.403707 224.110831 168.042412 232.384415 162.042023 241.993071 152.230913 241.995486zM289 233.825402C289.056464 232.851612 289.088378 232.323943 289.117838 231.798672 289.5941 223.818873 296.305952 219.909323 304.097985 223.128106 305.065238 223.528655 305.985847 224.185843 306.737064 224.912588 310.731279 228.783762 310.480873 233.487214 309.029994 238.20026 307.878619 241.941915 303.82303 244.995201 299.092328 245 294.415635 245.002397 290.362501 242.241727 289.55973 238.094726 289.260225 236.542899 289.144842 234.959891 289 233.825402zM161 286.367215C160.316584 287.322991 159.568789 288.87353 158.38024 289.813723 157.778537 290.289014 156.36466 289.733209 155.349441 289.491668 154.851736 289.374793 154.391173 288.96703 153.977657 288.608614 151.897697 286.819131 151.417325 284.528385 152.732157 282.725915 153.829089 281.222126 155.346965 280.848127 157.045599 281.05071 158.986895 281.287056 160.908383 283.62715 161 286.367215zM144.092945 279.925107C141.583714 278.838253 140.671266 277.105741 141.102962 274.407436 141.419375 272.427423 142.393143 271.388992 144.262189 271.041952 145.736331 270.767548 147.100097 271.854403 147.79915 273.858628 148.47858 275.811738 147.357643 279.010428 145.589162 279.892825 145.14275 280.113424 144.52464 279.925107 144.092945 279.925107zM278.332732 289.910395C277.536294 289.910395 276.833249 290.136721 276.436327 289.86998 274.988728 288.897318 273.97956 287.482781 274.000314 285.631758 274.021068 283.831928 274.796753 282.269202 276.252134 281.237263 276.646462 280.95705 277.35729 280.954356 277.863171 281.078296 280.120179 281.641417 281.10081 283.346944 280.991851 286.340374 280.926995 288.150981 279.842593 289.511631 278.332732 289.910395zM177.94936 277.053604C178.407739 279.701969 175.677153 282.904275 172.879076 282.999236 171.616427 283.041441 169.355468 281.326862 169.051757 279.680867 168.87178 278.704876 169.175491 277.451914 169.740731 276.605176 170.348153 275.697768 171.430825 274.977645 172.460068 274.434255 174.715402 273.239326 177.530352 274.640005 177.94936 277.053604zM311 272.216814C310.466929 274.319396 307.340738 276.509867 305.95824 275.894642 305.131232 275.52731 304.501012 274.418553 304.214548 273.528393 303.728805 272.032021 304.007796 270.495086 305.674267 269.670279 306.551095 269.237593 308.132873 268.76209 308.618615 269.133929 309.737069 269.994793 310.379744 271.358204 311 272.216814zM167.83232 264.848369C166.486315 267.027032 164.297642 267.517669 160.443429 266.472144 158.930587 266.061333 158.628018 265.368211 159.436753 264.445346 161.628253 261.939592 163.72361 261.404174 166.653152 262.634661 167.880392 263.150609 168.256482 263.906034 167.83232 264.848369zM287.94344 267.73782C287.523935 269.130109 286.341201 269.941626 284.644235 269.998334 282.630611 270.066775 280.500607 268.011584 281.104153 266.59583 281.45329 265.778446 284.12459 264.779205 285.323563 265.043193 286.887911 265.389309 288.303403 266.752267 287.94344 267.73782zM293.027762 282.919536C291.58304 282.453398 290.727368 281.182299 291.078731 280.046729 291.454896 278.833127 293.027762 277.744787 294.017779 278.052808 295.357092 278.471716 296.320241 279.855756 295.900672 280.892759 295.278553 282.439023 294.127322 283.272733 293.027762 282.919536zM309.829559 294.973142C309.120784 296.51724 307.598807 297.368617 306.4701 296.845724 305.328062 296.316128 304.625953 294.296063 305.210303 293.221228 305.919078 291.916231 307.325518 291.641377 308.856382 292.472642 309.905102 293.040227 310.240603 293.851381 309.829559 294.973142z"/>
  </g>
</svg>
