<svg xmlns="http://www.w3.org/2000/svg" width="663" height="421" viewBox="0 0 663 421">
  <g>
    <path d="M500.181814,376.639368 C496.887335,378.678962 494.113222,380.220067 491.521941,382.027969 C481.04782,389.343828 469.314976,392.201366 456.699619,392.067967 C453.486008,392.032863 450.275913,392.074988 447.062302,392.060946 C440.645628,392.032863 434.260598,392.138177 427.977532,390.179324 C425.52689,389.414038 422.675426,389.712429 420.031404,389.894975 C419.24734,389.951143 417.964005,391.214919 417.904233,392.001268 C417.542087,396.768512 417.559667,401.56384 417.253776,406.338105 C417.14478,408.061756 415.601262,408.95693 414.226512,409.817 C413.227972,410.438357 412.201304,410.424315 411.375048,409.444888 C410.36596,408.244301 409.476415,406.934889 408.636095,405.607924 C408.372396,405.193686 408.361848,404.57584 408.347784,404.049267 C408.017281,393.275576 404.898602,383.095157 402.01901,372.812935 C397.993206,358.444503 393.75996,344.156813 389.080183,329.981458 C385.873604,320.274956 381.805608,311.123111 376.078068,302.627727 C371.904593,296.438735 368.279611,289.881142 364.397963,283.492052 C363.216592,281.550751 360.780014,280.279954 359.022021,281.069814 C355.055989,282.846122 350.703199,283.081324 346.677395,284.359142 C341.480769,286.005562 336.263046,286.647981 330.911716,286.953394 C328.246599,287.104345 325.465454,287.027114 322.95504,287.778359 C317.185308,289.502009 311.320644,289.315953 305.445431,289.400205 C293.13245,289.575729 280.822984,289.730191 268.510002,289.996988 C265.310455,290.067198 261.959721,289.986456 258.957069,290.895673 C252.150121,292.95282 245.223629,292.935267 238.276041,292.95633 C226.497489,292.991435 214.715421,292.998456 202.936869,292.81591 C194.400056,292.686022 185.859727,292.987924 177.396749,290.87461 C173.325238,289.860079 168.874,290.161981 164.598562,290.200596 C153.797454,290.29889 143.365524,288.14345 133.003914,285.440373 C130.940031,284.903268 128.918339,283.934373 126.836875,283.790443 C119.252894,283.260359 112.252567,280.669618 105.1995,278.17015 C104.225572,277.826122 103.121552,277.843675 101.999953,277.682192 C97.9284412,280.286975 94.9046936,284.064261 91.7262425,287.64496 C87.1132693,292.836973 82.767511,298.264189 78.1264099,303.428119 C69.4595053,313.078453 62.9795437,323.999585 57.986844,335.942268 C51.8092572,350.721427 46.6302103,365.834083 41.8273739,381.090668 C39.4294717,388.71194 37.0350854,396.340233 34.4191921,403.887784 C33.94805,405.249854 32.4994639,406.338105 31.3427046,407.37721 C29.9749862,408.605881 26.4238407,407.331574 26.1777217,405.548245 C25.9597306,403.975546 25.597584,402.294022 25.9351187,400.805575 C26.6418318,397.698792 27.7669472,394.690303 28.7197793,391.639688 C33.1710172,377.401144 37.3233962,363.071328 42.530571,349.071498 C46.0711686,339.551051 50.1567439,330.286871 54.7380733,321.229809 C59.1049275,312.597516 64.5230614,304.684874 71.1436624,297.611239 C78.0842181,290.197086 85.0704816,282.825059 92.2536404,275.203787 C91.3289361,273.93299 90.7066067,272.258487 89.5146875,271.573941 C81.1712535,266.789145 72.8418835,261.94818 64.2628784,257.609216 C41.9398854,246.319483 23.2805495,230.571429 7.25117081,211.569152 C5.19783518,209.136383 3.6226736,206.303418 1.7592012,203.705656 C-0.315230348,200.809503 -0.543769416,197.69921 1.01381224,194.638063 C5.37363447,186.07247 9.61391318,177.429646 14.4413615,169.127339 C17.6655204,163.577256 20.6365283,157.928879 23.5864402,152.241887 C29.7288672,140.390476 36.1877329,128.704058 42.4883792,116.936898 C43.2302522,115.553766 43.7928099,114.072339 44.5979706,112.28199 C41.057373,106.991683 37.3339442,101.841796 33.216725,96.9516843 C24.9928345,87.1855037 22.1554341,75.2252675 19.7610478,63.1491852 C19.2512299,60.5795072 19.3567095,57.7711159 19.7575318,55.1593121 C20.8052956,48.3173689 21.8495433,41.4473418 23.4985406,34.7352868 C25.2916933,27.4229381 28.797131,20.7986452 33.5155838,14.8729397 C38.3008403,8.86298245 44.8827654,5.24717873 51.4049189,1.55063376 C60.9719159,-0.229184194 70.6549404,-1.02606521 79.9476905,2.21762668 C88.0731334,5.05059134 95.3371598,9.6809264 101.212372,16.1718207 C107.664206,23.2981134 114.720789,29.8873014 120.244402,37.8350486 C121.503125,39.646461 124.122534,40.2467546 125.964911,39.2427547 C139.599903,31.7934969 154.001381,26.166183 168.532949,20.7565194 C178.121042,17.186352 188.071282,15.4837648 198.028553,13.6583105 C201.17536,13.0825903 204.434679,13.1176952 207.581486,12.5384645 C219.261591,10.3795137 230.906535,9.98282846 242.565544,12.6332477 C244.123125,12.9878071 245.743995,13.3423665 247.319156,13.2932196 C258.116748,12.9386602 268.45023,16.3157507 279.100151,17.0950793 C303.803466,22.146673 327.926644,28.7569239 349.289773,42.8796214 C350.618815,43.7572436 352.032242,44.5155093 353.414024,45.3088798 C354.500464,45.9337469 357.126905,45.6037609 357.907454,44.6910337 C360.685082,41.4508523 363.487323,38.2282234 366.173536,34.9143217 C370.572034,29.4906161 375.687793,24.8006028 380.842228,20.1176104 C389.382557,12.3559191 399.607044,7.76770987 410.496051,4.82943053 C418.294508,2.72664759 426.441046,3.28832584 434.40827,4.73815782 C435.944756,5.01899694 437.414438,5.8650248 438.827864,6.61977995 C451.337741,13.3142826 457.817702,19.103079 463.387024,32.7097346 C463.991773,34.191161 464.557847,35.6936503 465.26456,37.1294403 C470.461187,47.6784599 470.176392,58.8488361 468.871961,70.0753801 C468.569587,72.6626105 467.342508,75.1480368 466.516251,77.6720784 C466.115429,78.9007495 467.810134,81.0351269 469.033697,80.9157703 C469.564611,80.8631129 470.155296,81.0456584 470.629954,80.8736444 C478.822201,77.9458965 487.390658,77.7422882 495.930987,77.2508197 C499.119986,77.0647638 502.330081,76.7382883 505.459308,76.1064003 C509.727715,75.24282 514.101601,74.9023025 518.208272,75.8992814 C524.041293,77.317519 529.895409,77.2578407 535.756557,77.4123022 C561.103297,78.0828056 583.971268,86.0410843 604.564396,100.623656 C610.664631,104.945068 616.708611,109.406899 622.330672,114.321584 C630.821777,121.746268 637.062652,131.224589 644.389966,139.716462 C645.416634,140.906518 646.133895,142.409007 646.81248,143.851818 C649.769424,150.121551 653.193994,156.236823 655.479385,162.748781 C663.50638,185.630148 662.514872,182.210932 662.820763,203.326524 C662.834827,204.393712 662.746927,205.471432 662.827795,206.5316 C663.893139,220.784186 659.881399,234.067876 654.498425,246.919777 C646.358918,266.357354 634.555754,283.470989 619.461628,298.183448 C608.991022,308.38844 596.737812,315.950033 582.659806,320.190704 C573.465503,322.96048 564.169237,325.445906 554.415893,325.32655 C531.154132,325.038689 530.292715,327.057221 502.945379,316.076411 C499.928663,314.865292 496.563865,317.048816 495.945051,320.524201 C494.436693,329.009053 494.496465,337.536031 495.396557,346.063008 C495.561809,347.614645 496.159526,349.180323 496.824047,350.616113 C499.288753,355.945035 501.890583,361.172153 505.167481,366.111411 C511.36968,375.449312 516.79133,385.219003 520.999965,395.687282 C523.890105,402.873253 524.723394,410.087308 523.904169,417.634859 C523.851429,418.129838 523.485767,418.586202 523.352159,419.084691 C522.852889,420.906635 519.593571,421.598201 517.979733,420.411656 C516.112745,419.039055 514.836442,417.06616 514.892698,415.068692 C515.268908,402.100945 508.982326,391.450121 503.240721,380.60271 C502.502364,379.212557 501.306929,378.078669 500.181814,376.639368 Z M257.019761,135.560043 C259.72707,136.11119 262.406251,135.788225 264.892053,134.763162 C272.827632,131.487876 281.206226,129.781778 289.444181,127.552617 C298.272821,125.161974 307.555023,126.151932 316.373115,123.687569 C317.772477,123.294394 319.505858,124.073723 321.08102,124.322967 C323.190611,124.656464 325.296687,125.284841 327.402762,125.291862 C338.158162,125.323457 348.670959,127.134869 359.145081,129.300841 C366.454815,130.813862 373.971992,131.702015 381.018027,134.015428 C394.234618,138.354392 407.015225,143.862349 418.421083,152.059341 C420.590446,153.617999 422.626202,155.394306 424.908077,156.770418 C429.918356,159.796459 434.851284,163.043662 440.744076,164.184571 C441.035903,164.240738 441.858643,163.408753 441.795681,163.166529 C440.406541,158.118446 438.476265,153.179187 437.558593,148.057384 C435.635349,137.304756 430.403562,128.016002 425.368671,118.611402 C424.11698,116.273416 422.608622,113.995109 420.843597,112.025724 C414.064777,104.453599 407.053901,97.1342297 398.844075,91.0014053 C391.144066,85.2477138 383.408898,79.4624278 376.306607,73.0101489 C368.339383,65.7785415 359.651383,59.6632695 350.731327,53.744585 C329.979979,39.9764469 307.477671,30.7894971 282.890383,26.4013858 C275.007544,24.9936797 267.04032,24.0598896 259.24538,22.3959178 C253.422907,21.1532046 247.635595,20.380897 241.774447,20.2861138 C230.002927,20.0930369 218.224375,20.1000579 206.456371,20.3141977 C197.32184,20.4827012 188.507264,23.0032324 179.777072,25.3096237 C166.862856,28.7253295 154.585034,34.0718043 142.30018,39.2919016 C137.85949,41.1805447 133.770399,43.6659709 129.607472,46.0882084 C117.083531,53.3724732 104.974477,61.1587379 94.6304467,71.4198974 C94.2542362,71.7955197 93.825286,72.1325267 93.3752398,72.4168763 C86.5225837,76.7137149 81.0165502,82.6043155 74.9831188,87.8735596 C58.9537401,101.880411 47.5935904,119.116912 39.3696999,138.565021 C39.2220285,138.91607 39.4646315,139.554979 39.7212985,139.91656 C39.9744494,140.267609 40.6143588,140.741525 40.8569618,140.639721 C42.8153659,139.783161 44.742126,138.845861 46.6372423,137.848882 C58.0395838,131.849456 69.8708756,127.043596 82.6268716,124.758268 C87.6125393,122.444856 93.2767922,123.459387 98.3081677,121.700632 C103.497763,119.885709 108.796353,119.60136 114.133619,119.555723 C123.23299,119.474982 132.335877,119.576786 141.431732,119.776884 C144.075753,119.836562 146.79361,120.194632 149.328636,120.924814 C164.742717,125.372604 179.903647,130.476855 193.696859,138.940644 C195.479464,140.035916 197.497639,140.762588 199.452527,141.555958 C199.751386,141.675315 200.359652,141.292671 200.690154,140.99428 C201.066365,140.653762 201.611343,140.078042 201.537507,139.716462 C200.444035,134.506896 199.069285,129.357009 199.114993,123.954366 C199.167733,117.540703 199.19586,111.120018 198.918098,104.716886 C198.654399,98.6191666 200.602255,93.0409995 202.943901,87.7015456 C205.805914,81.172036 211.097472,76.5557429 217.09926,72.817072 C217.985288,72.2659252 219.0436,71.9218973 220.070267,71.6831841 C222.151731,71.1987366 224.335158,71.0618275 226.35685,70.412387 C233.096994,68.2499258 239.158554,70.6195059 244.545044,73.929897 C252.568523,78.8621342 257.958529,86.3956437 260.057572,95.5474886 C261.354971,101.206397 263.534882,106.784564 263.13406,112.829626 C262.771913,118.263863 260.627162,123.153975 259.059033,128.226631 C258.58789,129.750183 257.772182,131.171932 257.371359,132.706015 C257.111176,133.695973 257.322136,134.808798 257.322136,135.868966 C256.896701,136.009385 256.422043,136.076085 256.070445,136.321819 C255.85597,136.47277 255.831358,136.897539 255.722362,137.195931 C256.516975,137.269651 256.945925,136.725525 257.019761,135.560043 Z M251.953225,191.882329 C250.901946,191.159168 249.850666,190.709826 249.179113,189.930497 C243.894586,183.801183 238.269009,178.233548 229.879867,176.495856 C229.204798,176.355436 228.406669,174.845926 228.382058,173.950751 C228.325802,171.847968 228.346898,169.615297 228.986807,167.645913 C230.14005,164.10734 231.588636,160.628445 233.248182,157.28997 C236.809875,150.121551 240.462984,142.991748 244.309473,135.97077 C247.660207,129.855498 250.592539,123.589275 252.30834,116.835094 C252.955281,114.28999 253.468615,111.513193 253.141629,108.957557 C252.259116,102.052425 250.314776,95.3860061 246.710891,89.333923 C243.216001,83.4678958 237.889283,80.1294207 231.282746,78.8516027 C229.774388,78.5602321 228.009363,78.6760782 226.550229,79.1640362 C216.733597,82.4463435 210.253635,88.4387483 208.330391,99.2966909 C207.008381,106.749459 205.570343,113.945962 207.757286,121.39873 C208.203816,122.918772 208.481579,124.55466 208.467515,126.130869 C208.383131,135.342393 210.858385,144.136168 213.453182,152.76846 C215.503002,159.58934 215.914372,166.375116 215.97766,173.311842 C215.998756,175.642807 214.768161,177.331352 212.975008,178.647785 C212.117108,179.279674 211.224047,179.915072 210.250119,180.325799 C206.656782,181.83882 203.963537,184.232974 202.131709,187.711868 C201.400384,189.102022 200.296364,190.351756 199.153669,191.450539 C198.422344,192.152637 197.325356,192.833672 196.361976,192.875798 C192.624483,193.044301 188.872927,193.016217 185.128402,192.942497 C175.923551,192.759951 167.105459,194.553811 158.438555,197.597405 C137.943874,204.797418 119.604493,215.293781 104.756485,231.435009 C98.2167521,238.54375 92.6403988,246.330014 87.5000277,254.456797 C86.0971495,256.675426 87.0921734,260.217509 89.2369247,261.51639 C97.5135549,266.525858 106.764113,269.320207 115.578689,273.115046 C128.257334,274.87029 140.239813,280.153576 153.217316,280.490583 C155.850789,280.560793 158.452619,281.434905 161.086092,281.838611 C163.723081,282.238807 166.37765,282.76538 169.028703,282.800485 C193.647635,283.130471 218.270083,283.513114 242.889014,283.548402 C250.353452,283.558751 257.923369,283.116429 265.250683,281.792975 C271.097767,280.736318 276.881564,280.199213 282.760292,280.114961 C288.646052,280.03422 294.535328,280.076346 300.424604,280.086877 C313.261468,280.10443 326.017464,279.74987 338.710172,277.16264 C344.497484,275.983115 350.066806,274.277018 355.706447,272.707829 C357.636723,272.170724 358.888414,269.495732 358.3575,267.603578 C355.442748,257.219551 350.372696,247.769315 344.761183,238.726295 C339.993507,231.041835 334.424185,223.782143 327.262123,217.968773 C321.872117,213.591194 316.49969,209.178509 311.303064,204.576258 C308.036713,201.683615 304.401184,199.457965 300.407024,197.934412 C291.297105,194.462539 269.642149,189.934008 261.217848,191.081938 C258.102684,191.520749 254.934781,191.636595 251.953225,191.882329 Z M600.000647,108.564382 C583.464966,96.3162857 566.32102,89.5621048 547.303054,87.4944267 C545.18643,87.2627345 543.006519,87.0731681 541.002407,86.4167066 C536.842996,85.0511264 532.57459,84.9844271 528.302667,84.8966649 C522.416907,84.7702872 516.513567,85.0300634 510.641871,84.7106089 C499.851311,84.1243573 489.345546,85.960343 478.843297,87.9507903 C476.005896,88.4878952 473.994752,90.151867 472.932925,92.7987757 C468.175796,104.685292 464.097253,116.684143 462.019305,129.472855 C459.428024,145.431538 458.425968,150.156656 459.013138,164.18106 C459.079941,165.767801 459.199485,167.473899 458.721311,168.937773 C457.824734,171.679465 458.179849,174.094681 459.498344,176.559045 C464.357436,185.633659 466.83269,195.326119 467.518307,205.60132 C467.70817,208.455348 467.476115,211.000453 465.915017,213.145361 C463.256932,216.79627 462.476383,220.706955 462.469351,225.151234 C462.441224,239.161596 464.849674,252.715594 469.184884,265.992264 C471.361279,272.658682 474.64521,278.749381 478.667497,284.429352 C481.438094,288.347058 484.623577,291.931267 487.088283,296.122791 C488.357554,298.281742 490.797648,300.001882 493.072491,301.269168 C498.662908,304.386482 504.6436,306.689363 510.810638,308.455139 C511.176301,308.560454 511.770503,308.202384 512.125617,307.903992 C512.477216,307.609111 512.983518,306.987755 512.881554,306.731489 C504.376385,285.988009 503.363781,264.215956 503.926339,242.222742 C504.02127,238.484071 504.386933,234.727848 504.172457,231.00673 C503.6099,221.254591 506.433236,211.962327 507.98027,202.522622 C508.915522,196.800524 511.359132,191.331182 513.060869,185.728442 C517.192152,172.142849 525.525038,161.032151 534.220071,150.18474 C536.53359,147.295608 539.44131,144.803161 542.370126,142.496769 C552.457489,134.549022 562.980834,127.250715 574.534363,121.518087 C582.659806,117.491556 590.707897,113.300032 600.000647,108.564382 Z M655.423129,203.122915 C655.036371,198.34514 655.075046,193.486623 654.17847,188.807141 C652.265774,178.854904 648.911524,169.320416 644.537637,160.15804 C644.045399,159.129466 641.53147,158.311522 640.234071,158.750334 C639.228499,159.090851 638.184251,159.322543 637.206807,159.72625 C628.216432,163.419284 620.228112,168.800864 612.791803,174.905604 C594.336394,190.053364 579.621994,208.002495 571.2434,230.736422 C568.100109,239.2634 565.575631,247.965902 563.420332,256.724573 C561.651791,263.921075 561.015398,271.444053 560.118821,278.830122 C558.761651,290.018051 560.02389,301.177895 562.717135,312.144663 C563.040606,313.468118 565.01659,314.752957 566.257732,314.788061 C570.677326,314.914439 574.653906,313.001223 578.630486,311.712873 C591.96662,307.394972 604.022935,300.693448 614.156005,290.776316 C628.887985,276.358738 639.952792,259.438181 647.691477,240.488561 C652.529473,228.63715 655.894271,216.234592 655.423129,203.122915 Z M396.797771,268.158235 C395.553112,268.270571 394.435029,268.12313 393.524388,268.491732 C388.587945,270.503242 383.7394,272.679745 378.620125,274.298081 C371.387743,276.58692 372.024136,279.440947 375.800305,284.833058 C379.467478,290.074219 382.7936,295.547071 386.379906,300.847909 C387.870684,303.048986 389.488037,305.204426 391.309317,307.135195 C403.242573,319.779977 417.218616,329.198619 433.982836,334.425737 C441.777776,336.854996 449.628972,337.978352 457.670031,337.058604 C465.078213,336.212576 472.440687,334.913695 479.785581,333.600772 C481.262295,333.337486 483.00974,332.4388 483.86764,331.273318 C485.836592,328.598325 486.325314,325.40378 485.147459,322.191683 C484.563805,320.601431 483.122251,319.72732 481.501382,319.551795 C469.72283,318.249404 458.770535,314.254467 447.737372,310.140174 C434.9427,305.369419 423.997436,298.106217 414.346056,288.673533 C407.862578,282.337101 401.973302,275.470584 396.797771,268.158235 Z M364.559699,50.686949 C365.132804,53.4812983 367.432259,54.9135778 369.520754,56.5143609 C370.867377,57.5464446 372.864457,57.5675076 373.803225,56.5424448 C377.410626,52.6142075 381.000448,48.6719283 384.604333,44.7436911 C390.131462,38.7196918 396.913799,34.5316784 404.448556,31.5547837 C406.892166,30.5893992 409.539703,29.7854972 412.138017,29.6275252 C416.385327,29.367749 420.72757,29.2905183 424.929172,29.8662385 C431.542742,30.7719446 437.090967,33.7628813 440.431153,39.941342 C441.443757,41.8159432 442.628644,43.5992716 443.655312,45.4668518 C448.043262,53.435662 448.226094,62.0188077 445.757872,70.3316458 C442.530197,81.2141618 436.908136,90.8504543 427.133695,97.4501737 C426.254699,98.0434464 425.161228,98.6191666 424.735793,99.4827469 C424.342003,100.283138 424.405291,101.596061 424.792049,102.4456 C426.201959,105.548872 428.786209,106.524788 431.071599,105.253991 C445.504721,97.2290129 452.90587,83.7908608 458.956882,69.299562 C459.157293,68.818625 459.224097,68.2674782 459.297932,67.7444153 C460.194509,61.3553253 460.644555,54.8082632 459.027201,48.626292 C456.165189,37.7121815 451.678791,27.6932457 442.554809,20.0017642 C436.925716,15.255583 430.688357,13.0825903 423.867345,11.6573317 C422.847709,11.4431919 421.69095,11.4467024 420.685378,11.6994576 C412.946693,13.6372476 405.063853,14.9501705 397.912339,18.9661699 C390.848723,22.9330226 385.110635,28.5427841 378.648253,33.2433289 C377.811449,33.8506435 377.245375,34.8406014 376.577338,35.6725874 C372.57263,40.6609923 368.57847,45.6564182 364.559699,50.686949 Z M56.4222304,95.5299362 C55.1459276,94.0625518 53.830949,92.4301744 52.3893948,90.9171536 C46.3454155,84.5982733 42.7415302,76.987533 40.1537647,68.7378837 C37.8507941,61.3904302 38.4203838,54.0043612 39.1868687,46.5761663 C39.2923482,45.5511035 39.8619379,44.5716771 40.2346324,43.5817192 C43.8666456,33.9489372 50.6524979,27.9811058 60.5394496,24.8497496 C71.2596899,21.4515962 80.555956,23.4280015 88.8150064,30.6841824 C93.6248748,34.9073007 98.1886242,39.3866848 101.2405,45.1930337 C102.207396,47.0325299 103.877489,48.5069353 105.245207,50.1322918 C106.103108,51.1538441 108.149412,51.1538441 109.506582,50.1252708 C111.609141,48.5315088 113.964852,47.1518866 114.731337,43.7712856 C109.179595,37.7262234 103.318447,31.5302103 97.6717743,25.1481412 C90.7663784,17.3408135 82.3842686,12.2681568 72.3004217,9.38604532 C65.0715552,7.32187776 58.6794932,8.31183567 52.2382075,11.5555276 C44.8194777,15.2906879 39.4329876,20.8442816 35.677915,28.2935394 C32.9917019,33.6154408 31.3497366,39.302433 30.280877,44.9508099 C28.3892767,54.9030464 28.3541168,64.8552828 31.743527,74.8882606 C35.4493759,85.8550284 41.9398854,94.6066776 49.6856019,102.873879 C53.0398522,101.290649 54.9877083,98.8754323 56.4222304,95.5299362 Z M98.0163409,195.319098 C98.7406339,194.560832 99.5317307,193.851714 100.175156,193.030259 C101.606162,191.201294 103.409863,190.348246 105.716349,190.734399 C106.764113,190.909924 107.815393,191.141616 108.813933,191.489154 C115.051291,193.651616 121.517189,193.1777 127.870575,192.763462 C137.634467,192.128063 151.782794,182.99026 156.824717,174.631786 C157.091932,174.189464 157.222024,173.627786 157.278279,173.104723 C157.383759,172.065619 157.499786,171.005451 157.390791,169.976878 C157.345083,169.541577 156.782525,169.120318 156.385219,168.77278 C155.62225,168.098766 154.58855,168.000472 153.614622,168.737675 C152.788366,169.366052 152.004301,170.173465 151.494483,171.06864 C147.855438,177.46124 141.99429,181.210443 135.429944,183.629169 C129.456285,185.830246 123.271666,187.385393 116.686225,185.012302 C113.767957,183.959155 110.325807,184.450624 107.175484,183.91703 C104.57717,183.478218 102.056208,182.569002 99.5000868,181.870414 C94.7113144,180.564513 90.9210818,177.717506 87.429708,174.305311 C86.3538164,173.252164 84.8208467,172.634318 83.4320323,171.953283 C83.1050457,171.7918 82.2998849,172.030514 82.0678299,172.346458 C79.5468682,175.741101 77.0716142,179.174359 74.6491001,182.642722 C74.3783692,183.028876 74.3467254,183.723953 74.4803328,184.201379 C74.6104243,184.664764 75.3382333,185.408987 75.3839411,185.380904 C77.0645823,184.289141 78.7030316,183.13068 80.3344489,181.958177 C81.4665963,181.147254 82.3561407,181.199911 82.9679222,182.19689 C83.2281052,182.618149 83.6570554,183.179827 83.5515758,183.541407 C82.9573743,185.545896 82.1873734,187.501239 81.5615279,189.498707 C81.4208885,189.944539 81.4912082,190.544833 81.6775555,190.987155 C82.2014373,192.226357 83.0944977,192.335182 84.2266451,191.404903 C85.8650944,190.056875 87.4191601,188.575449 89.1877009,187.427519 C91.2586164,186.086512 94.9152415,187.532833 95.8645577,189.898903 C96.5783027,191.710315 95.8540097,194.083406 98.0163409,195.319098 Z M370.916601,168.930752 C367.347875,171.437241 364.56673,173.059087 362.179376,175.130275 C353.628499,182.537407 343.699356,184.938582 332.571261,184.475197 C323.795361,184.110106 315.754301,182.323268 308.806714,176.692443 C307.593699,175.709506 306.159177,174.870499 304.685979,174.386052 C303.845658,174.108723 302.671319,174.529982 301.743099,174.888052 C300.530083,175.358457 300.466796,176.3098 301.271956,177.478793 C304.376572,181.98275 308.409407,185.163253 313.616582,187.090512 C319.157776,189.140637 324.727097,190.706315 330.679661,190.572917 C335.464917,190.467602 340.281817,190.653658 345.028398,190.1657 C349.230001,189.730399 352.281877,190.843224 354.394984,194.511686 C354.570783,194.813588 355.298592,195.136553 355.506035,195.013685 C355.927954,194.764441 356.36042,194.248399 356.455352,193.777993 C356.870238,191.727868 356.93001,189.575938 357.569919,187.610064 C358.209828,185.647701 361.718782,184.952624 362.696226,186.43405 C363.860017,188.196316 364.974585,189.997197 366.271984,191.657658 C367.16856,192.802077 368.135456,192.721336 368.68395,191.668189 C368.905457,191.23991 369.21838,190.643127 369.07774,190.278036 C368.325319,188.315672 367.421711,186.409477 366.620066,184.464666 C365.973125,182.895477 366.293079,181.417561 367.094724,179.960708 C367.804953,178.668848 369.081256,178.612681 371.201395,180.002834 C372.530438,180.873436 373.690713,182.042428 375.090076,182.751547 C375.849529,183.134191 377.023868,183.05696 377.892316,182.797184 C379.172135,182.41454 379.502638,181.315757 378.739669,180.18538 C376.37341,176.692443 373.9298,173.248653 370.916601,168.930752 Z"/>
    <path d="M220.518298,181 C221.608403,181.187878 222.633171,181.328787 223.644183,181.541957 C226.199225,182.076687 228.730195,182.7451 231.298992,183.182278 C236.409075,184.049409 239.579665,187.572126 242.127829,191.860809 C243.297027,193.829918 243.279833,196.163944 242.141585,198.12944 C240.793568,200.45624 239.228906,202.685487 237.509497,204.726857 C235.43589,207.190953 233.069983,209.387683 230.886334,211.754227 C227.440638,215.486501 226.508719,222.676458 229.06376,226.96514 C230.996376,230.209653 233.207536,233.269901 235.270827,236.427701 C236.041122,237.605554 235.834793,238.631658 234.648401,239.162775 C233.730236,239.571049 232.616059,240.178041 231.77011,239.950419 C229.056883,239.220584 227.867052,236.507188 226.096061,234.548919 C224.772116,233.085636 223.310618,232.774914 221.914458,233.645658 C219.225302,235.32211 216.570535,237.06721 213.860747,238.707532 C213.613152,238.855667 212.997603,238.537719 212.667477,238.27758 C212.282329,237.970471 211.704608,237.421288 211.766507,237.085275 C212.591823,232.41361 216.687455,230.159071 218.957075,226.531575 C220.160661,224.609436 220.573319,222.557227 220.535492,220.306301 C220.487349,217.484514 220.050619,215.042096 217.567792,213.195831 C214.163363,210.663088 210.827709,207.956918 207.825621,204.929188 C205.992731,203.079309 204.730685,200.553792 203.444567,198.190861 C202.983766,197.345409 202.85653,195.947161 203.179778,195.0439 C204.2802,191.976426 205.363428,188.843918 207.71214,186.488213 C208.09041,186.108844 208.465241,185.718635 208.884777,185.393461 C212.364861,182.690904 216.718404,182.557222 220.518298,181 Z"/>
  </g>
</svg>
