<svg xmlns="http://www.w3.org/2000/svg" width="527" height="527" viewBox="0 0 527 527">
  <g fill="none">
    <path fill="#D7A9FF" d="M302.746184,55.8261262 C288.124831,62.3168747 278.735302,77.7566899 271.718829,91.5970495 C269.792629,95.3957566 266.997697,100.092749 265.52668,104.862957 C264.430356,105.70774 263.425624,106.611657 262.409789,107.58879 C260.652896,109.278355 260.552977,112.240727 262.02677,114.118961 C262.790033,115.090462 263.725378,115.656466 264.738437,115.881742 C265.090926,116.137992 265.479497,116.346372 265.893047,116.495617 C266.017944,116.732156 266.151168,116.968696 266.29827,117.202419 C268.63802,120.964519 272.945601,122.890624 277.247632,122.640005 C277.902651,122.837121 278.602078,122.95539 279.348688,122.986366 C292.074373,123.490419 298.516317,109.911943 302.979327,99.9519523 C308.061274,88.6065181 311.780449,76.7795577 313.85375,64.4907827 C315.025013,57.5410355 308.963313,53.0665021 302.746184,55.8261262 Z"/>
    <path fill="#000" d="M526.714915,496.212993 C526.072601,495.342679 525.545791,494.373784 524.838683,493.559801 C512.829109,479.753058 503.459218,464.388762 496.675485,447.351433 C493.869588,440.301601 490.325595,433.522158 486.342124,426.999021 C482.564305,420.813871 479.068204,414.456911 475.541113,408.122483 C474.132531,405.593219 472.96059,402.934393 471.709769,400.317815 C471.199862,399.250342 471.625254,397.115394 472.633799,396.301411 C478.054024,391.93012 482.384007,386.629368 486.263243,380.568146 C486.299866,377.481204 486.350575,374.222452 486.370295,370.9637 C486.384381,368.389371 485.727982,365.941786 484.978616,363.502652 C484.770145,362.818229 484.741974,362.071843 484.685631,361.347989 C484.240518,355.568422 484.240518,349.732524 482.392458,344.13885 C481.651544,334.340062 478.679435,324.972207 476.63699,315.440992 C472.391523,295.615276 466.283909,276.276823 460.170661,256.960903 C452.279782,232.037226 442.470413,207.896551 429.990372,184.885313 C425.496994,176.599014 421.07968,168.264834 416.352477,160.11373 C414.180443,156.367714 411.459061,152.917437 408.782754,149.495325 C404.759843,144.355116 400.35098,139.505012 396.474561,134.26059 C391.054335,126.929103 384.797412,120.377801 378.416533,113.925078 C374.585189,110.052318 370.542557,106.430231 365.995653,103.360188 C361.189569,100.115519 356.600408,96.5469462 351.830947,93.2431296 C345.810666,89.0718147 340.674974,83.9992028 336.0182,78.3858128 C334.04055,76.0001924 333.263013,73.3272837 333.699673,70.2882231 C333.905326,68.8517811 333.896875,67.3195762 334.426502,66.0070626 C336.237939,61.506211 336.364712,56.774402 336.446409,52.0763917 C336.587268,43.7281287 336.519656,35.3770492 336.406969,27.0259697 C336.342174,22.3082435 335.992846,17.5933339 335.818181,12.8784242 C335.694226,9.52672623 334.460308,6.51301457 333.032005,3.57534985 C331.744561,0.930606625 328.761183,-0.398806368 325.752451,0.10535661 C323.253626,0.522206447 320.746349,0.896807989 318.239072,1.27140953 C316.802318,1.48546756 315.328941,1.53334896 313.92881,1.88541808 C295.800353,6.41443522 280.55949,15.7991897 268.087901,29.6228315 C263.476202,34.7348751 259.289895,40.2271534 254.909203,45.5448054 C254.168289,46.4461023 253.016068,46.7108583 252.032878,46.1869795 C250.12284,45.1702038 248.311403,43.5704018 246.285861,43.2324154 C239.879628,42.1593087 233.600167,40.1398403 226.948841,40.6073881 C222.60759,40.9115758 218.23535,40.7425826 213.877195,40.8186295 C212.426355,40.8439785 210.905086,40.7172336 209.541578,41.1031014 C206.372268,41.9959487 203.132528,42.2719708 199.904057,42.7507848 C196.695306,43.2267823 193.554167,44.1506117 190.384857,44.8885485 C186.156292,45.8715255 181.893921,46.7249411 177.713248,47.8797278 C169.963228,50.020308 162.8358,53.5635316 156.105593,57.9404549 C153.927925,59.3571811 152.933465,59.2726845 151.423465,57.7968107 C147.011785,53.479035 142.881821,48.8176399 138.126446,44.9223472 C130.799,38.9174563 124.249091,32.1380133 117.485078,25.5641787 C114.882018,23.0349142 112.312763,20.4662179 109.656177,17.9932844 C108.602557,17.0103074 107.399628,16.1653415 106.188247,15.3738902 C103.044291,13.31499 95.553449,13.4023031 92.6038773,15.5485164 C91.7390076,16.1794243 90.9051268,16.9511598 90.2994363,17.8271078 C85.820144,24.2882803 84.0368786,31.7127138 83.6114866,39.3483889 C83.2706097,45.4603088 83.0255163,51.6370094 84.5721399,57.7601955 C85.3609461,60.8753031 84.9271027,64.2805156 85.3553118,67.5111018 C85.7807037,70.7276053 86.7103681,73.8765115 87.2174578,77.0873819 C88.927477,87.8747797 92.2517316,98.1946297 96.2267514,108.314504 C97.8099981,112.344992 99.2101291,116.490958 101.824458,120.053897 C102.514664,120.994626 102.323096,122.29024 101.593451,123.047893 C99.8299054,124.875836 98.097349,126.734761 96.2690089,128.495106 C91.5333546,133.049472 87.4484654,138.110818 84.0340614,143.729841 C76.5065966,156.125491 68.607266,168.293 61.7192976,181.074517 C59.1415916,185.857024 56.5047252,190.645164 53.462187,195.137566 C46.3375768,205.651758 40.0496646,216.687012 33.141976,227.336399 C31.3671621,230.071272 29.606434,232.837127 28.1330567,235.73536 C24.6792124,242.528886 20.9464688,249.153418 17.0306095,255.690638 C13.1091159,262.236307 10.1285553,269.150944 8.26640925,276.659874 C5.91689366,286.143208 3.20959811,295.525146 1.93905671,305.239437 C-0.849936622,314.145378 -0.123108057,323.296358 0.98967211,332.233281 C2.14752692,341.533539 4.46887086,350.695785 7.32829332,359.689039 C10.6948055,370.284911 16.7770647,379.171136 23.8988577,387.510949 C28.1978515,392.544129 33.7082262,396.08172 38.7960261,400.154455 C41.6751688,402.458395 44.8247592,403.911737 48.3377639,405.111588 C56.2568147,407.815479 64.4575819,409.223756 72.5484798,411.133378 C75.7149732,411.882582 78.9406271,412.744447 82.1634638,412.848659 C92.6517691,413.189462 103.17388,414.051327 113.541047,411.257307 C121.578419,409.091378 129.674951,407.074726 137.289748,403.689229 C143.248052,401.038853 149.020423,397.940644 154.356134,394.121399 C156.119679,392.856766 158.021265,391.747045 159.624232,390.304969 C165.019103,385.452049 171.191512,381.53704 176.279312,376.309518 C177.524498,375.030803 179.200712,374.177387 180.654369,373.093014 C194.1176,363.063269 209.161261,355.835994 224.17675,348.560838 C225.762814,347.791919 228.084158,349.121332 228.26164,350.901394 C228.836341,356.678144 229.371603,362.449261 227.996826,368.209112 C227.579886,369.961007 227.244643,371.791767 227.269998,373.580278 C227.368598,380.528714 225.991005,387.302524 224.666937,394.034086 C223.345687,400.760014 222.216004,407.567622 219.821413,414.051327 C219.196003,415.746892 218.660741,417.476256 218.111394,419.19717 C214.595572,430.24369 210.707885,441.121218 205.800383,451.674842 C200.461856,463.155112 195.672675,474.90577 193.283719,487.476046 C191.934297,494.582209 189.911573,501.570077 189.866498,508.876216 C189.846778,511.811064 189.134035,514.613534 188.469184,517.43572 C188.195919,518.598956 188.753718,519.717128 189.519987,520.398734 C192.227282,522.79562 195.500828,524.361624 198.605344,526.161401 C199.196949,526.50502 200.008292,526.538819 200.729486,526.583884 C209.428892,527.133112 218.077588,527.572494 226.633318,524.927751 C231.101342,523.544823 235.851082,523.088542 240.451513,522.102748 C247.877559,520.511396 255.39939,519.224231 262.678944,517.111816 C280.432718,511.957524 297.803357,505.693511 314.613381,497.928274 C324.814335,493.216181 335.012472,488.490005 345.343016,484.076467 C361.034625,477.370254 376.334648,469.934554 391.054335,461.28492 C405.506392,452.793013 419.037235,443.12097 430.908768,431.223851 C431.934216,430.195809 433.016008,429.221282 434.021736,428.173524 C441.805562,420.056218 449.924632,412.245917 456.606947,403.125918 C457.871854,401.396555 459.119858,399.534813 461.170754,398.554653 C462.63568,399.098248 463.407583,400.309365 464.002005,401.599347 C467.793909,409.846214 471.943593,417.924088 476.642625,425.669608 C481.552943,433.758748 485.682907,442.211224 489.641024,450.770728 C489.939643,451.418535 490.097404,452.131123 490.319961,452.815546 C490.525614,453.452087 489.581863,455.226515 488.880389,455.547602 C488.226807,455.848973 487.612665,456.322154 486.928094,456.457349 C474.862176,458.834519 462.796259,461.208873 450.671181,463.284673 C447.465247,463.833901 444.310022,464.952072 441.09282,465.126699 C435.965579,465.405537 431.173582,467.213764 426.122405,467.793974 C420.699362,468.416432 415.620014,470.537297 410.450516,472.153998 C402.855439,474.531169 395.339243,477.147747 388.079409,480.52761 C376.805115,485.780481 366.60416,492.635971 357.042702,500.471622 C353.405742,503.451535 350.140648,506.904628 346.861468,510.292942 C344.835927,512.385641 343.33156,514.881106 342.697698,517.813138 C342.461057,518.911594 343.286486,521.350729 344.151356,521.699981 C348.179901,523.325132 352.276059,524.750308 356.521527,525.699486 C357.21455,525.854397 357.992087,525.961426 358.671024,525.814965 C367.629608,523.871543 376.737503,524.477102 385.791871,524.136299 C387.603308,524.068702 389.482357,524.136299 391.198011,523.663119 C394.403944,522.781537 397.660587,522.547764 400.911596,522.618177 C406.802287,522.744922 412.377457,520.993026 418.079399,520.012866 C419.465444,519.773459 420.747254,518.939759 422.079773,518.387715 C424.482815,517.390655 426.285801,515.590878 428.187387,513.900946 C430.894682,511.492793 433.551269,509.00296 436.444497,506.837031 C449.248512,497.249485 464.176669,492.982407 479.552756,489.887016 C488.316956,489.343421 496.641679,486.9578 504.817091,483.91029 C505.417148,483.684966 506.174965,483.879308 506.963771,483.879308 C510.040115,487.856281 513.043213,491.945916 516.28577,495.835575 C517.652095,497.474809 519.469167,498.761974 521.176369,500.08857 C522.382115,501.023666 524.844317,500.465988 526.092321,499.150658 C526.999894,498.190214 527.264262,496.956563 526.714915,496.212993 Z M400.469301,278.800455 C400.922864,277.92169 401.849711,277.282333 402.559637,276.527496 C405.379619,279.383481 405.495123,283.242159 406.906523,286.540342 C408.329191,289.863875 409.371542,293.347951 410.692792,296.716548 C411.884453,299.747159 413.35783,302.670741 414.473428,305.729517 C415.698895,309.098115 417.786414,312.159708 418.178,316.085983 C414.673446,320.550219 410.554751,324.682102 406.089545,328.343621 C398.528274,334.545671 390.916294,340.713922 382.614109,345.947077 C381.388642,346.718812 380.157541,347.484915 378.895451,348.19187 C362.395316,357.42453 345.233147,365.048939 326.820157,369.651187 C325.420026,370.000439 324.067786,370.535584 322.684558,370.946801 C307.773304,375.363156 292.895856,379.892173 277.931075,384.122636 C272.029115,385.790035 266.034188,387.32224 259.777264,387.164513 C257.230547,387.099732 254.773979,387.73909 252.286423,388.316483 C246.953529,389.558583 241.505132,389.589565 236.059552,389.079769 C235.262295,389.006538 234.129794,387.496866 234.397425,386.682882 C235.769384,382.483402 235.422873,378.067047 236.115896,373.785886 C236.217314,373.169061 236.828638,372.318462 237.380803,372.146653 C239.79793,371.391816 242.248864,370.515868 244.742055,370.284911 C256.712189,369.169556 268.166782,365.640415 279.686169,362.62107 C289.458915,360.060824 299.045727,356.675327 308.505767,353.008175 C322.738084,347.493365 336.471764,340.947695 349.287047,332.675479 C362.761547,323.975147 374.579554,313.34266 384.907281,301.006158 C390.747264,294.02674 396.285811,286.912127 400.469301,278.800455 Z M268.499207,286.912127 C265.986296,291.719983 264.242471,296.944689 261.549261,301.637066 C257.01926,309.526231 253.942916,318.046303 250.100303,326.225573 C249.497429,327.512738 248.584668,328.664708 247.745153,329.827944 C247.587391,330.047636 246.976067,330.208179 246.784499,330.078618 C246.271775,329.734998 245.415357,329.106907 245.494238,328.788636 C247.359201,321.254357 246.252055,313.621499 246.350656,306.036522 C244.403995,297.598129 243.274312,288.940045 239.541568,280.988916 C238.617538,279.020146 237.606176,277.085174 236.834273,275.057256 C236.639888,274.550276 237.054012,273.615181 237.470952,273.119467 C238.15834,272.305484 239.028844,271.615428 239.910617,270.998603 C252.2498,262.354602 262.526817,251.74183 270.110625,238.70119 C273.747585,232.445626 276.573202,225.730964 279.052307,218.945888 C283.021693,208.082443 286.816414,197.134502 289.3744,185.828858 C291.047796,178.429774 292.704289,171.030689 294.414308,163.640054 C295.560894,158.677288 297.211753,153.92858 298.733022,149.106641 C300.307817,144.118526 302.775653,139.857081 306.905617,136.578613 C308.029666,135.685766 309.083286,134.615476 309.900264,133.440973 C310.705973,132.280554 311.630003,130.906076 311.694798,129.587929 C311.866645,126.109486 313.44144,123.363347 315.430359,120.727053 C316.081124,119.865188 316.726254,119.000506 317.41646,118.079494 C317.658736,118.620272 318.140471,119.166683 318.070042,119.634231 C317.64465,122.487399 316.962896,125.303952 316.622019,128.162753 C316.278325,131.038454 316.622019,134.040899 315.979706,136.832103 C314.258418,144.32695 314.621832,151.971075 313.824574,159.516621 C313.218884,165.245489 311.959611,170.903944 310.477782,176.508885 C306.314013,192.261865 301.572724,207.812054 295.211565,222.838364 C294.225558,225.164837 293.380408,227.57299 292.715557,230.009308 C290.898486,236.667639 288.368672,243.078114 285.520518,249.319595 C279.810125,261.830723 274.880086,274.696737 268.499207,286.912127 Z M279.077662,311.100684 C278.877643,311.483735 278.677624,311.866786 278.477605,312.247021 L277.919807,311.607663 C278.305758,311.43867 278.69171,311.269677 279.077662,311.100684 Z M268.17805,330.59968 C267.907602,331.044695 267.662509,331.534776 267.268106,331.726301 C266.803274,331.951625 266.104617,331.698136 265.507378,331.653071 C265.896147,331.382682 266.248292,331.005264 266.679319,330.864436 C267.158237,330.709526 267.668143,330.661644 268.17805,330.59968 Z M332.834804,219.306407 C336.930962,207.699392 340.931336,196.067028 343.655534,184.043164 C345.492326,175.934308 347.236151,167.805736 349.053223,159.694063 C349.270144,158.725169 349.698353,157.804156 350.044865,156.809913 C353.0705,158.082995 354.608672,160.646058 356.448281,162.84297 C357.096229,163.617522 357.521621,164.808924 357.549792,165.825699 C357.617404,168.354964 357.730091,170.960275 357.239904,173.416309 C355.403112,182.634887 353.594493,191.864731 350.985798,200.908683 C350.48716,202.640863 349.816674,204.339244 349.084211,205.989744 C347.613651,209.302011 346.17408,212.636809 344.497867,215.844863 C336.604171,230.95567 328.163944,245.745389 318.540509,259.842237 C314.247149,266.128783 310.159443,272.558973 305.812557,278.808904 C304.11099,281.256489 303.065821,283.901232 302.279832,286.695253 C302.096717,287.340243 302.071362,288.114795 302.237575,288.759786 C303.11653,292.210063 308.060655,294.423874 311.02713,292.587481 C314.103474,290.683492 317.255881,288.799218 319.982897,286.450212 C327.679392,279.81723 335.291372,273.080036 342.720236,266.154132 C358.454102,251.479891 372.021569,235.025589 382.673269,216.343393 C384.149464,216.661663 384.341031,217.836166 384.093121,218.658599 C383.470527,220.725949 382.580303,222.720069 381.718251,224.708555 C376.652988,236.357818 370.996121,247.708527 364.127872,258.414244 C361.978376,261.763126 359.623226,265.007795 357.110314,268.094737 C349.092663,277.947039 341.069377,287.82469 331.552994,296.299698 C324.783346,302.327121 317.66437,307.951778 310.289032,313.235631 C309.40726,313.866539 308.466327,314.424216 307.519759,314.953728 C296.744103,320.995234 285.593764,326.203041 273.744768,329.780063 C272.178425,330.253244 270.443051,330.157481 268.766838,330.261694 C269.048554,329.726549 269.279562,329.123806 269.71904,328.808352 C274.998407,325.006006 280.269322,321.189577 285.652925,317.539324 C289.58287,314.874865 293.087423,311.776657 296.053898,308.098238 C297.225838,306.644897 297.575167,304.873285 296.797629,303.019993 C296.079252,301.310346 293.594513,300.363984 292.349326,301.417375 C290.422385,303.048159 288.596862,304.802871 286.64175,306.399857 C284.486618,308.160203 282.399099,310.078275 279.534042,310.647219 C279.660815,309.661425 279.604471,308.551703 280.097475,307.813767 C283.934454,302.093348 287.901022,296.460242 291.839419,290.810236 C292.462012,289.917389 293.231098,289.120305 293.788897,288.190842 C301.826269,274.840381 310.813025,262.081396 318.517971,248.525327 C321.025248,244.117422 323.540977,239.712333 325.946835,235.248096 C328.702023,230.141686 330.899411,224.790235 332.834804,219.306407 Z M234.059365,102.284265 C234.090354,101.278755 234.535466,100.095803 235.189048,99.3353336 C236.921605,97.3158652 237.437146,94.9499607 238.090728,92.4544948 C241.226233,80.4869613 245.457615,68.9728928 252.886479,58.8642843 C257.179838,53.02557 261.199933,46.9840639 266.14124,41.6438795 C267.617434,40.046894 269.10208,38.4386423 270.400793,36.6980126 C275.468873,29.9129365 282.086394,24.7107632 288.844773,19.9169901 C297.473749,13.7966205 307.376084,10.1069361 317.802411,8.04240283 C320.630845,7.48190879 323.504353,7.14673899 326.358141,6.71580639 C327.028627,6.61441048 328.687937,7.89312552 328.806258,8.61697963 C329.037265,10.0393389 329.344336,11.4645147 329.4204,12.8981401 C329.761277,19.4043774 329.423217,25.9641293 331.009281,32.3689707 C330.933217,38.5090561 331.94458,44.6998395 330.161314,50.7610614 C329.890866,59.1712886 327.569522,67.1590327 325.253813,75.1664928 C324.050883,79.3321746 323.301517,83.6246013 322.135211,87.8015493 C318.703904,100.098619 313.100563,111.457778 306.781662,122.481766 C306.257669,123.394329 305.502669,124.35759 304.609628,124.84767 C299.775373,127.489597 296.14123,131.658095 291.701378,134.804185 C288.146116,137.325 285.283876,140.592201 282.849846,144.298785 C278.452251,150.996548 274.542026,157.877387 272.333369,165.648256 C271.660066,168.014161 270.564189,170.256137 269.55001,172.841733 C258.878589,166.228466 250.641198,157.770358 244.395544,147.304047 C241.772763,142.904591 239.997949,138.1587 238.620355,133.286063 C236.64834,126.323544 235.622892,119.141334 234.242481,112.046437 C233.633973,108.897531 233.963582,105.5402 234.059365,102.284265 Z M98.9960246,97.2679838 C97.6663227,93.1417337 96.5873485,88.9281705 95.5224602,84.7230569 C94.4575718,80.5235765 93.4997357,76.2931139 92.6038773,72.0542018 C92.2320115,70.2882231 92.1136906,68.4659133 91.9362092,66.666136 C91.7221046,64.5002067 91.6573098,62.3145617 91.3671418,60.1627152 C91.1248656,58.3770206 90.4374774,56.6335743 90.327608,54.8478798 C90.1473094,51.9552799 90.2797162,49.0457807 90.2797162,46.9249163 C89.6993802,40.2919341 90.4684662,34.5827813 92.0094555,28.9384092 C92.8996796,25.6712078 94.4716576,22.9109859 97.2071248,20.8887008 C98.4241401,19.9902204 99.7848308,19.5818203 101.218768,20.4014372 C102.785112,21.2942845 104.452873,22.0801027 105.830467,23.212357 C107.785579,24.8206088 109.529404,26.6879834 111.340842,28.4680448 C116.521608,33.5519229 121.63758,38.7033983 126.888775,43.7112294 C130.032731,46.7108583 133.458404,49.4175657 136.62208,52.4002953 C139.782939,55.3773917 142.805757,58.5037655 145.789135,61.6583048 C146.10184,61.9906581 146.003239,63.1933262 145.64546,63.5876436 C144.687623,64.6438509 143.580478,65.6296445 142.363462,66.3675813 C139.526577,68.0856786 137.182696,70.3220217 135.044468,72.8090379 C132.973851,75.2200073 132.709038,78.0647258 133.30346,81.0023905 C133.509113,82.013533 134.154244,82.9908769 134.782471,83.8527421 C136.272752,85.8975595 137.88417,87.8522473 139.419525,89.8660826 C139.915346,90.5167064 139.549114,92.2488864 138.861726,92.8572619 C138.591278,93.0966689 138.368722,93.4008566 138.070103,93.6008318 C127.804354,100.442239 118.24853,108.207475 108.799759,116.107906 C107.988415,116.786696 106.424889,116.414911 105.993862,115.476999 C103.272481,109.553788 100.990577,103.458767 98.9960246,97.2679838 Z M94.5477211,144.160774 C100.393338,134.494364 106.864366,125.360283 116.00325,118.420296 C119.178195,116.009327 122.234819,113.429365 125.215379,110.781805 C129.57635,106.906228 134.368348,103.664376 139.320924,100.622498 C140.092827,100.149317 140.65626,100.025389 141.137996,100.532369 C141.659171,101.07878 141.684526,101.73222 141.239413,102.467341 C141.050663,102.777161 140.856279,103.084166 140.661895,103.39117 C134.373982,112.733676 127.702936,121.743829 119.631758,129.683692 C112.560674,136.637761 104.607817,142.211719 95.6379639,146.371768 C95.4407624,146.461898 95.0125533,146.242207 94.7984488,146.047864 C94.5730756,145.842256 94.375874,145.507086 94.3448852,145.208532 C94.3026277,144.870545 94.3702397,144.453695 94.5477211,144.160774 Z M64.4294103,191.442248 C66.5620042,187.276566 68.7368556,183.130601 70.8497293,179.080397 C74.173984,178.049539 77.2390595,177.100361 80.3013178,176.145549 C83.7438934,175.069626 87.2005548,174.035951 90.6234103,172.898064 C93.7025716,171.872838 96.714121,170.644821 99.8073681,169.659028 C112.064853,165.752469 122.781349,159.356077 131.951221,150.390989 C134.497938,147.458957 137.413703,144.878995 139.847734,141.825851 C143.177623,137.64327 145.713071,132.877663 148.113296,128.120505 C150.203632,123.977355 152.217905,119.80604 154.511078,115.76992 C155.56188,113.919445 156.888765,111.950674 157.91703,109.905857 C159.767908,103.579879 161.517367,97.2426348 162.185035,90.6490843 C162.247013,90.0491586 162.858338,89.2858727 163.421771,88.9901347 C165.965671,87.652272 168.571548,86.3679239 171.563377,86.5678991 C172.222594,86.612964 172.856456,87.0438966 173.532576,87.3086525 C170.281567,93.820523 166.762928,100.174666 163.02455,106.402065 C163.02455,106.514727 163.018916,106.630206 162.999196,106.751318 C162.393505,110.187512 160.08343,113.53921 158.393131,116.51349 C156.066153,120.603125 153.958913,124.78289 151.854491,128.988003 C149.67964,133.333944 147.417456,137.648903 144.622829,141.628693 C140.743592,148.720773 135.841725,155.108715 129.883421,160.77562 C127.767731,162.789455 125.409763,164.40334 122.801069,165.713037 C117.933008,168.157805 112.814219,169.920967 107.537669,171.16025 C98.6410618,173.252949 90.465649,176.965166 82.8029603,181.843436 C77.3179401,185.335961 71.9568751,189.022829 66.5310154,192.605485 C65.7844667,193.098381 65.1055299,192.966003 64.6688693,192.301297 C64.5082909,192.056257 64.3279924,191.639407 64.4294103,191.442248 Z M55.5694264,244.686365 C55.3299674,244.883524 54.8735867,244.987736 54.5749672,244.908873 C53.6453028,244.666649 53.4565527,244.15122 53.9411051,243.492147 C54.7299113,242.41904 55.4454712,241.255804 56.9611059,241.171307 C57.0963299,242.571134 56.6793894,243.776619 55.5694264,244.686365 Z M57.132953,241.002314 C57.4850986,239.306749 57.5498934,239.250418 59.1500431,238.982846 C59.0739797,240.267194 58.4739235,241.01358 57.132953,241.002314 Z M61.0628981,238.008318 C60.6459577,238.439251 59.916312,238.565996 59.2965357,238.79977 C59.4233081,237.785811 59.285267,236.56061 59.8317971,235.881821 C62.5475441,232.496324 65.3731606,229.181241 68.350904,226.021069 C71.3314645,222.855263 74.7289655,220.072509 77.6052909,216.822207 C82.969173,210.763802 89.406395,206.127755 96.2999977,202.069103 C102.844272,198.216058 109.312483,194.241902 116.442727,191.436615 C120.809333,189.718518 124.930845,187.375146 129.13969,185.268364 C137.65598,181.00692 144.676355,174.686575 151.879846,168.633802 C152.97854,167.709973 153.894119,166.54392 154.78716,165.406033 C163.32317,154.517239 170.413974,142.822911 175.349647,129.81607 C177.659722,123.726682 179.744424,117.575331 181.92491,111.449328 C183.522243,106.954109 183.195452,102.081473 185.277336,97.7721468 C185.525247,93.31636 187.705733,89.4914811 189.196013,85.4271952 C190.50036,81.8670722 192.838607,80.1517915 196.481202,80.1095432 C199.811091,80.0701115 202.833909,78.7294323 206.017305,78.0985244 C206.665253,77.9717795 207.456876,78.183021 208.085104,78.4590432 C208.623183,78.6956336 208.45697,79.380056 207.809022,80.072928 C207.561111,80.337684 207.380813,80.6700372 207.113182,80.9066277 C200.104076,87.0438966 195.858608,95.0485401 192.261088,103.396803 C189.528438,109.734047 187.846591,116.386745 187.962095,123.399962 C188.015621,126.658714 187.894483,129.925915 187.781796,133.184667 C187.717001,134.992894 187.770527,136.871535 187.302878,138.589632 C186.252076,142.456759 185.877393,146.408383 185.240713,150.334658 C184.606851,154.24685 183.519426,158.068912 182.919369,162.020536 C182.096757,167.442401 179.755693,172.368552 176.186345,176.62718 C175.721513,177.182041 175.276401,177.7707 174.729871,178.238248 C168.656063,183.451688 162.258281,188.087734 154.601227,190.842322 C143.372007,194.881259 132.038553,198.562494 120.521982,201.686051 C118.43728,202.252178 116.313138,202.823939 114.369294,203.739318 C103.892257,208.662653 93.1842132,213.070558 83.1325686,218.920539 C77.0925669,222.435597 71.7709422,226.654793 66.9535901,231.611926 C64.9308657,233.684909 63.0771711,235.926886 61.0628981,238.008318 Z M188.76217,358.114586 C182.823586,362.257735 176.882185,366.400885 170.929515,370.527135 C169.937873,371.214374 169.011026,371.155226 168.03347,370.256746 C162.10052,364.812349 155.282981,360.739613 148.09921,357.199206 C136.069916,351.273179 124.082879,345.259838 112.04795,339.345077 C108.785673,337.742458 105.686791,335.906066 102.599179,333.996443 C99.0636366,331.810798 96.5084679,328.918198 94.7449226,325.225697 C92.8686908,321.305055 91.3417874,317.257669 90.3980371,313.010307 C90.2374587,312.286453 90.6994737,311.616113 91.4967314,311.376706 C92.5165451,311.069702 93.5842507,310.765514 94.6378704,310.737349 C97.9001474,310.655668 101.168059,310.706366 104.433153,310.706366 C110.580207,310.87536 116.786421,310.588071 122.755994,312.548392 C134.351445,312.965242 144.191802,318.756075 154.564604,322.921757 C163.289364,328.20561 171.535206,334.089389 178.186532,341.941939 C181.930544,346.36111 185.623848,350.825347 189.336871,355.272684 C189.962282,356.024703 189.680565,357.472412 188.76217,358.114586 Z M227.306621,338.773317 C226.624867,339.240864 225.847329,339.069055 225.331788,338.429697 C224.669754,337.607264 223.734456,336.79328 223.528803,335.844102 C221.368037,325.752392 216.542233,316.945031 210.919172,308.427775 C205.817286,300.693521 199.191314,294.660464 191.373681,289.903306 C185.178736,286.131942 178.592204,283.12668 171.571829,281.171992 C170.529478,280.881887 169.481492,280.549534 168.413787,280.431239 C159.435482,279.422913 150.555778,277.566804 141.445067,277.696366 C137.484133,277.752697 133.489393,277.727348 129.567899,276.657058 C128.249466,276.296539 126.708477,276.690856 125.277357,276.831684 C122.761628,277.082357 120.257169,277.572438 117.738623,277.665384 C107.808117,278.028719 98.576267,281.05088 89.5331674,284.844777 C88.535891,285.264444 87.6005923,285.827754 86.6174017,286.286852 C85.6285768,286.751584 84.2115428,286.26432 83.8791173,285.363023 C83.1297514,283.335105 82.3832027,281.307187 81.6620085,279.270819 C81.3014114,278.25686 81.7746951,276.814785 82.5775871,276.417651 C93.589885,270.945088 104.607817,265.489425 116.5695,262.292638 C117.963996,261.920853 119.293698,261.258963 120.702281,261.013923 C125.668943,260.154874 130.897601,261.109686 135.672695,258.876159 C140.737958,258.653651 145.806038,258.431144 150.871301,258.208636 C150.874118,258.2706 150.876935,258.332564 150.876935,258.394528 C153.775798,258.394528 156.677478,258.326931 159.57634,258.411428 C162.832983,258.507191 166.078357,258.636752 169.188507,259.892935 C170.501306,260.422447 171.991586,260.568907 173.419889,260.7548 C178.490786,261.41669 183.263063,263.039024 187.874763,265.176788 C189.187561,265.785163 190.42148,266.582248 191.765267,267.10331 C199.526557,270.114205 204.966502,275.795193 209.648631,282.402826 C213.649005,288.052831 216.874659,294.046456 218.886115,300.724503 C221.072235,307.98276 223.954194,315.026959 225.402217,322.51054 C225.675482,323.918816 226.498094,325.251046 226.62205,326.656506 C226.937572,330.275776 227.906677,333.74577 228.594065,337.280544 C228.675763,337.688944 227.850334,338.401532 227.306621,338.773317 Z M222.903392,237.352061 C220.579231,238.349121 218.269156,239.441944 215.852028,240.157348 C213.085572,240.976965 210.206429,241.407898 207.386447,242.047255 C205.146801,242.557051 203.093088,241.565625 200.985848,241.210739 C196.357246,240.430554 191.669484,239.681351 187.22118,238.244909 C181.922093,236.535261 176.572297,236.250789 171.126717,236.236706 C168.588451,236.231073 166.050185,236.236706 163.51192,236.236706 C163.51192,236.374718 163.51192,236.512729 163.51192,236.65074 C160.61024,236.65074 157.700108,236.493013 154.809697,236.676089 C138.822286,237.690048 123.381405,241.09526 108.39127,246.843845 C97.449401,251.040509 87.716096,257.220026 78.1574552,263.796677 C77.5912051,264.188178 76.8502907,264.368437 76.1600853,264.514898 C75.8840031,264.574046 75.4811485,264.340272 75.2219693,264.134663 C72.8893567,262.270105 71.6892445,259.605646 70.4102516,257.031317 C70.1707925,256.54687 70.469412,255.487846 70.8891696,255.040014 C72.3625469,253.465561 73.8218383,251.775629 75.6022866,250.615209 C79.5435004,248.046513 83.634024,245.700324 87.7414505,243.396384 C91.5474404,241.261437 95.6154266,239.613753 99.9482264,239.064526 C108.577203,237.968886 116.975172,235.769159 125.457655,233.99473 C128.29454,233.400438 131.075082,232.665317 133.979579,232.479425 C136.869991,232.293532 139.704059,231.792186 142.557847,231.228875 C146.4399,230.465589 150.476897,230.107887 154.435014,230.1952 C161.032815,230.341661 167.348899,228.499635 173.834012,227.939141 C175.225692,227.81803 176.620188,227.158956 177.91045,226.533681 C180.840302,225.114139 183.716627,223.576301 186.598587,222.060995 C191.570883,219.450051 195.213477,215.537859 197.889784,210.637057 C202.290196,202.576082 204.881988,193.999678 205.513033,184.831798 C205.636988,183.023571 205.586279,181.167463 206.003219,179.424017 C208.316112,169.729442 206.975141,159.936287 206.949787,150.179748 C205.310197,144.126975 205.645439,137.919293 205.941242,131.796106 C206.484954,120.55806 208.259768,109.491824 212.823576,99.0790273 C215.167457,93.7275767 218.108577,88.7450945 223.114679,85.3567813 C223.368224,85.1849716 223.985183,85.0638598 224.013355,85.1230075 C224.30634,85.7341994 224.875407,86.5200177 224.695109,87.0100979 C222.810425,92.144674 222.658299,97.6425853 221.263802,102.881374 C220.711638,104.954357 220.683466,107.179434 220.514436,109.342546 C219.863671,117.68236 219.905928,126.064421 220.83841,134.333821 C221.477906,140.017624 222.396302,145.754943 224.280986,151.289469 C226.030445,156.424045 227.292535,161.767046 229.946304,166.512938 C236.899068,178.933937 245.046309,190.408573 257.055883,198.59066 C257.641853,198.99061 258.219372,199.506039 258.582786,200.100332 C258.932115,200.669276 259.334969,201.539591 259.137768,202.060653 C255.241629,212.476266 249.345302,221.325875 239.766941,227.502576 C234.279104,231.042983 228.929308,234.766466 222.903392,237.352061 Z M435.841624,355.329015 C435.757109,355.661368 435.51765,355.999354 435.261288,356.238761 C429.379048,361.708507 425.125129,368.541465 419.975351,374.625219 C417.172272,377.940302 414.433987,381.320165 411.552028,384.581734 C408.670068,387.840486 405.852903,391.155568 402.948406,394.394604 C401.497566,396.011306 399.984748,397.588575 398.381781,399.050366 C394.364504,402.714702 390.217637,406.238209 386.231349,409.936343 C369.156512,425.771004 350.560406,439.589013 330.59234,451.525564 C306.846457,465.718175 281.466618,476.226734 254.988084,484.113082 C247.364835,486.383224 239.485225,487.633773 231.72957,489.371586 C229.616696,489.844767 227.467199,490.179937 225.323337,490.506657 C222.114586,490.996737 218.894566,491.42767 215.677364,491.881135 C211.172717,492.010696 207.031484,490.644668 202.890252,489.273007 C202.115532,489.016701 201.461949,487.47323 201.721128,486.540951 C204.341092,477.102682 207.961149,468.033381 211.837568,459.059844 C213.558856,455.074421 215.280143,451.086182 217.091581,447.143008 C217.93673,445.303799 219.336861,444.501081 221.477906,445.171421 C222.478,445.484058 223.697832,445.622069 224.68384,445.354497 C228.571528,444.292656 232.549365,444.019451 236.527202,443.884256 C239.499311,443.78286 242.147446,442.501329 244.987148,441.971817 C256.033252,439.91855 266.746931,436.738661 277.376094,433.091225 C289.010985,429.097353 300.685317,425.221776 312.210339,420.918083 C317.633382,418.892982 323.016984,416.760851 328.403403,414.642803 C335.139245,411.992427 341.928612,409.463163 348.577122,406.607178 C368.297277,398.137803 387.166648,388.14749 403.771018,374.368913 C408.506672,370.437005 412.814118,365.984035 417.262421,361.708507 C421.707907,357.438613 426.071696,353.084222 430.497462,348.791795 C431.610242,347.713056 433.244198,347.955279 434.190765,349.41707 C434.968303,350.616922 435.638788,351.918169 436.126158,353.258848 C436.340262,353.839058 436.013471,354.647409 435.841624,355.329015 Z"/>
    <path fill="#000" d="M316 63.9577127C315.954726 69.4118836 315.071888 73.9138714 313.965511 78.4854634 312.262085 85.5099009 309.814473 92.1807499 306.560422 98.6010246 304.61082 102.445951 302.556524 106.240762 300.536182 110.049493 299.692959 111.636465 298.844076 113.220653 297.94143 114.774214 294.452521 120.785217 288.889508 123.97865 282.262562 125.40414 278.343553 126.244956 274.283062 126.119669 270.298972 125.501585 269.243527 125.33732 268.224868 124.872365 267.226016 124.454741 263.813506 123.023682 261.015022 120.762944 258.485351 118.134696 256.31221 115.873958 255.658571 113.187243 256.159412 110.19427 256.334847 109.144641 256.547068 108.05325 256.999806 107.101067 261.453612 97.6822515 265.997965 88.2996299 272.005227 79.7160624 274.481135 76.1801783 277.12682 72.7417398 279.922475 69.4452935 285.10632 63.3368449 291.512557 58.60934 298.323427 54.4052573 301.86044 52.2196911 305.751153 51.5654133 309.856917 52.2725902 311.339633 52.5287329 312.508261 53.3277871 313.399589 54.5556019 314.689891 56.3346806 315.714209 58.2000683 315.824564 60.4413177 315.895304 61.8695922 315.968874 63.3006508 316 63.9577127zM261.657343 111.455495C264.999113 116.973701 269.693435 119.746725 276.18739 119.317965 277.641809 119.223303 279.116036 119.262281 280.550648 119.047901 285.055387 118.374134 288.881019 116.492041 291.405031 112.597001 298.878031 101.056654 305.040921 88.942771 308.113877 75.4813539 309.240062 70.5478211 309.772029 65.5864467 308.897679 60.5499 308.792984 59.9457371 307.100877 58.7736054 306.441578 58.7262747 304.933396 58.6176924 303.549717 58.9879858 302.256585 59.6784577 295.465522 63.3062191 289.367712 67.8471852 284.475317 73.7440376 281.258051 77.6195894 278.357701 81.7624205 275.46018 85.8829784 269.843405 93.8707355 265.876292 102.721582 261.657343 111.455495zM216.042116 231.956667C212.182605 232.294958 209.160431 230.64109 206.87855 227.396965 206.459882 226.79845 205.97467 226.168129 205.802767 225.47709 204.086505 218.543568 204.99593 212.150732 209.75932 206.726509 211.483901 204.760372 213.824006 203.731042 216.294426 203.129635 216.97095 202.964827 217.73897 202.956153 218.418266 203.109396 221.604026 203.820675 224.595702 205.092881 227.057804 207.333698 229.908075 209.927263 231.388663 213.370894 230.91177 217.274253 230.360015 221.805041 228.591072 225.829838 224.986644 228.779043 222.355411 230.933119 219.494049 232.225565 216.042116 231.956667z"/>
  </g>
</svg>
