<svg xmlns="http://www.w3.org/2000/svg" width="116" height="36" viewBox="0 0 116 36">
  <path fill="#1A1919" fill-rule="evenodd" d="M114.937,70.87 C115.008,71.193 114.741,71.02 114.74,70.87 C114.502,70.91 114.525,70.689 114.248,70.772 C114.038,70.506 113.523,70.762 113.361,70.87 C109.961,70.764 105.978,70.928 102.337,70.772 C100.671,70.646 99.68,71.199 98.006,71.066 C97.241,71.173 96.504,71.154 95.742,71.165 C95.619,71.166 95.579,71.262 95.545,71.264 C95.483,71.268 95.08,71.163 94.758,71.165 C94.677,71.165 94.662,71.27 94.56,71.264 C94.545,71.263 94.451,71.165 94.364,71.165 C94.238,71.165 94.203,71.262 94.167,71.264 C94.089,71.268 94.068,71.16 93.97,71.165 C93.338,71.193 92.558,71.264 91.706,71.264 C91.142,71.264 90.261,71.452 89.639,71.264 C89.105,71.103 88.121,71.227 87.277,71.264 C85.007,71.363 82.747,71.314 80.583,71.559 C79.273,71.469 78.093,71.35 76.646,71.264 C76.563,71.259 76.55,71.165 76.449,71.165 C76.368,71.165 76.352,71.268 76.252,71.264 C74.781,71.204 73.287,70.968 71.724,70.968 C68.651,70.968 65.452,70.961 62.275,71.066 C60.841,71.117 59.31,71.038 57.648,71.066 C56.698,71.268 54.603,71.08 53.415,71.361 C50.607,71.433 47.529,71.506 44.36,71.46 C41.419,71.418 38.416,71.289 35.599,71.657 C28.151,72.241 19.88,71.811 12.171,71.756 C11.604,71.52 10.891,71.645 10.104,71.657 C9.698,71.664 9.276,71.706 8.923,71.657 C8.593,71.611 8.329,71.473 8.037,71.361 C7.862,71.012 7.395,70.955 7.152,70.673 C6.543,68.689 6.628,66.012 6.364,63.684 C6.272,61.217 5.967,58.963 5.872,56.498 C5.913,53.898 5.403,51.849 5.479,49.215 C5.228,48.809 5.286,48.094 5.281,47.441 C5.27680414,45.535 5.254,43.609 5.38,41.832 C8.935,41.679 12.415,41.451 16.01,41.34 C16.276,41.113 16.96,41.305 17.389,41.24 C18.718,41.192 20.253,41.35 21.425,41.143 C23.075,40.955 25.037,41.079 26.838,41.044 C27.104,40.817 27.788,41.009 28.217,40.945 C31.212,41.154 34.646,41.033 37.666,40.945 C43.167,40.902 48.655,40.844 54.105,40.75 C54.628,40.88 54.841,40.342 55.089,40.75 L56.467,40.75 C62.39,40.707 68.365,40.737 74.284,40.553 C80.249,40.365 86.18,40.773 92.1,40.453 C92.77,40.67 93.599,40.727 94.364,40.848 C98.299,40.846 102.073,40.682 106.078,40.75 C106.938,40.854 107.186,40.348 108.046,40.453 C108.762,40.414 109.649,40.547 110.211,40.356 C110.37,40.383 110.381,40.262 110.507,40.257 L111.689,40.257 C112.149,40.157 112.015,40.652 112.476,40.553 C112.612,40.777 113.161,40.589 113.46,40.65 C113.655,40.816 114.075,40.758 114.346,40.848 C114.548,45.213 114.304,51.049 114.641,55.908 C114.831,58.343 115.061,60.738 115.036,63.39 C115.351,65.927 114.839,68.248 114.937,70.87 Z M117.004,70.968 C117.073,65.555 116.968,60.853 116.511,55.908 C116.287,55.772 116.475,55.223 116.413,54.924 L116.413,43.998 C116.413,42.787 116.494,41.615 116.314,40.453 C116.321,40.086 116.156,39.891 115.921,39.765 C115.772,39.52 115.781,39.117 115.429,39.076 C115.229,38.611 114.666,39.053 114.444,39.174 C114.213,39.144 114.075,39.019 113.756,39.076 C113.849,38.72 113.369,38.938 113.165,38.879 C112.331,38.711 111.053,38.746 110.211,38.879 C107.269,39.033 104.191,38.879 101.058,38.879 L91.607,38.879 C90.927,38.903 90.254,39.116 89.541,39.174 C88.787,39.235 88.042,39.111 87.277,39.076 C86.506,39.04 85.748,39.07 85.013,38.978 C84.247,38.88 83.546,38.729 82.848,38.683 L80.386,38.683 C80.261,38.688 80.25,38.809 80.091,38.781 C77.092,38.886 74.421,38.76 71.625,38.978 C66.309,39.205 60.57,39.012 55.089,39.076 C54.758,39.139 54.175,38.949 54.007,39.174 C51.247,39.467 48.136,38.928 45.344,39.272 C43.806,39.211 42.561,39.443 41.013,39.371 C40.85,39.378 40.685,39.361 40.521,39.371 C40.442,39.375 40.333,39.469 40.324,39.469 C40.098,39.482 40.102,39.256 39.93,39.469 C39.882,39.529 39.803,39.372 39.832,39.371 C39.673,39.379 39.609,39.379 39.536,39.469 C39.487,39.531 39.411,39.371 39.438,39.371 C38.951,39.374 38.465,39.532 37.765,39.371 C35.758,39.542 32.064,39.433 29.398,39.567 C27.267,39.506 25.132,39.501 22.999,39.567 C22.284,39.59 21.64,39.722 20.933,39.765 C18.067,39.937 15.301,39.711 12.467,39.666 C9.991,39.947 7.207,39.918 4.593,40.061 C4.01,40.397 3.254,40.559 2.821,41.044 C3.152,43.534 3.385,46.123 3.313,49.018 C3.485,51.607 3.707,54.405 3.707,57.188 C3.707,60.008 3.864,62.772 4.1,65.357 C4.05,66.818 4.492,67.788 4.494,69.196 C4.52,70.614 4.374,72.204 4.888,73.134 C5.167,73.544 6.034,73.365 6.561,73.528 C7.301,73.546 7.77,73.293 8.53,73.33 C9.273,73.278 9.587,73.834 10.301,73.528 L16.897,73.528 C17.812,73.393 18.738,73.268 19.653,73.134 C23.934,73.228 28.278,73.151 32.351,73.232 C32.708,73.239 32.998,73.353 33.138,73.33 C33.198,73.321 33.188,73.228 33.335,73.232 C33.381,73.232 33.39,73.353 33.532,73.33 C33.583,73.322 33.595,73.238 33.729,73.232 C33.76,73.231 33.794,73.352 33.926,73.33 C33.985,73.321 33.976,73.228 34.123,73.232 C34.207,73.234 34.188,73.396 34.32,73.232 C34.37,73.169 34.44,73.332 34.418,73.33 C35.438,73.398 36.337,73.369 37.371,73.33 C43.473,73.102 49.464,73.274 55.679,72.838 C61.515,72.395 67.824,73.129 73.889,72.74 C76.842,73.023 79.919,72.694 82.946,72.838 C82.956,72.839 83.047,72.926 83.143,72.937 C83.239,72.948 83.341,72.934 83.437,72.937 C86.441,73.039 89.186,72.669 92.1,72.74 C98.176,72.579 104.495,72.737 110.605,72.838 C111.682,72.865 112.396,72.528 113.559,72.643 C114.389,72.841 115.68,72.759 116.413,72.543 C116.395,71.803 117.216,71.902 117.004,70.968 L117.004,70.968 Z" transform="translate(-2 -38)"/>
</svg>
