<svg xmlns="http://www.w3.org/2000/svg" width="24" height="24" viewBox="0 0 9 9">
  <path fill="#1A1919" fill-rule="evenodd" d="M515.358,246.065 C514.297,245.86 512.879,246.011 511.66,245.965 C512.074,245.48 512.6,245.107 513.159,244.766 C513.552,244.259 514.449,244.258 514.459,243.366 C514.399,242.993 514.025,242.933 513.858,242.667 L513.059,242.667 C513.058,242.799 512.884,242.758 512.859,242.867 C512.303,243.543 511.434,243.906 510.859,244.566 C510.229,245.166 509.496,245.668 509.161,246.565 C509.744,247.381 510.129,248.395 510.859,249.064 C511.074,249.549 511.561,249.763 511.76,250.263 C512.207,250.549 512.391,251.098 513.259,250.963 C513.511,250.759 513.67,250.352 513.459,249.963 C513.43,249.492 513.051,249.372 512.959,248.964 C512.629,248.795 512.498,248.425 512.26,248.164 C512.125,248.066 512.06,247.897 511.959,247.764 C511.822,247.755 511.569,247.374 511.76,247.364 C512.506,247.518 513.471,247.453 514.358,247.465 C515.291,247.632 516.192,247.83 517.358,247.764 C517.594,247.399 517.941,246.846 517.756,246.365 C517.192,246.03 516.265,246.057 515.358,246.065 Z" transform="translate(-509 -242)"/>
</svg>
