<svg xmlns="http://www.w3.org/2000/svg" width="24" height="24" viewBox="0 0 11 12">
  <path fill="#1A1919" fill-rule="evenodd" d="M274.184,568.338 L273.191,568.338 C273.059,568.041 273.09,567.579 273.092,567.147 L274.184,567.147 L274.184,568.338 Z M272.299,566.651 C272.246,567.352 272.016,568.505 272.397,569.033 C272.666,569.293 273.259,569.23 273.787,569.231 C274.424,569.34 274.644,569.029 275.077,568.934 C275.231,568.173 275.281,566.777 274.978,566.154 C274.166,566.073 272.794,566.104 272.299,566.651 Z M281.43,567.743 C279.968,567.903 278.323,567.878 276.765,567.941 L276.765,566.75 C278.054,566.997 280.027,567.042 281.43,566.849 L281.43,567.743 Z M282.125,565.956 C281.886,565.997 281.909,565.774 281.629,565.857 C280.301,565.994 278.629,566.17 277.261,565.956 C277.129,566.121 276.699,565.99 276.566,566.154 C276.405,566.325 275.943,566.193 275.971,566.551 C275.743,566.721 275.935,567.309 275.872,567.643 C275.83,568.114 275.919,568.455 276.07,568.735 C277.973,568.973 280.285,568.79 282.225,568.735 C282.479,568.092 282.616,566.443 282.125,565.956 Z M274.184,564.566 L273.191,564.566 C273.059,564.268 273.09,563.807 273.092,563.375 L274.184,563.375 L274.184,564.566 Z M272.299,562.878 C272.246,563.58 272.016,564.733 272.397,565.261 C272.666,565.522 273.259,565.458 273.787,565.459 C274.424,565.568 274.644,565.257 275.077,565.162 C275.175,564.396 275.314,563.264 275.177,562.581 C274.396,562.173 272.767,562.344 272.299,562.878 Z M276.765,562.978 C278.054,563.225 280.027,563.27 281.43,563.078 L281.43,563.97 C279.968,564.13 278.323,564.105 276.765,564.169 L276.765,562.978 Z M275.872,563.871 C275.83,564.342 275.919,564.683 276.07,564.962 C277.986,565.147 280.528,565.127 282.324,564.864 C282.46,564.148 282.597,562.617 282.125,562.184 C281.886,562.225 281.909,562.002 281.629,562.083 C280.301,562.222 278.629,562.4 277.261,562.184 C277.129,562.349 276.699,562.217 276.566,562.382 C276.405,562.553 275.943,562.42 275.971,562.78 C275.743,562.949 275.935,563.537 275.872,563.871 Z M273.092,559.702 L274.184,559.702 L274.184,560.894 L273.191,560.894 C273.059,560.595 273.09,560.134 273.092,559.702 Z M273.787,561.787 C274.424,561.895 274.644,561.584 275.077,561.488 C275.216,560.745 275.338,559.274 274.878,558.809 C273.996,558.563 272.759,558.71 272.299,559.206 C272.246,559.907 272.016,561.061 272.397,561.588 C272.666,561.849 273.259,561.786 273.787,561.787 Z M276.765,559.305 C278.054,559.551 280.027,559.597 281.43,559.405 L281.43,560.297 C279.968,560.458 278.323,560.432 276.765,560.497 L276.765,559.305 Z M275.872,560.199 C275.83,560.67 275.919,561.009 276.07,561.291 C277.577,561.458 279.722,561.447 281.231,561.291 C281.695,561.245 281.869,561.486 282.225,561.291 C282.38,560.548 282.67,559.052 282.125,558.511 C281.886,558.552 281.909,558.33 281.629,558.412 C280.301,558.549 278.629,558.726 277.261,558.511 C277.129,558.676 276.699,558.543 276.566,558.709 C276.405,558.879 275.943,558.749 275.971,559.107 C275.743,559.276 275.935,559.865 275.872,560.199 L275.872,560.199 Z" transform="translate(-272 -558)"/>
</svg>
