<svg xmlns="http://www.w3.org/2000/svg" width="24" height="24" viewBox="0 0 9 10">
  <path fill="#1A1919" fill-rule="evenodd" d="M537.995,545.06759 C537.849,544.997651 537.679,544.945602 537.695,544.742289 C537.244,544.838253 537.472,544.382831 536.995,544.498313 C537.11,544.402349 537.108,544.211235 537.096,544.011175 C537.356,544.204729 537.727,544.311265 537.896,544.580452 C538.139,544.625994 538.409,544.649578 538.396,544.90494 C538.209,544.916325 538.062,544.958614 537.995,545.06759 Z M536.097,544.580452 C535.648,544.586145 536.157,544.278735 535.996,544.011175 C535.971,543.842831 535.558,543.988404 535.497,543.847711 C535.413,543.618373 535.38,543.346747 535.297,543.116596 C535.882,543.236958 536.259,543.526476 536.796,543.685873 C536.461,543.901386 536.371,544.316145 536.097,544.580452 Z M535.896,546.28747 C535.542,546.242741 535.65,546.574548 535.297,546.530633 C535.384,545.923946 535.637,545.452259 535.796,544.90494 C536.204,545.018795 535.677,545.418916 535.696,545.71738 C535.631,546.015843 535.913,546.029669 535.896,546.28747 Z M534.797,545.230241 C534.754,545.384759 534.581,545.434367 534.597,545.636867 C534.438,545.697048 534.62,546.034548 534.298,545.961355 C534.358,545.279849 534.735,544.855331 534.897,544.254337 C534.978,544.29744 535.06,544.339729 535.196,544.336476 C535.204,544.747982 534.843,544.861837 534.797,545.230241 Z M534.097,547.26256 C533.837,547.148705 534.171,546.841295 534.197,546.694096 C534.2,546.502169 534.024,546.454187 534.097,546.205331 C534.433,546.121566 534.253,546.458253 534.298,546.611958 C534.328,546.803886 534.644,546.763223 534.597,547.018584 C534.364,547.045422 534.167,547.101536 534.097,547.26256 Z M534.197,543.523223 C534.402,543.365452 534.525,543.139367 534.696,542.954759 C534.952,542.950693 534.819,543.01494 534.797,543.116596 L534.797,543.523223 C534.507,543.802169 534.19,544.059157 533.997,544.417801 C533.773,544.203916 534.255,543.872108 534.197,543.523223 Z M533.897,542.466807 C534.271,542.379789 534.183,542.668494 534.497,542.628645 C534.433,542.794548 534.03,542.683133 533.997,542.87262 C533.78,542.886446 533.952,542.584729 533.897,542.466807 Z M533.198,542.628645 C532.922,542.523735 532.998,542.189488 533.098,541.978855 C533.348,541.96503 533.411,542.104096 533.497,542.222018 C533.545,542.478193 533.229,542.43753 533.198,542.628645 Z M532.298,543.929849 C532.075,543.89488 532.258,543.528916 532.198,543.360572 C532.36,543.338614 532.37,543.437831 532.498,543.441898 C532.524,543.679367 532.272,543.691566 532.298,543.929849 Z M532.298,548.156325 C532.317,548.064428 532.398,548.111596 532.397,548.156325 C532.38,548.249036 532.298,548.201867 532.298,548.156325 Z M532.099,546.855934 C531.878,546.845361 532.056,546.511114 531.998,546.367982 C532.328,546.415151 532.142,546.675392 532.099,546.855934 Z M531.998,544.091687 L532.099,544.091687 C532.088,543.994096 532.243,544.042892 532.099,544.091687 C532.106,544.234006 532.076,544.345422 531.998,544.417801 C531.749,544.404789 531.97,544.142108 531.998,544.091687 Z M539.395,544.254337 C539.137,544.075422 538.7,543.958313 538.396,543.847711 C538.103,543.436205 537.528,543.253223 537.196,542.87262 C535.19,542.227711 533.651,541.203825 531.798,540.434488 L531.599,540.434488 C531.399,540.435301 531.472,540.656506 531.198,540.596325 C530.958,540.699608 531.254,541.237982 530.999,541.329066 C531.216,542.94012 531.044,544.868343 531.099,546.611958 C531.213,547.033223 531.259,547.511416 531.299,547.993675 C531.546,548.063614 531.269,548.558886 531.499,548.644277 C531.513,548.903705 531.399,549.266416 531.798,549.212741 C532.157,549.419307 532.645,549.037078 532.798,548.806928 C533.192,548.666235 533.517,548.469428 533.798,548.237651 C534.585,547.956265 535.143,547.489458 535.896,547.181235 C536.544,546.786807 537.173,546.376114 537.896,546.043494 C538.272,545.888976 538.572,545.672651 538.896,545.474217 C539.022,545.470151 539.033,545.37012 539.194,545.392892 C539.219,545.30506 539.359,545.197711 539.395,545.311566 C539.544,545.189578 539.964,545.287169 539.894,544.986265 C539.969,544.595904 539.632,544.420241 539.395,544.254337 L539.395,544.254337 Z" transform="translate(-531 -540)"/>
</svg>
