<svg xmlns="http://www.w3.org/2000/svg" width="24" height="24" viewBox="0 0 9 8">
  <path fill="#1A1919" fill-rule="evenodd" d="M171.765,1008.06 C171.532,1008.13 171.657,1007.84 171.626,1007.71 C171.776,1007.72 171.774,1007.89 171.765,1008.06 Z M171.419,1007.09 C171.233,1006.84 171.604,1006.67 171.626,1006.4 C171.9,1006.36 171.716,1006.73 171.626,1006.75 C171.618,1006.92 171.614,1007.1 171.419,1007.09 Z M171.488,1005.57 C171.256,1005.38 171.621,1005.2 171.557,1004.95 C171.811,1005.01 171.553,1005.41 171.488,1005.57 Z M171.488,1003.84 C171.694,1003.94 171.609,1004.32 171.626,1004.6 C171.333,1004.6 171.662,1003.97 171.28,1004.05 C171.259,1003.89 171.48,1003.97 171.488,1003.84 Z M171.004,1006.4 C171.023,1006.58 170.978,1006.7 170.797,1006.68 C170.597,1006.41 171.016,1006.28 171.004,1005.99 C171.116,1005.97 171.124,1006.05 171.211,1006.06 C171.189,1006.22 171.141,1006.35 171.004,1006.4 Z M170.382,1004.95 C170.268,1004.44 170.744,1004.53 170.866,1004.26 C171.025,1004.33 170.797,1004.6 170.728,1004.67 C170.65,1004.8 170.646,1005.01 170.382,1004.95 Z M170.105,1005.85 C169.995,1005.9 170.121,1006.19 169.899,1006.12 C169.914,1005.82 169.972,1005.55 170.244,1005.5 C170.254,1005.67 170.134,1005.72 170.105,1005.85 Z M169.345,1006.61 C169.362,1006.53 169.482,1006.56 169.483,1006.47 C169.671,1006.42 169.623,1006.61 169.76,1006.61 C169.67,1006.9 169.534,1006.61 169.345,1006.61 Z M168.862,1005.99 C168.561,1005.89 168.867,1005.7 168.931,1005.57 C169.094,1005.63 168.873,1005.87 168.862,1005.99 Z M172.664,1003.43 C172.478,1003.31 172.541,1002.95 172.387,1002.81 L171.903,1002.81 C171.822,1002.86 171.716,1002.9 171.557,1002.88 C170.94,1003.41 170.214,1003.84 169.553,1004.33 C169.22,1004.57 168.764,1004.69 168.516,1005.02 C168.351,1005.13 168.212,1005.27 168.032,1005.36 C167.93,1005.4 167.858,1005.47 167.756,1005.5 C167.565,1005.47 167.691,1005.76 167.547971,1005.78 C167.544,1006.22 167.953,1006.25 168.101,1006.54 C168.308,1006.77 168.53,1006.99 168.723,1007.23 C169.338,1007.63 169.813,1008.17 170.452,1008.54 C171.099,1008.93 171.553,1009.52 172.387,1009.72 C172.531,1009.59 172.741,1009.52 172.939,1009.44 C173.161,1007.39 172.661,1005.49 172.664,1003.43 Z M166.65,1007.99 L166.65,1008.82 L166.305,1008.82 C166.308,1008.43 166.498,1008.23 166.65,1007.99 C166.584,1007.7 166.858,1007.98 166.65,1007.99 Z M166.374,1006.82 C166.308,1006.53 166.582,1006.8 166.374,1006.82 C166.453,1007.26 166.162,1006.97 166.374,1006.82 Z M166.235,1005.57 C166.048,1005.48 165.99,1005.26 165.682,1005.3 L165.682,1004.88 C165.738,1004.92 165.794,1004.95 165.889,1004.95 C165.963,1005.22 166.459,1005.2 166.235,1005.57 Z M166.166,1007.92 L165.82,1007.92 C165.761,1007.7 165.93,1007.71 165.959,1007.58 C166.061,1007.61 166.134,1007.68 166.235,1007.71 C166.199,1007.77 166.162,1007.83 166.166,1007.92 Z M165.682,1005.99 C166.064,1006.05 166.025,1006.39 165.959,1006.75 C165.585,1006.78 165.848,1006.17 165.682,1005.99 Z M166.235,1004.12 C166.414,1004.22 166.703,1004.21 166.65,1004.54 C166.478,1004.67 166.26,1004.41 166.166,1004.26 C165.926,1004.18 165.671,1004.11 165.613,1003.84 C165.828,1003.93 166.043,1004.01 166.235,1004.12 Z M166.582,1003.57 L166.443,1003.57 C166.455,1003.51 166.415,1003.5 166.374,1003.5 C166.346,1003.36 166.689,1003.4 166.582,1003.57 Z M167.065,1002.81 C166.402,1002.72 165.676,1002.78 165.129,1002.74 C165.029,1002.78 164.961,1002.84 164.922,1002.95 C164.918,1002.95 164.853,1002.94 164.853,1002.95 C164.756,1004.01 165.015,1005.1 164.992,1006.19 C165.112,1007.22 164.995,1008.49 165.337,1009.3 C165.629,1009.38 165.995,1009.38 166.374,1009.37 C166.402,1009.22 166.752,1009.38 166.719,1009.17 C166.807,1009.26 167.045,1009.26 167.134,1009.17 C167.355,1007.73 167.419,1005.96 167.202,1004.47 C167.193,1003.78 167.3,1003.32 167.065,1002.81 L167.065,1002.81 Z" transform="translate(-164 -1002)"/>
</svg>
