<svg xmlns="http://www.w3.org/2000/svg" width="24" height="24" viewBox="0 0 11 8">
  <path fill="#1A1919" fill-rule="evenodd" d="M152.067,1004.74 C152.006,1004.96 152.165,1005.34 151.721,1005.23 C151.769,1004.65 152.061,1004.32 152.136,1003.77 C152.217,1003.79 152.195,1003.9 152.205,1003.98 C152.162,1004.19 152.15,1004.45 152.067,1004.74 Z M151.859,1006.12 L151.859,1008.54 C151.736,1008.73 151.809,1008.14 151.79,1007.99 C151.774,1007.87 151.671,1007.83 151.514,1007.85 C151.567,1007.57 151.84,1007.22 151.583,1007.02 C151.692,1006.74 151.72,1006.38 151.859,1006.12 C151.785,1005.76 152.07,1006.04 151.859,1006.12 Z M150.823,1005.02 C150.824,1004.7 151.028,1004.52 150.892,1004.26 C151.134,1004.06 151.456,1003.95 151.651,1003.71 C151.739,1003.72 151.722,1003.84 151.651,1003.84 C151.677,1003.96 151.597,1003.97 151.514,1003.98 C151.471,1004.24 151.319,1004.39 151.237,1004.6 C151.092,1004.74 151.198,1005.12 150.823,1005.02 Z M150.546,1006.06 C150.595,1005.83 150.578,1005.54 150.823,1005.5 C150.798,1005.76 150.815,1006.05 150.546,1006.06 Z M149.715,1007.37 C149.43,1007.43 149.702,1007.16 149.715,1007.37 C150.183,1007.29 150.378,1007.49 150.685,1007.58 C150.627,1007.77 150.782,1007.75 150.754,1007.92 C150.416,1007.73 150.015,1007.6 149.715,1007.37 Z M149.579,1006.61 C149.774,1006.62 149.711,1006.9 149.509,1006.88 C149.48,1006.74 149.557,1006.7 149.579,1006.61 Z M149.924,1005.36 L150.131,1005.36 C150.172,1005.61 150.051,1005.7 149.993,1005.85 C149.97,1006.01 149.948,1006.17 149.715,1006.12 C149.75,1005.84 149.826,1005.59 149.924,1005.36 Z M150.476,1006.75 L150.476,1006.88 C150.386,1006.97 150.368,1006.91 150.27,1006.88 C150.283,1006.83 150.339,1006.82 150.339,1006.75 L150.476,1006.75 Z M150.546,1004.47 C150.753,1004.51 150.48,1004.61 150.546,1004.74 C150.41,1004.86 150.387,1005.09 150.062,1005.02 C149.987,1004.6 150.436,1004.7 150.546,1004.47 Z M148.887,1006.12 C148.656,1005.93 149.02,1005.75 148.956,1005.5 C149.129,1005.51 149.173,1005.4 149.233,1005.3 C149.388,1005.57 148.964,1005.85 148.887,1006.12 Z M147.989,1006.75 C147.847,1006.68 147.716,1006.6 147.574,1006.54 C147.659,1006.37 147.857,1006.32 148.058,1006.26 C148.036,1006.42 147.949,1006.52 147.989,1006.75 Z M146.745,1004.26 L146.745,1004.81 C146.741,1005.01 146.587,1005.07 146.469,1005.16 C146.469,1005.39 146.373,1005.52 146.261,1005.64 C146.269,1005.72 146.161,1005.68 146.261,1005.64 C146.348,1005.34 146.281,1005.33 146.192,1005.09 C146.345,1004.85 146.458,1004.57 146.607,1004.33 C146.546,1004.23 146.551,1004.06 146.33,1004.12 C146.361,1003.92 146.627,1003.96 146.676,1003.77 C146.83,1003.8 146.704,1004.11 146.745,1004.26 Z M146.676,1006.75 C146.615,1006.99 146.46,1007.13 146.33,1007.3 C146.345,1007.57 146.182,1007.66 146.123,1007.85 C145.985,1007.97 146.096,1008.33 145.846,1008.34 C146.168,1007.51 146.414,1006.6 146.676,1005.71 C146.757,1005.72 146.733,1005.84 146.745,1005.92 C146.74,1006.21 146.629,1006.4 146.676,1006.75 Z M145.708,1004.67 C145.632,1004.85 145.534,1005.01 145.363,1005.09 C145.263,1005.4 145.125,1005.68 144.947,1005.92 C145.013,1006.2 144.74,1005.93 144.947,1005.92 C144.926,1005.48 145.202,1005.34 145.155,1004.88 C145.417,1004.7 145.672,1004.52 145.915,1004.33 C146.103,1004.43 145.795,1004.62 145.708,1004.67 Z M144.257,1006.33 C144.154,1006.44 144.146,1006.64 144.119,1006.82 C144.026,1006.93 144.144,1007.26 143.911,1007.23 C143.891,1006.82 144.054,1006.59 144.119,1006.26 C144.223,1006 144.237,1005.64 144.396,1005.43 C144.357,1005.28 144.526,1005.34 144.533,1005.23 C144.615,1005.24 144.591,1005.35 144.603,1005.43 C144.433,1005.68 144.312,1005.97 144.257,1006.33 Z M152.827,1003.57 C152.8,1003.2 152.917,1002.69 152.689,1002.53 L152.274,1002.53 C152.273,1002.62 152.152,1002.59 152.136,1002.67 C151.25,1003.17 150.508,1003.81 149.648,1004.33 C149.225,1004.59 148.863,1004.92 148.473,1005.23 C148.355,1005.45 148.1,1005.54 147.92,1005.71 C147.859,1005.81 147.816,1005.93 147.642,1005.92 C147.58,1006.04 147.488,1006.18 147.367,1006.06 C147.315,1005.68 147.452,1005.5 147.436,1005.16 L147.436,1003.29 C147.434,1003.08 147.443,1002.87 147.229,1002.88 C147.004,1002.65 146.759,1003 146.607,1003.08 C146.477,1003.3 146.184,1003.35 146.053,1003.57 C145.775,1003.63 145.63,1003.84 145.432,1003.98 C145.202,1004.1 144.993,1004.23 144.81,1004.4 C144.555,1004.49 144.348,1004.63 144.188,1004.81 C143.933,1004.9 143.726,1005.04 143.566,1005.23 C143.083,1005.43 142.756,1005.8 142.321,1006.06 C142.382,1006.38 141.922,1006.43 142.113,1006.68 C142.146,1006.97 142.427,1007.01 142.598,1007.16 C142.808,1007.3 143.01,1007.44 143.22,1007.58 C143.631,1007.86 144.103,1008.08 144.464,1008.41 C144.941,1008.62 145.306,1008.95 145.777,1009.17 C146.25,1009.39 146.449,1009.88 147.09,1009.93 C147.135,1009.83 147.238,1009.8 147.367,1009.79 C147.569,1009.18 147.278,1008.5 147.367,1007.78 C147.409,1007.55 147.278,1007.14 147.436,1007.02 C147.682,1007.17 147.951,1007.29 148.127,1007.51 C148.616,1007.55 148.889,1007.8 149.303,1007.92 C149.555,1008.2 150.016,1008.27 150.27,1008.54 C150.651,1008.69 150.921,1008.95 151.237,1009.17 C151.405,1009.27 151.543,1009.41 151.651,1009.58 C152.001,1009.51 152.047,1009.74 152.343,1009.72 C152.622,1009.56 152.546,1009.05 152.55,1008.61 L152.55,1007.23 C152.6,1006.97 152.432,1006.93 152.482,1006.68 C152.558,1006.38 152.562,1006.02 152.55,1005.64 C152.685,1005.38 152.597,1004.91 152.758,1004.67 C152.71,1004.23 152.876,1004.01 152.827,1003.57 L152.827,1003.57 Z" transform="translate(-142 -1002)"/>
</svg>
