<svg xmlns="http://www.w3.org/2000/svg" width="24" height="24" viewBox="0 0 24 24">
  <path fill="#1A1919" fill-rule="evenodd" d="M20.9958894,17.893103 C20.850734,17.9617258 20.8017863,18.1264205 20.5924925,18.1281361 C20.4270829,17.5928783 20.1063908,17.2137374 20.0152467,16.6047101 C20.0017439,16.5206472 19.920727,16.505207 19.9004727,16.4280064 C19.8093287,16.2856141 19.6540462,16.2084135 19.438001,16.1929733 C19.4565674,16.0574433 19.4312496,15.9682337 19.380614,15.9013265 C18.8371253,15.7898144 18.3172665,15.5427724 17.7079516,15.6662934 C17.5070971,15.8327037 17.301179,15.9939672 17.1880929,16.2530183 C17.1155152,16.2290003 17.071631,16.1775332 17.0750067,16.0763146 C17.0918852,15.963087 16.9956776,15.9613714 16.9602327,15.9013265 C16.6986155,15.951078 16.8066381,16.3713926 16.784696,16.6630395 C16.6547313,16.7642581 16.4926974,16.836312 16.3812991,16.9564019 C16.2378316,16.8088629 16.3374149,16.4159974 16.0943641,16.369677 C15.7871748,16.429722 16.1973231,17.215453 15.8057412,17.191435 C15.8091169,16.9323839 15.8006776,16.6870574 15.6335802,16.6047101 C15.4361014,16.5995634 15.4614192,16.8208719 15.4580435,17.0130157 L15.4580435,17.6014562 C15.417535,17.7781599 15.5593146,17.7712976 15.5171183,17.953148 C15.5424361,18.1538697 15.4934884,18.2808218 15.4580435,18.4214985 C15.4580435,18.5587441 15.5593146,18.5947711 15.5171183,18.7714748 C15.7027822,19.2484032 16.0082836,19.6018106 16.2682129,20.0049695 C16.4893217,20.1113348 16.6091592,20.3223499 16.842083,20.4132751 C16.8960943,20.5179249 17.0547525,20.5110626 17.0750067,20.6483082 C17.2117228,20.6860507 17.3416875,20.7272244 17.3619417,20.8833413 L16.784696,20.8833413 C16.7323725,20.644877 16.6243499,20.4595955 16.4386861,20.3566613 C16.1433118,20.3875416 16.3424785,20.8953502 16.2682129,21 C15.7517299,20.9193682 15.8833824,20.1799576 15.5745053,19.8883107 C15.3382059,19.9895294 15.4394771,20.2108379 15.4580435,20.4733201 C15.1609813,20.421853 15.2133048,20.0186941 15.0563344,19.8299814 C15.015826,19.4954453 14.8875491,19.2569811 14.7660237,19.0082234 C14.5769842,19.0288103 14.6765675,19.3444751 14.6512497,19.5366189 C14.452083,19.4834363 14.5246607,19.1557624 14.3643147,19.0648372 C14.2697949,18.3580225 14.1364545,17.6940969 14.0183048,17.0130157 L14.0183048,16.5463807 C14.0588133,16.3662459 13.9170336,16.3731082 13.9592299,16.1929733 C13.9220972,15.9785271 14.0858189,15.9682337 14.0756918,15.7829521 C14.0334955,14.9834966 13.8056353,14.3779005 13.7870689,13.5544269 C13.6925492,13.4154658 13.7414969,13.1306812 13.5558331,13.0860764 C13.2705859,13.0706362 13.3802963,13.4549239 13.2655223,13.6144719 L13.2655223,14.551173 C13.0646678,14.4653945 13.0174079,14.220068 12.8638133,14.0828224 C12.8469348,13.7860289 12.76423,13.5578581 12.6899644,13.322825 C12.6072596,13.0740674 12.614011,12.7343846 12.4013416,12.6177258 C12.121158,12.6263037 12.1751693,12.9745643 12.1717935,13.2627801 C11.7903388,12.868199 11.798778,12.0773213 11.5945478,11.504321 C11.5557272,11.1526292 11.6232413,10.6928565 11.3649998,10.5659043 C10.9987357,10.6448205 11.1219489,11.2195364 11.0746891,11.6192642 C10.9177187,11.4082491 10.8485167,11.1097399 10.787754,10.8009374 C10.6257201,10.5744821 10.6628529,10.1438741 10.4991312,9.91913447 C10.2324504,9.86423623 10.3877329,10.2382305 10.2678953,10.3325868 C10.2240111,10.706581 10.3354094,10.926174 10.3269701,11.2692879 C10.0332837,11.2607101 10.0586015,10.8077996 9.97927242,10.742608 C9.96408174,10.7288834 9.98771168,10.6448205 9.97927242,10.6242337 C9.91175829,10.4406677 9.85605914,10.2365149 9.80542355,10.0975537 L9.80542355,9.74586191 C9.73790943,9.65665228 9.73453372,9.50396657 9.63326254,9.45249947 C9.12184306,9.33240958 9.28725266,10.1095627 9.34463966,10.3909162 C9.07120747,10.3943473 9.14884871,10.0426555 9.05770464,9.86252066 C8.92605211,9.72184393 8.92098855,9.45249947 8.59692076,9.51082885 C8.35555777,9.58974506 8.52603093,9.97574827 8.65261991,10.0392244 C8.61379929,10.2142125 8.53109449,9.98089498 8.42138404,10.0392244 L8.01967501,10.0392244 C7.92177953,9.8831075 7.66522587,9.88996978 7.49812841,9.80419129 C7.4086722,9.44563719 7.34959734,9.05448727 7.15211854,8.80744522 C6.68120753,8.79543623 6.92763408,9.51597556 6.86518351,9.91913447 L6.28793777,9.91913447 C6.12759173,9.59660734 6.1681002,9.06649626 5.88285303,8.86577459 C5.62292366,8.83317876 5.74951264,9.19687957 5.65330502,9.33240958 C5.64149004,9.59146063 5.80014823,9.88996978 5.71237987,10.0392244 C5.46088977,10.0975537 5.45413835,9.90712548 5.36636999,9.80419129 C5.31742226,9.65665228 5.20771181,9.57258936 5.19252113,9.3941701 C5.01867226,9.15742146 4.9815395,8.78685838 4.78912425,8.57241215 C4.44986578,8.68735533 4.65915956,9.03733157 4.61527538,9.3941701 C4.15955505,8.95841536 3.9890819,8.23272932 3.86586862,7.45900733 C3.76459744,7.45386062 3.68526834,7.47273189 3.63463275,7.5173367 C3.69708332,7.79869016 3.45909603,8.0748969 3.63463275,8.27904971 C3.48610168,8.44545998 3.38651835,8.06631905 3.23123587,8.04401664 C3.2227966,7.97539385 3.24136299,7.87932194 3.17384887,7.86902852 C3.1907274,7.30460604 3.08439265,6.8637046 3,6.40221631 C3.32744349,6.71616559 3.59581213,7.08844425 3.86586862,7.45900733 C4.16461861,7.66316014 4.38235166,7.9496603 4.84651125,7.98568727 C4.80093922,8.18984008 4.91064967,8.23444489 4.96128526,8.33737908 C5.12500701,8.38541504 5.10981633,8.2567473 5.24990813,8.27904971 C5.23978101,8.42658871 5.33936435,8.46261568 5.423757,8.5123672 C5.61110869,8.5295229 5.7005649,8.44545998 5.71237987,8.27904971 C5.83896885,8.40257074 5.85584738,8.64103494 6.11577675,8.63074152 C6.55968211,8.49178037 6.17485161,7.99598069 6.23055076,7.57566608 C6.45672307,7.52248341 6.27274709,7.88446865 6.40439963,7.92735789 C6.45165951,8.05259449 6.54617929,8.13494184 6.75040951,8.10406158 C6.9411369,8.08347475 6.84155357,7.76437876 6.86518351,7.57566608 C6.83649001,7.37151327 6.77741516,7.19480957 6.80610866,6.93061182 C6.6390112,6.89973156 6.89556487,6.83797105 6.86518351,6.7556237 C6.97995752,6.7556237 6.9377612,6.5960757 7.09641938,6.63724938 C7.08291656,6.96320765 7.11161006,7.24970781 7.32765525,7.34063301 C7.98254224,7.25313895 7.19431486,6.40907859 7.55720327,6.11056944 C7.74455496,6.05738678 7.63653236,6.30099769 7.72936428,6.34388694 C7.74624281,6.4656924 7.88464677,6.46226126 7.96228801,6.52059063 C8.2897315,6.52573734 8.18002105,6.1071383 8.13444902,5.87553638 C8.10575552,5.63020989 8.30323432,5.61648533 8.24922303,5.34714087 C8.18677246,5.0211826 8.06862275,4.75183814 7.90321315,4.52709849 C7.89308603,4.28005643 8.18508461,4.34524809 8.13444902,4.05703235 C8.07874987,3.47030747 7.5453883,3.36737328 7.20950554,3.06200185 C7.26182898,2.89044487 7.3546609,3.13748693 7.49812841,3.06200185 C7.54707615,3.14949591 7.6854801,3.14606477 7.78675129,3.1786606 C8.06187134,3.22326542 8.04330495,2.96936108 8.30829788,3.00367248 C8.35724562,3.08945097 8.49227387,3.0877354 8.59692076,3.12033123 C8.79439957,3.70019383 9.17247865,4.09649046 9.46110153,4.58542786 C9.6670196,4.80673637 9.80879926,5.08980539 10.1514334,5.17215274 C10.1615605,5.94415917 10.225699,6.66126736 10.2678953,7.40067795 C10.4248656,7.72835179 10.6223444,8.01656752 10.902528,8.22072033 C10.9278458,8.42830428 11.1118218,8.47634024 11.1911509,8.63074152 C11.3143642,8.75940926 11.3700633,8.95669979 11.5354729,9.04247828 C11.6873797,9.3770144 11.9287427,9.61719418 12.1144065,9.91913447 C12.2629376,10.2571017 12.5397455,10.4664012 12.7490393,10.742608 C13.2520195,11.2040963 13.7431847,11.6844558 14.2478528,12.1476597 C14.5111579,12.3689682 14.7103246,12.6571839 14.9972596,12.8527589 C15.2133048,13.1221033 15.4462285,13.3725765 15.7466663,13.5544269 C16.4606282,13.5561425 16.9923019,13.3760077 17.7079516,13.3794388 C18.1062849,13.5184 18.725727,13.6247653 19.151066,13.5544269 C19.4211225,13.6504988 19.5426479,13.8992565 19.7840109,14.0262086 C19.9241027,14.256095 20.1654657,14.3813316 20.3038696,14.611218 C20.4929091,14.6146491 20.5249784,14.7776282 20.7663413,14.7278767 C20.7697171,14.8788468 20.7984106,15.0075146 20.8794275,15.0795685 C20.8777396,15.5513502 20.9266874,15.9716648 20.9958894,16.369677 C21.0144557,16.9615486 20.9621323,17.4281836 20.9958894,17.893103 Z M11.0612918,12.205 C10.8352918,12.165 10.9632918,11.945 10.9912918,11.795 C11.1432918,11.803 11.0212918,12.083 11.0612918,12.205 Z M12.6394558,8.68416031 C13.1139456,8.31520356 13.5782313,7.93352417 13.9761905,7.48823155 C14.1734694,7.41984733 14.1955782,7.18765903 14.4421769,7.16221374 C14.4727891,7.08587786 14.5306122,7.03021628 14.6156463,7 C15.4166667,7.75540712 16.1445578,8.57760814 17,9.28212468 C16.9778912,9.46342239 16.8248299,9.51749364 16.7091837,9.60655216 C16.6870748,9.7894402 16.5323129,9.84351145 16.4183673,9.93575064 C16.2670068,10.1949746 16.0459184,10.3858142 15.8367347,10.5877863 C15.5255102,11.0951018 15.0544218,11.4513359 14.7908163,12 C14.5867347,11.9363868 14.5765306,11.6914758 14.3826531,11.6199109 C14.3095238,11.4338422 14.0612245,11.4131679 14.0323129,11.1857506 C14.3163265,11.1046438 14.4047619,10.8438295 14.6734694,10.75 C14.8486395,10.533715 15.0085034,10.3015267 15.255102,10.1504453 C15.3877551,9.89599237 15.7227891,9.82760814 15.8367347,9.55407125 C15.8452381,9.41889313 15.744898,9.38708651 15.7193878,9.28212468 C15.255102,9.24077608 15.0170068,9.51431298 14.7908163,9.71787532 C14.5544218,9.92938931 14.3707483,10.1981552 14.0935374,10.3699109 C14,10.571883 13.7312925,10.6100509 13.6853741,10.8597328 C13.3486395,10.7913486 13.3180272,10.4430662 13.0459184,10.3158397 C13.5187075,9.92302799 13.9914966,9.53180662 14.4982993,9.17398219 C14.6360544,8.97519084 14.7840136,8.78753181 14.9642857,8.63008906 C15.0102041,8.36450382 15.3571429,8.38199746 15.255102,7.97805344 C15.1972789,7.90489822 15.0986395,7.86991094 15.0204082,7.81583969 C14.8486395,7.80629771 14.5102041,7.92080153 14.4982993,8.08619593 C14.4931973,8.20547074 14.1819728,8.40585242 14.1513605,8.57601781 C13.9064626,8.80025445 13.6037415,8.97201018 13.3945578,9.22805344 C13.1377551,9.42207379 12.8928571,9.62722646 12.755102,9.93575064 C12.4744898,9.68924936 12.1479592,9.48886768 12,9.11991094 C12.1989796,8.96087786 12.4115646,8.81615776 12.6394558,8.68416031 Z M15.5873321,5 L15.7869482,5 C16.2648752,5.62482303 16.9692898,6.03067485 17.4241843,6.67815007 C17.6948177,6.82161397 17.8771593,7.0500236 18.1458733,7.19348749 C18.4088292,7.58235017 18.815739,7.82586126 19,8.29023124 C18.6142035,8.4487966 18.4779271,8.85276074 18.0806142,9 C17.1266795,7.95988674 16.0364683,7.05379896 15,6.09674375 C15.109405,5.64747522 15.3550864,5.33223218 15.5873321,5 Z M19.078,5.62522852 C19.088,5.55210238 19.202,5.57404022 19.282,5.5630713 C19.492,5.4606947 19.578,5.24862888 19.83,5.18829982 C19.81,5.08592322 19.894,5.08043876 19.898,5 C20.032,5.1261426 20.288,5.04021938 20.444,5 C20.656,5.30530165 20.852,5.62705667 20.992,6.00182815 C20.53,6.3071298 20.106,6.65082267 19.69,7 C19.422,6.85009141 19.278,6.58683729 19.008,6.4369287 C19.072,6.32906764 19.248,6.32358318 19.35,6.25045704 C19.398,5.91773309 19.312,5.70383912 19.078,5.62522852 Z M6.08119403,19.6443452 C5.84477612,19.8199405 5.44179104,19.8571429 5.1641791,20 C4.9241791,19.9940476 4.92238806,19.7946429 4.79522388,19.6934524 C4.67343284,19.608631 4.51223881,19.5580357 4.49074627,19.389881 C4.31701493,19.3125 4.22925373,19.1651786 4,19.1354167 C4.20955224,18.4107143 4.49432836,17.75 4.67343284,17 C4.98149254,17.0818452 5.1480597,17.2827381 5.59223881,17.2529762 C5.58507463,17.4613095 5.57970149,17.6696429 5.65313433,17.8125 C5.77492537,18.1190476 6.41970149,17.9910714 6.87820896,18.016369 C6.92298507,18.5833333 6.69014925,18.8571429 7,19.2366071 C6.76537313,19.4315476 6.41791045,19.5327381 6.08119403,19.6443452 Z M21.8658568,15.2107542 C21.7764384,14.9880998 21.6956179,14.7551691 21.6319932,14.5085365 C21.5081831,14.474282 21.4634739,14.3646675 21.2777587,14.3903584 C21.1384723,14.3732312 21.1694248,14.1882568 20.9854292,14.2173731 C20.6191575,13.761788 20.1514304,13.405541 19.6923011,13.0458685 C18.6433542,12.9979122 17.7371328,12.8077996 16.5764128,12.8711705 C16.3115966,12.8197887 16.2840833,13.0064758 16.106966,13.0458685 C16.0020713,12.7581305 15.6478368,12.723876 15.5188679,12.4584035 C15.7974407,12.4035963 15.8988962,12.1723783 16.106966,12.049062 C16.3563059,11.6157423 16.7466517,11.3194407 16.9873936,10.8809829 C17.408692,10.5966703 17.6339576,10.1171071 18.0466581,9.82594365 C18.1223198,9.90644177 18.3252309,9.90644177 18.3991731,9.82594365 C18.70182,9.60157655 18.9012919,9.27102043 19.1626689,9.00726063 C19.4584375,8.873668 19.6819836,8.66642816 19.8676988,8.42150834 C19.9141276,8.12006856 19.8057937,7.97619958 19.750767,7.77752337 C19.9983873,7.59768714 20.2718013,7.43840362 20.4557969,7.19177108 C20.6879409,6.99309486 20.9940271,6.87149132 21.1608269,6.60601879 C21.1917794,6.44330982 21.2468061,6.30286629 21.2777587,6.13844459 C20.9630746,5.16561623 20.3818548,4.45826039 19.9261647,3.62245011 C19.6905815,3.40835936 19.4446809,3.20454497 19.1626689,3.03669782 L18.457639,3.03669782 C17.7938791,3.42891207 17.2745643,3.96499531 16.8704618,4.61583119 C16.8549856,4.82649648 16.9787957,4.89843097 16.9873936,5.08511811 C16.6795879,4.92583459 16.6108045,4.52676943 16.1671515,4.50107854 C15.804319,4.53190761 15.6701914,4.78539106 15.4002165,4.90870733 C15.2918826,5.1502017 15.107887,5.31976157 15.0494211,5.61092499 C14.7588112,5.71368855 14.6384403,5.98258653 14.4630426,6.19839 C14.1552368,6.28231358 14.0744163,6.59231698 13.8164785,6.72419688 C13.7064251,7.00508394 13.4347306,7.12497476 13.2868463,7.36818185 C13.0615806,7.53260355 12.8586696,7.72271613 12.6402823,7.89398873 C12.392662,8.15603581 12.2430581,8.51399554 11.8767864,8.6561518 C11.7529763,8.4848792 11.6412033,8.30504297 11.464086,8.18686488 C11.3712284,7.96763595 11.1012535,7.92824325 11.0531051,7.661058 C11.2508574,6.7978441 10.9344538,5.95004473 10.8777074,5.14335079 C10.5423883,4.79566741 10.2913289,4.36234774 9.93709435,4.03179162 C9.81156463,3.80571179 9.66024114,3.60703558 9.4676476,3.44603933 C9.38338792,3.17885408 9.10653471,3.10349414 9.11341305,2.7455344 C8.79528979,2.65475993 8.56658496,2.46807279 8.23298543,2.39442557 C7.93033844,2.2642584 7.5279555,2.23685478 7.29409192,2.04160402 C6.88311106,2.11867669 6.61829494,2.09469853 6.23482744,2.04160402 C6.21075325,1.94226591 6.15744611,2.0535931 6.05942976,2.04160402 C5.71207355,2.0861349 5.44037909,2.20602572 5.23574845,2.39442557 C5.25122472,2.60509087 5.12741458,2.67702536 5.11881666,2.86199977 C5.56418922,3.35355213 6.42742099,3.4306248 6.7627401,4.03179162 C7.08946128,4.46853675 7.26829814,5.05086359 7.46777002,5.61092499 C6.92610069,6.1452955 6.51683941,6.80983318 5.822127,7.19177108 C5.48680789,7.28597101 5.17040421,7.40072365 4.7078358,7.36818185 C4.38111461,7.18320745 4.12833559,6.929724 3.94262039,6.60601879 C3.65373008,6.38678986 3.4422211,6.09220099 3.29605636,5.72910308 C3.27370175,5.47904509 3.35452226,5.12622353 3.23759046,4.96865274 C2.92634554,4.81793285 2.52396261,4.98920545 2.24023105,4.90870733 C1.78626057,5.87468479 2.07515088,7.38017094 2.29697737,8.36327566 C2.41562874,8.47974102 2.59790477,8.5311228 2.70967781,8.6561518 C3.26682341,9.54505659 3.94949873,10.3072197 4.76630169,10.9392155 C5.24950513,10.942641 5.64157055,11.0402664 6.11789565,11.0539682 C6.81776682,10.9717573 7.53655343,10.9066738 8.35163681,10.9392155 C9.02743379,11.5712114 9.70495035,12.2049201 10.2896093,12.9276904 C9.91817891,13.0081885 9.78921003,13.3267556 9.4676476,13.45521 C9.01883586,14.0221223 8.41526146,14.436602 7.94065595,14.9761107 C7.68443776,14.9778234 7.72226863,15.2689869 7.46777002,15.2689869 C7.38694952,15.4436849 7.19779515,15.5070558 7.11525506,15.6783284 C6.91578318,15.9163973 6.38443136,16.1047971 6.58734241,16.5569568 C6.83668226,16.7470694 6.95361405,16.4010987 7.17372096,16.380546 C7.3198857,16.2144116 7.47980712,16.0602663 7.70335319,15.9712045 C7.84951793,15.8050701 8.00771977,15.6509247 8.23298543,15.561863 C8.36367391,15.3786013 8.53563242,15.2398705 8.76089808,15.1525215 C9.06354508,14.8476563 9.38338792,14.5633437 9.70151118,14.2738931 C10.0093169,13.955326 10.4374936,13.7566498 10.7005902,13.3952646 C10.8467549,13.4654864 10.9310146,13.5973663 10.9946392,13.7463734 C11.111571,13.8439988 11.2680533,13.9039442 11.2886883,14.0974823 C11.202709,14.0135587 10.9035012,14.0135587 10.8192416,14.0974823 C10.1795559,14.5547801 9.63272777,15.1028524 9.05666674,15.6200957 C8.74370223,15.8564519 8.47028819,16.130488 8.17279995,16.380546 C8.0627465,16.5415423 7.92517968,16.6785603 7.76181909,16.7916003 C7.63456979,16.9354692 7.5984585,17.1735382 7.35255782,17.199229 C7.04819124,17.0896146 6.84871936,17.236909 6.47041061,17.199229 C6.5305961,16.8943638 6.54607236,16.6699967 6.35347882,16.4987241 C5.95453506,16.4062369 5.47649038,16.3959606 5.11881666,16.2640807 C5.67252309,15.4693758 6.39990762,14.8476563 7.11525506,14.2173731 C7.53139468,13.9484751 7.85811586,13.5888027 8.23298543,13.2787993 C8.35507598,13.068134 8.58206122,12.9619449 8.70243219,12.7529924 C8.94145453,12.6382397 9.20111189,12.5457525 9.17187894,12.1672401 C9.17015936,12.0935929 9.0962172,12.086742 9.11341305,11.992542 C8.91909992,11.8075676 8.42385939,11.8418221 8.35163681,12.1090074 C8.16076285,12.1706655 8.01287853,12.3299491 7.88047047,12.4584035 C7.65176564,12.6827706 7.37491242,13.0715594 7.17372096,13.2205666 C7.12041382,13.2599593 7.04647165,13.2411193 7.00004285,13.2787993 C6.84871936,13.4089664 6.75242259,13.6436099 6.52715693,13.6881408 C5.79633322,14.4605802 5.02595906,15.1970524 4.41378673,16.0893826 C4.23494987,17.7849813 3.45081903,18.8759878 3.17912457,20.4773866 C2.95901766,20.8661754 2.45002045,21.212146 2.8266096,21.7653565 C2.87131882,21.7790583 2.94182181,21.768782 2.9435414,21.8235892 C3.41986649,21.9075128 3.47489322,21.5718185 3.7672227,21.4724804 C5.23230928,21.0597134 6.55123112,20.5013648 7.82200457,19.8916343 C8.03351355,19.8710816 8.21578958,19.8162744 8.40838312,19.7768817 C8.50467989,19.6364381 8.60269625,19.5011328 8.58721998,19.2476493 C9.25097986,18.7030025 9.75137915,17.9922212 10.465007,17.4921052 C10.7538973,17.1769636 11.1889524,17.0039783 11.464086,16.6734222 C11.7753309,16.3788333 12.2877673,16.2846334 12.2293014,15.6200957 C12.1502005,15.561863 12.0504645,15.524183 11.9937182,15.4453976 C11.4073397,15.4659503 11.2577358,15.9215355 10.8777074,16.1476153 C10.7143469,16.2966224 10.5251925,16.4199387 10.3497948,16.5569568 C10.1451642,16.6665713 10.0763808,16.9097784 9.81844297,16.9662983 C9.52955266,17.3037053 9.21830774,17.6154215 8.87954946,17.9031594 C8.75058057,18.0881338 8.57002413,18.2200137 8.4685686,18.430679 C8.21750916,18.4923372 8.26565755,18.8520096 7.94065595,18.8400205 C7.71882946,18.631068 7.86327462,18.0573048 7.82200457,17.668516 C8.96552872,16.6819858 10.0179149,15.6012557 11.2302224,14.6832346 C11.2611749,14.599311 11.3196408,14.5410783 11.4073397,14.5085365 C11.4400118,14.4229002 11.3368367,14.205384 11.464086,14.2173731 C11.9163369,14.7808599 12.4287733,15.2844014 12.8173995,15.9129718 C12.8019233,16.2195498 12.9601251,16.3565679 12.9927972,16.6151895 C13.0289085,17.1409964 13.0667394,17.4321598 13.0512631,18.0778575 C13.0976919,18.5026135 13.2610525,18.805766 13.2868463,19.2476493 C13.8164785,19.7957216 14.3082799,20.3780485 14.9307697,20.8284954 C14.9204522,21.0340225 15.1302416,21.0203207 15.1680725,21.1796043 C15.2643693,21.2977823 15.3245547,21.4519277 15.5188679,21.4724804 C16.3322317,21.5803821 16.8893773,21.94348 17.752609,22 C17.9675572,22 18.0157056,21.8338656 18.1635899,21.7653565 C18.337268,21.7242511 18.4163689,21.5889458 18.5161048,21.4724804 C18.498909,21.2361242 18.4146493,21.0665643 18.3991731,20.8284954 C18.1567115,20.5047902 17.8334295,20.2615831 17.4602795,20.0697578 C17.358824,19.874507 17.0682141,19.8710816 16.9873936,19.6604163 C16.7552496,19.5970454 16.5488994,19.5114091 16.459481,19.3075947 C16.4766768,18.9393587 16.450883,18.6139407 16.4027347,18.3125009 C16.6692704,18.0710066 16.9409648,17.8363631 17.2814427,17.668516 C17.6253597,17.3225453 17.8867367,16.9046402 18.3389876,16.7333676 C18.7792014,16.7916003 19.054335,16.7504948 19.4567179,16.9080656 C19.9003709,17.4612761 19.7954762,18.5591335 20.2202138,19.1328967 C20.7739202,19.2270966 21.4170451,19.1791403 21.8073909,18.8400205 C22.1994563,17.8449267 21.8727351,16.3599933 21.8658568,15.2107542 L21.8658568,15.2107542 Z"/>
</svg>
