<svg xmlns="http://www.w3.org/2000/svg" width="24" height="24" viewBox="0 0 18 14">
  <path fill="#1A1919" fill-rule="evenodd" d="M645.989,450.894198 C646.073,450.800674 646.121,450.677059 646.09,450.489198 L645.789,450.489198 C645.775,450.690885 645.771,450.882812 645.989,450.894198 Z M642.291,444.229589 C642.094,444.092963 641.668,444.140132 641.392,444.067752 C641.387,444.171035 641.264,444.179981 641.291,444.310102 C641.285,444.313355 641.191,444.308475 641.191,444.310102 C641.096,445.219318 640.825,446.374138 640.893,447.237812 C641.374,447.659077 641.975,447.982752 642.491,448.37474 C642.818,448.51462 642.963,448.804138 643.291,448.944017 C643.561,449.157903 643.678,449.496216 644.19,449.514108 C644.466,449.304288 644.74,449.094469 644.689,448.619529 C644.514,448.465824 644.268,448.367421 644.09,448.212903 C643.942,448.007963 643.703,447.876216 643.391,447.806276 C643.096,447.424047 642.474,447.306126 642.291,446.831186 C642.175,445.91465 642.481,444.937933 642.291,444.229589 Z M644.689,442.441246 C645.034,442.50468 645.168,442.396517 645.09,442.116758 C644.777,442.078535 644.644,442.186698 644.689,442.441246 Z M647.988,448.619529 C647.68,448.67971 647.867,448.338957 647.488,448.456065 C647.383,448.813897 647.826,448.722812 647.789,449.024529 C647.476,449.367722 647.284,449.807692 646.988,450.163897 C646.799,450.198867 646.809,450.395674 646.489,450.325734 C646.463,450.927541 645.955,451.137361 645.39,451.300824 C645.388,451.059288 645.398,450.80718 645.09,450.813686 C645.517,450.455855 646.029,450.168776 646.289,449.675945 C646.597,449.615764 646.481,449.898776 646.789,449.837782 C647.004,449.664559 646.826,449.394559 646.589,449.350644 C646.691,449.244108 646.688,449.051367 646.789,448.944017 C646.912,448.681336 646.465,448.88221 646.589,448.619529 C647.32,447.93965 647.255,446.613234 647.289,445.368144 C647.186,444.747632 646.836,444.326367 646.489,443.905102 C646.303,443.840041 646.123,443.768475 645.889,443.741638 C645.68,443.426096 645.457,443.117873 645.189,442.847873 C645.112,442.829981 644.992,442.846246 644.99,442.766547 C644.467,442.731577 644.113,442.558355 643.59,442.523385 C643.318,442.581939 643.389,442.361547 643.191,442.359921 C642.869,442.342029 642.768,442.50468 642.391,442.441246 C642.289,442.33471 642.293,442.141969 642.191,442.036246 C641.793,442.0948 641.789,442.0948 641.392,442.036246 C641.084,441.973626 641.199,442.258264 640.893,442.198083 C640.979,442.053324 641.209,441.9598 640.992,441.791457 C640.302,441.705252 640.377,442.246879 639.793,442.036246 C639.561,442.089921 639.525,442.306246 639.293,442.359921 L639.293,443.011336 C639.088,443.088596 638.897,443.176427 638.693,443.254499 C637.828,443.797752 637.189,444.523174 636.594,445.286005 C636.53,445.722722 636.471,446.162692 636.295,446.505885 C636.285,446.804349 636.558,447.145915 636.395,447.319138 L637.394,447.319138 C637.264,447.69974 636.85,447.851005 636.694,448.212903 C636.404,448.464198 636.271,448.843987 635.994,449.107481 C635.508,449.231096 635.618,448.870824 635.295,448.862692 C635.313,448.57724 634.957,448.595945 634.895,448.37474 C634.457,448.124258 633.723,447.809529 633.996,447.237812 C634.309,447.220734 634.729,447.291487 634.895,447.154861 C635.045,446.979198 635.065,446.697812 635.095,446.424559 C635.283,446.4148 635.164,446.156186 635.395,446.17977 C635.748,444.544318 636.811,443.48465 637.994,442.523385 C638.502,442.368053 638.828,442.06471 639.393,441.953294 C639.879,441.753234 640.534,441.6898 641.092,441.546668 C642.346,441.475102 643.208,441.723144 644.29,441.791457 C644.381,441.934589 644.641,441.940282 644.79,442.036246 L645.09,442.036246 L645.09,442.116758 C645.815,442.258264 646.17,442.699861 646.689,443.011336 C647.081,443.451306 647.443,443.914861 647.889,444.310102 C647.92,444.583355 647.991,444.823264 648.188,444.961517 C648.183,445.426698 648.389,445.719469 648.488,446.099258 C648.527,447.107692 648.295,447.894108 647.988,448.619529 Z M644.99,451.464288 C644.924,451.572451 644.776,451.615553 644.59,451.626939 C644.479,451.472421 644.463,451.24227 644.391,451.057662 C644.65,451.024318 644.691,450.814499 644.99,450.813686 C644.885,450.897451 644.783,451.394349 644.99,451.464288 Z M643.291,452.033565 L643.291,451.383776 C643.539,451.394349 643.705,451.340674 643.791,451.220312 C644.176,451.204047 643.896,451.729409 644.09,451.870915 C643.73,451.848957 643.608,452.020553 643.291,452.033565 Z M641.892,451.95224 C641.712,451.961999 641.681,451.85221 641.492,451.870915 C641.063,451.84733 641.163,452.253957 640.792,452.275915 C641.131,452.055523 640.27,451.757059 640.192,452.114077 C640.049,452.096999 640.157,451.870915 639.992,451.870915 C639.597,451.764379 639.788,452.137662 639.393,452.033565 C639.457,451.84733 639.591,451.542361 639.393,451.383776 C639.027,451.410614 638.936,451.661096 638.793,451.870915 C638.521,451.795282 638.933,451.61718 638.793,451.383776 C638.354,451.297571 638.465,451.658656 638.094,451.626939 C638.06,451.273987 638.166,451.035704 638.393,450.894198 C638.87,451.157692 639.49,451.304077 639.992,451.545614 C641.018,451.613927 642.07,451.432571 642.591,451.545614 C642.413,451.642391 641.913,451.540734 641.892,451.95224 Z M637.793,451.707451 C637.797,451.627752 637.916,451.645644 637.994,451.626939 C637.99,451.705824 637.871,451.690373 637.793,451.707451 Z M640.691,442.441246 C640.711,442.348535 640.793,442.396517 640.792,442.441246 C640.773,442.533144 640.691,442.486788 640.691,442.441246 Z M649.388,445.123355 C649.252,444.936306 649.1,444.761457 649.088,444.474379 C648.747,444.01977 648.334,443.622903 648.088,443.091849 C647.41,442.641306 646.861,442.083415 646.189,441.62962 C645.285,441.333596 644.498,440.944861 643.391,440.816367 C642.816,440.836698 642.116,440.755373 641.691,440.896879 C639.992,440.870041 638.98,441.400282 637.793,441.791457 C637.707,441.910192 637.645,442.048445 637.394,442.036246 C636.551,442.70474 635.854,443.492782 635.195,444.310102 C635.182,444.786668 634.809,444.972903 634.795,445.449469 C634.717,445.630011 634.585,445.765011 634.596,446.017933 C634.38,446.086246 634.633,446.535975 634.395,446.586397 C633.553,446.578264 632.682,446.548174 632.297,446.912511 C632.406,447.337843 632.68,447.6298 632.996,447.887602 C633.189,448.24462 633.545,448.470704 633.896,448.700855 C634.16,448.999318 634.42,449.304288 634.795,449.514108 C635.352,449.575915 635.243,450.177722 635.895,450.163897 C636.219,449.966276 636.568,449.790614 636.794,449.514108 C636.853,449.099349 637.154,448.88465 637.294,448.537391 C637.597,448.324318 637.721,447.964047 638.094,447.806276 C638.165,447.402903 638.748,447.417541 638.693,446.912511 C638.4,446.851517 638.5,446.474168 638.094,446.505885 C637.757,446.45465 637.165,446.610794 636.994,446.424559 C637.202,446.161065 637.335,445.834951 637.494,445.529981 C637.64,445.188415 638.012,445.031457 638.094,444.636216 C638.553,444.386547 638.834,443.991306 639.293,443.741638 C640.07,443.398445 640.911,443.108114 641.991,443.011336 C642.973,443.052812 643.778,443.236608 644.59,443.417963 C645.283,443.856306 645.92,444.341005 646.289,445.042843 C646.58,446.281427 646.154,447.567993 645.989,448.700855 C645.223,449.972782 643.748,450.67218 641.791,450.97715 L641.191,450.97715 C640.557,450.895824 639.953,450.792541 639.492,450.570523 C639.163,450.540433 638.993,450.379409 638.793,450.244409 C638.631,450.077692 638.056,450.247662 637.894,450.082571 C637.488,450.565644 637.257,451.189409 636.994,451.788776 C637.927,452.846818 640.029,452.950915 641.991,453.170493 C642.957,453.089168 643.631,452.770373 644.59,452.682541 C644.9,452.312511 645.514,452.18727 645.889,451.870915 C646.366,451.634258 646.748,451.322782 647.188,451.057662 C647.573,450.530674 647.965,450.009379 648.389,449.514108 C648.51,449.205885 648.785,449.022903 648.988,448.781367 C649.059,448.405644 649.316,448.182812 649.388,447.806276 C649.365,447.652571 649.5,447.627361 649.487,447.480975 C649.563,446.607541 649.371,445.951246 649.388,445.123355 L649.388,445.123355 Z" transform="translate(-632 -439.846)"/>
</svg>
