<svg xmlns="http://www.w3.org/2000/svg" width="24" height="24" viewBox="0 0 15 15">
  <path fill="#1A1919" fill-rule="evenodd" d="M749.596,475.789819 C750.129,473.785151 749.756,471.043675 749.996,468.79991 C749.867,468.79503 749.857,468.695 749.695,468.718584 C749.672,468.834066 749.531,468.856024 749.496,468.961747 C749.054,470.580934 749.492,472.915783 749.195,474.652892 C749.348,475.017229 749.195,475.627982 749.596,475.789819 Z M747.297,474.570753 C747.363,474.788705 747.338,475.079036 747.496,475.221355 C747.517,475.502741 747.461,475.845934 747.797,475.871958 C748.646,475.737771 748.116,474.743976 748.096,474.164127 C748.07,472.315602 748.215,470.328825 747.797,468.79991 C747.774,468.736476 747.713,468.705572 747.597,468.718584 C747.592,468.822681 747.469,468.830813 747.496,468.961747 C747.301,469.073976 747.443,469.460271 747.297,469.612349 L747.297,474.246265 C747.16,474.430873 747.555,474.552048 747.297,474.570753 Z M745.598,473.189036 C745.814,473.419187 745.648,473.960813 745.897,474.164127 C745.838,474.591898 745.972,474.862711 745.998,475.221355 C746.121,475.527139 745.943,476.077711 746.598,475.95247 C746.949,475.793886 746.67,475.54503 746.697,475.221355 C746.771,474.835873 746.584,474.661837 746.598,474.326777 C746.415,473.797349 746.308,473.207741 746.197,472.620572 C746.225,471.270572 745.996,470.128765 745.998,468.79991 C745.977,468.708825 745.887,468.673042 745.797,468.637259 C745.797,468.798283 745.525,468.740542 745.598,468.961747 C745.602,470.049066 745.428,470.991627 745.498,472.13262 C745.582,472.443283 745.628,472.784849 745.598,473.189036 Z M751.795,467.336054 L748.996,467.336054 C746.277,467.580843 743.457,467.246596 740.6,467.336054 C740.5,467.092892 740.822,467.192922 741,467.174217 C741.089,467.110783 741.226,467.087199 741.4,467.092892 L742.499,467.092892 C742.904,466.989608 743.512,467.049789 743.898,466.930241 C745.002,466.879819 746.357,467.032711 747.297,466.848916 C748.373,466.949759 749.628,466.903404 750.695,467.011566 C751.387,467.131114 752.01,466.641536 752.395,467.011566 C752.479,467.352319 751.947,467.189669 751.795,467.336054 Z M751.095,472.539247 C750.917,473.098765 751.022,473.888434 750.994,474.570753 C750.801,475.27991 750.681,476.049247 750.595,476.847048 C749.6,476.986114 748.631,477.145512 747.597,477.253675 C747.523,477.004819 747.77,477.014578 747.696,476.765723 C747.059,476.625843 747.172,477.09753 746.896,477.253675 C746.556,477.350452 746.821,476.910482 746.896,476.847048 C746.848,476.590873 747.115,476.529066 746.896,476.359096 C746.598,476.35991 746.477,476.505482 746.396,476.684398 C746.309,476.620964 746.172,476.596566 745.998,476.603072 C745.664,476.684398 745.651,477.025964 745.298,477.091024 C745.236,476.704729 745.807,476.526627 745.498,476.196446 C744.91,476.178554 744.788,476.541265 744.598,476.847048 C744.321,476.563223 744.925,476.302982 744.798,475.871958 C744.471,475.690602 744.199,476.248494 743.998,476.440422 C743.74,476.092349 744.473,475.85244 744.398,475.384006 C744.713,475.344157 744.625,475.633675 744.998,475.546657 C745.329,475.518193 745.154,475.078223 745.197,474.814729 C745.028,473.977078 744.955,473.061355 744.698,472.295271 C744.678,472.040723 744.766,471.698343 744.598,471.563343 L744.598,470.994066 C744.448,470.737078 744.548,470.276777 744.398,470.018976 C744.369,469.527771 744.521,468.890181 744.098,468.718584 C743.727,468.633193 743.902,468.992651 743.699,469.043886 C743.863,470.725693 743.986,472.440843 744.299,474.002289 C744.189,473.981958 744.23,473.840452 744.098,473.839639 C743.695,473.890873 743.656,474.238133 743.299,474.326777 C743.104,473.372831 743.964,472.87512 743.699,472.13262 C743.209,471.982982 743.221,472.657982 742.999,472.457108 C742.661,471.807319 743.681,471.193313 743.398,470.58744 C742.982,470.628102 742.883,470.926566 742.799,471.238042 C742.44,471.231536 742.72,470.706988 742.499,470.58744 L742.499,470.018976 C742.379,469.358614 742.209,468.737289 742.199,467.986657 C745.393,467.98259 748.653,468.033825 751.595,467.824006 C751.492,469.448886 751.064,470.807018 751.095,472.539247 Z M743.699,475.384006 C743.853,474.93997 744.088,474.561807 744.198,474.082801 C744.529,474.084428 744.3,474.543102 744.498,474.652892 C744.491,474.891175 744.27,474.954608 744.098,475.058705 C743.949,475.153855 743.98,475.397018 743.699,475.384006 Z M745.897,465.548524 C746.77,465.291536 747.613,465.501355 748.695,465.467199 L748.695,466.036476 C747.809,466.154398 746.82,466.190181 745.897,466.280452 L745.897,465.548524 Z M753.693,466.523614 C753.508,466.457741 753.289,466.419518 753.193,466.280452 C753.109,466.104789 752.557,466.310542 752.494,466.116988 L749.596,466.116988 C749.432,465.707922 749.383,465.206145 749.096,464.897922 C747.693,464.760482 745.616,464.703554 744.598,465.141898 C744.217,465.374488 744.26,465.950271 743.898,466.199127 C743.48,466.382108 743.094,466.183675 742.6,466.199127 C742.021,466.324367 741.352,466.376416 740.6,466.360964 C740.456,466.578102 739.946,466.612259 739.801,466.848916 C739.611,467.157952 739.709,467.394608 739.801,467.824006 C740.023,468.049277 740.928,467.720723 741,468.068795 C740.991,469.863645 741.335,471.372229 741.5,473.027199 C741.627,473.356566 741.685,473.742861 741.699,474.164127 C741.895,474.466657 741.77,475.028614 742,475.301867 C742.063,476.172048 742.43,476.795 742.499,477.659488 C742.996,477.859548 743.514,477.904277 744.098,477.984789 C744.563,478.049036 745.057,478.137681 745.397,478.14744 C745.499,478.14988 745.516,478.066114 745.598,478.066114 C745.699,478.066114 745.715,478.144187 745.797,478.14744 C747.1,478.187289 748.505,478.117349 749.996,478.14744 C750.469,477.989669 751.025,477.901837 751.494,477.740813 C751.696,477.444789 751.717,477.000753 751.895,476.684398 C751.839,475.988253 751.971,475.446627 752.094,474.896054 C751.938,472.30259 752.555,470.339398 752.594,467.906145 C752.924,467.82238 753.357,467.82238 753.594,467.662169 C753.646,467.230331 753.872,466.931867 753.693,466.523614 L753.693,466.523614 Z" transform="translate(-739 -464)"/>
</svg>
