<svg xmlns="http://www.w3.org/2000/svg" width="24" height="24" viewBox="0 0 10 9">
  <path fill="#1A1919" fill-rule="evenodd" d="M121.13,976.186 C121.026,976.62 121.465,976.512 121.427,976.88 C121.54,977.688 121.249,978.091 121.13,978.667 C121.797,978.573 121.917,977.932 122.023,977.278 C121.962,976.72 121.721,975.891 121.13,976.186 Z M123.414,975.391 C123.325,975.082 123.082,974.929 123.016,974.597 C122.6,974.615 122.71,974.11 122.222,974.199 L122.023,974.199 C122.039,974.317 122.006,974.482 122.123,974.497 C122.797,975.08 122.986,976.15 123.116,977.278 C123.01,977.8 122.962,978.381 122.818,978.866 C122.653,979.065 122.458,979.234 122.421,979.561 C122.151,979.602 122.011,980.033 122.222,980.256 C122.926,980.364 122.997,979.839 123.215,979.462 C123.494,979.145 123.556,978.612 123.712,978.171 L123.712,976.284 C123.551,976.048 123.553,975.649 123.414,975.391 Z M119.839,976.682 C119.643,976.983 119.852,977.688 119.64,977.973 C119.718,978.877 119.504,979.49 119.542,980.356 C119.124,980.277 119.348,979.556 119.144,979.263 C118.927,979.245 118.829,979.345 118.846,979.561 C118.612,979.331 118.855,978.626 118.648,978.369 C118.171,978.223 118.556,978.941 118.151,978.866 C118.09,978.367 118.245,977.693 118.151,977.476 C117.949,977.506 117.887,977.675 117.754,977.774 C117.711,977.961 117.889,978.372 117.555,978.271 C117.528,977.933 117.632,977.465 117.457,977.278 C117.282,977.368 117.111,977.462 117.159,977.774 C116.895,977.742 117.252,978.33 116.861,978.171 L116.861,977.178 C116.63,977.212 116.395,977.242 116.463,977.575 C116.405,977.781 116.587,978.228 116.364,978.271 C115.953,978.284 116.261,977.579 116.166,977.278 C115.681,977.257 115.766,977.805 115.768,978.271 C115.357,978.284 115.666,977.579 115.57,977.278 C115.34,977.379 115.365,977.734 115.372,978.072 C115.047,977.866 115.164,977.22 115.074,976.781 C115.37,976.581 116.01,976.725 116.463,976.682 C116.812,976.74 116.79,976.212 117.059,976.484 C118.039,975.741 119.052,975.034 119.839,974.1 C119.936,974.103 119.917,974.222 119.939,974.299 C119.766,974.953 119.864,975.879 119.839,976.682 Z M120.336,973.108 L120.237,973.108 C119.164,973.988 118.261,975.038 117.159,975.888 C116.589,975.806 115.469,975.878 114.776,975.988 C114.478,976.624 114.442,978.161 114.875,978.667 C115.476,978.811 116.662,978.843 117.257,978.667 C117.704,979.114 118.141,979.571 118.449,980.156 C118.736,980.3 118.832,980.634 119.046,980.852 C119.368,980.992 119.311,981.513 119.839,981.447 C120.282,980.831 120.105,979.595 120.137,978.569 C120.329,977.238 120.465,975.852 120.435,974.299 C120.363,973.995 120.606,974.007 120.535,973.703 C120.474,973.498 120.694,973.013 120.336,973.108 L120.336,973.108 Z" transform="translate(-114 -973)"/>
</svg>
