<svg xmlns="http://www.w3.org/2000/svg" width="24" height="24" viewBox="0 0 24 24">
  <path fill="#1A1919" fill-rule="evenodd" d="M12.0719958,8.63383498 C10.6371202,7.33602474 9.55309955,4.49365423 6.50913074,5.55183223 C6.39298566,5.83417121 6.25022401,6.09041162 6.02761262,6.26361116 C6.0300323,8.79279894 7.92222914,9.46424372 8.68685088,11.243691 C7.28827061,12.0859628 6.141338,13.1749845 4.81776809,14.0908067 C4.73549867,14.959177 3.85715154,15.0469631 4.09186138,16.2237709 C4.29753495,17.2866941 4.94117223,17.9178048 6.02761262,18.1194755 C7.91013069,17.0423167 9.18288713,15.3672636 11.3460891,14.5629534 C12.6406228,16.1383574 13.3084569,18.3282639 15.7015294,18.8312544 C16.887177,18.6533097 17.6977729,18.1028673 17.8768299,16.9355498 C17.4316071,14.6032876 15.4208455,13.8084678 14.7312341,11.7182103 C16.0402859,11.1820035 16.8170061,10.1261981 17.8768299,9.3479865 C18.9197158,8.5531667 19.9045293,7.70140459 20.0521303,6.02872411 C19.7182132,5.6419909 19.3673583,5.27661105 19.0866744,4.8424259 C15.2369491,4.62651963 14.6417056,7.59938294 12.0719958,8.63383498 Z"/>
</svg>
