<svg xmlns="http://www.w3.org/2000/svg" width="24" height="24" viewBox="0 0 11 9">
  <path fill="#1A1919" fill-rule="evenodd" d="M141.687463,1040.06835 C142.474934,1039.38395 143.232724,1039.0057 143.913259,1039.54918 C144.246372,1039.95123 143.864331,1040.45482 143.395909,1040.97068 C143.450768,1041.1011 143.500225,1041.23821 143.534,1041.391 C143.598,1041.755 143.639,1042.146 143.732,1042.484 L143.732,1042.484 L143.732,1044.369 C143.7488,1044.4582 143.8304,1044.48244 143.935456,1044.48326 L144.018,1044.48013 C144.10365,1044.4739 144.19668,1044.46034 144.279648,1044.45697 L144.358616,1044.45764 L144.358616,1044.45764 L144.427,1044.469 C144.545,1044.583 144.778,1044.581 145.023,1044.569 L145.023,1044.569 L144.94115,1044.74778 C144.728047,1045.1428 144.37225,1045.39513 144.129,1045.76 C143.702,1046.028 143.596,1046.616 143.037,1046.752 C142.612,1046.78 142.531,1046.464 142.342,1046.256 C142.101,1046.1 141.903,1045.902 141.747,1045.66 C141.294,1045.418 140.862,1045.155 140.554,1044.767 C140.486286,1044.44386 140.879959,1044.5821 141.13614,1044.58285 L141.196974,1044.57983 L141.196974,1044.57983 L141.25,1044.569 C141.296,1044.57714 141.338286,1044.58157 141.377656,1044.58309 L141.487819,1044.5797 C141.65951,1044.56216 141.778286,1044.49186 141.944,1044.469 C141.900093,1043.85045 141.995624,1043.09188 141.941277,1042.48396 C141.803853,1042.63983 141.648744,1042.81973 141.377879,1043.01644 C140.783749,1043.59461 140.074198,1044.3221 139.358552,1045.04406 L139.488828,1045.04237 L139.488828,1045.04237 L139.686903,1045.04802 L139.686903,1045.04802 L139.86,1045.065 C140.132,1045.255 140.197,1045.655 140.456,1045.859 C140.582,1046.196 141.006,1046.235 141.051,1046.654 C140.389875,1046.75938 139.586859,1046.84872 138.782016,1046.86935 L138.513859,1046.87361 C138.184183,1046.87554 137.856818,1046.86492 137.54144,1046.83811 C136.711086,1047.63525 135.907757,1048.27405 135.194618,1047.8011 C134.864333,1047.35945 135.237869,1046.81922 135.565711,1046.28506 C135.503354,1046.24467 135.445261,1046.20163 135.391,1046.156 C135.073,1045.114 135.261,1043.743 135.293,1042.781 C135.2538,1042.7274 135.19076,1042.69768 135.113352,1042.68235 L134.987648,1042.66897 L134.987648,1042.66897 L134.847496,1042.67006 C134.750824,1042.67402 134.649256,1042.6829 134.552264,1042.68718 L134.411392,1042.68899 C134.27632,1042.68499 134.1622,1042.66 134.101,1042.582 C134.074,1042.224 134.494,1042.314 134.499,1041.988 C134.659,1041.849 134.812,1041.705 134.995,1041.59 C135.171,1041.17 135.487,1040.891 135.789,1040.597 C135.761,1040.437 135.882,1040.426 135.888,1040.299 L135.888,1040.299 L136.087,1040.299 C136.678,1040.403 136.905,1040.87 137.178,1041.291 C137.582,1041.468 138.008,1041.777 138.073,1042.384 C138.001667,1042.44533 137.896889,1042.47311 137.775407,1042.48415 L137.648978,1042.49023 C137.431049,1042.49314 137.182222,1042.46511 136.98,1042.484 C136.914359,1043.01233 136.984569,1043.92836 137.194734,1044.55802 L139.733151,1042.01809 C139.598382,1042.02921 139.47012,1042.04693 139.363,1042.086 C139.119,1041.866 138.933,1041.589 138.767,1041.291 C138.553,1041.042 138.394,1040.738 138.171,1040.497 L138.171,1040.497 L138.171,1040.199 C138.253,1040.181 138.27,1040.1 138.37,1040.1 L138.37,1040.1 L138.654544,1040.11335 C139.619116,1040.14392 140.715148,1040.04333 141.661578,1040.09225 Z M139.462,1045.561 L139.26923,1045.56155 C139.140088,1045.56252 139.00996,1045.56444 138.880467,1045.5657 L138.838152,1045.56636 C138.742834,1045.66141 138.647882,1045.75568 138.553558,1045.84882 C138.575977,1045.90135 138.587934,1045.96423 138.569,1046.058 L138.569,1046.058 L139.76,1046.058 C139.780889,1045.91889 139.730469,1045.85148 139.665278,1045.79898 L139.563481,1045.7243 C139.514111,1045.68544 139.472333,1045.639 139.462,1045.561 L139.462,1045.561 Z M143.020705,1041.3787 C142.806593,1041.61276 142.612747,1041.84096 142.490961,1042.05893 C142.458642,1042.07137 142.428285,1042.08452 142.399597,1042.09837 C142.446803,1042.29469 142.460723,1042.52114 142.441,1042.781 C142.462375,1042.786 142.482391,1042.78745 142.501137,1042.78646 L142.553656,1042.7772 C142.618844,1042.75798 142.665156,1042.71708 142.698344,1042.72461 L142.720863,1042.74044 L142.720863,1042.74044 L142.739,1042.781 C142.732727,1042.84018 142.696628,1042.90688 142.652489,1042.97583 L142.559947,1043.11519 C142.469595,1043.25445 142.405182,1043.38873 142.541,1043.476 L142.541,1043.476 L142.550971,1043.43795 C142.588143,1043.37192 142.717571,1043.36886 142.739,1043.476 C142.726,1044.027 142.379,1044.241 142.441,1044.866 C142.38,1045.004 142.059,1044.881 142.044,1045.065 C142.219,1045.249 142.334,1045.022 142.541,1044.965 L142.541,1044.965 L142.541,1045.462 L142.541,1045.462 L142.6269,1045.42106 C142.711123,1045.38685 142.790074,1045.37265 142.86163,1045.37659 L142.930641,1045.38652 C143.085549,1045.42347 143.196333,1045.55583 143.236,1045.76 L143.236,1045.76 L143.387943,1045.70086 C143.718734,1045.53922 143.893625,1045.22225 144.129,1044.965 C144.083,1044.95671 144.040735,1044.95218 144.001394,1044.9506 L143.891332,1044.95386 C143.719816,1044.97133 143.601143,1045.04214 143.434,1045.065 C143.5,1044.602 143.278,1044.427 143.236,1044.072 C143.25102,1043.08745 143.233328,1042.13561 143.020705,1041.3787 Z M135.987,1040.597 L135.874629,1040.8443 C135.592797,1041.40178 135.181,1041.82987 134.796,1042.284 C134.8436,1042.2962 134.90096,1042.29856 134.962864,1042.29632 L135.058476,1042.29017 C135.28648,1042.27081 135.5382,1042.2272 135.59,1042.384 C135.614,1042.791 135.639,1043.196 135.789,1043.476 L135.789,1043.476 L135.799023,1043.43795 C135.817706,1043.40494 135.859557,1043.38766 135.899309,1043.39203 L135.937426,1043.40384 C135.961122,1043.41682 135.980143,1043.44029 135.987,1043.476 C136.009,1043.896 135.835,1044.117 135.789,1044.469 L135.789,1044.469 L135.852469,1044.45835 C135.974641,1044.45536 135.928375,1044.59525 135.987,1044.667 C136.052,1044.747 136.112,1044.798 136.186,1044.866 C136.16,1045.047 135.829,1045.423 136.087,1045.561 L136.087,1045.561 L136.12528,1045.48047 C136.18336,1045.38012 136.2696,1045.3078 136.384,1045.263 L136.384,1045.263 L136.418752,1045.33114 L136.825643,1044.92508 C136.601751,1044.3314 136.477429,1043.6382 136.477236,1042.82147 L136.484,1042.484 C136.648,1042.482 136.54,1042.208 136.682,1042.186 L136.682,1042.186 L136.798408,1042.19004 C137.065297,1042.19505 137.294,1042.16387 137.378,1041.988 C136.987,1041.748 136.775,1041.331 136.384,1041.093 C136.323,1040.858 136.252,1040.631 135.987,1040.597 L135.987,1040.597 Z M141.227586,1040.49533 L138.767,1040.497 C138.707,1040.503 138.65,1040.512 138.669,1040.597 C138.981,1040.814 139.215,1041.109 139.363,1041.49 C139.493,1041.49243 139.621633,1041.49347 139.748761,1041.49299 L140.125496,1041.48685 C140.172454,1041.48546 140.219176,1041.48384 140.265656,1041.48197 C140.339913,1041.40342 140.414954,1041.32552 140.489944,1041.24761 L140.75808,1040.96951 C140.915128,1040.80736 141.071748,1040.64777 141.227586,1040.49533 Z" transform="translate(-134 -1039)"/>
</svg>
