<svg xmlns="http://www.w3.org/2000/svg" width="24" height="24" viewBox="0 0 9 8">
  <path fill="#1A1919" fill-rule="evenodd" d="M193.536,1007.58 C193.254,1007.49 193.135,1007.24 192.844,1007.16 C192.836,1007.04 192.928,1007.01 192.914,1006.88 C193.158,1006.92 193.156,1007.19 193.466,1007.16 C193.416,1007.37 193.587,1007.36 193.536,1007.58 Z M192.567,1007.85 C192.82,1007.9 192.905,1008.11 193.12,1008.2 C193.256,1008.34 193.529,1008.34 193.536,1008.61 C193.25,1008.34 192.389,1008.37 192.567,1007.85 Z M192.567,1008.89 C192.679,1008.87 192.687,1008.95 192.775,1008.96 C192.803,1009.09 192.461,1009.06 192.567,1008.89 Z M192.844,1005.43 C192.837,1005.35 192.945,1005.39 192.844,1005.43 C192.92,1005.8 192.635,1005.51 192.844,1005.43 Z M192.499,1003.64 L193.328,1003.64 C193.323,1004.03 193.314,1004.43 193.397,1004.74 C193.232,1004.71 193.247,1004.87 193.052,1004.81 C192.836,1004.52 193.221,1004.02 193.052,1003.77 C192.722,1003.86 192.645,1004.2 192.567,1004.54 C192.409,1004.37 192.543,1003.91 192.499,1003.64 Z M193.466,1006.47 C193.1,1006.39 193.093,1006 193.259,1005.71 C193.497,1005.8 193.36,1006.25 193.466,1006.47 Z M194.227,1007.85 C194.146,1006.11 194.158,1004.7 193.881,1003.15 C193.262,1002.98 192.544,1003.16 192.014,1003.29 C191.863,1004.7 191.718,1006.29 191.946,1007.71 C191.987,1008.34 191.836,1009.16 192.083,1009.58 C192.172,1009.75 192.629,1009.54 192.706,1009.72 C192.98,1009.69 193.369,1009.78 193.536,1009.65 C193.883,1009.64 194.01,1009.77 194.227,1009.58 C194.373,1009.12 194.292,1008.33 194.227,1007.85 Z M190.219,1006.88 C190.054,1006.83 190.275,1006.58 190.286,1006.47 C190.587,1006.56 190.281,1006.76 190.219,1006.88 Z M189.389,1005.85 C189.437,1005.6 189.713,1005.75 189.804,1005.85 C189.699,1006.04 189.505,1005.97 189.389,1005.85 Z M189.044,1006.95 C188.753,1006.85 189.149,1006.54 189.182,1006.33 C189.389,1006.52 189.083,1006.78 189.044,1006.95 Z M188.768,1007.85 C188.593,1007.95 188.386,1008.02 188.283,1008.2 C188.121,1007.96 188.576,1007.76 188.56,1007.44 C188.807,1007.4 188.769,1007.64 188.768,1007.85 Z M188.006,1006.4 C187.98,1006.1 188.205,1006.05 188.214,1005.78 L188.421,1005.78 C188.379,1006.08 188.272,1006.32 188.006,1006.4 Z M187.867,1004.95 C187.822,1004.7 188.017,1004.68 188.006,1004.47 C188.206,1004.5 188.321,1004.61 188.352,1004.81 C188.177,1004.92 188.121,1005.09 187.867,1004.95 Z M187.661,1008.61 C187.551,1008.42 187.519,1008.16 187.523,1007.85 C187.77,1007.91 187.569,1008.4 187.867,1008.41 C187.889,1008.56 187.669,1008.48 187.661,1008.61 Z M187.661,1006.88 C187.952,1006.98 187.585,1007.27 187.591,1007.51 C187.405,1007.36 187.585,1007 187.661,1006.88 Z M187.591,1005.36 L187.798,1005.36 C187.795,1005.68 187.603,1005.81 187.523,1006.06 C187.288,1005.84 187.637,1005.62 187.591,1005.36 Z M187.523,1004.12 C187.728,1004.12 187.757,1004.3 187.937,1004.33 C187.853,1004.5 187.616,1004.51 187.591,1004.74 C187.535,1004.71 187.479,1004.67 187.385,1004.67 C187.366,1004.42 187.512,1004.34 187.523,1004.12 Z M187.316,1005.09 C187.353,1004.98 187.387,1005.08 187.385,1005.16 C187.26,1005.18 187.243,1005.09 187.316,1005.09 Z M188.628,1004.95 C188.876,1005.02 189.036,1005.19 189.112,1005.43 C188.86,1005.45 188.662,1005.42 188.491,1005.36 C188.457,1005.15 188.589,1005.09 188.628,1004.95 Z M191.047,1005.99 C190.965,1005.68 190.669,1005.58 190.564,1005.3 C189.878,1004.94 189.484,1004.3 188.768,1003.98 C188.513,1003.71 188.143,1003.55 187.867,1003.29 C187.502,1003.08 187.275,1002.73 186.693,1002.74 C186.676,1002.84 186.58,1002.85 186.554,1002.95 C186.304,1004.2 186.833,1005.48 186.624,1006.68 C186.629,1006.88 186.887,1006.83 186.831,1007.09 C186.786,1007.44 186.896,1007.63 186.901,1007.92 L186.901,1008.96 C186.967,1009.24 186.994,1009.56 187.316,1009.58 C187.621,1009.63 187.782,1009.41 187.937,1009.3 C188.113,1009.18 188.274,1009.04 188.421,1008.89 C188.834,1008.7 189.157,1008.43 189.527,1008.2 C189.852,1007.92 190.291,1007.76 190.632,1007.51 C190.803,1007.06 191.536,1007.17 191.601,1006.61 C191.542,1006.27 191.311,1006.11 191.047,1005.99 L191.047,1005.99 Z" transform="translate(-186 -1002)"/>
</svg>
