<svg xmlns="http://www.w3.org/2000/svg" width="11" height="10" viewBox="0 0 11 10">
  <path fill="#1A1919" fill-rule="evenodd" d="M568.312,546.524127 C568.249,546.770542 568.439,547.223524 568.212,547.336566 C567.969,547.569157 568.025,547.186928 567.912,547.173916 C567.781,547.159277 567.555,547.388614 567.512,547.336566 C567.522,547.43497 567.367,547.386175 567.512,547.336566 C567.703,546.760783 568.058,546.31756 568.212,545.710873 C568.439,545.823102 568.249,546.276898 568.312,546.524127 Z M568.312,548.880934 C567.93,548.949247 567.51,548.98747 567.012,548.962259 C567.124,548.836205 567.338,548.793102 567.313,548.556446 C567.59,548.857349 568.34,548.730482 568.212,548.230331 C568.438,548.290512 568.251,548.686566 568.312,548.880934 Z M566.912,547.579729 L567.313,547.579729 C567.283,547.745633 567.042,547.73994 567.012,547.905843 C566.877,547.880633 566.93,547.70253 566.912,547.579729 Z M567.412,543.678554 C567.646,543.354066 567.808,542.970211 568.111,542.702651 L568.111,542.459488 C568.342,542.652229 568.147,543.188976 568.212,543.515904 L568.212,544.573133 C568.022,545.041566 567.598,545.319699 567.512,545.873524 C567.312,546.008524 567.047,546.091476 567.012,546.360663 C566.678,545.869458 567.52,545.637681 567.512,545.141596 C567.725,544.718705 568,544.346235 568.012,543.75988 C567.496,543.69238 567.572,544.106325 567.313,544.247831 C567.117,544.414548 567.173,544.784578 566.813,544.817108 C566.793,544.258404 567.258,544.09494 567.412,543.678554 Z M567.213,542.622139 C567.359,541.983735 567.707,541.507169 567.912,540.91512 C568.092,540.904548 568.123,541.014337 568.312,540.996446 L568.312,541.483584 C568.215,541.892651 567.76,542.010572 567.612,542.378163 C567.355,542.657108 567.068,542.911657 566.912,543.271928 C566.422,543.092199 567.107,542.819759 567.213,542.622139 Z M566.912,541.321747 L567.012,541.321747 C566.927,541.062319 567.17,541.069639 567.213,540.91512 C567.476,541.006205 567.078,541.230663 567.012,541.321747 C567.017,541.433976 566.965,541.499849 566.912,541.565723 C566.757,541.543765 566.844,541.386807 566.912,541.321747 Z M566.313,542.378163 C566.07,542.326928 566.26,541.96747 566.513,542.052861 C566.586,542.27488 566.314,542.217139 566.313,542.378163 Z M569.012,540.264518 C568.215,540.018102 566.984,540.123825 565.913,540.101867 C565.795,540.141717 565.687,540.188886 565.613,540.264518 C565.408,540.532078 565.559,541.088343 565.514,541.483584 L565.514,542.702651 C565.145,545.00009 565.939,547.429277 565.713,549.612048 C566.801,549.775512 568.221,549.624247 569.211,549.449398 C569.185,546.68759 568.874,542.897018 569.012,540.264518 Z M574.709,547.173916 C574.218,547.107229 574.779,546.688404 574.608,546.360663 L574.709,546.360663 C574.594,545.840994 575.014,546.18256 574.709,546.360663 C574.83,546.484277 574.904,547.061687 574.709,547.173916 Z M574.608,547.661867 C574.633,547.559398 574.807,547.579729 574.809,547.661867 C574.764,547.778976 574.721,547.652922 574.608,547.661867 Z M574.709,545.30506 C574.572,545.279036 574.625,545.100934 574.608,544.978946 C574.77,545.059458 574.838,545.196084 574.709,545.30506 Z M574.608,544.247831 C574.772,544.234006 574.772,544.748795 574.608,544.73497 C574.182,544.758554 574.602,544.379578 574.608,544.247831 Z M574.009,547.417892 C573.805,547.394307 573.813,547.198313 573.609,547.173916 C573.662,546.86488 573.922,546.723373 573.908,546.360663 C574.217,546.642048 573.707,547.107229 574.009,547.417892 Z M573.109,548.880934 C573.221,548.75488 573.434,548.711777 573.409,548.474307 C573.602,548.588976 574.021,548.519036 573.908,548.880934 C573.6,548.867108 573.344,549.072861 573.109,548.880934 Z M572.81,548.962259 C572.813,548.883373 572.932,548.898825 573.01,548.880934 C573.006,548.959819 572.887,548.943554 572.81,548.962259 Z M572.41,542.296837 C572.436,541.749518 572.746,541.432349 572.81,540.91512 L573.51,540.91512 C573.044,541.539699 572.604,542.183795 572.21,542.865301 C571.947,542.724608 572.174,542.300904 572.41,542.296837 Z M571.91,541.239608 L571.91,540.833795 L572.31,540.833795 C572.247,541.027349 572.176,541.211958 571.91,541.239608 Z M573.908,541.321747 C574.065,541.204639 573.988,540.898042 574.309,540.91512 C574.488,540.904548 574.543,540.996446 574.509,541.159096 L574.509,541.646235 C573.854,541.818645 573.707,542.403373 573.209,542.702651 C573.219,542.801054 573.064,542.753886 573.209,542.702651 C573.353,542.386295 573.448,542.03009 573.709,541.809699 C573.661,541.553524 573.852,541.491717 573.908,541.321747 Z M574.709,543.597229 C574.283,544.118524 573.877,544.655271 573.309,545.061084 C573.404,545.398584 573.01,545.076536 573.309,545.061084 C573.436,544.486114 573.883,544.172199 574.009,543.597229 C574.153,543.289819 573.734,543.441084 573.809,543.191416 C573.951,543.035271 574.041,542.837651 574.109,542.622139 C574.377,542.541627 574.232,542.126867 574.608,542.134187 L574.608,542.865301 C574.67,543.086506 574.481,543.510211 574.709,543.597229 Z M575.908,548.230331 L575.908,546.686777 C575.721,545.103373 575.723,543.369518 575.508,541.809699 C575.455,541.229036 575.656,540.441807 575.309,540.101867 C575.084,539.944096 574.557,540.031114 574.309,540.101867 C573.212,540.131958 572.093,540.14253 571.11,540.264518 C571.002,540.732139 571.569,540.65 571.41,541.159096 C571.434,541.693404 571.405,542.185422 571.311,542.622139 C571.633,544.685361 571.668,547.400813 571.811,549.368886 C572.271,549.642952 573.1,549.620181 573.809,549.693373 C574.112,549.588464 574.61,549.641325 574.809,549.449398 C575.154,549.508765 575.34,549.699066 575.708,549.531536 C576.002,549.282681 575.889,548.702018 575.908,548.230331 L575.908,548.230331 Z" transform="translate(-565 -540)"/>
</svg>
