<svg xmlns="http://www.w3.org/2000/svg" width="24" height="24" viewBox="0 0 17 13">
  <path fill="#1A1919" fill-rule="evenodd" d="M854.345,443.219036 C854.265,443.234488 854.245,443.300361 854.146,443.300361 C854.015,443.867199 854.644,443.815964 854.745,444.194127 C854.343,444.060753 854.069,443.820843 853.745,443.624849 C853.128,444.013584 854.237,444.199819 854.245,444.59994 C853.337,444.200633 852.919,443.402831 852.245,442.81241 C852.485,442.329337 852.884,441.976386 853.245,441.593343 L853.944,441.593343 C854.413,441.944669 854.784,442.373253 855.245,442.731898 C855.202,442.914066 854.696,442.718886 854.745,442.974247 C854.841,443.302801 855.181,443.432922 855.444,443.624849 C854.989,443.883464 854.878,443.166988 854.345,443.219036 Z M852.245,445.413193 C852.239,445.651476 852.017,445.715723 851.847,445.819819 C851.745,445.98247 851.597,446.104458 851.446,446.225633 C850.558,446.885994 849.683,447.555301 848.948,448.34009 C848.267,448.707681 847.907,449.336325 847.249,449.720994 C847.118,450.077199 846.743,450.23253 846.448,450.453735 C846.298,450.57491 846.149,450.696898 846.05,450.859548 C845.872,450.835964 845.739,451.241777 845.649,451.022199 C845.345,450.379729 846.183,450.222771 846.448,449.803133 C846.94,449.525813 847.255,449.103735 847.749,448.828042 C848.028,448.378313 848.507,448.088795 848.948,447.770813 C849.187,447.314578 849.735,447.110452 849.946,446.632259 C850.384,446.528163 850.575,446.223193 850.847,445.98247 C851.13,445.806807 851.55,445.587229 851.347,445.250542 C850.847,444.968343 850.657,445.527861 850.347,445.657169 C850.058,445.883253 849.761,446.102018 849.446,446.307771 C848.815,447.148675 847.911,447.76756 847.147,448.501928 C846.808,448.902048 846.29,449.159036 845.948,449.559157 C845.399,449.76247 845.374,450.391928 844.45,450.290271 L844.45,449.803133 C844.472,449.685211 844.747,449.774669 844.749,449.640482 C844.958,449.539639 845.126,449.403825 845.249,449.233855 C845.558,448.942711 845.862,448.6475 846.249,448.421416 C846.776,447.73991 847.62,447.314578 848.147,446.632259 C848.646,446.332982 849.126,446.019066 849.548,445.657169 C849.886,445.255422 850.435,445.023645 850.647,444.519428 C850.396,444.237229 849.981,444.42753 849.747,444.59994 C849.702,444.943133 849.274,444.974849 849.147,445.250542 C848.603,445.566898 848.263,446.049157 847.647,446.307771 C846.595,447.401596 845.245,448.254699 844.249,449.396506 C844.001,449.328193 843.714,449.28997 843.351,449.315181 C843.095,449.318434 843.229,449.255 843.251,449.15253 C843.382,449.124066 843.407,449.009398 843.55,448.98988 C843.618,448.800392 843.882,448.771928 843.95,448.584066 C844.356,448.426295 844.46,448.022922 844.95,447.933464 C845.491,447.370693 846.208,446.951054 846.749,446.389096 C847.45,445.955633 847.987,445.391235 848.647,444.926054 C849.239,444.377108 849.872,443.862319 850.546,443.380873 C850.632,443.366235 850.642,443.41259 850.647,443.463012 C850.979,444.275452 851.677,444.792681 852.245,445.413193 Z M842.751,452.647892 C842.333,452.554367 842.187,452.239639 841.751,452.15994 C842.073,451.338554 842.46,450.56759 842.851,449.803133 L843.649,449.803133 C843.714,450.224398 843.431,450.454548 843.649,450.778223 C843.815,450.914036 844.237,450.84247 844.55,450.859548 C844.712,451.133614 844.542,451.679307 844.749,451.916777 C844.159,452.221747 843.382,452.374639 842.751,452.647892 Z M855.544,441.999157 C855.181,441.617741 854.755,441.286747 854.245,441.024066 C853.772,440.992349 853.411,441.05009 853.046,441.106205 C852.54,441.425813 852.343,441.99753 851.847,442.325271 C851.642,442.220361 851.665,441.930843 851.247,441.999157 C850.903,442.289488 850.563,442.582259 850.147,442.81241 C849.888,443.197892 849.323,443.335331 849.147,443.7875 C848.642,443.946084 848.388,444.307169 848.048,444.59994 C847.591,444.961837 847.103,445.295271 846.649,445.657169 C846.452,445.814127 846.147,446.218313 845.948,446.225633 C845.833,446.231325 845.905,446.277681 845.849,446.307771 C845.075,446.72497 844.567,447.350361 843.95,447.851325 C843.489,448.227048 842.919,448.558855 842.651,449.071205 C842.431,449.21759 842.118,449.289157 841.95,449.477018 C841.587,450.184548 841.233,450.900211 840.952,451.672801 C840.698,451.981024 840.601,452.416928 840.353,452.729217 C840.208,453.043946 839.874,453.553042 840.151,453.948283 C840.46,454.076777 841.101,453.881596 841.351,453.704307 C841.86,453.630301 842.2,453.419669 842.751,453.379006 C843.497,453.038253 844.396,452.820301 845.349,452.647892 C845.835,451.878554 846.651,451.376777 847.448,450.859548 C849.104,449.11756 851.433,447.922892 853.444,446.469608 C853.618,446.420813 853.438,446.08494 853.646,446.063795 C853.821,445.988976 853.993,445.91253 853.944,445.657169 C853.833,445.233464 853.272,445.17491 852.946,444.926054 C852.608,444.577169 852.196,444.288464 851.847,443.950964 C851.688,443.546777 850.87,443.305241 851.146,442.81241 C851.663,443.206024 852.124,443.642741 852.446,444.194127 C853.147,444.491777 853.261,445.265994 854.345,445.250542 C854.833,445.269247 854.806,444.868313 855.144,444.763404 C855.454,444.635723 855.669,444.430783 855.944,444.275452 C855.983,443.82003 856.38,443.65494 856.444,443.219036 C856.343,442.649759 855.907,442.355361 855.544,441.999157 L855.544,441.999157 Z" transform="translate(-840 -441)"/>
</svg>
