<svg xmlns="http://www.w3.org/2000/svg" width="16" height="13" viewBox="0 0 16 13">
  <path fill="#1A1919" fill-rule="evenodd" d="M679.719476,525.560583 C677.959688,525.685011 676.130742,525.742752 674.221805,525.723234 L673.973501,525.723234 C673.9885,525.657361 674.055991,525.641909 674.055991,525.560583 C673.936006,525.344258 673.871014,525.859047 673.556885,525.723234 L672.806142,525.723234 C672.944459,525.586608 672.872801,525.245855 673.222759,525.316608 L678.886243,525.316608 C679.125381,525.225523 679.37785,525.145824 679.552829,524.990493 C679.582826,524.474077 679.289528,524.272391 679.386183,523.690915 C679.504502,523.698234 679.621988,523.703927 679.635319,523.609589 C679.732808,523.596577 679.784468,523.627481 679.802799,523.690915 C679.746973,524.286216 679.686147,524.877451 679.719476,525.560583 Z M672.390359,525.723234 C672.020403,525.658987 671.890419,525.831397 671.557959,525.803746 C671.245497,525.865553 671.375481,525.493897 671.141343,525.479258 C670.726393,525.480071 670.866376,526.024138 670.30811,525.885071 C670.295611,525.628083 670.52975,525.613445 670.474756,525.316608 L672.474515,525.316608 C672.404524,525.410945 672.363695,525.533746 672.390359,525.723234 Z M670.142296,525.885071 L669.559033,525.885071 C669.564033,525.619138 669.795671,525.574409 669.72568,525.234469 L670.22562,525.234469 C670.174792,525.42965 670.105634,525.605312 670.142296,525.885071 Z M669.14325,525.560583 C669.165747,525.772029 669.170747,525.96721 668.892447,525.885071 C668.937441,525.576035 669.152416,525.434529 669.14325,525.072632 C669.2774,525.049861 669.286566,525.149077 669.392387,525.153957 C669.364057,525.343445 669.307397,525.503656 669.14325,525.560583 Z M668.559987,525.560583 C668.260856,525.076698 668.851618,524.762782 668.809124,524.259379 C669.078258,524.186999 668.926609,524.524499 669.059093,524.58468 C668.957439,524.973415 668.540823,525.05474 668.559987,525.560583 Z M668.726633,523.040312 C668.704969,522.937843 668.56082,522.958174 668.559987,523.040312 C668.384175,522.730463 668.727467,522.231126 668.726633,521.821246 C668.908278,522.048957 668.97577,522.732903 668.809124,523.040312 C668.86245,523.314379 668.701636,523.795824 668.892447,523.934891 C668.826621,524.113806 668.501661,524.040614 668.47583,524.259379 C668.237526,523.861698 668.84162,523.589258 668.726633,523.040312 Z M668.144204,521.739108 C667.904233,521.729349 668.215028,521.182029 667.975891,521.170644 C667.984223,520.961638 668.301685,521.055162 668.310017,520.846156 C668.277521,520.245162 668.573319,519.964589 668.64331,519.464439 C668.290019,519.444921 668.149203,519.632782 668.060047,519.871065 C667.868404,519.731186 668.030051,519.24974 667.975891,518.976487 C668.064213,518.547089 668.129205,518.094921 668.226694,517.675282 C668.42667,517.545975 668.501661,517.295493 668.726633,517.188144 C669.639024,517.298746 670.577244,517.385764 671.641282,517.350794 C671.559626,517.677722 671.27716,517.807843 671.058853,518.001397 C670.306443,517.944469 669.81067,518.138023 669.059093,518.081909 C668.889114,518.106306 668.89578,518.3023 668.726633,518.325885 C668.670807,518.622722 668.906612,518.638174 668.892447,518.894349 C668.89078,519.543324 668.752464,520.058114 668.809124,520.764017 C668.815789,521.041336 668.564153,521.067361 668.392507,521.170644 C668.392507,521.441457 668.12254,521.447963 668.144204,521.739108 Z M678.72043,523.121638 C678.669602,523.316818 678.599611,523.492481 678.636273,523.771427 C678.445463,523.856818 678.676268,524.352089 678.469626,524.422029 C675.771618,524.356156 673.449398,524.396005 670.724726,524.422029 C670.44476,524.370794 669.951486,524.526939 669.809003,524.341517 C669.536536,524.065011 669.709848,523.353415 669.559033,522.958987 C669.574031,522.375071 669.456546,521.921276 669.392387,521.41462 L669.392387,520.032903 C669.396553,519.575855 669.346559,519.065945 669.559033,518.813836 C670.340606,518.855312 670.846378,518.687782 671.391312,518.894349 C671.773766,518.645493 672.007905,518.250252 672.390359,518.001397 C672.567837,517.615915 673.315247,517.407722 673.056945,516.862843 C672.62533,516.416367 671.400478,516.745734 670.724726,516.537541 C669.790672,516.51965 668.89328,516.538355 668.144204,516.700192 C667.464286,517.202782 667.434289,518.338897 667.310971,519.3823 C667.275975,520.661547 667.338467,521.84727 667.393461,523.040312 C667.553441,524.130885 667.391794,525.534559 667.975891,526.210373 C668.215028,526.356758 668.534157,526.424258 668.726633,526.616186 L674.638421,526.616186 C676.687341,526.616186 678.655437,526.717029 680.301906,526.373023 C680.819343,525.685824 680.566041,524.246367 680.718522,523.202963 C680.531045,522.953294 680.067767,522.971186 679.885289,522.715824 C679.428678,522.784138 679.177041,523.053324 678.72043,523.121638 Z M680.301906,519.627089 C680.115261,519.876758 679.892788,520.093897 679.635319,520.276879 C679.398681,520.478565 679.13038,520.650975 678.886243,520.846156 C678.614609,520.987662 678.469626,521.251969 678.137166,521.333294 L678.137166,519.627089 C678.068008,519.422963 677.908027,519.307481 677.887197,519.057812 C677.458915,519.100102 677.173949,519.283083 676.63818,519.220463 C675.071702,519.777541 673.716032,520.541186 672.640329,521.57727 C672.46285,521.551246 672.65366,521.222692 672.723652,521.170644 C672.71032,520.968144 672.85447,520.919349 672.890299,520.764017 C673.053612,520.517602 673.254421,520.307782 673.389405,520.032903 C673.841017,519.688083 674.155146,519.209077 674.555931,518.813836 C675.051705,518.538957 675.415828,518.135583 675.971594,517.919258 C676.397376,517.576065 677.113956,517.516698 677.637227,517.268656 C678.017181,517.044198 677.990517,516.422059 677.969687,515.806427 C678.256319,516.069108 678.52462,516.348053 678.72043,516.700192 C679.13538,517.079981 679.633653,517.380071 679.968612,517.838746 C680.463553,518.114439 680.829342,518.516186 681.051815,519.057812 C680.696858,519.14483 680.637699,519.520553 680.301906,519.627089 Z M681.800892,518.245373 C681.53509,518.125011 681.540923,517.739529 681.218462,517.675282 C680.946828,517.182451 680.333569,517.021427 680.051936,516.537541 C679.548663,516.298445 679.288694,515.819439 678.80292,515.562451 C678.414633,515.183475 677.933024,514.89477 677.47058,514.586547 C677.452249,514.488144 677.378091,514.536939 677.304767,514.586547 C677.206445,515.277812 677.163117,516.021126 677.137287,516.781517 C676.704006,516.737602 676.519861,516.937662 676.137407,516.944168 C675.598306,517.284108 674.965882,517.533776 674.472608,517.919258 C673.956837,518.311246 673.57355,518.830102 673.056945,519.220463 C672.666159,519.705162 672.172885,520.09227 671.973742,520.764017 C671.758768,520.988475 671.610453,521.276367 671.557959,521.658596 C671.419642,521.740734 671.467137,522.004228 671.391312,522.145734 C671.226332,522.300252 671.350484,522.530403 671.391312,522.715824 C672.086229,522.922391 672.427021,522.18233 673.056945,522.065222 C673.552719,521.709017 674.026828,521.330855 674.555931,521.007993 C675.531647,520.741246 676.123242,520.099589 677.22061,519.951577 C677.479746,521.059228 676.554024,522.430373 677.55307,522.796336 C678.108003,522.632873 678.368805,522.183144 678.886243,521.983897 C679.229535,521.587843 679.732808,521.346306 680.136092,521.007993 C680.501882,520.660734 680.912665,520.358204 681.218462,519.951577 C681.498428,519.872692 681.633412,519.6523 681.800892,519.464439 C681.906712,519.187933 682.263336,519.156216 682.300832,518.813836 C682.185845,518.573927 681.916711,518.484469 681.800892,518.245373 L681.800892,518.245373 Z" transform="translate(-667 -513.846)"/>
</svg>
