<svg xmlns="http://www.w3.org/2000/svg" width="24" height="24" viewBox="0 0 7 9">
  <path fill="#1A1919" fill-rule="evenodd" d="M133.64,976.682 C133.434,977.005 133.662,977.762 133.442,978.072 C133.517,978.942 133.318,979.536 133.342,980.356 C132.924,980.277 133.149,979.556 132.945,979.263 C132.729,979.245 132.629,979.345 132.647,979.561 C132.379,979.366 132.708,978.573 132.449,978.369 C131.971,978.223 132.358,978.941 131.953,978.866 C131.963,978.381 131.898,977.82 132.051,977.476 C131.821,977.51 131.587,977.54 131.655,977.873 C131.391,977.842 131.748,978.429 131.357,978.271 L131.357,977.278 C131.046,977.231 131.077,977.528 130.96,977.675 C130.762,977.743 131.021,978.266 130.661,978.171 L130.661,977.178 C130.046,977.092 130.423,977.999 130.166,978.271 C129.754,978.284 130.061,977.579 129.966,977.278 C129.482,977.257 129.567,977.805 129.569,978.271 C129.223,978.219 129.423,977.622 129.371,977.278 C129.169,977.373 129.157,977.659 129.172,977.973 C128.862,977.786 128.943,977.208 128.874,976.781 C129.171,976.581 129.811,976.725 130.264,976.682 C130.513,976.698 130.576,976.53 130.661,976.384 C130.808,976.499 130.912,976.499 131.059,976.384 C131.91,975.613 132.934,975.016 133.64,974.1 C133.737,974.103 133.717,974.222 133.74,974.299 C133.567,974.953 133.665,975.879 133.64,976.682 Z M134.136,973.108 L134.038,973.108 C132.964,973.988 132.062,975.038 130.96,975.888 C130.582,975.686 130.301,975.969 129.768,975.888 C129.286,975.868 128.819,975.865 128.577,976.086 C128.24,976.664 128.276,978.206 128.676,978.667 C129.277,978.811 130.462,978.843 131.059,978.667 C131.505,979.114 131.943,979.571 132.251,980.156 C132.498,980.393 132.898,980.757 133.045,980.951 C133.116,981.046 133.061,981.17 133.144,981.249 C133.268,981.368 133.428,981.489 133.64,981.447 C134.083,980.831 133.906,979.595 133.938,978.569 C134.143,977.284 134.254,975.905 134.236,974.399 C134.187,974.085 134.415,974.048 134.336,973.703 C134.275,973.498 134.495,973.013 134.136,973.108 L134.136,973.108 Z" transform="translate(-128 -973)"/>
</svg>
