<svg xmlns="http://www.w3.org/2000/svg" width="372" height="709" viewBox="0 0 372 709">
  <g fill="#1A1919" fill-rule="evenodd" transform="translate(-.02 .64)">
    <path d="M319.870706,374.335513 C320.200706,379.219513 326.630706,408.137513 328.660706,413.361513 C331.450706,411.648513 333.750706,409.490513 335.770706,407.055513 C336.640706,406.005513 336.550706,404.664513 335.420706,403.359513 C334.680706,403.208513 333.760706,402.981513 332.830706,402.838513 C329.800706,402.376513 328.040706,400.341513 326.960706,397.771513 C325.590706,394.488513 326.470706,391.174513 327.440706,387.944513 C328.280706,385.135513 328.560706,384.868513 332.030706,382.690513 C330.160706,380.151513 328.310706,377.609513 326.420706,375.100513 C325.710706,374.157513 324.680706,373.645513 323.500706,373.745513 C322.270706,373.849513 321.060706,374.134513 319.870706,374.335513 Z M10.4107055,400.936513 C11.6107055,400.936513 12.0707055,400.954513 12.5307055,400.934513 C17.9907055,400.691513 21.5007055,403.609513 21.8407055,408.905513 C22.0207055,411.775513 21.7607055,414.656513 20.8807055,417.424513 C20.6507055,418.160513 20.3007055,418.975513 19.7507055,419.473513 C17.6807055,421.350513 13.4407055,421.381513 11.4107055,419.491513 C10.1407055,418.306513 9.10070554,416.877513 7.96070554,415.556513 C6.92070554,418.235513 6.81070554,418.662513 7.34070554,420.031513 C8.41070554,422.853513 9.48070554,425.679513 10.6907055,428.447513 C11.1907055,429.594513 11.8307055,430.818513 12.7407055,431.623513 C15.9707055,434.463513 19.3207055,437.179513 22.7007055,439.839513 C23.3607055,440.359513 24.3807055,440.417513 25.5307055,440.780513 C27.1207055,426.867513 28.8407055,413.318513 29.9907055,399.554513 C25.1007055,397.315513 20.1907055,396.243513 15.0307055,396.497513 C14.1707055,396.539513 13.1807055,397.074513 12.5507055,397.688513 C11.7807055,398.437513 11.3207055,399.509513 10.4107055,400.936513 Z M275.630706,208.350513 C278.880706,218.876513 282.430706,229.308513 285.750706,239.813513 C289.450706,251.536513 292.950706,263.316513 295.550706,275.346513 C296.160706,278.142513 297.330706,280.814513 297.960706,283.607513 C300.460706,294.667513 302.800706,305.760513 305.290706,316.822513 C306.270706,321.178513 307.540706,325.470513 308.570706,329.814513 C310.690706,338.668513 312.720706,347.542513 314.830706,356.399513 C315.710706,360.098513 316.700706,363.773513 317.660706,367.550513 C319.380706,367.550513 320.800706,367.632513 322.210706,367.536513 C326.520706,367.241513 329.990706,368.745513 332.710706,372.094513 C334.320706,374.079513 336.020706,375.982513 337.620706,377.972513 C340.710706,381.810513 342.610706,386.182513 342.870706,391.111513 C343.140706,396.375513 343.190706,401.651513 343.260706,406.922513 C343.290706,409.279513 342.180706,411.279513 340.650706,412.943513 C337.530706,416.344513 334.890706,420.227513 330.720706,422.857513 C330.890706,424.305513 330.970706,425.721513 331.240706,427.097513 C332.940706,435.558513 334.830706,443.982513 336.350706,452.472513 C337.970706,461.429513 339.230706,470.449513 340.680706,479.435513 C341.880706,486.843513 343.160706,494.239513 344.350706,501.647513 C344.990706,505.584513 345.510706,509.538513 346.100706,513.482513 C347.560706,523.266513 349.160706,533.032513 350.470706,542.836513 C352.030706,554.552513 353.320706,566.304513 354.800706,578.033513 C355.380706,582.622513 356.190706,587.181513 356.810706,591.766513 C357.620706,597.781513 358.320706,603.811513 359.120706,609.829513 C360.930706,623.446513 362.740706,637.061513 364.600706,650.672513 C366.150706,662.067513 367.790706,673.450513 369.310706,684.850513 C370.220706,691.650513 370.990706,698.460513 371.810706,705.270513 C371.880706,705.890513 371.880706,706.520513 371.910706,707.100513 C371.330706,707.590513 370.850706,708.000513 370.370706,708.410513 C368.450706,708.410513 366.530706,708.410513 364.610706,708.410513 C364.000706,705.440513 363.280706,702.500513 362.820706,699.510513 C361.060706,688.140513 359.400706,676.758513 357.660706,665.388513 C357.460706,664.027513 357.000706,662.703513 356.650706,661.323513 C354.380706,661.970513 353.460706,665.113513 350.680706,663.912513 C349.740706,662.529513 350.130706,661.094513 350.570706,659.735513 C351.690706,656.237513 352.910706,652.771513 354.080706,649.289513 C354.430706,648.235513 354.890706,647.195513 355.070706,646.109513 C355.350706,644.459513 353.990706,637.453513 352.940706,634.649513 C352.390706,635.404513 351.880706,635.932513 351.580706,636.563513 C351.030706,637.715513 350.780706,639.043513 350.090706,640.084513 C349.320706,641.238513 348.290706,642.287513 347.180706,643.126513 C346.250706,643.828513 344.660706,643.047513 344.630706,641.895513 C344.580706,640.333513 344.530706,638.646513 345.050706,637.213513 C346.820706,632.257513 348.760706,627.357513 350.800706,622.504513 C351.450706,620.976513 351.800706,619.613513 351.530706,617.920513 C350.440706,611.140513 349.450706,604.342513 348.540706,597.535513 C347.080706,586.608513 345.700706,575.671513 344.320706,564.735513 C343.220706,556.012513 342.250706,547.273513 341.090706,538.559513 C340.440706,533.651513 339.500706,528.781513 338.740706,523.886513 C337.480706,515.837513 336.290706,507.778513 335.030706,499.731513 C334.290706,494.993513 333.430706,490.272513 332.660706,485.537513 C331.160706,476.232513 329.710706,466.918513 328.190706,457.616513 C327.450706,453.042513 326.450706,448.503513 325.830706,443.915513 C324.260706,432.330513 320.690706,421.185513 318.460706,409.745513 C316.720706,400.811513 314.540706,391.968513 313.190706,382.951513 C312.650706,379.335513 311.560706,375.790513 310.570706,372.254513 C307.600706,361.630513 305.180706,350.877513 302.900706,340.088513 C302.210706,336.814513 301.100706,333.628513 300.330706,330.369513 C299.300706,326.021513 298.370706,321.648513 297.460706,317.272513 C295.320706,306.959513 293.650706,296.525513 290.970706,286.354513 C288.900706,278.482513 287.120706,270.530513 284.860706,262.713513 C282.060706,253.049513 278.940706,243.478513 275.890706,233.890513 C272.700706,223.843513 269.350706,213.845513 266.190706,203.787513 C262.320706,191.437513 258.150706,179.203513 253.500706,167.114513 C250.070706,158.182513 246.870706,149.145513 244.560706,139.806513 C242.760706,132.531513 240.260706,125.435513 238.260706,118.205513 C236.100706,110.362513 233.500706,102.640513 232.090706,94.5855128 C230.490706,85.4395128 228.070706,76.5075128 224.390706,67.9325128 C222.560706,63.6825128 221.210706,59.2305128 219.520706,54.9185128 C218.410706,52.0985128 217.210706,49.3015128 215.820706,46.6075128 C212.980706,41.0685128 210.010706,35.5915128 207.040706,30.1165128 C205.120706,26.5825128 202.710706,23.4165128 199.800706,20.6225128 C196.120706,17.0815128 192.450706,13.5195128 188.870706,9.87251282 C187.070706,8.03551282 185.170706,6.97451282 182.480706,7.47651282 C181.090706,7.73651282 179.610706,7.55851282 178.170706,7.52551282 C171.840706,7.38051282 166.320706,9.88551282 161.120706,13.0875128 C159.410706,14.1415128 157.900706,15.7895128 156.770706,17.4815128 C152.490706,23.9155128 147.230706,29.4685128 141.690706,34.7925128 C139.840706,36.5615128 138.100706,38.4285128 136.340706,40.2885128 C134.370706,42.3845128 132.740706,44.7045128 131.160706,47.1425128 C126.310706,54.6535128 122.280706,62.6555128 117.010706,69.9345128 C114.050706,74.0295128 111.730706,78.7155128 109.820706,83.4215128 C105.860706,93.1885128 102.330706,103.132513 98.7007055,113.034513 C97.5507055,116.179513 96.6707055,119.419513 95.6607055,122.617513 C92.9307055,131.305513 90.1607055,139.980513 87.4807055,148.686513 C84.1007055,159.679513 80.5807055,170.633513 77.5407055,181.720513 C73.9507055,194.814513 70.7007055,208.001513 68.0107055,221.323513 C65.9007055,231.814513 63.4107055,242.230513 61.2907055,252.720513 C60.0007055,259.125513 59.1107055,265.612513 57.9907055,272.052513 C56.5107055,280.552513 55.0007055,289.048513 53.4607055,297.538513 C52.6007055,302.251513 51.6307055,306.940513 50.7607055,311.650513 C49.4907055,318.561513 48.1807055,325.469513 47.0407055,332.403513 C46.2107055,337.444513 45.6507055,342.530513 44.9107055,347.586513 C44.2707055,352.014513 43.5407055,356.430513 42.8407055,360.848513 C41.6307055,368.417513 40.2207055,375.959513 39.2307055,383.557513 C37.1507055,399.409513 35.2607055,415.285513 33.3607055,431.158513 C32.0507055,442.099513 30.9107055,453.060513 29.5707055,463.999513 C28.4507055,473.196513 27.0007055,482.356513 25.9707055,491.563513 C24.7507055,502.523513 23.8407055,513.517513 22.7707055,524.495513 C22.1307055,531.015513 21.3507055,537.524513 20.8007055,544.051513 C19.5507055,558.860513 18.0107055,573.643513 17.2307055,588.495513 C16.7307055,598.067513 15.8107055,607.623513 14.9007055,617.169513 C14.2407055,624.168513 13.2807055,631.138513 12.5007055,638.127513 C12.2807055,640.186513 12.2307055,642.265513 12.0907055,644.490513 C19.7107055,652.826513 24.5707055,662.946513 30.0407055,672.682513 C30.6607055,673.789513 31.1407055,674.989513 31.5607055,676.189513 C31.9007055,677.169513 31.6107055,678.063513 30.7607055,678.744513 C29.9407055,679.409513 28.9407055,679.654513 28.0807055,679.144513 C27.0107055,678.509513 25.8707055,677.752513 25.1707055,676.757513 C23.3507055,674.146513 21.7107055,671.401513 20.0707055,668.664513 C17.6907055,664.688513 15.3907055,660.664513 13.0207055,656.682513 C12.6407055,656.040513 12.0707055,655.507513 11.5807055,654.917513 C11.1707055,655.286513 10.7707055,655.467513 10.7507055,655.685513 C10.2007055,661.405513 9.69070554,667.128513 9.16070554,673.038513 C11.3807055,675.954513 13.6107055,678.858513 15.8207055,681.776513 C17.0707055,683.430513 18.4007055,685.050513 19.4907055,686.800513 C20.8707055,689.000513 21.6907055,691.390513 20.7507055,694.350513 C19.8307055,694.010513 18.8107055,693.900513 18.2007055,693.340513 C16.9307055,692.160513 15.8007055,690.800513 14.7307055,689.410513 C13.0807055,687.270513 11.5807055,685.020513 9.59070554,683.300513 C8.33070554,683.610513 8.47070554,684.520513 8.44070554,685.250513 C8.19070554,691.640513 7.96070554,698.020513 7.74070554,704.410513 C7.69070554,705.860513 7.70070554,707.310513 6.53070554,708.410513 C5.25070554,708.410513 3.97070554,708.410513 2.69070554,708.410513 C1.81070554,707.340513 1.78070554,706.100513 1.84070554,704.780513 C2.13070554,698.560513 2.35070554,692.330513 2.62070554,686.100513 C2.95070554,678.756513 3.19070554,671.406513 3.69070554,664.073513 C4.14070554,657.542513 4.83070554,651.025513 5.51070554,644.512513 C6.73070554,632.914513 8.18070554,621.338513 9.22070554,609.725513 C10.1907055,598.906513 10.7307055,588.049513 11.5007055,577.211513 C11.6707055,574.825513 12.0407055,572.452513 12.2307055,570.065513 C12.9307055,561.308513 13.5107055,552.541513 14.3007055,543.792513 C15.1207055,534.726513 16.1607055,525.682513 17.0307055,516.621513 C17.7307055,509.310513 18.2207055,501.978513 18.9807055,494.674513 C19.6107055,488.637513 20.5207055,482.630513 21.2807055,476.606513 C22.1507055,469.633513 22.9907055,462.656513 23.8507055,455.680513 C24.1007055,453.632513 24.3707055,451.586513 24.6507055,449.367513 C23.8107055,448.839513 23.0507055,448.308513 22.2407055,447.862513 C17.0507055,444.993513 12.4607055,441.342513 8.23070554,437.179513 C6.00070554,434.977513 4.61070554,432.366513 3.58070554,429.469513 C2.78070554,427.213513 1.91070554,424.983513 1.03070554,422.757513 C0.440705542,421.260513 -0.0292944575,419.779513 0.110705542,418.114513 C0.230705542,416.686513 0.170705542,415.232513 0.0607055425,413.799513 C-0.479294458,406.225513 2.66070554,399.834513 6.40070554,393.604513 C8.12070554,390.742513 10.6707055,389.376513 13.8807055,389.084513 C18.3807055,388.673513 22.8207055,389.015513 27.1607055,390.328513 C28.2007055,390.639513 29.2107055,391.018513 30.5207055,391.467513 C30.8507055,390.276513 31.1707055,389.407513 31.3107055,388.508513 C32.9007055,378.570513 34.5207055,368.636513 35.9907055,358.681513 C37.1807055,350.623513 38.0507055,342.515513 39.3007055,334.465513 C40.3007055,328.001513 41.6407055,321.587513 42.8607055,315.158513 C44.5207055,306.374513 46.2607055,297.603513 47.8907055,288.812513 C50.7807055,273.260513 52.7007055,257.537513 56.0507055,242.067513 C57.5107055,235.355513 59.1407055,228.681513 60.6407055,221.979513 C61.4107055,218.550513 62.0707055,215.098513 62.7707055,211.655513 C64.4607055,203.360513 66.4007055,195.138513 68.8407055,187.015513 C71.9107055,176.765513 74.4807055,166.365513 77.4707055,156.090513 C79.5307055,149.037513 81.9607055,142.094513 84.1807055,135.090513 C85.8707055,129.761513 87.4507055,124.395513 89.1807055,119.077513 C90.6107055,114.673513 92.1807055,110.313513 93.6907055,105.937513 C95.0907055,101.863513 96.5707055,97.8135128 97.9107055,93.7155128 C101.180706,83.6355128 105.450706,74.0665128 111.400706,65.2285128 C115.870706,58.6035128 120.010706,51.7595128 124.110706,44.8995128 C127.250706,39.6385128 131.100706,35.0085128 135.450706,30.7455128 C137.280706,28.9565128 139.010706,27.0605128 140.870706,25.3105128 C143.920706,22.4425128 146.430706,19.1665128 148.740706,15.6825128 C150.680706,12.7465128 152.950706,10.0755128 155.770706,7.88751282 C159.890706,4.69251282 164.630706,2.80151282 169.550706,1.43651282 C174.490706,0.0635128167 179.660706,-0.122487183 184.770706,0.0575128167 C187.850706,0.166512817 190.540706,1.89451282 192.860706,3.86751282 C195.900706,6.45351282 198.780706,9.23451282 201.680706,11.9775128 C203.540706,13.7285128 205.400706,15.4835128 207.110706,17.3745128 C210.120706,20.7145128 212.530706,24.4615128 214.520706,28.5125128 C216.350706,32.2365128 218.290706,35.9185128 220.390706,39.4935128 C222.920706,43.7845128 224.950706,48.2595128 226.590706,52.9585128 C228.750706,59.1365128 231.050706,65.2715128 233.490706,71.3445128 C235.950706,77.4725128 237.420706,83.8745128 238.530706,90.3085128 C239.980706,98.6925128 242.530706,106.741513 244.910706,114.857513 C247.070706,122.213513 249.340706,129.540513 251.290706,136.950513 C253.780706,146.394513 257.220706,155.502513 260.520706,164.667513 C268.350191,186.412128 268.812498,186.267913 275.630706,208.350513 Z"/>
    <path d="M90.5607055 515.069513C88.7007055 513.812513 86.9907055 512.901513 84.4807055 512.809513 85.0907055 516.238513 86.5007055 518.973513 87.5707055 521.982513 89.4907055 519.448513 89.4907055 519.448513 90.5607055 515.069513zM100.160706 450.692513C99.4407055 452.247513 98.9907055 453.086513 98.6707055 453.977513 98.3107055 454.992513 98.0807055 456.052513 97.7407055 457.271513 99.5407055 458.319513 101.170706 459.292513 102.830706 460.224513 103.520706 460.614513 104.260706 460.955513 105.010706 460.108513 103.710706 457.102513 102.700706 453.911513 100.160706 450.692513zM292.060706 408.666513C291.860706 406.330513 291.370706 403.983513 290.110706 401.145513 288.410706 405.398513 286.950706 409.051513 285.510706 412.718513 285.360706 413.121513 285.400706 413.602513 285.310706 414.415513 288.100706 412.896513 290.030706 410.898513 292.060706 408.666513zM301.500706 451.604513C301.360706 448.665513 301.000706 446.000513 299.850706 443.131513 297.990706 445.211513 297.680706 447.383513 297.260706 449.546513 296.840706 451.724513 295.660706 453.769513 295.900706 456.611513 297.930706 454.792513 299.570706 453.331513 301.500706 451.604513zM115.990706 435.341513C114.800706 430.642513 113.970706 426.740513 112.250706 422.515513 110.500706 424.934513 109.180706 426.970513 108.630706 429.470513 110.940706 431.317513 113.120706 433.058513 115.990706 435.341513zM309.010706 494.328513C308.660706 491.257513 308.340706 488.427513 308.000706 485.600513 307.940706 485.053513 307.790706 484.516513 307.620706 483.692513 305.550706 486.723513 303.040706 494.162513 303.000706 497.387513 304.930706 496.407513 306.700706 495.502513 309.010706 494.328513zM98.6707055 495.086513C96.3807055 492.086513 94.4807055 490.704513 91.1607055 489.874513 93.0007055 494.142513 93.4007055 498.493513 95.4207055 502.982513 96.9607055 500.084513 97.7907055 497.547513 98.6707055 495.086513zM314.400706 530.619513C313.820706 530.856513 313.360706 530.910513 313.300706 531.090513 312.110706 534.988513 310.950706 538.898513 309.830706 542.818513 309.770706 543.020513 310.110706 543.334513 310.260706 543.596513 313.010706 543.526513 313.010706 543.526513 315.830706 541.580513 316.010706 537.914513 314.740706 534.375513 314.400706 530.619513zM109.610706 446.060513C110.180706 451.151513 113.090706 460.806513 114.720706 463.443513 116.160706 460.657513 117.510706 458.028513 118.810706 455.503513 115.810706 452.427513 113.080706 449.620513 109.610706 446.060513zM120.890706 404.440513C123.420706 407.814513 125.800706 410.995513 128.210706 414.155513 128.370706 414.371513 128.740706 414.431513 129.280706 414.694513 129.230706 411.555513 128.300706 408.714513 127.730706 405.824513 127.140706 402.825513 126.930706 399.698513 125.100706 396.604513 124.380706 397.618513 123.850706 398.206513 123.510706 398.889513 122.590706 400.722513 121.750706 402.596513 120.890706 404.440513zM298.710706 523.611513C299.320706 525.225513 299.830706 526.899513 300.580706 528.459513 301.300706 529.975513 301.090706 531.952513 302.730706 533.077513 304.070706 529.337513 305.110706 519.204513 304.670706 513.931513 304.660706 513.799513 304.200706 513.705513 303.740706 513.502513 302.150706 516.712513 300.540706 519.936513 298.710706 523.611513zM108.060706 476.407513C104.290706 472.673513 101.050706 470.796513 98.4007055 470.738513 99.7007055 475.340513 100.980706 479.924513 102.300706 484.501513 102.380706 484.765513 102.680706 484.963513 103.080706 485.419513 105.020706 482.613513 106.300706 479.528513 108.060706 476.407513zM148.790706 388.251513C149.100706 388.149513 149.410706 388.045513 149.710706 387.943513 148.910706 381.156513 148.100706 374.369513 147.270706 367.585513 147.240706 367.353513 146.850706 367.167513 146.620706 366.959513 144.300706 368.563513 141.050706 372.445513 139.080706 376.003513 142.300706 380.057513 145.550706 384.154513 148.790706 388.251513zM91.5507055 512.078513C93.3507055 509.925513 93.8007055 507.954513 93.0407055 505.615513 91.6607055 501.396513 90.4307055 497.130513 89.0807055 492.902513 88.8607055 492.213513 88.3607055 491.615513 87.7107055 490.485513 85.7507055 496.747513 84.1507055 502.453513 83.2807055 508.219513 85.7407055 510.496513 88.6507055 510.870513 91.5507055 512.078513zM271.780706 356.426513C270.080706 365.701513 268.570706 373.917513 266.970706 382.632513 271.520706 377.988513 275.630706 373.629513 278.600706 368.293513 276.680706 364.458513 274.980706 360.726513 271.780706 356.426513zM93.9607055 467.994513C92.4107055 470.814513 91.9107055 473.624513 91.1507055 476.286513 90.3807055 478.979513 89.2607055 481.651513 89.4107055 484.624513 92.8407055 485.677513 95.4107055 487.815513 98.0007055 489.928513 98.6407055 490.445513 99.5007055 490.687513 100.410706 491.132513 100.380706 486.838513 97.1507055 475.283513 93.9607055 467.994513zM133.180706 432.712513C129.380706 428.535513 125.960706 424.772513 122.520706 421.039513 122.410706 420.929513 121.980706 421.128513 121.700706 421.184513 121.590706 425.703513 123.650706 440.163513 125.130706 444.775513 125.700706 444.001513 126.170706 443.411513 126.590706 442.781513 128.770706 439.467513 130.930706 436.144513 133.180706 432.712513zM297.300706 475.101513C293.340706 480.090513 290.560706 485.555513 287.830706 490.921513 288.670706 493.860513 289.510706 496.591513 290.220706 499.357513 290.950706 502.205513 291.340706 505.164513 293.450706 508.411513 295.670706 497.504513 294.620706 486.997513 297.280706 476.974513 297.440706 476.389513 297.300706 475.727513 297.300706 475.101513zM76.1807055 557.922513C79.6307055 547.175513 83.0807055 536.427513 86.4307055 525.973513 85.6307055 524.166513 84.8407055 522.484513 84.1507055 520.755513 83.7407055 519.723513 83.6007055 518.587513 83.1807055 517.562513 82.9207055 516.945513 82.3707055 516.452513 81.6707055 515.534513 78.6607055 529.949513 77.3107055 544.026513 76.1807055 557.922513zM162.270706 375.687513C162.020706 377.156513 161.800706 377.862513 161.800706 378.568513 161.800706 385.244513 161.830706 391.918513 161.880706 398.593513 161.890706 399.319513 161.660706 400.218513 162.650706 400.585513 169.480706 397.023513 171.570706 395.552513 173.700706 392.782513 170.120706 387.269513 166.690706 381.630513 162.270706 375.687513zM225.050706 393.484513C224.910706 389.950513 224.780706 386.932513 224.680706 383.913513 224.570706 380.727513 224.570706 377.535513 224.380706 374.355513 224.200706 371.442513 224.840706 368.403513 223.070706 364.614513 220.380706 372.848513 216.500706 379.578513 213.850706 386.799513 217.590706 389.036513 221.100706 391.126513 225.050706 393.484513zM140.910706 422.450513C145.060706 418.251513 148.270706 414.144513 152.080706 410.375513 148.770706 406.315513 145.680706 402.461513 142.510706 398.669513 141.950706 398.001513 141.320706 397.072513 139.850706 397.602513 139.530706 404.344513 139.840706 411.177513 140.200706 418.006513 140.270706 419.237513 140.580706 420.455513 140.910706 422.450513zM307.800706 546.432513C308.050706 547.438513 308.200706 548.368513 308.510706 549.241513 310.490706 554.773513 312.400706 560.328513 314.520706 565.804513 316.000706 569.643513 317.770706 573.374513 319.450706 577.135513 319.520706 577.307513 319.960706 577.320513 320.510706 577.500513 320.290706 574.551513 320.160706 571.705513 319.850706 568.876513 319.090706 561.774513 319.250706 554.557513 317.280706 547.604513 317.040706 546.756513 316.550706 545.979513 316.230706 545.278513 313.270706 545.684513 310.620706 546.046513 307.800706 546.432513zM248.970706 415.989513C249.470706 414.802513 249.870706 414.154513 250.020706 413.453513 250.700706 410.405513 252.990706 386.459513 252.880706 384.092513 250.280706 386.521513 241.010706 400.045513 238.350706 405.342513 241.170706 409.336513 245.540706 411.833513 248.970706 415.989513zM173.790706 373.735513C174.860706 362.596513 175.070706 351.451513 176.600706 340.412513 176.640706 340.164513 176.370706 339.873513 176.230706 339.601513 172.010706 341.331513 166.500706 345.451513 163.950706 348.754513 167.420706 357.001513 168.910706 365.946513 173.790706 373.735513zM206.840706 357.811513C210.330706 345.987513 212.440706 334.959513 215.220706 323.749513 211.180706 323.386513 207.740706 324.675513 204.270706 325.598513 202.650706 326.028513 200.780706 326.179513 199.580706 327.999513 201.900706 337.511513 204.220706 347.070513 206.840706 357.811513zM274.540706 403.760513C274.190706 403.687513 273.830706 403.614513 273.480706 403.541513 268.340706 412.273513 263.700706 421.253513 259.720706 430.460513 261.360706 433.194513 262.840706 435.640513 264.290706 438.107513 265.790706 440.658513 266.260706 443.758513 268.310706 446.080513 268.690706 445.724513 269.090706 445.532513 269.110706 445.307513 270.260706 432.118513 273.120706 419.167513 274.530706 406.016513 274.610706 405.272513 274.540706 404.512513 274.540706 403.760513zM282.820706 477.311513C283.120706 477.300513 283.420706 477.290513 283.720706 477.279513 283.880706 476.401513 284.080706 475.528513 284.200706 474.645513 284.610706 471.651513 284.910706 468.640513 285.400706 465.660513 286.420706 459.376513 287.660706 453.126513 288.560706 446.827513 289.130706 442.899513 289.260706 438.906513 289.510706 434.938513 289.550706 434.444513 289.180706 433.923513 288.700706 432.599513 286.280706 437.812513 284.290706 442.283513 282.140706 446.671513 279.900706 451.215513 277.020706 455.435513 275.360706 460.056513 277.920706 465.971513 280.370706 471.641513 282.820706 477.311513zM202.760706 386.032513C202.420706 385.165513 202.340706 384.289513 201.860706 383.861513 200.350706 382.520513 199.700706 380.746513 198.930706 378.992513 196.320706 373.005513 193.690706 367.028513 191.020706 361.066513 190.660706 360.250513 190.040706 359.545513 189.320706 358.460513 187.610706 362.119513 187.590706 365.672513 186.970706 369.076513 186.370706 372.366513 185.910706 375.691513 185.590706 379.020513 185.260706 382.407513 183.480706 385.670513 184.430706 389.086513 190.450706 388.084513 196.250706 387.117513 202.760706 386.032513zM239.960706 327.726513C239.960706 330.720513 239.960706 333.107513 239.960706 335.493513 239.960706 343.471513 240.230706 351.459513 239.160706 359.403513 239.030706 360.351513 238.960706 361.312513 238.940706 362.268513 238.930706 362.833513 238.790706 363.590513 240.030706 363.572828 241.360706 361.192513 242.890706 358.765513 244.120706 356.196513 245.720706 352.872513 247.480706 349.686513 249.780706 346.783513 252.050706 343.926513 253.350706 340.515513 255.290706 337.398513 250.760706 333.358513 246.280706 329.883513 239.960706 327.726513zM137.330706 377.527513C133.910706 381.692513 131.280706 385.472513 128.820706 389.387513 127.720706 391.147513 127.550706 392.857513 127.820706 394.858513 128.850706 402.320513 130.540706 409.629513 132.560706 416.876513 132.850706 417.945513 133.110706 419.037513 133.240706 420.135513 133.280706 420.488513 132.940706 421.086513 132.620706 421.227513 132.270706 421.380513 131.590706 421.289513 131.330706 421.029513 128.690706 418.455513 126.270706 415.711513 124.460706 412.459513 122.730706 409.362513 122.420706 409.106513 119.560706 407.205513 117.950706 410.331513 116.340706 413.430513 114.950706 416.631513 114.650706 417.315513 114.590706 418.190513 114.690706 418.942513 114.930706 420.840513 115.200706 422.754513 115.690706 424.597513 116.730706 428.451513 117.960706 432.253513 119.040706 436.097513 119.430706 437.465513 119.670706 438.883513 119.850706 440.294513 119.890706 440.639513 119.510706 441.223513 119.180706 441.380513 118.820706 441.548513 118.170706 441.502513 117.860706 441.267513 117.100706 440.695513 116.440706 439.982513 115.790706 439.284513 113.940706 437.296513 112.150706 435.247513 110.240706 433.309513 109.510706 432.563513 108.730706 431.621513 107.110706 432.037513 104.660706 436.526513 103.730706 441.784513 101.430706 446.411513 101.850706 447.347513 102.150706 448.081513 102.510706 448.783513 104.980706 453.615513 107.490706 458.431513 109.920706 463.283513 110.170706 463.792513 110.270706 464.634513 110.020706 465.085513 109.590706 465.843513 108.710706 465.916513 107.900706 465.560513 105.420706 464.463513 102.950706 463.344513 100.480706 462.230513 99.1907055 461.650513 98.0907055 460.552513 96.2307055 460.848513 95.8207055 461.834513 95.3607055 462.948513 94.9107055 464.033513 100.110706 466.936513 104.420706 470.805513 109.700706 472.993513 112.530706 470.025513 112.780706 466.850513 111.370706 463.187513 109.780706 459.013513 108.510706 454.710513 107.200706 450.433513 106.640706 448.605513 106.260706 446.710513 105.950706 444.822513 105.580706 442.589513 105.970706 441.669513 107.270706 441.131513 108.780706 440.503513 109.640706 441.497513 110.530706 442.452513 112.810706 444.911513 115.090706 447.381513 117.420706 449.799513 118.280706 450.696513 119.290706 451.459513 120.220706 452.274513 122.300706 450.718513 122.850706 448.899513 122.480706 446.633513 121.630706 441.589513 120.820706 436.539513 120.100706 431.476513 119.470706 427.048513 118.800706 422.614513 119.110706 418.110513 119.180706 417.096513 119.400706 416.231513 120.850706 415.953513 123.040706 417.553513 124.950706 419.682513 126.710706 421.917513 129.010706 424.838513 131.810706 427.167513 134.980706 429.603513 136.030706 428.330513 137.020706 427.136513 137.830706 426.166513 137.570706 423.859513 137.250706 421.967513 137.170706 420.065513 136.880706 412.876513 136.660706 405.682513 136.450706 398.490513 136.400706 396.893513 136.380706 395.284513 136.520706 393.695513 136.680706 391.798513 138.480706 391.010513 140.010706 392.108513 140.660706 392.570513 141.260706 393.115513 141.800706 393.699513 144.940706 397.103513 148.070706 400.522513 151.180706 403.953513 152.340706 405.229513 153.150706 406.876513 155.150706 407.567513 156.490706 406.301513 157.860706 404.995513 159.100706 403.824513 159.160706 403.065513 159.240706 402.587513 159.240706 402.111513 159.210706 393.314513 159.170706 384.516513 159.130706 375.719513 159.130706 374.919513 159.140706 374.120513 159.120706 373.320513 159.100706 372.272513 159.460706 371.207513 160.440706 371.023513 161.250706 370.872513 162.410706 371.194513 163.030706 371.740513 164.210706 372.776513 165.250706 374.039513 166.120706 375.358513 168.660706 379.231513 171.100706 383.172513 173.560706 387.100513 174.760706 389.012513 176.200706 390.634513 178.180706 391.602513 180.470706 390.163513 180.540706 390.176513 180.860706 388.415513 181.440706 385.274513 181.890706 382.111513 182.430706 378.964513 183.650706 371.880513 184.880706 364.799513 186.140706 357.722513 186.280706 356.948513 186.530706 356.171513 186.860706 355.460513 187.340706 354.460513 188.790706 353.919513 189.740706 354.457513 190.550706 354.913513 191.380706 355.506513 191.910706 356.248513 192.740706 357.407513 193.400706 358.705513 193.990706 360.009513 197.910706 368.711513 201.800706 377.431513 205.750706 386.269513 207.440706 386.659513 209.130706 386.716513 211.150706 386.062513 214.020706 379.423513 216.950706 372.691513 219.840706 365.943513 221.160706 362.860513 222.360706 359.728513 223.710706 356.658513 223.930706 356.166513 224.590706 355.635513 225.110706 355.560513 226.040706 355.425513 226.550706 356.215513 226.650706 357.036513 226.850706 358.618513 226.940706 360.216513 227.010706 361.811513 227.520706 373.596513 228.010706 385.381513 228.500706 397.050513 230.880706 398.885513 233.140706 400.628513 235.640706 402.559513 236.680706 401.201513 237.700706 399.995513 238.580706 398.694513 241.000706 395.122513 243.350706 391.502513 245.750706 387.917513 248.240706 384.199513 250.760706 380.495513 253.270706 376.792513 253.730706 376.112513 254.370706 375.388513 255.200706 375.824513 255.810706 376.144513 256.240706 376.921513 256.580706 377.583513 256.780706 377.965513 256.690706 378.528513 256.650706 379.001513 256.030706 385.042513 255.460706 391.089513 254.750706 397.120513 254.000706 403.466513 253.080706 409.792513 252.320706 416.137513 252.150706 417.542513 251.900706 419.253513 252.510706 420.370513 253.850706 422.827513 255.140706 425.459513 257.660706 427.281513 258.090706 426.625513 258.530706 426.138513 258.770706 425.568513 262.160706 417.437513 266.350706 409.715513 270.700706 402.065513 272.510706 398.887513 273.870706 395.455513 275.430706 392.136513 275.630706 391.706513 275.710706 391.145513 276.030706 390.859513 276.460706 390.478513 277.150706 390.020513 277.600706 390.123513 278.080706 390.230513 278.610706 390.906513 278.770706 391.437513 278.990706 392.177513 278.970706 393.022513 278.900706 393.809513 278.730706 395.720513 278.500706 397.626513 278.260706 399.530513 277.280706 407.299513 276.680706 415.146513 275.170706 422.814513 273.690706 430.359513 272.800706 437.970513 271.620706 445.547513 271.350706 447.275513 271.410706 449.054513 271.330706 450.810513 271.230706 453.017513 272.130706 454.777513 273.870706 456.461513 274.460706 455.491513 274.990706 454.714513 275.410706 453.878513 278.190706 448.299513 280.930706 442.702513 283.700706 437.121513 284.770706 434.974513 285.790706 432.798513 287.020706 430.744513 287.710706 429.583513 288.360706 427.809513 290.100706 428.209513 292.170706 428.685513 291.760706 430.740513 291.780706 432.217513 291.840706 437.650513 291.890706 443.081513 290.980706 448.484513 290.090706 453.839513 289.410706 459.209513 288.050706 464.504513 286.640706 470.054513 286.650706 475.904513 284.930706 481.448513 284.340706 483.379513 284.960706 484.272513 287.020706 486.298513 287.710706 485.198513 288.460706 484.171513 289.030706 483.056513 291.530706 478.230513 293.980706 473.379513 296.440706 468.534513 297.090706 467.255513 297.620706 465.912513 298.380706 464.701513 298.610706 464.329513 299.390706 464.298513 300.160706 464.028513 300.350706 465.123513 300.630706 465.892513 300.590706 466.645513 300.430706 469.834513 300.280706 473.030513 299.910706 476.199513 299.260706 481.752513 298.360706 487.277513 297.740706 492.834513 297.220706 497.597513 296.970706 502.392513 296.540706 507.167513 296.350706 509.235513 295.920706 511.282513 295.740706 513.351513 295.540706 515.581513 295.860706 517.693513 298.030706 519.590513 298.900706 517.888513 299.590706 516.486513 300.320706 515.098513 301.650706 512.551513 302.970706 510.001513 304.350706 507.478513 304.790706 506.658513 305.500706 506.464513 306.620706 507.310513 306.890706 512.486513 307.120706 517.907513 306.680706 523.316513 306.450706 526.167513 305.600706 528.962513 305.280706 531.811513 304.990706 534.343513 304.960706 536.915513 304.980706 539.467513 304.990706 540.952513 305.140706 540.951513 307.200706 542.922513 307.800706 541.347513 308.430706 539.906513 308.900706 538.415513 309.750706 535.670513 310.390706 532.851513 311.350706 530.145513 312.780706 526.111513 312.960706 522.030513 312.340706 517.853513 311.410706 511.526513 310.520706 505.194513 309.560706 498.870513 309.480706 498.301513 309.090706 497.780513 308.750706 497.038513 307.690706 497.540513 306.870706 497.977513 306.020706 498.328513 304.690706 498.869513 303.370706 499.441513 302.000706 499.827513 300.970706 500.118513 300.120706 499.710513 299.860706 498.751513 301.940706 491.702513 303.970706 484.809513 306.030706 477.928513 306.550706 476.212513 306.560706 474.554513 306.360706 472.753513 305.700706 466.839513 304.030706 461.167513 302.550706 455.447513 302.450706 455.064513 302.060706 454.757513 301.640706 454.198513 300.610706 455.177513 299.720706 456.067513 298.780706 456.899513 297.580706 457.956513 296.400706 459.042513 295.100706 459.959513 294.560706 460.339513 293.740706 460.317513 292.630706 460.573513 292.790706 459.066513 292.740706 457.943513 293.050706 456.931513 294.770706 451.280513 296.530706 445.636513 298.400706 440.031513 299.120706 437.870513 299.770706 435.763513 299.170706 433.484513 297.460706 426.996513 295.750706 420.505513 293.980706 414.036513 293.800706 413.398513 293.790706 412.392513 292.530706 412.298513 291.630706 413.040513 290.740706 413.987513 289.660706 414.608513 286.920706 416.185513 285.060706 418.529513 283.490706 421.176513 283.090706 421.857513 282.620706 422.506513 282.100706 423.107513 281.950706 423.287513 281.430706 423.401513 281.270706 423.285513 280.930706 423.042513 280.630706 422.659513 280.480706 422.269513 280.370706 422.023513 280.530706 421.651513 280.620706 421.352513 282.480706 415.403513 284.370706 409.461513 286.210706 403.505513 286.870706 401.373513 287.420706 399.208513 288.010706 397.054513 288.490706 395.302513 288.270706 393.622513 287.750706 391.880513 285.860706 385.591513 283.520706 379.476513 280.950706 373.445513 280.710706 372.878513 280.280706 372.392513 279.780706 371.630513 278.990706 372.404513 278.300706 373.005513 277.700706 373.678513 276.200706 375.340513 274.820706 377.117513 273.250706 378.700513 269.140706 382.830513 265.640706 387.325513 263.910706 392.997513 263.780706 393.402513 263.440706 393.739513 263.210706 394.084513 262.070706 393.808513 261.970706 392.960513 262.110706 392.192513 262.740706 388.738513 263.420706 385.292513 264.160706 381.858513 264.650706 379.520513 265.430706 377.232513 265.800706 374.877513 266.850706 368.087513 267.630706 361.253513 268.800706 354.486513 269.150706 352.441513 268.600706 351.091513 267.340706 349.749513 264.840706 347.058513 262.350706 344.349513 259.810706 341.690513 259.190706 341.044513 258.400706 340.560513 257.570706 339.899513 255.900706 342.588513 254.460706 345.079513 252.870706 347.466513 247.900706 354.920513 243.180706 362.511513 239.780706 370.845513 239.360706 371.868513 238.880706 372.881513 238.290706 373.805513 238.120706 374.071513 237.430706 374.090513 236.990706 374.068513 236.740706 374.055513 236.450706 373.769513 236.290706 373.529513 236.120706 373.279513 236.000706 372.936513 236.000706 372.636513 236.060706 367.681513 235.760706 362.682513 236.330706 357.785513 236.800706 353.793513 236.950706 349.824513 237.030706 345.836513 237.130706 341.202513 237.110706 336.561513 237.020706 331.925513 236.990706 330.051513 237.370706 328.121513 236.700706 326.184513 230.920706 323.664513 225.020706 322.902513 218.760706 323.627513 218.330706 324.883513 217.820706 326.063513 217.540706 327.294513 216.260706 332.900513 215.120706 338.542513 213.770706 344.131513 211.900706 351.898513 209.900706 359.634513 207.890706 367.365513 207.770706 367.830513 207.020706 368.384513 206.520706 368.425513 206.010706 368.467513 205.130706 368.039513 204.990706 367.619513 204.470706 366.127513 204.020706 364.569513 203.880706 363.005513 203.240706 355.807513 201.620706 348.816513 199.770706 341.854513 198.870706 338.459513 198.240706 334.994513 197.450706 331.567513 197.250706 330.691513 197.570706 329.606513 196.180706 328.834513 190.730706 330.844513 185.310706 333.399513 180.360706 336.810513 179.140706 342.119513 178.470706 347.341513 178.250706 352.625513 177.920706 360.294513 177.610706 367.965513 177.250706 375.634513 177.170706 377.389513 176.990706 379.142513 176.790706 380.889513 176.720706 381.515513 176.610706 382.213513 176.270706 382.709513 175.960706 383.162513 175.350706 383.533513 174.800706 383.654513 174.480706 383.726513 173.990706 383.294513 173.660706 382.994513 173.450706 382.796513 173.380706 382.433513 173.270706 382.134513 169.950706 373.141513 166.630706 364.145513 163.310706 355.153513 162.780706 353.716513 162.200706 352.297513 161.520706 350.533513 156.660706 354.382513 153.570706 359.280513 149.590706 363.253513 150.450706 372.044513 151.230706 380.630513 152.980706 389.101513 153.330706 390.785513 153.200706 392.584513 153.150706 394.326513 153.120706 395.190513 151.480706 395.631513 150.800706 395.029513 150.560706 394.817513 150.330706 394.591513 150.140706 394.337513 147.470706 390.743513 144.840706 387.124513 142.140706 383.550513 140.710706 381.649513 139.180706 379.826513 137.330706 377.527513zM71.8207055 577.035513C71.7207055 576.470513 71.5007055 575.895513 71.5507055 575.342513 72.0407055 569.614513 72.4807055 563.877513 73.1307055 558.165513 74.2207055 548.479513 75.2507055 538.780513 76.6807055 529.141513 77.7607055 521.879513 79.1907055 514.651513 80.8707055 507.501513 83.8207055 494.900513 86.8107055 482.293513 90.3207055 469.840513 92.4407055 462.325513 95.5507055 455.089513 98.2507055 447.740513 99.6807055 443.840513 101.150706 439.954513 102.670706 436.086513 103.480706 434.005513 104.350706 431.933513 105.340706 429.931513 110.660706 419.188513 116.070706 408.492513 121.360706 397.732513 125.690706 388.918513 131.320706 380.965513 137.450706 373.367513 141.260706 368.645513 145.420706 364.209513 149.420706 359.640513 150.160706 358.798513 150.920706 357.971513 151.600706 357.082513 156.480706 350.648513 162.440706 345.403513 169.040706 340.774513 178.390706 334.220513 188.440706 329.042513 198.930706 324.644513 208.170706 320.775513 217.830706 319.966513 227.650706 320.864513 234.080706 321.452513 240.130706 323.633513 245.710706 326.909513 261.170706 335.998513 272.570706 348.773513 280.490706 364.869513 286.160706 376.408513 290.170706 388.492513 293.570706 400.831513 295.060706 406.218513 296.660706 411.574513 298.160706 416.958513 300.780706 426.356513 302.630706 435.909513 304.050706 445.563513 304.740706 450.294513 305.780706 454.985513 306.860706 459.648513 309.290706 470.095513 310.920706 480.656513 311.940706 491.329513 312.480706 496.894513 313.290706 502.437513 314.130706 507.967513 315.570706 517.443513 317.060706 526.911513 318.640706 536.364513 319.560706 541.878513 320.700706 547.357513 321.710706 552.858513 321.960706 554.268513 322.150706 555.697513 322.280706 557.125513 322.880706 563.966513 323.450706 570.810513 324.030706 577.654513 324.370706 581.789513 324.670706 585.928513 325.070706 590.059513 325.210706 591.476513 325.590706 592.869513 325.840706 594.276513 325.950706 594.897513 326.070706 595.523513 326.090706 596.150513 326.130706 597.144513 325.980706 598.271513 324.900706 598.477513 324.310706 598.588513 323.320706 598.031513 322.940706 597.480513 322.040706 596.183513 321.200706 594.775513 320.680706 593.292513 320.050706 591.499513 319.660706 589.598513 319.350706 587.713513 318.760706 584.213513 317.730706 580.857513 316.130706 577.707513 313.740706 572.994513 311.750706 568.145513 310.060706 563.128513 307.810706 556.471513 305.180706 549.946513 302.700706 543.367513 298.030706 530.952513 293.340706 518.542513 288.680706 506.121513 288.240706 504.928513 288.000706 503.660513 287.630706 502.435513 286.630706 499.102513 286.620706 495.437513 284.300706 492.546513 283.660706 487.378513 280.800706 482.988513 279.240706 478.138513 276.430706 469.423513 272.140706 461.376513 267.850706 453.334513 266.940706 451.642513 265.890706 449.995513 265.250706 448.202513 262.280706 439.784513 257.410706 432.511513 251.910706 425.601513 250.810706 424.227513 249.800706 422.786513 248.720706 421.393513 246.280706 418.227513 243.830706 415.110513 240.790706 412.443513 237.790706 409.814513 235.090706 406.840513 232.260706 404.023513 231.810706 403.573513 231.350706 403.116513 230.850706 402.721513 226.840706 399.562513 222.880706 396.330513 218.770706 393.297513 215.610706 390.970513 211.970706 389.824513 208.020706 389.729513 198.990706 389.513513 190.300706 390.868513 181.700706 393.920513 173.650706 396.777513 166.910706 401.410513 160.640706 406.883513 153.890706 412.781513 147.630706 419.244513 141.960706 426.166513 137.620706 431.464513 133.830706 437.244513 130.060706 442.985513 126.640706 448.193513 123.520706 453.604513 120.390706 458.994513 118.870706 461.613513 117.620706 464.388513 116.240706 467.090513 113.040706 473.354513 109.820706 479.604513 106.660706 485.888513 105.730706 487.737513 105.080706 489.728513 104.130706 491.562513 103.270706 493.213513 102.720706 494.967513 101.610706 496.577513 100.010706 498.899513 99.1007055 501.729513 98.0707055 504.413513 94.5507055 513.667513 91.0307055 522.926513 87.6507055 532.237513 85.7407055 537.491513 84.0207055 542.817513 82.4007055 548.167513 80.3707055 554.895513 78.6407055 561.715513 76.5507055 568.423513 75.6107055 571.440513 74.1107055 574.281513 72.8607055 577.202513 72.5107055 577.146513 72.1607055 577.090513 71.8207055 577.035513L71.8207055 577.035513zM155.020706 80.5954023C158.600706 81.0975128 162.260706 81.4685128 165.860706 82.1465128 173.230706 83.5335128 180.580706 85.0865128 187.610706 87.7325128 190.140706 88.6805128 192.540706 89.9745128 194.900706 91.2945128 196.480706 92.1785128 196.930706 93.9195128 196.310706 95.3875128 195.750706 96.6875128 193.890706 97.5705128 192.270706 97.2475128 191.640706 97.1235128 191.010706 96.9465128 190.440706 96.6665128 181.890706 92.4525128 172.670706 90.5905128 163.380706 88.9665128 161.180706 88.5835128 158.990706 88.0715128 156.860706 87.4285128 155.660706 87.0695128 154.500706 86.4405128 153.490706 85.7015128 152.920706 85.2805128 152.500706 84.4345128 152.340706 83.7065128 151.940706 81.8995128 153.120706 80.5815128 155.020706 80.5954023M157.570706 68.9565128C168.800706 69.5035128 179.730706 71.5685128 190.350706 75.2535128 191.100706 75.5155128 191.880706 75.7235128 192.610706 76.0485128 194.410706 76.8585128 195.100706 78.1715128 194.650706 79.8485128 194.300706 81.2045128 193.190706 82.0985128 191.310706 81.9425128 189.270706 81.7735128 187.190706 81.4005128 185.260706 80.7435128 179.810706 78.8915128 174.300706 77.3125128 168.640706 76.3015128 165.190706 75.6865128 161.700706 75.3005128 158.240706 74.7555128 156.510706 74.4835128 154.790706 74.1125128 153.080706 73.7325128 151.930706 73.4785128 151.080706 72.8185128 150.570706 71.7115128 149.880706 70.1925128 150.680706 68.6195128 152.330706 68.6125128 154.080706 68.6055128 155.820706 68.8315128 157.570706 68.9565128"/>
    <path d="M169.290706 468.383513C169.640706 468.139513 169.970706 467.728513 170.350706 467.677513 174.620706 467.105513 178.880706 466.350513 183.220706 466.581513 185.460706 466.700513 187.720706 466.492513 189.930706 466.771513 193.080706 467.168513 196.280706 467.595513 199.310706 468.514513 205.410706 470.366513 210.960706 473.775513 217.250706 475.194513 217.570706 475.266513 217.970706 475.910513 217.960889 476.269513 217.940706 476.637513 217.490706 477.234513 217.160706 477.291513 216.240706 477.448513 215.220706 477.603513 214.360706 477.349513 211.910706 476.626513 209.510706 475.760513 207.130706 474.837513 204.160706 473.682513 201.240706 472.381513 198.270706 471.202513 194.350706 469.645513 190.290706 468.977513 186.070706 469.176513 182.400706 469.349513 178.720706 469.381513 175.040706 469.421513 173.150706 469.441513 171.250706 469.340513 169.360706 469.293513 169.340706 468.991513 169.320706 468.687513 169.290706 468.383513M182.280706 486.201513C182.070706 484.797513 182.710706 484.278513 183.490706 484.113513 184.570706 483.882513 185.700706 483.854513 186.820706 483.787513 195.980706 483.236513 204.970706 484.790513 213.980706 486.027513 215.660706 486.257513 217.280706 487.126513 218.840706 487.881513 219.200706 488.056513 219.460706 489.058513 219.300706 489.520513 219.140706 489.978513 218.430706 490.294513 217.900706 490.554513 217.660706 490.672513 217.270706 490.537513 216.970706 490.459513 206.850706 487.911513 196.500706 487.234513 186.130706 486.722513 185.170706 486.675513 184.210706 486.665513 183.260706 486.584513 182.960706 486.558513 182.670706 486.360513 182.280706 486.201513"/>
  </g>
</svg>
