<svg xmlns="http://www.w3.org/2000/svg" xmlns:xlink="http://www.w3.org/1999/xlink" width="174" height="169" viewBox="0 0 174 169">
  <defs>
    <polygon id="8-a" points="0 .816 173.606 .816 173.606 169 0 169"/>
  </defs>
  <g fill="none" fill-rule="evenodd" transform="translate(0 -1)">
    <g transform="translate(0 .184)">
      <mask id="8-b" fill="#fff">
        <use xlink:href="#8-a"/>
      </mask>
      <path fill="#231F20" d="M167.3047,22.3733 C162.3127,27.8933 158.6827,32.4333 154.4977,36.3853 C150.3787,40.2763 145.4717,43.3313 141.3207,47.1933 C136.4817,51.6953 131.7817,56.4563 132.1607,63.9773 C132.3737,68.1913 132.2007,72.4253 132.2317,76.6503 C132.3657,94.9753 132.5227,113.3003 132.6427,131.6253 C132.6857,138.1273 132.6497,144.6293 132.6497,152.5093 C135.0097,150.5223 136.3827,149.6453 137.4027,148.4633 C144.1077,140.6903 151.1407,133.1523 157.2367,124.9223 C160.8377,120.0593 165.6587,115.7003 165.7277,108.5473 C165.8417,96.6753 167.0297,84.8153 167.2347,72.9423 C167.5167,56.5953 167.3047,40.2383 167.3047,22.3733 M104.8397,160.9353 C104.8457,160.9783 104.8517,161.0223 104.8567,161.0653 C110.3297,161.0653 115.8137,161.2573 121.2687,160.9423 C122.8057,160.8533 125.3517,159.4873 125.5647,158.3543 C126.6047,152.8263 127.4157,147.1883 127.5617,141.5703 C127.8787,129.2733 127.7787,116.9663 127.7847,104.6623 C127.7907,91.4333 127.8307,78.2023 127.6107,64.9773 C127.5587,61.8793 126.0037,59.5243 122.1667,59.4923 C112.7977,59.4153 103.4297,59.1563 94.0637,58.9163 C87.5007,58.7483 80.9307,58.6413 74.3817,58.2323 C67.1737,57.7843 59.9327,57.3583 52.8097,56.2513 C49.3847,55.7183 46.2677,57.1303 42.9307,56.5433 C40.0527,56.0363 37.0797,55.9253 34.1477,55.9113 C27.7257,55.8803 21.2917,55.8493 14.8877,56.2323 C13.5617,56.3113 11.4237,58.0443 11.2227,59.2693 C9.8737,67.5253 8.6157,75.8243 7.9557,84.1593 C6.8707,97.8893 6.1777,111.6513 5.4837,125.4093 C5.0997,133.0133 4.8647,140.6363 4.9897,148.2433 C5.0187,150.0143 6.5187,153.0333 7.7987,153.3033 C16.4917,155.1293 25.2597,157.1113 34.0887,157.6603 C57.6497,159.1253 81.2527,159.8923 104.8397,160.9353 M168.8137,13.5233 C169.7237,15.9563 171.3397,18.2713 171.3157,20.5693 C171.2317,28.4703 170.2177,36.3663 170.2777,44.2593 C170.3087,48.3693 172.2577,52.4313 172.6267,56.5783 C173.7637,69.3433 174.5687,82.1033 171.1447,94.7583 C170.5247,97.0503 172.0397,99.8383 172.0217,102.3943 C171.9897,106.5593 171.9287,110.8133 171.0517,114.8503 C170.5327,117.2393 168.3947,119.2673 167.0307,121.4843 C165.8787,123.3553 165.0417,125.4793 163.6337,127.1213 C158.3137,133.3273 152.7597,139.3313 147.4067,145.5093 C143.0947,150.4813 138.9567,155.6043 134.7207,160.6433 C132.4637,163.3263 130.2927,166.1063 127.7927,168.5463 C127.0967,169.2263 125.3677,168.9413 124.1127,168.9373 C112.9127,168.9023 101.7097,168.9873 90.5157,168.7043 C84.9277,168.5623 79.3637,167.6653 73.7787,167.2213 C65.5707,166.5673 57.3417,166.1483 49.1457,165.3823 C40.8057,164.6023 32.4927,163.5263 24.1707,162.5683 C19.6017,162.0433 15.0007,161.6853 10.4787,160.8853 C7.4507,160.3503 4.4167,159.4323 1.6357,158.1443 C0.6757,157.6993 -0.0263,155.6123 -5.30183267e-05,154.2933 C0.2317,143.0513 0.4997,131.8053 1.0667,120.5753 C1.7077,107.8433 2.6577,95.1253 3.4967,82.4033 C4.0307,74.3253 3.8787,66.1063 5.4287,58.2253 C6.4277,53.1443 8.3267,48.1193 12.2117,43.5963 C18.1067,36.7323 25.1507,32.2543 32.9137,28.2243 C36.0367,26.6023 38.4187,23.6143 41.3777,21.6013 C47.5827,17.3793 53.9467,13.3933 61.4297,8.5413 C63.4437,2.2653 65.9877,0.2503 76.4807,0.9473 C89.5367,1.8153 102.5917,1.1723 115.6987,3.7733 C128.9507,6.4033 142.7917,6.0183 156.3547,7.1853 C159.8867,7.4903 163.3437,8.6633 167.3927,9.5603 C166.4017,10.5013 165.5917,10.8943 165.5327,11.3803 C164.6037,18.9183 160.3847,16.9013 155.5317,15.4033 C151.7707,14.2433 147.5487,14.6273 143.5507,14.1683 C137.9557,13.5263 132.3867,12.6633 126.7907,12.0413 C122.9677,11.6163 119.1217,11.3163 115.2787,11.1763 C102.3447,10.7033 89.4097,10.2133 76.4697,10.0483 C74.7217,10.0253 72.9657,11.8493 71.1867,12.7673 C68.4867,14.1613 65.6757,15.3623 63.0667,16.9063 C55.2637,21.5223 47.4727,26.1663 39.7987,30.9913 C34.5337,34.3013 29.4437,37.8923 24.3307,41.4383 C22.1027,42.9843 20.0147,44.7343 17.8637,46.3933 C17.9867,46.8093 18.1107,47.2263 18.2337,47.6423 C21.7327,47.8703 25.2287,48.1873 28.7317,48.3103 C36.7897,48.5893 44.8617,48.6003 52.9097,49.0423 C62.3077,49.5603 71.9517,49.3303 80.9707,51.5403 C86.4007,52.8703 91.5367,50.4583 97.2297,53.0683 C101.8697,55.1973 108.8237,51.5783 114.3757,52.5833 C124.2877,54.3753 131.3817,51.3653 137.6987,43.9373 C141.0897,39.9483 145.9247,37.2243 149.6927,33.5083 C155.9327,27.3523 161.8367,20.8543 168.8137,13.5233" mask="url(#8-b)"/>
    </g>
    <path fill="#231F20" d="M41.9053 90.4284C42.0533 96.4294 38.7613 99.9844 32.8573 100.1994 25.2573 100.4784 21.2173 96.3044 20.9543 87.9064 20.7993 82.9344 24.8833 78.9794 30.4023 78.7554 38.0923 78.4454 41.7003 82.1074 41.9053 90.4284M72.7393 87.4255C73.0153 86.7885 73.2593 85.7965 73.8103 85.0235 78.0603 79.0585 87.9593 79.6385 91.2763 86.0045 91.7303 86.8755 92.1593 87.7865 92.7623 88.5495 96.1623 92.8425 94.4873 98.0845 89.1313 99.7355 79.8573 102.5915 74.1903 95.0265 72.7393 87.4255M26.6817 113.1364C31.1627 109.6524 36.6087 111.2874 41.4707 111.5094 47.7817 111.7974 53.9927 113.9874 60.3127 114.4634 66.7417 114.9484 73.2547 114.1944 79.7237 114.3204 81.4607 114.3544 83.1727 115.6224 84.8967 116.3244 83.1117 117.5984 81.3147 119.9804 79.5437 119.9594 70.7227 119.8574 61.9047 119.1844 53.0937 118.5894 47.0007 118.1784 40.9047 117.7144 34.8457 116.9824 31.9877 116.6364 29.2117 115.6024 26.3997 114.8804 26.4947 114.2984 26.5877 113.7174 26.6817 113.1364M50.2032 97.1003C50.1072 94.3113 53.6252 91.0853 56.7242 91.1213 59.8942 91.1563 64.9672 95.3543 64.3192 98.0843 63.8902 99.9003 61.7322 102.4653 60.1282 102.6373 54.2692 103.2633 50.3252 100.6783 50.2032 97.1003"/>
  </g>
</svg>
