<?xml version="1.0" standalone="no"?>
<!DOCTYPE svg PUBLIC "-//W3C//DTD SVG 20010904//EN"
 "http://www.w3.org/TR/2001/REC-SVG-20010904/DTD/svg10.dtd">
<svg version="1.0" xmlns="http://www.w3.org/2000/svg"
 width="1026.000000pt" height="1026.000000pt" viewBox="0 0 1026.000000 1026.000000"
 preserveAspectRatio="xMidYMid meet">
<metadata>
Created by potrace 1.14, written by Peter Selinger 2001-2017
</metadata>
<g transform="translate(0.000000,1026.000000) scale(0.100000,-0.100000)"
fill="#000000" stroke="none">
<path d="M5017 8449 c-166 -11 -431 -52 -450 -69 -4 -4 77 -10 180 -13 1197
-40 2309 -706 3060 -1832 303 -455 514 -961 626 -1501 74 -357 89 -507 96
-999 l6 -420 18 92 c171 878 -13 2048 -464 2963 -567 1150 -1393 1704 -2659
1780 -183 11 -240 11 -413 -1z"/>
<path d="M4070 8221 c-182 -70 -372 -159 -531 -247 -77 -42 -138 -79 -136 -81
2 -1 48 4 103 12 590 89 1237 -87 1869 -510 872 -584 1595 -1573 1958 -2680
237 -724 312 -1463 221 -2203 -9 -73 -14 -136 -10 -139 8 -8 236 130 355 215
111 79 245 202 308 285 l45 59 9 116 c5 64 16 209 25 322 20 257 15 757 -10
950 -97 745 -329 1356 -761 2005 -788 1186 -1902 1855 -3230 1939 -90 6 -91 6
-215 -43z"/>
<path d="M3650 7734 c-338 -41 -598 -141 -855 -332 -90 -66 -304 -272 -362
-347 l-31 -40 307 0 c205 0 336 -4 396 -13 664 -100 1197 -387 1681 -903 640
-684 1086 -1745 1211 -2879 14 -129 18 -241 18 -510 -1 -364 -10 -471 -57
-695 -11 -55 -23 -112 -25 -126 l-5 -26 154 29 c406 76 752 169 1028 277 l55
22 1 292 c0 161 2 443 4 627 4 300 2 354 -18 515 -113 916 -409 1734 -893
2462 -544 819 -1268 1399 -1974 1584 -60 15 -153 35 -205 44 -94 15 -362 27
-430 19z"/>
<path d="M2659 6760 c-193 -31 -396 -111 -546 -215 -53 -37 -63 -50 -120 -160
-59 -113 -167 -362 -179 -412 -6 -22 -3 -21 86 17 208 91 407 132 630 132 279
-1 528 -64 801 -203 949 -484 1808 -1846 2029 -3214 11 -66 33 -194 49 -285
38 -217 54 -400 45 -523 l-7 -99 29 6 c16 3 65 10 108 16 44 6 81 12 82 13 2
2 8 54 14 117 6 63 22 210 36 325 28 226 31 371 14 590 -90 1143 -471 2165
-1081 2900 -115 138 -342 362 -474 468 -210 168 -448 317 -590 369 -173 64
-345 118 -440 138 -113 24 -391 35 -486 20z"/>
<path d="M2266 5814 c-165 -30 -329 -99 -482 -200 l-80 -53 -22 -103 c-62
-295 -83 -490 -89 -828 -6 -292 3 -487 33 -715 15 -116 18 -124 81 -243 362
-690 862 -1206 1458 -1505 373 -187 744 -283 1334 -347 274 -29 523 -51 529
-46 7 8 -17 456 -33 616 -118 1161 -543 2169 -1185 2810 -69 69 -163 156 -210
193 -258 207 -543 350 -820 412 -106 24 -408 29 -514 9z m120 -2551 c579 -494
1044 -773 1819 -1090 l180 -74 -145 5 c-717 24 -1533 491 -1960 1121 -57 84
-150 245 -150 259 0 6 24 -13 53 -41 28 -28 120 -109 203 -180z"/>
</g>
</svg>
