<?xml version="1.0" standalone="no"?>
<!DOCTYPE svg PUBLIC "-//W3C//DTD SVG 20010904//EN"
 "http://www.w3.org/TR/2001/REC-SVG-20010904/DTD/svg10.dtd">
<svg version="1.0" xmlns="http://www.w3.org/2000/svg"
 width="512.000000pt" height="512.000000pt" viewBox="0 0 512.000000 512.000000"
 preserveAspectRatio="xMidYMid meet">
<metadata>
Created by potrace 1.14, written by Peter Selinger 2001-2017
</metadata>
<g transform="translate(0.000000,512.000000) scale(0.100000,-0.100000)"
fill="#000000" stroke="none">
<path d="M946 5108 c3 -4 13 -8 22 -9 14 0 14 -2 2 -6 -8 -3 -19 -11 -23 -17
-6 -7 -7 -4 -3 7 3 9 1 17 -4 17 -10 0 -14 -15 -10 -35 1 -5 -2 -7 -6 -3 -4 4
-13 3 -20 -3 -8 -7 -14 -6 -20 2 -5 8 -3 9 6 4 9 -6 11 -4 5 5 -5 8 -4 11 3 6
6 -3 13 -2 16 3 4 5 0 8 -6 7 -25 -3 -37 -17 -32 -34 5 -15 4 -14 -10 2 -14
18 -15 18 -13 -3 1 -11 5 -21 10 -21 4 0 5 -5 1 -11 -4 -8 -11 -4 -18 9 -11
21 -12 21 -24 2 -8 -14 -9 -21 0 -26 7 -5 8 -3 3 6 -5 9 -4 11 4 6 8 -6 9 -12
2 -20 -6 -7 -7 -16 -3 -21 4 -4 -3 -2 -15 6 -12 7 -19 17 -16 23 3 5 2 6 -4 3
-13 -8 -9 -47 6 -56 10 -6 9 -10 -4 -15 -9 -3 -13 -10 -10 -16 3 -5 -3 -10
-14 -10 -27 0 -26 -8 2 -39 12 -14 15 -20 6 -13 -9 6 -20 8 -24 4 -5 -4 -5 -1
-1 5 5 9 2 11 -10 6 -16 -6 -15 -8 4 -16 13 -6 21 -19 21 -31 -1 -25 9 -75 18
-89 3 -6 1 -7 -5 -3 -8 5 -10 2 -6 -8 3 -9 11 -13 18 -9 6 4 5 -1 -3 -10 -12
-15 -11 -17 3 -17 9 0 16 -7 16 -16 0 -8 -4 -13 -9 -10 -11 7 -8 -21 4 -31 4
-4 5 -3 2 3 -8 13 20 40 30 30 3 -3 1 -6 -6 -6 -7 0 -10 -4 -6 -10 3 -5 13 -6
23 -3 14 5 13 2 -3 -11 -18 -16 -18 -17 -1 -12 14 5 17 2 12 -11 -4 -10 -4
-14 0 -10 4 4 13 -1 21 -11 8 -9 12 -11 8 -5 -4 9 -1 11 9 7 9 -3 13 -10 10
-15 -3 -5 0 -9 6 -9 7 0 9 -7 6 -16 -3 -8 -2 -12 3 -9 5 3 13 1 16 -5 5 -8 11
-7 21 1 11 9 14 8 14 -5 0 -9 5 -16 11 -16 5 0 8 4 5 8 -3 5 1 9 8 9 8 0 12
-5 10 -11 -2 -6 1 -18 6 -26 8 -12 12 -13 19 -2 7 11 9 10 14 -3 4 -9 3 -13
-3 -10 -6 3 -10 1 -10 -4 0 -6 7 -11 15 -11 8 0 15 5 15 11 0 5 5 7 11 4 6 -5
4 -12 -8 -21 -12 -9 -13 -13 -5 -14 7 0 10 -5 6 -12 -4 -7 -3 -8 5 -4 6 4 9
12 6 17 -4 5 -1 9 4 9 6 0 11 -6 11 -14 0 -8 7 -17 16 -20 26 -10 29 -7 8 9
-18 14 -17 14 8 4 22 -10 25 -15 16 -26 -6 -7 -8 -16 -4 -20 3 -3 6 -1 6 6 0
7 9 3 22 -9 12 -11 26 -20 31 -20 5 0 -1 9 -14 20 l-24 20 32 -17 c28 -15 29
-19 15 -30 -15 -11 -15 -12 5 -8 17 3 21 0 16 -13 -5 -13 -3 -15 7 -5 10 9 16
9 26 -2 17 -17 18 -29 2 -19 -8 4 -10 3 -5 -2 5 -5 14 -9 20 -9 7 -1 11 -7 9
-14 -1 -7 2 -10 7 -6 6 3 9 11 7 18 -1 7 -1 9 1 4 3 -4 8 -5 12 -3 4 3 13 0
21 -6 12 -8 12 -9 -2 -4 -10 3 -18 1 -18 -4 0 -9 14 -14 32 -11 4 0 5 -6 2
-14 -5 -11 -2 -13 10 -9 9 3 16 1 16 -6 0 -6 5 -8 10 -5 6 3 10 1 10 -4 0 -6
7 -11 16 -11 8 0 12 -5 9 -10 -4 -6 -11 -8 -16 -5 -15 10 -10 -2 8 -16 11 -10
14 -10 9 -1 -4 6 -2 12 3 12 6 0 11 -5 11 -10 0 -6 8 -10 17 -8 11 2 22 -6 28
-19 5 -13 13 -23 18 -23 4 0 5 6 2 13 -4 6 0 3 9 -7 8 -10 13 -23 10 -27 -3
-5 2 -6 10 -3 11 4 14 0 11 -16 -4 -18 -2 -20 11 -9 8 7 13 18 10 26 -4 8 -1
11 5 8 6 -4 8 -14 5 -22 -4 -10 -2 -13 7 -10 8 3 19 2 26 -3 10 -5 9 -9 -4
-13 -10 -5 -14 -3 -9 5 4 7 3 8 -5 4 -16 -10 -4 -26 14 -19 8 3 15 0 15 -7 0
-6 -5 -8 -12 -4 -8 5 -9 2 -4 -11 6 -18 6 -18 -12 -2 -21 19 -32 22 -32 6 0
-5 4 -8 9 -4 6 3 9 -3 8 -13 -1 -19 -32 -27 -42 -11 -4 5 2 6 11 2 11 -4 15
-3 10 5 -3 6 -15 10 -26 9 -18 -1 -18 -3 -5 -24 13 -20 13 -22 0 -17 -8 4 -15
10 -15 16 0 5 -5 6 -10 3 -6 -4 -8 -11 -5 -16 3 -5 0 -6 -8 -3 -8 3 -18 1 -21
-5 -4 -6 -13 -8 -21 -4 -8 3 -15 0 -15 -6 0 -8 -4 -8 -14 1 -8 7 -11 18 -8 23
3 6 -1 5 -9 -2 -8 -6 -18 -12 -24 -13 -24 -6 -34 -13 -29 -21 3 -5 -3 -6 -13
-2 -15 6 -16 4 -6 -8 10 -13 10 -16 -2 -16 -8 0 -12 4 -9 8 2 4 0 10 -5 13 -5
3 -11 0 -14 -8 -6 -14 -30 -16 -43 -4 -10 11 -42 -15 -37 -29 4 -11 -1 -11
-23 -3 -28 10 -28 9 -9 -6 17 -14 17 -16 2 -11 -11 4 -20 1 -23 -8 -5 -13 -8
-12 -21 1 -19 18 -31 10 -14 -10 9 -11 9 -16 0 -22 -8 -4 -9 -3 -5 4 4 7 3 12
-3 12 -5 0 -11 -3 -14 -7 -2 -5 -2 -2 -1 5 5 19 -7 14 -32 -14 -13 -14 -24
-22 -24 -19 0 3 -8 1 -18 -4 -11 -6 -24 -6 -34 0 -11 6 -19 6 -23 -1 -4 -6
-10 -8 -15 -5 -4 3 -14 -3 -21 -13 -12 -15 -12 -16 2 -4 14 10 18 10 23 -3 3
-9 2 -14 -3 -11 -5 3 -19 -2 -32 -12 -13 -10 -34 -17 -47 -16 -17 1 -20 -2
-12 -11 8 -10 8 -15 -1 -21 -8 -4 -9 -3 -5 4 4 7 1 12 -9 12 -10 0 -13 -5 -9
-12 5 -8 1 -8 -12 2 -10 8 -16 11 -12 6 3 -4 -1 -16 -10 -25 -13 -13 -21 -15
-31 -7 -12 9 -12 7 -1 -14 12 -23 12 -24 -3 -11 -14 11 -17 11 -18 0 -1 -8 -1
-18 0 -22 1 -5 -3 -6 -9 -2 -6 3 -8 11 -5 16 4 5 1 9 -4 9 -6 0 -11 -6 -11
-14 0 -21 -19 -30 -35 -16 -11 9 -12 7 -8 -8 2 -11 0 -23 -6 -26 -6 -4 -9 -1
-5 7 3 8 1 17 -3 20 -5 3 -10 -4 -10 -15 -1 -12 -8 -25 -15 -29 -7 -5 -13 -13
-13 -19 0 -16 -26 -29 -44 -22 -14 5 -14 4 -1 -13 14 -17 14 -18 -9 -6 -13 7
-21 9 -17 3 3 -5 -1 -15 -9 -22 -8 -7 -15 -19 -15 -27 0 -9 -6 -13 -14 -10
-10 4 -14 0 -11 -13 3 -13 -1 -17 -11 -13 -7 3 -11 10 -7 17 3 6 -3 2 -15 -8
-12 -11 -20 -22 -17 -25 4 -3 10 0 14 8 6 10 10 9 14 -4 5 -11 3 -14 -5 -9 -8
5 -9 2 -4 -11 5 -15 4 -16 -9 -5 -12 10 -15 10 -15 -4 0 -10 -5 -14 -10 -11
-10 6 -14 -6 -11 -35 2 -13 1 -13 -8 0 -9 13 -12 13 -23 1 -7 -8 -8 -11 -2 -8
7 4 14 1 17 -7 4 -10 0 -12 -14 -9 -23 6 -24 0 -3 -22 15 -15 14 -15 -9 -10
-23 6 -25 4 -20 -16 4 -15 3 -20 -6 -15 -8 6 -10 -2 -6 -26 4 -23 2 -29 -4
-18 -5 8 -7 18 -5 22 3 4 -3 5 -12 1 -13 -5 -15 -3 -9 8 5 8 4 11 0 6 -12 -10
-15 -38 -4 -31 5 3 9 1 9 -5 0 -5 -6 -12 -12 -14 -10 -4 -10 -6 0 -6 6 -1 12
-5 12 -11 0 -5 -8 -6 -18 -3 -15 6 -16 5 -2 -12 9 -11 10 -16 2 -11 -8 4 -12
1 -12 -9 0 -11 -5 -15 -14 -12 -18 7 -28 -17 -13 -32 14 -14 -4 -15 -21 -1 -8
7 -9 7 -3 -1 13 -16 1 -61 -15 -55 -8 3 -13 2 -13 -2 4 -22 -2 -42 -11 -37 -6
4 -7 -1 -3 -11 4 -12 3 -15 -5 -10 -19 11 -14 -5 5 -19 14 -10 15 -16 5 -27
-6 -8 -10 -18 -7 -22 3 -3 -1 -2 -7 4 -19 16 -32 12 -18 -5 7 -8 9 -15 4 -15
-5 0 -2 -5 6 -11 13 -9 13 -10 -2 -6 -9 3 -22 -2 -30 -10 -11 -15 -11 -16 5
-10 11 4 16 3 12 -3 -3 -6 -13 -10 -21 -10 -8 0 -14 -4 -14 -10 0 -5 8 -7 18
-4 15 5 15 4 -1 -9 -18 -15 -18 -15 0 -20 16 -4 16 -5 1 -6 -10 0 -18 -8 -18
-17 0 -8 -4 -13 -8 -10 -10 6 -10 -34 0 -50 4 -6 1 -11 -7 -11 -8 0 -15 4 -15
9 0 4 -5 8 -10 8 -6 0 -5 -8 2 -19 7 -11 17 -17 23 -14 5 3 0 -5 -12 -17 -20
-22 -21 -24 -5 -49 14 -22 14 -24 1 -14 -13 10 -16 10 -16 -2 0 -8 4 -15 8
-15 4 0 7 -9 6 -19 0 -11 -5 -17 -9 -15 -5 3 -5 10 -2 16 4 7 2 8 -4 4 -9 -5
-9 -13 -2 -27 6 -11 16 -16 22 -13 7 5 8 2 4 -5 -5 -7 -15 -10 -23 -6 -13 4
-14 3 -3 -10 10 -12 9 -15 -6 -16 -11 -1 -23 0 -29 1 -5 1 -6 -2 -2 -7 5 -4
16 -8 25 -8 10 0 15 -6 13 -15 -9 -38 -6 -76 6 -92 11 -12 12 -18 2 -24 -7 -4
-10 -3 -5 4 7 12 -27 35 -37 26 -10 -10 5 -34 17 -27 6 3 8 3 4 -2 -4 -4 3
-16 15 -27 l22 -19 -25 15 c-23 14 -27 14 -37 -3 -9 -14 -8 -18 3 -18 7 0 11
4 8 9 -9 15 3 8 17 -9 12 -14 12 -16 0 -8 -11 6 -13 4 -8 -8 3 -9 1 -19 -5
-23 -6 -4 -8 -3 -4 4 3 6 1 14 -5 18 -8 4 -9 3 -5 -4 4 -7 1 -12 -6 -12 -10 0
-10 -2 1 -9 8 -6 10 -14 5 -22 -12 -19 -14 -40 -4 -34 5 3 9 -3 9 -12 1 -10 2
-44 4 -76 1 -33 -1 -61 -6 -64 -4 -2 -7 -15 -7 -29 0 -13 -6 -24 -12 -24 -8 0
-6 -5 4 -10 12 -8 15 -17 9 -38 -8 -28 -4 -55 7 -48 4 2 7 -8 7 -24 1 -16 -4
-26 -10 -24 -6 3 -11 -4 -11 -15 0 -14 4 -17 12 -10 9 7 12 3 10 -15 0 -15 -5
-21 -11 -16 -7 6 -11 2 -11 -9 0 -13 7 -17 23 -15 13 1 21 -2 17 -7 -3 -5 -10
-7 -15 -4 -5 4 -9 1 -9 -5 0 -6 -6 -8 -12 -5 -7 4 -4 -1 6 -9 15 -12 16 -16 5
-16 -12 0 -12 -2 1 -10 8 -5 10 -10 4 -10 -19 0 -24 -39 -7 -49 11 -6 14 -14
8 -27 -12 -27 -14 -54 -3 -54 5 0 7 -4 4 -8 -3 -5 2 -9 10 -9 10 0 11 4 4 11
-13 13 -13 26 1 26 5 0 7 -5 3 -12 -5 -7 -2 -9 7 -6 10 4 14 -2 16 -20 0 -14
-2 -20 -5 -15 -4 6 -15 7 -27 2 -16 -6 -17 -8 -3 -8 25 -1 40 -50 26 -89 -5
-15 -4 -21 2 -17 14 9 12 -8 -3 -24 -10 -11 -8 -12 13 -6 22 7 23 7 7 -9 -16
-17 -13 -51 4 -40 16 10 9 -9 -8 -22 -17 -13 -17 -14 0 -8 19 7 24 -12 5 -19
-10 -4 -10 -6 0 -6 7 -1 17 9 22 21 6 17 9 18 9 6 1 -9 -6 -24 -15 -32 -8 -9
-12 -16 -7 -16 5 0 14 5 19 10 7 7 9 1 6 -21 -3 -22 -1 -30 7 -25 7 5 9 1 5
-8 -3 -9 -10 -13 -15 -10 -5 3 -6 -2 -3 -10 3 -9 10 -16 14 -16 4 0 11 -7 14
-16 5 -13 4 -14 -7 -6 -10 9 -14 8 -14 -3 0 -7 3 -14 6 -13 18 2 31 -3 31 -12
0 -5 -8 -7 -17 -4 -14 5 -15 4 -4 -4 8 -6 21 -8 29 -4 9 3 13 1 9 -5 -4 -6 -1
-14 5 -17 7 -3 2 -3 -12 1 -21 5 -23 4 -13 -9 7 -8 9 -19 5 -24 -4 -4 1 -3 10
4 14 12 16 10 11 -10 -4 -13 -11 -27 -17 -31 -7 -6 -4 -7 6 -3 10 3 18 1 18
-5 0 -6 4 -8 9 -4 5 3 13 0 17 -6 5 -8 3 -9 -6 -4 -8 5 -11 3 -8 -6 3 -8 11
-13 17 -11 7 1 9 -2 5 -9 -5 -9 -13 -5 -26 10 -13 17 -18 19 -18 8 0 -8 7 -17
15 -21 8 -3 12 -12 9 -19 -3 -8 2 -17 11 -21 9 -3 13 -10 10 -16 -3 -5 -3 -10
2 -10 4 0 14 -4 21 -8 16 -10 4 -45 -12 -35 -7 4 -7 2 1 -8 10 -12 10 -18 0
-29 -10 -12 -9 -12 4 -2 9 6 20 8 25 4 4 -4 2 2 -6 13 -14 19 -14 19 4 5 11
-8 21 -14 23 -12 3 2 8 0 11 -4 4 -4 1 -4 -6 0 -6 4 -12 3 -12 -3 0 -5 6 -12
13 -15 6 -3 1 -3 -13 0 -19 4 -22 3 -10 -5 8 -6 11 -11 6 -11 -5 0 -3 -6 3
-13 6 -8 8 -16 5 -20 -3 -3 6 -4 20 -3 31 4 42 -9 26 -28 -8 -11 -8 -15 2 -19
10 -4 10 -8 -2 -17 -13 -10 -13 -11 0 -7 8 2 14 11 14 20 -1 9 4 13 12 10 9
-3 10 -11 5 -27 -10 -25 20 -71 36 -55 11 11 11 -31 -1 -49 -7 -11 -4 -11 12
-1 13 8 18 19 14 33 -3 12 -2 18 1 15 4 -3 8 -14 10 -25 1 -10 7 -26 12 -34 8
-13 7 -13 -8 -1 -15 12 -17 12 -11 -3 3 -9 12 -16 20 -16 8 0 14 -6 14 -12 0
-9 4 -8 11 2 9 13 10 13 7 0 -1 -8 1 -27 5 -42 5 -20 12 -26 23 -21 14 5 15 3
4 -17 -8 -15 -8 -20 -1 -16 6 4 11 2 11 -3 0 -6 5 -11 11 -11 8 0 8 4 0 14 -9
11 -9 16 1 22 7 4 10 4 6 -1 -12 -13 11 -34 30 -28 14 4 15 3 2 -5 -8 -6 -18
-8 -24 -5 -5 4 -6 1 -2 -6 5 -7 14 -10 22 -7 7 3 16 0 20 -6 4 -6 3 -8 -4 -4
-6 3 -14 2 -17 -4 -4 -6 -3 -10 2 -9 18 3 36 -1 30 -7 -10 -10 36 -42 53 -37
10 3 8 -1 -5 -12 -20 -17 -20 -17 4 -10 18 6 22 4 15 -6 -6 -10 -3 -10 11 1
11 9 16 10 11 3 -9 -16 6 -17 22 -1 8 8 12 8 12 1 0 -6 -7 -14 -16 -17 -8 -3
-12 -11 -9 -17 5 -8 10 -8 18 0 6 6 16 11 21 11 6 0 4 -4 -4 -10 -21 -13 -5
-23 19 -11 14 8 22 8 27 -1 4 -6 3 -8 -3 -5 -6 4 -16 0 -23 -8 -9 -11 -7 -13
12 -11 13 1 30 6 38 11 13 8 13 6 1 -8 -7 -9 -17 -15 -21 -12 -5 3 -11 1 -15
-4 -6 -11 27 -7 48 5 7 5 6 0 -3 -12 -8 -10 -10 -16 -5 -11 4 4 16 -4 25 -19
10 -14 20 -25 24 -25 3 1 7 1 9 0 21 -6 38 -5 44 3 4 7 1 8 -8 3 -8 -5 -12 -6
-9 -2 12 13 23 11 26 -5 1 -10 -3 -18 -9 -18 -5 0 -7 -3 -3 -7 4 -4 21 -7 39
-8 23 0 31 -4 29 -15 -3 -11 1 -10 17 4 19 17 21 17 47 -7 15 -14 31 -24 36
-21 4 3 8 0 8 -5 0 -6 -5 -11 -12 -11 -6 0 -9 -2 -7 -5 3 -2 20 -1 37 4 17 5
34 6 37 1 2 -4 18 -6 33 -5 18 1 29 -3 29 -11 0 -7 -4 -11 -9 -8 -4 3 -8 0 -8
-5 0 -15 27 -14 33 2 3 6 6 2 6 -11 1 -13 5 -21 11 -17 5 3 6 13 3 23 -5 11 1
9 19 -8 14 -14 23 -28 21 -33 -2 -4 13 2 34 14 21 12 35 18 31 14 -4 -4 0 -14
8 -22 8 -8 11 -19 8 -25 -5 -7 -2 -8 5 -3 7 4 11 16 8 26 -3 11 -1 17 4 13 5
-3 9 -14 9 -25 0 -17 3 -18 20 -9 15 8 20 8 20 -1 0 -8 5 -7 17 2 11 10 14 10
9 2 -4 -8 -1 -13 9 -13 10 0 13 5 9 12 -6 10 -5 10 8 1 8 -7 19 -9 23 -5 5 4
5 2 2 -4 -4 -7 0 -15 9 -18 24 -9 31 -7 14 4 -11 7 -12 10 -2 10 16 0 43 -25
36 -33 -3 -3 1 -4 10 -3 8 1 19 6 23 11 4 4 3 5 -3 2 -7 -4 -17 0 -23 7 -10
11 -9 14 3 12 9 -1 19 -5 22 -9 12 -12 26 -8 18 5 -5 7 -3 8 5 4 9 -6 9 -12
-3 -25 -9 -10 -16 -21 -16 -26 0 -5 6 0 14 10 13 18 13 18 24 -1 6 -10 12 -14
12 -8 0 7 13 14 29 16 17 2 28 1 25 -4 -3 -5 6 -6 20 -2 16 4 32 1 41 -6 9 -7
19 -10 22 -6 4 4 1 11 -7 16 -8 6 -10 10 -5 10 6 0 17 -4 25 -10 9 -5 19 -5
27 2 9 7 14 6 18 -4 4 -10 21 -15 50 -16 25 0 43 3 40 7 -2 4 2 8 10 8 8 0 12
-4 9 -9 -8 -12 10 -10 24 4 9 9 13 8 17 -5 4 -8 15 -14 25 -12 12 2 17 -1 14
-10 -4 -11 63 -13 380 -13 280 0 386 4 386 12 0 8 2 8 8 0 8 -13 242 -14 242
-2 0 5 -3 8 -7 9 -5 0 -16 2 -26 4 -9 2 -15 0 -13 -4 3 -4 -18 -7 -45 -7 -27
0 -49 4 -49 9 0 5 -7 4 -15 -3 -12 -10 -18 -10 -26 -2 -5 7 -6 10 -3 7 4 -2
14 0 24 5 10 5 20 6 24 3 4 -4 14 -8 22 -9 11 -2 14 3 9 14 -5 14 -4 14 12 0
19 -17 47 -13 37 4 -5 7 -2 8 7 2 25 -15 41 -14 34 3 -3 9 6 4 21 -10 15 -15
30 -24 33 -21 3 4 0 9 -6 11 -7 3 -13 9 -13 14 0 4 7 5 17 2 12 -5 14 -3 9 8
-6 11 -4 10 6 -1 17 -19 46 -27 31 -8 -9 10 -5 13 20 13 18 -1 37 -4 44 -8 6
-4 17 -5 25 -2 28 11 77 12 81 2 2 -6 6 -3 10 7 5 11 3 15 -5 10 -6 -4 -8 -3
-5 3 3 5 16 9 29 7 13 -1 27 -3 31 -3 5 -1 5 -5 2 -11 -3 -6 1 -7 10 -4 13 5
12 9 -6 25 -25 22 -14 26 16 6 24 -16 51 -16 48 0 -1 6 4 14 13 17 8 3 12 2 9
-4 -3 -6 -2 -10 4 -10 5 0 13 5 16 10 4 7 14 6 28 -2 20 -10 21 -10 8 6 -12
14 -12 16 3 10 9 -3 16 -10 16 -15 0 -5 5 -9 10 -9 7 0 7 6 0 20 -6 11 -7 20
-1 20 5 0 12 -7 15 -17 6 -14 8 -14 22 3 9 10 13 14 10 8 -3 -7 2 -18 11 -25
14 -12 16 -12 8 1 -18 30 -13 48 14 45 14 -2 33 2 41 9 13 10 13 9 1 -7 -12
-16 -11 -17 10 -13 13 3 28 5 32 5 5 1 6 5 2 10 -3 5 0 13 6 17 7 4 9 3 6 -3
-4 -6 0 -14 9 -17 13 -5 15 -2 11 14 -3 11 -1 23 4 26 5 3 8 0 7 -8 -2 -8 4
-12 16 -10 11 2 15 -1 11 -7 -3 -6 -1 -11 4 -11 15 0 14 27 -1 33 -8 3 -6 6 5
6 9 1 17 -3 17 -7 0 -14 41 -7 50 8 7 12 11 11 27 -1 17 -13 17 -13 3 5 -13
17 -13 19 0 14 20 -7 52 10 44 23 -4 7 1 7 15 0 18 -10 21 -9 22 6 0 11 3 13
6 6 2 -7 9 -13 15 -13 6 0 8 6 5 13 -4 10 3 12 27 9 25 -4 29 -2 18 9 -6 7
-12 18 -12 24 0 5 5 3 10 -5 7 -11 12 -12 21 -3 9 9 17 9 33 1 19 -10 20 -10
7 6 -12 14 -12 16 3 10 9 -3 16 -11 16 -17 0 -6 3 -7 6 -4 4 4 1 15 -7 24 -7
10 -9 15 -4 10 4 -4 17 0 27 10 11 9 18 11 18 5 0 -7 -4 -12 -10 -12 -5 0 -10
-5 -10 -11 0 -5 4 -8 9 -5 5 4 12 0 15 -6 4 -9 5 -8 5 2 -2 29 1 40 12 40 5 0
7 -6 4 -12 -4 -7 0 -5 8 4 8 10 17 15 20 11 4 -3 7 -1 7 5 0 16 33 15 48 0 9
-9 12 -9 12 0 0 7 -5 12 -11 12 -5 0 -7 4 -4 10 4 6 -1 7 -12 4 -15 -5 -15 -4
-3 4 10 8 19 7 29 -1 12 -10 13 -9 1 13 -9 19 -10 22 0 13 7 -6 19 -9 28 -6
10 5 13 2 8 -6 -6 -9 -3 -9 13 1 12 7 21 19 21 27 0 11 3 11 15 1 13 -11 14
-10 10 1 -3 8 2 23 11 34 8 11 13 14 9 8 -7 -15 11 -18 20 -3 4 6 11 8 16 4 5
-3 8 0 7 7 -2 8 7 14 20 15 29 2 37 10 18 17 -8 3 -25 -3 -38 -13 -17 -12 -29
-16 -39 -9 -10 6 -10 9 -1 9 6 0 13 -1 15 -2 2 -2 20 10 40 25 21 15 42 25 47
22 6 -3 10 -1 10 5 0 6 5 8 11 5 13 -9 40 26 34 43 -3 7 -1 11 3 9 14 -9 52
12 46 26 -5 13 16 29 40 31 5 1 11 7 14 15 3 9 0 11 -9 6 -8 -5 -6 1 4 13 11
12 27 19 39 17 15 -3 17 -1 9 9 -12 14 -5 26 16 26 8 0 11 -5 7 -12 -4 -7 -3
-8 5 -4 6 4 9 11 6 15 -2 5 4 19 16 32 11 12 17 29 15 36 -3 7 0 15 6 19 7 4
8 3 4 -4 -4 -7 -3 -12 3 -12 6 0 8 -8 4 -17 -3 -10 -2 -15 2 -10 5 4 9 15 10
25 3 40 16 63 29 53 9 -8 13 -7 13 4 0 8 -4 12 -9 9 -4 -3 -8 -1 -8 5 0 6 -8
8 -17 5 -15 -5 -15 -4 -3 4 8 6 18 8 22 6 4 -3 15 -1 24 4 15 8 15 10 0 15
-11 5 -15 3 -10 -5 5 -7 3 -8 -5 -4 -12 8 -7 20 10 22 22 3 23 5 9 14 -13 8
-13 11 -1 22 11 11 13 11 6 -1 -6 -10 -4 -12 4 -7 9 6 8 13 -6 29 -11 13 -12
17 -3 11 15 -11 55 -16 45 -6 -3 3 2 16 10 29 11 16 12 22 3 21 -7 -2 -13 8
-13 24 -1 15 2 25 6 22 4 -2 9 3 12 10 3 8 1 17 -6 20 -7 2 -5 5 5 5 9 1 20
-3 23 -9 3 -5 1 -10 -5 -10 -6 0 -8 -5 -4 -11 10 -16 23 9 17 32 -4 15 -1 18
13 13 15 -5 16 -4 4 4 -8 6 -17 9 -21 6 -4 -2 -11 1 -15 7 -5 8 -3 9 6 4 10
-6 12 -4 6 10 -5 14 -4 16 7 6 21 -17 40 8 23 31 -7 10 -17 14 -21 10 -5 -4
-5 -1 -1 6 4 7 12 10 17 7 13 -9 11 9 -3 24 -10 11 -10 13 0 7 6 -4 12 -2 12
3 0 6 8 11 18 11 9 0 13 4 7 8 -5 4 -12 16 -13 27 -4 19 -4 19 15 -1 10 -11
14 -14 9 -7 -5 7 -6 27 -2 44 4 22 3 28 -7 23 -6 -5 -5 0 3 11 8 10 14 21 13
24 -2 3 6 6 17 6 10 0 23 5 27 9 4 5 3 7 -2 3 -21 -11 -38 9 -26 30 5 11 7 24
3 28 -4 4 1 5 10 3 9 -1 17 2 17 7 1 6 -3 10 -8 10 -5 0 -13 4 -18 9 -4 5 -3
6 4 2 7 -4 17 2 23 14 9 16 8 20 -5 20 -9 0 -13 5 -10 10 4 6 12 8 18 4 7 -3
3 2 -7 10 -19 15 -19 16 -2 16 16 0 16 2 6 15 -10 13 -11 18 -1 28 10 9 11 8
6 -8 -5 -15 -5 -17 3 -6 7 10 7 20 -2 33 -16 22 -9 67 10 75 8 3 14 9 14 14 0
11 -23 7 -32 -6 -5 -6 -8 -6 -8 2 0 6 4 14 10 18 5 3 8 11 6 18 -1 7 -1 9 1 4
3 -4 9 -4 15 -1 5 3 2 15 -9 27 -10 12 -14 19 -9 15 5 -4 15 -3 21 2 9 7 12 4
11 -13 -1 -12 -5 -27 -9 -33 -4 -7 -1 -14 6 -17 10 -4 13 64 12 336 0 316 -1
340 -17 343 -19 2 -24 -11 -9 -20 5 -4 12 0 15 6 3 7 4 0 2 -16 -3 -31 -19
-45 -31 -27 -4 7 0 8 11 4 14 -5 15 -3 5 16 -7 12 -15 20 -19 17 -4 -2 -8 4
-8 14 0 10 3 18 6 18 18 -2 30 3 30 13 0 7 -9 9 -22 6 -20 -5 -21 -4 -7 6 9 7
14 19 12 27 -3 10 1 9 11 -4 14 -18 15 -18 13 2 0 12 -3 19 -5 17 -10 -10 -41
16 -36 30 4 8 9 13 13 10 4 -2 8 2 8 9 0 8 -6 12 -14 9 -11 -4 -11 0 -3 22 13
33 13 45 0 25 -8 -13 -10 -13 -10 1 0 9 3 19 7 23 15 14 11 35 -5 28 -15 -5
-16 -4 -2 13 9 11 10 16 2 11 -7 -4 -12 -1 -12 9 0 9 4 14 8 11 4 -2 14 0 22
5 12 8 11 9 -5 7 -12 -2 -21 4 -23 16 -3 13 0 16 10 10 7 -4 5 2 -5 13 -9 11
-14 23 -10 27 5 4 4 7 -2 6 -22 -5 -27 1 -14 17 10 12 11 15 1 9 -18 -11 -45
13 -33 28 12 14 11 57 -1 50 -4 -3 -5 -12 -2 -22 5 -14 4 -15 -5 -2 -7 11 -6
21 4 37 21 31 19 43 -1 14 -16 -22 -17 -23 -28 -5 -15 27 -16 43 -4 51 7 3 8
1 4 -5 -5 -8 -2 -10 9 -6 9 4 15 7 13 8 -2 1 -12 8 -22 16 -12 9 -17 10 -12 3
5 -9 2 -11 -10 -6 -15 6 -15 7 1 15 15 9 13 13 -16 37 -25 21 -29 30 -19 36 9
6 11 4 5 -5 -6 -9 -4 -11 4 -6 7 5 10 11 7 14 -3 3 -1 11 6 19 6 8 7 13 2 12
-21 -4 -26 2 -13 19 11 14 11 15 0 5 -7 -6 -20 -9 -28 -6 -11 5 -12 8 -2 14 7
4 13 17 14 28 1 11 -2 18 -7 15 -5 -4 -7 -12 -4 -20 3 -8 1 -14 -4 -14 -12 0
-23 37 -15 50 4 6 3 10 -2 9 -28 -5 -36 2 -17 16 18 15 18 15 0 8 -14 -5 -17
-3 -11 7 6 10 4 11 -6 4 -20 -12 -40 -14 -33 -3 3 5 10 7 15 4 5 -4 9 1 9 11
0 12 -6 15 -21 11 -20 -5 -20 -5 -2 15 13 15 15 22 5 25 -6 3 -9 10 -6 15 4 6
2 8 -4 4 -6 -3 -18 1 -26 10 -11 11 -16 12 -16 3 0 -7 -6 -4 -14 7 -8 10 -11
23 -6 29 4 5 -2 19 -13 30 l-20 20 12 -25 c11 -22 10 -23 -2 -8 -11 14 -16 15
-27 5 -9 -9 -9 -6 1 10 11 19 11 25 0 35 -11 11 -12 10 -6 -1 5 -9 -1 -7 -17
5 -23 17 -24 20 -9 32 15 12 15 13 -1 8 -10 -3 -20 -1 -23 5 -4 5 -9 8 -13 6
-4 -2 -16 5 -26 16 -15 16 -16 19 -4 14 9 -3 18 0 21 6 3 7 -4 14 -14 15 -11
1 -28 3 -38 4 -11 1 -19 5 -18 8 1 3 -4 14 -10 25 -6 11 -9 27 -8 37 2 12 -4
15 -23 13 -24 -2 -24 -1 -8 10 15 11 12 13 -26 9 -40 -3 -41 -2 -19 10 16 9
20 16 12 20 -7 4 -19 2 -28 -6 -14 -11 -15 -10 -9 12 4 14 4 21 -1 15 -12 -15
-33 -17 -33 -2 0 8 -4 7 -10 -3 -5 -8 -10 -10 -10 -4 0 5 6 16 13 23 10 11 10
13 0 7 -7 -4 -13 -2 -13 4 0 6 -5 8 -10 5 -6 -4 -7 -11 -4 -17 4 -7 2 -8 -4
-4 -6 4 -9 13 -5 22 4 12 1 13 -21 4 -15 -5 -25 -6 -22 -1 3 5 -8 14 -24 21
-17 7 -30 19 -30 27 0 8 -5 11 -10 8 -6 -4 -8 -12 -4 -18 3 -7 -3 -3 -13 9
-10 11 -27 20 -36 18 -10 -1 -21 4 -24 12 -3 8 -10 14 -15 14 -6 0 -8 -7 -4
-15 8 -22 -2 -18 -15 6 -7 13 -7 19 -1 15 6 -3 13 -2 17 3 3 6 -6 8 -21 5 -17
-3 -23 -1 -19 7 6 8 2 8 -13 0 -23 -12 -38 0 -26 21 4 6 3 8 -4 4 -6 -3 -13
-2 -16 2 -6 11 -36 9 -55 -3 -11 -6 -13 -4 -8 9 5 14 3 15 -13 6 -13 -7 -21
-7 -26 2 -4 6 -3 8 4 4 6 -3 13 -2 16 3 7 11 -13 9 -32 -3 -7 -4 -16 -5 -20
-1 -3 3 -1 10 6 14 9 5 5 11 -12 19 -19 8 -27 8 -32 0 -4 -6 -3 -8 3 -5 11 7
28 -22 18 -31 -3 -3 -5 0 -5 6 0 7 -5 12 -11 12 -7 0 -18 8 -26 18 -8 9 -12
12 -9 5 4 -7 -1 -10 -11 -9 -10 2 -21 -1 -24 -6 -3 -5 -9 -3 -12 5 -4 11 0 15
14 12 10 -2 19 0 19 5 0 12 -43 8 -52 -5 -5 -6 -8 -6 -8 3 0 6 -7 12 -15 12
-8 0 -15 -6 -15 -12 0 -8 -5 -6 -11 4 -5 10 -16 15 -24 12 -8 -4 -15 -1 -15 4
0 6 8 9 18 7 10 -2 19 2 19 9 0 7 -11 12 -23 12 -12 0 -21 -3 -18 -7 2 -4 0
-10 -6 -14 -5 -3 -10 -1 -10 5 0 6 -5 8 -10 5 -6 -3 -10 -2 -10 4 0 6 -7 7
-17 4 -11 -4 -14 -3 -9 5 8 13 -19 6 -44 -12 -8 -6 -6 0 5 12 14 17 15 23 5
20 -8 -2 -20 -10 -27 -18 -10 -12 -11 -10 -7 15 3 20 1 25 -5 16 -7 -10 -13
-11 -31 -1 -15 8 -20 8 -16 1 4 -6 3 -11 -3 -11 -5 0 -11 5 -13 11 -5 14 -39
18 -60 8 -11 -6 -22 -4 -32 6 -13 13 -15 13 -19 -3 -3 -12 -5 -13 -6 -2 0 8
-10 21 -20 27 -15 10 -22 9 -31 -2 -9 -11 -9 -15 -1 -15 6 0 11 5 11 11 0 5 5
7 11 3 8 -5 6 -10 -5 -16 -20 -11 -37 -2 -29 17 4 13 -2 17 -23 14 -4 0 -11 5
-16 13 -8 10 -9 10 -5 -2 2 -8 10 -14 16 -12 6 1 11 -2 11 -8 0 -16 -27 -11
-34 6 -3 9 -12 14 -19 11 -7 -3 -13 3 -14 12 -1 12 12 21 44 30 28 9 40 17 32
21 -8 6 -4 9 12 12 16 2 24 9 23 21 -1 10 3 16 10 14 6 -3 10 -10 8 -16 -1 -8
2 -9 10 -5 7 5 19 9 26 10 8 2 17 6 20 10 4 4 -1 4 -10 1 -10 -4 -18 -2 -18 3
0 6 5 10 11 10 5 0 7 6 3 13 -5 7 0 6 11 -3 17 -14 18 -13 12 3 -3 9 -2 17 3
17 6 0 10 -6 10 -12 0 -9 3 -8 9 2 6 8 7 18 4 24 -3 5 -1 6 6 2 6 -4 9 -11 6
-16 -3 -4 4 -6 16 -3 16 5 18 8 7 15 -23 15 20 40 46 26 l21 -11 -20 24 c-11
13 -13 19 -6 12 7 -6 20 -9 29 -6 11 5 13 3 7 -8 -8 -12 -6 -12 8 0 9 7 17 20
17 27 0 8 4 14 10 14 5 0 7 -8 4 -17 -5 -17 -5 -17 6 0 6 9 16 15 21 11 5 -3
9 -2 8 3 -4 25 2 53 11 48 6 -4 7 -11 4 -17 -4 -7 -2 -8 4 -4 6 4 9 12 6 19
-3 9 5 13 26 11 35 -2 36 -1 13 17 -11 10 -14 10 -9 2 4 -7 2 -13 -3 -13 -16
0 -13 16 4 30 8 7 12 17 8 24 -3 6 3 3 14 -7 21 -18 35 -14 26 9 -3 8 -10 11
-16 7 -6 -3 -7 -1 -3 6 6 9 11 9 24 -1 14 -12 14 -10 3 10 -7 12 -17 20 -23
16 -7 -4 -8 -3 -4 4 4 6 14 8 23 5 12 -5 14 -3 8 8 -7 11 -5 11 10 -1 17 -14
18 -14 5 9 -11 22 -11 23 6 17 17 -5 17 -5 3 7 -13 10 -14 15 -4 24 15 14 8
53 -8 53 -7 0 -7 4 1 12 13 13 16 32 4 24 -4 -2 -8 6 -8 19 0 13 4 21 8 19 5
-3 6 -10 3 -15 -4 -5 -1 -9 4 -9 16 0 13 14 -9 40 -17 20 -19 40 -4 40 3 0 3
-4 -1 -9 -3 -5 -1 -12 4 -16 6 -3 8 4 6 16 -5 24 -15 38 -15 21 0 -7 -8 -12
-17 -12 -15 0 -16 2 -3 10 12 8 12 10 -5 10 -15 0 -17 3 -7 9 10 6 9 10 -7 14
-13 3 -19 11 -16 19 3 7 -1 22 -9 33 -12 17 -17 18 -28 7 -11 -11 -10 -12 3
-7 18 7 34 -20 18 -30 -5 -4 -8 -1 -7 6 2 7 -4 13 -12 14 -10 0 -14 8 -12 25
4 25 3 25 -13 5 -9 -11 -14 -14 -10 -7 3 6 1 12 -6 12 -8 0 -7 5 2 17 13 15
12 15 -7 5 -17 -9 -25 -8 -40 4 -18 14 -18 15 3 5 16 -8 24 -8 29 1 4 7 4 10
-1 6 -4 -4 -20 -1 -35 7 -15 8 -30 11 -34 8 -3 -4 -6 -2 -6 3 0 5 -8 10 -19
10 -13 0 -17 -5 -13 -15 5 -14 4 -14 -10 -1 -9 8 -14 18 -11 22 2 4 -3 5 -12
2 -13 -5 -13 -9 -3 -23 10 -13 10 -14 -2 -3 -18 15 -54 16 -44 0 4 -7 3 -8 -5
-4 -9 6 -9 11 0 22 6 8 9 17 5 21 -3 3 -6 1 -6 -5 0 -16 -17 -15 -23 1 -2 6
-2 -1 1 -18 4 -29 4 -29 -13 -10 -9 11 -14 15 -11 8 4 -7 -1 -9 -15 -6 -12 4
-25 0 -30 -8 -5 -8 -9 -9 -9 -3 0 7 -7 14 -15 18 -13 5 -14 2 -4 -17 11 -20
11 -21 -4 -8 -20 16 -23 1 -4 -18 10 -11 9 -12 -3 -5 -8 4 -26 7 -39 5 -16 -2
-21 1 -16 10 5 8 4 10 -3 5 -6 -4 -9 -13 -5 -21 6 -18 -8 -20 -26 -2 -10 10
-11 9 -6 -5 4 -10 12 -18 18 -18 6 0 7 -3 4 -6 -4 -4 -14 -1 -24 7 -15 12 -16
12 -10 -5 6 -16 5 -17 -8 -6 -9 7 -15 9 -14 4 4 -23 -3 -33 -20 -29 -14 2 -18
-1 -15 -10 3 -8 13 -11 22 -8 14 4 15 3 2 -6 -11 -7 -20 -5 -34 7 -20 17 -20
17 -2 -13 l19 -30 -23 20 c-13 11 -20 14 -16 8 7 -13 -4 -17 -34 -14 -9 1 -11
-1 -5 -6 18 -14 16 -35 -5 -40 -11 -3 -17 -9 -14 -14 3 -5 0 -9 -5 -9 -6 0
-11 5 -11 10 0 6 -5 10 -11 10 -6 0 -9 -9 -6 -19 3 -15 0 -19 -14 -16 -12 2
-16 -1 -13 -10 4 -9 -4 -15 -22 -17 -15 -2 -29 -10 -31 -18 -4 -13 -3 -13 6 0
9 13 11 13 11 -2 0 -21 -11 -23 -29 -5 -11 10 -12 9 -6 -2 6 -11 4 -13 -9 -8
-11 5 -15 3 -10 -5 5 -7 2 -9 -9 -5 -12 4 -14 2 -10 -10 4 -9 -1 -19 -11 -25
-9 -5 -14 -14 -10 -20 4 -5 -4 -4 -17 3 -23 12 -23 11 -9 -6 14 -17 14 -18
-10 -5 -22 12 -24 12 -12 -2 10 -13 9 -15 -10 -14 -13 0 -23 -5 -24 -11 -1 -7
-2 -17 -3 -23 0 -5 -6 -10 -11 -10 -6 0 -9 3 -8 8 2 4 0 8 -4 10 -18 5 -20 1
-7 -15 12 -15 12 -16 -5 -10 -17 7 -17 6 -5 -10 9 -11 10 -14 2 -9 -7 4 -13 2
-13 -3 0 -6 -8 -11 -17 -11 -15 0 -16 2 -3 10 8 5 12 11 9 15 -3 3 -14 -3 -23
-14 -13 -14 -14 -21 -5 -27 8 -5 10 -3 4 6 -5 9 -4 11 4 6 16 -11 3 -26 -16
-19 -10 4 -14 2 -9 -5 3 -6 2 -13 -3 -16 -5 -4 -13 -1 -17 5 -4 8 -3 9 4 5 8
-5 10 -1 5 10 -5 15 -7 15 -15 0 -5 -9 -14 -13 -20 -10 -6 4 -8 3 -5 -3 8 -13
-27 -46 -37 -36 -4 4 -4 0 0 -10 3 -9 11 -14 17 -10 6 3 7 1 3 -6 -6 -9 -11
-9 -24 1 -13 11 -15 10 -9 -4 4 -12 1 -18 -9 -18 -9 0 -12 -5 -8 -12 4 -7 3
-8 -5 -4 -6 4 -8 13 -4 19 10 16 13 41 5 32 -4 -4 -7 -12 -7 -18 -1 -7 -7 -11
-13 -9 -10 2 -10 -3 -1 -20 9 -19 9 -21 -2 -10 -16 15 -29 16 -29 1 0 -5 5 -7
10 -4 6 3 10 1 10 -4 0 -6 -5 -11 -11 -11 -5 0 -7 -6 -4 -12 4 -7 -1 -4 -9 6
-14 17 -16 17 -16 3 0 -9 -9 -21 -20 -27 -11 -6 -20 -18 -20 -27 0 -14 -2 -14
-15 3 -14 18 -14 18 -8 -3 3 -14 1 -24 -6 -24 -6 -1 -19 -2 -28 -3 -10 -1 -24
-5 -31 -9 -8 -6 -12 -4 -10 5 2 7 -3 12 -10 10 -8 -1 -11 2 -7 8 3 6 11 7 17
4 7 -5 8 -2 4 5 -5 7 -14 10 -21 7 -20 -7 -26 5 -12 22 8 11 8 14 0 9 -14 -9
-45 21 -37 35 4 6 2 8 -3 5 -6 -4 -13 0 -17 8 -3 8 -12 12 -21 9 -9 -4 -15 -1
-15 9 0 20 -28 42 -54 42 -32 1 -44 12 -40 41 1 14 0 23 -3 20 -3 -3 -14 -1
-24 5 -11 5 -18 6 -17 2 2 -4 -2 -8 -7 -8 -5 0 -9 2 -8 5 1 3 5 14 9 25 l7 20
-16 -20 c-17 -20 -17 -20 -23 3 -6 21 -7 21 -20 5 -13 -17 -14 -17 -7 2 3 11
11 24 17 28 7 6 4 7 -6 3 -21 -6 -48 2 -48 15 0 4 7 6 15 3 8 -4 15 -2 15 4 0
11 -25 10 -36 -1 -4 -4 -12 -7 -18 -7 -6 0 -4 4 3 9 12 8 10 12 -12 22 -14 6
-24 15 -22 19 3 5 -2 11 -11 14 -14 5 -14 9 -3 24 13 15 12 16 -3 3 -21 -16
-48 -8 -48 14 0 8 -5 15 -11 15 -5 0 -8 -4 -5 -9 4 -5 -4 -7 -15 -4 -20 6 -20
7 7 20 16 7 22 11 13 9 -18 -5 -51 28 -41 40 4 3 -3 2 -15 -5 -29 -15 -38 -14
-24 2 8 11 6 18 -9 32 -11 10 -20 15 -20 10 0 -4 7 -13 16 -19 13 -10 13 -12
-5 -12 -11 0 -19 3 -19 6 2 18 -4 21 -19 9 -14 -11 -14 -9 1 9 15 17 16 21 5
17 -9 -3 -22 1 -29 9 -7 9 -16 14 -20 11 -10 -6 -8 15 3 32 6 9 3 11 -8 7 -10
-4 -15 -2 -13 7 3 15 -21 19 -39 7 -6 -5 -14 -5 -18 2 -3 5 1 13 9 16 16 6 12
24 -5 24 -6 0 -7 -4 -4 -10 3 -5 2 -10 -4 -10 -12 0 -24 37 -16 50 3 5 4 10 0
10 -3 0 -10 -10 -15 -22 -7 -19 -9 -20 -11 -5 -3 33 -4 35 -13 44 -5 4 -7 3
-3 -2 3 -6 -4 -17 -16 -25 -20 -12 -21 -12 -8 4 8 9 11 20 7 23 -4 4 -12 1
-17 -7 -9 -13 -10 -13 -6 0 2 8 -5 23 -16 33 -23 19 -37 22 -37 6 0 -5 -5 -7
-11 -4 -6 5 -4 11 7 19 9 7 14 18 10 24 -9 15 -26 16 -26 1 0 -5 5 -7 10 -4 6
3 10 1 10 -4 0 -28 -43 12 -45 42 0 4 -3 7 -7 7 -5 0 -10 0 -13 0 -3 0 2 -12
11 -27 l16 -28 -21 25 c-11 14 -19 31 -16 37 5 15 -24 32 -45 26 -11 -3 -10 0
3 10 9 8 17 18 17 23 0 4 -5 3 -12 -4 -15 -15 -31 -16 -22 0 5 7 3 8 -7 3 -7
-5 -25 -10 -39 -11 -21 -3 -22 -1 -7 7 9 6 22 7 27 4 6 -3 10 -4 10 -1 0 3
-10 10 -21 17 -15 8 -19 8 -15 0 4 -6 2 -11 -3 -11 -6 0 -11 5 -11 12 0 9 -3
9 -12 0 -17 -17 -33 -15 -18 3 7 9 10 19 6 23 -11 10 -246 11 -240 0z m199 -7
c3 -5 2 -12 -3 -15 -5 -3 -9 1 -9 9 0 17 3 19 12 6z m185 -86 c0 -2 -9 -3 -19
-2 -11 0 -18 5 -15 9 4 6 34 0 34 -7z m2220 -145 c0 -5 -5 -10 -11 -10 -5 0
-7 5 -4 10 3 6 8 10 11 10 2 0 4 -4 4 -10z m-2043 -29 c0 -11 -5 -18 -9 -15
-4 3 -5 11 -1 19 7 21 12 19 10 -4z m110 -75 c1 -12 -1 -15 -4 -8 -3 6 -8 10
-12 8 -4 -3 -8 1 -8 8 0 22 23 14 24 -8z m167 -145 c-4 -3 -9 0 -11 7 -3 6
-10 9 -15 6 -7 -4 -8 -2 -4 5 6 9 11 9 22 0 8 -6 12 -15 8 -18z m-894 -1 c0
-5 -2 -10 -4 -10 -3 0 -8 5 -11 10 -3 6 -1 10 4 10 6 0 11 -4 11 -10z m45 -39
c-3 -5 -1 -12 5 -16 5 -3 10 -12 10 -18 0 -7 -7 -3 -15 7 -13 17 -12 36 1 36
3 0 3 -4 -1 -9z m1950 -21 c3 -5 1 -10 -4 -10 -6 0 -11 5 -11 10 0 6 2 10 4
10 3 0 8 -4 11 -10z m880 -9 c3 -5 2 -12 -3 -15 -5 -3 -9 1 -9 9 0 17 3 19 12
6z m-1890 -11 c-3 -5 -11 -10 -16 -10 -6 0 -7 5 -4 10 3 6 11 10 16 10 6 0 7
-4 4 -10z m910 -58 c-3 -3 -11 0 -18 7 -9 10 -8 11 6 5 10 -3 15 -9 12 -12z
m-701 -90 c3 -5 -1 -9 -9 -9 -8 0 -12 4 -9 9 3 4 7 8 9 8 2 0 6 -4 9 -8z m523
-33 c-9 -6 -14 -15 -11 -21 5 -7 2 -8 -5 -4 -9 6 -8 13 5 27 9 11 20 17 23 13
3 -3 -2 -10 -12 -15z m-428 -58 c-1 -12 -2 -11 -6 3 -4 15 -7 16 -14 5 -6 -10
-8 -8 -6 8 1 17 4 19 14 11 7 -6 12 -18 12 -27z m1435 8 c-3 -5 -10 -7 -15 -3
-5 3 -7 10 -3 15 3 5 10 7 15 3 5 -3 7 -10 3 -15z m-1400 -34 c-4 -8 -11 -15
-16 -15 -6 0 -5 6 2 15 7 8 14 15 16 15 2 0 1 -7 -2 -15z m21 -15 c3 -5 1 -10
-4 -10 -6 0 -11 5 -11 10 0 6 2 10 4 10 3 0 8 -4 11 -10z m-848 -277 c0 -7 -3
-11 -5 -8 -3 3 -11 0 -18 -6 -9 -8 -12 -6 -9 8 4 22 2 20 18 20 8 0 14 -6 14
-14z m-150 -43 c1 -11 -2 -22 -6 -24 -6 -4 -7 26 -2 42 3 8 7 -1 8 -18z m2808
-90 c4 -6 1 -9 -7 -8 -7 2 -12 -3 -10 -10 1 -8 -2 -11 -8 -7 -8 5 -7 11 1 21
14 17 16 17 24 4z m-3061 -8 c3 -5 -1 -9 -9 -9 -8 0 -12 4 -9 9 3 4 7 8 9 8 2
0 6 -4 9 -8z m1466 -297 c6 4 9 14 6 22 -4 8 -1 11 5 8 6 -4 8 -13 5 -20 -5
-15 20 -29 35 -19 6 3 18 2 27 -2 30 -12 50 -11 45 3 -3 7 -9 10 -14 7 -5 -3
-9 0 -9 5 0 14 17 14 25 1 3 -5 12 -7 20 -3 8 3 15 0 15 -7 0 -6 -4 -9 -8 -6
-5 3 -9 -1 -9 -8 0 -9 9 -8 36 5 33 16 37 16 54 1 17 -15 17 -15 11 4 -6 15
-5 17 7 8 8 -7 46 -11 91 -10 42 1 74 -2 72 -6 -3 -5 -11 -5 -17 -2 -7 4 -9 3
-4 -1 9 -11 48 -14 41 -4 -2 4 5 7 16 6 12 -1 19 -6 16 -14 -3 -7 -1 -13 4
-13 6 0 10 7 10 16 0 8 5 12 10 9 6 -4 7 -11 4 -17 -5 -7 -2 -8 6 -3 10 6 12
3 7 -11 -6 -16 -5 -17 5 -4 7 8 22 17 33 18 16 3 18 1 8 -9 -7 -7 -13 -17 -13
-22 0 -4 11 4 23 19 18 21 26 24 32 14 5 -8 4 -11 -2 -7 -11 7 -28 -22 -18
-31 3 -3 5 -1 5 5 0 6 13 13 29 15 17 2 28 1 26 -3 -3 -4 2 -12 10 -19 13 -11
14 -10 9 4 -3 9 -1 16 5 16 6 0 11 -5 11 -12 0 -6 7 -3 15 8 13 16 14 16 9 2
-3 -10 -1 -18 5 -18 6 0 11 6 11 13 0 9 2 9 8 0 11 -18 68 -22 96 -8 28 15 45
3 27 -19 -9 -10 -7 -17 6 -27 16 -13 17 -12 4 4 -15 20 -2 23 18 5 11 -10 13
-10 7 0 -4 6 -2 12 3 12 6 0 11 -4 11 -10 0 -5 9 -10 21 -10 11 0 17 5 14 10
-4 6 -11 8 -16 5 -5 -4 -9 -1 -9 4 0 17 17 13 32 -6 13 -18 44 -23 65 -10 6 4
14 3 17 -2 4 -5 21 -8 39 -6 23 3 28 2 17 -5 -10 -6 -11 -10 -2 -10 6 0 12 -6
12 -14 0 -15 24 -28 34 -18 10 9 46 10 46 0 0 -4 4 -8 10 -8 5 0 7 8 4 18 -5
15 -4 15 6 -1 10 -15 14 -16 28 -5 13 11 14 11 7 -1 -6 -11 -4 -13 8 -8 11 4
17 1 17 -7 0 -16 27 -29 41 -20 5 3 9 1 9 -3 0 -12 63 -11 71 1 4 5 10 -1 14
-13 6 -21 25 -29 25 -11 0 6 9 1 20 -10 25 -25 26 -37 3 -19 -16 13 -17 12 -4
-4 10 -12 17 -15 25 -7 15 15 29 12 23 -4 -4 -11 -1 -13 11 -9 9 4 21 11 25
17 5 7 6 4 3 -7 -9 -29 1 -36 39 -27 32 7 34 6 23 -8 -11 -13 -10 -15 4 -9 19
7 34 -8 18 -18 -5 -3 -10 -12 -10 -18 0 -8 4 -7 9 2 8 12 14 12 33 3 l23 -12
-25 5 c-14 3 -19 2 -12 -1 6 -3 10 -9 7 -14 -3 -4 1 -8 8 -7 6 0 21 -1 32 -2
19 -1 18 -3 -5 -22 -22 -18 -22 -19 -3 -10 18 9 24 8 33 -9 6 -11 16 -19 22
-17 6 1 13 -4 16 -12 3 -9 0 -11 -8 -6 -9 6 -11 4 -5 -4 5 -9 10 -10 18 -2 13
13 -10 44 -26 34 -6 -3 -7 -1 -3 5 4 6 13 9 21 6 16 -7 29 -39 21 -53 -3 -5 2
-7 12 -4 23 6 55 -29 55 -62 0 -14 3 -25 8 -25 5 0 9 5 9 11 0 5 5 7 11 3 7
-4 7 -9 2 -13 -5 -3 -13 -15 -17 -25 -7 -20 -7 -20 16 -1 13 11 17 13 11 5
-10 -10 -10 -17 -1 -28 9 -10 9 -19 -2 -35 -12 -20 -12 -21 3 -8 11 9 17 10
17 2 0 -6 6 -11 14 -11 19 0 27 -25 13 -40 -7 -7 -7 -10 -1 -7 6 3 16 -3 24
-13 8 -10 17 -17 22 -14 4 3 5 -1 2 -9 -3 -8 0 -18 5 -22 6 -3 9 -11 5 -16 -3
-5 0 -18 7 -27 8 -9 1 -6 -15 8 l-28 25 18 -32 c10 -17 23 -29 29 -25 5 3 5
-1 -2 -9 -18 -22 -10 -45 27 -84 31 -32 32 -41 5 -35 -5 1 -2 -7 7 -17 8 -10
14 -28 12 -41 -3 -16 0 -21 8 -16 7 4 8 3 4 -5 -4 -6 -11 -9 -16 -6 -5 3 -12
0 -16 -6 -4 -8 -3 -9 4 -5 14 8 37 -32 33 -58 -1 -11 2 -16 8 -12 6 4 11 3 11
-3 0 -5 -6 -12 -12 -15 -9 -3 -7 -10 7 -21 14 -12 16 -16 5 -15 -27 4 -40 0
-40 -11 0 -8 4 -8 14 0 11 9 16 9 22 -1 13 -21 12 -48 -2 -48 -7 0 -16 -4 -19
-10 -3 -5 0 -7 8 -4 10 3 14 -4 14 -30 0 -22 -4 -33 -11 -29 -6 4 -3 -3 7 -14
20 -23 23 -37 5 -27 -7 4 -5 -2 5 -13 17 -19 14 -59 -3 -48 -5 3 -12 0 -16 -6
-4 -8 -3 -9 4 -5 7 4 12 2 12 -4 0 -6 6 -8 13 -5 6 4 3 -1 -7 -9 -11 -9 -14
-16 -8 -16 7 0 12 -5 12 -11 0 -5 -6 -7 -12 -3 -7 4 -5 -2 5 -13 17 -19 14
-59 -3 -48 -5 3 -12 0 -16 -6 -4 -8 -3 -9 4 -5 7 4 12 2 12 -4 0 -6 6 -8 13
-5 6 4 3 -1 -7 -9 -11 -9 -14 -16 -8 -16 7 0 12 -5 12 -11 0 -5 -6 -7 -12 -3
-7 4 -4 -3 6 -15 17 -19 17 -21 3 -15 -14 5 -16 2 -8 -17 6 -18 4 -27 -8 -37
-14 -11 -13 -12 9 -8 14 3 19 3 13 0 -7 -3 -13 -15 -13 -26 0 -15 -5 -19 -20
-15 -11 3 -18 1 -14 -4 3 -5 12 -9 20 -9 18 0 18 -9 -3 -32 -13 -15 -14 -21
-4 -31 10 -9 11 -9 6 3 -3 9 4 21 17 29 22 13 23 13 5 -6 -9 -11 -14 -23 -11
-26 4 -4 -1 -9 -10 -13 -9 -3 -13 -10 -10 -15 3 -6 1 -16 -5 -23 -6 -7 -8 -22
-4 -32 6 -17 5 -18 -13 -4 -18 14 -18 14 -4 -4 12 -15 12 -20 2 -24 -10 -3 -8
-8 5 -19 10 -8 13 -12 7 -9 -7 3 -15 -1 -18 -10 -4 -12 -2 -15 9 -10 8 3 15 1
15 -4 0 -6 -8 -10 -17 -10 -15 0 -16 -2 -3 -10 10 -6 11 -10 3 -10 -7 0 -13
-5 -13 -11 0 -5 6 -7 13 -4 6 4 4 0 -7 -9 -10 -8 -15 -19 -12 -25 4 -5 -4 -17
-16 -25 -12 -9 -17 -16 -10 -16 7 0 10 -5 7 -10 -4 -6 -12 -7 -18 -3 -7 3 -3
-4 8 -17 11 -13 14 -20 8 -16 -12 6 -15 0 -12 -20 0 -4 -5 -11 -13 -16 -9 -6
-5 -8 12 -4 14 3 19 3 12 0 -6 -3 -9 -11 -6 -16 4 -6 2 -8 -4 -4 -6 3 -13 2
-17 -4 -3 -5 -1 -10 4 -10 6 0 11 -4 11 -10 0 -5 -8 -7 -17 -3 -14 5 -16 3 -6
-7 9 -10 8 -18 -7 -37 -11 -14 -17 -34 -14 -48 3 -19 0 -24 -13 -22 -10 1 -18
-2 -18 -8 0 -5 7 -8 15 -6 8 1 12 -1 7 -5 -4 -4 -17 -8 -30 -9 -15 -1 -22 -8
-22 -21 1 -10 -4 -23 -10 -27 -5 -5 1 -5 15 -1 23 6 23 6 7 -10 -9 -10 -22
-14 -28 -10 -8 4 -9 3 -5 -4 4 -7 2 -12 -4 -12 -6 0 -8 -5 -5 -10 5 -8 12 -7
23 2 15 11 6 -3 -27 -42 -2 -3 -1 3 2 13 4 9 2 17 -2 17 -9 0 -22 -23 -27 -48
-5 -27 -15 -26 -10 1 2 14 1 29 -3 31 -4 3 -8 0 -9 -7 -2 -26 -9 -47 -17 -54
-4 -4 -5 -2 -1 5 4 6 2 12 -3 12 -15 0 -14 -27 2 -34 6 -3 3 -4 -8 -3 -11 1
-23 6 -26 10 -3 5 -9 1 -12 -8 -4 -9 -3 -13 3 -10 6 3 10 1 10 -5 0 -6 6 -8
13 -4 6 4 9 3 5 -1 -10 -11 -60 -16 -54 -6 3 4 -2 8 -11 8 -12 0 -11 -5 7 -19
25 -20 19 -24 -13 -6 -20 10 -21 10 -8 -5 16 -20 1 -23 -18 -4 -11 10 -11 8
-1 -12 8 -15 8 -21 1 -17 -6 4 -11 2 -11 -4 0 -6 -5 -8 -10 -5 -6 4 -7 12 -4
18 5 9 3 9 -6 0 -11 -10 -11 -15 1 -29 8 -10 9 -15 2 -11 -6 4 -15 3 -18 -3
-5 -8 -11 -7 -21 1 -17 14 -19 -2 -1 -21 10 -12 9 -12 -5 -1 -16 12 -22 9 -19
-11 0 -4 -8 -5 -18 -3 -11 2 -22 -3 -25 -10 -2 -7 -13 -12 -23 -10 -10 1 -24
-3 -32 -9 -11 -8 -13 -8 -7 2 4 7 2 12 -8 12 -8 0 -18 -5 -22 -12 -5 -7 -2 -9
7 -4 8 4 6 1 -4 -7 -14 -11 -15 -16 -5 -20 7 -3 3 -4 -9 -4 -15 1 -19 5 -13
11 13 13 13 26 -1 26 -5 0 -8 -3 -6 -7 3 -5 -7 -17 -22 -28 -14 -10 -21 -12
-14 -4 10 12 8 15 -6 15 -12 0 -17 -6 -14 -14 6 -15 -17 -13 -30 3 -5 6 -7 3
-4 -7 3 -9 -1 -19 -9 -22 -8 -3 -13 -2 -10 2 3 5 -1 9 -9 9 -11 0 -12 -5 -3
-20 7 -14 7 -18 -1 -12 -7 4 -20 3 -29 -1 -25 -10 -62 -12 -56 -2 3 4 10 5 16
2 7 -5 8 -2 4 5 -6 9 -12 9 -25 -3 -10 -9 -21 -13 -26 -9 -4 5 -5 -1 -1 -11 5
-16 4 -17 -9 -6 -12 10 -13 16 -3 29 7 9 -2 3 -20 -13 -18 -17 -32 -26 -32
-22 0 4 -15 -1 -32 -12 -33 -20 -64 -19 -52 0 4 7 2 8 -4 4 -7 -4 -12 -14 -12
-22 0 -8 -5 -14 -11 -14 -6 0 -8 9 -4 23 4 15 4 18 -3 8 -6 -8 -15 -10 -23 -5
-12 6 -11 5 0 -9 12 -15 12 -17 -4 -11 -12 5 -16 4 -11 -4 3 -6 1 -14 -5 -18
-8 -4 -9 -3 -5 4 7 12 -5 16 -33 13 -8 -2 -10 2 -5 10 4 8 3 10 -4 5 -6 -4 -9
-13 -5 -21 3 -8 1 -15 -3 -16 -5 0 -25 -2 -44 -3 -19 -1 -42 -6 -50 -11 -13
-7 -13 -6 -2 7 12 14 10 16 -10 11 -13 -3 -29 -11 -37 -17 -11 -8 -13 -8 -7 1
5 9 0 13 -13 13 -12 0 -21 -5 -21 -11 0 -5 5 -7 12 -3 7 4 8 3 4 -5 -6 -9 -11
-9 -21 -1 -10 8 -16 7 -25 -7 -11 -17 -11 -17 -6 0 5 14 1 16 -22 11 -21 -4
-24 -3 -12 5 8 6 10 11 4 11 -18 0 -24 -13 -12 -27 9 -11 7 -12 -7 -7 -11 4
-16 3 -12 -2 3 -5 -7 -9 -21 -8 -15 1 -26 6 -25 11 1 5 -7 14 -18 21 -11 7
-19 8 -19 2 0 -5 5 -10 10 -10 14 0 13 -27 -2 -36 -8 -5 -9 -2 -5 10 5 12 3
16 -5 13 -7 -2 -12 -10 -10 -17 2 -11 0 -11 -12 -1 -10 8 -16 9 -21 1 -3 -6
-11 -8 -16 -4 -5 3 -7 9 -5 13 3 4 -2 8 -10 8 -8 0 -13 -6 -10 -12 2 -6 -2
-12 -10 -12 -7 0 -11 3 -9 7 2 3 -6 12 -18 20 -20 12 -21 12 -9 -3 10 -12 10
-17 1 -23 -7 -4 -9 -3 -6 3 4 6 0 14 -9 17 -8 3 -13 2 -10 -3 3 -5 -1 -11 -9
-15 -8 -3 -15 0 -15 6 0 6 -6 5 -17 -3 -14 -12 -16 -12 -11 2 4 9 1 16 -8 16
-7 0 -11 -4 -8 -9 3 -4 0 -9 -5 -9 -6 -1 -17 -2 -23 -3 -7 -1 -25 1 -40 5 -15
4 -30 3 -33 -2 -4 -5 -11 -9 -16 -9 -6 0 -8 4 -5 8 2 4 -7 8 -21 8 -22 0 -23
-2 -8 -12 14 -10 13 -12 -8 -10 -17 1 -23 6 -19 15 3 9 1 12 -5 8 -6 -4 -14
-1 -17 5 -3 7 -3 2 1 -12 5 -22 4 -23 -11 -11 -14 12 -16 12 -11 -5 5 -13 2
-12 -7 4 -8 12 -17 20 -21 16 -4 -4 -1 -14 6 -23 10 -14 10 -14 -5 -3 -9 7
-18 9 -20 5 -3 -4 -3 -2 -2 5 3 8 -4 10 -21 6 -16 -4 -25 -2 -25 6 0 6 -5 8
-10 5 -6 -4 -7 -12 -3 -18 3 -7 -2 -5 -13 4 -20 17 -50 19 -74 4 -9 -5 -15 -4
-18 3 -2 7 -8 12 -14 12 -6 0 -8 -7 -5 -14 4 -10 1 -13 -9 -9 -7 3 -14 10 -14
16 0 6 -6 3 -13 -8 -11 -14 -16 -15 -22 -5 -5 9 -4 11 3 6 7 -4 12 -2 12 3 0
12 -27 10 -47 -2 -8 -5 -13 -4 -13 2 0 6 -5 11 -11 11 -5 0 -8 -4 -4 -9 3 -5
1 -13 -5 -16 -6 -4 -10 -3 -9 2 3 20 -2 25 -16 13 -9 -7 -15 -8 -15 -2 0 15
-28 23 -36 10 -4 -7 -3 -8 4 -4 7 4 12 2 12 -3 0 -13 -13 -14 -25 -2 -6 5 -26
11 -45 13 -21 2 -34 8 -32 16 1 6 -2 12 -8 12 -5 0 -10 -4 -10 -9 0 -5 -11 -8
-25 -7 -13 2 -22 -1 -19 -5 3 -5 15 -7 27 -5 13 2 31 -2 42 -10 10 -8 14 -14
8 -14 -7 0 -15 5 -19 11 -4 7 -10 7 -16 1 -19 -19 -63 10 -60 39 1 3 -6 6 -13
6 -10 0 -12 -4 -5 -12 12 -15 2 -47 -12 -39 -7 4 -7 9 0 13 7 4 5 13 -5 26
-12 16 -14 16 -10 3 7 -19 -8 -34 -18 -18 -4 6 -11 8 -16 4 -5 -3 -16 0 -24 6
-8 7 -15 9 -15 4 0 -4 -7 1 -16 12 -8 10 -13 13 -9 7 8 -17 -7 -17 -24 -1 -11
11 -13 10 -8 -4 4 -12 2 -15 -8 -11 -8 3 -12 9 -9 14 3 5 -5 5 -19 0 -13 -5
-30 -5 -37 -1 -8 5 -18 6 -24 3 -5 -3 -6 -1 -2 5 4 7 2 12 -4 12 -6 0 -9 4 -6
8 3 5 -1 9 -9 9 -8 0 -12 -4 -9 -9 3 -4 0 -8 -6 -8 -6 0 -8 -5 -4 -12 4 -7 3
-8 -4 -4 -6 4 -9 13 -6 20 3 7 -2 16 -10 19 -9 4 -13 1 -10 -6 3 -8 -5 -13
-18 -14 -18 -2 -20 0 -8 7 10 7 11 10 3 10 -7 0 -14 8 -14 18 -1 16 -2 16 -6
0 -5 -21 -53 -21 -53 -1 0 17 -39 11 -51 -8 -8 -12 -10 -12 -8 1 4 35 -2 48
-18 45 -10 -2 -18 -4 -18 -5 0 -1 -8 -3 -18 -5 -9 -2 -15 1 -12 5 3 5 -4 11
-15 15 -11 3 -25 15 -31 26 -5 11 -14 17 -19 14 -4 -3 -10 -2 -13 2 -2 5 -2 3
-1 -4 2 -7 -3 -10 -13 -6 -12 5 -14 3 -8 -7 5 -9 4 -11 -4 -6 -6 4 -9 12 -6
17 10 15 -38 28 -55 15 -13 -9 -13 -9 -2 6 8 9 19 16 25 14 7 -1 9 -1 4 1 -4
3 -4 10 0 16 5 9 3 9 -8 1 -8 -5 -23 -10 -34 -10 -15 1 -19 7 -17 26 4 24 3
25 -12 5 -15 -19 -16 -19 -9 -1 5 16 3 18 -11 13 -10 -4 -15 -3 -11 3 3 6 1
10 -5 10 -6 0 -8 5 -5 10 3 6 2 10 -4 10 -5 0 -12 -6 -14 -12 -3 -7 -6 -4 -6
8 -1 11 2 24 7 30 4 5 3 6 -3 2 -18 -15 -27 -8 -14 10 7 9 10 14 5 10 -11 -9
-48 10 -41 21 3 5 -2 12 -11 15 -9 4 -12 11 -8 18 5 7 -4 5 -19 -5 -20 -13
-25 -13 -21 -3 3 8 1 17 -4 20 -6 3 -8 15 -5 25 3 13 -2 23 -17 31 -13 7 -19
17 -16 27 5 11 2 13 -9 9 -9 -3 -14 -2 -10 3 3 5 2 11 -2 14 -5 2 -2 2 5 1 6
-2 12 1 12 6 0 6 -5 10 -11 10 -5 0 -7 6 -3 13 6 9 4 9 -7 1 -9 -8 -21 -8 -34
-3 -18 9 -18 9 2 5 13 -2 23 0 23 5 0 5 -4 9 -10 9 -5 0 -10 4 -10 10 0 5 8 7
18 4 14 -5 14 -4 2 4 -10 8 -18 8 -27 0 -9 -7 -13 -7 -13 0 0 6 4 14 10 17 13
8 13 25 -1 25 -5 0 -7 -6 -3 -12 5 -9 2 -9 -9 1 -22 18 -22 32 1 25 14 -5 15
-4 2 5 -8 6 -11 11 -6 11 5 0 0 10 -11 22 -37 42 -43 61 -25 81 13 15 14 18 2
15 -11 -2 -14 5 -13 27 l2 30 -14 -25 c-13 -23 -14 -23 -12 -3 2 11 9 29 17
40 8 10 1 7 -14 -7 -21 -18 -27 -20 -23 -8 3 9 1 18 -6 21 -6 2 -3 6 7 10 11
5 15 3 10 -5 -4 -7 -3 -8 5 -4 6 4 9 12 5 17 -3 5 -9 7 -14 4 -5 -3 -12 -1
-15 5 -4 6 -3 10 2 9 22 -4 25 3 7 17 -15 13 -16 15 -2 10 12 -3 15 -1 11 9
-3 8 -9 13 -13 10 -5 -3 -12 0 -16 6 -4 7 -3 9 3 6 6 -4 13 2 16 13 3 12 -1
24 -11 29 -13 7 -14 12 -3 24 10 12 10 21 1 38 -10 17 -9 24 1 31 11 7 9 8 -5
4 -14 -5 -17 -2 -12 9 3 9 2 14 -2 11 -4 -2 -14 -1 -22 5 -12 7 -11 9 6 9 12
0 28 8 35 18 12 15 12 16 -2 4 -17 -12 -49 -7 -49 8 0 5 5 12 12 16 7 5 8 3 3
-6 -5 -8 -4 -11 3 -6 6 4 9 13 6 21 -4 8 -10 12 -15 9 -5 -3 -9 0 -9 5 0 6 5
11 10 11 6 0 10 5 10 11 0 5 -5 7 -12 3 -7 -5 -8 -3 -2 7 13 21 14 39 2 39 -7
0 -6 5 1 14 8 10 9 16 1 21 -5 3 -10 11 -10 16 0 6 4 8 8 5 5 -3 9 1 9 9 0 18
-9 19 -27 3 -8 -7 -7 -4 3 8 9 11 14 23 11 27 -11 11 -10 65 1 61 6 -3 11 6
12 18 0 13 -1 17 -4 11 -3 -7 -9 -13 -14 -13 -4 0 -5 7 -2 17 5 12 3 14 -7 8
-9 -6 -11 -4 -6 4 5 7 14 10 20 8 7 -3 13 1 13 9 0 8 -7 13 -15 12 -8 -2 -17
3 -20 11 -3 10 0 12 11 8 9 -3 19 -2 22 4 4 5 -4 13 -17 18 -21 9 -21 10 -3
11 16 0 17 2 5 10 -13 8 -13 11 -1 22 12 11 13 10 6 -2 -5 -8 -4 -12 1 -7 12
11 12 107 0 107 -5 0 -6 3 -3 7 4 3 2 12 -4 19 -8 10 -6 12 8 9 12 -2 20 2 20
10 0 8 -7 11 -16 7 -14 -5 -14 -3 -2 11 7 9 17 15 21 12 10 -6 7 21 -3 31 -3
4 -3 12 1 18 15 24 12 59 -5 73 -10 8 -12 12 -6 8 7 -3 14 -3 14 2 8 53 7 63
-4 57 -7 -4 -8 -3 -4 1 4 5 14 10 22 11 11 2 12 -2 5 -15 -6 -13 -5 -18 4 -18
7 0 11 10 10 21 -1 12 -3 25 -3 29 -1 5 -7 5 -13 1 -10 -6 -10 -5 -1 8 7 8 9
19 5 23 -4 5 -1 5 6 1 14 -8 16 3 3 24 -6 8 -7 19 -3 25 3 5 7 16 8 24 3 15
45 47 57 43 5 -1 5 3 0 10 -4 7 -8 20 -8 28 0 8 -4 20 -8 27 -4 6 -2 15 4 19
8 5 9 3 4 -5 -6 -10 -3 -11 14 -2 11 7 21 14 21 17 0 3 -4 3 -9 0 -5 -4 -17
-3 -26 0 -16 6 -16 8 -1 16 9 5 21 6 28 2 6 -4 8 -3 4 4 -3 6 -2 14 4 17 8 5
8 11 0 20 -8 10 -8 15 0 20 6 4 8 16 5 28 -2 12 -2 16 1 9 4 -9 9 -10 19 -2 7
6 18 9 25 8 7 -2 14 5 15 15 2 9 -1 15 -6 11 -5 -3 -6 -10 -3 -16 4 -7 2 -8
-4 -4 -17 11 4 47 23 40 18 -7 19 5 4 26 -9 13 -10 12 -5 -2 3 -12 1 -15 -10
-11 -22 8 2 32 29 27 12 -2 16 -2 10 2 -7 3 -13 13 -12 22 0 11 2 12 6 5 7
-18 20 -16 27 3 3 8 2 13 -3 10 -5 -3 -12 1 -15 10 -3 8 -2 12 4 9 6 -3 11 0
11 7 1 7 2 19 3 27 0 8 7 15 14 17 7 1 8 0 2 -3 -14 -7 -13 -24 2 -20 15 2 37
28 38 42 0 6 -4 4 -9 -3 -7 -11 -9 -10 -14 3 -4 9 -3 14 2 11 5 -3 14 1 21 9
10 12 10 15 0 15 -8 0 -11 3 -7 6 12 12 28 -7 18 -20 -8 -9 -7 -13 4 -13 8 0
12 4 9 9 -3 4 3 8 13 9 10 0 13 3 6 6 -7 2 -13 9 -13 14 0 6 5 7 10 4 6 -3 10
3 10 14 0 11 4 23 10 26 5 3 7 0 4 -8 -3 -8 2 -14 11 -14 11 0 14 6 9 21 -6
21 -6 21 10 1 15 -20 15 -20 11 4 -4 23 -4 23 17 5 21 -19 21 -19 8 6 -13 24
-12 24 5 10 17 -14 17 -13 10 10 -7 22 -6 23 9 11 14 -12 16 -12 10 4 -6 15
-5 16 17 5 23 -13 23 -12 9 5 -14 17 -14 17 6 7 17 -9 24 -9 34 2 9 11 7 17
-7 25 -23 13 -12 14 21 1 22 -8 28 -6 41 18 9 15 14 19 11 10 -3 -10 -1 -18 4
-18 6 0 10 9 10 20 0 11 3 20 8 21 4 0 18 2 32 5 19 3 21 2 10 -6 -21 -13 29
-7 55 7 16 9 17 14 6 26 -18 23 12 16 40 -9 l22 -19 -19 30 -18 30 24 -20 c13
-11 20 -14 15 -6 -6 11 -4 13 8 8 9 -3 18 0 21 9 3 9 10 13 15 9 6 -3 14 2 19
11 8 15 10 15 15 0 4 -10 3 -15 -1 -12 -5 3 -9 -1 -9 -9 0 -13 3 -13 17 0 9 8
20 12 24 8 4 -4 4 0 0 10 -3 9 -11 14 -18 10 -6 -3 -7 -2 -3 2 10 12 38 15 31
4 -3 -5 -1 -9 5 -9 6 0 8 -8 5 -17 -5 -15 -4 -15 4 -3 6 8 8 18 5 24 -4 5 1 7
10 3 9 -3 19 -1 23 5 4 6 3 8 -4 4 -6 -3 -13 -2 -16 3 -8 12 13 8 42 -8 13 -7
26 -10 30 -7 3 3 0 6 -7 6 -7 0 -9 5 -6 10 5 8 11 7 21 -1 11 -9 14 -9 14 1 0
8 10 11 30 8 27 -4 30 -2 24 16 -4 17 -3 18 5 6 9 -13 12 -12 24 4 9 13 16 15
21 8 3 -6 -3 -16 -14 -22 -11 -6 -20 -16 -20 -23 0 -8 3 -7 9 2 8 13 12 13 28
0 17 -13 17 -13 3 5 -14 18 -13 19 1 14 13 -5 16 -2 12 12 -3 10 0 21 6 24 6
4 9 1 5 -7 -7 -19 12 -32 22 -16 5 8 3 9 -6 4 -9 -5 -11 -4 -6 4 6 9 11 9 24
-1 12 -10 14 -10 8 0 -4 7 -1 12 8 12 9 0 16 -5 16 -11 0 -6 7 -3 16 6 12 12
19 13 30 4 11 -9 14 -9 14 0 0 8 6 9 18 4 9 -5 26 -8 37 -8 11 0 24 -4 28 -10
5 -5 6 -1 3 10 -5 16 -1 21 14 21 20 0 27 -10 13 -19 -10 -5 5 -2 36 8 14 4
21 3 18 -2 -4 -5 0 -10 8 -10 8 0 12 4 9 8 -2 4 6 11 18 15 15 4 25 2 32 -9 9
-14 11 -14 23 1 13 15 13 14 7 -8 -6 -23 -6 -23 10 -7 10 9 22 14 28 11 7 -5
8 -2 3 6 -6 10 -4 12 8 7 9 -3 19 -2 22 3 3 4 -1 10 -7 13 -7 3 -1 4 15 3 15
-2 30 -6 34 -9 14 -14 25 -6 12 9 -8 10 -1 8 24 -6 20 -12 41 -19 47 -15z
m-166 10 c-4 -8 -8 -15 -10 -15 -2 0 -4 7 -4 15 0 8 4 15 10 15 5 0 7 -7 4
-15z m252 3 c4 -7 3 -8 -4 -4 -6 4 -22 2 -34 -4 -22 -11 -22 -10 -4 4 24 19
32 20 42 4z m-1961 -8 c4 -6 1 -9 -7 -8 -7 2 -12 -3 -10 -10 1 -8 -2 -11 -8
-7 -8 5 -7 11 1 21 14 17 16 17 24 4z m2415 -28 c0 -5 -7 -9 -15 -9 -8 0 -12
4 -9 9 3 4 9 8 15 8 5 0 9 -4 9 -8z m255 -41 c-9 -8 -36 -10 -30 -2 2 4 11 8
20 8 8 0 13 -3 10 -6z m95 -15 c0 -2 -7 -6 -15 -10 -8 -3 -15 -1 -15 4 0 6 7
10 15 10 8 0 15 -2 15 -4z m-1937 -77 c-8 -8 -13 -7 -18 2 -6 8 -4 10 5 4 10
-6 12 -4 6 11 -6 15 -5 17 5 7 9 -10 10 -16 2 -24z m2165 10 c-2 -6 -8 -10
-13 -10 -5 0 -11 4 -13 10 -2 6 4 11 13 11 9 0 15 -5 13 -11z m162 -40 c0 -14
-17 -10 -23 5 -4 10 -1 13 9 9 7 -3 14 -9 14 -14z m-2505 -41 c5 4 5 1 1 -6
-6 -10 -11 -10 -22 -1 -8 6 -14 14 -14 16 0 3 6 0 13 -6 8 -6 18 -7 22 -3z
m3575 -33 c7 -9 8 -15 2 -15 -5 0 -12 7 -16 15 -3 8 -4 15 -2 15 2 0 9 -7 16
-15z m-824 -23 c-17 -16 -18 -16 -5 5 7 12 15 20 18 17 3 -2 -3 -12 -13 -22z
m891 -137 c0 -8 -4 -12 -9 -9 -5 3 -6 10 -3 15 9 13 12 11 12 -6z m48 -45 c3
-5 -1 -10 -10 -10 -9 0 -13 5 -10 10 3 6 8 10 10 10 2 0 7 -4 10 -10z m-4675
-34 c0 -3 -4 -8 -10 -11 -5 -3 -10 -1 -10 4 0 6 5 11 10 11 6 0 10 -2 10 -4z
m4096 -134 c1 -7 0 -8 -3 -2 -2 5 -9 8 -14 4 -5 -3 -9 0 -9 6 0 15 23 7 26 -8z
m-3526 -66 c-7 -7 -13 -7 -20 0 -6 6 -3 10 10 10 13 0 16 -4 10 -10z m-645 -6
c3 -5 1 -10 -4 -10 -6 0 -11 5 -11 10 0 6 2 10 4 10 3 0 8 -4 11 -10z m-15
-35 c0 -8 -2 -15 -4 -15 -2 0 -6 7 -10 15 -3 8 -1 15 4 15 6 0 10 -7 10 -15z
m4889 -48 c6 -8 8 -17 4 -20 -7 -8 -33 11 -33 24 0 13 16 11 29 -4z m-4919
-37 c0 -5 -5 -10 -11 -10 -5 0 -7 5 -4 10 3 6 8 10 11 10 2 0 4 -4 4 -10z
m660 6 c0 -3 -4 -8 -10 -11 -5 -3 -10 -1 -10 4 0 6 5 11 10 11 6 0 10 -2 10
-4z m4265 -16 c3 -6 -1 -7 -9 -4 -18 7 -21 14 -7 14 6 0 13 -4 16 -10z m-620
-20 c-2 -11 1 -22 6 -25 5 -4 7 -11 3 -16 -7 -13 -33 7 -30 24 2 14 15 37 21
37 2 0 2 -9 0 -20z m-3735 -190 c0 -5 -2 -10 -4 -10 -3 0 -8 5 -11 10 -3 6 -1
10 4 10 6 0 11 -4 11 -10z m3794 -16 c3 -8 2 -12 -4 -9 -6 3 -10 10 -10 16 0
14 7 11 14 -7z m586 -4 c0 -5 -5 -10 -11 -10 -5 0 -7 5 -4 10 3 6 8 10 11 10
2 0 4 -4 4 -10z m-4373 -58 c-2 -14 -10 -28 -18 -30 -11 -3 -11 -1 1 7 13 10
13 11 0 11 -13 0 -13 2 -1 9 12 8 13 12 1 25 -11 14 -10 16 4 10 11 -4 15 -15
13 -32z m-5 -57 c0 -5 -5 -10 -11 -11 -8 -2 -7 -1 0 3 8 4 7 8 -2 15 -11 8
-11 9 -1 6 8 -2 14 -8 14 -13z m4418 -45 c0 -11 -2 -20 -4 -20 -2 0 -6 9 -9
20 -3 11 -1 20 4 20 5 0 9 -9 9 -20z m-5024 -12 c4 -7 3 -8 -4 -4 -7 4 -12 2
-12 -3 0 -6 -5 -11 -11 -11 -8 0 -8 5 1 15 15 18 17 18 26 3z m5004 -8 c0 -5
-2 -10 -4 -10 -3 0 -8 5 -11 10 -3 6 -1 10 4 10 6 0 11 -4 11 -10z m-580 -20
c0 -5 -5 -10 -11 -10 -5 0 -7 5 -4 10 3 6 8 10 11 10 2 0 4 -4 4 -10z m-4425
-9 c3 -5 2 -12 -3 -15 -5 -3 -9 1 -9 9 0 17 3 19 12 6z m592 -66 c0 -8 -4 -12
-9 -9 -5 3 -6 10 -3 15 9 13 12 11 12 -6z m4417 -43 c3 -5 -1 -9 -9 -9 -8 0
-12 4 -9 9 3 4 7 8 9 8 2 0 6 -4 9 -8z m-5033 -95 c-10 -9 -11 -8 -5 6 3 10 9
15 12 12 3 -3 0 -11 -7 -18z m5033 15 c3 -5 -1 -9 -9 -9 -8 0 -12 4 -9 9 3 4
7 8 9 8 2 0 6 -4 9 -8z m0 -80 c3 -5 -1 -9 -9 -9 -8 0 -12 4 -9 9 3 4 7 8 9 8
2 0 6 -4 9 -8z m0 -80 c3 -5 -1 -9 -9 -9 -8 0 -12 4 -9 9 3 4 7 8 9 8 2 0 6
-4 9 -8z m10 -77 c-7 -18 -20 -19 -30 -3 -4 6 -3 8 4 4 6 -3 13 -2 17 4 9 15
15 12 9 -5z m-5018 -87 c4 -7 3 -8 -4 -4 -7 4 -12 2 -12 -3 0 -6 -4 -11 -10
-11 -5 0 -7 7 -4 15 7 18 20 19 30 3z m4 -72 c0 -2 -7 -6 -15 -10 -8 -3 -15
-1 -15 4 0 6 7 10 15 10 8 0 15 -2 15 -4z m623 -68 c-2 -5 -10 -8 -16 -7 -7 0
-6 3 2 6 10 4 8 9 -10 19 -13 7 -18 13 -11 14 9 0 11 8 7 23 -3 12 3 7 14 -13
10 -19 17 -38 14 -42z m3758 19 l-23 -22 17 28 c10 15 20 25 23 22 3 -3 -5
-16 -17 -28z m-31 -162 c-7 -8 -17 -15 -22 -15 -11 0 14 29 26 30 5 0 3 -7 -4
-15z m-10 -29 c0 -2 -7 -7 -16 -10 -8 -3 -12 -2 -9 4 6 10 25 14 25 6z m-3617
-195 c-4 -3 -12 -10 -16 -16 -5 -6 -7 -4 -4 5 2 8 -3 24 -12 34 -16 19 -15 19
12 1 15 -10 24 -20 20 -24z m4167 29 c0 -5 -5 -10 -11 -10 -5 0 -7 5 -4 10 3
6 8 10 11 10 2 0 4 -4 4 -10z m-671 -113 c8 -10 7 -14 -2 -14 -8 0 -14 6 -14
14 0 7 1 13 2 13 2 0 8 -6 14 -13z m671 9 c0 -3 -4 -8 -10 -11 -5 -3 -10 -1
-10 4 0 6 5 11 10 11 6 0 10 -2 10 -4z m-4715 -136 c3 -5 2 -10 -4 -10 -5 0
-13 5 -16 10 -3 6 -2 10 4 10 5 0 13 -4 16 -10z m4635 -40 c-12 -23 -16 -24
-26 -8 -4 7 -3 8 4 4 7 -4 12 -1 12 8 0 9 5 16 10 16 7 0 7 -6 0 -20z m-4570
-121 c0 -5 5 -7 12 -3 7 4 8 3 4 -5 -6 -9 -11 -9 -22 0 -17 14 -18 19 -4 19 6
0 10 -5 10 -11z m91 -108 c-6 -10 -7 -22 -3 -27 4 -5 -1 -2 -10 5 -18 14 -25
27 -9 17 5 -3 11 1 15 9 3 8 8 15 11 15 3 0 1 -8 -4 -19z m4349 15 c0 -3 -4
-8 -10 -11 -5 -3 -10 -1 -10 4 0 6 5 11 10 11 6 0 10 -2 10 -4z m-3503 -38
c-3 -8 -6 -5 -6 6 -1 11 2 17 5 13 3 -3 4 -12 1 -19z m2487 -6 c3 -5 -1 -9 -9
-9 -8 0 -12 4 -9 9 3 4 7 8 9 8 2 0 6 -4 9 -8z m-201 -46 c4 -11 1 -13 -10 -9
-9 4 -14 2 -10 -3 3 -6 -5 -10 -18 -10 -13 0 -21 4 -19 8 3 5 9 6 14 3 4 -3
13 2 20 10 15 18 17 18 23 1z m-1956 -68 c-3 -8 -6 -5 -6 6 -1 11 2 17 5 13 3
-3 4 -12 1 -19z m1724 -1 c-10 -9 -11 -8 -5 6 3 10 9 15 12 12 3 -3 0 -11 -7
-18z m-1006 -56 c3 -5 2 -12 -3 -15 -5 -3 -9 1 -9 9 0 17 3 19 12 6z m35 -6
c0 -8 -2 -15 -4 -15 -2 0 -6 7 -10 15 -3 8 -1 15 4 15 6 0 10 -7 10 -15z
m2205 -6 c-4 -5 -12 -9 -18 -8 -9 0 -8 2 1 6 6 2 9 10 6 15 -4 7 -2 8 5 4 6
-4 9 -12 6 -17z m-3885 -101 c0 -6 -6 -5 -15 2 -8 7 -15 14 -15 16 0 2 7 1 15
-2 8 -4 15 -11 15 -16z m3676 -43 c-1 -8 -5 -17 -8 -21 -5 -4 -4 16 1 34 3 9
9 -1 7 -13z m-3442 -121 c4 -11 0 -11 -19 2 -30 20 -31 24 -6 17 11 -3 22 -11
25 -19z m66 -34 c0 -5 -5 -10 -11 -10 -5 0 -7 5 -4 10 3 6 8 10 11 10 2 0 4
-4 4 -10z m2887 -72 c-3 -8 -6 -5 -6 6 -1 11 2 17 5 13 3 -3 4 -12 1 -19z
m-2536 -51 c-10 -9 -11 -8 -5 6 3 10 9 15 12 12 3 -3 0 -11 -7 -18z m2118 -40
c8 -10 7 -14 -2 -14 -8 0 -14 6 -14 14 0 7 1 13 2 13 2 0 8 -6 14 -13z m-129
-17 c0 -5 -5 -10 -11 -10 -5 0 -7 5 -4 10 3 6 8 10 11 10 2 0 4 -4 4 -10z
m-60 -14 c0 -2 -7 -7 -16 -10 -8 -3 -12 -2 -9 4 6 10 25 14 25 6z m-401 -50
c-3 -3 -11 5 -18 17 -13 21 -12 21 5 5 10 -10 16 -20 13 -22z"/>
<path d="M2340 3550 c-16 -11 -15 -11 18 -15 18 -2 20 0 11 11 -13 16 -10 16
-29 4z"/>
<path d="M2390 3546 c0 -2 7 -7 16 -10 8 -3 12 -2 9 4 -6 10 -25 14 -25 6z"/>
<path d="M2196 3525 c4 -8 8 -15 10 -15 2 0 4 7 4 15 0 8 -4 15 -10 15 -5 0
-7 -7 -4 -15z"/>
<path d="M2656 3531 c-3 -5 1 -11 9 -14 9 -4 12 -1 8 9 -6 16 -10 17 -17 5z"/>
<path d="M2315 3520 c3 -5 8 -10 11 -10 2 0 4 5 4 10 0 6 -5 10 -11 10 -5 0
-7 -4 -4 -10z"/>
<path d="M3264 3459 c-19 -22 -19 -22 4 -8 12 8 22 17 22 21 0 12 -6 9 -26
-13z"/>
<path d="M3476 3412 c-3 -5 1 -9 9 -9 8 0 12 4 9 9 -3 4 -7 8 -9 8 -2 0 -6 -4
-9 -8z"/>
<path d="M1327 3373 c-4 -3 -7 -11 -7 -17 0 -6 5 -5 12 2 6 6 9 14 7 17 -3 3
-9 2 -12 -2z"/>
<path d="M3785 3319 c-3 -4 2 -6 10 -5 21 3 28 13 10 13 -9 0 -18 -4 -20 -8z"/>
<path d="M3815 3300 c-2 -3 5 -6 15 -7 11 -1 22 2 24 5 3 4 -4 8 -15 8 -11 0
-22 -3 -24 -6z"/>
<path d="M950 3079 c0 -5 5 -7 10 -4 6 3 10 8 10 11 0 2 -4 4 -10 4 -5 0 -10
-5 -10 -11z"/>
<path d="M4210 3061 c0 -6 5 -11 10 -11 6 0 10 -9 10 -20 0 -11 4 -20 9 -20
13 0 2 37 -15 51 -10 8 -14 8 -14 0z"/>
<path d="M836 2895 c-9 -14 -13 -25 -8 -25 5 0 14 11 20 25 6 14 10 25 8 25
-2 0 -11 -11 -20 -25z"/>
<path d="M2020 2855 c-1 -11 -4 -15 -7 -7 -2 6 -9 12 -14 12 -6 0 -7 -5 -3
-12 5 -7 3 -8 -7 -3 -20 13 -49 13 -49 1 0 -6 -5 -4 -10 4 -9 13 -10 13 -10 0
0 -13 -1 -13 -10 0 -7 11 -10 11 -10 2 0 -9 -5 -10 -18 -3 -23 12 -47 -2 -37
-20 4 -8 -2 -4 -14 9 -17 17 -26 20 -35 13 -7 -6 -17 -7 -21 -3 -5 4 -5 1 -1
-6 6 -9 11 -10 21 -2 9 8 14 6 19 -5 3 -9 2 -14 -3 -10 -14 8 -42 -6 -34 -18
3 -6 1 -7 -6 -3 -6 4 -9 12 -6 17 4 5 2 9 -3 9 -5 0 -12 -10 -15 -21 -4 -14
-11 -20 -21 -16 -9 4 -15 3 -15 -1 3 -19 -2 -23 -15 -13 -11 9 -16 9 -22 0 -4
-7 -3 -9 4 -5 6 3 13 2 17 -4 4 -6 11 -7 17 -4 5 4 3 -4 -5 -17 -8 -13 -14
-34 -12 -47 1 -13 -3 -26 -8 -29 -6 -3 -7 -1 -4 4 4 6 1 13 -6 16 -9 3 -12
-18 -11 -87 1 -50 -3 -94 -8 -97 -5 -3 -2 -9 7 -12 10 -5 14 -3 9 5 -4 7 -3 8
5 4 9 -6 9 -11 1 -21 -7 -8 -9 -24 -5 -36 5 -14 4 -19 -4 -15 -7 5 -8 1 -4 -9
5 -14 8 -14 15 -3 7 9 8 7 5 -8 -5 -24 10 -57 23 -49 5 3 12 1 15 -5 4 -6 1
-9 -6 -8 -6 2 -14 -3 -16 -10 -3 -8 2 -10 14 -6 14 5 15 4 3 -4 -8 -6 -18 -8
-22 -6 -15 10 -8 -9 10 -23 9 -8 12 -12 5 -9 -7 4 -10 -1 -9 -11 2 -10 -2 -22
-8 -26 -7 -6 -5 -7 5 -4 9 3 22 1 30 -4 11 -7 10 -9 -4 -9 -17 0 -17 -1 -3
-16 21 -20 21 -30 0 -13 -13 11 -13 7 2 -24 10 -21 21 -32 24 -26 5 7 9 6 13
-4 8 -21 -20 -15 -39 9 -14 18 -14 18 -3 -6 14 -30 30 -41 46 -35 7 2 10 -2 6
-11 -4 -11 -8 -12 -19 -3 -12 10 -13 9 -8 -5 3 -9 11 -16 18 -17 6 0 2 -5 -9
-10 -17 -8 -16 -9 8 -5 20 2 25 0 18 -7 -17 -17 -14 -50 4 -43 12 4 12 0 -2
-21 -10 -15 -12 -24 -5 -20 6 5 12 4 12 -2 0 -6 -6 -11 -12 -12 -7 0 -3 -5 10
-11 12 -6 22 -15 22 -20 0 -5 5 -6 12 -2 7 4 8 3 4 -5 -6 -8 -12 -9 -20 -2 -9
8 -13 7 -13 -4 0 -8 4 -12 9 -9 4 3 9 -3 10 -13 3 -45 17 -75 30 -67 6 4 3 -5
-7 -19 -16 -26 -7 -32 22 -14 10 6 12 -2 9 -33 -2 -22 0 -40 6 -40 5 0 7 4 4
8 -2 4 0 14 5 22 7 11 8 8 5 -12 -3 -16 1 -32 10 -39 8 -6 14 -18 14 -25 0 -8
5 -14 11 -14 5 0 7 -5 4 -10 -4 -6 -11 -8 -16 -5 -15 10 -10 -2 8 -16 11 -10
14 -10 9 -1 -4 6 -2 12 3 12 17 0 13 -18 -6 -30 -16 -9 -15 -10 4 -5 17 5 21
3 18 -7 -3 -8 3 -25 14 -37 12 -13 18 -28 15 -32 -3 -5 0 -9 5 -9 6 0 11 -7
11 -16 0 -9 -5 -12 -12 -8 -7 5 -8 3 -4 -5 5 -7 14 -10 22 -7 8 3 14 1 14 -5
0 -6 5 -7 12 -3 7 4 8 3 4 -5 -4 -6 -12 -9 -17 -6 -5 3 -6 -1 -3 -10 5 -13 9
-13 22 -3 13 11 14 10 4 -8 -11 -21 -1 -51 14 -41 5 3 18 -1 29 -9 10 -8 14
-14 9 -14 -6 0 -11 -7 -11 -14 0 -12 5 -13 21 -4 17 8 19 8 9 -2 -6 -7 -9 -19
-6 -26 8 -20 23 -17 17 4 -5 14 -4 14 6 -2 10 -15 9 -20 -1 -27 -10 -6 -8 -9
9 -9 15 0 21 4 16 12 -4 7 -3 8 4 4 6 -4 9 -13 5 -21 -3 -10 1 -15 12 -15 9 0
13 5 10 10 -3 6 -1 10 5 10 7 0 10 -6 7 -14 -3 -8 1 -22 9 -33 9 -10 13 -13
10 -7 -6 11 32 11 72 -1 14 -5 22 -3 22 4 0 7 -5 9 -12 5 -7 -5 -8 -3 -3 6 6
10 12 7 26 -11 10 -13 21 -20 25 -16 4 4 2 7 -3 7 -13 0 -11 25 2 37 4 4 5 3
1 -4 -3 -6 -2 -14 4 -18 5 -3 10 1 10 9 0 8 4 17 9 21 6 3 8 -7 6 -22 l-4 -28
13 29 c12 26 14 27 23 11 9 -15 11 -15 16 -2 3 9 16 14 30 13 19 -2 24 1 19
12 -3 10 -1 13 6 8 6 -3 14 -1 18 5 4 7 3 9 -4 5 -6 -3 -13 -2 -16 3 -10 15
25 6 35 -10 8 -11 9 -9 5 6 -6 20 2 24 61 28 10 0 10 4 1 16 -7 9 -9 13 -4 9
10 -9 36 14 28 26 -3 5 0 6 6 2 6 -3 13 -2 17 4 4 7 12 7 25 0 16 -8 18 -6 15
15 -2 22 0 23 13 13 13 -11 15 -10 9 6 -7 17 -6 17 10 5 11 -9 14 -10 9 -1 -4
6 -3 12 1 12 5 0 15 -6 22 -12 7 -7 11 -8 10 -3 -3 15 12 46 21 40 4 -2 15 4
25 15 10 11 21 17 26 15 4 -3 11 0 15 6 4 7 3 9 -3 6 -6 -4 -13 -1 -16 7 -6
14 9 16 29 3 7 -4 10 3 8 21 -2 24 -1 25 11 9 10 -15 14 -15 18 -3 3 8 1 17
-6 20 -7 4 -2 4 11 2 20 -4 21 -2 11 11 -11 12 -10 14 7 11 10 -1 22 -7 25
-11 3 -5 9 -2 12 7 3 8 1 18 -5 22 -7 4 -8 3 -4 -4 5 -8 1 -10 -11 -5 -14 5
-10 10 22 24 27 12 43 14 51 8 9 -8 11 -4 7 12 -5 17 -3 20 8 14 11 -7 11 -5
-1 10 -8 10 -10 16 -3 12 6 -4 14 -3 18 3 4 6 10 8 15 5 5 -3 12 0 16 6 4 8 3
9 -4 5 -16 -9 -15 1 1 18 10 12 14 10 25 -8 13 -21 13 -21 6 3 -4 14 -2 21 4
17 5 -3 16 2 23 12 12 15 12 16 -2 4 -14 -10 -18 -10 -23 3 -3 9 -2 13 3 10 5
-3 13 -1 16 5 4 6 16 8 28 4 l22 -7 -20 19 c-12 11 -15 15 -7 9 10 -7 20 -3
34 14 10 14 17 30 14 36 -2 7 0 18 5 26 8 11 9 10 7 -5 -2 -10 2 -21 9 -23 7
-3 10 5 9 20 -4 30 19 65 27 43 4 -9 -1 -17 -11 -20 -12 -3 -11 -4 3 -3 16 2
20 9 18 32 l-2 30 15 -25 c9 -14 13 -18 10 -9 -3 10 7 25 25 38 25 19 28 25
18 43 -9 16 -8 19 2 13 9 -6 11 -3 6 9 -5 11 -3 15 5 10 8 -5 9 -2 5 10 -4 10
-3 15 3 11 6 -3 13 0 16 9 3 9 12 12 21 9 12 -5 14 -3 7 8 -16 26 -13 37 11
33 13 -2 27 1 31 7 4 7 3 9 -4 5 -6 -3 -13 -2 -17 4 -5 9 7 14 27 11 4 0 4 7
1 16 -4 11 -3 14 5 9 8 -5 10 -2 6 8 -3 9 -11 13 -17 9 -6 -4 -7 -1 -3 6 5 7
15 10 23 7 8 -3 11 -2 8 3 -3 6 3 14 12 20 16 9 15 10 -4 8 -13 -1 -23 -5 -23
-9 0 -4 -5 -8 -11 -8 -8 0 -8 5 1 15 7 8 16 12 21 9 9 -5 12 9 12 48 0 10 4
15 8 12 5 -3 7 -9 4 -14 -3 -5 -2 -11 3 -14 5 -3 7 14 5 37 -2 23 -4 50 -4 61
0 18 0 18 -14 0 -13 -18 -14 -18 -8 4 5 21 -4 28 -30 23 -5 -1 -6 3 -2 9 3 5
1 10 -4 10 -6 0 -11 5 -11 12 0 6 7 4 18 -5 15 -14 19 -15 19 -2 0 8 -3 12 -7
10 -11 -7 -41 30 -33 40 5 4 -3 2 -16 -5 -13 -6 -21 -8 -17 -2 7 12 -22 25
-36 15 -7 -3 -8 -1 -4 5 4 7 2 13 -3 13 -6 1 -17 2 -23 3 -7 1 -11 10 -10 21
2 11 1 17 -4 13 -4 -4 -14 -2 -23 5 -14 10 -14 10 -3 -5 11 -13 11 -18 0 -24
-7 -4 -10 -4 -6 1 11 11 -12 36 -25 28 -6 -4 -7 -1 -2 7 6 10 4 12 -8 7 -9 -3
-19 -1 -23 5 -5 7 -2 8 7 3 12 -7 12 -5 1 6 -11 12 -14 12 -21 0 -7 -11 -10
-9 -16 8 -3 11 -11 21 -17 21 -7 0 -6 -5 1 -14 9 -11 9 -16 0 -22 -8 -4 -9 -3
-5 4 4 7 2 12 -3 12 -6 0 -11 10 -12 23 0 12 -3 16 -6 10 -7 -18 -21 -16 -44
6 -22 20 -35 21 -58 7 -10 -6 -12 -5 -7 2 4 7 3 12 -3 12 -5 0 -8 9 -6 21 4
17 2 19 -10 9 -8 -7 -15 -9 -15 -6 0 4 -9 2 -20 -4 -16 -8 -18 -8 -14 4 4 10
-2 14 -19 12 -14 0 -23 -4 -21 -7 1 -3 -3 -6 -11 -6 -8 0 -12 3 -10 7 2 4 -3
17 -12 29 -12 18 -17 20 -24 10 -8 -12 -10 -12 -18 -1 -4 8 -12 14 -16 14 -4
0 -12 -6 -16 -14 -7 -10 -9 -8 -9 6 0 19 0 19 -13 1 -11 -14 -16 -15 -22 -5
-5 9 -4 11 3 6 8 -5 10 -1 5 9 -5 13 -8 14 -15 3 -7 -10 -10 -10 -18 4 -7 10
-17 14 -32 10 -16 -4 -19 -2 -13 8 5 8 4 11 -3 6 -6 -3 -13 -2 -17 3 -3 6 -15
7 -28 2 -15 -6 -26 -4 -35 8 -12 15 -13 15 -8 -1 4 -13 1 -15 -12 -11 -9 4
-21 13 -25 20 -5 7 -12 11 -18 8 -5 -4 -9 0 -9 7 0 8 -3 9 -8 3 -10 -14 -46
-19 -37 -6 3 6 -1 11 -10 11 -10 0 -13 -5 -9 -12 4 -7 3 -8 -5 -4 -9 6 -9 12
1 24 7 10 8 14 4 10 -5 -4 -15 -3 -23 4 -11 8 -12 7 -7 -6 3 -9 1 -16 -5 -16
-6 0 -11 6 -11 13 0 8 -4 7 -10 -3 -6 -10 -10 -11 -10 -2 0 6 -5 12 -11 12 -5
0 -8 -4 -5 -9 7 -11 -21 -8 -31 4 -4 4 -2 5 6 0 10 -6 12 -4 7 4 -6 8 -12 9
-20 2 -7 -6 -16 -8 -19 -4 -4 3 -7 0 -7 -7 0 -7 -3 -10 -6 -7 -4 4 -2 12 4 20
8 9 8 17 0 27 -8 13 -9 12 -4 -2 3 -11 -2 -19 -15 -23 -10 -4 -19 -11 -19 -17
0 -6 -3 -8 -6 -5 -4 4 -1 13 6 22 9 11 9 15 1 15 -7 0 -9 5 -6 10 4 6 -5 5
-20 -2 -22 -10 -28 -9 -36 3 -5 9 -9 10 -9 2 0 -7 8 -16 18 -22 15 -9 15 -10
-5 -8 -12 0 -21 4 -21 7 1 17 -3 30 -12 30 -5 0 -7 -6 -4 -14 3 -8 0 -17 -6
-21 -6 -3 -10 -3 -9 2 3 19 -2 31 -17 37 -13 5 -14 4 -6 -7 9 -11 5 -13 -23
-12 -19 0 -37 4 -41 7 -4 4 3 6 14 3 12 -2 24 -1 26 3 3 4 -11 8 -29 8 -18 0
-31 -4 -29 -8 3 -4 1 -8 -5 -8 -5 0 -12 8 -14 18 -4 14 -5 14 -7 -3z m230 -29
c0 -3 -4 -8 -10 -11 -5 -3 -10 -1 -10 4 0 6 5 11 10 11 6 0 10 -2 10 -4z
m-527 -91 c-3 -9 -8 -14 -10 -11 -3 3 -2 9 2 15 9 16 15 13 8 -4z m922 6 c3
-5 2 -12 -3 -15 -5 -3 -9 1 -9 9 0 17 3 19 12 6z m55 -20 c0 -5 -7 -12 -16
-15 -14 -5 -15 -4 -4 9 14 17 20 19 20 6z m149 -48 c0 -11 -3 -13 -6 -5 -2 6
-10 9 -15 6 -7 -4 -8 -2 -4 4 11 18 26 14 25 -5z m125 -35 c-3 -4 -9 -8 -15
-8 -5 0 -9 4 -9 8 0 5 7 9 15 9 8 0 12 -4 9 -9z m66 -24 c0 -8 -19 -13 -24 -6
-3 5 1 9 9 9 8 0 15 -2 15 -3z m-1355 -23 c3 -5 2 -12 -3 -15 -5 -3 -9 1 -9 9
0 17 3 19 12 6z m18 -136 c-3 -9 -8 -14 -10 -11 -3 3 -2 9 2 15 9 16 15 13 8
-4z m1667 -25 c0 -5 -5 -10 -11 -10 -5 0 -7 5 -4 10 3 6 8 10 11 10 2 0 4 -4
4 -10z m20 -270 c0 -5 -2 -10 -4 -10 -3 0 -8 5 -11 10 -3 6 -1 10 4 10 6 0 11
-4 11 -10z m-105 -181 c-11 -17 -43 -30 -50 -19 -4 6 -1 9 7 8 7 -2 12 2 11 9
-2 8 4 10 14 6 12 -5 14 -3 8 7 -5 9 -4 11 4 6 6 -4 9 -12 6 -17z m-1484 -12
c-10 -9 -11 -8 -5 6 3 10 9 15 12 12 3 -3 0 -11 -7 -18z m44 -86 c-6 -5 -25
10 -25 20 0 5 6 4 14 -3 8 -7 12 -15 11 -17z m0 -29 c-3 -3 -11 0 -18 7 -9 10
-8 11 6 5 10 -3 15 -9 12 -12z m1293 -22 c-7 -10 -16 -16 -21 -13 -5 3 -2 10
7 15 9 5 13 14 10 20 -4 7 -2 8 4 4 9 -5 9 -12 0 -26z m-170 -155 c-3 -3 -9 2
-12 12 -6 14 -5 15 5 6 7 -7 10 -15 7 -18z m-185 -148 c7 3 3 -3 -7 -15 -11
-12 -22 -19 -25 -16 -3 4 -1 9 6 11 7 2 11 10 9 16 -1 7 -1 9 1 4 3 -4 10 -4
16 0z m-53 -45 c0 -13 -12 -22 -22 -16 -10 6 -1 24 13 24 5 0 9 -4 9 -8z
m-680 -42 c0 -5 -5 -10 -11 -10 -5 0 -7 5 -4 10 3 6 8 10 11 10 2 0 4 -4 4
-10z m394 -132 c-4 -5 -9 -7 -12 -4 -3 3 -12 0 -21 -7 -14 -10 -14 -10 -4 4
13 16 46 23 37 7z"/>
<path d="M1716 2822 c-3 -5 1 -9 9 -9 8 0 12 4 9 9 -3 4 -7 8 -9 8 -2 0 -6 -4
-9 -8z"/>
<path d="M4353 2806 c0 -7 9 -19 19 -25 18 -11 18 -11 2 14 -19 29 -21 30 -21
11z"/>
<path d="M1677 2733 c-10 -9 -9 -23 1 -23 5 0 9 7 9 15 0 17 -1 18 -10 8z"/>
<path d="M754 2675 c-10 -8 -15 -15 -10 -15 5 0 2 -8 -5 -17 -12 -16 -12 -17
2 -6 9 7 20 9 25 5 4 -4 2 1 -5 11 -15 20 -2 23 19 5 12 -11 12 -10 2 3 -6 9
-9 19 -5 22 12 13 -3 7 -23 -8z"/>
<path d="M4420 2606 c0 -2 7 -7 16 -10 8 -3 12 -2 9 4 -6 10 -25 14 -25 6z"/>
<path d="M4439 2558 c-5 -18 -6 -38 -1 -34 7 8 12 36 6 36 -2 0 -4 -1 -5 -2z"/>
<path d="M3276 2512 c-3 -5 1 -9 9 -9 8 0 12 4 9 9 -3 4 -7 8 -9 8 -2 0 -6 -4
-9 -8z"/>
<path d="M714 2489 c-3 -6 -2 -15 3 -20 5 -5 9 -1 9 11 0 23 -2 24 -12 9z"/>
<path d="M3318 2493 c7 -3 16 -2 19 1 4 3 -2 6 -13 5 -11 0 -14 -3 -6 -6z"/>
<path d="M4450 2449 c0 -5 5 -7 10 -4 6 3 10 8 10 11 0 2 -4 4 -10 4 -5 0 -10
-5 -10 -11z"/>
<path d="M4453 2409 c-2 -23 3 -25 10 -4 4 8 3 16 -1 19 -4 3 -9 -4 -9 -15z"/>
<path d="M3430 2400 c0 -5 5 -10 10 -10 6 0 10 5 10 10 0 6 -4 10 -10 10 -5 0
-10 -4 -10 -10z"/>
<path d="M1679 2368 c0 -2 -2 -11 -4 -21 -3 -15 -1 -16 11 -6 7 6 11 15 8 20
-5 9 -13 12 -15 7z"/>
<path d="M4485 2160 c3 -5 8 -10 11 -10 2 0 4 5 4 10 0 6 -5 10 -11 10 -5 0
-7 -4 -4 -10z"/>
<path d="M3321 2041 c-8 -15 -8 -22 1 -27 7 -4 10 -4 6 1 -4 4 -3 14 4 22 6 7
8 16 5 19 -3 3 -10 -3 -16 -15z"/>
<path d="M4485 2040 c3 -5 8 -10 11 -10 2 0 4 5 4 10 0 6 -5 10 -11 10 -5 0
-7 -4 -4 -10z"/>
<path d="M676 1981 c-3 -5 2 -15 12 -22 15 -12 16 -12 5 2 -7 9 -10 19 -6 22
3 4 4 7 0 7 -3 0 -8 -4 -11 -9z"/>
<path d="M1879 1704 c6 -3 7 -12 4 -20 -3 -8 -1 -14 5 -14 14 0 8 33 -7 36 -6
1 -7 0 -2 -2z"/>
<path d="M730 1600 c-9 -6 -10 -10 -3 -10 6 0 15 5 18 10 8 12 4 12 -15 0z"/>
<path d="M2050 1400 c0 -5 5 -10 11 -10 5 0 7 5 4 10 -3 6 -8 10 -11 10 -2 0
-4 -4 -4 -10z"/>
<path d="M2615 1401 c-3 -5 -2 -12 3 -15 5 -3 9 1 9 9 0 17 -3 19 -12 6z"/>
<path d="M4339 1308 c-6 -21 -5 -37 2 -32 5 3 7 9 4 14 -3 5 3 11 12 13 17 4
17 5 1 6 -10 0 -18 0 -19 -1z"/>
<path d="M4324 1246 c1 -8 5 -18 8 -22 4 -3 5 1 4 10 -1 8 -5 18 -8 22 -4 3
-5 -1 -4 -10z"/>
<path d="M947 1009 c7 -7 15 -10 18 -7 3 3 -2 9 -12 12 -14 6 -15 5 -6 -5z"/>
<path d="M1095 880 c3 -5 8 -10 11 -10 2 0 4 5 4 10 0 6 -5 10 -11 10 -5 0 -7
-4 -4 -10z"/>
<path d="M3940 862 c11 -22 31 -22 29 1 0 8 -2 8 -6 -1 -4 -10 -9 -9 -20 5
-13 17 -13 16 -3 -5z"/>
<path d="M3916 835 c4 -8 8 -15 10 -15 2 0 4 7 4 15 0 8 -4 15 -10 15 -5 0 -7
-7 -4 -15z"/>
<path d="M1140 830 c-9 -6 -10 -10 -3 -10 6 0 15 5 18 10 8 12 4 12 -15 0z"/>
<path d="M1210 801 c0 -6 4 -13 10 -16 6 -3 7 1 4 9 -7 18 -14 21 -14 7z"/>
<path d="M1290 771 c0 -5 13 -19 28 -30 22 -15 29 -17 29 -6 0 8 -4 12 -8 9
-5 -3 -17 4 -29 16 -11 11 -20 16 -20 11z"/>
<path d="M3637 749 c7 -9 9 -20 5 -25 -4 -4 1 -2 11 5 9 7 17 16 17 19 0 3 -3
2 -7 -1 -3 -4 -13 -1 -22 6 -14 10 -14 10 -4 -4z"/>
<path d="M1407 717 c-3 -8 1 -14 8 -14 7 0 11 6 8 14 -3 7 -6 13 -8 13 -2 0
-5 -6 -8 -13z"/>
<path d="M1467 689 c7 -7 15 -10 18 -7 3 3 -2 9 -12 12 -14 6 -15 5 -6 -5z"/>
<path d="M3445 680 c-3 -6 1 -7 9 -4 18 7 21 14 7 14 -6 0 -13 -4 -16 -10z"/>
<path d="M3260 651 c0 -6 4 -13 10 -16 6 -3 7 1 4 9 -7 18 -14 21 -14 7z"/>
<path d="M1630 646 c0 -2 7 -7 16 -10 8 -3 12 -2 9 4 -6 10 -25 14 -25 6z"/>
<path d="M1790 617 c0 -5 6 -7 14 -4 7 3 19 0 25 -6 9 -9 11 -8 6 5 -7 17 -45
21 -45 5z"/>
<path d="M2860 620 c-9 -6 -10 -10 -3 -10 6 0 15 5 18 10 8 12 4 12 -15 0z"/>
<path d="M2876 593 c-6 -14 -5 -15 5 -6 7 7 10 15 7 18 -3 3 -9 -2 -12 -12z"/>
<path d="M2976 601 c-4 -5 3 -7 14 -4 23 6 26 13 6 13 -8 0 -17 -4 -20 -9z"/>
<path d="M762 4935 c-7 -8 -9 -15 -4 -15 5 0 15 7 22 15 16 19 -1 19 -18 0z"/>
<path d="M3435 4910 c-3 -6 1 -7 9 -4 18 7 21 14 7 14 -6 0 -13 -4 -16 -10z"/>
<path d="M3246 4873 c-6 -14 -5 -15 5 -6 7 7 10 15 7 18 -3 3 -9 -2 -12 -12z"/>
<path d="M734 4830 c3 -32 13 -50 29 -50 8 0 9 2 1 8 -6 4 -10 17 -9 29 1 12
-2 20 -6 17 -4 -2 -9 2 -12 8 -3 7 -4 2 -3 -12z"/>
<path d="M750 4760 c0 -5 5 -10 11 -10 5 0 7 5 4 10 -3 6 -8 10 -11 10 -2 0
-4 -4 -4 -10z"/>
<path d="M1650 4754 c0 -20 27 -37 36 -23 4 7 3 9 -4 5 -6 -3 -15 2 -21 11 -6
10 -11 13 -11 7z"/>
<path d="M3022 4714 c10 -10 20 -16 22 -13 3 3 -5 11 -17 18 -21 13 -21 12 -5
-5z"/>
<path d="M3776 4593 c-6 -14 -5 -15 5 -6 7 7 10 15 7 18 -3 3 -9 -2 -12 -12z"/>
<path d="M2826 4554 c-5 -14 -4 -15 9 -4 17 14 19 20 6 20 -5 0 -12 -7 -15
-16z"/>
<path d="M980 4499 c0 -5 5 -7 10 -4 6 3 10 8 10 11 0 2 -4 4 -10 4 -5 0 -10
-5 -10 -11z"/>
<path d="M3695 4390 c-3 -5 -1 -10 4 -10 6 0 11 5 11 10 0 6 -2 10 -4 10 -3 0
-8 -4 -11 -10z"/>
<path d="M2106 4358 c3 -5 10 -6 15 -3 13 9 11 12 -6 12 -8 0 -12 -4 -9 -9z"/>
<path d="M1307 4259 c7 -7 15 -10 18 -7 3 3 -2 9 -12 12 -14 6 -15 5 -6 -5z"/>
<path d="M3490 4240 c-9 -6 -10 -10 -3 -10 6 0 15 5 18 10 8 12 4 12 -15 0z"/>
<path d="M2355 4200 c-4 -6 -10 -8 -15 -5 -5 3 -11 1 -14 -3 -6 -10 40 -10 49
0 4 3 2 9 -4 12 -5 4 -12 2 -16 -4z"/>
<path d="M1454 4176 c1 -8 5 -18 8 -22 4 -3 5 1 4 10 -1 8 -5 18 -8 22 -4 3
-5 -1 -4 -10z"/>
<path d="M3406 4018 c3 -5 10 -6 15 -3 13 9 11 12 -6 12 -8 0 -12 -4 -9 -9z"/>
<path d="M1310 4005 c-7 -9 -8 -15 -2 -15 5 0 12 7 16 15 3 8 4 15 2 15 -2 0
-9 -7 -16 -15z"/>
<path d="M1410 4009 c0 -5 5 -7 10 -4 6 3 10 8 10 11 0 2 -4 4 -10 4 -5 0 -10
-5 -10 -11z"/>
<path d="M1440 4009 c0 -5 5 -7 10 -4 6 3 10 8 10 11 0 2 -4 4 -10 4 -5 0 -10
-5 -10 -11z"/>
<path d="M1256 3972 c-3 -5 1 -9 9 -9 8 0 12 4 9 9 -3 4 -7 8 -9 8 -2 0 -6 -4
-9 -8z"/>
<path d="M3736 3943 c-6 -14 -5 -15 5 -6 7 7 10 15 7 18 -3 3 -9 -2 -12 -12z"/>
<path d="M1035 3880 c-4 -6 -13 -9 -20 -8 -11 3 -21 -8 -12 -13 7 -5 47 14 47
22 0 12 -7 12 -15 -1z"/>
<path d="M4076 3843 c-6 -14 -5 -15 5 -6 7 7 10 15 7 18 -3 3 -9 -2 -12 -12z"/>
<path d="M893 3809 c-2 -23 3 -25 10 -4 4 8 3 16 -1 19 -4 3 -9 -4 -9 -15z"/>
<path d="M4171 3804 c0 -11 3 -14 6 -6 3 7 2 16 -1 19 -3 4 -6 -2 -5 -13z"/>
<path d="M4260 3764 c0 -2 9 -8 20 -14 15 -8 18 -8 14 3 -4 11 -34 21 -34 11z"/>
<path d="M695 3700 c-3 -5 -1 -10 4 -10 6 0 11 5 11 10 0 6 -2 10 -4 10 -3 0
-8 -4 -11 -10z"/>
<path d="M593 3605 c0 -7 6 -11 14 -8 7 3 13 6 13 8 0 2 -6 5 -13 8 -8 3 -14
-1 -14 -8z"/>
<path d="M4540 3570 c9 -17 30 -20 30 -4 0 3 -4 2 -10 -1 -5 -3 -10 1 -10 9 0
9 -5 16 -10 16 -7 0 -7 -7 0 -20z"/>
<path d="M4613 3496 c-3 -6 -3 -8 2 -4 4 4 14 0 21 -10 12 -16 13 -15 11 4 -1
22 -24 28 -34 10z"/>
<path d="M4665 3440 c4 -6 11 -8 16 -5 14 9 11 15 -7 15 -8 0 -12 -5 -9 -10z"/>
<path d="M4745 3340 c3 -5 8 -10 11 -10 2 0 4 5 4 10 0 6 -5 10 -11 10 -5 0
-7 -4 -4 -10z"/>
<path d="M275 3220 c-3 -5 -1 -10 4 -10 6 0 11 5 11 10 0 6 -2 10 -4 10 -3 0
-8 -4 -11 -10z"/>
<path d="M187 3003 c3 -7 9 -10 14 -7 14 8 11 21 -5 21 -8 0 -12 -6 -9 -14z"/>
<path d="M160 2959 c0 -5 5 -7 10 -4 6 3 10 8 10 11 0 2 -4 4 -10 4 -5 0 -10
-5 -10 -11z"/>
<path d="M4965 2920 c3 -5 8 -10 11 -10 2 0 4 5 4 10 0 6 -5 10 -11 10 -5 0
-7 -4 -4 -10z"/>
<path d="M5005 2820 c3 -5 8 -10 11 -10 2 0 4 5 4 10 0 6 -5 10 -11 10 -5 0
-7 -4 -4 -10z"/>
<path d="M65 2524 c-9 -15 -12 -23 -5 -19 9 5 10 1 5 -14 -3 -11 -2 -21 3 -21
5 0 8 10 8 23 -1 12 2 30 6 40 13 26 3 21 -17 -9z"/>
<path d="M49 2208 c-5 -18 -6 -38 -1 -34 7 8 12 36 6 36 -2 0 -4 -1 -5 -2z"/>
<path d="M40 1710 c-9 -6 -10 -10 -3 -10 6 0 15 5 18 10 8 12 4 12 -15 0z"/>
<path d="M5075 1660 c-3 -5 -1 -10 4 -10 6 0 11 5 11 10 0 6 -2 10 -4 10 -3 0
-8 -4 -11 -10z"/>
<path d="M73 1577 c0 -8 6 -14 14 -14 9 0 10 4 2 14 -6 7 -12 13 -14 13 -1 0
-2 -6 -2 -13z"/>
<path d="M5053 1435 c0 -8 4 -12 9 -9 4 3 8 9 8 15 0 5 -4 9 -8 9 -5 0 -9 -7
-9 -15z"/>
<path d="M5029 1377 c6 -8 7 -18 3 -22 -4 -5 -1 -5 6 -1 10 6 10 11 1 22 -6 8
-14 14 -16 14 -3 0 0 -6 6 -13z"/>
<path d="M4985 1241 c-6 -11 13 -26 22 -17 4 3 0 6 -8 6 -11 0 -11 2 1 10 9 6
10 10 3 10 -6 0 -14 -4 -18 -9z"/>
<path d="M4916 1053 c-6 -14 -5 -15 5 -6 7 7 10 15 7 18 -3 3 -9 -2 -12 -12z"/>
<path d="M255 980 c-3 -5 1 -10 10 -10 9 0 13 5 10 10 -3 6 -8 10 -10 10 -2 0
-7 -4 -10 -10z"/>
<path d="M4677 683 c-3 -5 4 -15 16 -23 21 -12 21 -12 7 6 -8 10 -15 20 -16
22 -1 2 -4 -1 -7 -5z"/>
<path d="M4637 633 c-10 -9 -9 -23 1 -23 5 0 9 7 9 15 0 17 -1 18 -10 8z"/>
<path d="M467 619 c7 -7 15 -10 18 -7 3 3 -2 9 -12 12 -14 6 -15 5 -6 -5z"/>
<path d="M4076 272 c-3 -5 1 -9 9 -9 8 0 12 4 9 9 -3 4 -7 8 -9 8 -2 0 -6 -4
-9 -8z"/>
<path d="M1030 230 c0 -5 5 -10 11 -10 5 0 7 -5 4 -10 -4 -6 -11 -7 -17 -4 -7
5 -8 2 -3 -5 5 -9 10 -10 18 -2 16 16 25 14 30 -6 4 -15 5 -16 6 -2 0 9 -10
24 -24 33 -14 9 -25 12 -25 6z"/>
<path d="M1153 175 c0 -8 4 -12 9 -9 5 3 6 10 3 15 -9 13 -12 11 -12 -6z"/>
<path d="M1187 163 c3 -7 6 -13 8 -13 2 0 5 6 8 13 3 8 -1 14 -8 14 -7 0 -11
-6 -8 -14z"/>
<path d="M3631 123 c0 -11 3 -13 6 -5 2 6 10 9 15 6 7 -4 8 -2 4 4 -11 18 -26
14 -25 -5z"/>
<path d="M1346 122 c-3 -6 -1 -14 5 -17 15 -10 25 3 12 16 -7 7 -13 7 -17 1z"/>
<path d="M3355 59 c-4 -6 -5 -12 -2 -15 2 -3 7 2 10 11 7 17 1 20 -8 4z"/>
<path d="M1836 34 c-11 -8 -16 -14 -10 -14 13 0 39 18 34 24 -3 2 -14 -2 -24
-10z"/>
<path d="M1995 31 c-4 -7 -13 -10 -20 -7 -7 2 -16 2 -20 -2 -10 -10 -29 -9
-38 3 -5 6 -7 4 -5 -4 3 -11 22 -15 66 -17 34 -1 62 3 62 8 0 5 -4 7 -9 3 -6
-3 -14 2 -19 11 -7 12 -11 13 -17 5z"/>
</g>
</svg>
