<?xml version="1.0" standalone="no"?>
<!DOCTYPE svg PUBLIC "-//W3C//DTD SVG 20010904//EN"
 "http://www.w3.org/TR/2001/REC-SVG-20010904/DTD/svg10.dtd">
<svg version="1.0" xmlns="http://www.w3.org/2000/svg"
 width="1026.000000pt" height="1026.000000pt" viewBox="0 0 1026.000000 1026.000000"
 preserveAspectRatio="xMidYMid meet">
<metadata>
Created by potrace 1.14, written by Peter Selinger 2001-2017
</metadata>
<g transform="translate(0.000000,1026.000000) scale(0.100000,-0.100000)"
fill="#000000" stroke="none">
<path d="M4895 8435 c-147 -17 -325 -52 -275 -54 612 -21 1100 -142 1601 -397
397 -202 714 -438 1045 -776 635 -650 1040 -1429 1198 -2308 57 -316 81 -650
73 -1015 -4 -224 -3 -244 9 -195 52 211 78 717 55 1042 -84 1143 -536 2252
-1181 2898 -299 300 -608 491 -1018 631 -228 78 -449 128 -727 165 -158 22
-626 27 -780 9z"/>
<path d="M4077 8219 c-207 -79 -382 -160 -569 -266 -54 -30 -98 -56 -98 -57 0
-2 37 4 83 12 127 23 521 22 657 -1 686 -120 1316 -478 1916 -1088 400 -408
702 -835 968 -1369 466 -938 649 -1957 526 -2925 -11 -82 -18 -150 -17 -152 6
-5 240 138 330 200 50 36 127 95 169 131 96 83 208 220 208 256 0 14 9 129 20
255 48 543 35 960 -41 1385 -188 1049 -837 2118 -1710 2816 -116 93 -367 261
-514 345 -456 260 -989 428 -1540 483 -258 26 -251 27 -388 -25z"/>
<path d="M3510 7710 c-344 -62 -644 -220 -910 -481 -85 -83 -195 -207 -189
-213 2 -2 60 0 129 6 224 18 539 -4 770 -53 797 -170 1465 -688 1970 -1529
581 -966 866 -2323 699 -3335 -18 -108 -29 -163 -46 -219 -6 -22 -8 -22 272
34 343 69 731 178 919 259 48 21 48 22 43 59 -17 107 -18 296 -3 608 21 415
12 614 -45 994 -132 880 -505 1784 -1016 2464 -202 268 -471 557 -688 741
-444 374 -907 602 -1357 669 -148 22 -411 20 -548 -4z"/>
<path d="M2703 6759 c-194 -18 -401 -94 -577 -209 -67 -44 -69 -47 -134 -175
-63 -125 -184 -406 -177 -413 1 -2 45 15 96 37 107 45 230 83 357 108 119 23
401 23 529 0 330 -62 642 -211 957 -460 135 -106 428 -402 552 -557 517 -647
898 -1485 1039 -2281 14 -79 36 -205 50 -279 51 -276 59 -350 60 -537 0 -144
3 -183 13 -183 7 0 55 5 106 11 l93 12 7 96 c4 53 19 186 34 296 47 361 32
709 -54 1220 -132 787 -433 1538 -848 2110 -171 236 -466 546 -666 701 -223
172 -429 297 -580 352 -277 100 -412 135 -588 152 -110 11 -152 11 -269 -1z"/>
<path d="M2300 5816 c-127 -23 -231 -55 -335 -105 -98 -46 -233 -129 -252
-154 -17 -20 -65 -279 -87 -460 -41 -337 -45 -708 -11 -1047 24 -237 28 -254
102 -391 197 -368 403 -650 673 -919 359 -360 707 -577 1170 -731 330 -109
648 -162 1319 -222 l144 -13 -6 205 c-20 664 -156 1345 -382 1916 -71 180
-220 482 -316 640 -416 688 -972 1145 -1537 1265 -125 27 -374 35 -482 16z
m83 -2544 c552 -478 1064 -787 1787 -1079 129 -52 237 -97 240 -100 9 -10
-257 7 -363 22 -767 114 -1523 634 -1885 1296 -23 42 -42 80 -42 84 0 4 27
-17 60 -47 34 -29 125 -108 203 -176z"/>
</g>
</svg>
