<svg xmlns="http://www.w3.org/2000/svg" width="284" height="153" viewBox="0 0 284 153">
  <g fill="none" fill-rule="evenodd">
    <path fill="#231F20" d="M271.530049,117.046143 C271.77847,121.083184 271.913163,124.356495 272.194622,127.61711 C272.699723,133.473645 273.44689,139.314944 273.750586,145.181002 C273.835087,146.810039 273.043445,148.727935 272.083436,150.120807 C269.61702,153.698848 265.051418,153.258259 263.712107,149.150114 C262.283213,144.77152 261.419776,140.173902 260.686586,135.611201 C259.652242,129.170599 259.131257,122.644927 258.020671,116.220197 C257.708081,114.418479 255.906237,111.334354 255.11396,111.433392 C252.389593,111.775578 252.964582,114.56513 253.008421,116.57508 C253.075767,119.630002 253.491919,122.676035 253.607553,125.732226 C253.775284,130.138753 251.957557,132.6204 248.233154,133.532686 C246.029772,134.072313 244.303535,133.523163 243.767302,131.276412 C242.696107,126.788624 241.745629,122.262744 240.990837,117.712105 C240.30085,113.554441 240.035911,109.327578 239.371338,105.165471 C239.134353,103.67991 238.455168,102.179114 237.636841,100.903056 C237.113951,100.086632 235.538291,98.9750017 235.178049,99.1978357 C233.929593,99.9698191 232.263078,101.173504 232.11123,102.382902 C231.791016,104.935018 232.268796,107.599504 232.526112,110.207487 C233.108089,116.123699 230.520957,119.676981 225.341611,120.01028 C222.406309,120.199466 220.508528,119.210998 219.955141,116.029105 C219.587911,113.915674 218.764501,111.881599 218.145038,109.813242 C217.674881,109.881807 217.203454,109.951006 216.733298,110.020205 C216.571919,111.59274 216.322864,113.162101 216.27013,114.738446 C216.188805,117.172479 216.539517,119.946159 213.934595,121.180952 C211.261691,122.446852 208.754613,121.265388 206.802192,119.24274 C205.475588,117.868915 204.375168,116.277968 203.053647,114.633695 C202.925306,116.229085 202.772823,118.098097 202.624787,119.96711 C202.551087,120.902251 202.800143,122.044354 202.350318,122.733807 C201.293101,124.355861 200.087213,126.769578 198.610031,127.036852 C195.855803,127.536483 193.536787,125.77857 192.839177,122.773802 C192.316922,120.528321 192.064689,118.221894 191.622488,115.955462 C191.402022,114.82669 191.243821,113.588724 190.649772,112.659931 C190.201217,111.958417 189.10715,111.668288 188.299624,111.195321 C187.959078,111.963495 187.322461,112.735479 187.330085,113.500479 C187.359311,116.317329 185.964089,118.531068 183.700349,118.871985 C178.556582,119.647143 177.895186,119.256072 176.841781,115.028574 C176.440242,113.417313 175.902103,111.839699 175.426864,110.246848 C175.000546,110.307794 174.574228,110.369375 174.147911,110.430321 C174.147911,111.784466 174.098353,113.141151 174.15617,114.492122 C174.399508,120.105508 172.579875,122.778881 167.562541,124.105728 C164.097996,125.021823 162.409879,123.947014 161.839338,120.339134 C161.535642,118.419968 161.400949,116.474773 161.190013,114.541006 C160.770049,114.532753 160.350085,114.5245 159.930756,114.516246 C159.862139,116.538259 159.649933,118.568524 159.757942,120.581014 C159.944098,124.044782 160.702067,127.519342 160.493038,130.945653 C160.366604,133.018454 159.406595,135.660085 157.88494,136.90567 C154.251391,139.880599 150.75889,138.314412 150.066998,133.709811 C148.988814,126.531508 148.193996,119.310035 147.070067,112.13935 C146.79115,110.363661 145.708519,108.713674 145.000107,107.014802 C141.454872,107.649657 140.468814,109.865935 140.527266,112.593906 C140.620027,116.915363 141.155624,121.234915 141.079383,125.547483 C141.050157,127.221595 140.325226,129.460093 139.109808,130.412375 C136.947087,132.106168 134.251311,131.35196 132.002183,129.943852 C131.439902,129.591508 131.201647,128.589707 130.990076,127.837404 C130.460832,125.953155 130.031973,124.040973 129.535132,122.028483 C126.763749,122.736981 125.76689,124.016848 126.220528,126.638163 C126.756761,129.736255 127.113826,132.900371 127.161477,136.040998 C127.217387,139.777118 121.437638,144.426794 117.868895,143.440865 C116.583588,143.085981 115.013011,141.644861 114.666747,140.396101 C113.491356,136.158446 112.781038,131.78874 111.943651,127.459666 C111.604376,125.704292 111.486201,123.903844 111.102452,122.159898 C110.662157,120.157566 109.523615,118.941819 106.918694,119.554454 C106.824027,120.573396 106.787812,121.711056 106.602291,122.824591 C106.037468,126.21789 103.127579,128.81508 99.8733333,128.898881 C96.9507383,128.973794 93.9817629,126.367715 93.4728501,122.991558 C93.2136286,121.274276 93.3959732,119.489064 93.4093154,117.734325 C93.4163043,116.785852 93.6208859,115.820873 93.5052528,114.892715 C93.0763937,111.453707 90.8952483,110.213201 87.787132,111.725425 C84.1154631,113.511906 81.6191857,116.22591 81.999123,120.625454 C82.4527606,125.875703 83.1135213,131.109446 83.5906667,136.35779 C83.8289217,138.982915 83.9140582,141.62518 83.968698,144.261732 C84.0417629,147.750259 82.1115794,150.256031 79.553038,152.258363 C77.0929754,154.183877 72.894604,152.187894 71.853906,148.253699 C70.8907204,144.612172 70.4790157,140.798599 70.1079732,137.033276 C69.5596689,131.466234 69.4916868,125.84396 68.7534139,120.308027 C68.4255749,117.853678 66.9579239,115.55106 66.0074452,113.179242 C65.5506309,113.16591 65.0931812,113.151944 64.6357315,113.139246 C64.0613781,114.665437 62.9482506,116.217022 63.0155973,117.714645 C63.2042953,121.909765 63.6274362,126.133454 64.4336913,130.252392 C65.2875973,134.612574 64.6948188,136.411118 61.1572081,137.380541 C57.6342103,138.34679 53.7490649,136.221931 53.1264251,132.628018 C52.5901924,129.531832 52.6842237,126.332798 52.3042864,123.202329 C52.0024966,120.714334 51.405906,118.261255 50.9401969,115.792939 C50.4859239,115.832935 50.0310157,115.873566 49.5761074,115.914832 C49.4598389,116.946471 49.3092617,117.976205 49.2349262,119.011653 C49.0684653,121.345379 49.069736,123.698786 48.7603221,126.011562 C48.422953,128.537649 46.4152573,129.411844 44.3446622,128.845554 C42.7747204,128.415757 40.6583803,127.186678 40.2428635,125.857927 C38.9645459,121.768193 38.2688412,117.477844 37.5801253,113.228126 C37.1798568,110.759811 36.8437584,109.36567 33.5329664,109.640562 C29.6058881,109.967512 25.5352215,109.282504 21.598613,108.613367 C16.8468546,107.805197 12.0417271,106.937985 7.49010291,105.411159 C-0.411704698,102.759371 -2.55981208,93.82379 3.45755705,87.970429 C5.24732886,86.2290224 6.74865324,84.0590888 7.92531544,81.8434456 C12.3829083,73.453205 18.855821,66.9338813 26.3935749,61.3503336 C30.6592931,58.1900266 33.5126353,53.982844 36.034962,49.362371 C38.7072304,44.4682755 41.9837136,39.906844 44.8656465,35.1219436 C45.6960447,33.7436739 46.0740761,32.094956 46.7843937,30.2449892 C47.1884743,30.7801718 47.4820045,31.1693378 48.1599195,32.0676573 C51.5196331,28.2915411 54.892689,24.5090763 58.2549441,20.7177237 C60.933566,17.6970846 61.2105772,14.1380888 61.18834,10.2419851 C61.1654676,6.050039 64.9781834,1.59653278 72.0527696,1.36100166 C77.4919732,1.18006805 82.9254586,0.601080498 88.3595794,0.623875659 C91.3177539,0.63726722 94.256868,1.82317593 97.2302908,1.97490622 C102.731123,2.25551203 105.797942,6.8404332 110.270783,8.92529627 C113.493262,10.4273627 116.415857,12.5795203 119.45345,14.4720224 C123.114953,16.7517859 126.585217,19.4175411 130.446855,21.2776656 C136.293951,24.0932465 142.209029,27.2053046 148.452582,28.6584871 C157.982148,30.8760349 165.941136,35.7567983 174.065315,40.6940639 C178.162667,43.1833295 182.66664,45.0618647 187.117244,46.901039 C196.144251,50.6320805 205.274819,54.1098149 214.332957,57.7659436 C220.571427,60.2837776 226.763517,62.9171552 232.968313,65.5194249 C234.424528,66.1301552 235.98494,66.6240722 237.260716,67.5109643 C243.844179,72.0889021 251.820322,72.9104041 259.004188,75.7989934 C266.074327,78.641873 273.192116,81.7653585 277.878434,88.4014954 C280.349933,91.9001801 281.34298,95.7727942 281.722282,99.957122 C282.397655,107.405873 283.328438,114.831769 283.959338,122.28306 C284.105468,124.013674 283.70774,125.8884 283.141011,127.553624 C282.52536,129.360421 281.50817,130.814873 278.966148,130.437134 C276.387275,130.053047 275.326246,128.960462 275.225861,126.350574 C274.990783,120.264222 274.7646,119.864263 271.530049,117.046143 L271.530049,117.046143 Z"/>
    <path fill="#FEFEFE" d="M103.584032,87.1715986 C103.565625,86.7899445 103.547218,86.4082904 103.528812,86.0272724 C102.372363,86.0272724 101.127689,85.7499371 100.076603,86.0832483 C97.676115,86.8440121 95.4952381,88.1931594 95.5238002,91.0746478 C95.5568054,94.3047137 97.6012188,96.1652774 100.53677,97.1626668 C103.005807,98.0016697 105.209534,97.1187766 105.988328,94.9395317 C106.798223,92.6705981 105.657007,90.829117 102.661793,89.9156915 C103.141002,91.0014975 103.707801,91.8932959 103.909005,92.860789 C104.082282,93.6940671 104.157178,94.934443 103.68749,95.4057858 C103.2324,95.8624985 101.630382,95.9528233 101.223531,95.5317316 C99.854453,94.116431 98.2600518,92.5230251 97.860182,90.7464253 C97.685001,89.9678509 100.130554,88.501027 101.507883,87.5176316 C102.021366,87.1512437 102.882038,87.2727369 103.584032,87.1715986 M250.578786,85.6564318 C250.593287,81.6923179 248.963977,79.7611481 245.621573,79.7808669 C241.860894,79.8037662 238.417571,81.6566968 238.45375,83.6393899 C238.498814,86.1805701 243.084622,90.1707637 246.070951,90.2674494 C248.571724,90.3482329 250.569168,88.3057473 250.578786,85.6564318 M87.6159,66.1201945 C87.9605496,62.1249122 86.1109934,60.3661229 81.2275048,60.04935 C78.2849712,59.8585229 74.8245111,62.4881197 74.5331775,65.1367991 C74.0876083,69.1867852 77.699765,73.6063397 81.7657421,73.9867216 C85.0434046,74.292681 87.1557324,71.4519023 87.6159,66.1201945 M119.291296,37.9013265 C118.984095,36.5808033 119.048836,35.4371132 118.511868,34.8124727 C116.788619,32.804336 114.860359,30.9704881 112.961929,29.1201018 C112.710583,28.8752071 112.176788,28.8663018 111.769302,28.8478552 C109.008297,28.719365 106.975943,29.9724626 105.329495,32.1275361 C103.764925,34.1744742 104.630675,36.042035 105.87281,37.5896423 C107.550994,39.6804707 109.491314,41.5938299 111.505896,43.3697937 C113.433522,45.0681544 115.498246,44.6820477 116.923813,42.6561005 C117.975534,41.1612886 118.586129,39.3560647 119.291296,37.9013265 M215.373649,91.2114072 C217.696067,92.3926267 219.647812,94.2061197 221.480866,94.0928957 C223.404049,93.9745829 225.698539,92.3932627 226.978123,90.7750494 C230.364321,86.490346 231.641366,81.3348352 231.274501,75.8918117 C231.202778,74.8257245 230.22278,73.0325864 229.49159,72.9409894 C226.821348,72.606406 224.07875,72.8493924 221.115271,72.8773804 C224.523684,80.8399571 220.203821,85.5362108 215.373649,91.2114072 M94.1502794,63.4269888 C93.8386349,68.4171161 95.905898,71.9372391 99.947756,74.7150449 C102.219397,76.2766462 103.983267,75.2531771 105.713497,74.3130359 C106.06132,74.1241171 105.547837,71.7903023 105.022928,70.631346 C101.909022,63.7583918 101.340318,56.9414134 109.328827,52.7565762 C109.514798,52.6586184 109.807401,52.5447582 109.834694,52.3984575 C110.031455,51.3304621 110.656649,49.9876758 110.242815,49.2250036 C108.943556,46.8352129 105.99531,46.0324671 103.551027,47.3669843 C97.2159474,50.8247704 94.6364702,56.5610315 94.1502794,63.4269888 M159.532791,53.8010363 C159.888865,56.7518586 160.546429,58.9565471 160.336339,61.0753634 C159.75621,66.9229403 158.863168,72.7418932 157.984089,78.5563934 C157.731473,80.2229496 157.322083,81.7661043 159.507402,82.3303163 C161.457878,82.8340997 163.370271,83.9994169 164.982444,81.3698202 C170.718988,72.0148421 169.048421,62.2584911 167.136663,51.7693643 C164.231578,52.5453943 161.773331,53.2024755 159.532791,53.8010363 M148.936877,83.3054425 C144.293945,81.9639284 140.406958,80.7318217 136.462211,79.7280715 C131.182026,78.384649 125.862489,77.1977048 120.549299,75.985953 C118.522658,75.5235155 117.302738,76.2454778 117.121844,78.4838791 C116.926352,80.9042022 120.878716,86.6639986 124.170342,87.5691549 C130.420369,89.2885066 136.79607,90.5594148 143.146383,91.8888432 C143.879477,92.0427771 145.235226,91.6255019 145.527194,91.0663787 C146.770599,88.6848571 147.722035,86.1506739 148.936877,83.3054425 M72.1263424,103.809173 C77.9346092,103.979009 81.065018,102.19732 82.8295226,97.820384 C85.1551143,92.0497741 82.8904551,86.8745445 80.4499803,81.7807344 C80.2722604,81.411166 79.6426242,81.1312864 79.1792831,81.0454142 C72.5211345,79.8120354 66.4742153,81.1859901 61.9322028,86.3364122 C56.208353,92.8264401 59.9265069,100.91051 65.9302655,103.230331 C67.9848344,104.024808 70.4760863,103.681955 72.1263424,103.809173 M211.834484,78.370655 C211.143281,76.8987424 210.721831,75.1991095 209.712636,73.9943547 C205.667604,69.1683386 199.946293,70.3285671 194.788608,70.5957249 C192.05553,70.7375731 189.153618,72.3138045 186.792483,73.925657 C182.430094,76.9038311 183.464678,85.8746107 188.157752,88.3127443 C189.628384,89.0773247 190.923835,90.1739442 192.375426,90.9830508 C193.45444,91.5841561 194.671186,92.4155259 195.800977,92.3773605 C205.874521,92.0332357 210.830367,89.9449517 211.834484,78.370655 M135.23277,72.8423954 C146.143502,74.3143081 151.35006,66.0705795 152.637259,55.9529293 C153.693423,47.6538609 147.674432,41.121851 138.61516,40.5391924 C130.439411,40.013782 121.165606,44.4473304 120.358885,53.7628709 C119.469016,64.0306383 125.607969,72.0014842 135.23277,72.8423954 M192.913029,51.4252395 C195.894914,52.6554379 198.68956,53.8086694 202.287118,55.2933038 C199.444869,57.02983 197.055806,58.4896569 194.664839,59.950756 C196.725755,64.6730894 199.213833,65.841587 203.975457,64.0808895 C206.440686,63.1693723 208.791666,61.9423543 211.269589,61.072183 C212.117567,60.7744928 213.310829,60.860365 214.147382,61.2280251 C223.785512,65.4669299 233.349381,69.8801235 243.019247,74.0446058 C245.896405,75.2837095 249.061723,75.8383801 252.063919,76.8026928 C254.053113,77.4413273 255.999145,78.2218099 257.943274,78.9927512 C260.449759,79.9869602 262.917527,81.0816713 265.433533,82.0517088 C274.151328,85.4115371 278.782835,91.7476312 279.65874,101.060627 C280.280125,107.665152 281.308361,114.230874 281.941806,120.834762 C282.139202,122.889334 281.805977,125.046951 281.369929,127.083076 C281.213154,127.817124 280.042107,128.332993 279.333767,128.948728 C278.725076,128.116723 277.809819,127.364864 277.567993,126.436808 C276.991038,124.216854 276.880597,121.872861 276.275715,119.663084 C275.993902,118.63389 275.138943,117.643498 274.304294,116.90945 C272.397613,115.231444 270.49728,115.709148 270.256089,118.17845 C269.912074,121.693484 270.032035,125.286121 270.283381,128.822147 C270.69658,134.614384 271.415711,140.383721 271.901902,146.172142 C271.986319,147.1778 271.786384,148.357112 271.303367,149.224103 C270.694676,150.314361 269.192943,152.107499 268.887646,151.956746 C267.499526,151.268496 265.620773,150.183326 265.326901,148.913054 C264.068898,143.473847 263.236153,137.929686 262.387541,132.401426 C261.49069,126.558938 260.821702,120.681465 259.919138,114.838976 C259.356782,111.199905 257.471682,109.229933 255.19052,109.509813 C252.533608,109.836127 250.875735,112.096792 250.971577,115.6519 C251.059802,118.92522 251.468558,122.189634 251.573286,125.462954 C251.61962,126.913876 251.648182,128.596335 250.981098,129.773737 C250.358443,130.872265 248.880829,131.817495 247.625365,132.07702 C247.02683,132.200421 245.574605,130.688435 245.357533,129.725395 C244.361666,125.310293 243.598106,120.838579 242.883418,116.365593 C242.187137,112.005831 241.676827,107.616173 241.021802,103.248778 C240.900572,102.440943 240.63907,101.562502 240.168747,100.916871 C238.872026,99.1377268 238.08752,96.4248022 234.944417,97.439366 C231.829241,98.4450246 229.709296,101.274354 229.874322,104.27988 C230.019037,106.92029 230.185332,109.567697 230.534425,112.18648 C230.874631,114.743563 229.792444,116.522707 227.799442,117.808245 C225.267569,119.439817 222.793454,118.430342 222.00387,115.539948 C221.752523,114.622706 221.586228,113.682565 221.391371,112.750692 C220.944533,110.612157 220.3625,108.478711 217.710665,108.305058 C215.982974,108.191834 213.828755,111.440983 213.879532,113.872119 C213.903651,115.031076 214.455853,116.31407 214.10676,117.308915 C213.723393,118.403626 212.335273,120.133791 211.815443,119.993215 C210.560613,119.652271 209.252468,118.576642 208.533337,117.436769 C207.731059,116.165861 207.317225,114.520931 207.167433,112.996223 C206.939571,110.693577 205.905622,109.85521 203.66889,110.121096 C201.206835,110.413697 199.357279,111.517314 199.134494,114.085846 C198.964391,116.061542 199.503898,118.089397 199.471527,120.090537 C199.447408,121.531917 199.001839,122.965028 198.74351,124.401956 C198.311905,124.452843 197.87903,124.503094 197.446155,124.554618 C196.874913,123.102424 196.219888,121.677582 195.749565,120.19422 C194.743544,117.016313 194.024413,113.732816 192.824803,110.633784 C191.728018,107.79873 189.167582,108.260532 186.870553,108.810114 C184.684598,109.33298 184.370415,110.853235 184.595738,112.95615 C184.692849,113.859398 183.535131,114.897497 182.948021,115.873895 C181.954059,115.115676 180.626237,114.551464 180.047378,113.552166 C179.22352,112.130504 179.379025,109.955076 178.322226,108.904891 C177.22671,107.815269 174.606611,106.766356 173.689449,107.345834 C172.303234,108.22173 171.366397,110.45059 171.071889,112.242456 C170.78119,114.008879 171.683119,115.939412 171.778961,117.812062 C171.930022,120.784511 170.168691,122.789467 167.367064,122.887425 C164.400412,122.99238 164.13764,120.756523 163.935801,118.559468 C163.839325,117.50483 163.988482,116.338877 163.579727,115.424815 C163.11702,114.392441 162.232229,112.958694 161.384251,112.850559 C160.46582,112.733518 158.892365,113.718186 158.475358,114.624614 C157.8051,116.080624 157.588662,117.876307 157.647691,119.512331 C157.775903,123.09161 158.206239,126.660076 158.491225,130.234267 C158.558505,131.074542 158.545811,131.921178 158.554697,132.764633 C158.58072,135.233935 157.066928,136.791084 154.923499,136.614251 C153.915573,136.530923 152.495718,134.468719 152.267221,133.131657 C151.361484,127.823485 151.000967,122.423716 150.13966,117.106638 C149.639506,114.013967 148.748367,110.952466 147.709976,107.990194 C146.799796,105.39431 144.535771,104.852361 142.196851,106.3688 C139.882049,107.869336 138.741468,110.060667 138.825885,112.797127 C138.966792,117.341355 139.283514,121.880495 139.383164,126.425359 C139.449809,129.457601 138.080731,130.681438 135.320995,129.983647 C134.443186,129.761652 133.560934,128.717828 133.11346,127.831118 C132.509213,126.63336 132.543487,125.101655 131.897983,123.938882 C131.218839,122.714409 130.061121,121.755821 129.112859,120.681465 C127.677136,122.197267 125.261415,123.568678 125.011338,125.261314 C124.506105,128.674574 125.197944,132.262758 125.361065,135.780337 C125.519109,139.190416 123.448672,141.814924 120.08088,142.01402 C119.121193,142.070633 117.487439,141.167384 117.203722,140.343648 C116.115188,137.188004 115.309736,133.913412 114.667406,130.630551 C114.040943,127.425929 113.899402,124.124621 113.253263,120.924451 C112.683925,118.104027 110.477025,117.462848 107.895008,117.71474 C105.797914,117.918289 104.696685,119.011728 104.516426,121.170618 C104.114018,125.976279 102.838243,127.771326 100.19339,127.471091 C97.4196906,127.156862 94.9392287,122.778018 95.3949533,119.158029 C95.6050436,117.485112 95.7865718,115.777209 95.6850176,114.102384 C95.4736578,110.617882 92.8852946,108.971681 89.4940184,109.734989 C83.7879406,111.019255 78.8409806,117.717284 80.0031417,124.221306 C81.1342018,130.548495 81.561999,137.003538 82.2671661,143.40515 C82.6765566,147.122461 81.3715848,150.028757 77.9555547,152 C75.2078783,150.545898 73.4941509,148.366653 73.2535943,145.09715 C72.7096445,137.715959 72.3053318,130.317595 71.475126,122.968209 C71.1393624,120.000212 70.1339756,117.009316 68.9058042,114.267131 C67.3659883,110.829064 64.9623269,110.939744 62.7674863,114.046408 C60.7935261,116.840752 61.2206885,119.912432 61.4891725,122.925591 C61.7881227,126.281602 62.5523183,129.596268 62.8531726,132.95228 C62.9471103,134.001193 62.4888469,135.700826 61.7589259,136.075483 C60.7757541,136.579902 58.892558,136.586899 58.0794895,135.941268 C54.6234725,133.200355 54.5396902,129.140192 54.9014771,125.223784 C55.27215,121.211328 54.469237,117.716648 52.0604978,114.473861 C50.9910049,113.033753 49.781875,112.945336 49.01641,114.165993 C47.7730055,116.15123 46.0072315,118.313301 47.492462,120.881197 C48.876773,123.274804 47.4061409,125.152542 46.7003391,127.165768 C46.5657797,127.550602 45.5521417,128.033395 45.2468443,127.876917 C44.2757321,127.378858 42.8101777,126.715416 42.6654629,125.912034 C41.6258016,120.121069 40.5886791,114.303389 40.0770997,108.448815 C39.1942127,98.3407058 46.0757806,91.5364493 51.4080119,84.3728018 C57.6212261,76.0266628 64.5231049,68.1684049 71.4649706,60.4011079 C76.9298571,54.2851009 82.9520224,48.6716052 88.6339811,42.7451531 C90.5216201,40.7764541 92.4187799,38.7072528 93.7948396,36.3772545 C97.4349237,30.2135408 100.965837,23.9690436 104.136233,17.5553465 C104.90741,15.9950173 104.214303,13.6529333 104.016907,11.6880508 C103.907101,10.5952479 103.430431,9.5393382 103.705262,8 C107.700786,10.4852043 111.696945,12.9710446 115.957144,15.6209963 C112.879417,18.299572 112.718199,21.4692093 114.869245,24.5173533 C117.005692,27.5451425 120.539144,28.1354342 123.899319,28.0330237 C126.003396,27.9687786 128.04527,26.673699 130.171562,26.1762765 C131.268347,25.9192961 132.598707,25.9371066 133.600921,26.3613787 C134.007138,26.5331231 134.090285,28.1933184 133.849094,29.0418627 C133.199147,31.3305151 133.949379,32.5250924 136.115022,33.4378818 C141.84395,35.8531162 147.509406,38.4216483 153.155821,41.0251653 C157.654673,43.1000914 160.449953,41.2942315 160.281753,35.7608831 C163.363924,37.7442122 166.201095,39.5704271 169.033188,41.3934615 C167.014798,45.3117769 166.274722,49.2339089 171.3372,51.7591869 C173.828452,53.002107 175.936971,55.0515896 178.141333,56.8313698 C181.274915,59.3604643 187.369438,58.1951472 190.814665,54.2914618 C191.505233,53.5090709 192.057434,52.6039146 192.913029,51.4252395"/>
    <path fill="#000" d="M15.0942206,94.1468276 C16.0674818,94.5287166 17.5177054,93.7807137 18.4007305,94.2434501 C22.0250005,96.1430358 25.517139,98.30554 29.0550401,100.377337 C31.3180336,101.702446 33.5745815,103.038729 36,104.467034 L36,108 C33.9516397,107.811356 31.9915819,107.704874 30.052794,107.438669 C24.303463,106.647942 18.4729194,106.183891 12.8466962,104.841035 C8.46766538,103.796592 4.45731362,101.495398 3,96.5354416 C6.60042188,92.6863157 9.94689349,92.1269567 15.0942206,94.1468276 Z M73.0779957,51 L74,51.2463546 C73.6473172,52.5077408 73.6260402,54.0117012 72.8794102,54.9838884 C70.7156016,57.8027903 68.2068473,60.3652565 65.9308507,63.1060306 C61.0216615,69.019802 56.2182127,75.0192619 51.2548638,80.8889289 C50.4398894,81.8535554 49.0304479,82.3380738 47.1690309,83.4954995 C45.7118773,86.049775 43.7511675,89.4836184 41.7440351,93 C38.9638376,90.009721 40.0083459,87.2519352 41.4332616,84.3826283 C42.4100704,82.4155716 43.1038302,80.3111611 43.8620659,78.2464446 C44.06452,77.6957696 44.2527894,76.9976598 44.083218,76.4816382 C42.4855071,71.6244824 44.6686585,67.9732673 49.6939041,67.2209721 C46.6919098,74.8321332 43.6841126,82.4546355 40.6763155,90.0777678 C45.9491483,86.2929793 45.2682836,79.8682268 47.9717549,74.9789379 L49.0717124,75.3569757 L49.0717124,75.3569757 C48.5494583,76.9875788 48.0272041,78.6181818 47.4366055,80.4611161 C47.7138516,80.6734473 48.2625408,81.0943294 49.1200693,81.7527453 C49.9015163,80.149865 50.9266819,78.7523852 51.2722723,77.209991 C52.4431532,71.9836184 55.5444403,67.8207921 58.6631359,63.6485149 C59.6380104,62.3442844 60.4845779,61.1515752 58.3568757,60.2329433 C56.0744316,62.6561656 53.8197121,65.049775 50.8854173,68.1654365 C51.3638279,65.5116112 51.606257,63.8142214 52.0247051,62.1590459 C52.1033656,61.8471647 52.9312352,61.7690369 53.3271168,61.4722772 C54.9847902,60.2316832 57.9784027,59.9563456 56.8017189,56.6359136 C56.5644479,55.9667867 57.2678791,54.9788479 57.5270719,54.1723672 C61.0590575,54.8162916 63.95918,55.7928893 63.6284191,60.3614761 C63.9134022,60.1478848 64.1983853,59.9342934 64.4833685,59.7213321 L64.4833685,56.5754275 C67.9779581,58.2148515 71.1579057,56.1142214 73.0779957,51 Z M54,29 C52.5044148,32.6225901 50.61904,36.1435469 49.6217691,39.8950841 C48.6122973,43.6898155 48.4812972,47.7125865 47.9341788,51.8789144 C49.1555627,51.2221096 50.2562209,50.6307311 51.3536683,50.0399879 C52.989886,52.8476063 52.3316744,54.7049539 48.7021994,57.4877993 C48.3933216,56.8278184 48.0934339,56.1856233 47.5732862,55.0740097 C45.5999358,58.8458736 43.8648258,62.1610231 41.9800931,65.7632865 C43.0152512,65.5352469 43.8211591,65.3573887 45.4207738,65.0042132 C44.8775084,66.4874234 44.7978809,67.7375123 44.1242575,68.3720849 C40.517258,71.771717 37.824691,75.711911 35.3690801,80.016079 C33.5061808,83.2823175 31.8429925,86.3363966 31.9264729,90.1273167 C31.7935463,90.4004561 31.6606197,90.6729602 31.5270509,90.9460996 C28.4055226,91.6988208 25.2660138,93.0715049 22,90.5414722 C22.1810885,89.7341231 22.0757746,88.3804953 22.6357361,88.0088987 C25.6628672,86.0022773 24.6495425,83.504005 24.2276449,80.7395807 C23.9014288,78.5995656 24.5808316,76.2734347 25.0065821,74.067358 C25.5286563,71.3664545 27.055065,71.5633689 29.0984107,73.1215336 C28.6373415,73.8920407 28.1859046,74.6473027 27.7344678,75.4025648 C28.0131642,75.3625467 28.2925028,75.3225286 28.5718414,75.2825105 C28.8062289,76.4201677 29.262803,77.5660826 29.2197785,78.6929412 C29.1658372,80.1018321 28.7021994,81.4948428 28.4151549,82.8948408 C28.7477926,82.9774178 29.0810724,83.0599948 29.4143522,83.1425718 C30.7776529,77.4943041 32.1415958,71.8466715 33.5350779,66.0726327 C30.4758388,62.5211859 31.2900947,58.9792672 35.6606197,56.6137534 C37.9678921,55.3649348 40.1929684,53.8569515 42.1586129,52.134268 C43.9643603,50.5526006 45.4830631,48.6031478 46.888104,46.647343 C47.3106438,46.0591406 46.9266335,44.9056032 46.9118639,44.0112307 C46.1310002,44.2729363 45.1619843,44.3358218 44.6116552,44.8427177 C43.7042864,45.6786511 43.067266,46.8023337 42.0134853,48.209319 C41.7713919,46.8753826 41.1491411,45.6703934 41.5215926,45.0910839 C42.696741,43.2629559 44.244341,41.6685843 46.0828383,39.4612372 C45.8516616,34.6476325 51.4544871,32.8506297 54,29 Z M80.462101,35 C80.155693,36.3708226 79.848648,37.7416452 79.4180205,39.6664524 C80.5608395,38.7904884 81.3730437,38.1683805 82.1852478,37.5456298 C82.4566195,37.6619537 82.7279912,37.777635 83,37.8939589 C82.0909684,39.783419 81.6233936,42.1786632 80.183722,43.4614396 C76.8973211,46.3868895 73.1337902,48.7679949 70.0722584,51 C69.7887832,49.905527 69.0167115,48.1902314 69.0001489,46.4678663 C68.9867714,45.06491 69.8773294,43.6529563 70.6054465,41.5623393 C71.7208735,42.8618252 72.1508639,43.3624679 72.4547238,43.716581 C77.4368795,42.8926735 77.31266,37.6947301 80.462101,35 Z"/>
    <path fill="#FEFEFE" d="M21.3996777 72.2056966C14.6713426 73.6884628 15.2661692 80.6331597 11.0728979 84 10.318468 77.2217297 15.5872987 74.1946507 19.1357471 70.2249067 20.2311767 69.0002586 21.6554276 68.0575936 22.9117424 67 25.7102478 71.4991688 22.5367709 74.3120913 19.8530003 77.2939525 20.3446297 75.6755329 20.8369 74.0577413 21.3996777 72.2056966M65.668326 38.6718199C64.0464874 39.1832875 63.1890004 42.4033369 61 40.287179 61.294179 39.3194697 61.5446809 38.5557199 61.7579285 37.7819291 62.3430751 35.6544749 62.5209956 33.3079996 63.5898033 31.4491444 64.8692894 29.2250448 65.9997591 29.584641 67.0486552 32.3653931 67.6305901 31.6367871 68.1502208 30.9859995 68.6698515 30.3352119 68.7796869 30.4098924 68.8895223 30.4858281 69 30.5605086 67.9870735 33.098392 66.9741469 35.6362754 65.9631473 38.1685107 65.90277 38.3492502 65.8038539 38.5186934 65.668326 38.6718199M32 91.0834633C32.1233123 90.815233 32.2460319 90.5476265 32.3687514 90.2793962 33.807593 89.8651987 35.2470276 89.4510012 36.8121459 89 38.993233 92.1888217 37.5703982 95.4587362 37.2229894 99 34.411705 97.5409519 34.411705 97.5409519 35.841654 92.4296051 32.7072675 94.107604 32.1725187 93.9198428 32 91.0834633M96 23C95.8115747 29.2379545 92.0556303 33.3713221 89.100643 38 88.7339614 37.7623025 88.3672798 37.5252473 88 37.2881922 89.4182743 35.0242837 90.923284 32.8169086 92.2291012 30.480406 93.5863616 28.0520365 94.7510094 25.4983939 96 23M15 89.0887327C16.1012743 87.6536196 17.351442 86.0236557 18.9034205 84 19.8772636 85.9790994 20.9382964 88.1370891 22 90.2950789 21.787391 90.5298309 21.574782 90.765248 21.362173 91 18.8765929 90.2531826 16.3910127 89.5063652 15 89.0887327M84 37C84.7289493 32.2768836 85.5511364 27.5303947 91 25L84 37zM63 21.8549374C62.0814723 24.0463141 61.1622736 26.2376907 60.4235599 28L56 28C57.9967411 25.5566822 59.8579507 23.2783411 61.7191604 21L63 21.8549374zM99.3607366 20C99.7034029 18.8175416 100.046069 17.634443 100.400782 16.4110115 99.7542674 16.4551857 99.222867 16.4923175 99 16.5070423 99.4517573 13.978233 99.9075303 11.421895 100.33921 9 102.771337 12.4302177 102.60402 16.3751601 99.3607366 20M66 38.5131944C66.1176582 38.3649306 66.2035319 38.2008681 66.2559484 38.0258681 66.922864 37.3690104 67.5914525 36.7060764 68.3040931 36 69.5475896 39.4368056 69.3211951 40.2182292 66 43L66 38.5131944zM41 46.5948283C39.6749969 49.0634284 38.351231 51.5320286 37.0262279 54 36.6841519 53.8176531 36.3426945 53.6346774 36 53.4517016 37.3008784 50.9680107 38.6017568 48.483691 39.9020166 46 40.2682172 46.1980665 40.6337993 46.3967618 41 46.5948283M136 26C138.590705 27.1396486 140.295698 27.8887883 142 28.6379279L141.982009 29.6239812C140.339984 29.7485963 138.697959 29.8732114 137.020644 30 136.766694 29.0067017 136.521739 28.0445571 136 26M64 9.1687575C65.6780466 7.44605651 67.3554149 5.72270099 69.0334615 4 69.355641 4.29191666 69.6778205 4.58383332 70 4.87574997 68.3124576 6.58339697 66.6255935 8.29169848 64.9387294 10 64.6253674 9.72248282 64.3126837 9.44562016 64 9.1687575"/>
    <path fill="#231F20" d="M130.577603 44.1842456C130.348698 43.9524921 130.119149 43.7207386 129.889599 43.4889852 128.629655 44.3837214 127.278793 45.179688 126.156836 46.2229014 125.733201 46.616043 125.839594 47.5798534 125.704185 48.2841515 126.396703 48.1414843 127.325219 48.2312162 127.735958 47.8116068 128.804396 46.7219137 129.645863 45.4082137 130.577603 44.1842456M140.800304 53.0986844C140.505629 52.9786116 140.211599 52.8578932 139.917569 52.7371748 139.007753 53.9411308 137.861294 55.0456717 137.294512 56.3942315 137.036591 57.0081523 137.925774 58.105592 138.294601 58.9835439 139.018715 58.5348847 140.205796 58.215336 140.373445 57.6110986 140.773223 56.1786169 140.689398 54.6112147 140.800304 53.0986844M148.55728 50.453209C150.514256 56.6130739 148.171043 61.72908 144.609798 66.5487773 150.170576 61.6916379 151.795479 54.9830531 148.55728 50.453209M135.197614 72.8267785C125.419182 71.9727121 119.183296 63.8839353 120.086664 53.4627762 120.906209 44.0093008 130.32742 39.5091521 138.633123 40.0423787 147.837035 40.6337051 153.951054 47.2628869 152.878102 55.6854145 151.571087 65.9535776 146.281127 74.3199421 135.197614 72.8267785M212 78.0539242C210.98918 89.5776757 205.999616 91.6560926 195.858834 91.9986957 194.722141 92.0373256 193.497273 91.2096319 192.411058 90.6105513 190.949778 89.8056556 189.64568 88.7132518 188.164593 87.9526855 183.440833 85.5253327 182.399343 76.5935862 186.79085 73.6285808 189.167745 72.0244888 192.089027 70.4545937 194.840347 70.3133728 200.032458 70.0473963 205.791958 68.8929313 209.86335 73.697608 210.87992 74.8964024 211.304183 76.58852 212 78.0539242M72.1902168 103.989061C70.5210891 103.862929 68.0013483 104.202855 65.9232843 103.41516 59.8508694 101.114511 56.0901963 93.1000798 61.8795015 86.6648215 66.4734545 81.5589954 72.5895235 80.196769 79.3238118 81.4196194 79.7924515 81.5047586 80.4292879 81.7822491 80.6090401 82.1486628 83.0774232 87.1983602 85.36798 92.3300435 83.0157939 98.0513942 81.2311112 102.390968 78.0649043 104.157448 72.1902168 103.989061M143.680069 83.2617965C139.163074 84.1922617 135.150308 85.0188491 131.137542 85.84607 131.18222 86.2096418 131.22626 86.573847 131.270939 86.9380523L136.986594 86.9380523C137.737831 84.2308991 139.051378 85.8980088 140.188126 87.3516627 141.474867 86.8234068 142.575234 86.3711589 143.675601 85.9189111 143.445188 85.7789296 143.214136 85.6383147 142.983085 85.4983332 143.127332 85.0365843 143.270942 84.5742021 143.680069 83.2617965M149 83.42078C147.778363 86.2539799 146.821605 88.7774469 145.571245 91.1488979 145.277644 91.7056568 143.914312 92.1211675 143.177117 91.9678846 136.791285 90.6440778 130.380561 89.3785439 124.094936 87.6664627 120.784899 86.765134 116.810428 81.0296936 117.007014 78.6196052 117.188919 76.3906693 118.415662 75.6723933 120.454278 76.132242 125.796548 77.3388697 131.146477 78.5207948 136.456196 79.8585364 140.422369 80.8580421 144.331737 82.085572 149 83.42078M162.424203 58.2570066C164.073873 58.1516506 164.991678 58.0929794 166.265085 58.0115966 165.664067 56.5624795 165.24398 55.549927 164.823893 54.5373745 164.491455 54.4717636 164.159017 54.4055219 163.826579 54.3392801 163.424022 55.464759 163.020839 56.5902379 162.424203 58.2570066M164.91342 75.549258C165.259631 75.2130022 165.607095 74.8767465 165.953933 74.5404907 165.312847 73.744328 164.799477 72.7235741 163.976207 72.2478953 163.579285 72.0182572 162.598248 72.8150508 161.881408 73.1468905 162.89187 73.9474693 163.902332 74.7486791 164.91342 75.549258M162.374118 75.9227353C162.033541 76.1145209 161.69359 76.3056757 161.353639 76.4974613 161.065651 77.6443899 160.778289 78.7913185 160.490927 79.9382471 160.753873 80.1994289 161.017444 80.4606107 161.281016 80.7217924 162.215098 80.0246768 163.544225 79.4966355 163.935513 78.5673583 164.170912 78.009035 162.943833 76.8255157 162.374118 75.9227353M159.730264 54.0143801C161.940884 53.4207278 164.365617 52.7696661 167.231097 52 169.116165 62.4024784 170.763957 72.079452 165.105621 81.3570824 163.515426 83.9651147 161.629106 82.8093539 159.705221 82.3097018 157.549694 81.7507476 157.953503 80.2196169 158.202676 78.5667274 159.070396 72.8005407 159.951263 67.0286761 160.522856 61.2290531 160.730082 59.1276124 160.08211 56.9410038 159.730264 54.0143801M105.221081 53.1053861C106.292704 52.3379961 107.105789 51.7557276 107.892645 51.192676 106.556238 48.2288081 104.943808 48.6189087 102.987284 50.6232188 103.679218 51.39189 104.354915 52.1426255 105.221081 53.1053861M101.75829 56.9628343C102.470832 55.9859814 103.004145 55.2551032 103.608026 54.4275006 102.824293 53.5217497 102.159836 52.7543596 101.230597 51.6801416 100.462475 52.958698 99.8554721 53.9682195 99.2097506 55.0424375 100.145859 55.7476933 100.802197 56.2422051 101.75829 56.9628343M96.5132073 60.4929567C96.6693295 60.7517427 96.8254518 61.0111692 96.9821985 61.2699551 98.1537398 60.8119552 99.3259055 60.3533148 100.498071 59.8953149 99.9147986 58.8492815 99.3315259 57.8038887 98.7488777 56.7584959 98.4166496 56.8821238 98.0844215 57.0051112 97.7521934 57.1287392 97.3394062 58.2503585 96.9259945 59.3713373 96.5132073 60.4929567M95.769441 61.6485257C96.3214892 64.0230791 96.5513011 65.3823459 97.0496433 66.6275933 97.1033494 66.7633918 98.9643264 66.5161359 99.5151256 65.9562871 100.035325 65.4284662 100.344447 63.7271407 100.027207 63.4670736 99.1329384 62.7355549 97.8689728 62.4799717 95.769441 61.6485257M94.0302393 63.8206623C94.5085978 56.9058245 97.0465209 51.1299012 103.279545 47.6471802 105.684452 46.3032868 108.585203 47.1123132 109.863532 49.518254 110.270699 50.2862846 109.655577 51.6385053 109.461985 52.7146449 109.435132 52.8619736 109.147243 52.9759931 108.964268 53.0746393 101.10445 57.288879 101.663992 64.1537532 104.72711 71.0749966 105.244187 72.2420957 105.749399 74.5923078 105.407179 74.7825539 103.704822 75.7293006 101.969367 76.7599605 99.7343213 75.1873874 95.7575757 72.3900649 93.7236152 68.8452096 94.0302393 63.8206623M224.016167 81.0246014C224.090608 81.3577382 224.164412 81.690875 224.239488 82.024638 225.326823 82.3790655 226.414159 82.7328669 227.500858 83.0866682 227.73754 82.870004 227.974221 82.653966 228.210903 82.4366757 227.715271 81.5963193 227.386971 80.2975867 226.677562 80.0471079 225.996149 79.8066483 224.918993 80.6551452 224.016167 81.0246014M224.925355 88.0881036C225.464251 87.8307366 226.003784 87.5733697 226.543316 87.3160027 226.149483 86.3629309 225.966882 85.1931949 225.277833 84.5438286 224.903723 84.1906535 223.667508 84.7229209 222.820671 84.8556747 223.522445 85.9327335 224.223582 87.0104186 224.925355 88.0881036M225.893078 74.3850347L224.980072 75.0594488C225.101594 76.2197919 223.997716 77.9136547 226.504505 78.0495395 227.08412 78.0808493 227.704455 77.4045566 228.305702 77.0538863 227.50213 76.1646865 226.697286 75.2748606 225.893078 74.3850347M220.273799 87.3692294C220.074656 89.1783126 219.944863 90.3536843 219.814434 91.5290561 221.235159 91.0882134 222.655885 90.6473707 224.776475 89.9892377 222.951737 88.9278338 222.062272 88.4099688 220.273799 87.3692294M215 91.1589737C219.841156 85.572044 224.172046 80.9482054 220.755434 73.1094714 223.726042 73.0825449 226.474602 72.8427115 229.151266 73.1720911 229.884852 73.2628896 230.867208 75.0275128 230.939103 76.0776451 231.30685 81.4353867 230.026097 86.5113395 226.631753 90.7287763 225.349728 92.3224477 223.049082 93.8785472 221.121272 93.9950199 219.284445 94.1064829 217.327369 92.3218215 215 91.1589737M116.167938 39.3926693C116.202663 35.0095394 111.615674 31.3452975 108.486515 32.2885935 106.833192 32.7876402 106.011997 34.0884232 107.01518 35.8354126 107.925118 37.4199673 108.803546 39.1043313 110.058168 40.3777156 111.083215 41.4182116 112.984761 42.8018429 113.881195 42.4437035 115.121669 41.9479186 115.783384 39.9621696 116.167938 39.3926693M119 38.2941143C118.285554 39.7866878 117.666924 41.638053 116.601364 43.1710722 115.157038 45.2488023 113.065144 45.6441255 111.112796 43.9023549 109.071062 42.0809977 107.105209 40.1187333 105.405586 37.9744636 104.147106 36.3879519 103.26932 34.4726565 104.854478 32.3733989 106.522591 30.1632419 108.582331 28.8774629 111.379025 29.0092373 111.791874 29.0288078 112.333335 29.0372883 112.587346 29.2884425 114.510757 31.1861245 116.464391 33.0674977 118.210315 35.1263098 118.754349 35.7675684 118.688756 36.9398387 119 38.2941143M85.1533138 65.7923291C85.2893697 63.1340677 83.8134457 61.6634181 80.8672407 61.5225366 78.510402 61.4097039 76.171119 63.5936856 76.0776981 65.994408 75.9823963 68.4384785 79.2615307 72.4207708 81.5387422 72.6266745 83.5450959 72.8070793 84.927599 70.193441 85.1533138 65.7923291M86.9602861 66.0944912C86.5057216 71.4371503 84.4191137 74.2847411 81.1813604 73.9774793 77.1648911 73.596908 73.5967164 69.1671099 74.0368602 65.1089583 74.3246466 62.4545217 77.7429717 59.8185719 80.6496767 60.0098137 85.4737034 60.3279126 87.3007393 62.0898873 86.9602861 66.0944912M248.60925 85.2976579C247.095476 83.8039249 246.123771 82.046378 244.905215 81.8680761 243.687914 81.6903807 242.223134 83.0949628 240.867647 83.8057443 242.405289 85.2873479 243.904616 86.8144367 245.577305 88.1377519 245.677177 88.2165929 247.162057 86.6634259 248.60925 85.2976579M250 85.6014988C249.989862 88.1274419 248.01379 90.0748137 245.538362 89.9977921 242.583048 89.9056089 238.045495 86.1018357 238.00027 83.6783859 237.965095 81.7880222 241.372657 80.0213782 245.093651 80.0001518 248.40197 79.9807448 250.013731 81.8219845 250 85.6014988M103.272729 87.3005863C102.552253 87.4056045 101.668921 87.2794506 101.141918 87.659894 99.7283264 88.6810147 97.2183864 90.2041093 97.3981797 91.0125515 97.8085774 92.8573058 99.4449566 94.5118383 100.85008 95.981433 101.267643 96.4186788 102.91184 96.3248889 103.378911 95.8506556 103.860966 95.361231 103.784098 94.0732716 103.606259 93.208027 103.399757 92.2034186 102.818035 91.2774088 102.326209 90.1499489 105.400283 91.0984155 106.571545 93.0105399 105.740327 95.366515 104.941028 97.6293607 102.679281 98.5461236 100.145238 97.6749346 97.1323984 96.6392831 95.0341589 94.7073439 95.0002848 91.3533654 94.9709706 88.3613365 97.2092665 86.9604329 99.6729553 86.1704845 100.751715 85.8243866 102.029159 86.1123612 103.216055 86.1123612 103.234946 86.5079959 103.253838 86.9042911 103.272729 87.3005863"/>
    <path fill="#FEFEFE" d="M148.228985 51C151.698106 55.5029479 149.957329 62.1717002 144 67 147.815205 62.2082782 150.325517 57.1232904 148.228985 51M140 53.3472509C139.906329 54.800124 139.977127 56.3057048 139.640022 57.6816866 139.497882 58.2620918 138.495281 58.5690368 137.8837 59 137.572191 58.1566763 136.821193 57.1025217 137.039031 56.5121951 137.517731 55.2174452 138.486568 54.1564696 139.254993 53 139.503328 53.1153369 139.751664 53.2312939 140 53.3472509M131 44.7249596C130.044059 46.0012116 129.180736 47.3710285 128.084546 48.5072698 127.663138 48.9448034 126.710505 48.8512386 126 49 126.138926 48.2656166 126.02977 47.2606354 126.464409 46.8507001 127.615507 45.7629241 129.001455 44.9329564 130.294125 44 130.529637 44.2416532 130.76515 44.4833064 131 44.7249596M143 83C142.60857 84.2835682 142.471172 84.7357906 142.333164 85.1873935 142.554221 85.3242992 142.775279 85.4618244 142.995725 85.5987301 141.942955 86.0410407 140.890184 86.4833514 139.659101 87 138.571523 85.5782871 137.314793 83.9478086 136.596051 86.5954778L131.127627 86.5954778C131.084881 86.2392752 131.042746 85.8830726 131 85.5274895 134.839194 84.7184451 138.678388 83.9100201 143 83M162.168189 76C162.824124 76.940581 164.236907 78.1736558 163.965884 78.7553569 163.515379 79.7235441 161.985104 80.2736953 160.909659 81 160.606199 80.7278822 160.302739 80.4557644 160 80.1836466 160.330851 78.9886946 160.661701 77.7937426 160.993273 76.5987906 161.384671 76.3989746 161.77607 76.199816 162.168189 76M164.978017 75C163.98555 74.2812794 162.992467 73.5619924 162 72.8432718 162.704689 72.5453623 163.66764 71.8306063 164.058109 72.0367641 164.866103 72.463239 165.370945 73.379622 166 74.094378 165.659339 74.3968184 165.318678 74.698126 164.978017 75M162 58C162.621353 56.2982287 163.041239 55.1491143 163.460473 54 163.806683 54.0676329 164.152893 54.1352657 164.499104 54.2022544 164.936593 55.2360709 165.374083 56.2698873 166 57.7494364 164.673839 57.8325282 163.718011 57.8924316 162 58M96 61C97.9142707 61.8288631 99.0676174 62.0836524 99.882649 62.8128987 100.172552 63.0721579 99.8906228 64.7681983 99.4161843 65.2950181 98.9138378 65.8524893 97.2165672 66.0989771 97.167016 65.9636003 96.7130815 64.7222213 96.5034857 63.367177 96 61M97 60.311089C97.414982 59.3171944 97.8293371 58.3227318 98.2436922 57.3288371 98.5778091 57.2192248 98.9106723 57.1096124 99.2441624 57 99.8296505 57.9274457 100.414512 58.8543234 101 59.7812012 99.8233819 60.1878461 98.6467638 60.593923 97.4707726 61 97.3134305 60.7705523 97.1567152 60.5405367 97 60.311089M101.31833 56C100.448814 55.3179338 99.8513418 54.8498848 99 54.1823693 99.5878177 53.165636 100.139855 52.210137 100.838421 51 101.683516 52.0167334 102.287803 52.7430581 103 53.6003395 102.45137 54.3836547 101.96635 55.0754214 101.31833 56M105.276894 53C104.394017 52.0517275 103.705283 51.3122894 103 50.5551856 104.994271 48.5810375 106.63781 48.1968073 108 51.1160734 107.197963 51.6706519 106.369192 52.244158 105.276894 53M220.46288 87C222.265034 88.0007527 223.161303 88.4987205 225 89.5193437 222.863188 90.1521903 221.431594 90.5760951 220 91 220.130786 89.8697877 220.262213 88.7395755 220.46288 87M225.911405 74C226.607604 74.9703302 227.303802 75.9413437 228 76.9123572 227.479504 77.2950226 226.942484 78.0330202 226.440714 77.9988536 224.270603 77.8505708 225.226223 76.0021601 225.120471 74.7359476L225.911405 74zM225.261494 88C224.507435 86.8232715 223.754059 85.6472267 223 84.4704982 223.90993 84.3255439 225.23825 83.744359 225.640916 84.1299923 226.381302 84.8390378 226.576824 86.1169609 227 87.1576238 226.42027 87.43796 225.841224 87.71898 225.261494 88M224 80.9926631C224.860913 80.6330127 225.888063 79.8070359 226.537843 80.0411135 227.214318 80.2849443 227.527378 81.5492069 228 82.3672591 227.774306 82.5787823 227.548612 82.7890864 227.322918 83 226.286668 82.655589 225.24981 82.311178 224.212953 81.9661575 224.141362 81.641253 224.070984 81.316958 224 80.9926631M115.999816 38.999881C115.638922 39.5494775 115.01792 41.4658256 113.853766 41.9442831 113.012485 42.2899056 111.227933 40.9546316 110.265952 39.9505004 109.088521 38.7216202 108.264138 37.0961239 107.410184 35.5669486 106.468723 33.8810156 107.239394 32.6256943 108.790995 32.144089 111.727631 31.2337608 116.032405 34.7699392 115.999816 38.999881M84.9914586 66.2289631C84.7678868 70.5837178 83.39851 73.1698266 81.4112057 72.991322 79.1556153 72.7875871 75.9076149 68.8472404 76.0020119 66.4289134 76.0945457 64.0534779 78.4116183 61.8925003 80.7460798 62.0041445 83.6643119 62.143542 85.1262226 63.5987013 84.9914586 66.2289631M249 84.8350859C247.504503 86.3555129 245.970061 88.0845597 245.866856 87.9967908 244.138337 86.523624 242.588966 84.8236085 241 83.1742288 242.40073 82.3829586 243.914402 80.8193224 245.172333 81.0171399 246.431562 81.2156326 247.4357 83.1722033 249 84.8350859"/>
  </g>
</svg>
