<svg xmlns="http://www.w3.org/2000/svg" xmlns:xlink="http://www.w3.org/1999/xlink" width="153" height="188" viewBox="0 0 153 188">
  <defs>
    <polygon id="3-a" points="0 .666 153.044 .666 153.044 188 0 188"/>
  </defs>
  <g fill="none" fill-rule="evenodd" transform="translate(0 -1)">
    <g transform="translate(0 .334)">
      <mask id="3-b" fill="#fff">
        <use xlink:href="#3-a"/>
      </mask>
      <path fill="#231F20" d="M6.1886,179.7568 C8.0356,179.7568 11.0166,179.8498 13.9906,179.7378 C21.5936,179.4538 29.2096,183.3168 36.8116,179.6668 C37.2066,179.4778 37.7906,179.6888 38.2876,179.7048 C49.4066,180.0618 60.5226,180.5308 71.6446,180.7368 C82.1456,180.9328 92.6506,180.7928 103.1536,180.9028 C114.6186,181.0218 126.0816,181.3318 137.5466,181.395134 C140.7606,181.4108 143.9786,180.8478 147.2356,180.5458 C146.8656,178.4028 146.7186,177.0218 146.3806,175.6868 C144.4316,167.9868 143.5246,159.7758 140.1476,152.7558 C136.8456,145.8908 131.0216,140.2358 126.2666,134.0768 C125.8056,133.4808 125.1566,132.8498 124.4696,132.6348 C119.2416,130.9998 113.9816,129.4638 108.1836,127.7348 C108.3656,126.8908 108.3856,125.3528 109.0176,124.1298 C110.8316,120.6208 113.0336,117.3118 114.8276,113.7928 C118.6246,106.3458 122.2606,98.4398 120.3236,90.0748 C118.3276,81.4548 114.8506,73.1258 111.4826,64.8898 C107.9116,56.1528 102.2566,49.5658 91.7116,49.5078 C91.0926,49.5048 90.4716,49.0788 89.8586,48.8328 C77.0576,43.6888 64.4386,45.6108 52.0666,50.2278 C45.9576,52.5068 45.8256,53.7078 48.2786,59.9878 C48.8726,61.5078 49.0896,63.1748 49.4756,64.7738 C43.5846,66.3378 41.5636,61.9498 39.2686,57.5088 C27.9836,65.3948 20.7456,75.2528 21.5436,89.0828 C22.1626,99.7948 23.9096,110.3618 31.7716,118.9068 C35.8646,123.3558 34.8366,126.1788 29.2786,128.2648 C26.8796,129.1648 24.3416,129.6948 22.4626,130.2248 C21.1186,131.9278 20.0106,133.3158 18.9186,134.7158 C15.4346,139.1848 11.6016,143.4328 8.5946,148.2018 C6.3596,151.7498 5.1066,155.9408 3.6236,159.9208 C3.2406,160.9488 3.1836,162.5778 3.7486,163.4018 C7.1636,168.3758 4.3726,173.6928 6.1886,179.7568 M37.2926,50.3428 C34.6726,44.7148 31.5306,39.3128 29.6166,33.5068 C27.3706,26.6908 20.7646,25.6838 16.1006,22.2768 C12.7886,19.8578 11.4686,17.4598 12.7066,14.0708 C14.2226,9.9178 17.4196,7.3378 22.1566,7.5838 C25.6246,7.7628 33.3836,14.3038 34.0866,17.7998 C34.4506,19.6078 34.7356,21.9678 33.8926,23.3848 C31.0996,28.0738 33.6016,30.9928 36.4296,34.2618 C37.8086,35.8558 38.7816,38.0128 39.3256,40.0758 C40.9256,46.1438 42.2616,46.7068 47.8826,44.5608 C51.1666,43.3078 54.9146,43.3308 58.3536,42.4068 C62.4656,41.3038 66.4636,39.7778 70.5276,38.4858 C72.1906,37.9568 74.5286,35.9398 74.4866,40.0268 C74.4856,40.1348 75.5396,40.3918 76.0816,40.3478 C80.6396,39.9778 84.7556,41.1988 88.8956,43.1008 C92.7666,44.8788 95.6286,43.0908 97.2146,38.9948 C99.3606,33.4558 102.1266,28.1128 103.7536,22.4358 C104.6126,19.4378 103.5466,15.9098 103.4916,12.6198 C103.4406,9.5188 102.4556,5.6688 103.9046,3.4968 C105.8476,0.5848 109.7926,-0.2822 113.5436,1.8488 C114.8936,2.6158 116.5346,2.8508 117.9636,3.5038 C121.5946,5.1618 122.4526,8.7448 120.3046,12.2138 C119.5446,13.4408 119.5946,15.4008 118.6066,16.2078 C116.5516,17.8868 114.0506,19.0198 111.6036,20.4538 C115.0826,23.6888 110.5646,26.1728 109.4966,29.1538 C107.8686,33.7028 105.1516,37.9148 103.9836,42.5438 C103.5966,44.0778 106.6466,46.4028 107.9706,48.4658 C109.1866,50.3578 110.1956,52.3808 111.6066,54.9028 C111.7416,54.9088 113.0326,54.9678 114.3236,55.0278 C114.1536,56.4858 113.9836,57.9448 113.9676,58.0838 C116.2336,61.4728 118.6266,63.8718 119.6056,66.7528 C121.9196,73.5578 124.1066,80.4958 125.3346,87.5568 C126.8306,96.1638 124.8466,104.5418 121.2996,112.5088 C120.7786,113.6798 120.3026,114.8708 119.8206,116.0588 C118.9636,118.1658 117.0216,120.6668 117.5906,122.2748 C118.1176,123.7618 121.4406,124.1248 123.3566,125.2758 C135.9136,132.8128 145.7346,142.6018 149.1806,157.4478 C150.5686,163.4268 152.0216,169.4068 152.9706,175.4608 C153.3146,177.6558 152.3586,180.0878 151.8316,182.3738 C151.5186,183.7308 150.8856,185.0138 150.2446,186.7378 C133.0176,187.1948 115.3416,188.0818 97.6716,187.9938 C84.7716,187.9308 71.8846,186.3448 58.9766,185.8998 C51.3996,185.6378 43.7166,187.0568 36.2176,186.3248 C26.1746,185.3468 15.6056,188.5078 6.0666,182.8338 C4.8426,182.1068 3.0366,182.3588 1.4536,182.1508 C-2.5654,165.2578 0.5186,135.5318 26.5736,122.5808 C19.3166,110.4848 15.4656,97.5568 16.1396,83.2428 C16.8006,69.2098 27.1176,54.3278 37.2926,50.3428" mask="url(#3-b)"/>
    </g>
    <path fill="#231F20" d="M65.17 108.2412C66.644 103.7082 70.106 104.7972 73.007 104.4432 81.94 103.3522 90.862 102.1752 99.774 100.9302 100.609 100.8142 101.345 99.9902 102.127 99.4942 102.563 99.8502 102.998 100.2072 103.434 100.5632 102.26 101.9882 101.33 104.2922 99.873 104.6962 88.729 107.7902 77.563 111.3052 65.17 108.2412M60.7589 93.791C59.9559 93.143 57.0789 91.97 56.5139 90.1 55.6209 87.14 60.5939 81.727 63.3819 82.245 66.5369 82.832 69.2499 84.57 69.2149 88.478 69.1849 91.902 66.8029 93.757 60.7589 93.791M100.9913 77.3125C105.1203 76.0585 105.4923 79.4355 105.4193 81.9735 105.3043 85.9395 101.8983 87.1325 98.7903 86.6225 96.6793 86.2755 94.0133 84.4565 93.1533 82.5815 92.0703 80.2225 96.4663 77.3715 100.9913 77.3125M83.4371 95.5146C82.3951 94.0636 80.4321 92.5276 80.5571 91.1846 80.6981 89.6636 82.5101 87.4386 83.9581 87.1066 85.9771 86.6446 89.0691 87.1476 88.4111 90.5456 88.0681 92.3216 86.5041 93.8596 85.4921 95.5046 84.8071 95.5086 84.1221 95.5116 83.4371 95.5146"/>
  </g>
</svg>
