<svg xmlns="http://www.w3.org/2000/svg" xmlns:xlink="http://www.w3.org/1999/xlink" width="188" height="188" viewBox="0 0 188 188">
  <defs>
    <polygon id="4-a" points="0 .722 187.855 .722 187.855 188 0 188"/>
  </defs>
  <g fill="none" fill-rule="evenodd" transform="translate(0 -1)">
    <g transform="translate(0 .278)">
      <mask id="4-b" fill="#fff">
        <use xlink:href="#4-a"/>
      </mask>
      <path fill="#231F20" d="M47.8156,75.166 C47.1766,74.733 46.5386,74.3 45.8996,73.868 C41.7466,74.453 37.2966,74.291 33.5076,75.795 C27.6336,78.126 24.7586,83.649 23.3446,89.499 C22.6626,92.322 22.4486,96.252 23.9026,98.419 C29.5076,106.776 35.2016,115.523 48.4616,115.637 C48.2416,111.571 48.1246,107.295 47.7536,103.041 C47.3186,98.058 46.2536,93.096 46.2266,88.12 C46.2036,83.805 47.2446,79.484 47.8156,75.166 M48.1356,68.732 C49.5246,59.378 48.2946,57.973 39.6716,58.574 C37.5326,58.724 35.3666,59.047 33.3016,59.615 C23.3566,62.347 15.1156,67.405 9.3396,76.329 C4.2326,84.218 5.3566,92.901 5.8966,101.311 C6.1556,105.333 8.1586,110.147 11.0046,112.933 C19.6866,121.423 29.4326,128.617 42.0146,130.479 C44.2216,130.805 46.8166,132.014 47.5326,128.459 C48.5516,123.391 46.7246,119.595 43.3236,118.892 C40.5036,118.31 37.1296,118.077 35.1196,116.371 C30.3726,112.342 25.9226,107.823 22.0256,102.963 C15.9486,95.383 14.7566,87.014 20.3216,78.488 C23.9496,72.931 28.2656,68.332 35.7816,68.697 C39.8156,68.893 43.8676,68.732 48.1356,68.732 M168.5106,35.872 C171.4686,31.439 171.8276,29.22 168.8686,25.531 C166.8326,22.992 164.4076,20.298 161.5516,18.97 C152.5646,14.789 144.6486,9.257 133.2306,9.687 C121.8196,10.117 110.1986,7.25 98.5016,9.318 C93.3966,10.22 88.0706,9.851 82.9526,10.705 C77.6226,11.595 72.4146,13.234 67.1666,14.598 C61.8886,15.97 58.2926,19.644 55.6286,24.04 C53.5386,27.489 55.5526,33.895 59.5316,36.456 C58.5336,30.344 63.0136,29.549 66.7816,27.514 C75.8106,22.635 85.4076,20.577 95.5176,20.224 C98.7846,20.11 102.0536,19.933 105.3086,19.635 C119.2916,18.357 132.9826,20.589 146.1656,24.641 C153.8826,27.013 160.8246,31.908 168.5106,35.872 M182.0656,106.17 C179.1796,83.407 176.5076,62.333 173.7106,40.263 C169.6066,42.932 166.7096,45.303 163.4236,46.848 C157.1536,49.797 151.4496,54.492 143.6556,53.23 C141.8046,52.93 139.6516,55.145 137.6266,55.168 C128.7226,55.271 119.8086,55.154 110.9116,54.807 C103.5296,54.519 96.1486,53.945 88.7976,53.199 C85.6296,52.877 82.5246,51.856 79.4156,51.054 C71.2206,48.94 63.0056,46.85 55.6846,40.817 C55.6846,43.349 55.8996,45.903 55.6436,48.409 C54.9046,55.661 53.5626,62.874 53.2266,70.138 C52.7996,79.338 53.1036,88.573 53.1426,97.792 C53.1796,106.512 53.1236,115.238 53.3946,123.952 C53.7326,134.771 53.8046,145.654 55.1796,156.356 C55.6496,160.006 58.9846,164.583 62.2816,166.312 C69.9856,170.354 78.3526,173.249 86.6556,175.991 C93.4966,178.249 100.5406,180.407 107.6526,181.206 C119.3136,182.517 131.3836,184.564 142.7636,182.854 C156.1926,180.838 168.2016,173.932 172.6176,159.256 C175.3536,150.16 177.5276,140.895 179.9476,131.705 C180.0746,131.224 179.9686,130.479 180.2626,130.274 C184.9506,127.005 181.6836,121.937 183.0796,117.928 C183.5156,116.675 183.4956,115.264 183.7556,113.421 C180.7956,110.313 181.0016,108.917 186.9136,104.478 C186.9136,108.836 186.9016,112.242 186.9186,115.647 C186.9286,117.879 186.7696,120.139 187.0626,122.335 C187.6576,126.795 189.0896,131.281 185.5376,135.242 C185.2306,135.583 184.9306,136.191 185.0186,136.589 C186.9976,145.562 182.0666,152.956 179.9916,161.073 C178.4116,167.251 175.2336,172.264 171.4336,176.259 C167.6416,180.245 161.7056,183.169 156.2306,184.363 C146.3786,186.511 136.1916,187.644 126.1036,187.982 C119.6866,188.197 113.1506,186.438 106.7496,185.159 C99.6956,183.749 92.6236,182.233 85.7566,180.119 C75.8896,177.081 65.9656,174.412 57.3846,167.832 C49.1756,161.537 48.5236,153.151 48.1276,144.271 C48.0046,141.54 48.1086,138.798 48.1086,135.768 C30.2716,134.729 16.9606,125.624 5.9496,113.059 C1.5436,108.031 -0.8584,101.542 0.2826,94.189 C0.9526,89.862 -0.4054,85.126 0.6936,80.984 C1.8986,76.437 4.1876,71.778 7.2126,68.184 C17.5866,55.859 30.7016,50.207 47.0006,53.887 C47.4616,53.991 47.9686,53.9 48.3986,53.9 C53.7586,47.061 51.0386,39.595 50.2096,32.347 C49.6826,27.748 47.5906,23.361 50.0166,18.562 C52.0906,14.457 56.5216,10.953 61.1516,10.769 C61.7636,10.744 62.4856,10.378 62.9386,9.942 C68.1816,4.905 75.0406,4.495 81.6356,3.484 C85.7116,2.859 89.8546,2.605 93.9766,2.359 C102.7406,1.836 111.5086,1.386 120.2796,0.99 C124.4606,0.801 128.6586,0.612 132.8316,0.799 C135.0216,0.897 137.2606,1.587 139.3286,2.393 C145.8966,4.95 152.5776,7.326 158.8536,10.488 C162.7216,12.437 165.8456,15.817 169.4726,18.309 C171.5656,19.747 174.1326,20.493 176.2216,21.934 C177.6436,22.914 179.4446,24.444 179.6466,25.924 C182.2266,44.79 184.7106,63.674 186.8386,82.596 C187.5126,88.588 187.3666,94.73 186.9176,100.753 C186.7946,102.403 184.2166,103.87 182.0656,106.17" mask="url(#4-b)"/>
    </g>
    <path fill="#231F20" d="M160.3654,112.6525 C160.0514,112.5975 159.7364,112.5425 159.4234,112.4875 C159.5024,110.9935 159.7064,109.4945 159.6374,108.0065 C159.3614,101.9825 157.9064,96.3165 152.3464,93.0515 C148.0064,90.5035 143.3664,88.3685 138.6654,86.5515 C128.1624,82.4935 117.2394,83.2015 106.2334,83.7405 C98.3814,84.1255 92.0374,87.3385 88.2844,93.4455 C84.8104,99.0965 82.6094,105.9315 81.4694,112.5255 C79.5104,123.8465 82.4194,134.8765 91.3124,142.1315 C101.5064,150.4465 113.8344,154.9905 127.3474,155.9975 C137.8934,156.7825 152.4454,149.5795 155.5024,136.8985 C157.4314,128.8915 158.7644,120.7395 160.3654,112.6525 M74.6083534,118.0615 C74.9244,105.7465 78.6904,95.2015 86.9004,85.3105 C92.2814,78.8275 98.8934,78.6695 105.1444,77.6175 C112.4444,76.3885 120.2344,77.3155 127.7134,78.1735 C132.6884,78.7435 137.4954,80.8105 142.3664,82.2455 C145.2494,83.0945 148.0594,84.2905 150.9954,84.8405 C155.3624,85.6575 158.9884,86.9705 160.8764,91.5925 C161.8554,93.9915 165.8034,93.9395 165.4854,98.2885 C165.0074,104.8275 167.5814,111.8395 166.1144,117.9975 C164.1194,126.3735 165.3964,135.8325 159.2524,143.0785 C157.0834,145.6375 154.8784,148.1655 152.6774,150.6965 C152.5824,150.8055 152.2574,150.7815 152.2304,150.8735 C149.9094,159.0365 142.0134,157.9585 136.4084,159.3845 C129.9964,161.0165 122.7664,161.1205 116.2114,160.0075 C110.0954,158.9685 104.2544,155.7545 98.5594,152.9525 C94.0184,150.7185 89.6214,147.9995 85.6174,144.9045 C76.8994,138.1655 74.5964,128.5705 74.6083534,118.0615"/>
  </g>
</svg>
