<svg xmlns="http://www.w3.org/2000/svg" xmlns:xlink="http://www.w3.org/1999/xlink" width="98" height="240" viewBox="0 0 98 240">
  <defs>
    <polygon id="6-a" points="0 .553 97.503 .553 97.503 239.999 0 239.999"/>
  </defs>
  <g fill="none" fill-rule="evenodd">
    <mask id="6-b" fill="#fff">
      <use xlink:href="#6-a"/>
    </mask>
    <path fill="#231F20" d="M55.0303984,107.842263 C55.1536887,100.190684 52.3014145,94.9627895 48.3031726,94.4006842 C43.37235,93.7083158 40.0039952,97.2333158 37.8140113,105.938053 C43.5114468,106.568053 49.1037694,107.187 55.0303984,107.842263 M37.7136403,5.00384211 C34.5310113,6.02305263 28.0345597,7.08489474 22.5829145,10.0572632 C10.3115758,16.7456842 7.0949629,29.1735789 5.22268871,41.7356842 C3.96607581,50.1625263 6.01933387,58.3312105 9.99465645,65.9322632 C13.4452048,72.5306842 17.4703177,78.5804211 24.5697855,81.8654211 C34.7080435,86.5564737 44.9830274,90.5306842 56.2403823,92.0164737 C71.1593016,93.9854211 81.2596242,87.1430526 87.5094952,74.6291053 C93.4045113,62.8256842 93.8881887,49.9217368 90.7490274,37.0659474 C89.3375113,31.2854211 88.0650919,25.6398947 83.1658823,21.1217368 C77.993221,16.3509474 71.4928177,14.7562105 65.6381081,11.6764737 C57.9403661,7.62726316 49.6680597,5.38831579 37.7136403,5.00384211 M45.0612694,239.999368 C41.4581887,237.557526 40.1430919,235.834105 40.7658661,232.060421 C41.9924468,224.637789 41.7719468,216.986211 42.811221,209.520947 C44.3136242,198.723316 43.9745758,187.865684 44.3887048,177.045947 C44.7143177,168.533053 43.51935,159.972 43.4782532,151.430684 C43.4395274,143.215421 44.0907532,134.997789 44.2954468,126.777789 C44.4329629,121.238842 44.3215274,115.692 44.3215274,110.479105 C41.1507532,109.587 38.4731403,108.952263 35.8793016,108.072 C33.0665435,107.116737 32.2809629,105.419368 33.9785758,102.632526 C35.3292371,100.415684 36.2586565,97.9391053 37.3500919,95.5659474 C38.4470597,93.1809474 37.2441887,91.9059474 35.1443016,91.0454211 C29.5662048,88.7559474 23.529721,87.1683158 18.5522694,83.9472632 C13.3187532,80.5612105 8.52307581,76.1148947 6.81202742,69.4391053 C6.44768871,68.0180526 4.5817371,67.0138421 4.0917371,65.5841053 C0.369317742,54.7114737 -2.0087629,43.812 2.33485,32.3891053 C3.84831774,28.4093684 4.66630161,24.2867368 8.09709194,21.3056842 C8.83841452,20.6606842 8.63609194,19.0391053 9.24938226,18.1201579 C10.4973016,16.2483158 11.0197048,13.6912105 14.2102371,13.5396316 C15.2147371,13.4914737 15.9260274,11.1577895 17.1154629,10.4275263 C21.2804629,7.87121053 25.3719629,4.92489474 29.9147371,3.32621053 C34.701721,1.64226316 39.9510435,1.13463158 45.0486242,0.563052632 C46.3724145,0.415421053 47.8843016,1.95094737 49.2159952,2.66226316 C49.9446726,2.36305263 50.7729306,1.73936842 51.5996081,1.74094737 C53.3509629,1.74568421 55.0991565,2.08673684 56.8505113,2.27305263 C60.4654468,2.65831579 63.70735,3.41147368 67.2551081,5.02831579 C72.353479,7.35094737 76.9634306,10.242 81.6200113,13.1527895 C87.6011726,16.8917368 91.5219629,22.2767368 93.550721,29.0559474 C94.4113823,31.9343684 95.8450274,34.6912105 96.3326565,37.6177895 C96.9167048,41.1135789 96.7689145,44.7317368 96.931721,48.2962105 C96.9696565,49.1306842 96.8629629,49.9904211 97.0257694,50.7964737 C98.6064145,58.6059474 95.9556726,65.6788421 93.5143661,72.882 C91.0754306,80.0764737 85.9414952,85.2001579 80.835221,90.3167368 C79.1628984,91.9927895 76.5082048,92.7885789 74.1870274,93.6885789 C72.5083823,94.3398947 70.64085,94.512 68.8531403,94.8759474 C65.3472694,95.5896316 61.8382371,96.2883158 57.8818823,97.0833158 C58.7125113,100.105421 59.6292855,103.495421 60.5776726,106.875947 C61.3348016,109.572789 60.4180274,110.891211 57.5388823,110.721474 C55.6998016,110.614105 53.836221,110.713579 52.0200597,110.457789 C48.7331081,109.994368 47.7538984,112.235684 48.3181887,114.449368 C49.8332371,120.398842 47.8163339,126.125684 47.8455758,131.956737 C47.8732371,137.618842 47.5847694,143.284895 47.68435,148.944632 C47.8811403,160.170158 48.7323177,171.406737 48.4272532,182.614895 C48.0202371,197.513842 46.7715274,212.389895 45.8760919,227.275421 C45.6366242,231.265421 45.3655435,235.253842 45.0612694,239.999368" mask="url(#6-b)"/>
    <path fill="#231F20" d="M27.580327 64C28.8275969 64.1366145 30.1732941 64.0143805 31.305601 64.4545828 36.3411384 66.4159196 41.1695849 69.1394215 46.3523695 70.4336641 51.5075944 71.7199176 57.0021965 71.5801074 62.3345904 72.1864841 63.2566568 72.2919409 64.1133675 72.9949863 65 73.421607 64.2409292 74.1526144 63.5700491 75.381346 62.7086139 75.5379334 54.7470316 76.9911601 47.2712862 74.7909476 39.8979051 72.0754349 37.7088833 71.2701283 35.48679 70.4959795 33.415881 69.4350201 31.1937877 68.295767 29.1315402 66.836149 27 65.5155421 27.1937048 65.0106277 27.3866222 64.5049144 27.580327 64M67.8272758 61.9788289C64.5541453 62.1918998 62.26919 60.8061252 62.0069558 57.3929234 61.8198741 54.9466734 65.4415842 52.5150618 68.6427602 53.0835222 71.143579 53.5283688 74.6437659 53.1201183 74.9907466 57.0977143 75.2154045 59.664325 71.3074754 62.2016588 67.8272758 61.9788289M32.0971436 53C26.5591154 52.7710112 23.6009091 50.5960198 24.0434131 47.7396864 24.4851254 44.8873704 26.1783562 42.9542232 29.3621683 43.0008244 32.8079997 43.051443 35.4780639 45.8330538 34.9279025 49.6704232 34.7133791 51.1624657 32.6575959 52.3805252 32.0971436 53M48.9065422 51C52.6370894 51.6564906 54.5204725 53.9436194 53.8749711 55.6135864 52.9348893 58.0436606 50.3078114 59.8996837 48.4002824 62 46.8114798 60.0358223 44.023429 58.0837459 44 56.102929 43.9807712 54.4193482 47.1487181 52.702489 48.9065422 51"/>
  </g>
</svg>
