<svg xmlns="http://www.w3.org/2000/svg" width="350" height="526" viewBox="0 0 350 526">
  <g fill="none" fill-rule="evenodd" transform="translate(.238 .16)">
    <path fill="#D7A9FF" d="M71.4655173 330.980485C71.4655173 331.938485 71.5195173 332.901485 71.4515173 333.855485 71.3635173 335.096485 70.6605173 335.809485 69.4645173 336.249485 65.0005173 337.893485 64.1895173 337.378485 63.8865173 332.627485 63.5715173 327.686485 62.4275173 322.879485 61.4965173 318.037485 60.4145173 312.412485 59.3315173 306.787485 58.2735173 301.157485 58.1565173 300.535485 58.1415173 299.881485 58.1665173 299.245485 58.3865173 293.763485 57.0885173 288.478485 55.9725173 283.186485 55.6405173 281.615485 55.4175173 280.065485 55.2555173 278.476485 54.7425173 273.414485 54.1555173 268.360485 53.5455173 263.310485 53.2215173 260.626485 53.6245173 257.848485 52.5085173 255.268485 52.6855173 250.555485 50.6295173 246.242485 50.0755173 241.653485 49.6005173 237.710485 48.8755173 233.805485 48.4715173 229.842485 47.9875173 225.104485 47.0615173 220.411485 46.2815173 215.705485 45.4755173 210.845485 44.6205173 205.992485 43.7745173 201.139485 43.5565173 199.887485 43.2305173 198.650485 43.0525173 197.394485 42.3155173 192.193485 41.4565173 187.003485 40.9735173 181.779485 40.7515173 179.383485 40.2995173 177.055485 39.9245173 174.698485 38.5015173 165.752485 37.3025173 156.771485 35.2875173 147.922485 34.1945173 143.120485 33.3855173 138.246485 32.6455173 133.376485 32.0455173 129.425485 31.7355173 125.484485 33.8735173 121.720485 35.1005173 119.560485 36.8375173 117.968485 38.6005173 116.367485 39.9065173 115.181485 41.2525173 115.358485 42.3215173 116.756485 45.1695173 120.480485 47.3185173 124.620485 48.3835173 129.160485 50.3805173 137.673485 52.5905173 146.136485 53.4945173 154.894485 54.0815173 160.584485 54.7095173 166.282485 55.4365173 171.953485 56.3255173 178.885485 57.0715173 185.854485 58.6765173 192.695485 59.4355173 195.932485 59.4615173 199.333485 60.0755173 202.612485 61.1715173 208.467485 60.5685173 214.416485 61.1925173 220.259485 61.8555173 226.475485 61.4665173 232.721485 62.1595173 238.881485 62.8885173 245.371485 62.9185173 251.934485 64.0495173 258.360485 65.1535173 264.633485 65.1755173 271.017485 66.5275173 277.277485 67.4605173 281.602485 67.3125173 286.150485 67.7715173 290.587485 68.1145173 293.906485 68.6465173 297.206485 69.1145173 300.512485 69.2045173 301.141485 69.5385173 301.763485 69.5115173 302.377485 69.2355173 308.625485 71.0845173 314.742485 70.6675173 320.984485 70.4825173 323.747485 71.5705173 326.335485 71.4995173 329.060485 71.4825173 329.700485 71.4975173 330.340485 71.4975173 330.980485 71.4865173 330.980485 71.4755173 330.980485 71.4655173 330.980485M316.294517 114.269485C316.728517 116.822485 315.402517 119.555485 315.429517 122.457485 315.454517 125.151485 315.439517 127.845485 314.803517 130.550485 314.041517 133.790485 314.141517 137.185485 313.723517 140.510485 312.910517 146.982485 311.805517 153.399485 310.819517 159.840485 310.362517 162.828485 310.942517 165.937485 309.789517 168.849485 309.443517 176.963485 307.106517 184.903485 307.677517 193.098485 306.433517 197.590485 307.075517 202.281485 306.137517 206.848485 305.440517 210.240485 305.324517 213.796485 304.996517 217.274485 304.456517 222.991485 303.291517 228.598485 302.515517 234.269485 302.299517 235.846485 302.235517 237.453485 301.925517 238.995485 300.883517 244.171485 301.515517 249.508485 300.294517 254.655485 300.185517 255.117485 300.120517 255.612485 300.155517 256.083485 300.587517 261.859485 299.267517 267.522485 299.041517 273.258485 298.941517 275.791485 298.515517 278.325485 298.059517 280.826485 296.889517 287.244485 296.170517 293.735485 295.066517 300.149485 293.393517 309.871485 291.211517 319.526485 287.044517 328.580485 286.776517 329.160485 286.537517 329.761485 286.202517 330.301485 285.726517 331.067485 285.515517 332.317485 284.278517 332.068485 283.326517 331.877485 282.497517 331.063485 282.233517 330.178485 281.690517 328.350485 281.263517 326.524485 280.223517 324.863485 279.852517 324.271485 279.923517 323.288485 280.042517 322.522485 280.701517 318.279485 281.531517 314.060485 282.128517 309.809485 283.610517 299.244485 286.461517 288.951485 288.282517 278.463485 289.231517 272.993485 290.177517 267.493485 290.547517 261.917485 290.757517 258.758485 291.436517 255.622485 292.017517 252.497485 292.599517 249.363485 292.664517 246.178485 293.169517 243.022485 293.825517 238.928485 294.568517 234.887485 295.607517 230.873485 296.402517 227.804485 296.946517 224.680485 297.274517 221.493485 297.778517 216.598485 298.723517 211.746485 299.494517 206.878485 299.618517 206.094485 299.941517 205.321485 299.952517 204.540485 300.032517 198.786485 300.928517 193.132485 301.871517 187.476485 302.079517 186.227485 301.960517 184.923485 301.996517 183.644485 302.058517 181.414485 301.881517 179.163485 302.697517 177.005485 302.861517 176.571485 302.877517 176.053485 302.850517 175.580485 302.500517 169.490485 303.516517 163.476485 304.059517 157.454485 304.643517 150.976485 305.048517 144.461485 306.379517 138.042485 307.443517 132.913485 307.914517 127.664485 308.780517 122.491485 309.700517 117.005485 310.515517 111.487485 312.353517 106.197485 312.562517 105.596485 312.651517 104.933485 312.961517 104.393485 313.174517 104.022485 313.682517 103.590485 314.042517 103.602241 314.404517 103.615485 314.994517 104.099485 315.062517 104.456485 315.534517 106.954485 315.916517 109.470485 316.280517 111.986485 316.371517 112.613485 316.294517 113.264485 316.294517 114.269485"/>
    <path fill="#1A1919" d="M340.391517,525.889485 C339.381517,524.889485 339.401517,523.609485 339.351517,522.319485 C339.071517,514.969485 338.831517,507.619485 338.451517,500.269485 C338.171517,494.688485 337.751517,489.107485 337.321517,483.530485 C336.811517,476.998485 336.291517,470.467485 335.681517,463.944485 C334.971517,456.307485 334.201517,448.673485 333.361517,441.047485 C332.601517,434.059485 331.761517,427.078485 330.871517,420.105485 C330.161517,414.570485 329.341517,409.052485 328.551517,403.446485 C326.371517,402.740485 324.451517,402.117485 322.561517,401.505485 C321.701517,397.822485 324.641517,397.661485 326.791517,396.914485 C326.771517,393.922485 326.011517,391.368485 325.381517,388.982485 C323.471517,388.008485 321.911517,388.718485 320.377517,388.905485 C316.395517,389.391485 312.425517,389.619485 308.459517,388.825485 C307.834517,388.700485 307.132517,388.662485 306.625517,388.336485 C306.151517,388.031485 305.620517,387.404485 305.607517,386.906485 C305.595517,386.405485 306.093517,385.577485 306.538517,385.438485 C307.883517,385.017485 309.300517,384.741485 310.708517,384.624485 C314.208517,384.332485 317.722517,384.205485 321.221517,383.907485 C322.111517,383.831485 322.961517,383.361485 324.141517,382.970485 C323.571517,380.765485 323.151517,378.757485 322.551517,376.805485 C320.146517,369.021485 318.090517,361.132485 315.116517,353.519485 C313.965517,350.574485 313.494517,347.362485 312.727517,344.270485 C312.574517,343.650485 312.704517,342.726485 312.326517,342.438485 C310.438517,340.999485 310.982517,339.053485 310.983517,337.193485 C310.994517,326.964485 311.224517,316.756485 311.994517,306.536485 C312.713517,296.981485 312.575517,287.363485 312.807517,277.773485 C312.827517,276.974485 312.700517,276.161485 312.805517,275.376485 C313.781517,268.056485 313.309517,260.690485 313.571517,253.350485 C313.827517,246.162485 314.478517,238.988485 314.961517,231.810485 C315.445517,224.634485 315.984517,217.461485 316.411517,210.281485 C316.819517,203.420485 317.106517,196.552485 317.466517,189.688485 C317.542517,188.251485 317.685517,186.817485 317.841517,185.387485 C318.729517,177.290485 319.605517,169.192485 320.541517,161.102485 C320.801517,158.881485 321.401517,156.695485 321.581517,154.473485 C322.151517,147.465485 322.641517,140.451485 323.061517,133.434485 C324.091517,116.362485 325.051517,99.2874851 326.081517,82.2164851 C326.511517,74.8794851 327.181517,67.5534851 327.471517,60.2114851 C327.711517,54.1464851 327.581517,48.0654851 327.591517,41.9924851 C327.591517,38.6354851 327.461517,35.2764851 327.531517,31.9214851 C327.611517,28.3424851 326.841517,24.9384851 325.761517,21.5724851 C324.841517,18.6834851 324.091517,15.7214851 322.961517,12.9164851 C321.891517,10.2794851 320.416517,7.80748508 319.117517,5.25548508 C315.213517,4.95248508 311.867517,5.83148508 308.670517,7.35348508 C306.388517,8.44048508 305.003517,10.4204851 304.019517,12.6524851 C302.149517,16.8994851 300.765517,21.2634851 299.963517,25.8874851 C298.130517,36.4534851 297.595517,47.1534851 296.277517,57.7694851 C295.412517,64.7484851 294.568517,71.7214851 294.336517,78.7644851 C294.072517,86.7524851 293.602517,94.7334851 293.245517,102.719485 C292.866517,111.183485 292.631517,119.655485 292.112517,128.109485 C291.702517,134.802485 290.806517,141.464485 290.395517,148.155485 C289.796517,157.896485 288.718517,167.580485 287.503517,177.259485 C287.045517,180.900485 286.964517,184.589485 286.659517,188.252485 C286.289517,192.712485 285.878517,197.169485 285.459517,201.625485 C284.889517,207.671485 284.314517,213.716485 283.701517,219.758485 C283.379517,222.936485 282.973517,226.105485 282.602517,229.278485 C281.471517,238.963485 280.282517,248.641485 279.233517,258.334485 C278.787517,262.463485 278.706517,266.630485 278.333517,270.768485 C277.573517,279.203485 276.875517,287.649485 275.865517,296.058485 C275.219517,301.433485 274.475517,306.808485 272.798517,312.027485 C271.027517,317.537485 270.709517,323.323485 270.414517,329.067485 C270.262517,332.032485 269.702517,334.748485 267.675517,337.044485 C266.446517,338.436485 265.029517,339.394485 263.128517,339.321485 C260.899517,339.236485 258.639517,339.245485 256.454517,338.864485 C247.805517,337.356485 239.210517,335.521485 230.479517,334.513485 C227.944517,334.220485 225.381517,334.029485 222.832517,334.034485 C205.877517,334.063485 188.919517,333.962485 171.969517,334.300485 C159.992517,334.539485 147.983517,334.854485 136.158517,337.193485 C135.221517,337.379485 134.254517,337.527485 133.304517,337.514485 C125.150517,337.401485 116.998517,337.234485 108.844517,337.114485 C106.664517,337.082485 104.795517,336.448485 103.230517,334.860485 C102.223517,333.838485 101.009517,333.021485 99.9855173,332.016485 C96.9845173,329.065485 94.4405173,325.877485 93.7595173,321.486485 C93.4715173,319.623485 92.7565173,317.775485 91.9505173,316.054485 C89.7635173,311.380485 88.4295173,306.490485 87.5055173,301.426485 C86.4155173,295.456485 84.9985173,289.547485 83.7845173,283.600485 C83.3695173,281.568485 83.0885173,279.507485 82.8385173,277.448485 C81.7205173,268.250485 80.6635173,259.046485 79.5245173,249.852485 C79.1705173,246.997485 78.7345173,244.145485 78.1485173,241.330485 C76.0605173,231.316485 73.8535173,221.327485 71.7745173,211.312485 C71.1265173,208.186485 70.7385173,205.004485 70.2375173,201.848485 C69.0595173,194.427485 67.8655173,187.009485 66.7125173,179.584485 C65.5605173,172.161485 64.5295173,164.718485 63.3015173,157.307485 C61.8385173,148.478485 60.1045173,139.691485 58.7155173,130.851485 C57.7495173,124.694485 57.1115173,118.483485 56.4295173,112.286485 C55.7795173,106.382485 54.5375173,100.605485 52.7845173,94.9484851 C49.9425173,85.7764851 47.4565173,76.5214851 45.7765173,67.0624851 C44.7795173,61.4474851 42.2595173,56.4714851 39.3965173,51.6404851 C38.8375173,50.6974851 38.0455173,49.8934851 37.2825173,48.9264851 C33.8945173,48.9264851 30.5455173,48.8994851 27.1975173,48.9374851 C25.5245173,48.9564851 24.1305173,49.6374851 22.9695173,50.8814851 C20.3185173,53.7214851 18.0845173,56.8024851 17.0435173,60.6124851 C15.6495173,65.7124851 14.5005173,70.8354851 14.5655173,76.1854851 C14.6845173,85.9404851 14.5595173,95.7014851 14.7745173,105.454485 C14.8755173,110.080485 15.5645173,114.689485 15.9205173,119.313485 C17.1825173,135.731485 18.0885173,152.187485 19.7635173,168.563485 C21.1285173,181.914485 21.9405173,195.332485 24.2165173,208.598485 C25.3235173,215.046485 25.6395173,221.628485 26.3705173,228.143485 C27.8155173,241.012485 29.2305173,253.885485 30.7965173,266.739485 C31.6655173,273.879485 32.9025173,280.974485 33.8035173,288.109485 C34.3445173,292.390485 34.6175173,296.708485 34.9005173,301.016485 C35.3195173,307.399485 35.6015173,313.793485 36.0165173,320.177485 C36.5455173,328.328485 37.8595173,336.372485 39.4105173,344.385485 C40.1965173,348.449485 41.1605173,352.506485 40.7655173,356.704485 C40.6615173,357.806485 40.7315173,358.966485 40.4015173,359.997485 C38.3535173,366.423485 37.5065173,373.097485 36.1905173,379.674485 C35.6585173,382.333485 34.9105173,384.951485 34.4155173,387.616485 C33.3375173,393.428485 32.3505173,399.257485 31.3575173,405.085485 C31.2825173,405.528485 31.4615173,406.016485 31.5405173,406.618485 C32.5585173,407.014485 33.6035173,407.375485 34.6085173,407.825485 C35.3315173,408.148485 36.1485173,408.458485 36.6495173,409.019485 C37.1235173,409.548485 37.5735173,410.479485 37.4235173,411.081485 C37.2735173,411.687485 36.4215173,412.445485 35.7875173,412.541485 C34.0885173,412.795485 32.3425173,412.730485 30.5015173,412.796485 C30.0665173,415.022485 29.4275173,416.982485 29.8585173,419.406485 C31.1265173,419.846485 32.4585173,420.271485 33.7625173,420.771485 C34.6505173,421.112485 35.5855173,421.442485 36.3315173,422.001485 C36.7335173,422.303485 36.9375173,423.076485 36.9345173,423.635485 C36.9315173,423.966485 36.4065173,424.461485 36.0205173,424.588485 C35.2765173,424.832485 34.4685173,424.926485 33.6795173,424.979485 C32.2625173,425.073485 30.8405173,425.092485 29.2985173,425.146485 C28.5025173,427.599485 28.5055173,429.989485 28.4705173,432.341485 C28.2935173,443.885485 26.5245173,455.250485 24.9685173,466.657485 C23.7825173,475.351485 22.4755173,484.049485 22.6965173,492.906485 C22.8505173,499.126485 22.2885173,505.359485 22.1205173,511.589485 C22.0435173,514.459485 22.2095173,517.339485 22.1415173,520.209485 C22.0975173,522.109485 21.8335173,523.999485 21.6675173,525.889485 C20.7075173,525.889485 19.7475173,525.889485 18.7875173,525.889485 C18.4975173,524.839485 17.9475173,523.789485 17.9595173,522.739485 C18.0495173,515.229485 18.2485173,507.719485 18.4235173,500.209485 C18.4865173,497.495485 18.6985173,494.776485 18.6325173,492.063485 C18.4505173,484.518485 19.3315173,477.060485 20.2695173,469.601485 C21.0075173,463.734485 21.8785173,457.879485 22.4095173,451.993485 C23.1545173,443.718485 23.6535173,435.419485 24.2125173,427.127485 C24.2625173,426.381485 23.9825173,425.612485 23.8155173,424.617485 C22.5865173,424.480485 21.5155173,424.275485 20.4405173,424.254485 C14.6845173,424.134485 8.92651734,424.075485 3.17051734,423.960485 C1.32151734,423.923485 0.22051734,423.081485 0.0265173397,421.708485 C-0.18348266,420.219485 0.87251734,418.545485 2.53051734,418.121485 C3.90951734,417.769485 5.35851734,417.542485 6.77851734,417.528485 C11.7315173,417.483485 16.6955173,417.259485 21.6085173,418.226485 C22.5185173,418.404485 23.4935173,418.251485 24.5185173,418.251485 C25.5695173,416.057485 25.5585173,413.902485 25.2325173,411.845485 C24.9485173,411.597485 24.8435173,411.433485 24.7045173,411.395485 C18.5595173,409.719485 12.5795173,407.371485 6.20651734,406.631485 C4.67951734,406.454485 3.43351734,405.967485 2.36451734,404.968485 C1.05651734,403.746485 1.40351734,401.728485 3.00151734,400.985485 C4.36651734,400.351485 5.73551734,400.346485 7.20151734,400.729485 C12.1485173,402.021485 17.1145173,403.241485 22.0805173,404.457485 C23.3035173,404.757485 24.5555173,404.937485 25.9975173,405.210485 C26.4115173,403.837485 26.9785173,402.660485 27.0985173,401.439485 C27.9035173,393.294485 30.0775173,385.419485 31.7035173,377.437485 C32.3725173,374.149485 32.8185173,370.813485 33.5865173,367.551485 C34.2795173,364.607485 35.1275173,361.680485 36.1835173,358.849485 C37.0025173,356.653485 37.1685173,354.526485 36.7455173,352.274485 C36.1255173,348.975485 35.6265173,345.650485 34.9395173,342.365485 C33.1345173,333.734485 32.2105173,324.994485 31.5865173,316.215485 C31.1895173,310.631485 30.7095173,305.048485 30.5095173,299.456485 C30.2625173,292.556485 29.0315173,285.791485 28.0905173,278.982485 C26.9095173,270.431485 25.6245173,261.890485 24.6255173,253.316485 C22.9215173,238.704485 21.4455173,224.066485 19.7935173,209.449485 C19.0755173,203.096485 17.9835173,196.782485 17.3645173,190.421485 C16.0925173,177.373485 15.0035173,164.308485 13.8795173,151.245485 C12.6885173,137.386485 11.5255173,123.524485 10.3965173,109.660485 C10.1895173,107.112485 10.1285173,104.547485 10.1205173,101.989485 C10.0915173,93.1914851 10.1555173,84.3934851 10.1055173,75.5944851 C10.0695173,69.2624851 11.5985173,63.2444851 13.5565173,57.3044851 C14.8985173,53.2334851 17.6775173,50.1174851 20.5965173,47.1374851 C22.2445173,45.4534851 24.4005173,44.8364851 26.7215173,44.8214851 C29.9205173,44.8034851 33.1215173,44.8754851 36.3185173,44.8004851 C38.6395173,44.7444851 40.2665173,45.7544851 41.5265173,47.6144851 C45.2345173,53.0914851 48.2555173,58.8994851 49.5095173,65.4404851 C51.4075173,75.3474851 54.0425173,85.0474851 56.8795173,94.7204851 C58.4475173,100.065485 59.3105173,105.630485 60.2885173,111.133485 C60.9315173,114.748485 61.1175173,118.442485 61.6725173,122.076485 C63.0455173,131.082485 64.5205173,140.072485 65.9415173,149.070485 C67.2125173,157.122485 68.4365173,165.183485 69.7395173,173.230485 C70.7615173,179.541485 71.8825173,185.838485 72.9395173,192.145485 C73.3085173,194.352485 73.6355173,196.566485 73.9485173,198.782485 C75.6695173,210.982485 78.4415173,222.978485 81.1075173,234.989485 C83.1205173,244.060485 84.3995173,253.228485 85.2625173,262.468485 C85.4855173,264.853485 85.8665173,267.222485 86.1415173,269.603485 C87.1325173,278.174485 88.2405173,286.720485 90.5975173,295.057485 C91.1615173,297.049485 91.4175173,299.130485 91.7945173,301.174485 C92.5815173,305.432485 93.6695173,309.577485 95.5395173,313.524485 C96.5595173,315.678485 97.4935173,317.966485 97.9015173,320.292485 C98.5525173,324.008485 100.588517,326.721485 103.220517,329.140485 C107.248517,332.842485 107.261517,332.887485 112.978517,332.967485 C119.536517,333.059485 126.097517,333.138485 132.652517,332.999485 C135.510517,332.938485 138.363517,332.366485 141.205517,331.943485 C150.720517,330.528485 160.304517,330.055485 169.902517,329.920485 C187.175517,329.676485 204.450517,329.510485 221.724517,329.370485 C228.620517,329.313485 235.445517,330.042485 242.175517,331.608485 C248.279517,333.030485 254.509517,333.360485 260.743517,333.584485 C261.674517,333.617485 262.613517,333.417485 263.796517,333.301485 C264.224517,332.072485 264.805517,330.931485 265.011517,329.725485 C266.522517,320.892485 268.677517,312.222485 271.082517,303.592485 C272.104517,299.927485 272.482517,296.063485 272.937517,292.263485 C274.227517,281.473485 275.472517,270.677485 276.603517,259.869485 C277.201517,254.146485 277.389517,248.382485 278.001517,242.661485 C279.140517,232.014485 280.600517,221.399485 281.649517,210.744485 C282.573517,201.361485 283.090517,191.938485 283.839517,182.537485 C284.627517,172.657485 285.588517,162.790485 286.272517,152.903485 C287.076517,141.261485 287.742517,129.614485 287.883517,117.929485 C288.006517,107.710485 288.818517,97.5004851 289.304517,87.2854851 C289.441517,84.4114851 289.628517,81.5314851 289.576517,78.6574851 C289.406517,69.1864851 291.259517,59.8894851 291.919517,50.4894851 C292.288517,45.2304851 292.595517,39.9444851 293.404517,34.7454851 C294.629517,26.8734851 295.501517,18.9114851 299.006517,11.5354851 C301.418517,6.46248508 304.887517,2.77048508 310.359517,1.35348508 C313.117517,0.641485084 316.003517,0.396485084 318.843517,0.0364850838 C320.600517,-0.186514916 322.041517,0.626485084 322.891517,2.09848508 C324.551517,5.00348508 326.181517,7.94248508 327.561517,10.9884851 C328.541517,13.1584851 329.081517,15.5264851 329.831517,17.8044851 C331.731517,23.6134851 332.861517,29.4804851 332.551517,35.6894851 C332.221517,42.2264851 332.651517,48.7974851 332.461517,55.3454851 C332.291517,61.4134851 331.671517,67.4674851 331.361517,73.5324851 C330.781517,84.8714851 330.341517,96.2184851 329.721517,107.555485 C329.211517,116.973485 328.511517,126.381485 327.921517,135.795485 C327.551517,141.696485 327.331517,147.609485 326.841517,153.501485 C326.551517,156.999485 325.811517,160.457485 325.411517,163.947485 C324.371517,172.840485 323.401517,181.739485 322.411517,190.638485 C322.321517,191.432485 322.251517,192.234485 322.261517,193.031485 C322.441517,205.364485 320.841517,217.596485 320.162517,229.879485 C319.717517,237.860485 319.009517,245.830485 318.714517,253.815485 C318.302517,264.997485 318.244517,276.191485 317.885517,287.375485 C317.588517,296.637485 316.999517,305.890485 316.685517,315.150485 C316.441517,322.342485 316.420517,329.540485 316.313517,336.735485 C316.303517,337.373485 316.243517,338.061485 316.445517,338.643485 C318.167517,343.615485 318.800517,348.873485 320.871517,353.784485 C324.291517,361.888485 326.401517,370.450485 328.861517,378.884485 C329.121517,379.782485 329.461517,380.657485 329.841517,381.753485 C332.931517,381.300485 335.891517,380.826485 338.871517,380.441485 C340.611517,380.217485 342.371517,380.078485 344.121517,380.010485 C344.901517,379.980485 345.711517,380.139485 346.471517,380.350485 C347.551517,380.651485 348.141517,381.699485 348.061517,382.992485 C348.001517,384.092485 347.411517,384.805485 346.321517,384.938485 C344.101517,385.211485 341.881517,385.454485 339.651517,385.620485 C336.791517,385.832485 333.931517,386.004485 331.231517,387.107485 C330.461517,388.803485 331.461517,390.271485 331.661517,391.797485 C331.871517,393.359485 332.301517,394.894485 332.571517,396.163485 C334.411517,397.360485 336.031517,396.845485 337.571517,396.602485 C340.901517,396.077485 343.901517,397.071485 346.831517,398.410485 C347.521517,398.725485 348.191517,399.279485 348.631517,399.896485 C349.821517,401.553485 349.031517,403.673485 347.051517,403.918485 C345.501517,404.109485 343.821517,404.119485 342.331517,403.723485 C339.801517,403.051485 337.321517,403.061485 335.011517,403.228485 C333.901517,404.218485 334.351517,405.188485 334.461517,406.100485 C335.441517,414.830485 336.431517,423.561485 337.431517,432.288485 C337.761517,435.146485 338.231517,437.990485 338.471517,440.855485 C339.491517,453.120485 340.441517,465.391485 341.421517,477.658485 C341.791517,482.278485 342.251517,486.894485 342.531517,491.519485 C342.861517,497.102485 343.041517,502.689485 343.291517,508.279485 C343.471517,512.109485 343.691517,515.939485 343.811517,519.779485 C343.881517,521.829485 344.301517,523.929485 343.271517,525.889485 C342.311517,525.889485 341.351517,525.889485 340.391517,525.889485"/>
    <path fill="#1A1919" d="M64.8455173 337.271485C66.6115173 337.034485 67.8765173 336.924485 69.1155173 336.686485 70.8975173 336.343485 71.5425173 335.600485 71.4395173 333.663485 71.0545173 326.483485 70.7275173 319.296485 70.1105173 312.135485 69.5075173 305.133485 68.5695173 298.160485 67.7925173 291.173485 66.5915173 280.373485 65.3555173 269.576485 64.2245173 258.770485 63.3925173 250.821485 62.5435173 242.870485 61.9995173 234.899485 61.4565173 226.931485 61.2975173 218.936485 60.9325173 210.954485 60.8585173 209.361485 60.6695173 207.769485 60.4335173 206.190485 59.3485173 198.921485 58.1145173 191.671485 57.1485173 184.386485 55.7625173 173.932485 54.5775173 163.450485 53.2775173 152.984485 52.2125173 144.400485 50.2535173 136.000485 47.8715173 127.698485 46.7605173 123.823485 44.9675173 120.251485 42.3965173 117.123485 41.1625173 115.621485 39.7325173 115.492485 38.1995173 116.710485 34.6435173 119.535485 32.3405173 123.143485 32.4475173 127.779485 32.5315173 131.438485 32.7775173 135.153485 33.5255173 138.723485 36.0485173 150.764485 38.2775173 162.855485 39.9455173 175.038485 41.8535173 188.975485 43.9155173 202.883485 46.4295173 216.725485 47.2285173 221.123485 47.8455173 225.558485 48.4755173 229.984485 49.0615173 234.094485 49.2965173 238.270485 50.1415173 242.320485 51.8065173 250.305485 53.3355173 258.293485 53.9805173 266.437485 54.5475173 273.610485 55.4085173 280.743485 56.8915173 287.800485 57.4815173 290.608485 57.7195173 293.492485 58.0935173 296.345485 58.6945173 300.934485 59.1035173 305.555485 59.9035173 310.108485 61.3135173 318.133485 63.4185173 326.036485 63.9965173 334.206485 64.0605173 335.112485 64.4805173 335.993485 64.8455173 337.271485zM75.4675173 325.217485C75.4675173 328.094485 75.5485173 330.974485 75.4475173 333.847485 75.3045173 337.914485 73.4135173 339.852485 69.3135173 340.346485 68.2045173 340.480485 67.0945173 340.657485 65.9805173 340.700485 62.9515173 340.817485 60.4385173 338.762485 60.8475173 335.821485 61.5575173 330.716485 60.0215173 326.015485 59.0265173 321.198485 57.4455173 313.538485 55.7185173 305.925485 54.8945173 298.108485 54.0415173 290.016485 52.5785173 281.988485 51.3855173 273.932485 50.4265173 267.455485 49.5805173 260.960485 48.4795173 254.509485 47.6745173 249.792485 46.3525173 245.161485 45.5835173 240.440485 43.5535173 227.986485 41.8795173 215.474485 39.7275173 203.043485 37.5725173 190.606485 36.3285173 178.040485 34.0885173 165.624485 32.6445173 157.611485 31.1565173 149.600485 29.3885173 141.655485 28.1535173 136.110485 27.9455173 130.508485 28.4045173 124.974485 28.8665173 119.414485 32.3015173 115.231485 37.0215173 112.385485 39.7115173 110.763485 43.5595173 111.769485 45.7225173 114.315485 47.6975173 116.642485 49.1285173 119.306485 50.3145173 122.134485 53.2435173 129.113485 54.9105173 136.440485 56.0785173 143.853485 57.6185173 153.632485 58.7305173 163.478485 60.1025173 173.284485 61.0995173 180.400485 62.2955173 187.488485 63.2605173 194.608485 63.9885173 199.982485 64.6745173 205.373485 65.0605173 210.779485 65.8215173 221.457485 66.0515173 232.179485 67.0715173 242.828485 68.2895173 255.536485 69.1965173 268.288485 71.3265173 280.902485 71.9105173 284.360485 71.9835173 287.901485 72.3905173 291.393485 73.3155173 299.315485 74.4165173 307.220485 75.2075173 315.156485 75.5385173 318.479485 75.2625173 321.861485 75.2625173 325.217485 75.3305173 325.217485 75.3995173 325.217485 75.4675173 325.217485L75.4675173 325.217485zM313.945517 103.461485C313.578517 103.922485 312.993517 104.344485 312.850517 104.884485 311.746517 109.046485 310.628517 113.210485 309.716517 117.416485 309.041517 120.533485 308.771517 123.737485 308.144517 126.867485 305.407517 140.532485 304.419517 154.407485 303.094517 168.241485 302.287517 176.666485 301.660517 185.107485 300.908517 193.538485 300.738517 195.444485 300.374517 197.332485 300.120517 199.230485 298.829517 208.886485 297.610517 218.551485 296.219517 228.191485 295.788517 231.184485 294.715517 234.080485 294.243517 237.068485 292.871517 245.746485 291.535517 254.432485 290.404517 263.143485 288.778517 275.670485 286.397517 288.044485 283.715517 300.384485 282.125517 307.706485 280.966517 315.156485 280.212517 322.609485 279.889517 325.801485 281.217517 329.108485 283.414517 331.756485 283.669517 332.063485 284.226517 332.119485 284.807517 332.360485 285.213517 331.799485 285.639517 331.344485 285.913517 330.811485 288.782517 325.243485 290.713517 319.345485 292.289517 313.294485 294.711517 303.993485 295.668517 294.440485 297.395517 285.021485 299.591517 273.043485 299.901517 260.875485 301.036517 248.790485 301.662517 242.114485 302.527517 235.460485 303.366517 228.807485 304.506517 219.777485 305.803517 210.767485 306.886517 201.730485 307.817517 193.959485 307.457517 186.078485 308.835517 178.333485 309.337517 175.508485 309.519517 172.626485 309.870517 169.773485 310.553517 164.226485 311.081517 158.650485 311.982517 153.138485 313.841517 141.775485 315.117517 130.351485 315.843517 118.871485 316.093517 114.903485 315.785517 110.896485 315.624517 106.911485 315.573517 105.662485 315.372517 104.334485 313.945517 103.461485zM287.298517 335.591485C285.036517 336.199485 283.055517 336.162485 281.269517 334.681485 279.451517 333.173485 278.357517 331.240485 278.169517 328.921485 277.804517 324.456485 277.576517 319.983485 278.417517 315.531485 280.612517 303.913485 282.836517 292.300485 284.949517 280.667485 285.920517 275.323485 286.725517 269.946485 287.490517 264.568485 288.840517 255.076485 289.655517 245.481485 291.527517 236.097485 293.376517 226.827485 294.521517 217.490485 295.736517 208.150485 296.395517 203.085485 296.742517 197.977485 297.158517 192.882485 297.887517 183.962485 298.434517 175.026485 299.289517 166.119485 300.343517 155.147485 301.255517 144.158485 303.268517 133.293485 304.315517 127.640485 304.752517 121.870485 305.855517 116.230485 306.710517 111.860485 308.016517 107.559485 309.412517 103.322485 310.453517 100.165485 311.832517 99.2164851 314.120517 99.3894851 316.703517 99.5844851 317.377517 101.745485 318.092517 103.656485 318.648517 105.138485 319.105517 106.754485 319.132517 108.318485 319.214517 113.110485 319.254517 117.917485 318.962517 122.697485 318.632517 128.116485 317.959517 133.517485 317.369517 138.918485 317.005517 142.254485 316.530517 145.578485 316.086517 148.904485 314.967517 157.299485 313.670517 165.674485 312.753517 174.090485 311.560517 185.052485 310.817517 196.062485 309.597517 207.020485 308.483517 217.024485 306.950517 226.981485 305.685517 236.971485 305.022517 242.199485 304.499517 247.447485 303.981517 252.693485 302.959517 263.033485 302.267517 273.414485 300.909517 283.709485 299.616517 293.519485 298.375517 303.353485 296.064517 313.017485 294.341517 320.216485 291.731517 327.047485 288.542517 333.688485 288.206517 334.389485 287.689517 335.002485 287.298517 335.591485L287.298517 335.591485zM177.142517 424.430485C178.787517 427.971485 180.405517 431.262485 181.836517 434.631485 182.378517 435.907485 182.602517 437.355485 182.756517 438.748485 182.848517 439.581485 182.220517 440.345485 181.352517 440.392485 180.628517 440.432485 179.729517 440.254485 179.184517 439.822485 178.609517 439.367485 178.315517 438.521485 177.981517 437.806485 176.565517 434.775485 175.203517 431.719485 173.768517 428.697485 173.385517 427.892485 172.814517 427.175485 172.210517 426.231485 170.301517 428.308485 169.607517 430.610485 168.751517 432.795485 167.763517 435.313485 166.988517 437.915485 166.063517 440.459485 165.571517 441.812485 164.722517 442.302485 163.530517 442.101485 162.084517 441.855485 161.041517 440.896485 161.244517 439.530485 161.545517 437.505485 162.002517 435.469485 162.686517 433.542485 163.645517 430.843485 164.802517 428.207485 166.012517 425.607485 166.815517 423.882485 166.951517 422.441485 165.818517 420.706485 164.229517 418.272485 163.499517 415.489485 163.727517 412.510485 163.832517 411.129485 164.375517 410.124485 165.591517 409.396485 168.414517 407.705485 171.524517 407.139485 174.729517 406.951485 176.566517 406.844485 177.775517 408.015485 178.512517 409.447485 180.335517 412.996485 180.472517 416.841485 179.635517 420.638485 179.354517 421.915485 178.128517 422.983485 177.142517 424.430485M260.674517 387.964485C261.566517 388.117485 262.107517 388.348485 262.568517 388.238485 262.860517 388.169485 263.033517 387.594485 263.259517 387.245485 262.761517 387.089485 262.258517 386.809485 261.766517 386.825485 261.496517 386.834485 261.243517 387.345485 260.674517 387.964485zM251.008517 384.989485C253.185517 382.164485 254.956517 379.775485 255.298517 376.608485 255.382517 375.829485 256.238517 374.871485 256.992517 374.472485 260.160517 372.790485 264.824517 374.222485 266.504517 377.371485 267.169517 378.616485 267.718517 380.012485 267.915517 381.396485 268.250517 383.750485 268.419517 386.153485 268.376517 388.531485 268.312517 392.085485 266.747517 393.643485 263.240517 394.206485 260.943517 394.575485 258.796517 394.220485 256.784517 393.096485 255.355517 392.298485 254.087517 391.230485 253.816517 389.551485 253.524517 387.739485 252.383517 386.480485 251.008517 384.989485L251.008517 384.989485zM95.2745173 385.677485C99.4345173 388.355485 101.011517 392.067485 101.329517 396.395485 101.420517 397.625485 101.272517 398.971485 100.832517 400.108485 100.535517 400.875485 99.6115173 401.771485 98.8345173 401.923485 92.5755173 403.146485 87.9995173 400.241485 86.3355173 393.779485 85.7555173 391.530485 87.5545173 388.376485 89.7235173 387.511485 91.4865173 386.807485 93.3315173 386.310485 95.2745173 385.677485"/>
  </g>
</svg>
