<svg xmlns="http://www.w3.org/2000/svg" width="430" height="446" viewBox="0 0 430 446">
  <g fill="none">
    <path fill="#D7A9FF" d="M153.543938 254.446697C152.647844 250.234677 148.745325 246.539226 144.248945 246.653136 143.718712 246.666381 143.193781 246.69817 142.674152 246.740555 142.78285 244.888856 142.456756 243.021263 141.449312 241.18016 139.312471 237.275432 135.049394 234.843587 130.576875 235.007829 123.16156 235.278034 117.641829 241.972231 113.455636 247.408121 109.319815 252.783082 106.345205 258.889186 104.303806 265.350265 103.065711 269.273536 105.764599 273.660394 109.62735 274.720022 111.188888 275.149171 112.633774 275.072348 113.916939 274.629953 115.319406 276.592913 117.445643 278.049901 119.781321 278.598259 120.131275 281.138716 121.493975 283.589104 123.450537 285.048741 127.217846 287.862053 132.384971 287.647478 135.831489 284.3123 142.281779 278.068445 149.80049 272.115987 154.699847 264.550246 157.006363 260.995195 156.009524 257.066626 153.543938 254.446697zM312.621466 245.393932C311.404211 244.729399 310.178949 244.316383 308.956356 244.10458 308.964364 244.091342 308.972372 244.078104 308.98038 244.067514 312.159656 238.843918 308.06744 231.984142 301.997185 232 295.651979 232.015913 289.672485 232.910781 284.277592 236.519378 278.79194 240.188868 274.830524 245.250965 272.815114 251.515044 272.00895 254.019617 272.940577 256.725402 274.763789 258.523082 271.419009 262.753851 268.784294 267.447939 270.583481 273.058076 272.313264 278.45641 277.564008 281.244269 282.77738 280.796835 285.812507 284.235989 290.42793 284.892579 294.578874 282.830146 300.681162 279.798713 308.945678 277.251779 312.661507 271.281577 313.456993 270.005463 313.841389 268.702873 313.897447 267.442644 320.43485 261.329474 321.390502 250.178036 312.621466 245.393932z"/>
    <path fill="#000" d="M222.582144,7.69924099 C215.8141,7.84837883 209.88142,7.92561092 203.95406,8.12268593 C199.43671,8.27182377 194.879453,8.03480113 190.468519,9.43829473 C189.494814,9.74722311 188.393411,9.69662277 187.350536,9.72325453 C178.220061,9.95495082 169.464702,12.3305036 160.749249,14.6874141 C156.069614,15.9524225 151.368697,17.2653682 146.840705,19.126928 C142.347298,20.9778351 137.542625,21.9419047 133.046558,23.8913493 C129.548139,25.4066963 125.786341,26.296197 122.168204,27.5452264 C117.22253,29.252322 112.36997,31.1485032 108.092055,34.3017032 C106.416006,35.5374167 104.447314,36.3630012 102.718057,37.5321353 C101.579408,38.3017931 100.366268,39.1806411 99.6506222,40.3071644 C97.7431191,43.3085635 95.0162145,45.5110098 92.6058968,48.0170581 C89.1872895,51.5670713 86.3513087,55.4952555 84.1591434,59.9161272 C81.2194071,65.8550091 78.2796709,71.7938909 75.1989338,77.660867 C72.7487102,82.329414 70.9928496,87.2749313 69.7850304,92.3402915 C67.2603157,102.929078 63.4160453,112.963924 58.151124,122.458146 C55.6024658,127.052124 53.6364341,131.837851 51.9923101,136.841958 C48.8397423,146.434717 45.8494585,156.048781 43.4151973,165.865247 C41.4890715,173.625741 39.1426033,181.287697 37.2829874,189.080149 C35.6628069,195.863258 34.1384007,202.643703 33.8377761,209.647855 C33.7180583,212.433537 33.6276049,215.227209 32.6592212,217.91169 C32.3080491,218.881086 32.0420096,219.962335 32.0792552,220.979668 C32.3506154,228.034421 30.123865,234.769592 29.5066534,241.707165 C29.3523505,243.430239 28.8761398,245.124019 28.5675341,246.836441 C28.2589283,248.548863 27.7428117,250.263948 27.7241889,251.981697 C27.6151127,261.065789 25.8539314,270.011396 25.5107404,279.074183 C25.3803811,282.554954 25.2979089,286.054367 24.1087124,289.415294 C23.7655215,290.38469 23.5766334,291.473929 23.6032374,292.499252 C23.7761631,299.532699 21.8181125,306.318471 21.2780524,313.266696 C20.9268802,317.788768 18.8783763,322.025881 18.9448861,326.627849 C17.1730632,334.438943 16.2658686,342.407165 14.7441228,350.258207 C13.2888868,357.768362 11.3574402,365.182643 9.70799545,372.658178 C8.73429096,377.073723 7.50518858,381.486605 7.09814817,385.966067 C6.52882369,392.203224 6.12178329,398.538919 7.78719042,404.706834 C8.58264846,407.649643 7.8483795,410.203629 6.56340882,412.752288 C6.09517934,413.6844 4.69581169,413.881475 4.01209023,413.06388 C3.5704647,412.536571 2.96655508,412.033231 2.78830863,411.418037 C0.0321396377,401.9105 -0.523882871,392.187245 0.436519644,382.400074 C0.808974913,378.610375 1.8332269,374.86595 2.61538297,371.132178 C4.18235549,363.643328 5.82913986,356.175783 7.27639462,348.657638 C7.73664292,346.26877 8.23679714,343.89588 8.60393162,341.48038 C9.43663519,335.980922 10.1389794,330.425537 11.5090827,325.051249 C12.6317693,320.651682 12.474806,316.009767 14.2679121,311.764665 C14.5286308,311.146808 14.5286308,310.387803 14.52331,309.695377 C14.4727625,301.641934 15.9306588,293.740292 16.875099,285.785386 C17.0400435,284.397871 16.8937218,282.938451 17.2714978,281.620179 C19.0353396,275.481559 18.782602,269.185812 18.9794713,262.914033 C19.1231326,258.39196 18.923603,253.813961 20.5863497,249.467659 C20.8098229,242.474159 23.182895,235.792251 23.4675573,228.78011 C23.6218602,224.979758 24.6567537,221.22468 25.130304,217.426992 C25.6038543,213.629303 25.4069851,209.749056 26.6866349,206.047242 C27.0218447,205.077846 27.1389021,203.985944 27.1362417,202.952632 C27.1335813,199.067058 28.2722302,195.407855 29.0490655,191.65544 C29.7567305,188.243912 30.4856787,184.856353 31.4540624,181.508741 C34.7423103,170.142307 37.6022347,158.653367 41.2789003,147.398786 C41.7098843,146.080514 41.9892257,144.698326 42.1834345,143.324127 C42.4308513,141.574421 42.3590206,139.779441 41.4491656,138.226809 C35.2797101,127.693949 31.1374754,116.090493 24.3508083,105.885203 C21.3605246,99.2059585 18.3702409,92.529377 15.3799571,85.8501323 C14.7255,81.0244579 12.8286385,76.433143 12.8259781,71.4689835 C12.8233177,66.582056 12.589203,61.6924654 12.4535229,56.805538 C12.4056358,55.0611579 12.7807514,53.1543241 12.2061062,51.5990295 C10.0884319,45.8652121 12.3657298,40.5867979 13.6240966,35.2444674 C14.4195546,31.8728869 15.8109411,28.6371285 17.0134395,25.3694119 C18.7267338,20.7221702 21.5095067,16.7646911 24.7578487,13.0442346 C30.0546947,6.98018355 36.9291548,3.84296256 44.5032988,2.00803449 C47.5680736,1.26500846 50.7392641,1.39017772 53.8306429,2.21309902 C55.5120124,2.66051254 57.2120046,3.05466254 58.8694306,3.58996086 C68.1621896,6.58869672 77.2900041,9.84043426 85.3164151,15.7367053 C88.7882303,18.2880276 91.7465893,21.0310986 93.7206022,24.8341135 C94.3617574,26.0698271 94.9763086,27.3215196 95.6334261,28.5492437 C96.0803724,29.3828177 97.5489103,30.0645906 98.2406129,29.7583254 C101.427766,28.3521687 104.604277,26.9193801 107.78877,25.507897 C110.332107,24.3813737 112.824897,23.1110388 115.440065,22.1869169 C127.246897,18.0083942 138.912728,13.4170792 150.905788,9.78450757 C160.21983,6.96154132 169.528551,4.05601661 179.308163,3.22510579 C185.400467,1.34490374 191.702942,1.53931556 197.968172,1.32626151 C202.490843,1.17446049 207.058741,1.46208347 211.451052,0 C218.072775,0.0532635143 224.694498,0.106527029 231.31356,0.159790543 C235.740457,1.43545171 240.303034,1.17712367 244.825705,1.34490374 C248.661994,1.48871522 252.498283,1.57393685 256.334573,1.69111658 C259.122666,1.77900138 261.91076,1.78166455 264.616382,2.67116524 C265.598067,2.9934095 266.664886,3.15053687 267.699779,3.19048451 C277.873129,3.57930816 287.548985,6.59135989 297.376483,8.79114303 C300.090086,9.39834709 302.806349,10.0162039 305.474725,10.7885248 C314.256688,13.3265313 322.336307,17.3932006 329.83596,22.5570983 C332.775696,24.5811118 335.928264,25.8727521 339.317607,26.7489369 C340.788805,27.129771 342.129644,26.7409473 343.175179,25.7369301 C345.939329,23.0790807 348.392213,20.0457236 351.377176,17.6808236 C360.129875,10.7432508 370.039846,6.8976251 381.39175,7.75516768 C388.165115,8.26649742 394.26008,10.6473765 399.490416,15.0575955 C400.283214,15.7260526 401.025464,16.5010367 401.621392,17.3479266 C406.883653,24.7835132 411.560627,32.5200386 413.73417,41.5109199 C413.896454,42.1847033 414.375325,42.8052233 414.428533,43.4736804 C414.915385,49.3806041 416.652623,55.1250741 416.711151,61.0852614 C416.745736,64.5740215 416.937285,68.0734344 415.748088,71.4556676 C415.519294,72.1054825 415.415539,72.8138872 415.349029,73.5063129 C414.050757,86.9926347 409.115724,99.1313896 401.847526,110.436571 C400.344403,112.774839 399.173829,115.326161 397.814367,117.760304 C396.62251,119.890844 395.654127,122.223786 394.100456,124.053388 C390.929265,127.78716 391.283098,131.62746 392.818146,135.808646 C394.496855,140.383981 395.981355,145.031223 397.524384,149.654496 C400.280553,157.91833 402.294472,166.389892 404.268485,174.856128 C407.745621,189.767249 411.408985,204.625106 415.649654,219.341815 C416.804265,223.347231 418.083915,227.387269 418.565446,231.499212 C419.257149,237.390157 420.989066,243.08669 421.385465,249.033561 C421.662146,253.182789 422.742266,257.273427 423.181231,261.419991 C423.585611,265.233659 423.151967,269.180485 423.894217,272.908931 C425.823003,282.613544 425.245698,292.374083 425.200471,302.131958 C425.19249,303.876338 425.253679,305.673982 424.862601,307.351783 C422.694379,316.672898 423.622857,326.113856 423.622857,335.517529 C423.622857,337.248593 423.729273,339.054226 424.232087,340.69208 C425.067451,343.413845 425.171207,346.188874 425.370736,348.966567 C425.572926,351.752248 425.791079,354.505972 426.698273,357.209095 C427.240994,358.830969 427.262277,360.639266 427.424561,362.372993 C427.722525,365.494235 427.8183,368.612814 428.744117,371.678129 C429.340045,373.646216 429.385272,375.806051 429.491688,377.891318 C430.196692,391.857011 430.156787,405.822705 429.443801,419.788398 C429.37197,421.183902 429.489027,422.635333 429.135195,423.961595 C427.767752,429.098861 427.874168,434.326674 427.871507,439.559815 C427.871507,440.601116 427.727846,441.645081 427.624091,442.68372 C427.467127,444.268309 425.676682,445.978068 424.128332,446 C422.236791,446.026005 420.725687,445.203084 419.813172,443.586536 C419.318338,442.707688 418.932581,441.615786 418.943223,440.627748 C419.028355,433.296025 419.225224,425.966966 419.390169,418.635243 C419.39815,418.286367 419.414112,417.929502 419.493924,417.593941 C421.981393,407.25283 420.786876,396.751928 420.832103,386.306953 C420.840084,384.581215 420.435704,382.852814 420.201589,381.12974 C419.874361,378.716902 419.451358,376.317381 419.203941,373.896554 C418.818184,370.088213 418.913958,366.239924 417.602384,362.527457 C417.035719,360.924225 417.123512,359.083971 416.947926,357.34758 C416.77234,355.61119 416.897379,353.80023 416.445112,352.141072 C414.117266,343.581625 414.505684,334.82244 414.497703,326.119182 C414.492382,317.740831 414.888781,309.357154 415.263897,300.98413 C415.42086,297.514012 416.290809,294.059873 416.277507,290.600408 C416.261545,287.143605 415.482049,283.694793 415.160141,280.232665 C414.931347,277.801185 414.902083,275.351063 414.793007,272.908931 C414.74512,271.862303 414.630723,270.810349 414.697232,269.769047 C414.984555,265.161753 413.260619,260.834093 412.896145,256.314683 C412.563596,252.154803 412.800371,247.912364 411.318531,243.890969 C411.081756,243.243817 410.97534,242.538075 410.887547,241.850976 C409.429651,230.343394 407.846716,224.452449 404.074276,211.328319 C400.285874,198.150926 396.018601,179.865561 393.730661,168.752129 C393.45132,167.391246 393.105468,166.038353 392.701088,164.706765 C389.482011,154.04341 386.685936,143.244232 382.349492,132.943068 C381.812093,131.664744 381.535412,130.282556 381.083144,128.966947 C378.132767,120.404837 375.272842,111.813432 370.909795,103.810589 C368.906517,100.13807 367.656132,96.122001 366.477577,92.1006057 C364.022033,83.708939 359.994195,75.948445 356.618154,67.9296229 C354.846331,63.7218053 352.020992,60.1132022 349.121162,56.6297684 C345.322118,52.0677484 342.012587,47.1728314 338.59664,42.3285148 C331.631726,32.4534593 322.62363,24.9273247 311.234479,20.415905 C304.729814,17.8379509 297.908562,16.4397837 291.196386,14.6581191 C285.15729,13.0522242 279.006457,11.8191738 272.858285,10.6899873 C269.788189,10.1253941 266.611678,10.1227309 263.480393,9.93364541 C258.963043,9.66200149 254.424409,9.78717075 249.976229,8.61271026 C248.321464,8.17594944 246.512395,8.27981329 244.769837,8.23453931 C237.094598,8.02414843 229.419359,7.85903153 222.582144,7.69924099 Z"/>
    <path fill="#000" d="M381.896111 204.894923C382.253572 211.286205 380.500948 216.984168 378.428211 222.46962 375.976673 228.956532 372.954265 235.246871 369.915851 241.494708 367.322929 246.826089 364.052433 251.73776 359.738899 255.932204 355.033226 260.50917 349.199152 262.660848 342.956932 263.797785 338.60872 264.58939 334.676655 262.96899 331.176744 260.469324 328.594492 258.625787 326.532426 256.274879 325.225294 253.323626 323.531359 249.503733 322.17621 245.553677 321.13584 241.526585 319.655314 235.794088 317.61192 230.295354 315.427144 224.793964 313.455776 219.831822 310.910871 215.326579 307.18688 211.639505 299.722893 204.252076 293.189903 196.134139 287.137085 187.601804 283.802566 184.634613 282.772866 180.426886 281.839201 176.452922 280.646777 171.379211 280.59876 166.140804 282.52211 161.048498 283.623835 158.129122 284.285404 155.050363 285.304433 152.096453 286.208754 149.47725 287.177099 146.858046 288.396199 144.374319 291.197195 138.671043 295.980229 135.456807 302.110409 134.104703 303.47356 133.80453 304.898066 133.716869 306.210533 133.278565 307.973827 132.691502 309.582399 133.180278 311.313681 133.403415 319.273845 134.418157 325.881527 137.977724 331.496857 143.529586 337.450975 149.416153 343.82124 154.835195 350.258195 160.182514 351.330576 161.072406 352.346938 162.057928 353.515353 162.804374 359.154692 166.398474 363.646956 171.312801 368.635396 175.658661 374.370769 180.65268 377.761308 186.969582 380.060792 194.024963 381.255884 197.677503 382.346938 201.338013 381.896111 204.894923zM325.233297 178.245987C324.926521 177.794401 324.619746 177.342814 324.31297 176.891227 324.150245 177.101082 323.987521 177.308281 323.822129 177.518136 324.350316 177.701427 324.878504 177.882062 325.40936 178.065353 325.430701 180.472045 325.548076 182.881393 325.436036 185.280116 325.372013 186.672066 324.72645 187.957761 323.560702 188.839683 322.248236 189.830518 320.882417 190.754943 319.380549 191.8175 320.372902 192.65692 321.103829 193.392741 321.944127 193.963866 323.17123 194.800629 324.619746 194.851101 325.937547 194.364981 329.466802 193.063348 331.891664 189.891615 330.445817 186.355956 329.666873 184.448665 329.309413 182.363397 328.458444 180.495952 327.898245 179.274012 326.801855 178.291146 325.233297 178.245987zM50.1088671 225.391776C50.1088671 223.64306 50.1407307 221.897009 50.1035565 220.148292 49.9654812 213.691902 51.6914234 207.630039 54.7450135 202.098656 58.6137794 195.085128 62.9870515 188.348837 67.2089717 181.535239 67.9338675 180.364985 68.9614669 179.370669 69.8987863 178.344364 72.2487231 175.766606 74.7287693 173.298143 76.9778048 170.635082 86.6590131 159.169791 99.1601454 151.711088 112.441935 145.371989 117.87467 142.780903 123.668525 141.85323 129.677459 142.018505 132.980647 142.111805 135.840401 143.298054 138.230167 145.411975 140.041079 147.011411 141.782953 148.832103 143.065461 150.866052 145.476469 154.696702 147.63788 158.695292 149.677147 162.741865 150.436562 164.248001 150.853443 166.071358 150.909204 167.76676 151.04728 171.951951 151.039314 176.153137 150.805648 180.332996 150.548084 184.926044 148.997391 189.212532 146.684629 193.149811 143.145119 199.179685 139.050653 204.801703 134.263155 209.927895 126.642456 218.085019 119.558127 226.663328 113.83862 236.334585 111.719694 239.919988 109.25558 243.316123 106.470175 246.480341 102.704965 250.756167 98.1989284 254.000356 93.1990065 256.479482 89.4922136 258.318834 85.6181371 259.814307 81.2926604 259.976916 76.6219951 260.150188 72.3097949 259.366465 68.2790559 256.999299 65.5812754 255.413192 62.8914608 253.805758 60.1565062 252.286294 53.717414 248.708889 51.4683785 242.553726 50.4142261 235.85742 49.8752011 232.431961 50.1141777 228.883879 50 225.391776 50.0318635 225.394442 50.071693 225.394442 50.1088671 225.391776zM106.228543 178.552291C104.040579 177.398031 102.078315 177.432686 100.272714 178.744223 98.3104508 180.170387 96.6482357 181.868455 96.202146 184.446213 95.96848 185.795071 95.6551551 187.141263 95.2223418 188.436806 94.4762037 190.676016 95.3365196 192.440727 96.6615121 194.112138 98.4272838 196.340686 100.498414 196.564607 102.874904 194.786567 104.303453 193.717611 104.608812 192.542025 103.761773 191.355777 102.774003 189.972264 101.642847 188.668724 100.822361 187.189246 99.8558329 185.44586 100.424066 182.769471 101.932274 181.548568 103.228059 180.500937 104.667229 179.629244 106.228543 178.552291zM211.781082 247.297294C211.781082 244.859954 211.765037 242.419953 211.78643 239.982613 211.805148 237.704924 211.03502 235.858293 208.80753 234.97489 203.189336 232.745096 198.528454 229.03853 193.926402 225.308016 188.762797 221.122496 184.053782 216.466006 180.28871 210.912809 178.518484 208.299852 177.103908 205.540549 175.657243 202.757298 173.234547 198.087504 175.443318 193.955201 178.777867 190.666388 180.815499 188.657445 183.454793 187.340324 186.094088 186.709702 190.821821 185.57884 195.466659 183.883878 200.475168 184.006277 207.104156 184.168589 213.781276 183.524663 220.241799 185.7039 221.212482 186.031185 222.327563 186.095045 223.362424 186.04715 229.381726 185.759778 235.125601 187.595766 241.016549 188.276944 248.410318 189.128416 253.052481 193.42037 255.287993 200.370514 255.715842 201.706262 255.710494 203.132478 254.975128 204.425652 253.94829 206.235031 253.119332 208.225348 251.790326 209.787268 249.081506 212.972308 246.158761 215.987053 242.535414 218.224829 240.457671 219.507359 238.489565 220.965506 236.427867 222.274645 230.831065 225.834865 225.605958 229.916611 220.212384 233.758881 219.035799 234.597049 218.289737 236.063178 218.656083 237.433517 220.212384 243.250139 219.37273 249.229072 220.059963 255.09625 220.241799 256.639544 221.830189 258.56334 223.319639 258.818782 231.662697 260.260963 239.987037 260.705326 248.236504 258.214768 251.236796 257.307418 254.229066 256.37612 257.245403 255.519326 258.582431 255.141485 260.569256 256.264364 261.582723 257.820962 262.14695 258.685739 262.16032 260.03213 261.491806 260.721291 260.775158 261.458347 260.066533 262.333767 259.16805 262.743538 253.742388 265.21813 247.961076 266.859875 242.136979 267.666113 235.237912 268.618698 228.173052 268.74908 221.359555 266.442122 220.370153 266.106854 219.327271 265.928577 218.308455 265.670475 216.543578 265.226113 214.786722 265.356494 213.19031 266.146767 210.984213 267.243038 208.60965 267.844391 206.342049 268.727793 202.593021 270.191262 198.718312 270.289713 194.963936 269.542014 187.083489 267.974772 179.35279 265.84343 172.306649 261.735075 169.228809 259.941661 166.562774 257.807658 164.482357 254.931278 163.845932 254.050536 163.816517 252.903709 164.53049 252.09481 165.239116 251.293893 166.562774 250.825583 167.335576 251.131581 168.298237 251.512083 169.29566 251.836707 170.20484 252.318321 173.293376 253.949423 176.307038 255.726872 179.433011 257.286131 184.134004 259.630342 188.915218 261.798936 194.32751 261.910691 199.287886 263.861096 203.916679 262.011804 208.574887 260.644126 210.203388 260.165173 211.511002 258.342489 211.524372 256.708726 211.553787 253.574243 211.532394 250.437099 211.532394 247.302616 211.617964 247.297294 211.698186 247.297294 211.781082 247.297294zM113.056062 258.004436C115.221813 258.13575 116.642243 260.256989 115.707892 262.085295 115.275822 262.931265 114.70873 263.767134 114.003915 264.418658 113.582647 264.810077 112.73741 265.067656 112.148714 264.984321 110.523051 264.751995 108.997303 263.001973 109 261.625693 109 259.890823 111.235966 257.893323 113.056062 258.004436zM128.744492 237C129.047428 237.078409 129.368035 237.118965 129.653299 237.243338 132.710425 238.570882 132.47565 242.775223 130.688329 244.224436 129.456391 245.224826 127.328268 245.287012 126.103903 244.237955 124.834098 243.151045 124.604371 241.006966 125.705038 239.552346 126.318482 238.743923 127.083395 238.062576 127.825587 237.378526 128.057838 237.164929 128.433983 237.121669 128.744492 237zM132.316773 275.97985C130.865048 275.822361 128.947338 274.072487 129.001106 272.955068 129.054874 271.81015 131.000748 270.15027 132.449912 270.015279 134.190957 269.852791 135.780941 271.005208 135.978088 272.570095 136.221323 274.512456 134.403467 276.204834 132.316773 275.97985zM298.012656 253.94015C297.925005 251.948573 298.283343 250.611532 299.378982 249.570989 300.095659 248.888482 301.374334 248.796176 302.134836 249.411551 304.689608 251.478651 304.614847 254.26462 301.941488 256.552695 301.196453 257.190447 299.817237 257.170867 299.234615 256.334517 298.659727 255.498167 298.288499 254.493987 298.012656 253.94015zM142.049283 261C141.432142 260.647961 140.496556 260.347774 139.849792 259.698276 138.850023 258.691282 138.748812 256.942006 139.459759 255.855871 139.825106 255.299159 140.254636 254.709699 140.782909 254.390408 141.281559 254.087492 141.992506 253.907379 142.530653 254.049286 144.113003 254.461362 145.349754 256.565406 144.91035 258.044514 144.495631 259.436294 143.661256 260.481494 142.049283 261zM295.247969 260.044501C295.85296 260.380225 296.535001 260.629937 297.045819 261.068321 298.278631 262.122662 298.298607 263.426715 297.211336 264.650305 296.246774 265.732391 294.357604 266.315053 293.432995 265.823952 292.454166 265.305106 291.729318 263.365674 292.097449 262.16428 292.525509 260.779765 293.989473 259.772592 295.247969 260.044501zM282.823144 257.431102C282.186175 258.885369 280.914774 259.403498 279.755034 258.667604 278.059833 257.588794 277.590354 256.602596 278.356747 255.663955 279.585006 254.159628 280.643238 253.676541 281.554281 254.209689 282.759701 254.915546 283.310387 256.314746 282.823144 257.431102zM287.918352 243.959951C287.4128 243.959951 287.006099 244.06061 286.709546 243.942765 285.554402 243.481206 284.749472 241.878023 285.071444 240.787957 285.359524 239.815736 286.099494 239.241242 287.215098 239.052199 287.562489 238.993277 287.952244 238.973636 288.288337 239.049744 288.974645 239.204416 289.994222 240.581729 289.999871 241.256882 290.011168 242.759405 289.279671 243.682524 287.918352 243.959951zM122 257.658217C122.012105 256.377975 123.263744 255.100469 124.476648 255.004724 125.662921 254.911715 127.035609 256.208371 126.999295 257.455786 126.96298 258.681317 126.251216 259.277669 125.389352 259.731772 124.188553 260.360951 122.699659 259.838459 122.145258 258.632077 122.019368 258.35305 122.045998 257.983749 122 257.658217zM285 274.441669C284.668988 274.910432 284.436521 275.560961 283.966535 275.816867 283.52687 276.056032 282.743559 276.056032 282.271045 275.845567 281.361394 275.441378 281.005114 274.60191 281.00006 273.638075 280.989953 272.250919 282.258411 271.595607 283.620362 272.262877 284.570442 272.73164 284.891347 273.511318 285 274.441669z"/>
    <path fill="#FFF" d="M327.883346 182.075848C327.703234 180.952819 327.145142 179.879703 326.447527 179.039511 326.107598 178.62912 325.686492 178.23814 325.245091 177.960849 325.115715 177.880434 324.978729 177.81943 324.839206 177.758426 324.816375 177.747335 324.661631 177.689104 324.608359 177.669693 324.357217 177.572641 324.11876 177.439542 323.862545 177.350809 323.238496 177.137295 322.591616 177.062426 321.944737 177.098474 321.828045 177.079063 321.716426 177.045788 321.597198 177.031924 321.034032 176.962601 320.470866 177.012514 319.91531 177.120657 319.334387 177.234346 318.657066 177.489454 318.263865 177.988578 318.020334 178.296371 317.918862 178.692897 318.073606 179.081105 318.210592 179.4194 318.547984 179.729966 318.910744 179.696691 319.397807 179.652324 319.84428 179.463766 320.318659 179.341758 320.351637 179.333439 320.5698 179.289073 320.590095 179.283527 320.605315 179.280754 320.617999 179.280754 320.64083 179.277981 320.706787 179.269663 320.77528 179.264117 320.841236 179.261344 321.041642 179.247479 321.244585 179.250252 321.444991 179.264117 321.526168 179.269663 321.609881 179.277981 321.691058 179.289073 321.7215 179.297392 321.894001 179.330667 321.921906 179.338985 322.137532 179.388898 322.340475 179.463766 322.551028 179.535862 322.591616 179.549726 322.609374 179.555272 322.622058 179.558045 322.632205 179.563591 322.647426 179.57191 322.680404 179.59132 322.786949 179.646778 322.890957 179.702237 322.994965 179.766013 323.098973 179.82979 323.197908 179.893567 323.296842 179.965663 323.32221 179.985073 323.545447 180.165313 323.418608 180.054396 323.61394 180.223544 323.809272 180.387145 324.009678 180.545201 323.91328 180.470333 324.13398 180.661663 324.161885 180.692165 324.194863 180.728213 324.33185 180.908453 324.306482 180.875178 324.562697 181.241202 324.778323 181.665457 324.938141 182.092485 325.087811 182.489011 325.227334 182.896629 325.331342 183.309793 325.450571 183.789506 325.478475 184.177714 325.354173 184.6602 325.298364 184.873714 325.417593 185.028997 325.5698 185.081682 325.605315 185.220328 325.65605 185.356201 325.724543 185.492073 326.003589 186.030018 326.581976 186.110432 327.056354 185.874735 327.779338 185.514256 327.926471 184.577013 327.98228 183.806144 328.030479 183.226606 327.97467 182.644294 327.883346 182.075848zM111.452666 179.185571C111.196028 179.073373 110.936771 178.96919 110.674896 178.87302 110.847734 178.437587 110.693227 177.812485 110.169476 177.652203 109.381231 177.411779 108.595604 177.115257 107.770696 177.027102 106.948407 176.938946 106.065887 177.080529 105.259311 177.240812 103.669726 177.558705 102.12728 178.245248 100.846708 179.257698 99.6316062 180.219392 98.6050543 181.432196 97.8639466 182.807953 97.4816084 183.515866 97.240683 184.309264 97.0861764 185.099991 96.9290511 185.901402 97.0128513 186.670758 97.1306953 187.47217 97.2537767 188.292281 98.29866 188.049186 98.5369667 187.47217 99.0109613 186.315465 99.6289875 185.198831 100.23392 184.111583 100.807427 183.077761 101.572104 182.145452 102.499143 181.42151 102.784587 181.197115 103.085744 180.99409 103.392138 180.807094 103.441895 180.793737 103.49427 180.777709 103.544026 180.767024 104.316559 180.596056 105.068141 180.446459 105.859005 180.40906 107.493108 180.334261 109.080074 180.625441 110.596333 181.250542 111.753823 181.726047 112.604918 179.693132 111.452666 179.185571z"/>
  </g>
</svg>
