<svg xmlns="http://www.w3.org/2000/svg" width="559" height="386" viewBox="0 0 559 386">
  <g fill="none">
    <path fill="#D7A9FF" d="M386.600397 197.542002C384.763225 197.420025 382.827151 197.542002 380.864104 197.825599 379.593368 192.949565 375.232706 188.680366 369.93098 189.018852 356.720123 189.857445 344.498281 197.282801 338.369379 209.416473 335.648086 214.804812 336.99075 221.592838 342.325443 224.767292 342.514255 224.88012 342.712058 224.971603 342.906865 225.072234 344.558222 231.128398 352.017801 235.117049 357.826023 232.814731 359.591267 234.653536 361.955914 235.903801 364.521362 235.983086 374.944992 236.306326 385.227763 231.997484 390.985035 222.971179 392.474554 220.635317 392.546482 218.015859 391.719305 215.683047 399.259804 209.940975 396.394654 198.19153 386.600397 197.542002zM205.805639 211.170042C205.829665 211.064207 205.871709 210.970468 205.892731 210.861609 206.883771 206.298625 205.13894 201.796117 201.502124 198.989987 195.162471 194.097403 186.438317 196.195953 179.443978 198.348932 171.22135 200.876868 164.224007 204.922774 157.578034 210.347555 152.229421 214.71399 156.025405 222.261511 161.49114 223.846007 159.301843 227.018022 158.545048 230.861331 160.319911 234.928405 162.713422 240.410639 168.4104 243.268174 174.269548 241.822775 176.038404 241.387342 177.789242 240.90655 179.537076 240.407615 182.804504 243.86992 188.654643 245.357652 192.723913 242.469879 198.459931 238.399781 204.171925 234.341779 210.088133 230.540803 218.87235 224.898306 214.908191 212.053005 205.805639 211.170042z"/>
    <path fill="#000" d="M458.223752,235.179698 C457.278902,235.191767 456.22538,234.926251 455.410334,235.258146 C449.677843,237.593482 443.86083,239.651233 437.859676,241.187003 C436.76993,241.464588 435.574529,243.190444 435.523211,244.43656 C435.369258,248.244304 435.100595,252.055066 435.130782,255.86281 C435.34209,281.605817 435.610753,307.351841 435.882435,333.094848 C435.903566,334.99872 435.794893,336.965954 436.226566,338.791379 C438.348704,347.755569 437.210658,356.825363 437.237826,365.852915 C437.240845,367.201617 436.501266,368.571439 436.024313,369.902038 C435.493024,371.39255 434.201025,371.932634 432.78526,372.204184 C431.828336,372.388236 429.787702,370.580915 429.721291,369.62747 C429.555263,367.25291 429.301693,364.881367 429.268488,362.50379 C429.132647,352.969343 429.132647,343.431879 428.951525,333.897431 C428.791535,325.346601 429.392254,316.759565 427.300302,308.296234 C426.394696,304.639352 427.722919,300.680746 426.283004,297.014811 C426.126032,296.619554 425.806051,296.052315 425.498145,296.010074 C425.099678,295.955763 424.492922,296.233349 424.233315,296.568261 C423.083194,298.049721 421.84855,299.51006 420.964074,301.148416 C413.933548,314.194919 409.191188,328.15866 404.877481,342.261193 C403.917538,345.396095 403.754529,348.823669 403.564351,352.136587 C403.262483,357.404671 402.338764,362.506807 400.150214,367.30722 C399.872495,367.916701 398.574459,368.426612 397.813749,368.351182 C397.034927,368.272734 395.978386,367.563685 395.685573,366.86067 C395.154284,365.593433 394.955051,364.133094 394.870527,362.739134 C394.324145,353.569772 396.286293,344.714201 398.837085,336.042682 C401.249017,327.838834 404.062435,319.728519 407.192816,311.772083 C410.510355,303.332891 415.131967,295.530334 420.336187,288.092862 C422.243999,285.365286 424.124642,282.619606 426.210556,279.605394 C426.340359,277.918762 426.554686,276.042045 426.612041,274.162311 C426.687509,271.781716 426.657322,269.395087 426.633172,267.011475 C426.61506,265.189068 426.775051,263.306317 425.314005,261.836926 C422.509643,262.983473 420.988224,265.508895 419.306814,267.759748 C410.890709,279.035137 399.923813,287.296313 388.11772,294.643268 C375.928254,302.228585 362.778846,307.665633 349.481521,312.95182 C338.858755,317.172925 328.04883,320.83886 317.368708,324.872896 C312.946329,326.544442 308.330753,328.155643 303.678954,328.686675 C293.288627,329.869429 283.12772,332.974159 272.532122,332.440109 C270.153395,332.31942 267.756556,332.361661 265.380848,332.518557 C255.742174,333.146141 246.338958,331.583216 237.183274,328.922019 C226.678237,325.868582 216.001134,323.548332 205.438742,320.772481 C195.305003,318.111284 185.31918,314.955261 176.112179,309.798815 C159.913894,300.722987 147.199176,288.162258 138.55667,271.676113 C135.468551,265.78648 132.552498,259.824433 130.388098,253.464112 C129.044781,249.511541 127.903717,245.233109 124.679757,242.128379 C122.980235,247.963702 122.805151,253.811094 123.900935,270.086033 C125.126523,271.03646 126.626811,272.15887 128.078801,273.338607 C133.28302,277.574798 137.660119,282.4959 141.578378,287.993293 C147.953849,296.945415 153.52333,306.386328 158.790942,315.966033 C162.902396,323.442729 165.800338,331.601319 168.094541,339.853444 C171.149454,350.851247 172.704079,362.171894 174.391526,373.438232 C174.877535,376.681754 174.403601,380.07312 174.331152,383.395091 C174.307003,384.505431 172.329762,386.267494 171.34265,385.965771 C170.473268,385.697237 169.510306,385.416635 168.858269,384.837327 C168.179064,384.233881 167.65985,383.322677 167.354962,382.447681 C166.893103,381.117082 166.458412,379.711053 166.395019,378.32011 C165.884861,366.842567 163.005032,355.808556 160.390847,344.702132 C158.08155,334.8901 154.570815,325.584963 149.523567,316.898357 C144.741964,308.667354 139.649435,300.620401 134.756141,292.452759 C132.531367,288.738549 129.805491,285.452785 126.617755,282.562279 C126.044204,282.043316 124.990682,281.998057 124.139412,281.901506 C123.991496,281.883402 123.583973,282.701072 123.574917,283.13857 C123.375683,291.227764 123.230786,299.316958 123.049665,307.406151 C122.910805,313.588456 122.787039,319.710416 121.347124,325.847462 C120.27549,330.421582 120.41435,335.321564 120.366051,340.079736 C120.302658,346.346523 119.197818,352.374948 117.048511,358.228375 C116.906633,358.617597 116.067438,359.151647 116.022157,359.112423 C115.424457,358.557253 114.603373,357.980962 114.434327,357.271913 C114.111327,355.905108 114.005673,354.438734 114.096234,353.029687 C114.847887,341.162922 114.307542,329.241845 116.336101,317.411286 C117.205483,312.348374 116.634951,306.938481 116.094606,301.751862 C114.811663,289.399322 114.706009,277.128248 116.170073,264.757604 C117.00625,257.700303 116.644007,250.483089 116.562503,243.341305 C116.541372,241.476657 115.352008,239.762871 113.516645,238.791322 C113.097048,238.568047 112.704618,238.284428 112.266908,238.103394 C102.957272,234.238322 94.5924846,228.798256 86.5567347,222.796986 C86.1975107,222.528452 85.6813149,222.383625 85.2254929,222.35647 C84.3893161,222.305177 83.836896,222.956899 83.7644474,224.145688 C83.4957841,228.415068 83.302588,232.687466 83.0097752,236.953829 C82.8920463,238.667616 80.226544,240.405541 78.8168163,239.756836 C77.0871076,238.960287 75.2849503,238.254256 73.6941012,237.234432 C72.1032522,236.211591 70.6120198,234.965475 69.2777593,233.616773 C57.4354427,221.635352 47.5311244,208.398764 42.3510542,192.084601 C41.9344751,190.772106 41.0650927,189.583317 40.2983457,188.406598 C40.0779814,188.068668 39.4953745,187.872548 39.0516272,187.818238 C38.7950386,187.785048 38.2607307,188.135047 38.2365812,188.355305 C37.6811424,193.532871 37.1860774,198.716473 36.6547882,203.897057 C36.5551714,204.865588 34.1583324,206.20222 33.2104641,205.882394 C32.7576608,205.728515 32.2867453,205.619895 31.8580915,205.420758 C29.669542,204.409986 27.5383476,203.178956 26.2795544,201.112153 C21.3289045,192.995804 16.511077,184.876438 13.7912383,175.574318 C10.6216149,164.742462 9.81260632,154.130864 13.5889862,143.350301 C14.250079,141.461515 13.8304813,139.096006 13.2599491,139.322299 C12.0675669,139.796004 11.0110258,140.601604 9.87901747,141.241257 C9.46847578,141.473584 9.02472851,141.666686 8.57494386,141.79341 C8.11912183,141.920134 7.63311292,141.938237 7.16219745,142.004616 C2.7881172,135.45421 3.01150018,127.521912 0.656922827,120.365042 C-0.179254004,110.845681 -0.224534338,101.323303 0.56334347,91.8009251 C3.10809823,85.0785365 2.22060369,77.5777026 5.30268507,70.9790204 C9.01869113,54.4657202 18.1290943,41.4373208 31.3449144,31.1696869 C44.9893883,20.5641232 59.8896368,12.10381 76.4169586,6.95339832 C82.710925,4.99219877 89.0924334,2.84694819 95.8724087,2.63272486 C98.7009202,2.54522519 101.505282,1.78488321 104.324738,1.34738485 C105.26355,1.2025578 106.256699,0.849541886 107.144193,1.01850677 C117.836389,3.04005092 129.011576,2.90427556 139.018529,8.03960114 C141.13463,9.12580397 143.326199,10.0671798 145.424187,11.1835549 C148.367409,12.7494973 151.159696,14.6292316 154.187441,16.0020713 C162.428462,19.7464538 167.877195,26.0886714 171.713949,34.0662277 C172.948593,36.6308733 174.31304,39.132157 175.638245,41.6515441 C176.251039,42.8161949 178.004897,43.1390386 179.408587,42.3696449 C180.241745,41.9110259 181.089997,41.4735276 181.892968,40.9636157 C203.908266,26.9847888 228.148338,18.9499051 253.589849,14.122337 C260.421142,11.5154502 267.614677,11.6059671 274.747839,11.3344164 C285.237783,10.936142 295.76697,10.5529538 306.193522,11.85338 C312.768226,12.6740665 319.237277,14.4270772 325.374271,17.1335326 C341.989135,24.4623844 357.84027,33.1097658 372.311865,44.1558451 C372.689201,44.4454992 373.102762,44.6898948 373.489154,44.96748 C375.77732,46.6028187 378.322075,46.5002328 379.786139,44.4394647 C389.672345,30.5149479 403.449641,21.0921384 417.5439,12.1400168 C426.470163,6.47064151 436.664275,3.67668646 446.798014,1.021524 C449.973675,0.188768501 453.421018,0.282302633 456.75365,0.16463066 C469.1182,-0.27588493 473.205505,-0.0043342237 485.020653,3.14263674 C497.463689,6.45555536 509.601837,10.6917464 520.713631,17.374911 C523.143676,18.8382676 525.443917,20.5731749 527.596242,22.4257541 C528.610521,23.3007508 529.226334,24.7037628 529.842146,25.9559133 C530.587762,27.47358 529.576502,30.3218452 528.088288,30.9011534 C526.340467,31.5830474 524.520198,32.0839076 522.733134,32.6632157 C521.459247,33.0765763 520.731743,35.1886373 521.525658,36.0847546 C522.78747,37.5028528 524.016077,38.9541404 525.359393,40.2937906 C534.155853,49.085999 541.198454,59.2842367 548.775363,69.072131 C554.595395,76.5940856 556.711496,85.3561217 558.036701,94.2056575 C559.44341,103.607346 559.226064,113.238345 557.925009,122.733568 C557.523524,125.654247 556.113796,128.24303 553.152462,129.33225 C551.736697,129.854231 550.351119,130.502935 549.925484,131.773189 C549.502867,133.043443 549.56626,134.687833 549.970764,135.994294 C553.421125,147.115804 553.252079,158.560158 553.140387,169.989425 C553.004546,183.874718 547.866738,195.946655 539.369129,206.71515 C536.127057,210.824617 532.779331,214.849602 529.446698,218.886656 C528.018858,220.615529 524.770749,220.277599 523.282535,218.16252 C522.482583,217.028042 521.528677,215.71253 521.432079,214.421155 C521.08493,209.675052 521.127191,204.898777 520.888715,200.143622 C520.828341,198.954834 520.266865,197.790183 519.844249,196.293637 C516.451242,201.416894 513.335955,206.172048 510.166332,210.890996 C504.787028,218.895707 497.946679,225.379735 490.04677,230.919369 C484.49842,234.808579 478.509341,237.566327 472.145945,239.627095 C468.535593,240.794763 464.837699,241.693898 461.173011,242.698635 C460.019872,243.015445 458.142247,241.83269 458.024518,240.532264 C457.855472,238.658564 457.930939,236.760727 457.903771,234.874958 C458.259976,234.699958 458.655424,234.576252 458.960312,234.334874 C459.144452,234.190047 459.186714,233.867203 459.292368,233.622807 C458.936162,234.141771 458.579957,234.660734 458.223752,235.179698 Z M427.107106,219.209499 C426.708639,198.339319 426.678453,198.046648 420.961056,173.290275 C420.106767,169.591151 418.896273,165.955389 418.32574,162.217041 C416.381705,149.472261 411.974419,137.391271 408.436515,125.087007 C405.291042,114.140497 401.378821,103.414244 397.7896,92.5974739 C396.742115,89.4414512 395.827452,86.2220667 394.514322,83.1776816 C389.971195,72.6294453 384.555667,62.5971553 376.015796,54.6437368 C373.591789,52.3868487 370.94138,50.3411667 368.24871,48.4010878 C356.264515,39.7597409 343.942227,31.6795987 330.394351,25.6210008 C319.007856,20.5279164 307.361754,16.6809481 294.644018,17.1576704 C288.932658,17.3718938 283.203187,17.4654279 277.491827,17.2813768 C267.364126,16.9524988 257.574518,19.2033524 247.929807,21.571878 C233.636315,25.0839338 219.55715,29.5222792 205.97305,35.2791542 C193.617556,40.5170656 182.369921,47.7282455 172.070154,56.2187309 C160.511595,65.7501607 152.50905,78.1962347 145.445318,91.248772 C144.545749,92.9082486 143.923899,94.7246211 143.244694,96.4957351 C139.492464,106.268543 136.555279,116.291782 134.547851,126.556398 C133.726768,130.747331 131.837068,134.66973 131.861218,139.08092 C131.909517,148.1658 128.640277,156.855423 128.435006,165.928233 C125.784597,173.26312 126.240419,180.94197 125.974775,188.533321 C125.808747,193.29451 125.733279,198.061734 125.772522,202.822923 C125.829878,209.943586 124.175636,217.218127 126.225326,224.145688 C128.238791,230.949542 131.070321,237.548224 133.959207,244.050354 C137.623895,252.305496 141.804779,260.334345 145.581159,268.544228 C148.2044,274.252827 151.706079,279.258412 156.216,283.612275 C158.615858,285.926491 160.8678,288.391568 163.219358,290.757076 C166.588215,294.145425 170.30724,297.041966 174.346246,299.648853 C183.242322,305.393659 192.920239,309.252696 203.044921,311.998376 C214.494808,315.100088 226.146948,317.4837 237.512311,320.853946 C245.868042,323.334109 254.259998,324.197037 262.860242,324.127641 C264.768054,324.112554 266.672846,324.13148 268.580658,324.109537 C284.94497,323.937555 287.93951,323.644884 303.983841,320.46774 C305.837316,320.099638 307.660605,319.523347 309.447668,318.898781 C316.626111,316.391463 323.825684,313.938455 330.940733,311.262172 C346.07644,305.565641 361.148753,299.730318 375.442246,292.057502 C388.959935,284.801064 401.330522,276.087303 412.055923,265.026138 C416.740929,260.195553 420.85842,255.096434 424.034081,249.134387 C425.869444,245.68871 427.245966,242.330533 427.149368,238.356841 C427.001452,232.642208 427.107106,226.924557 427.107106,219.209499 Z M470.473591,228.049983 C469.999657,229.096962 469.586097,230.524112 468.77407,231.664625 C467.992229,232.762897 467.889594,233.408584 469.121219,233.879272 C469.519686,234.030133 470.075124,234.048237 470.470573,233.894358 C481.730282,229.507306 491.821759,223.255605 499.652238,213.992709 C506.703896,205.650067 513.655936,197.105272 515.618084,185.81178 C515.69657,185.356178 515.962215,184.930748 516.149373,184.496267 C516.961401,182.616533 518.401315,181.466968 520.405725,181.213521 C522.047892,181.005332 523.056134,182.215241 523.795712,183.40403 C525.302038,185.826866 526.56385,188.346253 527.013635,191.266932 C527.665672,195.491054 528.54411,199.681986 529.449717,203.86085 C529.688193,204.959122 530.563613,205.411706 531.360547,205.194466 C531.804294,205.073776 532.287284,204.835415 532.586135,204.500503 C535.816132,200.909999 537.711868,196.504843 539.834007,192.262618 C543.945461,184.043683 544.866161,175.004062 546.11288,166.088147 C546.435879,163.786 546.233627,161.26963 545.644983,159.012742 C544.672965,155.295515 544.114508,151.554149 543.975648,147.746405 C543.713022,140.480915 541.533529,133.749475 538.487671,127.232258 C536.875692,123.786581 535.333141,120.307715 533.775498,116.834883 C533.416274,116.035317 534.352068,113.775412 535.453889,113.199121 C536.244786,112.78576 537.461317,112.275848 538.080148,112.595675 C541.856528,114.556874 545.509142,116.750401 549.213073,118.850393 C550.459792,119.556425 552.071772,118.666342 552.150257,117.221088 C552.681547,107.237074 553.306415,97.2409909 549.868129,87.5617169 C549.397213,82.1427717 546.921888,77.5867543 543.716041,73.3535805 C539.405353,67.6661018 534.810908,62.1717258 530.829258,56.2639894 C525.96615,49.0528095 520.073669,42.9761081 513.121628,37.8317309 C511.998676,37.0019926 511.038733,35.9489793 510.024454,34.9774312 C509.417697,34.398123 509.616931,31.4352031 510.40179,30.9856358 C512.42733,29.8270195 514.531356,28.8041785 516.596139,27.7179757 C518.06926,26.9425475 518.22925,25.1352267 516.913102,24.2451439 C512.982769,21.5899814 508.907539,19.2968865 504.560627,17.2783596 C492.772646,11.8051043 480.260181,9.21632087 467.626968,7.01072569 C462.935925,6.19003911 458.13621,6.2896077 453.427055,7.31848316 C451.570561,7.72279199 449.747273,8.45296166 447.875686,8.60080594 C438.125321,9.36718237 429.425459,13.4525119 421.139158,17.9753398 C409.411552,24.377902 399.105748,32.9347665 389.696495,42.4390412 C387.399272,44.7592911 385.808423,47.8097107 384.087771,50.6398725 C383.680248,51.3096976 383.725528,52.6433133 384.130032,53.3463279 C385.545797,55.8144221 387.260413,58.1135514 388.769757,60.5303527 C391.788446,65.3639552 395.241826,70.0044551 397.608478,75.1427979 C400.980354,82.4595808 404.00508,89.9694665 406.407956,97.6965927 C408.240301,103.589243 410.253766,109.424566 412.143465,115.299113 C415.340257,125.243903 418.364983,135.246021 421.724784,145.133484 C425.09666,155.057154 426.506387,165.439442 429.174908,175.52906 C431.106869,182.827739 432.9694,190.271246 433.047886,197.953113 C435.490005,204.835415 435.034183,212.040561 435.354164,219.149155 C435.52623,222.953882 435.453781,226.767661 435.538305,230.575405 C435.601697,233.414618 437.687611,235.221939 440.090487,234.543063 C445.581483,232.992206 450.824945,231.021955 455.799745,228.03188 C460.330797,225.307321 464.080008,221.65949 468.454088,218.820277 C469.075938,218.415968 470.364919,218.467261 471.022993,218.856483 C471.72031,219.266827 472.293861,220.274582 472.468945,221.116389 C472.991178,223.611638 471.747478,225.714647 470.473591,228.049983 Z M115.560298,230.738335 C116.055363,229.941787 116.879465,229.223686 116.915689,228.469378 C117.19039,222.284057 117.622062,216.086666 117.428866,209.907379 C117.000212,196.04019 119.846836,182.450585 120.568303,168.688999 C122.560637,161.788594 122.557619,154.57138 123.837543,147.601578 C124.957476,141.506773 125.259345,135.300331 126.626811,129.302078 C129.479472,116.801693 133.126049,104.500446 137.669175,92.4979053 C138.840427,89.4022272 140.358827,86.3910316 142.076461,83.5608698 C148.509287,72.9643578 155.352655,62.6574999 164.610974,54.2183074 C165.664496,53.2588282 166.708963,52.2661595 167.61457,51.170905 C168.8794,49.6441866 169.634072,47.8127279 168.734503,45.911873 C166.699907,41.6183546 164.737759,37.2584571 162.250359,33.230455 C160.792333,30.8679639 158.67925,28.6472825 156.357879,27.1356503 C150.785379,23.5029053 145.137412,19.8490396 139.121165,17.0641363 C127.348278,11.6089843 114.856943,8.0456356 101.819226,9.67192261 C92.4612902,10.8395906 83.0158126,12.5262223 74.2042596,16.3701734 C71.1523651,17.7007718 68.058209,18.9348189 65.0123519,20.2744691 C50.4803834,26.6679796 37.4668155,35.2731198 26.5029373,46.8381626 C23.5416035,49.964013 21.0602412,53.4036552 19.0558318,57.2506236 C13.6131357,67.708343 9.10019573,83.6845762 8.67757928,95.4789286 C8.4541963,101.66425 8.39382253,107.861641 8.50551402,114.04998 C8.58098124,118.313326 9.06397147,122.570637 9.40206462,126.827949 C9.49866267,128.065013 11.6177823,129.124061 12.6531926,128.466305 C15.056069,126.933552 17.3140483,125.102093 19.8678591,123.901236 C21.4828577,123.143911 23.5234914,123.140894 25.3830038,123.098653 C27.0946004,123.059429 28.9480754,125.805108 28.3020759,127.183982 C27.0946004,129.766731 26.0199471,132.43698 24.5528643,134.868867 C20.7795032,141.120568 19.5961771,148.195972 18.0536271,155.117498 C17.4498893,157.823954 17.5676181,160.892477 18.1472064,163.626087 C20.218027,173.407947 22.8231556,183.04498 28.6371504,191.435897 C29.0718416,192.06348 29.8295325,192.470806 30.8377746,193.315631 C31.1124753,190.624262 31.2151108,188.252719 31.6196151,185.929452 C32.4437171,181.186366 34.1100334,176.784227 37.3853109,173.115276 C38.5233566,171.838987 41.2281019,171.787694 42.5412316,172.913121 C44.4460243,174.54846 45.4784159,176.615262 45.8497146,179.026029 C46.9454987,186.140658 49.1370669,192.932443 52.4274378,199.289746 C57.9335264,209.934534 64.8795296,219.556481 73.9838953,227.473692 C74.4910351,227.914208 75.5777631,227.811622 76.3716783,227.733174 C76.6282668,227.709036 76.9512666,226.960763 76.9995656,226.517231 C77.3165279,223.681034 77.238042,220.757338 77.9232844,218.017693 C78.7171996,214.84055 79.5171521,211.566856 81.8807856,208.987124 C83.0792051,207.680663 85.7628195,207.514716 86.8072859,208.956952 C87.631388,210.097464 88.4645461,211.253064 89.1196016,212.493145 C91.4168239,216.840974 94.8883161,220.129754 98.9605275,222.634055 C104.207009,225.868526 109.513864,229.106014 115.560298,230.738335 Z"/>
    <path fill="#000" d="M320.922646 175.484961C320.959018 182.183726 320.78625 188.263911 319.246496 194.377289 318.103804 198.915552 318.125021 203.815909 318.131083 208.556342 318.146238 220.158483 314.954582 231.000223 310.823311 241.66695 307.634686 249.895568 300.939179 254.177347 293.179786 257.215931 291.879481 257.725882 290.373068 257.888825 288.960616 257.891842 283.238064 257.89486 277.445799 258.293165 271.814177 257.541817 266.19771 256.793486 260.732794 255.049393 256.098376 251.274548 250.087877 246.383243 247.632757 239.687495 247.017462 232.554216 246.283956 224.075148 245.823242 215.463312 247.663067 207.002349 248.084378 205.065139 247.778246 203.342168 247.475144 201.459272 246.799229 197.255948 246.202119 192.992274 246.138468 188.743688 245.938421 175.436681 245.859615 162.129675 246.580996 148.822668 247.075051 139.728039 249.230101 131.064906 251.86102 122.419878 253.191635 118.050593 255.749809 114.755525 259.456738 112.438114 262.66658 110.431502 266.212865 108.949928 269.631848 107.281272 272.299139 105.977729 275.211942 105.772541 278.039877 106.204038 284.653547 107.217905 291.124759 108.85337 296.838218 112.519586 308.253012 119.842966 315.291024 130.162685 317.891633 143.454604 318.228075 154.365746 321.544003 165.005316 320.922646 175.484961zM307.461918 228.381066C307.383112 228.353909 307.304305 228.326752 307.22853 228.296577 307.531631 227.397373 307.910508 226.513257 308.098431 225.589914 308.165113 225.264028 307.858981 224.735972 307.564973 224.50061 307.267933 224.262231 306.610204 224.051008 306.385909 224.210934 301.669653 227.530142 296.413877 229.720819 290.845906 230.982118 288.121026 231.59768 285.065765 231.857182 282.371194 231.289899 273.969227 229.521666 265.709717 227.204256 259.296094 220.924918 258.283736 219.93519 257.147106 219.057109 255.989259 218.242394 255.674034 218.019102 254.864754 218.01005 254.634397 218.245412 254.034256 218.857956 253.1492 219.705863 253.218914 220.37574 253.691752 225.067893 254.370698 229.741941 254.995087 234.419007 255.980166 241.808771 260.475158 246.401348 267.270689 248.613147 271.744464 250.070581 276.290983 251.395247 281.183037 251.470683 287.733056 251.57026 293.276778 249.20457 298.508306 245.758628 301.857576 243.552864 303.276089 239.950014 304.606704 236.368287 305.58269 233.718956 306.51018 231.045485 307.461918 228.381066zM363 164.836915C363.105144 163.039989 363.183252 161.149285 363.333458 159.267655 363.585805 156.064045 366.238449 152.996566 369.437845 152.288686 372.8986 151.523329 376.061947 152.234234 378.420187 154.968949 383.767534 161.17046 384.359347 167.278193 380.57715 174.605052 378.909859 177.832863 375.950794 179.166944 372.706336 179.950452 371.910242 180.14406 370.849785 179.735668 370.056696 179.324251 366.505817 177.481948 364.264738 174.5627 363.576792 170.578607 363.252347 168.721179 363.18926 166.818374 363 164.836915zM197.931783 166.003287C198.378788 174.403369 196.134878 178.763786 191.383589 181.744362 188.808125 183.360228 186.093526 183.438903 183.535823 181.850271 179.145691 179.123876 177.336945 174.760433 178.216156 169.791796 178.802296 166.478363 180.208441 163.543176 181.95206 160.747184 183.855536 157.69701 188.100612 156.220338 191.759548 157.412569 195.125414 158.507969 197.114739 160.965053 197.777847 164.4782 198.038353 165.861066 198.041314 167.292348 197.931783 166.003287zM177 213.750886C176.381261 214.689448 175.844817 215.94596 174.915184 216.740834 174.427508 217.156614 173.135166 217.022097 172.409748 216.688861 169.867736 215.521008 169.294717 213.243389 170.891856 211.302063 172.263445 209.632829 173.921544 209.541112 175.460772 211.185889 176.052079 211.812617 176.378213 212.690035 177 213.750886zM196.970764 209.164537C197.17919 210.332719 196.256158 211.483422 194.746553 211.93205 193.609138 212.269978 192.364533 211.311544 192.045937 209.854959 191.780938 208.640166 192.686105 207.434113 194.151048 207.049574 195.29144 206.75243 196.732562 207.833217 196.970764 209.164537zM188.935314 228.992834C189.269065 230.016464 188.267812 231.428267 186.932808 231.908453 185.868257 232.290877 184.685743 231.448395 184.104556 229.881321 183.687367 228.759929 184.556271 227.532149 186.040887 227.06634 187.114069 226.729922 188.575669 227.719048 188.935314 228.992834zM380.835457 209.069871C382.337429 209.450845 383.259227 210.651933 382.935272 211.80649 382.537692 213.211152 381.215367 214.220299 380.108032 213.958561 378.762147 213.641567 377.754943 212.257262 378.052392 211.128879 378.461753 209.561357 379.563199 208.74706 380.835457 209.069871zM205.128163 225.954797C203.648396 225.651184 202.759948 224.469159 203.057078 223.192807 203.410104 221.683588 204.551554 220.778646 205.760667 221.046886 207.175712 221.359342 208.217138 222.668118 207.961194 223.808875 207.661122 225.176606 206.307857 226.234828 205.128163 225.954797zM370.948129 219.657769C370.282242 220.285701 369.651741 221.009525 368.892566 221.569405 367.853526 222.330348 366.978545 222.061234 366.428465 220.932193 365.527749 219.094796 366.129299 216.267554 367.467505 216.013907 368.355354 215.846871 370.449518 217.217186 370.928827 218.370972 371.076802 218.73907 370.948129 219.209246 370.948129 219.657769zM365.939992 200.171118C366.264797 201.222463 365.225423 202.661454 363.923252 202.958063 362.815964 203.21062 361.605329 202.300238 361.097453 200.826006 360.692923 199.651319 361.581707 198.464886 363.134863 198.059619 364.31597 197.7542 365.479361 198.646962 365.939992 200.171118zM354.999307 216.013945C355.032192 217.303388 353.891096 218.234052 352.355385 217.948109 351.513539 217.791649 350.44479 217.368129 350.086348 216.804336 349.454963 215.811627 352.45075 213.540266 353.723385 214.082479 354.384365 214.363027 354.591538 215.347643 354.999307 216.013945z"/>
  </g>
</svg>
