<svg xmlns="http://www.w3.org/2000/svg" width="559" height="534" viewBox="0 0 559 534">
  <g fill="none">
    <path fill="#D7A9FF" d="M168.839204 221.44151C169.039181 220.096345 168.987672 218.647938 168.593778 217.072 167.593895 213.054722 164.448806 209.9241 160.597739 208.630555 160.361403 205.375436 158.607062 202.320726 155.63468 200.577781 152.647149 198.825725 148.744573 198.895565 145.396478 199.108119 138.033698 199.572702 130.895135 201.731647 124.595868 205.624429 119.244975 208.931167 111.194397 215.09828 112.094292 222.224925 112.115502 222.401041 112.145801 222.574121 112.182161 222.747201L112.182161 222.747201C107.897811 227.626842 106.564633 234.911384 109.79153 240.732337 112.136711 244.959133 116.47863 247.339742 121.081125 247.716267 121.820433 249.787153 123.111192 251.687997 124.983701 253.19106 132.894902 259.537326 142.342288 253.801394 149.356623 249.043213 156.040694 244.509732 162.079385 239.368953 167.25151 233.159329 170.069364 229.779714 170.9329 225.17943 168.839204 221.44151zM307.96464 15.8125938C304.024364 17.7910302 300.290991 19.5479775 296.585002 21.9753782 292.739049 24.495565 289.139554 27.3868956 285.546144 30.2453022 282.366539 32.7744683 279.092611 35.3844479 276.39375 38.416454 274.419048 40.6343381 272.663419 43.0258217 270.822595 45.3544503 267.843808 47.7938235 265.157118 50.7629746 262.455214 53.3520026 258.910487 56.7461734 255.256224 59.9757238 251.936655 63.5913837 245.270134 70.8526343 238.910924 78.6227113 234.060886 87.1919449 228.577969 96.8835894 227.345682 108.763187 238.691851 114.794275 248.331074 119.915462 259.348634 115.479694 266.164246 108.041851 267.466515 106.62013 267.88032 104.764411 267.615606 103.031408 269.41079 102.103549 271.148163 100.975152 272.806425 99.6342446 280.048014 93.779749 285.238833 85.0159642 290.244048 77.3356801 295.507892 69.2543211 300.400528 60.918549 304.693755 52.2954397 309.166501 43.3101658 312.565179 33.7741623 317.177888 24.8786813 320.27534 18.8924895 314.053051 12.7536498 307.96464 15.8125938z"/>
    <path fill="#000" d="M114.317901,380.733512 C115.400978,379.888527 116.67907,379.385131 117.120101,378.474224 C123.138532,366.042147 128.96795,353.54415 132.340191,340.03936 C133.915304,333.731932 136.174466,327.592302 137.527562,321.209963 C139.195682,313.347401 141.328835,305.568738 141.424842,297.439496 C141.463844,293.98764 141.805869,290.580729 142.65793,287.173819 C143.299976,284.611894 143.119963,281.843217 143.263973,279.164433 C143.317977,278.178616 141.715862,276.989044 140.893804,277.360598 C138.448628,278.463275 135.931448,279.428116 133.561279,280.671624 C126.075743,284.605901 118.296186,287.865988 110.558632,291.260913 C99.6018472,296.067143 88.2070314,299.336219 76.7132085,302.404536 C71.510836,303.794867 66.2604601,304.834619 60.8270711,304.930504 C58.1598802,304.978447 55.4866888,305.472853 52.8495,305.955274 C50.9173616,306.30885 49.07823,306.284878 47.1520921,305.889353 C44.901931,305.427907 42.6037664,305.053357 40.3146025,304.969457 C32.9790773,304.693788 27.080655,301.211968 21.7612742,296.645449 C19.1420867,294.398147 16.7209133,292.042974 13.6606942,290.266107 C11.4315346,288.971661 9.53239867,286.754322 8.06829385,284.560955 C3.08193685,277.078936 -0.0382865392,268.901752 0.000354811521,259.759726 C0.018717542,255.531801 0.294737304,251.306872 0.249734082,247.078947 C0.207731074,243.063767 1.62383246,239.581947 3.62197552,236.237961 C5.7881306,232.615309 7.98728805,229.00764 10.081438,225.343039 C15.2448077,216.308883 21.5032557,208.041807 27.9747191,199.933539 C29.6458387,197.839054 31.6559826,196.005255 33.5911212,194.135499 C41.7007018,186.290916 47.5991241,176.864231 53.0415137,167.110939 C53.3535361,166.550611 53.1735232,165.699633 53.1615223,164.986489 C53.1465212,164.111539 51.8324271,163.87782 50.1643077,164.447136 C49.0992315,164.809701 48.0581569,165.385011 46.9720792,165.480895 C46.3930377,165.531834 45.6879872,164.82768 45.153949,164.342262 C44.9409338,164.147496 44.9049312,163.566194 45.0189393,163.242582 C45.2709574,162.535431 45.6159821,161.849255 46.0210111,161.214017 C46.6390553,160.246179 47.3381054,159.32928 47.9801513,158.421369 C47.6231258,157.657287 46.9900805,157.198837 46.2250257,157.47151 C44.7939232,157.977902 43.4678283,158.774945 42.0367258,159.272348 C41.3616775,159.509064 40.4826146,159.521049 39.8105664,159.293323 C39.1925222,159.083575 38.658484,158.469312 38.2324535,157.923967 C38.0794425,157.7292 38.2354537,157.102952 38.4544694,156.839269 C41.1606631,153.585175 44.4128959,150.918376 47.8391412,148.476307 C48.268172,148.170674 49.525262,148.344465 49.8942884,148.751976 C51.9464353,151.020254 53.8245698,153.441347 55.7987111,155.781538 C56.7977826,156.965118 59.0299425,156.923168 59.7859966,155.706628 C62.0151562,152.12293 64.484333,148.665081 66.39847,144.922573 C72.5249086,132.939957 80.2144592,121.86525 86.5449124,109.999494 C88.5190537,106.298936 91.0752367,102.826104 93.8174331,99.6379314 C96.8866528,96.0692152 98.4167624,92.5963839 95.6565647,88.2515992 C92.7613575,76.4277922 91.6602786,61.9281971 93.0253764,50.5208901 C93.481409,46.7274436 94.2344629,42.9429864 95.1945317,39.2424284 C98.0807383,28.0958085 101.32397,17.0540627 106.838365,6.85730258 C107.918443,4.85870165 109.451552,3.08183455 110.930658,1.33193507 C112.541774,-0.576773767 116.550061,-0.376014752 118.21518,1.56265812 C118.716216,2.14396034 119.283256,2.68031652 119.706287,3.315554 C124.821653,10.977357 129.853013,18.699088 135.040384,26.3129486 C138.736649,31.7394348 141.730863,37.4865361 144.131035,43.5962023 C145.529135,47.1499365 147.314263,50.5598433 149.060388,53.9637574 C149.333408,54.4941207 150.299477,54.8057467 150.998527,54.9465776 C151.724579,55.0934014 152.57664,55.0814158 153.27269,54.8387071 C161.52328,51.9741456 170.010888,52.9719479 178.438492,53.3345127 C180.313626,53.4154156 182.173759,54.1525308 184.015891,54.6709085 C194.348631,57.5894052 204.774377,60.2022688 214.774093,64.1994707 C216.754235,64.9905211 218.563364,64.4721434 220.006468,62.937985 C222.904675,59.8576825 225.883888,56.8433008 228.602083,53.6071854 C235.55058,45.3371125 243.09312,37.7052736 251.853748,31.3409132 C254.022903,29.7648051 256.237062,28.203679 258.58923,26.9272112 C264.667665,23.6311677 270.845107,20.511912 276.968546,17.2937749 C282.098913,14.5970121 287.613308,12.9429975 293.112702,11.2260585 C297.162992,9.9615763 301.234283,8.84391791 305.51859,8.89485676 C309.01984,8.93680641 312.335078,7.75622354 315.761323,7.39965156 C318.398512,7.12398247 321.131708,6.88127381 323.615886,8.40943944 C324.671961,9.05965894 325.479019,10.2941771 325.019986,11.1541448 C322.472804,15.9304115 321.0237,21.1081962 319.445587,26.2350421 C315.15228,40.1922882 309.838899,53.7360307 303.445441,66.8752588 C299.389151,75.2052597 294.456798,82.9779296 288.876398,90.3281066 C284.217065,96.4677368 278.744673,101.864259 272.579232,106.550634 C270.143057,108.402411 267.904897,110.523864 265.678737,112.633332 C265.222705,113.064814 264.835677,114.185469 265.075694,114.643919 C268.486939,121.167088 270.257065,128.28055 272.267209,135.259173 C274.916399,144.452138 277.100555,153.785934 279.25771,163.11074 C280.466796,168.330475 280.232779,173.816889 281.9129,178.976695 C281.78089,187.474495 283.905042,195.723593 284.841109,204.101536 C285.771176,212.449516 287.349289,220.752549 289.371434,228.944715 C293.409723,245.31107 297.394008,261.704392 303.139419,277.56735 C307.0547,288.378373 311.618027,298.95268 315.779324,309.676807 C319.535593,319.358186 324.329937,328.527179 329.073276,337.639242 C330.651389,337.651227 330.900407,336.464651 331.203429,335.580713 C333.306579,329.417111 335.718752,323.325423 337.272863,317.023987 C339.469021,308.115681 342.073207,299.255316 342.625246,290.011413 C344.49138,283.671023 344.545384,277.123882 344.815403,270.609702 C345.007417,265.992244 346.834548,261.635474 346.732541,256.946103 C346.639534,252.721175 347.194574,248.511228 348.652678,244.484062 C348.811689,237.903961 350.650821,231.587543 352.114926,225.265132 C353.495025,219.299293 354.464094,213.243562 356.072209,207.32267 C358.286368,199.175449 360.851551,191.145089 363.959774,183.306498 C367.407021,174.604943 373.101428,167.311698 379.356876,160.506866 C384.817267,154.570991 390.514675,148.85685 397.118148,144.089573 C401.47146,140.946346 405.293733,137.119939 409.818057,134.141514 C413.373312,131.801323 417.036574,129.727812 420.912851,128.043834 C428.320382,124.828693 436.048935,122.434567 443.843493,120.46593 C449.39089,119.06661 455.193306,118.524261 460.917716,117.987905 C473.55462,116.804325 485.264459,120.256182 496.434258,125.796531 C500.214529,127.67228 503.913794,129.775755 507.436046,132.097967 C511.600344,134.842673 515.776643,137.608353 519.370901,141.141112 C522.113097,143.837875 525.002304,146.381821 527.837507,148.982699 C537.315185,157.675265 544.689713,167.910978 550.006094,179.587962 C552.388264,184.822678 553.891372,190.33606 555.232468,195.969298 C556.948591,203.175648 557.20961,210.384994 557.434626,217.675243 C557.644641,224.569967 557.146605,231.512633 558.841727,238.317465 C559.111746,239.399166 558.991737,240.630688 558.811724,241.757335 C558.202681,245.541793 557.743648,249.380185 556.747577,253.068757 C555.304473,258.396362 552.511273,262.837032 547.476913,265.719572 C543.489627,267.999835 539.463339,268.200594 535.272039,266.807266 C531.131743,265.428921 527.687496,262.983856 525.413333,259.217377 C523.430191,255.936315 521.579059,252.559369 519.892938,249.116502 C516.349684,241.874195 513.571485,234.305281 510.580271,226.826258 C508.729139,222.199812 506.598986,217.684232 504.636846,213.099735 C502.656704,208.470292 499.737495,204.425148 496.87829,200.326068 C493.440044,195.399981 488.726707,192.244769 483.167309,190.258154 C481.739206,189.745769 480.194096,189.443132 478.681987,189.299304 C476.386823,189.083563 474.070657,189.083563 471.763492,189.002661 C467.752205,188.86183 464.118945,190.138297 460.953718,192.442531 C447.644765,202.12391 438.593117,214.478081 436.843992,231.341838 C436.606975,233.625097 435.967929,235.869403 435.748914,238.152662 C435.568901,240.034404 435.622905,241.958094 435.778916,243.845828 C435.904925,245.365005 436.579973,246.854217 436.594974,248.361408 C436.684981,256.889172 439.364173,264.955489 440.801275,273.240544 C442.505397,283.056761 445.559616,292.585323 446.657695,302.530385 C447.119728,306.692389 448.103798,310.869375 449.408892,314.854592 C453.603192,327.65223 455.787348,340.872361 458.076512,354.074513 C460.446682,360.630643 459.945646,367.72313 461.907787,374.390127 C462.759848,377.27866 462.081799,380.607663 462.873856,383.529157 C464.499972,389.539941 464.05594,395.787442 465.247026,401.756277 C467.608195,413.574092 467.152162,425.463819 467.224167,437.347555 C467.308173,451.184945 467.110159,465.028327 466.939147,478.865717 C466.882143,483.459203 467.056155,488.097636 465.550047,492.571266 C465.190022,493.640982 465.139018,494.839543 465.091014,495.987165 C464.679985,506.02212 461.847782,515.622595 459.732631,525.342927 C459.177591,527.898859 457.734488,530.283996 456.540402,532.666137 C456.243381,533.259425 455.349317,533.604011 454.671268,533.942605 C454.050224,534.254231 452.421107,533.241446 452.007078,532.243644 C451.725057,531.56346 451.350031,530.6975 451.545045,530.077245 C453.957217,522.385477 455.637338,514.486959 456.828423,506.570461 C458.082513,498.255442 459.954647,489.997355 459.930645,481.484574 C459.876641,461.495568 460.131659,441.503566 460.080656,421.51456 C460.062654,414.622833 460.191664,407.67717 458.18452,400.92927 C457.755489,399.488 457.884498,397.878932 457.773491,396.344773 C457.518472,392.901906 457.530473,389.432071 456.297385,386.112056 C455.904357,385.054326 455.733344,383.849772 455.748346,382.717131 C455.832352,376.122048 453.762203,369.84758 452.907142,363.387334 C452.058081,356.957053 450.461967,350.610671 449.276882,344.222339 C447.248737,333.29146 444.971574,322.438488 442.091368,311.705372 C441.596332,305.188195 439.298168,298.994629 438.848136,292.42951 C438.563115,288.270502 437.336027,284.138462 436.204946,280.084329 C434.557828,274.178418 433.240734,268.191604 431.668622,262.279701 C430.564542,258.126686 429.9705,254.021614 429.874493,249.799682 C429.733483,243.651062 429.712481,237.499446 429.613474,231.347831 C429.544469,227.050988 430.633547,223.074761 432.214661,219.074563 C434.773844,212.611321 437.93907,206.576565 441.956358,200.880403 C445.349601,196.071176 449.654909,192.421557 454.185234,188.804898 C457.584477,186.093153 461.304743,184.31329 465.30703,182.922958 C466.387107,182.548408 467.524189,182.248768 468.65827,182.131908 C475.669772,181.412771 482.48626,182.33866 488.993726,185.02943 C491.834929,186.20402 494.418114,187.864027 496.722279,189.988477 C501.582627,194.474093 505.434903,199.729784 508.639132,205.446921 C511.453334,210.468893 513.967514,215.652671 515.743641,221.16006 C518.575844,229.939521 522.893153,238.122698 526.097382,246.749343 C527.46248,250.42593 529.997661,253.362405 532.193819,256.499639 C533.540915,258.42333 535.692069,259.48106 537.906228,260.215179 C541.359475,261.359805 545.148746,260.086334 547.050882,257.146862 C547.881942,255.861405 548.83301,254.554973 549.25304,253.119696 C551.191179,246.461688 553.048312,239.635882 551.62921,232.732169 C550.525131,227.371604 550.65114,222.049992 550.417123,216.695419 C550.351119,215.158264 550.22511,213.618113 550.282114,212.083954 C550.567134,204.682839 548.770005,197.53342 546.798864,190.584761 C544.710715,183.222599 540.897442,176.438742 536.67914,169.969507 C532.664852,163.814895 527.897511,158.33747 522.548128,153.300516 C515.533626,146.693447 508.303108,140.374033 499.848503,135.657694 C495.159167,133.038838 490.367824,130.560812 485.462473,128.376435 C481.253172,126.49769 476.641841,125.436963 472.108517,125.104362 C465.241025,124.600966 458.373533,124.633927 451.470039,126.180071 C445.47861,127.52246 439.523184,128.813909 433.642763,130.632726 C422.805987,133.985701 413.289306,139.556015 404.618685,146.732401 C401.954494,148.937753 399.215298,151.050218 396.548107,153.249578 C388.477529,159.901593 381.541033,167.644299 375.714616,176.258958 C372.729402,180.67266 370.440238,185.655678 368.466097,190.629708 C365.210863,198.82487 362.882697,207.364619 361.190576,216.009243 C360.452523,219.778718 359.29744,223.440323 358.709398,227.221783 C357.884339,232.522421 355.80819,237.598328 355.919198,243.060771 C354.188074,248.220577 354.497096,253.715981 353.43202,258.929722 C352.03392,265.776503 351.901911,272.647256 351.436877,279.529994 C351.33187,281.064153 351.502882,282.727156 350.956843,284.096513 C348.919697,289.211373 350.143785,294.841615 348.25665,299.950482 C345.673465,314.327225 341.302152,328.194579 336.267791,341.876156 C336.003772,342.595292 335.754755,343.323418 335.54474,344.060534 C334.767684,346.757296 334.842689,349.430088 336.315795,351.857175 C340.501094,358.748902 344.497381,365.7485 349.051707,372.42149 C356.192218,382.887926 363.410735,393.312413 369.747188,404.306216 C373.005422,409.960429 376.365662,415.563703 379.467884,421.301815 C386.770407,434.812597 394.675973,447.990779 401.507462,461.762248 C405.94778,470.712504 409.830058,479.893484 413.682334,489.098434 C415.761483,494.063474 417.111579,499.244256 418.173655,504.49695 C418.506679,506.141976 417.522609,507.409454 416.328523,508.467185 C415.647475,509.072458 414.939424,509.192314 414.249374,508.733864 C413.616329,508.317364 412.770269,507.963789 412.464247,507.358515 C411.600185,505.656558 410.733123,503.89767 410.27409,502.057878 C407.669903,491.570467 403.337593,481.760243 398.615255,472.108828 C392.710832,460.03632 386.761406,447.996772 379.791907,436.466612 C375.627609,429.577881 371.946346,422.377524 368.09707,415.30002 C362.024635,404.129429 355.061137,393.54014 347.869622,383.124642 C336.705823,366.95605 326.955125,350.026372 318.422514,332.362575 C312.746107,320.610682 307.669744,308.604094 302.917404,296.453679 C299.287144,287.167826 295.785893,277.849012 292.917688,268.284493 C288.771391,254.450099 284.442081,237.960893 281.870897,224.896575 C279.743744,219.48507 280.034765,213.561181 278.27964,208.044803 C277.595591,205.899378 277.733601,203.484277 277.556588,201.186036 C277.262567,197.362626 277.30757,193.515244 275.981475,189.808693 C275.477439,188.400384 275.459438,186.779329 275.423435,185.251164 C275.144415,173.65808 271.949186,162.54442 269.693025,151.292926 C268.114912,143.421375 265.768744,135.699644 263.647592,127.944952 C262.843535,125.002485 261.718454,122.143916 260.719382,119.25838 C260.377358,118.275559 259.081265,117.886027 257.776172,118.377437 C256.345069,118.91679 254.95297,119.555023 253.509866,120.055423 C252.636804,120.35806 251.004687,119.656901 250.458648,118.889822 C249.882607,118.080793 249.984614,116.411797 250.716666,115.731613 C252.681807,113.903807 254.601944,112.022066 256.666092,110.314116 C260.515368,107.131936 264.31064,103.853871 268.390932,100.989309 C276.74353,95.1223518 282.902971,87.2597898 288.603379,79.0526414 C294.528803,70.5218815 299.176136,61.2689884 303.064414,51.6025916 C307.075701,41.639551 310.798968,31.5896146 313.946193,21.3239373 C314.0422,21.0063185 313.946193,20.5868221 313.829185,20.2542213 C313.472159,19.2504262 312.92912,19.3493075 311.981053,19.6938939 C299.578165,24.2004843 288.33936,30.5768303 278.234636,39.1585291 C271.769174,44.6479398 265.552728,50.3770627 259.666307,56.4327936 C250.791672,65.5598378 243.411143,75.84649 237.596727,87.2028581 C235.835601,90.6397326 234.656516,94.2983409 234.164481,98.1277442 C233.816456,100.845482 234.155481,103.473328 235.940608,105.780558 C236.933679,107.066015 238.106763,108.042842 239.702878,108.14472 C242.376069,108.312519 245.070262,108.183673 247.743453,108.375443 C248.361498,108.420389 249.003544,109.190465 249.483578,109.753789 C249.912609,110.254188 249.051547,112.46853 248.334496,112.783152 C246.57937,113.550231 244.836245,114.392221 243.012115,114.940563 C241.944038,115.261178 240.680948,115.30912 239.585869,115.087386 C232.043329,113.556224 227.350993,108.633134 227.16498,100.749597 C227.077974,97.159906 228.719091,90.2531966 230.681232,86.339894 C233.264417,81.1920733 236.018614,76.1311483 238.721808,71.0432556 C239.081833,70.3690649 239.516864,69.7188454 240.0089,69.1345468 C245.451289,62.6713051 250.392643,55.8005525 256.549084,49.9276022 C263.233562,43.5542526 270.245064,37.5614462 277.190562,31.4847405 C281.549874,27.6703192 286.518229,24.7338441 291.579592,21.9531819 C294.261784,20.4789515 296.940976,19.0017248 299.776179,17.4405987 C299.038126,17.0780339 298.519089,16.640559 297.958049,16.5776346 C295.536875,16.3049619 293.50873,17.6563397 291.357576,18.3964513 C277.820607,23.0438727 265.393717,29.8816648 253.539868,37.8041549 C251.952755,38.8648816 250.506651,40.183299 249.162555,41.5496589 C242.697092,48.1237675 235.655588,54.1555272 230.162195,61.6495316 C229.484146,62.5754202 228.69509,63.4413807 227.849029,64.2204455 C222.085616,69.530072 218.113332,76.032267 214.978108,83.136739 C213.742019,85.938376 212.304916,88.6680993 210.750805,91.3079305 C210.216767,92.2128443 209.094686,92.8151213 208.158619,93.4323804 C207.33056,93.9777257 206.739518,93.6331394 206.262484,92.8061321 C204.723373,90.1393332 205.596436,87.4515596 206.565505,85.0364586 C208.422638,80.4219977 210.756805,76.0023029 212.769949,71.4447737 C212.979965,70.9653491 212.541933,69.9106152 212.0739,69.4911188 C211.24284,68.7480108 210.225767,68.0019064 209.169692,67.7502085 C201.693156,65.9583594 194.48664,63.2705857 187.100112,61.2240423 C181.951743,59.7977544 176.60236,59.006704 171.29198,58.308542 C168.669792,57.9639556 165.909595,58.278578 163.260405,58.6441392 C159.462133,59.1655133 155.642859,59.7528083 151.952595,60.7506106 C142.603926,63.2795749 133.954307,67.5884027 125.853727,72.7212414 C120.018309,76.418803 115.295971,81.6744942 110.981662,87.112966 C107.645423,91.3199161 104.771217,95.8924274 101.395976,100.063421 C95.0805235,107.869051 90.073165,116.513674 84.9577988,125.083387 C78.6663483,135.62773 72.5939136,146.303915 66.4434732,156.932157 C66.0654462,157.585373 65.8374298,158.325485 65.5734109,159.038629 C65.2733895,159.85365 65.5284077,160.527841 66.3054633,161.010262 C68.6276296,162.454528 71.1418096,163.266553 73.8930066,163.350453 C75.798143,163.407384 77.6972789,163.362438 79.5214095,164.198435 C80.7304961,164.752769 81.2165309,167.068989 80.2054585,168.135709 C79.1163805,169.286327 77.8262882,170.179256 76.2541756,170.20922 C74.3550397,170.245177 72.3838985,170.230194 70.5597679,169.774741 C67.5625533,169.028637 64.5983411,168.237586 61.4901186,168.474302 C60.7910685,168.528237 59.9810105,168.929755 59.4859751,169.430155 C58.6939184,170.230194 58.0248705,171.195036 57.4668305,172.183849 C51.3913956,182.949926 44.0888727,192.748165 35.2562404,201.455712 C28.1127289,208.49726 22.1813043,216.53661 17.0149344,225.139283 C14.6447647,229.088543 12.1305847,232.950906 9.68240941,236.852223 C9.0703656,237.829051 8.34431361,238.754939 7.88528075,239.800684 C6.9222118,242.00304 6.75719998,244.2024 8.14629944,246.383782 C9.17537311,247.998843 10.0244339,249.727768 10.9454998,251.40875 C11.5995467,252.601319 10.9244983,254.351218 9.4363918,255.250139 C8.7883454,255.642668 8.04129192,255.900359 7.31223972,256.128085 C6.04014865,256.526607 5.61411815,257.542387 5.43110504,258.675028 C5.30809624,259.424129 5.24509172,260.242147 5.41310375,260.967276 C6.46617915,265.431917 7.38124466,269.947497 8.76134347,274.313256 C9.80841844,277.633271 11.8545649,280.503825 14.7017688,282.646254 C15.2508081,283.059757 16.1688738,283.392358 16.771917,283.227556 C17.6899827,282.975858 17.6689812,282.214771 17.3419578,281.423721 C16.4628949,279.293278 15.4998259,277.159839 14.983789,274.933512 C14.5577585,273.102709 14.620763,271.134072 14.6807673,269.231356 C14.7017688,268.566155 15.2958113,267.876982 15.7398431,267.277701 C16.5409004,266.198996 18.0530087,266.157047 18.6170491,267.029 C20.3271715,269.683813 20.9662173,272.653249 21.4882547,275.694598 C21.8962839,278.064753 23.3003844,279.913534 25.040509,281.477656 C26.1925915,282.511415 27.5366877,283.335426 29.1568037,283.329433 C31.8449961,283.320444 34.6531972,283.697991 37.1973794,283.06575 C47.989152,280.386965 58.939936,278.034789 67.9825834,270.846418 C69.4316872,269.695799 71.3548249,269.072547 73.1489533,268.47027 C73.5989855,268.32045 74.5470534,269.07854 74.988085,269.635871 C75.3901138,270.145259 75.75614,271.107105 75.5341241,271.598515 C75.0750912,272.611299 74.3640403,273.624083 73.4969782,274.319249 C67.1425233,279.419127 60.0200133,283.017808 52.2884598,285.663632 C43.7408478,288.588121 35.0462253,289.337222 26.1385876,288.833826 C25.1905197,288.779891 24.5994774,289.217366 24.6054778,289.804661 C24.608478,290.161233 24.761489,290.6047 25.0045064,290.862391 C29.9788625,296.085122 36.0842997,299.075532 43.2758145,299.513007 C55.7357066,300.268101 66.0624459,298.883762 83.0136596,294.203381 C94.501482,291.03019 105.632279,286.799268 116.523059,282.011016 C124.254612,278.610098 131.749149,274.669828 139.300689,270.873385 C146.177182,267.415536 153.230687,264.467075 160.611215,262.219773 C165.375556,260.769514 169.998887,258.827844 174.631219,256.973071 C176.827376,256.092128 179.065536,255.756531 181.381702,255.717578 C181.756729,255.711585 182.128756,255.894366 182.506783,255.942308 C183.499854,256.068157 184.813948,257.359607 184.633935,258.222571 C184.489925,258.920733 184.237907,259.852614 183.71887,260.170233 C182.095753,261.162043 180.385631,262.087931 178.597503,262.720172 C173.53314,264.506029 168.375771,266.034194 163.323409,267.853011 C159.357125,269.282295 155.480848,270.963277 151.592569,272.60231 C150.053459,273.252529 149.324407,274.660839 149.039387,276.203987 C148.763367,277.705185 148.658359,279.251329 148.595355,280.779494 C148.451345,284.237344 148.412342,287.698189 148.268331,291.153042 C148.091319,295.365985 148.298334,299.62687 146.795226,303.689993 C146.663217,304.043569 146.609213,304.439094 146.591211,304.819637 C145.763152,320.700574 140.14975,335.517788 136.156464,350.676592 C134.70136,356.195967 132.058171,361.418697 129.793009,366.707349 C126.771792,373.760882 123.465556,380.694559 120.510344,387.77506 C117.117101,395.913291 114.014879,404.171378 110.714643,412.345566 C105.542273,425.146201 100.61892,438.018749 96.6856384,451.274837 C94.6094898,458.265445 93.2923955,465.426849 91.2372483,472.411465 C90.8112178,473.861724 90.84122,475.452814 90.715211,476.983976 C90.3371839,481.568473 90.226176,486.146977 89.0830941,490.683532 C88.3450413,493.608021 88.5250542,496.790201 88.4860514,499.861515 C88.4260471,504.859515 88.537055,509.857516 88.5460557,514.855516 C88.5490559,515.619599 88.5580565,516.449603 88.2730361,517.12679 C87.9910159,517.794988 87.4149747,518.403258 86.832933,518.864704 C86.2238894,519.350121 84.1957442,518.319358 83.982729,517.522315 C83.787715,516.797186 83.4186886,516.087038 83.3736853,515.355916 C82.6776355,504.206299 83.2236746,493.068669 83.8567199,481.937031 C85.8788647,472.591249 86.469907,462.987777 89.4551207,453.794812 C91.2252475,448.344354 92.4733368,442.711116 94.3694726,437.275641 C94.9215121,435.69354 94.3364702,434.572885 92.5363413,433.667971 C91.1712436,432.981795 89.7881446,432.289626 88.3390408,431.843162 C87.7179964,431.651392 86.7099242,431.846158 86.2208892,432.265655 C85.0748071,433.251471 83.955727,434.366133 83.1486692,435.630616 C80.8385038,439.247274 77.8892927,442.126818 74.4600472,444.727696 C71.1718118,447.217707 67.7125641,448.140599 63.7132778,447.993775 C60.3800391,447.870923 57.7968542,446.516548 55.7777096,443.963613 C54.5716233,442.44144 53.6295558,440.769447 53.4045397,438.794817 C51.7304198,423.974607 53.9475786,409.720717 59.7799962,396.027154 C63.9382939,386.267869 71.5588395,380.131235 81.1295247,376.158005 C82.8966512,375.423886 84.8137885,375.064318 86.6439195,374.483015 C88.9150821,373.763879 91.2552496,373.739907 93.4874094,374.300235 C100.540914,376.068113 107.786433,377.230717 114.317901,380.733512 Z M89.6591354,425.685553 C90.3161824,426.117035 90.9312264,426.557507 91.5792728,426.941046 C92.2393201,427.330579 92.9293695,427.675165 93.6164187,428.016755 C95.4165476,428.91268 96.7756449,428.586072 97.4566936,427.075884 C103.286111,414.173372 108.344473,400.96223 113.057811,387.619247 C113.318829,386.879135 112.847796,386.106063 112.010736,385.824401 C107.660424,384.377139 103.346115,382.747095 98.9057974,381.641423 C92.4373343,380.026361 86.09188,380.04434 79.9354392,383.448254 C72.9539393,387.307621 67.6645607,392.410496 64.7723536,400.012371 C62.5821968,405.768461 61.2831038,411.69235 59.8430007,417.646203 C58.4539012,423.384316 58.4238991,429.014557 58.603912,434.746677 C58.6939184,437.611238 60.1910256,439.813594 62.4531875,441.497573 C62.7412082,441.713314 63.1672387,441.854145 63.5272644,441.845562 C64.2113134,441.830174 64.8803613,441.257861 64.7663532,440.421864 C64.3493233,437.407483 63.5962694,434.432054 63.2782466,431.41168 C63.0292288,429.071489 63.6922763,426.842165 65.6394157,425.251075 C66.2154569,424.78064 67.0165143,424.867535 67.6225576,425.508765 C68.4326156,426.365737 68.7056352,427.438449 68.6396305,428.648996 C68.3696111,433.518151 68.3636107,433.530137 71.1508102,439.36713 C74.4810487,437.25167 77.0522328,434.456025 78.8943646,431.02814 C81.6125593,425.973208 84.5797717,421.038132 86.2508913,415.470815 C86.9079384,413.286437 87.9670142,411.218919 88.8940806,409.121436 C89.5271259,407.695148 91.7592857,406.820199 92.6353484,407.578289 C93.523412,408.348364 94.2884668,409.2353 93.9554429,410.478807 C93.2623933,413.064703 92.5003388,415.632621 91.693281,418.18256 C90.9012243,420.660585 89.5811298,422.991787 89.6591354,425.685553 Z M103.424121,84.86866 C106.331329,83.4903145 107.828436,80.6736955 109.892584,78.4743356 C116.238038,71.7144499 123.222538,65.9224025 131.932162,62.3776576 C134.740363,61.2360279 137.362551,59.6269594 140.053743,58.2006715 C140.761794,57.8261211 141.502847,55.9623583 141.319834,55.1862899 C141.058815,54.0776207 140.914805,52.9180126 140.482774,51.8782607 C134.428341,37.336716 126.243755,24.0296893 116.925087,11.378875 C116.700071,11.0732419 116.39705,10.8245404 116.154032,10.5308929 C115.382977,9.60800072 113.849867,9.55106906 113.282827,10.4290152 C112.664782,11.3848678 111.914729,12.2807924 111.437695,13.3025659 C106.925372,23.0199015 103.100098,32.9619673 101.647994,43.6681159 C98.3387568,54.9405848 99.5598442,66.3958343 100.426906,77.8091341 C100.61592,80.3201199 101.203962,83.0138864 103.424121,84.86866 Z"/>
    <path fill="#000" d="M289.166025 450.392827C291.772669 450.392827 292.158728 450.383825 292.541794 450.395827 304.683187 450.767889 314.047352 445.403001 321.095166 435.909431 327.328964 427.511042 331.470864 418.014471 334.005683 407.85179 334.47853 405.952475 335.077071 404.188184 336.271159 402.636927 336.73802 402.027826 338.883788 401.412724 339.434445 401.874801 339.997073 402.348879 340.727292 402.978983 340.805103 403.612088 340.993643 405.115337 341.140285 406.738605 340.775176 408.178844 337.504152 421.020968 331.716266 432.644891 323.315751 442.876583 319.35042 447.704382 314.125162 451.007928 308.459977 453.519344 300.155228 457.197952 291.697852 457.894068 282.671862 455.922741 273.214922 453.855399 264.461268 450.059772 255.608855 446.489181 250.27586 444.337825 245.604252 440.857249 241.133154 437.178641 238.76892 435.231319 236.240086 433.473028 233.687311 431.783748 233.211472 431.468696 232.011398 431.600718 231.562493 431.996784 228.985776 434.289163 226.507819 436.701562 224.044825 439.119962 220.414677 442.681551 216.13212 445.171963 211.415621 446.960259 208.407955 448.100447 205.433209 448.001431 202.461456 446.72322 199.965542 445.652042 197.631235 444.403836 195.892475 442.219475 194.423058 440.374169 193.435466 438.378839 193.175101 435.984443 192.537655 430.130475 193.728751 424.615563 195.323861 418.983631 197.984373 409.589077 202.204084 401.08567 207.988977 393.326387 210.769197 389.59977 214.010294 386.218211 218.523289 384.648951 226.525775 381.864491 234.650961 379.713135 243.234031 381.786478 246.95396 382.683626 250.664911 383.607779 254.38484 384.507928 255.040242 384.666954 256.919659 383.316731 257.08725 382.614615 257.266812 381.870492 257.575061 381.13537 257.625936 380.382246 258.179586 372.271904 260.780245 364.596634 262.656669 356.777341 263.461706 353.419785 264.916159 350.227257 266.963167 347.406791 267.600613 346.527645 268.651052 345.924546 269.575797 345.28844 270.422731 344.709345 271.006308 345.033398 271.410323 345.981555 272.044776 347.475802 272.053754 349.000054 271.542002 350.461296 269.638643 355.892194 267.738277 361.284086 266.630978 366.98803 265.972583 370.369589 265.113677 373.69714 264.748568 377.150711 264.467254 379.80615 263.778932 382.419583 263.276158 385.051018 263.108567 385.930163 263.784918 387.652448 264.551049 388.075518 266.891343 389.371733 269.216672 390.703953 271.619812 391.877147 274.370106 393.218369 277.246092 394.304549 279.960473 395.711781 280.90916 396.203863 281.585511 397.272039 282.291788 398.154185 282.926241 398.943316 282.288796 400.614592 281.355073 401.073668 279.897627 401.790787 278.344414 401.93181 276.916895 401.373718 273.708718 400.11951 270.500542 398.817295 267.442 397.242034 260.238566 393.536421 252.711919 390.883983 244.787244 389.167699 241.752644 388.51059 238.771912 388.174535 235.7014 388.012508 230.565923 387.742463 225.852417 389.407739 221.183801 391.091017 218.286866 392.13519 215.772996 394.07351 213.938469 396.626933 210.36219 401.607757 206.732042 406.501566 204.738902 412.493557 202.928318 417.94846 200.899265 423.310347 199.352038 428.870266 198.274666 432.740907 199.561528 435.666391 201.509777 438.537866 202.620069 440.173136 204.490508 440.836246 206.55248 440.746231 207.426349 440.707224 209.120219 439.540031 209.156131 438.840916 209.305766 435.765407 209.44343 432.689898 209.590073 429.614389 209.739708 426.47587 210.7273 423.625399 212.54387 421.065975 213.0646 420.333854 213.791827 419.994798 214.557959 420.396865 215.174455 420.717918 216.003434 421.252006 216.117156 421.8191 216.739638 424.876606 216.266791 427.901106 215.515623 430.895601 215.237302 432.002785 215.072703 433.145974 214.961973 434.286162 214.932046 434.592213 215.261244 434.958273 215.482704 435.252322 215.949565 435.879426 216.748617 436.212481 217.442923 435.735402 221.93497 432.659893 225.403511 428.64823 228.426141 424.105478 230.541981 420.927953 231.870741 417.210338 234.758699 414.557899 235.423079 413.948798 236.120378 413.864784 236.826656 414.230845 238.364905 415.028977 239.340526 416.634242 238.942496 417.912454 238.601328 419.004634 238.203299 420.087814 237.700525 421.113983 236.273006 424.033466 237.371328 426.196824 239.499139 428.264166 245.640164 434.232153 252.768781 438.702893 260.534843 442.144462 264.733604 444.00477 269.043096 445.646041 273.397477 447.104283 279.218283 449.051605 285.104928 450.884908 289.166025 450.392827zM295 511.915848C294.901653 512.876764 294.853969 513.248826 294.824167 513.623818 294.72284 514.871837 292.428075 515.93236 291.268771 515.337647 289.435939 514.394308 288.526973 512.788875 287.960732 510.972509 285.481194 503.033232 281.305912 495.873235 277.312425 488.634138 276.14418 486.518951 274.06399 485.848067 271.43246 486.211341 267.656528 486.732813 264.086231 488.054073 260.292417 488.628279 254.656831 489.483729 249.045086 490.412419 243.376717 491.124317 238.104717 491.783482 232.892321 492.876232 227.554756 493.257082 223.394376 493.555904 219.445592 495.228718 215.171963 495.231648 210.984761 495.234578 206.821401 495.688669 202.732546 496.822433 200.935477 497.320469 198.944693 497.241369 197.040336 497.250158 188.64209 497.288243 180.243845 497.302891 171.845599 497.241369 169.184267 497.220862 166.531876 497.07731 163.924188 496.283382 162.124138 495.735543 160.192959 495.533399 158.303503 495.366411 154.131202 494.997278 149.899296 495.093956 145.905808 493.520748 145.220359 493.251223 144.40378 493.236575 143.643825 493.210208 137.903931 493.025642 132.289207 492.026641 126.704284 490.804988 125.595644 490.56183 124.43038 490.5589 123.291938 490.450504 121.953821 490.321601 119.98986 491.26201 119.4415 492.389914 117.963314 495.422073 116.228828 498.369274 115.889084 501.81158 115.376487 507.029237 113.61518 512.059399 113.516833 517.347368 113.504912 518.000673 112.888008 518.65105 112.5125 519.283848 112.029706 520.095354 110.366746 520.215468 109.487582 519.652981 107.696473 518.513357 106.739824 516.717499 107.061687 514.895274 108.48921 506.827094 108.593518 498.465951 112.294945 490.875299 112.78966 489.86165 113.183049 488.792338 113.731408 487.807985 115.355625 484.907659 117.999076 483.466284 121.259431 483.551243 124.29031 483.630343 127.401654 483.835417 130.307364 484.605907 133.296519 485.399835 136.273754 485.777756 139.322514 485.9799 142.365313 486.182044 145.36937 486.457429 148.340644 487.345104 150.495339 487.989621 152.849709 488.00134 155.117653 488.241569 157.394537 488.481798 159.811491 488.253287 161.930424 488.944678 166.397766 490.400701 170.951535 490.397771 175.517224 490.429997 182.768087 490.476871 190.02193 490.453434 197.272793 490.345038 201.078527 490.289375 204.872341 490.160472 208.60953 489.094089 210.770186 488.475939 213.127536 488.478868 215.40442 488.285513 218.441259 488.024777 221.472138 487.901733 224.440432 486.99355 226.234521 486.442781 228.177621 486.313877 230.070058 486.14103 233.863871 485.795334 237.681527 485.786545 241.356132 484.494582 242.756833 484.002405 244.363168 484.058068 245.883078 483.929165 249.679872 483.606906 253.452824 483.413551 257.14531 482.171391 260.733489 480.964387 264.712076 481.523945 268.336017 480.015189 270.03772 479.30622 272.052345 479.291572 273.938821 479.063062 276.361736 478.76717 278.438946 479.511294 280.092965 481.321801 282.399651 483.841276 284.360633 486.565825 285.978889 489.589195 289.18262 495.574414 291.602555 501.88775 294.287729 508.089761 294.85695 509.422739 294.839068 511.007665 295 511.915848zM135.410718 178.175519C136.249582 178.175519 137.16139 177.901363 137.741908 178.22071 141.902793 180.498312 146.711061 180.654973 151.04519 182.333047 162.375926 183.694789 173.499986 183.721903 184.092158 178.443649 189.654189 175.671964 195.234455 172.990659 200.285872 169.34529 201.297979 168.616216 203.951341 169.110299 204.504505 170.185834 205.920847 172.945469 208.04536 175.168843 209.841622 177.642271 210.157716 178.0761 209.960157 179.172723 209.604552 179.702959 209.230711 180.260309 208.394887 180.793557 207.738385 180.820671 206.625979 180.865862 205.452785 180.639909 204.389009 180.278385 202.936195 179.784302 201.614073 178.850364 200.143022 178.494865 199.051892 178.23276 197.839187 178.74492 197.076307 179.724048 196.362058 180.642922 195.821051 181.619037 196.435002 182.866296 197.10974 184.240088 197.817911 185.622918 198.237343 187.081065 198.401469 187.647453 197.954683 188.533188 197.532211 189.084512 196.757175 190.099793 195.532312 190.304656 194.416867 189.855764 193.374366 189.433986 192.347062 188.807344 191.532513 188.039105 190.417068 186.984659 189.566047 185.656058 188.484035 184.559434 187.991658 184.059326 187.137598 184.255151 186.529726 184.923971 186.03431 185.472283 185.27143 186.258598 185.383887 186.779795 185.706059 188.265057 186.593552 189.629811 186.912685 191.115073 187.140637 192.184582 186.937 193.395688 186.702969 194.498337 186.402073 195.920332 184.064804 196.426466 182.873375 195.607011 181.192608 194.453147 180.32943 192.790135 179.314283 191.148213 177.527139 188.262045 176.511993 187.798088 173.648915 188.512099 165.956293 190.425164 158.342695 190.461317 150.631837 188.391591 146.896462 187.388361 142.993923 186.96357 139.462186 185.264406 137.331594 184.240088 135.511017 182.818092 134.301351 180.742341 133.824172 179.925899 133.918392 179.23599 134.550579 178.741907 134.848436 178.515954 135.176687 178.329167 135.410718 178.175519zM129.739539 211.028489C131.125297 210.732195 132.99493 212.802929 133 214.640622 133.00253 215.978943 131.637039 217.813307 130.509686 217.986423 129.377266 218.162868 128.080177 216.591507 128.006709 214.903626 127.920574 212.972716 128.672987 211.254872 129.739539 211.028489zM152.289465 213C151.464531 212.938786 150.557432 213.061214 149.844242 212.767388 149.154058 212.482743 148.559185 211.836938 148.115496 211.224799 147.652086 210.585115 148.677502 208.61097 149.518869 208.286536 151.441524 207.539728 153.771717 208.298779 154.856291 210.028069 155.345993 210.808545 154.504626 212.635778 153.531796 212.856148 153.127545 212.944908 152.703575 212.95409 152.289465 213zM134.415251 241C135.166243 241.358242 135.740827 241.568973 136.26249 241.897111 136.895036 242.294489 137.094125 242.938723 136.960559 243.697353 136.75391 244.859383 136.141524 245.554794 135.219165 245.876911 134.064957 246.28031 132.434448 245.657149 132.099274 244.519203 131.925386 243.929157 131.973268 242.899587 132.295842 242.523282 132.895627 241.812819 133.770104 241.436514 134.415251 241zM139.027177 226.841163C138.830793 225.73236 139.722074 224.457911 140.945697 224.099578 142.14515 223.748007 143.858221 224.376779 143.982094 225.211763 144.172436 226.516635 142.812855 228.524652 141.44421 228.957356 140.561993 229.237937 139.247732 228.088568 139.027177 226.841163zM123.885788 234.345566C123.291113 235.6824 122.202029 236.274988 121.078371 235.878993 119.712695 235.398744 118.779194 234.317482 119.045415 233.519875 119.322007 232.688567 121.116403 231.792663 121.998042 232.042618 123.439782 232.444229 124.328336 233.477748 123.885788 234.345566zM162.165523 232.992338C160.771917 232.825772 160.041289 232.057531 160.000698 230.711409 159.956725 229.161329 161.999778 227.567058 163.325733 228.107547 164.171368 228.450876 165.219955 230.351083 164.9595 231.13972 164.661836 232.030336 163.082191 233.101115 162.165523 232.992338z"/>
  </g>
</svg>
