<svg xmlns="http://www.w3.org/2000/svg" width="662" height="446" viewBox="0 0 662 446">
  <g fill="none">
    <path fill="#D7A9FF" d="M317.06091 217.121451C295.218595 206.871672 270.500259 210.237581 249.834339 221.696876 241.743552 226.18245 233.213813 232.755303 230.446651 241.640058 226.222165 246.896266 222.826422 252.805613 220.758075 259.115828 216.895286 270.893053 219.532517 282.960561 227.345885 292.460441 242.488017 310.876178 270.321166 310.250686 291.980876 307.655411 313.956632 305.022123 338.422132 294.613379 343.847594 271.124589 348.82708 249.564112 337.259784 226.600597 317.06091 217.121451zM492.31023 120.172986C488.842155 113.88871 483.006419 109.464244 476.336499 106.885632 469.54234 104.258169 462.812075 104.488465 456.017915 106.882142 445.645639 110.535467 449.66392 125.612846 460.597051 123.215679 460.884578 123.152871 461.243099 123.117977 461.637118 123.10402 463.923136 127.259808 466.848104 131.010833 468.591015 135.501596 470.646302 140.798394 471.750264 145.973064 471.352696 151.646709 470.862835 158.653276 479.925264 161.102783 484.561196 157.023761 486.90046 154.968547 489.591146 153.241331 491.532841 150.49872 493.488736 147.731685 494.851828 144.469165 495.433981 141.154305 496.70833 133.934889 495.898994 126.67709 492.31023 120.172986zM94.0131148 106.579665C86.887017 104.903829 79.8665432 104.143656 72.729883 106.431085 65.0932693 108.87746 59.4987192 114.03627 56.7172878 121.437589 51.2283617 136.032908 59.8895279 149.954438 68.712651 161.115158 72.8636734 166.367261 81.764254 159.549893 78.0955811 154.010997 78.0779771 153.986809 78.0603731 153.959167 78.0427691 153.931524 78.1307891 153.675829 78.2082467 153.41668 78.2645795 153.140253 80.6798478 141.088058 82.3909563 124.447183 95.6502864 118.853001 101.156817 116.531019 99.3541673 107.83395 94.0131148 106.579665z"/>
    <path fill="#000" d="M539.349792,148.597746 C540.576612,147.813702 541.688089,147.323675 542.516455,146.539631 C548.947646,140.43179 556.591677,136.557074 564.910284,133.690415 C570.887098,131.6288 577.024691,130.218221 583.113352,128.657134 C586.884687,127.69108 590.946124,127.677079 594.885229,127.565073 C603.570833,127.316559 612.210999,127.481069 620.683395,130.050212 C623.332767,130.851756 625.985633,131.569296 628.453253,132.787364 C639.208023,138.09016 648.529756,145.279561 656.432432,154.306564 C658.012269,156.112665 659.113261,158.153278 660.022016,160.386403 C662.521093,166.508244 662.430218,172.791094 660.979704,179.007441 C659.976578,183.30568 657.449539,186.917882 653.821508,189.627033 C652.227691,190.817099 650.598922,191.91266 648.596165,192.280181 C647.044291,192.563696 645.436493,192.658202 643.937046,193.113227 C641.595254,193.820266 639.396765,193.533251 636.999049,193.211233 C628.911126,192.122672 621.938177,188.818488 615.695726,183.708203 C613.252573,181.709591 610.791943,179.721481 608.226457,177.887378 C606.96818,176.987828 605.503686,176.29479 604.042687,175.76976 C598.114806,173.641642 597.377316,173.722146 591.487882,175.612252 C588.443552,176.588806 585.61942,177.985384 583.102866,179.899991 C578.688413,183.256678 574.633966,187.054389 571.117782,191.338628 C568.048985,195.080337 566.147589,199.382077 566.353806,204.404857 C566.598471,210.330687 566.706823,216.267018 567.035373,222.189348 C567.143725,224.135456 567.615578,226.088565 568.13986,227.978671 C570.883602,237.852721 573.560935,247.744272 576.528371,257.551819 C578.926087,265.483261 581.218947,273.484707 582.58208,281.60166 C584.015117,290.117634 586.119235,298.626609 585.661362,307.412098 C585.455145,311.353318 585.643886,315.294538 584.438038,319.158753 C583.861328,321.013857 583.833366,323.05097 583.64812,325.01458 C583.31957,328.553277 583.151799,332.084974 582.00537,335.525666 C581.393707,337.363268 581.18749,339.417883 581.208461,341.367491 C581.264385,346.621284 579.523768,351.546059 578.073255,356.390329 C576.255744,362.456167 572.57179,367.776463 568.248212,372.445724 C565.036111,375.917917 561.726145,379.421613 557.95481,382.232269 C550.048638,388.123098 541.946735,393.758412 533.082875,398.20716 C527.060623,401.227828 520.825164,403.751469 514.348534,405.39656 C507.455975,407.146658 500.940898,410.034319 493.999405,411.560404 C492.489473,411.892923 491.580718,413.786528 492.021115,415.235609 C492.590834,417.122214 492.940355,419.117325 493.775711,420.877923 C495.666622,424.864646 495.89381,429.295893 497.372285,433.387621 C497.854625,434.721195 496.529939,436.548297 495.023502,436.950819 C493.59396,437.332341 491.514309,436.520295 490.983036,435.337229 C490.336422,433.895149 489.560485,432.48457 489.116593,430.979487 C486.323918,421.507959 482.479183,412.414452 479.155236,403.135434 C477.281802,397.902643 474.8736,392.956867 471.955097,388.242104 C466.768202,379.855637 461.602277,371.458669 456.422372,363.065201 C455.873623,362.172651 454.353206,361.784129 453.290661,362.256656 C448.250564,364.500281 443.374742,367.076424 437.992114,368.567507 C435.377695,369.292048 433.021921,370.94064 430.550806,372.179709 C425.259054,374.832857 419.918368,377.387999 414.693025,380.167154 C406.157715,384.706907 397.052686,386.824525 387.451336,387.073039 C384.291664,387.153544 381.131991,387.409058 377.975814,387.328553 C364.928184,386.999535 351.988906,388.749633 338.983219,389.229159 C336.215011,389.330665 333.576125,389.9607 330.898792,390.797247 C326.774441,392.081818 322.653585,393.408392 318.455834,394.510954 C313.426223,395.834027 308.407097,396.42206 303.276125,396.667074 C299.731979,396.838583 296.229776,397.066096 292.724077,397.934144 C289.700718,398.683186 286.467646,398.690187 283.318459,398.777692 C277.792528,398.9317 272.259606,398.893198 266.730179,398.949201 C262.780589,398.991203 258.862455,399.075208 255.024711,400.349279 C253.186229,400.958313 251.14852,400.989815 249.191201,401.196326 C247.226891,401.402838 245.175201,401.206827 243.298272,401.696854 C233.98353,404.12949 224.459075,403.257941 215.022,403.663964 C209.911999,403.884476 204.833455,403.803972 199.845786,401.882365 C197.37467,400.930312 194.400244,401.143823 191.649512,401.07732 C185.728621,400.933812 179.80074,400.986315 173.876354,400.888309 C171.908549,400.856807 169.758993,401.08782 168.004397,400.398282 C160.252014,397.349612 151.828551,396.936589 144.069179,394.027927 C139.57084,392.340833 134.946673,391.556789 130.175708,391.500786 C127.379538,391.469284 124.761623,390.643238 122.0773,389.9607 C118.942094,389.166156 116.114466,387.99359 113.594418,385.980978 C107.054875,380.751687 99.3059878,377.650514 91.9800217,373.8108 C90.6238791,373.10026 88.9776338,372.91125 87.4467306,372.571731 C85.3006699,372.092204 83.5041305,372.848246 82.2738155,374.577343 C77.9362564,380.681683 73.8713238,386.870028 70.77107,393.817915 C66.8704125,402.554402 64.5356103,411.66891 62.2287698,420.828921 C60.5930102,427.318282 58.9222984,433.832146 58.9188032,440.629524 C58.9188032,441.711085 58.1638372,442.827647 57.6325649,443.867205 C56.9579888,445.193779 54.8049377,446.338343 53.69346,445.907819 C52.2044993,445.330287 50.820395,444.479739 50.376503,442.799645 C50.0794099,441.676083 49.9291157,440.493017 49.8592115,439.327452 C49.5026998,433.289615 51.7675977,427.675302 52.8511137,421.875479 C53.7144313,417.248221 55.3641717,412.771472 56.5560393,408.196717 C59.6353218,396.383558 65.6610688,383.912363 72.8926642,374.325328 C74.7905648,371.808688 76.5451617,369.173041 78.1983974,366.488392 C78.4989857,365.998364 78.2368447,364.822299 77.8209144,364.286769 C76.6185611,362.739683 75.1785334,361.378107 73.874819,359.904525 C69.9566854,355.466277 66.2377789,350.832019 62.1029421,346.610784 C58.2442271,342.669564 53.8472493,339.263874 49.8696971,335.43116 C43.0400512,328.847293 36.2208909,322.245925 29.6394051,315.417045 C19.5941633,304.996964 12.6456801,292.788283 9.20289546,278.633494 C6.68983742,268.300918 3.98454266,258.017345 1.52740802,247.667268 C0.789918107,244.562595 0.125827663,241.503425 0.104856386,238.342748 C0.0279617029,228.059175 0.0279617029,217.775602 0,207.492029 C0,207.096507 0.076894683,206.700985 0.0559234058,206.305462 C-0.157284579,202.269738 1.85246282,198.626034 2.10062293,194.670814 C2.32431655,191.118116 2.44315379,187.547917 2.89054104,184.02322 C3.38686126,180.113502 3.97755224,176.189784 4.95271662,172.381571 C5.92788101,168.576859 7.3923752,164.894654 8.71356566,161.180947 C10.0347561,157.46374 11.5062407,153.802536 12.7959743,150.074828 C16.8154691,138.44368 22.49519,127.614076 28.7306497,117.071488 C32.543927,110.620629 35.8888457,103.802249 40.8275814,98.1354327 C45.4936906,92.7801342 50.7574812,87.9533651 55.7381595,82.8710818 C60.9949596,77.5087829 66.2168077,72.111482 71.4701126,66.7456829 C73.6825823,64.4845569 75.9369946,62.2689334 78.1529596,60.0148077 C86.8665252,51.1558139 97.2018697,44.7924592 108.561311,39.9201876 C119.427928,35.2579277 130.172213,30.3226526 141.024849,25.6253908 C154.411514,19.8290676 168.056825,14.7992873 182.243894,11.2360886 C189.108492,9.51049245 195.8927,7.46287831 202.827202,5.98229578 C210.135692,4.42120876 217.493116,3.11213579 224.826072,1.71205774 C233.854207,-0.0100382548 242.86137,0.000125490586 251.920962,0.000125490586 C257.044944,0.000125490586 262.158441,-0.0415400108 267.198538,1.39353999 C269.435474,2.0305755 271.892608,1.90106828 274.255372,2.06557745 C278.187487,2.33859267 282.10562,2.46109949 285.96084,3.61266369 C288.187291,4.27770076 290.64093,4.32320329 293.000199,4.36870583 C301.685803,4.533215 310.374902,4.63122046 319.064001,4.65922203 C324.593428,4.676723 330.122855,4.42820915 335.652282,4.49471286 C340.779759,4.55771637 345.949179,4.54371559 351.020732,5.18425129 C356.071315,5.824787 361.024032,7.2528666 366.025681,8.30642533 C371.030826,9.36348426 376.008009,10.7110594 381.069077,11.3270937 C385.036144,11.8101206 388.769031,12.9756856 392.554347,14.0152436 C397.86707,15.4713247 403.148337,17.0429123 408.405137,18.6985046 C412.532984,19.997077 416.622383,21.432157 420.687315,22.9197399 C427.345696,25.3558757 433.888734,28.142031 440.634495,30.3016514 C446.342178,32.1252531 451.574511,34.7153975 456.579656,37.9250764 C461.560334,41.1207545 466.656355,44.1379227 471.609071,47.3686028 C481.850045,54.0539755 492.073543,60.7673497 502.21665,67.5997305 C506.180222,70.2668792 509.43776,73.7320724 511.940333,77.851802 C512.55549,78.8633584 513.041325,79.9729203 513.768329,80.8934716 C519.661258,88.3943897 523.87998,96.885863 528.409776,105.209327 C532.824229,113.322779 535.246412,121.957761 536.120215,131.09677 C536.270509,132.668358 536.403327,134.253946 536.703916,135.801032 C537.521796,139.983765 538.427056,144.162998 539.349792,148.597746 Z M287.470772,80.2424353 C287.470772,80.3124392 287.467277,80.3859433 287.467277,80.4559472 C283.912646,80.4559472 280.358014,80.3999441 276.806878,80.469948 C271.67241,80.5679534 266.520466,80.4944493 261.417456,80.9669757 C252.794765,81.7650202 244.245475,83.3261072 235.556376,83.5116175 C234.783934,83.5291185 233.976539,83.7251294 233.256526,84.0156456 C230.257633,85.2127123 227.09097,85.3667209 223.941783,85.4892278 C217.597972,85.7342414 211.561739,87.8518595 205.280842,88.4573932 C186.53951,93.333165 168.409841,99.6685182 151.873989,110.081599 C146.833892,113.252775 142.36002,117.113491 137.564588,120.571683 C136.002228,121.698746 134.712494,123.333337 133.625483,124.953928 C129.892596,130.526238 126.037376,136.042546 123.31111,142.21689 C119.648127,150.515853 115.604165,158.681808 112.500416,167.187282 C109.124041,176.438298 106.81021,185.979829 106.680887,196.03939 C106.551564,205.986945 107.477795,215.759489 109.595894,225.413028 C111.713993,235.059565 114.618515,244.47509 119.46288,253.183576 C121.200001,256.30575 123.167806,259.210912 125.677369,261.790555 C132.010695,268.307919 138.239164,274.926788 144.502585,281.514155 C147.781095,284.961847 151.325241,288.007017 155.449592,290.488655 C161.531262,294.146359 167.361277,298.220586 173.331101,302.067301 C175.983968,303.775396 178.794119,305.136972 181.740583,306.341039 C190.870079,310.072247 200.226764,313.106916 209.562478,316.246591 C216.339695,318.525218 223.15536,320.107306 230.352004,320.068804 C235.877935,320.037302 241.407362,320.296317 246.929798,320.544831 C249.680531,320.667337 252.490682,320.758342 255.143548,321.395378 C259.862086,322.532941 264.468776,322.718452 269.162847,321.388378 C270.655303,320.964854 272.273587,320.870349 273.839442,320.824846 C280.546756,320.621835 287.282031,320.054803 293.964878,320.425824 C307.851358,321.192367 321.514145,319.137752 335.253827,317.930185 C336.421228,317.828679 337.616591,317.587166 338.710593,317.177643 C352.390856,312.088359 366.0117,306.943072 377.591341,297.57305 C385.256342,291.370704 393.26038,285.616384 401.781709,280.572602 C408.988838,276.305865 414.731473,270.275028 419.771569,263.610657 C424.815162,256.939285 428.139109,249.329861 431.543446,241.765939 C432.675895,239.249299 433.535718,236.659154 434.217284,233.953504 C436.052271,226.683598 436.964522,219.238683 438.733099,211.961778 C439.568455,208.524586 440.648476,205.052393 440.79877,201.559198 C441.032949,196.046391 441.169263,190.400576 440.246526,184.999775 C439.306314,179.504468 439.005726,174.026663 438.645719,168.517356 C438.516396,166.553747 438.470958,164.537634 437.978133,162.651029 C436.587039,157.313231 435.206429,151.954433 433.41688,146.742642 C429.072331,134.061435 424.504088,127.69458 413.640966,119.388617 C410.17721,116.73897 406.902196,113.935313 403.725047,110.963648 C392.547356,100.508565 379.611574,93.3226644 364.578663,90.0639828 C357.661637,88.5658993 350.751601,87.0118126 343.866032,85.3597205 C338.490394,84.0681485 333.121747,82.909584 327.550378,82.8990834 C325.593059,82.8955832 323.530883,82.8010779 321.695897,82.1990444 C318.232141,81.0649811 314.701976,81.0229788 311.15783,80.9109726 C303.262144,80.6589585 295.366458,80.4629476 287.470772,80.2424353 Z M536.675954,273.117187 C537.161789,273.71922 537.528786,274.552267 538.157924,274.884785 C541.153322,276.456373 542.876462,279.025516 544.012406,282.056685 C544.98058,284.636329 545.913802,287.236974 546.686244,289.879621 C548.545697,296.239476 548.758905,313.271425 547.021784,319.267259 C545.48389,324.584056 543.669875,329.820348 540.70943,334.542111 C530.213305,351.287044 517.15519,365.21082 498.361431,372.74324 C497.630931,373.037257 496.889946,373.320772 496.187408,373.677792 C491.577222,376.026423 486.813247,377.780021 481.566933,378.074037 C480.45895,378.137041 479.288054,378.749575 478.340851,379.393611 C477.83055,379.74013 477.295783,380.891694 477.505495,381.339719 C480.672158,388.126598 484.702139,394.496953 487.043931,401.693354 C487.320053,402.540401 488.875423,403.492454 489.833111,403.488964 C492.164418,403.478454 494.586601,403.24394 496.802566,402.550902 C504.313778,400.19177 511.790038,397.696131 519.203385,395.039483 C523.275308,393.579902 527.347231,391.983813 531.146527,389.936199 C538.794053,385.812969 545.962735,380.888194 552.851799,375.592399 C556.934208,372.456224 560.520296,368.767019 563.802301,364.790797 C567.119258,360.776073 569.68824,356.257321 570.950011,351.269543 C572.299164,345.935246 572.903835,340.408438 573.739191,334.951634 C574.095703,332.610003 573.830067,330.114364 574.511633,327.89524 C576.643713,320.950853 576.475943,313.831456 576.465457,306.736561 C576.454972,301.209753 576.643713,295.556938 575.595149,290.184138 C573.941914,281.703165 572.589266,273.127687 569.852515,264.853226 C566.392254,254.384143 563.62055,243.701547 560.740495,233.053954 C558.028209,223.029395 557.004112,212.910331 557.318681,202.595256 C557.3781,200.603645 557.804516,198.717039 558.535015,196.840935 C560.716028,191.240623 563.679969,186.186341 568.129375,182.073612 C570.160093,180.197507 572.08246,178.198896 574.144636,176.361293 C579.226675,171.82504 585.04271,168.566359 591.606719,166.746257 C595.874374,165.559691 600.159505,165.591193 604.413179,167.012272 C608.544521,168.394849 612.529064,169.934935 615.800583,173.046609 C618.075966,175.213229 620.756795,176.949326 623.210434,178.937437 C629.38997,183.949716 636.481757,185.682313 644.265596,184.758261 C647.655953,184.355739 650.24241,182.350127 651.525153,179.325959 C653.377616,174.950715 654.272391,170.470465 652.538765,165.587693 C651.588067,162.906543 650.577951,160.494909 648.631117,158.447295 C643.720343,153.277507 638.271306,148.85676 632.360901,144.789533 C623.182472,138.475181 612.899556,136.487071 602.270614,135.496515 C596.78313,134.985487 591.236227,135.22 585.895542,137.152108 C584.445028,137.677137 582.746355,137.463625 581.218947,137.827645 C572.767522,139.822756 564.487363,142.342897 556.773428,146.434625 C555.039802,147.355176 553.3621,148.426236 551.817216,149.630303 C550.265342,150.841371 548.825314,152.223948 547.497133,153.680029 C545.648165,155.706642 543.159574,157.152222 541.939745,159.759868 C542.523445,162.826039 542.785586,165.990215 543.750265,168.923379 C546.54993,177.435853 546.389151,186.119837 545.106407,194.733817 C544.236099,200.582643 543.59298,206.476972 542.582864,212.280296 C541.628671,217.775602 541.223226,223.218405 541.135846,228.748714 C541.065941,233.095956 540.283014,237.278689 539.084156,241.534926 C535.45263,254.433145 535.323307,258.710384 536.459251,271.976123 C536.480222,272.350644 536.599059,272.732165 536.675954,273.117187 Z M411.040528,285.885899 C413.46271,289.886622 416.258881,293.635331 419.359134,297.188029 C421.679956,299.848177 423.665237,302.798841 425.93363,305.507992 C430.491387,310.961296 434.192818,317.009633 438.17736,322.86196 C443.951452,331.346433 451.036248,338.770347 457.530354,346.670287 C459.047276,348.51489 460.980129,348.745903 462.657831,347.331824 C470.794687,340.471441 479.158731,333.971579 488.920861,329.477328 C490.657981,328.675784 492.220342,327.314208 493.59396,325.942131 C498.043366,321.489883 502.366945,316.911628 506.875769,312.242368 C506.103327,311.178308 505.652445,309.925239 504.775146,309.445712 C494.41184,303.778896 484.677672,297.114524 474.796706,290.681166 C470.84362,288.105022 467.093256,285.140357 462.926963,282.977236 C457.663172,280.243584 452.864245,276.837894 447.862595,273.722721 C442.85745,270.607547 437.901239,267.408369 432.92056,264.254693 C431.980348,263.65966 430.264198,263.834669 429.711955,264.692217 C424.951475,272.046127 418.460865,277.800448 412.242881,283.810283 C411.704618,284.324812 411.459953,285.143857 411.040528,285.885899 Z M62.6551858,336.176702 C63.8330725,335.462662 64.9690167,335.039139 65.7484491,334.262095 C72.4382866,327.590723 79.1525905,320.936852 85.6921337,314.118472 C97.1494415,302.182807 108.746558,290.40465 121.560008,279.900565 C122.472259,279.155023 123.283148,278.286975 124.132485,277.464429 C125.740283,275.903342 125.782225,273.988735 124.115009,272.336643 C121.895549,270.138521 120.046581,267.499374 116.876423,266.120297 C112.794014,267.07935 108.844424,268.762944 104.873862,270.443038 C99.0927798,272.893174 93.3186882,275.451817 87.3488646,277.355923 C70.5194147,282.721722 54.2457036,289.68361 37.3183877,294.748393 C35.0674706,295.42393 32.9074291,296.407485 30.7159306,297.268533 C29.244446,297.846065 28.6118125,299.827176 29.3038646,301.143249 C31.1703083,304.678446 33.8441461,307.538106 36.6438116,310.324261 C43.3441347,316.988632 49.9780487,323.719508 56.6608957,330.40138 C58.604234,332.340488 60.6139814,334.213092 62.6551858,336.176702 Z M95.3913494,191.524139 C97.4570202,192.140173 98.914524,190.943106 99.3129782,188.471968 C99.7533751,185.759317 100.07843,183.011664 100.739025,180.351516 C101.780599,176.158282 103.070332,172.024552 104.234238,167.859319 C104.786482,165.88871 103.919669,163.596082 102.353813,162.735034 C97.502458,160.064385 92.3435238,158.195281 87.0028385,156.795203 C84.8987204,156.242172 83.4936448,157.257228 82.8260592,159.784369 C82.0256554,162.826039 81.3825363,165.927212 80.3130011,168.874376 C80.0089176,169.717923 78.5269474,170.263953 77.4748883,170.662976 C76.8038074,170.91849 75.8566047,170.855486 75.1680478,170.582471 C64.416773,166.368236 56.4581734,159.154334 51.6557509,148.541743 C50.6701009,146.368121 49.7333838,144.215501 49.6180418,141.796867 C49.4642524,138.62219 48.8945327,135.514016 47.8354832,132.53185 C47.4580002,131.467791 46.7659481,130.396731 45.9340874,129.637189 C43.3021921,127.236055 40.3207756,125.324948 37.059742,123.861867 C36.2243861,123.487346 34.5047414,124.075379 33.9874499,124.967928 C27.2346986,136.592076 22.0862501,148.926764 17.7766526,161.632472 C17.2943132,163.053551 18.1576308,164.628639 19.8318378,165.332178 C30.3454381,169.749425 40.7891341,174.348681 51.4075908,178.499912 C59.0760878,181.49958 67.338771,182.822653 74.7905648,186.511859 C75.4791217,186.854878 76.2970016,186.945883 77.0624532,187.127893 C83.1790757,188.597975 89.2852125,190.061057 95.3913494,191.524139 Z M471.769851,371.924195 C475.184674,371.350163 478.64843,370.790131 482.105196,370.181097 C483.262111,369.978086 484.433007,369.743573 485.54099,369.358552 C492.244808,367.030922 498.784351,364.31477 504.939421,360.744571 C508.315797,358.784462 517.952099,351.336047 519.769609,349.078421 C524.467176,343.243596 529.073866,337.328266 532.950057,330.901908 C537.76646,322.921463 538.731139,313.848957 540.027863,304.888458 C539.15406,299.855177 538.325695,294.811396 537.340044,289.799117 C537.221207,289.197083 536.305461,288.679054 535.665838,288.269531 C535.001747,287.842508 534.344647,288.196027 533.921726,289.113078 C529.751937,298.154082 523.694733,306.00152 517.452283,313.575942 C511.447508,320.863348 504.485044,327.363211 497.823168,334.087085 C496.477511,335.445161 494.673981,336.474219 492.912394,337.272263 C486.764314,340.051418 481.123041,343.583115 475.894202,347.849853 C471.937621,351.080533 467.771328,354.055699 463.779795,357.244376 C463.304446,357.622397 462.923467,358.871967 463.182113,359.298991 C465.628762,363.331216 468.21522,367.279436 470.791192,371.231156 C470.979933,371.528673 471.402854,371.675681 471.769851,371.924195 Z M528.874639,277.978958 C528.441233,275.273307 528.130159,272.546655 527.549953,269.876006 C526.529351,265.189245 526.183325,260.547986 527.679276,255.899727 C528.413271,253.6211 528.738326,251.272469 528.388804,248.913338 C528.290938,248.258801 527.542963,247.240244 527.015186,247.191242 C524.292415,246.932227 521.545178,246.925227 518.804931,246.844722 C512.925983,246.666212 506.998102,247.065235 501.255467,245.262634 C500.15098,244.916115 498.927655,244.923115 497.753264,244.853111 C491.091388,244.447089 484.464464,243.93956 477.875988,242.612986 C472.905795,241.611931 467.648995,242.259467 462.773173,240.372861 C457.254232,240.113847 451.8751,239.112791 446.590338,237.506202 C445.870324,237.285689 445.007006,237.310191 444.266021,237.4747 C443.556493,237.632209 442.581329,237.961227 442.319188,238.503757 C441.12732,240.953894 440.124194,243.498536 439.107087,246.029177 C438.5863,247.320749 439.481075,249.298359 440.903626,249.959896 C443.74873,251.279469 446.600823,252.588542 449.491364,253.80311 C458.176968,257.450313 466.921991,260.915507 475.303511,265.290751 C482.951037,269.284473 490.871189,272.774168 499.175815,275.283808 C501.423237,275.962845 503.590269,276.921899 505.788758,277.758445 C511.65023,279.98807 517.511702,282.231695 523.376669,284.447318 C524.655917,284.930345 526.543332,283.995793 527.207422,282.483709 C527.826075,281.06263 528.287443,279.578547 528.874639,277.978958 Z M157.710995,388.112597 C157.952164,388.427615 158.12343,388.868639 158.441494,389.036649 C164.813267,392.407336 171.51359,394.461951 178.82208,394.143433 C181.583299,394.024427 184.351507,394.097931 187.112725,394.038427 C187.892158,394.020926 188.668095,393.824915 189.447528,393.71991 C190.296864,393.607903 191.481741,392.204325 191.586598,391.199769 C192.19826,385.312441 191.565627,379.299106 193.093035,373.516783 C193.910914,370.415611 194.159074,367.300437 194.382768,364.146761 C194.5785,361.385107 194.361797,358.493946 195.134239,355.900301 C196.518343,351.262543 196.567276,346.54778 196.888836,341.826017 C197.130005,338.280319 197.332728,334.762623 198.290416,331.279929 C198.905574,329.039804 198.786736,326.589668 198.951011,324.230536 C199.041887,322.956465 197.843029,321.146864 196.291154,320.768843 C194.767241,320.401323 193.306243,319.760787 191.817282,319.246258 C188.842856,318.217201 185.871925,317.184643 182.894003,316.166086 C181.723107,315.767064 179.377819,316.911628 178.986355,318.129696 C177.060493,324.136031 175.141621,330.142366 173.264692,336.162701 C169.745013,347.44733 166.365142,358.773962 162.71614,370.016588 C160.783287,375.984421 158.78053,381.913751 157.710995,388.112597 Z M136.131551,287.366481 C117.288858,306.131027 98.2958713,325.042581 79.3063798,343.957636 C78.7471458,344.514167 78.1983974,345.081198 77.6636298,345.65873 C75.0736771,348.434385 75.0107632,350.877521 77.6776106,353.975194 C79.7327958,356.358827 82.0885693,358.486946 84.0983167,360.90558 C86.9993433,364.405776 90.7741732,366.299381 95.0138664,367.513949 C96.3979707,367.909471 98.4286894,367.275936 99.1067607,365.942361 C102.717316,358.857966 107.87625,352.872633 112.650711,346.610784 C113.846073,345.046196 115.034446,343.474609 116.222818,341.903021 C125.016774,330.261372 132.685271,317.84968 140.822126,305.763507 C142.982168,302.553828 145.320465,299.337148 146.250192,295.406429 C144.118112,292.483766 141.241552,290.380149 138.609656,288.024518 C138.333535,287.776004 137.931585,287.635996 137.561093,287.53099 C137.208076,287.436485 136.827098,287.443485 136.131551,287.366481 Z M187.214087,86.4762828 C185.543375,81.0824821 184.068395,75.8076881 182.278846,70.6378999 C177.521861,56.8856333 172.642544,43.1718689 165.956202,30.1966456 C165.42493,29.164088 164.764334,28.142031 163.94995,27.3369862 C163.457125,26.850459 162.55536,26.7384528 161.810879,26.5704434 C161.454368,26.4899389 160.99999,26.5844442 160.653964,26.741953 C153.862765,29.8396257 146.620684,31.8837396 140.077646,35.5729453 C138.364992,36.5389991 137.76032,37.7850686 138.480334,39.3881579 C140.245416,43.3398782 141.895157,47.3125997 143.25829,51.4428299 C147.20089,63.3889958 151.541944,75.1951539 156.323395,86.8403031 C157.655071,90.0814838 159.19646,93.3366652 159.206946,97.0188705 C159.210441,98.1984362 160.528136,98.6674624 161.779423,98.1459333 C169.391996,94.9712563 176.854276,91.4360593 184.645105,88.6884061 C185.651726,88.3313862 186.389216,87.2078236 187.214087,86.4762828 Z M138.868302,384.605402 C142.61517,385.774467 146.344563,386.999535 150.126383,388.042593 C150.591246,388.1721 151.531458,387.468561 151.901951,386.91553 C154.166849,383.520341 153.908203,379.36911 155.159489,375.641402 C161.40194,357.030864 166.302228,338.000304 172.49924,319.368765 C174.37617,313.72295 173.589747,311.941351 168.371394,308.728172 C167.368268,308.112138 166.323199,307.566107 165.285121,307.002576 C164.240052,306.435544 162.740606,306.775063 162.160401,307.716615 C157.620119,315.074026 152.880611,322.319429 148.60247,329.827348 C142.954206,339.743401 137.050792,349.491444 131.004073,359.162483 C127.66964,364.496781 124.436568,369.897582 121.189516,375.284382 C120.581349,376.292438 119.927744,377.349497 119.686574,378.469559 C119.564242,379.036591 120.158428,380.009645 120.710671,380.415668 C121.626417,381.087705 122.751876,381.843748 123.81442,381.875249 C128.980345,382.032758 133.772282,384.143376 138.868302,384.605402 Z M299.270611,57.3931616 C299.270611,60.4593325 299.260125,65.1845959 299.277601,69.9098593 C299.284592,71.5689518 300.521897,73.0180326 302.003867,73.1195382 C305.142568,73.3330501 308.291755,73.4100544 311.416476,73.7460732 C314.918679,74.120594 318.396416,74.7191274 321.881143,75.2266557 C322.838831,75.3666635 324.464105,74.5406174 324.887026,73.7670743 C326.036951,71.6704575 326.924735,69.4758351 326.994639,67.0677009 C327.204352,59.9448038 329.773333,53.2069282 330.301111,46.1400343 C331.884442,42.4193269 331.632787,38.4221041 332.129107,34.5298871 C332.67436,30.2526487 333.632048,26.0314134 334.201768,21.7576752 C334.512842,19.4335456 334.380024,17.0499127 334.474395,14.6942814 C334.505852,13.9382393 333.079805,12.139139 332.398238,12.1495938 C324.935959,12.2616458 317.466689,12.282647 310.0114,12.5801636 C307.694074,12.6746688 305.383738,13.448212 303.129326,14.1062486 C302.524654,14.2847586 301.895516,15.1073044 301.685803,15.7653411 C301.339777,16.8679026 301.231425,18.0684695 301.182492,19.2375347 C300.976275,24.3548199 301.423662,29.5806112 300.511411,34.5613889 C299.221678,41.6247826 299.441876,48.663675 299.270611,57.3931616 Z M376.207236,309.897237 C375.354404,310.068747 374.574972,310.047745 373.980786,310.369763 C369.146906,312.984409 364.347979,315.655058 359.545557,318.322207 C358.420098,318.945241 357.728046,320.912351 358.171938,322.483939 C359.021275,325.501107 359.93702,328.504274 360.842281,331.507442 C365.029546,345.431218 370.122071,359.032976 375.756354,372.421222 C378.842627,379.754131 378.73078,379.995645 387.248614,379.267604 C391.918218,378.868582 396.549375,377.878026 401.159561,376.971476 C402.665998,376.67746 404.074568,375.833913 405.507606,375.200377 C407.450944,374.339329 408.342223,372.365219 407.643181,370.370108 C405.297893,363.695236 402.718426,357.13237 399.069424,351.02803 C396.448014,346.645786 393.959422,342.179537 391.45685,337.727288 C388.954278,333.27504 386.486657,328.805291 384.033018,324.325041 C381.394132,319.512273 378.797189,314.678504 376.207236,309.897237 Z M25.2983507,292.959793 C29.7128045,291.010184 33.9385169,288.840063 38.3704468,287.243974 C54.2771605,281.524655 70.2537785,276.001348 86.2024348,270.397535 C94.3707473,267.527375 102.409737,264.338697 110.197071,260.530485 C111.035922,260.120962 111.836326,258.307861 111.563699,257.495816 C110.438241,254.121628 109.120546,250.831444 106.862638,248.038289 C106.404765,247.474757 105.569409,246.998731 104.852891,246.911226 C103.695975,246.771218 102.455175,246.813221 101.326221,247.086236 C96.370009,248.283302 91.3753498,249.31936 86.5869082,251.198965 C81.8334187,253.064569 77.0414819,255.003677 72.0922605,256.148241 C57.1781872,259.595933 42.4913028,264.041181 27.2941172,266.270805 C24.2183299,266.72233 21.2578846,267.961399 18.2520016,268.857449 C17.4865499,269.084962 16.5498329,270.84556 16.6861462,271.829115 C17.7382053,279.326533 20.0520362,286.358425 24.4804709,292.581772 C24.6587267,292.830286 25.1131044,292.879288 25.2983507,292.959793 Z M44.5569736,256.246246 C44.5674592,256.291749 44.58144,256.337251 44.5919257,256.382754 C48.4086981,255.4237 52.2464419,254.541651 56.0387478,253.484592 C62.4874155,251.688992 69.0758918,250.229411 75.2938755,247.817777 C83.4062645,244.671101 91.6829286,242.196463 100.064449,239.98784 C100.829901,239.784829 101.605838,239.637821 102.367794,239.424309 C103.19616,239.189796 103.902193,237.460699 103.598109,236.438642 C102.927028,234.167016 102.252452,231.895389 101.5604,229.630763 C101.329716,228.878221 99.6275474,227.702155 98.7956867,227.754658 C95.6499952,227.950669 92.3190573,227.583149 89.407545,228.517701 C84.3849241,230.12779 79.3028846,230.099789 74.1928834,230.411306 C71.0471918,230.603817 67.8281008,230.635319 64.7977512,231.37736 C61.2920527,232.238408 57.7758686,232.395917 54.2387132,232.63743 C51.4809902,232.826441 48.6184109,232.567426 45.97603,233.221963 C38.9960899,234.947559 31.8903221,235.017563 24.8020305,235.32208 C20.0450458,235.528591 15.5641829,237.079178 10.9295306,237.873722 C10.4087439,237.961227 9.71669175,239.028787 9.68523484,239.672822 C9.38464653,245.710659 12.1213982,257.068792 15.0678626,262.40309 C15.2461185,262.725107 15.6340871,263.096128 15.9661324,263.138131 C16.731584,263.232636 17.5599494,263.292139 18.2939441,263.099628 C27.0494523,260.842003 35.8014653,258.538874 44.5569736,256.246246 Z M24.2393012,203.900828 C18.5735611,203.900828 15.0329105,203.830825 11.5027455,203.967332 C10.8771024,203.991833 9.94038538,204.754876 9.73416782,205.374411 C8.98619227,207.597034 8.08442735,209.882662 7.97258054,212.18229 C7.72442042,217.289075 7.89918107,222.420361 7.95510447,227.541146 C7.9620949,228.311189 8.04248479,229.259742 8.48637683,229.802272 C9.18891461,230.66332 10.2234976,231.251353 11.1182721,231.954892 C18.8042452,229.924779 26.7139119,230.337802 34.5361983,229.774271 C35.714085,229.690266 36.9513904,229.788271 38.0523824,229.448753 C43.3965629,227.79666 48.9294848,227.926168 54.4099786,227.544646 C56.3672978,227.408139 58.422483,227.495644 60.2539745,226.914611 C64.843189,225.465531 69.5512407,225.420028 74.2557972,225.178515 C77.7859622,224.996504 81.2776799,224.845996 84.7169693,223.66643 C86.9014774,222.917388 89.3690977,223.018894 91.7038998,222.696876 C93.2522791,222.483364 94.8006584,222.22785 96.3350569,221.923333 C98.1980053,221.555813 99.4527868,219.72171 99.4038538,217.492086 C99.3059878,212.917331 98.767725,211.776267 94.6643451,210.862717 C88.0793641,209.392635 81.4454501,209.112619 74.7591079,208.923608 C66.9193454,208.699596 59.0271548,209.151121 51.31322,207.051004 C49.4502716,206.543476 47.4020768,206.749987 45.4447576,206.567977 C43.4909336,206.385967 41.4182724,206.480472 39.6147426,205.846937 C33.90706,203.827324 27.9512173,204.331352 24.2393012,203.900828 Z M383.208148,53.0844214 C387.059872,44.0679188 390.901111,35.047916 394.770312,26.0349136 C395.361003,24.6628371 394.56759,22.6572253 393.249894,22.1881991 C385.085077,19.2935378 376.51831,18.2294785 368.066886,16.6508905 C366.214423,16.3043712 364.183704,17.8899596 363.722336,19.836068 C361.918806,27.459493 359.954497,35.0549164 358.416603,42.7343445 C356.875214,50.4382739 354.896924,58.0021955 352.450275,65.4541109 C351.349282,68.8037977 350.227319,72.146484 349.136813,75.4996709 C348.741854,76.7107384 349.961683,78.9788649 351.153551,79.3533857 C351.898031,79.5878988 352.625035,79.9729203 353.386992,80.0709257 C357.280659,80.5749538 361.153355,81.0649811 364.886242,82.444058 C366.319279,82.9725875 367.983,82.8780822 369.541865,83.0495918 C370.793152,83.1860994 372.883289,81.9610311 373.362133,80.7849655 C373.80253,79.699905 374.21147,78.6008438 374.585458,77.4877817 C377.343181,69.3148261 379.761868,61.0193637 383.208148,53.0844214 Z M530.646712,241.583929 C531.02769,237.28919 533.194722,234.265021 533.264626,230.642319 C533.338026,226.701099 533.303074,222.756379 533.285598,218.81516 C533.282102,217.709098 532.331404,217.072063 530.978757,217.56559 C528.304919,218.538644 525.557682,218.482641 522.806949,218.479141 C513.743862,218.46864 504.67728,218.395136 495.614193,218.398637 C483.398424,218.405637 471.182655,218.489642 458.966886,218.486141 C454.587385,218.486141 450.368663,219.298187 446.22334,220.635261 C444.944092,221.048284 444.234564,222.105343 444.105241,223.218405 C443.832615,225.549535 443.783682,227.922667 443.878053,230.267798 C443.902519,230.883833 444.678456,231.853387 445.272642,231.996895 C449.840886,233.106456 454.206407,235.077066 459.064752,235.031564 C461.40305,235.010563 463.821737,235.283578 466.065664,235.920613 C469.148442,236.795662 472.266171,236.963671 475.408368,237.170183 C480.507883,237.502702 485.572447,237.723214 490.619534,238.951782 C494.390869,239.868833 498.462792,239.469811 502.380925,239.872334 C506.673047,240.313358 510.923226,241.24441 515.218842,241.513925 C519.905923,241.811442 524.631451,241.583929 530.646712,241.583929 Z M468.330562,162.66153 C467.827251,159.822871 467.376369,157.155723 466.876553,154.499075 C466.638879,153.235504 465.335164,152.185446 464.422914,152.472462 C458.823583,154.22956 453.259204,156.105664 447.506084,157.344733 C446.908402,157.47424 446.04858,158.415793 446.045085,158.986325 C445.957704,167.250285 445.863333,175.531747 448.551152,183.498191 C448.736398,184.047722 449.82341,184.621754 450.490995,184.618254 C453.238233,184.611253 456.100812,184.831765 458.70125,184.138727 C462.979391,183.001163 467.271512,183.046666 471.5881,183.018664 C476.313628,182.987163 481.039156,183.036165 485.761188,183.165673 C488.106476,183.232176 490.479726,183.375684 492.783071,183.799208 C500.608853,185.234288 508.480072,184.429243 516.333815,184.464245 C522.432962,182.472634 528.804735,183.043166 535.054175,182.448133 C536.637507,182.297624 538.08103,180.705035 537.787432,179.297957 C536.987028,175.454743 536.169148,171.615029 535.319811,167.782315 C534.903881,165.913211 532.897629,164.177114 531.181479,164.131612 C528.032293,164.047607 524.862135,163.893598 521.807319,164.859652 C517.983556,166.07072 513.999013,165.689198 510.108841,166.189726 C505.830701,166.742757 501.573531,167.435796 497.302381,168.037829 C496.526444,168.146335 495.729535,168.111333 494.943112,168.125334 C481.559942,168.387849 468.176772,168.667864 454.790107,168.881376 C453.245223,168.905878 451.693349,168.59086 450.15196,168.359847 C449.798943,168.307344 449.183786,167.890821 449.211747,167.747313 C449.344565,167.071775 449.480879,166.102221 449.949237,165.846707 C451.298389,165.111666 452.773369,164.345123 454.26233,164.184114 C457.778514,163.802593 461.336641,163.816594 464.866806,163.550579 C465.992264,163.466574 467.086266,162.994048 468.330562,162.66153 Z M482.856666,65.9441383 C482.741324,63.7320149 481.542466,62.6994574 480.249238,61.8944125 C474.552041,58.3557152 468.805911,54.8975225 463.073762,51.4218287 C462.738221,51.2188174 462.322291,50.9108002 462.000731,50.9703036 C461.301689,51.0963106 460.396429,51.2258178 460.001469,51.7088447 C458.253863,53.8439637 456.782378,56.2100956 454.985839,58.2962119 C442.329673,73.0040318 431.466552,89.0244248 420.729258,105.135823 C419.638751,106.773914 418.789415,108.573015 417.849202,110.309111 C417.443758,111.058153 417.828231,112.934258 418.572711,113.592294 C421.232568,115.930425 423.902911,118.258054 426.615196,120.536681 C427.314239,121.124714 428.146099,120.995207 428.796209,120.382673 C430.232742,119.038598 431.711217,117.736525 433.053378,116.304946 C443.881548,104.771803 454.783117,93.315664 466.327805,82.4860604 C472.094906,77.0782589 477.561419,71.3729409 482.856666,65.9441383 Z M436.090718,358.92097 C435.863529,358.182429 435.818092,357.31088 435.38119,356.729848 C430.648672,350.415496 426.447426,343.772125 422.651625,336.85224 C419.621275,331.328932 416.604907,325.784623 413.273969,320.443325 C408.069597,312.10236 402.274534,304.139416 397.276379,295.658443 C397.007248,295.203418 395.654601,294.832397 395.252651,295.098412 C391.652582,297.496046 388.101446,299.974184 384.641185,302.567828 C381.649283,304.807953 381.226362,306.631555 382.708332,309.648723 C383.57864,311.416322 384.427977,313.197921 385.399646,314.909516 C391.229661,325.186089 397.230942,335.364657 402.886196,345.732235 C406.465294,352.2951 409.586519,359.113481 412.840562,365.851356 C414.9307,370.181097 416.744715,370.41211 420.096624,368.4345 C423.822521,366.236378 427.726674,364.346272 431.529466,362.281157 C432.899589,361.535616 434.224275,360.699069 435.531484,359.848521 C435.807606,359.670012 435.908967,359.235987 436.090718,358.92097 Z M493.282886,194.653313 C493.282886,194.768819 493.282886,194.884326 493.282886,194.999832 C504.34174,194.999832 515.400593,195.013833 526.459447,194.989332 C528.825706,194.985831 531.212936,195.013833 533.558224,194.733817 C535.753218,194.471303 536.822753,192.773708 537.43092,190.775097 C537.728013,189.798542 536.822753,188.023943 536.001378,187.911937 C531.656828,187.313404 527.298298,187.467412 523.041129,188.303959 C512.055675,190.463579 500.993326,189.805543 490.021853,188.895492 C477.641809,187.869935 473.091042,187.512915 459.449226,189.245511 C457.103938,189.543028 454.720203,189.553529 452.360934,189.75654 C451.588492,189.823044 450.72867,189.914049 450.099531,190.30257 C449.484374,190.684092 448.701446,191.457635 448.694456,192.063169 C448.635037,198.776543 448.652513,205.482917 447.006268,212.073784 C446.936364,212.3573 448.089784,213.340855 448.652513,213.323584 C455.342351,213.144844 462.011217,213.151844 468.697559,212.108786 C475.69847,211.016725 482.895114,211.135732 489.930977,212.17529 C493.471628,212.696819 496.977326,212.934832 500.524967,212.994335 C504.079599,213.053839 507.63423,213.064339 511.188862,213.07834 C514.348534,213.092341 517.518692,212.927832 520.667879,213.123843 C524.212025,213.344355 527.672286,212.227793 531.184975,212.626815 C532.107711,212.731821 532.796268,212.885829 533.184236,212.080784 C534.38659,209.595646 535.571467,207.107007 535.389716,204.215846 C535.330297,203.274293 534.222315,201.758709 533.331035,201.695706 C531.761685,201.587199 530.188839,201.42619 528.615993,201.41569 C519.136976,201.356187 509.657959,201.349186 500.178941,201.286183 C497.812682,201.268682 495.3171,201.559198 493.10463,200.925663 C488.047057,199.476582 482.91958,199.7951 477.809579,199.665592 C470.703811,199.483582 463.591053,199.550086 456.485285,199.417078 C454.954382,199.389077 453.416488,199.039057 451.910052,198.713539 C450.97683,198.510528 450.704203,197.813989 450.756631,196.959942 C450.80906,196.130395 451.158581,195.584365 451.983451,195.164341 C454.192426,194.033778 456.597132,194.219289 458.921449,194.23329 C470.378756,194.310294 481.829074,194.502805 493.282886,194.653313 Z M243.738669,74.855635 C243.83304,74.0925925 243.983334,73.6865698 243.916925,73.3260497 C243.336719,70.2388777 242.59923,67.1762069 242.134366,64.0715339 C241.610084,60.5713388 241.302506,57.0641433 240.575501,53.5604479 C239.138969,46.637062 237.831759,39.6156706 237.394858,32.5767782 C236.950966,25.43288 234.96918,18.6039994 234.214214,11.5581066 C234.140814,10.8685682 232.291847,9.6189985 231.470472,9.63299928 C230.292585,9.65400045 229.083241,9.47199031 227.940307,9.67500162 C222.921181,10.560551 217.916036,11.547606 212.910891,12.5066595 C212.15243,12.6536677 211.040953,14.452768 211.107362,15.3453177 C211.16678,16.1328616 211.121342,16.9414067 211.296103,17.700949 C212.425057,22.6852269 213.567991,27.6695047 214.766849,32.6362816 C217.999921,46.0175275 221.173575,59.4127742 223.518862,72.990031 C223.784499,74.5231165 224.459075,75.986198 224.972871,77.4702808 C225.458706,78.8703588 226.294062,79.3988883 227.5803,79.2238785 C231.085998,78.7443518 234.598687,78.3033272 238.100891,77.7922987 C239.264796,77.6242893 240.519578,77.5192835 241.519209,76.9837536 C242.480392,76.4762253 243.154968,75.4436678 243.738669,74.855635 Z M79.0861814,203.561309 C85.1818326,204.11084 90.6413551,204.614868 96.1043728,205.059393 C96.3665138,205.080394 96.7405016,204.597367 96.9502144,204.278849 C98.5650027,201.790211 97.4675059,197.83849 94.8845436,197.600477 C89.7535711,197.124451 85.122414,194.467803 79.9355181,194.401299 C74.776584,192.514694 69.6316306,190.596587 64.4552204,188.762485 C62.2392554,187.978441 59.9533862,187.379907 57.7024691,186.690369 C50.1807711,184.38374 42.8757762,181.548582 35.7769989,178.135892 C31.1772987,175.923769 26.4412853,173.998662 21.7472144,171.98955 C20.6706889,171.527524 19.5172686,171.247508 18.3953053,170.893989 C17.0007154,170.456464 14.9000924,171.258009 14.3967818,172.465576 C13.4915216,174.639197 12.3590727,176.735814 12.2402354,179.17545 C11.9711041,184.677757 11.6844966,190.183564 10.115146,195.521361 C10.0137848,195.86088 10.1011652,196.357908 10.2934019,196.662425 C10.6883609,197.29246 11.1357482,198.255014 11.691487,198.353019 C13.6033685,198.685538 15.5676781,198.738041 17.5180069,198.836046 C24.1973586,199.175565 30.8802056,199.494083 37.5595574,199.819601 C42.0893533,201.380688 46.8078906,201.723707 51.526428,201.723707 C56.681867,201.720207 61.6310884,203.263793 66.7236135,203.519307 C71.033211,203.732819 75.3707701,203.561309 79.0861814,203.561309 Z M245.902206,329.361822 C243.75265,329.529831 241.78135,329.575334 239.851992,329.897352 C239.226349,330.002358 238.387498,330.737399 238.223223,331.339432 C237.821274,332.823515 237.608066,334.395103 237.583599,335.938689 C237.398353,347.790349 237.293496,359.64551 237.125726,371.497171 C237.069803,375.445391 236.825138,379.344608 235.860459,383.236825 C235.21035,385.865472 235.420062,388.714631 235.294235,391.465784 C235.245302,392.480841 236.514064,393.877418 237.415829,393.919421 C238.593716,393.975424 239.771602,394.041928 240.949489,394.073429 C247.730202,394.26244 254.091489,391.609292 260.770841,391.098263 C261.602702,391.03526 262.72117,389.232659 262.417086,388.312108 C261.036477,384.111874 261.186772,379.73663 260.833755,375.413889 C260.575109,372.270714 260.561128,369.057535 259.837619,366.019365 C259.096634,362.907692 258.600314,359.803019 258.6108,356.656344 C258.635266,348.308378 255.922981,340.327933 255.472098,332.046472 C255.440642,331.458439 254.538877,330.534387 253.923719,330.422381 C251.218424,329.932354 248.467692,329.68034 245.902206,329.361822 Z M220.145982,361.696624 C220.10404,361.696624 220.065592,361.696624 220.02365,361.696624 C220.02365,351.420052 220.020154,341.139979 220.03064,330.863406 C220.034135,329.529831 219.331597,328.476273 218.262062,328.07025 C215.689586,327.090195 213.05769,326.187145 210.373367,325.606113 C206.574071,324.783567 204.344125,324.510552 204.141402,329.753844 C204.01907,332.91102 204.211307,336.190703 203.414398,339.19037 C202.072236,344.234151 201.995342,349.340936 201.565431,354.44772 C201.401156,356.404329 201.009692,358.343438 200.702113,360.289546 C200.33162,362.620676 199.814329,364.937805 199.576654,367.282936 C199.174705,371.206655 198.758775,375.084871 197.895457,378.977088 C196.96573,383.166821 197.109034,387.601569 196.934273,391.93831 C196.909807,392.571846 197.671763,393.285885 198.175074,393.873918 C198.402263,394.139933 198.895088,394.167935 199.248104,394.339444 C204.868407,397.076597 210.771821,396.387058 216.661255,395.753523 C217.957979,395.613515 219.576262,393.894919 219.705585,392.498341 C219.887336,390.538232 220.11802,388.571123 220.128506,386.607513 C220.173944,378.30155 220.145982,369.999087 220.145982,361.696624 Z M500.612348,132.962374 C500.612348,134.607466 500.626329,136.578076 500.608853,138.552186 C500.587881,141.086327 501.975481,142.552909 504.139018,141.845869 C509.084744,140.228779 514.163288,139.934763 519.290765,139.773754 C521.248084,139.71075 523.201908,139.388732 525.152237,139.129718 C527.106061,138.867203 528.804735,136.795088 528.490166,134.943485 C527.962388,131.845812 527.057128,128.790142 526.781006,125.674968 C526.207792,119.227608 523.827552,113.448786 520.76225,107.897477 C519.241832,105.146324 517.675977,102.458174 516.372263,99.5600121 C514.27863,94.911753 511.580326,90.4875064 507.774039,86.9383085 C507.333642,86.5252855 506.134784,86.2732715 505.739825,86.5602875 C499.063968,91.4430596 492.454521,96.4203371 485.838083,101.387114 C485.530504,101.618127 485.313801,101.971647 485.030689,102.241162 C484.191838,103.039206 484.149895,104.670297 484.96428,105.387837 C487.617146,107.725967 490.507687,109.847086 492.880937,112.447731 C498.053852,118.114546 502.12228,124.351894 500.612348,132.962374 Z M265.164324,43.1543679 C265.164324,33.0878067 265.178305,24.7818437 265.153838,16.4723805 C265.150343,14.8937925 265.007039,13.3152045 264.919659,11.7401167 C264.881211,11.0365775 263.213995,9.60849791 262.406601,9.53149362 C255.709773,8.90845889 249.00945,8.91895948 242.305632,9.36348426 C241.250077,9.43348816 239.921896,10.847567 240.198018,11.7121152 C241.645036,16.2728694 242.026015,20.9806318 242.274175,25.7163958 C242.337089,26.8959616 242.333593,28.1455312 242.732048,29.2305917 C244.116152,33.0248032 243.993819,37.0080253 244.49713,40.9212434 C245.045879,45.2124826 245.97211,49.4582193 246.653676,53.7354577 C247.705735,60.3508265 248.656433,66.9871964 249.764416,73.5920646 C249.869272,74.2220997 250.711619,75.1111493 251.323281,75.2126549 C255.255395,75.8741918 259.177024,75.6571797 263.04273,74.6281223 C264.133236,74.3376061 265.755015,72.272491 265.751525,71.0614235 C265.748024,69.4793353 265.709577,67.8972471 265.67812,66.3151589 C265.489379,58.0126961 265.307627,49.7067331 265.164324,43.1543679 Z M98.6593734,113.084766 C98.1770341,112.223718 97.9498452,111.422173 97.4290585,110.949647 C94.1190919,107.942979 90.2673674,106.171881 85.7200954,106.294388 C82.5848895,106.378392 79.4496836,106.542901 76.3249633,106.780915 C75.171543,106.86842 73.923752,107.046929 72.9171307,107.571959 C69.4428891,109.38156 65.9197146,111.18416 63.1270395,114.005317 C59.4116282,117.761027 57.1502255,122.227276 56.9999313,127.617576 C56.9475032,129.581186 56.9999313,131.548295 56.9090558,133.508405 C56.6434196,139.224223 58.4294734,144.334508 61.4423469,149.073772 C64.4202683,153.760533 68.0692705,157.803259 72.8122743,160.781925 C73.6511254,161.310454 75.3952366,160.501909 75.5070834,159.451851 C77.2686707,142.811923 84.7134741,128.870646 95.7303851,116.616463 C96.7684633,115.454398 97.7226564,114.218829 98.6593734,113.084766 Z M401.026743,98.5764573 C404.417099,101.565624 407.05249,103.928256 409.733318,106.241885 C410.855281,107.211439 413.011828,106.847418 413.896117,105.555846 C415.902369,102.626183 417.866678,99.6685182 419.855455,96.7318545 C428.939513,83.3296074 437.75444,69.7313494 448.341439,57.4106626 C450.644785,54.7260129 452.518219,51.6703426 454.573404,48.7756812 C455.195552,47.9006324 454.83205,46.2870425 453.898828,45.6430066 C452.927159,44.9709691 451.979956,44.2604295 450.962849,43.6653964 C448.582609,42.2758189 446.181398,40.9247436 443.759215,39.60517 C442.44152,38.88763 440.658962,39.3986585 439.662826,40.6937307 C438.939317,41.6352832 438.187846,42.5558345 437.523756,43.5393893 C427.789588,57.9356918 418.041439,72.3214937 408.363195,86.7597986 C405.954993,90.354499 403.784466,94.1172087 401.026743,98.5764573 Z M202.271464,14.7747859 C199.359951,15.4433232 196.287659,16.0383563 193.281776,16.8784032 C191.020373,17.5084383 188.807904,18.3659861 186.658348,19.3180392 C186.109599,19.5595526 185.676193,20.5221063 185.585317,21.2046443 C185.490947,21.9326849 185.809011,22.74123 186.053676,23.4797711 C188.90577,32.0832507 191.922138,40.6342274 194.602966,49.2902099 C197.395642,58.3137129 200.460943,67.2637118 202.495157,76.5147275 C202.830698,78.0338122 203.659063,79.447891 204.270725,80.9074724 C204.658694,81.8315239 206.245521,82.7695762 207.147285,82.5560643 C210.205597,81.8280237 213.260413,81.0929827 216.311734,80.3404408 C217.087671,80.14793 218.104778,78.3978325 217.964969,77.4807813 C217.667876,75.5416733 217.475639,73.5745636 217.045728,71.6669573 C215.916775,66.675679 214.438299,61.7509045 213.54003,56.7211241 C211.809899,47.0185833 209.184995,37.5225539 207.157771,27.890017 C206.588051,25.1913666 206.144159,22.454214 205.375213,19.8115667 C204.840445,17.970464 204.288201,15.9928538 202.271464,14.7747859 Z M307.187268,388.098596 C308.767104,387.773078 309.913534,387.367055 311.070449,387.332053 C315.855396,387.181545 320.280335,385.553954 324.757703,384.139876 C326.76046,383.50984 327.651739,381.952254 327.33717,379.530119 C327.036582,377.198989 326.742984,374.853858 326.197731,372.575231 C324.551485,365.725349 322.716499,358.948971 321.860172,351.899578 C321.346375,347.657342 320.158003,343.481609 319.832948,339.155368 C319.658187,336.841739 318.763413,334.591114 318.323016,332.284485 C317.477175,327.839237 315.900834,327.499718 312.772618,328.287262 C309.308862,329.158811 305.855592,329.526331 302.328922,329.711842 C300.189852,329.823848 298.970023,331.608947 299.420905,333.81057 C299.969653,336.49522 300.874914,339.144867 301.081131,341.850518 C301.706774,350.065476 304.212842,358.045921 304.059052,366.355384 C304.038081,367.506948 304.310708,368.721516 304.716152,369.806577 C305.841611,372.827245 305.715783,375.987921 306.016372,379.106595 C306.282008,381.822746 305.841611,384.605402 307.187268,388.098596 Z M144.460643,106.003871 C144.345301,105.240829 144.408215,104.386781 144.079665,103.732245 C142.132831,99.8575287 140.192988,95.9723121 138.071394,92.1956016 C132.468567,82.2235457 127.519346,71.9329721 122.842751,61.4988905 C120.916889,57.1971507 118.501697,53.112423 116.264761,48.9541912 C115.635622,47.7816258 113.286839,47.0920874 112.046039,47.6836204 C108.494902,49.3707144 104.943766,51.0648088 101.434572,52.8324074 C99.8162889,53.6479528 99.3059878,56.1575927 100.291638,58.0441979 C103.769375,64.6910684 107.711975,71.0719241 112.06002,77.1587634 C118.253537,85.8217463 124.370159,94.5127308 129.536084,103.851251 C130.864265,106.255885 132.440606,108.531012 134.044908,110.764137 C134.425887,111.296166 135.442994,111.775693 136.054656,111.663687 C139.224814,111.075654 141.769329,109.234551 144.111121,107.116933 C144.359282,106.892921 144.348796,106.381892 144.460643,106.003871 Z M129.459189,117.369005 C124.845508,109.910089 120.427559,102.419672 115.663584,95.1567667 C108.94928,84.9151958 102.105653,74.7646299 96.8593388,63.6480103 C96.3595234,62.5874511 95.6115478,61.6353981 94.9264861,60.6693442 C94.7097829,60.361327 94.3602616,60.0428093 94.0107403,59.948304 C93.2977169,59.7557933 92.2910956,59.3532709 91.8506988,59.6647882 C86.041655,63.805519 80.8512639,68.6182873 76.5975899,74.3831087 C76.3983627,74.6526237 76.3878771,75.1181496 76.419334,75.4821699 C76.4507909,75.8566908 76.5276856,76.3432179 76.7758457,76.5672304 C79.7048341,79.2028773 82.8959634,81.5865102 85.5907726,84.4426694 C97.8135319,97.4003917 111.647584,108.639518 124.363169,121.065211 C124.639291,121.334726 125.051726,121.460733 125.355809,121.709247 C126.278545,122.465289 127.309633,122.104769 128.092561,120.599685 C128.627329,119.574128 129.004812,118.464566 129.459189,117.369005 Z M511.748096,304.91996 C512.108103,304.772951 512.524033,304.695947 512.817631,304.464934 C513.429293,303.985407 514.082898,303.49888 514.533781,302.879346 C516.623918,300.026687 518.71056,297.170528 520.678365,294.237364 C522.090431,292.133747 521.615082,290.369648 519.479507,289.515601 C510.734484,286.029407 501.940529,282.669219 493.230458,279.10252 C486.690915,276.424871 480.053506,273.88723 473.818046,270.604047 C461.965779,264.366699 449.362042,259.935452 437.160253,254.545152 C436.338878,254.184631 435.611874,254.583654 435.105068,255.294193 C434.437483,256.235746 434.619234,257.712828 435.500027,258.388366 C436.122175,258.867892 436.681409,259.438424 437.342005,259.851447 C441.676068,262.553598 446.041589,265.210246 450.379148,267.908896 C454.049122,270.191024 457.54783,272.802169 461.382079,274.751778 C469.470001,278.864507 477.054613,283.813783 484.443493,288.976571 C492.85647,294.853398 501.919557,299.561161 510.668075,304.828954 C510.947692,304.996964 511.384594,304.895458 511.748096,304.91996 Z M371.285977,378.501061 C368.402426,371.210155 365.428,363.929749 362.642315,356.579339 C359.856631,349.225429 357.644161,341.675508 355.173045,334.213092 C350.583831,320.338319 352.258038,321.25537 338.399519,326.229147 C337.871742,326.418158 337.438335,327.447215 337.333479,328.143754 C336.955996,330.611392 338.563794,332.638005 339.021667,334.937633 C341.85978,349.197428 346.232291,363.093202 349.08788,377.349497 C349.294097,378.382055 350.573345,379.537119 351.524043,379.593122 C357.787465,379.964143 364.054381,380.310662 370.286346,379.2046 C370.621886,379.145097 370.904998,378.777577 371.285977,378.501061 Z M292.601745,389.41817 C293.335739,389.358666 296.079481,389.152155 298.819728,388.924642 C299.714503,388.851138 300.934332,387.283051 300.794524,386.425503 C300.16189,382.561288 299.25663,378.718073 298.959537,374.829357 C298.630987,370.489115 297.970392,366.246878 296.858914,362.057145 C296.87639,353.35566 293.887983,345.021695 293.692251,336.334211 C293.657299,334.825627 293.143503,333.215537 292.433974,331.874962 C291.937654,330.93691 290.80171,329.897352 289.819555,329.743343 C286.313857,329.186812 282.74874,329.274317 279.284984,330.138865 C278.65235,330.296374 277.785537,331.199424 277.750585,331.801458 C277.443007,337.310765 277.607282,342.806071 278.550989,348.266376 C279.015852,350.968526 279.746352,353.691678 279.735866,356.404329 C279.697419,366.677402 282.381742,376.673959 282.619417,386.90853 C282.626407,387.26555 282.808158,387.692574 283.052823,387.951588 C283.559629,388.490618 284.125854,389.302663 284.72703,389.358666 C286.663378,389.530176 288.631183,389.41817 292.601745,389.41817 Z M478.019292,157.866262 C486.03032,152.594968 490.661477,145.041547 492.632777,135.794032 C493.75474,130.540239 492.887927,125.506958 489.48359,121.22622 C487.526271,118.762083 485.338268,116.444953 483.013951,114.320335 C479.39291,111.012651 475.02739,109.399061 470.085159,109.311556 C465.251279,109.224051 460.791388,110.589127 456.436352,112.535235 C456.534218,114.614351 457.823952,116.108935 458.94242,117.656021 C460.794883,120.211163 462.989876,122.552794 464.580198,125.258445 C469.197375,133.105882 473.125994,141.268337 474.503108,150.417847 C474.919038,153.190002 475.712451,155.797647 478.019292,157.866262 Z M340.423247,77.1272616 C341.12928,76.6582355 342.149882,76.3607189 342.345614,75.7866869 C343.460587,72.4615016 344.386818,69.0733127 345.358488,65.6991246 C347.102599,59.6647882 349.003995,53.668954 350.531403,47.5821147 C352.443284,39.9691903 354.120986,32.2932624 355.732279,24.6103342 C356.295009,21.9256845 358.112519,19.549052 357.703579,16.6683915 C357.605713,15.978853 357.165317,14.9427953 356.64453,14.7677855 C352.95009,13.5147157 349.266136,12.1496396 345.267612,12.1461306 C343.624862,12.1426392 341.982112,13.1821971 341.85978,14.6732802 C341.325012,21.3446521 338.937782,27.7395086 338.895839,34.4808844 C336.452685,40.788236 337.487268,47.8061272 334.897316,54.081977 C334.540804,58.4082182 333.593601,62.6154527 332.572999,66.8296876 C332.024251,69.0838133 332.139593,71.5234493 332.188526,73.8755804 C332.202506,74.4636132 333.020386,75.3666635 333.642534,75.5486736 C335.87947,76.2102105 338.193301,76.6267337 340.423247,77.1272616 Z M387.730953,89.7839672 C388.517376,89.1644326 389.80711,88.6394034 390.251002,87.7083515 C392.267739,83.4556144 394.151659,79.1293732 395.88878,74.7541294 C399.072919,66.7246818 402.267543,58.7022346 406.087811,50.9458022 C408.691745,45.6605076 411.229269,40.3367108 413.749318,35.0094138 C414.249133,33.9558551 414.672054,32.8252921 414.860795,31.6842285 C414.972642,31.0086908 414.797882,29.9446315 414.336513,29.5736108 C411.183831,27.0359694 407.566286,25.6813939 403.469897,26.0839163 C402.246572,26.2029229 401.46714,27.1689768 400.991791,28.2890392 C397.7727,35.873962 394.441762,43.4168825 391.37646,51.0648088 C387.577164,60.5328366 383.970104,70.0778687 380.356054,79.6229008 C379.810801,81.0649811 379.569631,82.6610701 379.426327,84.2081564 C379.363414,84.8871942 379.695459,85.8532481 380.198769,86.2942726 C382.288907,88.1248747 384.753032,89.2659383 387.730953,89.7839672 Z M112.671682,375.154875 C113.447619,374.860858 114.478707,374.801355 114.831723,374.279826 C116.582825,371.686181 118.085767,368.921027 119.808906,366.306381 C126.739914,355.781295 133.181591,344.955191 139.630259,334.129088 C145.06881,324.997079 150.675131,315.966575 156.173101,306.869568 C156.777773,305.865012 157.165742,304.723949 157.616624,303.631888 C157.920708,302.893347 157.648081,302.221309 156.872144,301.682279 C156.550584,301.458267 156.183587,301.297258 155.858532,301.073245 C152.978477,299.095635 152.038264,299.480656 150.070459,302.172306 C149.140733,303.442877 148.263434,304.75545 147.438564,306.099525 C140.444643,317.520662 133.090715,328.703785 125.12163,339.466885 C118.330431,348.640897 111.406415,357.720403 104.580264,366.869913 C103.895202,367.790464 103.412863,368.875525 102.930524,369.929083 C102.79421,370.2266 102.871105,370.912638 103.073827,371.031645 C106.114662,372.806244 109.312782,374.234323 112.671682,375.154875 Z M270.753169,35.012914 C270.77414,35.012914 270.795112,35.012914 270.816083,35.012914 C270.816083,36.19598 270.812588,37.3755457 270.816083,38.5586117 C270.830064,43.6793971 270.997834,48.8036828 270.823073,53.920968 C270.630837,59.5002791 272.794373,64.7540719 272.762916,70.3018812 C272.752431,72.3284941 274.412657,73.3750525 276.908239,73.259546 C277.687671,73.2245441 278.467104,73.1125378 279.243041,73.0145324 C280.232186,72.8920256 281.574348,71.5794524 281.574348,70.711404 C281.588329,62.0519213 281.347159,53.381938 281.644252,44.7294557 C281.997269,34.4668836 280.669088,24.319818 280.186749,14.1167492 C280.109854,12.4681573 278.872549,11.2710906 277.355626,10.669057 C276.279101,10.2420332 275.087233,10.0530227 273.926822,9.90951469 C272.301548,9.71000357 270.763655,11.0155764 270.76016,12.5731632 C270.742683,20.0495799 270.753169,27.5329971 270.753169,35.012914 Z M477.264326,101.740634 C480.997213,98.9194764 484.824471,96.1788236 488.480464,93.224659 C493.066183,89.5214525 497.519084,85.6502367 502.017423,81.8350241 C502.772389,81.1944884 502.765399,79.3708867 502.157232,78.5798426 C499.210767,74.7506292 495.296129,72.146484 491.175273,69.7978531 C490.207099,69.2448222 488.693672,69.3323271 487.945696,70.0813689 C477.924921,80.1339292 467.907641,90.1864896 457.907837,100.260051 C457.362584,100.809582 456.960634,101.513121 456.55519,102.188659 C456.404895,102.440673 456.303534,102.916699 456.439848,103.095209 C456.656551,103.382225 457.156366,103.735745 457.418507,103.662241 C461.207318,102.56668 465.003119,101.621627 469.001643,101.726633 C471.745385,101.800137 474.496117,101.740634 477.264326,101.740634 Z M531.254879,152.80498 C531.104585,151.555411 530.828463,149.21728 530.53836,146.88265 C530.443989,146.133608 528.766287,144.698528 528.049769,144.670527 C518.570751,144.268004 509.395818,146.175611 500.273312,148.384234 C498.389392,148.839259 496.823537,149.962822 495.621184,151.702419 C493.621922,154.59708 491.332558,157.29223 489.203973,160.095887 C488.997755,160.365402 488.861442,160.984936 489.015231,161.177447 C489.431162,161.688475 490.049814,162.448018 490.546135,162.420016 C496.795575,162.048995 503.03453,161.509965 509.280476,161.107443 C515.92138,160.680419 522.370048,158.751812 529.045904,158.625805 C529.867279,158.611804 531.282841,157.012215 531.258687,156.242172 C531.233908,155.461628 531.254879,154.681085 531.254879,152.80498 Z M121.91652,44.0084155 C124.268798,48.8491853 126.656028,53.7669595 129.050249,58.6777332 C131.465441,63.6305093 133.887624,68.5832854 136.313302,73.5325613 C138.738979,78.4818371 140.96543,83.5431193 143.663734,88.3348864 C146.365534,93.1336539 147.218366,98.7899692 150.703093,103.196715 C154.467437,100.848084 154.935796,100.05704 153.820823,96.8053586 C151.908941,91.2295477 149.951622,85.6642375 147.837018,80.1619308 C143.604316,69.1538172 139.270252,58.1842057 134.939683,47.2145942 C134.219669,45.3874924 133.321399,43.6268942 132.475558,41.8522953 C131.937295,40.7252325 129.742301,40.0916972 128.291788,40.5047202 C125.995433,41.1697572 123.905296,42.1743132 121.91652,44.0084155 Z M452.696475,352.176094 C452.609094,351.791072 452.640551,351.315046 452.420353,351.042031 C450.707698,348.910412 449.054463,346.72279 447.188019,344.731179 C439.907491,336.967746 433.532222,328.465772 428.051729,319.414268 C421.707917,308.945184 413.906602,299.666167 406.196163,290.282144 C405.6579,289.627607 404.67225,289.977627 404.18292,290.635663 C403.973207,290.922679 403.655143,291.311201 403.714562,291.587716 C404.357681,294.744892 406.115773,297.359538 407.982216,299.872678 C415.724113,310.289259 422.368513,321.381377 428.467659,332.820015 C431.983843,339.414382 436.261984,345.518723 440.582067,351.591561 C441.483832,352.858632 442.542881,354.108201 443.783682,355.014752 C444.643504,355.641287 445.97518,355.998307 447.03423,355.889801 C449.002035,355.686789 450.760127,354.748737 452.056851,353.149148 C452.301516,352.848131 452.486762,352.501612 452.696475,352.176094 Z M433.755916,37.3510444 C433.500766,37.022026 433.3295,36.626504 433.032407,36.447994 C430.662653,35.0374154 428.243965,33.7493436 425.500223,33.182312 C424.028739,32.877795 421.977049,33.5568329 421.386358,34.8064025 C417.667451,42.6503398 414.028935,50.5327792 410.275076,58.3557152 C404.812058,69.7453501 400.820525,81.7965219 394.759826,92.9166418 C394.66196,93.0951517 394.89614,93.5676781 395.105852,93.7741896 C395.710524,94.3657226 396.622775,94.4497273 397.091133,93.7006855 C408.034645,76.325717 419.345153,59.2027625 431.442085,42.6048372 C432.361326,41.344767 433.025417,39.892186 433.734945,38.492108 C433.892229,38.1770904 433.755916,37.7115645 433.755916,37.3510444 Z M272.214168,391.157767 C272.997096,391.112264 273.783519,391.098263 274.562951,391.017759 C275.705886,390.902253 276.901249,389.78219 276.925715,388.816136 C276.957172,387.643571 277.247275,386.3765 276.918725,385.308941 C275.401802,380.352664 275.244518,375.24588 274.947425,370.146095 C274.856549,368.574508 274.929948,366.922416 274.458095,365.462834 C272.73146,360.128537 272.990105,354.584228 272.4099,349.123924 C271.791247,343.292599 270.826569,337.496275 269.966746,331.689452 C269.921308,331.384935 269.45295,331.104919 269.134886,330.884407 C267.593497,329.809847 264.119255,329.900852 262.532428,331.073417 C262.245821,331.283429 261.850862,331.678951 261.885814,331.937966 C262.31922,335.035638 262.927388,338.10881 263.280404,341.213483 C263.724296,345.1127 263.675363,349.06092 264.930144,352.869132 C265.408989,354.328714 265.471902,355.980806 265.450931,357.538393 C265.311123,367.793964 267.058729,377.885027 268.016417,388.042593 C268.198169,389.981701 269.771014,391.126265 272.214168,391.157767 Z M55.5109707,106.843918 C57.6814979,107.134434 59.2054107,106.749413 60.4601921,105.734356 C65.4583465,101.698631 71.2254477,99.3359996 77.4259553,98.0409274 C80.0893075,97.4843964 82.8610113,97.4388939 85.5767917,97.1098755 C85.9333034,97.0678732 86.5239944,96.7353547 86.53448,96.5183426 C86.5624417,95.8603059 86.5799178,95.0062583 86.20593,94.5582333 C84.6925028,92.759133 83.0951906,91.019536 81.4174884,89.3709441 C69.8168769,77.9603081 72.4243057,78.5553412 61.7708969,88.8774166 C58.6706431,91.880584 55.6193223,94.9397546 52.5959631,98.0164261 C51.7815785,98.8459723 50.9916604,99.7700238 50.4708737,100.792081 C50.1702854,101.380114 50.1563046,102.416171 50.4848546,102.969202 C51.7361408,105.07632 53.6689935,106.374892 55.5109707,106.843918 Z M198.978973,83.2456027 C199.269076,81.6320127 198.779746,80.165431 198.27294,78.6533467 C194.019266,65.9966412 189.513937,53.4134397 185.725126,40.6167264 C183.935577,34.5683893 181.677669,28.7405644 179.563066,22.8357352 C179.283449,22.0481913 177.633708,21.3411519 176.483783,21.6176673 C175.358324,21.8906826 174.243352,22.2897048 173.191292,22.7797321 C171.926025,23.3712651 171.300382,24.6803381 171.695341,25.5903888 C173.883345,30.6376702 176.144747,35.6569499 178.248866,40.7392332 C183.960043,54.5370024 189.48947,68.4047754 192.736523,83.053092 C193.124491,84.8101899 195.707454,85.870749 197.503993,84.9396971 C198.119151,84.6246796 198.493138,83.8266351 198.978973,83.2456027 Z M293.811088,43.497387 C293.933421,43.497387 294.055753,43.497387 294.178086,43.497387 C294.178086,34.8134029 294.192067,26.132919 294.16061,17.448935 C294.157114,16.2763696 293.947402,15.100304 293.818079,13.9277387 C293.723708,13.0666907 291.528714,12.0656349 289.854507,12.1111374 C288.893324,12.139139 287.372906,13.3467063 287.337954,14.1447508 C287.250574,16.1118604 287.124746,18.0824703 287.121251,20.0530801 C287.10727,29.5246081 287.110765,38.9996363 287.149213,48.4711643 C287.18067,55.5730601 287.257564,62.6784562 287.379897,69.7803521 C287.393878,70.5013923 287.858741,71.2119319 288.113891,71.9294719 C288.410984,72.7625183 289.522462,73.0775359 291.256088,72.9445285 C292.122901,72.8780248 292.867381,72.6015094 293.122531,71.7439616 C293.451081,70.6449003 293.772641,69.4933361 293.779631,68.3592729 C293.835555,60.074311 293.811088,51.785849 293.811088,43.497387 Z M113.101593,143.763976 C113.699274,143.228446 114.803762,142.622913 115.34552,141.68486 C116.900889,138.98971 118.103243,136.088048 119.676088,133.403399 C121.59496,130.123716 121.046212,128.611632 118.578592,126.280502 C115.19173,123.081323 112.115943,119.539126 108.606749,116.675966 C107.624594,117.057487 106.785743,117.148493 106.289423,117.610518 C104.01404,119.742137 101.805065,121.94726 99.6310426,124.180385 C98.2714048,125.576962 96.9956521,127.054045 95.712909,128.520626 C93.0460616,131.562296 93.217327,132.979875 96.4469037,134.733473 C101.909921,137.701638 107.37993,140.662803 113.101593,143.763976 Z M324.932464,331.801458 C326.036951,338.815849 327.120467,346.218762 328.385734,353.586672 C329.584592,360.562561 331.489483,367.398442 332.4996,374.419834 C332.772226,376.32044 333.757876,378.12304 334.481385,379.946642 C334.848383,380.870693 336.505113,381.644236 337.445326,381.35022 C338.948267,380.881194 340.447714,380.405167 341.922693,379.862637 C342.869896,379.512618 343.551463,377.867526 343.212427,376.918973 C337.791352,361.61962 334.88683,349.900967 331.19938,331.30093 C331.052581,330.558889 330.647137,329.806347 330.182273,329.197313 C329.451774,328.24176 328.413696,327.562722 327.17639,327.877739 C326.51929,328.045749 325.799276,328.591779 325.45325,329.176312 C325.093243,329.795846 325.135186,330.656894 324.932464,331.801458 Z M67.5135316,340.257929 C67.8630529,340.926467 67.9853854,341.325489 68.2370407,341.616005 C69.6595923,343.261097 70.2467881,343.485109 71.0541823,342.669564 C74.9233829,338.752846 78.7401553,334.783624 82.6408129,330.898408 C98.2679096,315.33654 113.922968,299.795674 129.567541,284.247807 C130.126775,283.694776 130.692999,283.145246 131.262719,282.602716 C132.028171,281.874675 132.143513,281.132634 131.406023,280.800115 C130.769894,280.513099 129.686378,280.212082 129.3054,280.5271 C126.579134,282.774225 124.090542,285.315367 121.322334,287.502989 C109.84755,296.568494 99.8477458,307.163585 89.7395902,317.65717 C86.188454,321.342875 82.560423,324.958577 78.9708394,328.60578 C75.12261,332.522498 71.2778759,336.432216 67.5135316,340.257929 Z M444.958073,151.530909 C445.702554,151.530909 446.530919,151.716419 447.233457,151.499407 C452.437829,149.906819 457.62123,148.244226 462.801135,146.578133 C463.667948,146.301618 464.552237,144.495517 464.244658,143.665971 C462.892011,140.015267 461.90636,136.221056 459.865156,132.846868 C459.215047,131.772308 458.155997,131.401287 456.988596,132.087325 C451.951994,135.04149 446.824517,137.869648 442.43453,141.782866 C441.885781,142.272893 441.351014,143.049936 441.263633,143.749975 C440.96654,146.126608 441.319557,148.433236 442.993764,150.28834 C443.497074,150.83437 444.280002,151.114386 444.958073,151.530909 Z M97.1040037,154.278562 C100.043478,155.454628 103.287035,156.826704 106.597002,157.99927 C107.082836,158.170779 108.117419,157.575746 108.508883,157.047217 C109.200935,156.119665 109.616866,154.982102 110.106196,153.911042 C111.165245,151.583412 110.861162,149.906819 109.02967,148.842759 C103.262569,145.493073 97.4814867,142.171387 91.6444812,138.947708 C91.1586466,138.678193 89.9038652,138.954708 89.5683248,139.399233 C87.4572162,142.22039 85.6222295,145.202556 85.6117171,148.923264 C85.6082486,149.812313 85.9472843,150.505352 86.796621,150.799368 C90.113578,151.950933 93.4480111,153.049994 97.1040037,154.278562 Z M444.776322,114.148825 C440.445754,118.433064 436.310917,122.545793 432.438221,126.907037 C433.514746,128.870646 434.430492,130.599742 435.405657,132.293837 C435.793625,132.965874 436.310917,133.567908 436.77578,134.194443 C437.646088,135.363508 439.753701,135.829034 441.004988,135.016989 C444.937102,132.472347 448.883197,129.941706 452.720941,127.257056 C453.587754,126.651522 454.035141,125.443955 454.695736,124.484902 C452.144231,120.242665 448.589599,117.235997 444.776322,114.148825 Z M230.631621,362.274157 C230.631621,352.099089 230.649097,343.457108 230.61764,334.811626 C230.610649,333.250539 230.526764,331.66145 230.219186,330.138865 C230.103844,329.564833 229.331401,328.896296 228.723234,328.707286 C227.905355,328.451771 227.185341,329.001302 226.846305,329.795846 C226.545717,330.502886 226.084349,331.244927 226.087844,331.969467 C226.10532,337.846295 225.500648,343.747624 226.727468,349.582449 C227.545348,353.474666 227.632728,357.471889 226.944171,361.304603 C225.189574,371.045646 225.818713,380.877694 225.329383,390.664239 C225.308411,391.052761 225.406277,391.444783 225.427249,391.836805 C225.486667,392.785357 227.111941,394.174935 227.817974,393.793414 C228.436627,393.460895 229.271983,392.998869 229.425772,392.435338 C229.827722,390.951255 230.054911,389.386668 230.093358,387.846582 C230.324042,378.816079 230.481327,369.778575 230.631621,362.274157 Z M39.1988122,117.544015 C41.6978894,119.269611 44.2004618,121.079212 46.8148811,122.717303 C47.2517827,122.990318 48.586954,122.717303 48.7931715,122.325281 C50.0304769,119.941648 51.1384594,117.477511 52.1066333,114.971371 C52.3373174,114.369338 52.1310998,113.266776 51.690703,112.79775 C50.1178572,111.114156 48.4191838,109.535568 46.6261396,108.093488 C46.2801135,107.816972 45.0952363,108.13199 44.6198874,108.545013 C41.9320687,110.869143 40.2368905,113.844308 39.1988122,117.544015 Z"/>
    <path fill="#000" d="M348.889649 260.438609C349.582439 269.735872 346.548856 277.91788 341.776299 285.947018 335.201787 297.012706 325.457232 303.909219 314.015691 308.78368 309.351601 310.770988 304.337617 312.018266 299.061212 311.962677 293.141001 311.90014 287.189301 312.028689 281.311078 312.63322 278.536416 312.918113 275.926205 313.345454 273.19703 312.515093 272.087866 312.178085 270.852739 312.230199 269.670097 312.167662 264.939527 311.920985 260.159971 311.990472 255.716315 309.961473 248.407024 309.930204 242.00396 306.556646 235.261498 304.45816 233.763951 303.992602 232.332884 303.301214 230.905315 302.63762 226.825548 300.747593 223.893435 297.721466 221.671606 293.837184 218.907442 289.004414 217.09499 283.747778 215.933341 278.466821 214.407802 271.542515 214.589747 264.434069 217.700307 257.711273 221.153763 250.244973 223.994904 242.521575 228.564523 235.552102 232.087958 230.177339 236.416149 225.751064 241.682057 222.179469 244.28527 220.414518 247.059932 218.903192 249.754117 217.270264 252.448303 215.637337 255.243958 214.150331 257.798185 212.329791 262.052899 209.293241 266.884939 207.521341 271.80795 206.194153 277.588203 204.637661 283.676363 204.609866 289.428624 206.069078 295.544775 207.618622 301.793886 208.466354 307.871548 210.168768 317.969496 213.000333 327.133226 217.360597 333.896681 225.556502 336.881279 229.173262 339.313044 233.248632 341.919756 237.164183 342.787493 238.467051 343.340326 239.971428 344.173075 241.298616 347.832968 247.156309 349.456477 253.496931 348.889649 260.438609zM341.849777 265.243584C341.849777 260.970179 341.867272 259.403264 341.846278 257.836348 341.776299 253.048744 341.027525 248.532137 337.745518 244.654803 336.244471 242.882903 335.404725 240.575959 334.110117 238.612972 327.192708 228.113597 318.235415 220.237328 305.681211 217.047908 303.396401 216.467698 301.094097 215.908334 298.86877 215.143985 292.108813 212.823143 284.866003 212.993385 278.02907 211.065141 276.9374 210.755927 275.621797 210.794144 274.509134 211.072089 269.533638 212.312419 264.66311 213.8029 260.404897 216.867244 257.861166 218.701682 255.086505 220.219957 252.406315 221.866781 250.062024 223.305147 247.731729 224.767833 245.352448 226.143661 238.242597 230.264197 233.704469 236.577024 230.237017 243.744533 228.193635 247.976247 226.3252 252.298293 224.530242 256.63771 223.337103 259.52139 222.245433 262.467608 221.402188 265.469415 220.439979 268.905511 220.331512 272.442362 221.465169 275.895829 222.805264 279.985096 223.991405 284.150798 225.684893 288.097618 227.602314 292.565585 230.908814 295.803645 235.705864 297.446996 242.395842 299.740043 248.98435 302.335355 256.006727 303.540941 259.887054 304.20801 263.777878 304.843809 267.616217 305.695016 273.487443 307.001358 279.442642 307.11601 285.247388 306.018127 289.173201 305.274624 293.043031 305.048793 296.979341 304.882026 300.128389 304.750003 303.3999 304.878552 306.391496 304.069037 323.130436 299.542007 334.771417 289.271936 340.831585 273.008675 341.237462 271.921215 341.436902 270.729525 341.545369 269.569105 341.779798 267.241315 341.874269 264.889204 341.849777 265.243584zM368.962816 216.940245C362.031939 217.386658 355.684458 215.276021 349.508153 212.472552 346.629603 211.165457 343.820921 209.679797 341.068134 208.122711 340.079506 207.562017 339.216639 206.637051 338.524949 205.6978 338.109236 205.129964 337.962514 204.208569 338.007928 203.46931 338.070809 202.483632 339.555498 201.43367 340.488232 201.333674 342.514395 201.115825 344.411304 201.530096 346.206904 202.437205 350.095042 204.40499 354.042567 206.197782 358.224149 207.454879 369.02919 210.70476 379.313717 209.729795 388.749351 203.237176 391.327469 201.462241 393.346646 198.851622 395.648787 196.651703 396.794617 195.555314 397.992848 194.512495 399.180599 193.458963 399.980585 192.748274 401.259164 192.876841 402.398007 193.748238 403.666106 194.719631 404.403211 196.962406 403.767414 197.969512 398.212932 206.790617 390.593858 212.99039 380.707578 215.783145 376.976642 216.840249 372.889381 216.59383 368.962816 216.940245zM182.744 226.96201C180.703502 227.222582 176.848053 226.119613 173.281586 224.363429 166.483449 221.015257 160.228036 216.764008 154.818424 211.359816 154.00434 210.545975 153.377036 209.403742 153.035191 208.297203 152.862506 207.733225 153.355891 206.733771 153.849276 206.248322 154.346185 205.762873 155.392865 205.259576 155.893298 205.477315 157.694153 206.269739 159.424523 207.272763 161.077362 208.361454 164.397137 210.553114 167.561847 212.998207 170.948581 215.075644 177.28505 218.962807 184.224154 220.629754 191.462813 218.784333 197.207221 217.320846 202.77542 215.125617 207.589445 211.359816 210.405262 209.161017 213.309184 207.047885 216.350548 205.195326 217.132915 204.717016 218.63069 205.227451 219.723185 205.552274 220.702906 205.844971 221.319637 207.861727 220.826252 208.618456 220.17428 209.61791 219.631557 210.735157 218.806899 211.563277 210.962082 219.433978 201.18954 223.660241 190.722736 226.437296 188.84435 226.940593 186.779182 226.726424 182.744 226.96201zM191.624173 260.199287C188.162854 258.560808 185.099587 256.908082 181.610577 256.523396 177.692365 256.092404 174.141051 254.357754 170.416672 253.246438 169.367893 252.93299 168.402185 252.042512 167.619927 251.19834 167.169955 250.71392 166.969199 249.784261 167.003812 249.071879 167.059193 247.928506 168.46795 246.89199 169.444042 247.023781 169.824787 247.073647 170.25399 246.924047 170.5932 247.055838 178.619998 250.126205 187.162533 251.344378 195.21356 254.311449 195.556231 254.436116 195.905824 254.749564 196.089274 255.073698 196.463096 255.736213 197.172667 256.687243 196.961526 257.12892 195.791601 259.60801 194.438225 262.001614 193.032929 264.356037 192.652184 264.990057 191.952998 265.538591 191.278041 265.848477 189.505846 266.664154 187.716344 267.697108 185.840309 267.967814 181.963632 268.530596 178.280789 269.798636 174.501029 270.699799 173.040352 271.048866 171.427378 271.283952 170.008237 270.283055 169.686334 270.055093 169.125601 269.834255 169.108294 269.574235 169.052913 268.822672 169.14983 268.03549 169.326357 267.298175 169.409429 266.956231 169.762483 266.557297 170.087847 266.418383 172.233865 265.510095 174.352192 264.434399 176.584743 263.853807 179.218806 263.173482 181.911712 262.838663 184.511163 261.869823 186.674487 261.064831 189.028184 260.787002 191.624173 260.199287zM371.973119 245C371.111348 244.87062 370.238849 244.928122 369.570171 244.586703 368.947979 244.266847 368.343666 243.601979 368.096935 242.947891 367.782263 242.11411 368.27215 241.380957 369.012344 240.913752 369.344894 240.701713 369.609505 240.288416 369.959935 240.212944 374.247339 239.256971 378.516863 238.153648 382.850752 237.481591 385.997471 236.992823 389.233584 237.01798 392.430364 237 392.952433 236.996417 393.556746 237.902076 393.967965 238.491473 394.10027 238.681949 393.79275 239.249783 393.592504 239.591202 393.402986 239.918246 393.116921 240.198569 392.82728 240.450141 392.526911 240.712494 392.205088 241.046726 391.84393 241.125791 386.394386 242.340525 381.037814 243.993712 375.491723 244.766397 374.304552 244.93531 373.09235 244.931716 371.973119 245zM180.89046 276.809737C180.25122 276.362143 179.305145 276.030057 179.060408 275.427249 178.833934 274.864147 179.297839 273.983397 179.568147 273.283129 179.7033 272.932995 180.013788 272.553984 180.346193 272.384331 184.660148 270.189677 189.145784 268.395691 193.795797 267.04569 194.445995 266.854379 195.329972 267.309192 196.067837 267.572695 197.010259 267.912001 197.276914 268.666413 196.688813 269.521895 196.024004 270.489276 195.388417 271.633529 194.438689 272.225508 190.65439 274.593425 186.355046 275.773773 182.088577 276.97217 181.730603 277.07324 181.292267 276.871101 180.89046 276.809737zM380.26852 257C377.477262 256.84559 375.551778 256.864891 373.667852 256.559931 373.082588 256.467284 372.493861 255.587146 372.109457 254.919321 371.65579 254.131829 372.708573 251.977805 373.505086 251.819535 378.429614 250.862191 383.367995 250.734802 388.323691 251.483692 389.116741 251.60336 390.3219 253.741943 389.92018 254.429069 389.525387 255.104614 389.040553 256.143023 388.507235 256.216368 385.487412 256.640996 382.439884 256.818568 380.26852 257zM373.553653 261.003946C377.094251 260.942166 380.300459 261.60012 383.188669 263.382464 383.955799 263.858168 384.182004 264.401829 383.854171 265.09994 383.382091 266.106949 382.526446 267.154114 381.483937 266.981131 377.907277 266.394224 374.281442 265.881453 370.927709 264.46052 370.196641 264.151621 369.796685 263.419532 370.104848 262.705976 370.350723 262.134514 370.934266 261.563052 371.521087 261.291221 372.147248 261.007035 372.956996 261.074992 373.553653 261.003946z"/>
    <path fill="#000" d="M283.737399,221.006723 C286.462454,221.006723 289.184064,220.989512 291.90912,221.010165 C295.939859,221.041146 299.409051,222.810462 302.854127,224.62797 C303.184855,224.800083 303.398449,225.17873 303.691281,225.433457 C305.348362,226.865433 305.465495,230.373085 303.849754,231.749985 C300.005049,235.03045 296.153454,238.293703 291.602508,240.613779 C289.876525,241.494995 288.184992,242.486363 286.620927,243.622306 C285.322134,244.56204 284.571107,245.963036 284.881164,247.660065 C286.496905,256.527301 286.827632,265.380768 284.836378,274.248004 C284.49876,275.75571 284.474645,277.335702 284.305836,278.881273 C284.085351,280.908758 284.574552,282.70217 285.928467,284.271836 C287.19281,285.741677 288.402032,287.259709 289.604364,288.781184 C290.314049,289.679611 290.176246,290.7949 289.290862,291.9274 C288.415812,293.049574 287.210036,293.335281 286.324651,292.574543 C285.153325,291.565964 284.040565,290.485097 282.862349,289.486845 C282.004525,288.76053 280.688506,288.770857 279.651538,289.421442 C278.011682,290.454117 276.3546,291.455812 274.700963,292.460949 C273.825914,292.994498 273.133454,292.815501 272.795836,291.889536 C272.544346,291.194201 272.244624,290.423137 272.320416,289.720918 C272.399652,288.991161 272.73727,288.151252 273.240251,287.62803 C277.553487,283.122125 278.759263,277.445854 279.014199,271.576818 C279.30014,264.974583 279.231239,258.355136 279.114106,251.746016 C278.986638,244.606789 279.152002,245.28147 273.322933,241.550071 C270.70812,239.877138 268.279341,237.915055 265.795441,236.042471 C263.886869,234.603611 262.694872,232.58301 261.523546,230.555525 C260.369446,228.55902 261.192819,225.45411 263.311541,224.466184 C267.194142,222.655561 271.245552,221.309641 275.565677,221.106548 C278.283843,220.979185 281.012343,221.082453 283.737399,221.082453 C283.737399,221.061799 283.737399,221.034261 283.737399,221.006723 Z"/>
  </g>
</svg>
