<svg xmlns="http://www.w3.org/2000/svg" width="307" height="786" viewBox="0 0 307 786">
  <g fill="#1A1919" fill-rule="evenodd" transform="translate(.856 .754)">
    <path d="M240.37444,785.296257 C240.13444,783.726257 239.76444,782.156257 239.67444,780.576257 C239.20444,772.116257 238.49444,763.676257 238.46444,755.189257 C238.43444,747.202257 237.86444,739.219257 237.71444,731.229257 C237.48444,719.720257 237.33444,708.206257 237.30444,696.694257 C237.25444,681.178257 237.23444,665.661257 237.42444,650.147257 C237.56444,638.155257 238.06444,626.168257 238.38444,614.178257 C238.47444,610.661257 238.61444,607.140257 238.53444,603.625257 C238.49444,601.574257 237.87444,599.529257 237.88444,597.483257 C237.89444,594.292257 238.27444,591.103257 238.39444,587.909257 C238.75444,578.326257 239.07444,568.742257 239.37444,559.158257 C239.50444,554.845257 239.58444,550.528257 239.62444,546.213257 C239.68444,539.819257 239.68444,533.426257 239.73444,527.032257 C239.78444,519.184257 240.53444,511.393257 241.47444,503.605257 C243.25444,488.692257 245.22444,473.801257 245.96444,458.774257 C246.25444,453.044257 247.30444,447.351257 247.99444,441.642257 C248.92444,434.026257 249.90444,426.415257 250.77444,418.792257 C251.80444,409.714257 254.01444,400.867257 255.89444,391.955257 C256.54444,388.830257 257.49444,385.766257 258.16444,382.643257 C258.95444,378.896257 260.00444,375.135257 260.18444,371.343257 C260.43444,366.162257 261.82444,361.260257 262.89444,356.276257 C265.72444,343.151257 268.90444,330.098257 270.62444,316.758257 C271.21444,312.166257 271.57444,307.538257 272.36444,302.981257 C273.54444,296.058257 274.71444,289.107257 276.43444,282.304257 C278.54444,273.937257 280.71444,265.615257 282.01444,257.058257 C282.94444,250.907257 284.48444,244.844257 285.84444,238.763257 C287.49444,231.444257 289.14444,224.124257 290.96444,216.846257 C292.75444,209.673257 293.26444,202.336257 294.08444,195.034257 C294.15444,194.399257 294.07444,193.736257 294.21444,193.122257 C296.13444,184.818257 295.95444,176.276257 297.09444,167.889257 C298.03444,161.036257 297.83444,154.164257 297.86444,147.293257 C297.90444,139.296257 297.98444,131.293257 297.73444,123.302257 C297.53444,117.246257 297.01444,111.185257 296.31444,105.162257 C295.36444,96.9102574 294.24444,88.6662574 292.24444,80.5852574 C291.36444,77.0252574 290.32444,73.4942574 289.14444,70.0212574 C287.96444,66.5462574 286.64444,63.1082574 285.17444,59.7462574 C282.74444,54.1712574 279.64444,48.9442574 276.20444,43.9322574 C274.30444,41.1652574 272.19444,38.5422574 270.24444,35.8102574 C267.04444,31.3242574 263.37444,27.5402574 258.07444,25.3502574 C253.81444,23.5912574 249.87444,21.0612574 245.77444,18.9132574 C241.53444,16.6922574 237.05444,15.0792574 232.52444,13.5312574 C225.23444,11.0452574 217.74444,9.43625742 210.21444,8.03625742 C207.57444,7.54525742 204.80444,7.70025742 202.09444,7.56225742 C196.35444,7.27125742 190.61444,6.89225742 184.87444,6.73725742 C182.82444,6.68225742 180.77444,7.18125742 178.72444,7.41125742 C177.77444,7.51825742 176.82444,7.66525742 175.87444,7.66125742 C167.83444,7.62425742 160.02444,8.75525742 152.24444,10.9962574 C144.87444,13.1152574 137.41444,14.9082574 130.08444,17.1922574 C123.82444,19.1442574 117.56444,21.1302574 111.85744,24.4372574 C100.38244,31.0842574 88.9254402,37.7382574 78.5184402,46.0702574 C74.0074402,49.6822574 69.5284402,53.2502574 65.8674402,57.7482574 C62.8414402,61.4662574 59.6674402,65.0762574 56.8264402,68.9312574 C53.3144402,73.6982574 50.4574402,78.8772574 48.0784402,84.3182574 C46.9284402,86.9472574 45.6474402,89.5252574 44.2974402,92.0572574 C40.6664402,98.8602574 38.1534402,106.103257 35.7914402,113.405257 C35.0044402,115.837257 34.3984402,118.328257 33.7414402,120.802257 C32.8764402,124.058257 32.8034402,128.548257 33.5494402,132.829257 C37.4254402,132.465257 40.5924402,134.147257 43.4584402,136.620257 C44.1814402,137.243257 44.9414402,137.987257 45.8124402,138.247257 C51.1594402,139.844257 54.9694402,143.831257 59.4604402,146.765257 C63.8834402,149.656257 67.9074402,153.015257 71.8854402,156.445257 C73.0594402,157.457257 74.2814402,157.927257 75.7934402,157.911257 C86.1844402,157.800257 96.5774402,157.768257 106.96744,157.560257 C108.83744,157.523257 110.74344,156.943257 112.54344,156.342257 C114.95244,155.535257 117.34444,154.610257 119.61444,153.473257 C123.04444,151.757257 126.41444,149.920257 129.68444,147.931257 C131.86444,146.608257 133.80444,144.905257 135.88444,143.418257 C141.60444,139.330257 145.37444,133.548257 149.29444,127.927257 C151.22444,125.179257 152.97444,122.300257 154.62444,119.381257 C155.46444,117.883257 156.16444,116.216257 156.52444,114.538257 C157.82444,108.453257 158.96444,102.330257 160.16444,96.2222574 C160.32444,95.4402574 160.69444,94.6562574 160.66444,93.8872574 C160.43444,89.2582574 162.41444,85.1392574 163.65444,80.8672574 C164.58444,77.6772574 166.89444,75.3422574 169.60444,73.6042574 C172.96444,71.4502574 176.48444,69.5342574 180.03444,67.6892574 C181.42444,66.9642574 183.02444,66.5482574 184.58444,66.2642574 C192.15444,64.8902574 199.77444,64.0942574 207.47444,63.9402574 C208.58444,63.9182574 209.71444,63.9712574 210.81444,63.8062574 C217.33444,62.8252574 222.16444,66.1262574 226.58444,70.1812574 C230.61444,73.8762574 233.82444,78.3172574 236.59444,82.9872574 C238.70444,86.5392574 240.32444,90.3942574 242.00444,94.1852574 C244.33444,99.4512574 246.60444,104.785257 247.41444,110.527257 C248.26444,116.531257 249.07444,122.573257 249.33444,128.622257 C249.78444,139.469257 249.84444,150.333257 249.97444,161.191257 C250.01444,164.702257 249.76444,168.218257 249.61444,171.730257 C249.41444,176.521257 249.29444,181.318257 248.92444,186.096257 C248.54444,191.027257 247.95444,195.943257 247.38444,200.857257 C246.76444,206.249257 245.97444,211.593257 245.87444,217.068257 C245.74444,224.084257 244.94444,231.098257 243.65444,238.035257 C241.81444,247.933257 239.87444,257.817257 238.35444,267.765257 C236.59444,279.296257 235.28444,290.893257 233.70444,302.452257 C232.95444,307.990257 231.91444,313.490257 231.19444,319.032257 C230.27444,326.163257 229.58444,333.326257 228.69444,340.463257 C228.04444,345.695257 227.21444,350.905257 226.51444,356.132257 C225.98444,360.088257 225.53444,364.055257 225.05444,368.019257 C224.22444,374.837257 223.37444,381.652257 222.59444,388.474257 C221.41444,398.637257 220.36444,408.816257 219.10444,418.968257 C217.96444,428.163257 216.68444,437.344257 215.29444,446.504257 C214.69444,450.443257 213.47444,454.288257 212.86444,458.225257 C211.63444,466.117257 210.58444,474.039257 209.53444,481.957257 C208.33444,490.982257 207.11444,500.006257 206.08444,509.052257 C205.49444,514.288257 205.23444,519.563257 204.87444,524.825257 C204.45444,531.043257 204.12444,537.266257 203.71444,543.484257 C203.05444,553.368257 202.44444,563.257257 201.65444,573.131257 C200.71444,584.940257 201.17444,596.774257 200.84444,608.594257 C200.68444,614.345257 200.94444,620.105257 200.94444,625.861257 C200.94444,628.256257 200.73444,630.650257 200.67444,633.045257 C200.45444,641.513257 200.27444,649.982257 200.04444,658.450257 C199.84444,666.120257 199.46444,673.788257 199.41444,681.459257 C199.31444,696.643257 199.44444,711.825257 200.78444,726.971257 C201.00444,729.512257 200.82444,732.088257 200.90444,734.643257 C201.27444,745.345257 201.59444,756.051257 202.08444,766.746257 C202.28444,770.896257 202.96444,775.016257 203.31444,779.156257 C203.48444,781.206257 203.84444,783.306257 202.93444,785.296257 C201.01444,785.296257 199.09444,785.296257 197.17444,785.296257 C196.53444,777.656257 195.85444,770.016257 195.26444,762.376257 C194.96444,758.554257 194.70444,754.724257 194.58444,750.892257 C194.17444,737.632257 194.05444,724.363257 192.80444,711.134257 C192.38444,706.691257 192.56444,702.187257 192.54444,697.712257 C192.50444,690.994257 192.24444,684.262257 192.58444,677.562257 C193.30444,663.500257 193.17444,649.434257 193.31444,635.367257 C193.41444,625.462257 193.77444,615.559257 194.01444,605.655257 C194.03444,604.538257 194.09444,603.403257 193.94444,602.303257 C192.75444,593.530257 193.47444,584.757257 193.86444,575.983257 C193.99444,573.108257 194.08444,570.230257 194.25444,567.357257 C194.59444,561.297257 195.54444,555.272257 195.31444,549.177257 C195.29444,548.542257 195.39444,547.900257 195.45444,547.263257 C195.96444,542.016257 196.74444,536.780257 196.94444,531.521257 C197.48444,516.961257 199.34444,502.527257 200.83444,488.058257 C201.30444,483.455257 202.18444,478.894257 202.87444,474.312257 C203.67444,468.941257 204.35444,463.551257 205.27444,458.200257 C206.41444,451.587257 207.79444,445.017257 208.94444,438.406257 C209.57444,434.791257 209.94444,431.132257 210.39444,427.488257 C211.68444,417.185257 212.99444,406.885257 214.21444,396.574257 C215.32444,387.216257 216.24444,377.835257 217.39444,368.481257 C218.10444,362.619257 219.15444,356.798257 219.91444,350.940257 C220.73444,344.600257 221.46444,338.247257 222.11444,331.887257 C222.73444,325.844257 223.37444,319.817257 224.48444,313.828257 C225.47444,308.492257 225.98444,303.067257 226.69444,297.679257 C228.33444,285.324257 229.84444,272.953257 231.62444,260.619257 C232.48444,254.614257 233.77444,248.666257 234.96444,242.711257 C236.87444,233.130257 238.06444,223.472257 238.49444,213.706257 C238.67444,209.558257 239.04444,205.401257 239.63444,201.292257 C240.62444,194.475257 241.38444,187.658257 241.26444,180.758257 C241.24444,179.322257 241.29444,177.866257 241.49444,176.448257 C242.82444,167.380257 242.24444,158.241257 242.46444,149.137257 C242.58444,144.519257 242.04444,139.885257 241.82444,135.257257 C241.72444,133.343257 241.66444,131.427257 241.61444,129.511257 C241.40444,121.657257 240.87444,113.791257 238.41444,106.311257 C236.32444,99.9542574 233.87444,93.6432574 230.85444,87.6832574 C228.11444,82.2822574 224.05444,77.6362574 219.54444,73.5142574 C217.76444,71.8832574 215.66444,70.9482574 213.08444,70.7622574 C210.35444,70.5652574 207.72444,70.7852574 205.03444,71.1312574 C199.49444,71.8422574 193.93444,72.3392574 188.37444,72.8212574 C185.60444,73.0612574 183.05444,73.8512574 180.66444,75.2422574 C179.70444,75.8052574 178.73444,76.3922574 177.70444,76.8282574 C171.39444,79.5192574 168.82444,84.8502574 167.98444,91.1382574 C167.15444,97.3242574 165.87444,103.390257 164.29444,109.415257 C163.84444,111.102257 163.64444,112.872257 163.51444,114.618257 C163.32444,117.393257 162.56444,119.900257 161.04444,122.270257 C156.63444,129.126257 152.32444,136.058257 147.02444,142.267257 C144.76444,144.919257 142.10444,147.311257 139.30444,149.399257 C135.59444,152.166257 131.63444,154.599257 127.68444,157.024257 C125.23444,158.525257 122.65444,159.799257 119.80444,160.460257 C118.57444,160.744257 117.40444,161.338257 116.27444,161.936257 C112.94844,163.709257 109.45644,164.356257 105.66544,164.248257 C97.5154402,164.018257 89.3554402,164.240257 81.2174402,163.463257 C79.0074402,163.252257 76.7604402,163.431257 74.6584402,163.431257 C73.4104402,165.013257 73.6994402,166.660257 73.6804402,168.222257 C73.5524402,179.233257 74.0114402,177.441257 68.5314402,188.264257 C66.8034402,191.677257 65.2964402,195.281257 63.0584402,198.336257 C59.5944402,203.066257 56.6314402,208.180257 51.8114402,211.929257 C47.4154402,215.348257 43.4364402,219.361257 39.6064402,223.427257 C37.6784402,225.474257 36.4654402,228.204257 34.9854402,230.659257 C34.7604402,231.033257 34.7974402,231.590257 34.7824402,232.065257 C34.5024402,241.240257 35.1094402,250.293257 38.8034402,258.861257 C39.5174402,260.516257 39.8884402,262.166257 39.9054402,263.955257 C39.9344402,267.150257 40.3004402,270.361257 40.0824402,273.535257 C39.7884402,277.831257 38.3264402,278.057257 35.4794402,278.475257 C33.2084402,278.808257 31.0064402,278.762257 28.8414402,278.084257 C23.8614402,276.526257 19.8014402,273.630257 16.0234402,270.009257 C9.54444019,263.797257 6.15144019,255.873257 3.40144019,247.727257 C1.17244019,241.123257 -0.377559811,234.311257 0.0804401887,227.070257 C0.635440189,218.307257 0.320440189,209.489257 0.366440189,200.694257 C0.381440189,197.811257 0.572440189,194.976257 1.22144019,192.132257 C1.82244019,189.499257 1.91744019,186.752257 2.24844019,184.056257 C2.42344019,182.635257 2.46844019,181.174257 2.84244019,179.805257 C4.27444019,174.567257 5.81844019,169.360257 7.31644019,164.140257 C9.41044019,156.844257 13.1124402,150.270257 16.8684402,143.778257 C19.5144402,139.205257 23.0824402,135.263257 28.0034402,132.442257 C28.0034402,130.731257 28.0974402,128.988257 27.9824402,127.259257 C27.7754402,124.183257 28.2074402,121.219257 29.0404402,118.262257 C31.2514402,110.417257 33.4334402,102.565257 36.7504402,95.0932574 C37.6574402,93.0512574 38.6954402,91.0672574 39.6734402,89.0572574 C40.4414402,87.4782574 41.3394402,85.9472574 41.9584402,84.3122574 C45.5554402,74.8152574 50.3014402,66.0092574 57.2024402,58.4682574 C57.3104402,58.3502574 57.4214402,58.2312574 57.5074402,58.0972574 C62.7794402,49.8602574 70.2134402,43.9202574 77.9094402,38.0762574 C88.6524402,29.9192574 100.21544,23.1632574 111.93344,16.6162574 C116.42444,14.1102574 121.36444,12.7032574 126.23444,11.1332574 C129.12444,10.2012574 131.99444,9.20025742 134.90444,8.35125742 C138.11444,7.41325742 141.37444,6.60325742 144.61444,5.75725742 C146.47444,5.27225742 148.37444,4.94925742 150.19444,4.33825742 C155.67444,2.48925742 161.29444,1.39125742 167.02444,0.676257423 C170.53444,0.239257423 173.99444,-0.174742577 177.49444,0.628257423 C178.09444,0.767257423 178.77444,0.822257423 179.37444,0.712257423 C186.21444,-0.530742577 193.06444,0.189257423 199.92444,0.388257423 C207.94444,0.622257423 215.79444,1.91325742 223.61444,3.50925742 C225.63444,3.92325742 227.62444,4.56025742 229.61444,5.13525742 C230.53444,5.39925742 231.41444,5.79925742 232.33444,6.06925742 C242.02444,8.92725742 251.11444,13.1752574 259.87444,18.1732574 C260.84444,18.7272574 261.82444,19.2852574 262.84444,19.7362574 C267.79444,21.9242574 271.74444,25.2732574 274.85444,29.7112574 C277.41444,33.3722574 280.44444,36.7342574 282.79444,40.5242574 C286.90444,47.1652574 291.35444,53.6512574 293.66444,61.2692574 C294.86444,65.2352574 296.46444,69.0802574 297.74444,73.0272574 C300.35444,81.1172574 301.61444,89.4982574 302.85444,97.8782574 C302.99444,98.8262574 303.13444,99.7752574 303.30444,100.718257 C304.09444,104.964257 304.36444,109.260257 304.76444,113.554257 C305.75444,124.097257 305.19444,134.631257 305.10444,145.170257 C305.08444,148.041257 305.19444,150.915257 305.30444,153.786257 C305.52444,159.557257 304.99444,165.280257 304.27444,170.993257 C304.11444,172.260257 304.09444,173.542257 303.97444,174.815257 C303.55444,179.268257 303.25444,183.737257 302.67444,188.171257 C301.81444,194.824257 300.82444,201.463257 299.76444,208.090257 C299.16444,211.871257 298.41444,215.635257 297.58444,219.372257 C295.83444,227.164257 293.98444,234.931257 292.18444,242.710257 C292.03444,243.332257 291.96444,243.973257 291.77444,244.584257 C290.08444,250.267257 289.21444,256.108257 288.20444,261.938257 C287.11444,268.227257 285.67444,274.475257 284.02444,280.643257 C281.54444,289.926257 279.81444,299.322257 278.61444,308.845257 C277.08444,320.898257 275.30444,332.908257 272.36444,344.728257 C270.51444,352.167257 268.97444,359.687257 267.45444,367.204257 C266.86444,370.165257 266.84444,373.238257 266.33444,376.222257 C265.63444,380.310257 264.90444,384.408257 263.86444,388.421257 C259.79444,404.255257 257.26444,420.342257 255.62444,436.592257 C254.99444,442.793257 254.03444,448.961257 253.25444,455.146257 C253.07444,456.571257 252.89444,458.010257 252.89444,459.441257 C252.91444,464.893257 252.05444,470.264257 251.50444,475.666257 C251.07444,479.959257 250.71444,484.260257 250.24444,488.549257 C249.43444,496.012257 248.51444,503.466257 247.73444,510.933257 C247.36444,514.428257 247.13444,517.943257 247.00444,521.455257 C246.74444,528.480257 246.59444,535.511257 246.41444,542.540257 C246.38444,543.655257 246.43444,544.773257 246.47444,545.889257 C246.51444,547.328257 246.66444,548.766257 246.63444,550.203257 C246.47444,559.792257 246.38444,569.384257 246.06444,578.968257 C245.80444,586.474257 245.11444,593.967257 244.86444,601.473257 C244.48444,612.822257 244.37444,624.178257 244.06444,635.528257 C243.91444,640.800257 243.39444,646.063257 243.36444,651.333257 C243.28444,663.325257 243.42444,675.317257 243.42444,687.309257 C243.43444,698.346257 243.37444,709.383257 243.38444,720.420257 C243.38444,722.654257 243.52444,724.889257 243.65444,727.122257 C243.81444,729.836257 244.11444,732.544257 244.19444,735.260257 C244.49444,745.325257 244.66444,755.393257 245.00444,765.456257 C245.19444,770.886257 245.57444,776.316257 245.95444,781.736257 C246.06444,783.346257 245.68444,784.546257 244.21444,785.296257 C242.93444,785.296257 241.65444,785.296257 240.37444,785.296257"/>
    <path d="M134.24444,87.5672574 C133.54444,90.6192574 132.98444,93.0982574 132.36444,95.8022574 C134.07444,96.0742574 135.79444,96.2902574 137.48444,96.6352574 C138.84444,96.9122574 139.52444,97.8932574 139.63444,99.4172574 C139.73444,100.831257 139.05444,102.094257 137.66444,102.277257 C135.30444,102.586257 132.90444,102.599257 130.52444,102.711257 C129.66444,102.751257 128.80444,102.717257 127.28444,102.717257 C128.09444,103.499257 128.34444,103.935257 128.69444,104.050257 C132.44444,105.263257 135.44444,107.608257 138.28444,110.217257 C139.44444,111.287257 139.64444,112.047257 139.11444,113.120257 C138.33444,114.704257 137.14444,115.572257 135.76444,115.249257 C134.70444,115.001257 133.65444,114.538257 132.73444,113.953257 C131.52444,113.186257 130.48444,112.165257 129.32444,111.322257 C125.86444,108.813257 122.26444,109.012257 118.48444,110.653257 C118.46444,112.666257 119.55444,114.097257 120.23444,115.674257 C121.24444,118.016257 122.29444,120.345257 123.16444,122.738257 C123.71444,124.261257 123.24444,125.198257 121.93444,125.959257 C120.49444,126.803257 118.86444,126.817257 117.99444,125.717257 C117.11444,124.605257 116.42444,123.317257 115.79444,122.038257 C114.60444,119.627257 113.51344,117.167257 112.32844,114.613257 C110.14744,115.271257 108.19044,115.862257 105.96944,116.533257 C105.96944,120.007257 105.96944,123.478257 105.96944,126.817257 C105.35144,127.285257 105.02144,127.698257 104.60444,127.824257 C101.56444,128.747257 99.3814402,127.438257 99.1764402,124.504257 C99.0104402,122.135257 99.0164402,119.754257 98.9414402,117.220257 C96.5314402,116.762257 94.3704402,116.352257 92.3754402,115.973257 C91.1404402,114.793257 91.1564402,113.542257 91.6504402,112.301257 C92.1704402,110.996257 93.3294402,110.483257 94.6414402,110.182257 C96.7804402,109.692257 99.0074402,109.705257 100.92844,108.198257 C102.41844,107.030257 103.91144,108.442257 105.52844,109.255257 C106.97544,108.449257 108.52744,107.665257 109.99944,106.752257 C114.23044,104.124257 117.85444,100.727257 121.32444,97.2212574 C124.32444,94.1902574 125.95444,90.3992574 125.98444,86.0042574 C125.99444,83.7732574 126.18444,81.5382574 126.38444,79.3132574 C126.53444,77.7152574 127.20444,77.1332574 128.83444,76.9462574 C131.85444,76.5992574 132.39444,76.9062574 134.48444,80.2222574 C136.77444,80.0002574 139.12444,79.7112574 141.48444,79.5712574 C142.58444,79.5062574 143.74444,79.5602574 144.78444,79.8642574 C146.31444,80.3122574 147.17444,81.8832574 147.13444,83.6402574 C147.10444,85.0132574 146.58444,85.7402574 144.78444,86.2142574 C142.94444,86.6982574 141.05444,87.0062574 139.16444,87.2542574 C137.60444,87.4592574 136.02444,87.4622574 134.24444,87.5672574"/>
  </g>
</svg>
