<svg xmlns="http://www.w3.org/2000/svg" width="447" height="688" viewBox="0 0 447 688">
  <g fill="none" fill-rule="evenodd" transform="translate(.69 .426)">
    <path fill="#D7A9FF" d="M180.970026,264.83038 C179.690026,264.83038 178.400026,264.74938 177.130026,264.84538 C173.890026,265.09338 171.130026,263.86338 168.720026,261.94538 C165.850026,259.66238 163.180026,257.13238 160.430026,254.69738 C155.100026,249.97238 152.300026,243.73138 150.000026,237.20438 C149.580026,236.00838 149.390026,234.73238 149.050026,233.50738 C148.730026,232.37638 148.830026,231.32038 149.310026,230.24838 C154.820026,218.00638 158.320026,205.01138 163.390026,192.60638 C165.500026,187.43538 167.780026,182.33138 170.010026,177.20938 C170.330026,176.48538 170.750026,175.78738 171.240026,175.16638 C171.550026,174.77038 172.140026,174.72038 172.440026,175.21238 C173.920026,177.66738 175.260026,180.21238 176.820026,182.61238 C180.890026,188.84438 186.360026,193.81738 191.920026,198.60338 C195.050026,201.29538 199.090026,202.76538 203.100026,203.94438 C204.660026,204.40238 206.260026,204.36338 207.840026,203.91838 C209.540026,203.43638 210.880026,202.37038 210.590026,201.71838 C210.050026,200.50638 208.830026,200.41138 207.760026,200.20838 C203.970026,199.49138 200.410026,198.18238 197.060026,196.26438 C195.810026,195.54838 194.590026,194.83438 193.560026,193.78938 C189.740026,189.91838 185.710026,186.23738 182.100026,182.18338 C179.360026,179.10638 176.860026,175.73938 175.570026,171.69038 C173.200026,169.31138 173.980026,166.95538 175.370026,164.38038 C178.260026,159.04038 180.820026,153.53838 182.880026,147.81038 C183.140026,147.07038 183.610026,146.39738 184.020026,145.71838 C184.360026,145.15938 185.320026,145.16738 185.580026,145.75838 C188.960026,153.35038 195.320026,158.25738 201.530026,163.23438 C203.860026,165.10838 206.720026,166.34038 209.360026,167.83138 C210.640026,168.55238 212.030026,168.81338 213.510026,168.77138 C214.950026,168.73038 216.390026,168.82138 217.830026,168.79138 C221.600026,168.70938 222.260026,168.96538 221.540026,173.35438 C220.430026,180.09638 219.170026,186.80138 217.300026,193.41538 C215.490026,199.83038 214.490026,206.47338 213.070026,213.00038 C211.650026,219.52838 210.150026,226.04338 208.640026,232.55138 C208.200026,234.42138 208.040026,236.35438 207.850026,238.21838 C207.380026,242.67838 205.740026,246.88438 205.370026,251.33438 C205.290026,252.33438 204.990026,253.20038 204.300026,253.93038 C200.680026,257.79838 196.950026,261.42438 191.810026,263.38238 C188.240026,264.73938 184.650026,264.82838 180.970026,264.83038"/>
    <path fill="#D7A9FF" d="M239.960026,97.6953801 C239.880026,98.4863801 239.920026,99.3083801 239.710026,100.06438 C236.170026,113.11338 232.830026,126.21638 228.940026,139.17538 C226.890026,146.02338 225.410026,153.04338 223.730026,160.00038 C223.430026,161.22238 223.710026,162.72338 222.470026,163.45538 C221.100026,164.25938 219.540026,164.81038 217.910026,164.63838 C212.770026,164.09738 207.950026,162.75138 203.920026,159.20338 C201.300026,156.89138 198.420026,154.86938 195.700026,152.65338 C193.460026,150.81838 191.470026,148.58838 190.180026,146.09538 C188.360026,142.60738 186.940026,138.91938 189.520026,134.85238 C191.730026,131.37038 193.310026,127.49438 195.240026,123.82738 C196.570026,121.28438 198.060026,118.82138 199.400026,116.28438 C200.450026,114.30938 201.610026,112.35238 202.330026,110.25438 C205.310026,101.60138 209.790026,93.6753801 214.110026,85.6773801 C215.150026,83.7623801 215.540026,81.4203801 217.550026,80.0893801 C218.670026,80.3623801 218.800026,81.4493801 219.270026,82.2413801 C220.490026,84.2983801 221.630026,86.4053801 222.870026,88.4463801 C226.780026,94.8493801 232.460026,98.0213801 240.000026,97.7313801 L239.960026,97.6953801"/>
    <path fill="#D7A9FF" d="M240.000026,97.7313801 C240.010026,96.4353801 240.080026,95.1973801 238.400026,94.6973801 C236.730026,94.1983801 235.140026,93.4033801 233.480026,92.8483801 C230.630026,91.8933801 228.460026,90.0403801 226.840026,87.6113801 C224.360026,83.9073801 222.070026,80.0973801 220.400026,75.9213801 C219.870026,74.5753801 219.890026,73.5023801 220.590026,72.3213801 C224.230026,66.1513801 227.820026,59.9473801 231.510026,53.8063801 C235.940026,46.4343801 240.830026,39.3573801 245.750026,32.3043801 C246.020026,31.9133801 246.240026,31.4643801 246.570026,31.1323801 C247.670026,30.0293801 248.650026,27.9213801 250.150026,28.3403801 C252.230026,28.9233801 251.390026,31.3003801 251.460026,32.9443801 C251.720026,38.8543801 250.880026,44.6453801 249.930026,50.4833801 C248.930026,56.6013801 246.930026,62.5233801 246.520026,68.7453801 C246.430026,70.1533801 245.290026,70.4973801 244.160026,69.6643801 C240.530026,66.9963801 237.430026,63.8593801 235.230026,59.8873801 C234.770026,59.0533801 234.210026,58.2653801 233.630026,57.5073801 C233.240026,56.9903801 232.650026,56.5873801 231.980026,56.8043801 C231.180026,57.0643801 230.650026,57.6903801 230.600026,58.5643801 C230.570026,59.0243801 230.590026,59.5693801 230.810026,59.9473801 C232.970026,63.6403801 234.750026,67.5943801 238.470026,70.1483801 C240.310026,71.4063801 241.970026,72.9163801 243.690026,74.3363801 C244.500026,75.0013801 244.740026,75.8803801 244.540026,76.9103801 C243.280026,83.4563801 242.040026,90.0053801 240.750026,96.5463801 C240.660026,96.9643801 240.230026,97.3143801 239.960026,97.6953801 L240.000026,97.7313801"/>
    <path fill="#FFFEFE" d="M204.980026 242.42538C200.040026 243.18038 196.180026 242.10138 192.230026 240.56738 184.820026 237.69738 178.480026 233.26438 172.470026 228.25438 169.640026 225.89538 167.750026 222.69938 165.460026 219.85138 163.720026 217.68938 162.440026 215.40838 161.640026 212.78538 161.100026 211.05538 161.160026 209.31638 161.350026 207.57938 161.420026 207.00438 161.830026 206.43138 162.190026 205.93538 162.630026 205.33738 163.830026 205.47738 164.290026 206.03738 164.950026 206.83838 165.080026 207.78138 165.040026 208.73338 164.940026 211.27638 165.950026 213.56638 167.450026 215.34538 170.300026 218.72338 172.820026 222.33938 176.440026 225.15638 180.090026 227.99938 183.720026 230.79338 187.710026 233.12838 189.640026 234.25638 191.630026 235.23338 193.710026 236.04738 197.560026 237.54738 201.130026 239.54838 204.980026 242.42538M207.360026 103.79638C207.610026 103.96338 207.990026 104.07538 208.090026 104.30638 208.460026 105.18338 208.800026 106.08338 209.050026 107.00238 210.200026 111.26238 212.670026 114.73038 215.530026 117.98438 219.030026 121.96338 223.620026 124.08038 228.550026 125.51038 230.470026 126.06838 230.780026 127.56638 229.330026 129.03338 228.190026 130.19338 226.970026 130.37738 225.430026 129.84438 219.410026 127.75838 214.240026 124.56438 210.720026 119.07938 208.830026 116.14138 206.840026 113.25738 205.800026 109.87438 205.270026 108.16338 205.130026 106.42438 205.860026 104.75138 206.100026 104.21038 206.580026 103.67838 207.360026 103.79638"/>
    <path fill="#1A1919" d="M229.910026 194.65438C228.600026 192.17638 226.880026 190.56638 223.870026 190.31438 222.860026 192.46138 222.020026 194.51638 222.500026 197.38138 224.940026 195.78438 227.720026 196.44438 229.910026 194.65438zM110.220026 221.64038C107.900026 225.01638 105.770026 227.60138 104.240026 230.50138 102.620026 233.54738 99.1300263 235.20338 98.0900263 239.04838 100.520026 239.46838 102.670026 239.91238 104.850026 240.18538 105.720026 240.29438 106.630026 240.02438 107.630026 239.91538 107.910026 236.83738 108.070026 233.98538 108.450026 231.16338 108.850026 228.24338 110.150026 225.47638 110.220026 221.64038zM150.760026 215.90038C150.820026 215.06338 151.090026 214.35738 150.860026 213.92738 150.110026 212.54338 149.010026 211.33238 148.330026 209.91938 147.490026 208.17738 146.140026 207.17238 144.420026 206.66338 137.310026 204.56338 130.540026 205.11838 124.320026 209.46738 116.060026 215.25038 112.260026 223.62638 110.660026 233.23138 110.490026 234.20738 110.240026 235.51138 111.680026 236.07938 112.510026 233.13938 113.070026 230.15438 114.210026 227.40638 116.460026 221.94438 125.700026 215.02538 131.640026 214.32938 135.260026 213.90338 138.950026 213.78038 142.600026 214.46938 145.220026 214.96438 147.850026 215.39238 150.760026 215.90038zM112.490026 217.38538C113.550026 216.01438 114.540026 214.58338 115.700026 213.29038 116.970026 211.86038 118.380026 210.55138 119.740026 209.20338 126.890026 202.12038 135.540026 200.66438 145.010026 202.68838 147.900026 203.30538 150.380026 204.74538 151.460026 207.81938 151.640026 208.35538 151.790026 209.10838 152.950026 208.88838 155.100026 203.10438 157.300026 197.19638 159.490026 191.31738 158.290026 190.03738 157.290026 189.01138 156.340026 187.93938 154.310026 185.64638 151.740026 184.73038 148.730026 184.43238 143.650026 183.93038 138.870026 184.44338 134.530026 187.39838 133.350026 188.20538 131.910026 188.66438 130.810026 189.56238 128.980026 191.06938 127.210026 192.69838 125.620026 194.46538 123.920026 196.36338 122.550026 198.55638 120.880026 200.48338 116.650026 205.36838 113.880026 211.01238 112.490026 217.38538zM108.030026 247.71938C107.520026 245.68538 106.030026 245.51638 104.610026 245.29338 100.980026 244.72338 97.2900263 244.31438 93.9800263 242.60338 90.0000263 240.54738 85.7700263 240.20938 81.4200263 240.25838 79.7900263 240.27738 78.7000263 241.01338 77.8600263 242.28438 76.1500263 244.87438 75.3500263 247.78738 74.9200263 250.81638 74.5600263 253.39938 74.8000263 255.72938 76.3400263 258.10938 77.8100263 260.37938 79.1500263 262.71538 80.9000263 264.80438 83.4600263 267.86238 85.8300263 271.07838 88.4400263 274.09638 91.1900263 277.28738 91.8600263 280.80538 90.7500263 284.78938 90.5000263 285.68738 90.3900263 286.64438 90.3600263 287.58038 90.0600263 294.88038 91.6100263 301.85338 94.1400263 308.64938 94.3500263 309.23438 94.5500263 309.87638 95.5900263 309.42038 95.6600263 303.59538 95.7300263 297.69638 95.8100263 291.79838 95.8800263 286.85038 95.7400263 281.88538 97.2600263 277.07538 98.7500263 272.35638 100.210026 267.63038 101.640026 262.89338 102.930026 258.60138 104.450026 254.41538 106.750026 250.53838 107.320026 249.59438 107.670026 248.52838 108.030026 247.71938zM29.9400263 641.56438C36.0000263 635.85038 39.6800263 628.57438 44.0200263 621.75238 44.2700263 621.36238 44.3300263 620.84838 44.4500263 620.38738 46.5200263 613.01638 49.1000263 605.79138 50.3200263 598.18538 51.3500263 591.72238 52.7000263 585.31038 53.7200263 578.84638 54.9000263 571.39938 54.7300263 563.86438 54.6200263 556.36338 54.4500263 544.22938 54.0600263 532.09738 53.6900263 519.96738 53.6100263 517.41838 53.2700263 514.87638 53.0000263 512.33538 52.9500263 511.78138 52.7100263 511.24638 52.4800263 510.44038 51.8300263 510.96838 51.3800263 511.18438 51.1500263 511.53938 48.4600263 515.70338 46.1100263 520.04138 44.4300263 524.73638 41.9600263 531.66438 39.5200263 538.61638 38.9000263 545.99538 38.5100263 550.59938 38.5300263 555.24238 38.4200263 559.86938 38.1400263 571.03838 38.7200263 582.20938 37.7300263 593.38338 36.7100263 605.02138 35.1500263 616.53838 32.4500263 627.90538 31.3800263 632.37938 30.1200263 636.82338 29.9400263 641.56438zM85.2600263 278.65138C81.2500263 279.58638 78.5700263 281.31938 76.6800263 284.08938 71.5900263 291.55038 68.8600263 299.75038 68.9000263 308.84038 68.9300263 314.43338 68.8400263 320.02738 68.7500263 325.61938 68.7100263 327.73938 69.0800263 329.72138 69.9600263 331.66238 71.4800263 335.02238 72.3900263 338.56638 73.0800263 342.19938 73.7600263 345.80238 74.9400263 349.26538 76.3000263 352.70738 78.2800263 357.74838 79.9500263 362.93638 81.4300263 368.15138 82.2500263 371.03138 83.2000263 373.94938 83.0800263 377.05538 83.0500263 377.78438 82.9500263 378.92538 84.1100263 379.30038 86.2900263 374.72438 88.3900263 370.26238 90.5300263 365.82038 91.0400263 364.76738 91.3000263 363.77438 90.8400263 362.61538 90.1700263 360.88338 90.6300263 359.14438 91.0300263 357.43038 91.7900263 354.16738 92.5900263 350.91338 93.3400263 347.64838 93.6300263 346.40838 94.0400263 345.15138 94.0500263 343.90038 94.0900263 334.60638 93.5900263 325.39138 90.4900263 316.47738 88.8200263 311.65738 87.5000263 306.71138 86.0600263 301.81038 85.1000263 298.57238 84.6900263 295.30338 85.0000263 291.88238 85.3900263 287.60638 85.6200263 283.29838 85.2600263 278.65138zM83.3300263 493.61138C83.6300263 493.66938 83.9200263 493.72538 84.2100263 493.78338 84.4200263 493.21538 84.7100263 492.66238 84.8400263 492.07538 86.2900263 485.68938 87.7400263 479.30338 89.1500263 472.90738 90.0400263 468.82238 90.2700263 464.68038 90.0700263 460.50538 90.0000263 458.91138 90.1000263 457.30938 90.0700263 455.71238 89.9000263 445.97438 90.7600263 436.20338 88.9200263 426.51838 88.5300263 424.46238 88.1100263 422.52838 87.0800263 420.65738 83.1400263 413.49038 81.2300263 405.84938 81.8900263 397.60338 82.1100263 394.76238 81.9200263 391.88938 81.9200263 389.76238 80.8200263 387.98538 79.6200263 386.87438 79.4400263 385.62038 79.0800263 383.00038 77.5300263 380.48338 78.5900263 377.68038 78.7800263 377.15738 78.5400263 376.41738 78.3700263 375.81538 77.2300263 371.83338 76.1300263 367.83538 74.8600263 363.89238 72.9400263 357.96438 70.9100263 352.07338 68.8900263 346.18138 68.7700263 345.83138 68.2600263 345.61338 67.9400263 345.33338 62.8300263 351.31138 61.6500263 356.76238 61.4800263 363.52838 61.3900263 367.04438 61.6000263 370.56838 61.4500263 374.08038 61.1000263 382.13038 61.8600263 389.99638 64.2900263 397.73338 65.3300263 401.06638 65.6100263 404.63138 66.3500263 408.06838 68.2400263 416.84538 72.4700263 424.86338 74.6500263 433.54938 77.0000263 437.61538 78.0100263 442.17338 79.3200263 446.60138 80.5300263 450.72938 81.7600263 454.92538 82.2600263 459.17638 83.3500263 468.54538 83.8300263 477.96938 83.3500263 487.41838 83.2500263 489.47738 83.3300263 491.54738 83.3300263 493.61138zM59.6500263 581.31638C60.5100263 580.21338 61.4300263 579.14938 62.2100263 577.99838 63.3000263 576.42038 64.4600263 574.86138 65.2700263 573.14238 67.7900263 567.78338 69.8000263 562.24038 70.7600263 556.35438 71.0700263 554.46538 71.5700263 552.60938 71.9200263 550.72538 73.6100263 541.46138 75.3100263 532.19638 76.9500263 522.92138 77.3400263 520.72338 77.5800263 518.49038 77.7400263 516.26238 78.0700263 511.32538 78.3400263 506.38138 78.5900263 501.43738 79.2400263 488.83738 79.5600263 476.28038 77.7300263 463.69438 76.4700263 455.07438 73.8100263 446.90838 71.0600263 438.76438 69.7900263 435.00038 68.3500263 431.28738 67.1900263 427.46938 66.3500263 424.72938 65.1800263 422.09038 64.1100263 419.42338 63.8300263 418.71438 63.3800263 418.07138 62.9500263 417.29838 62.6100263 417.74938 62.3500263 417.95538 62.2800263 418.21338 59.9600263 427.18038 57.6800263 436.15138 57.6900263 445.51938 57.7000263 451.11138 57.5200263 456.70338 57.4900263 462.29638 57.4100263 474.43938 57.2400263 486.58538 57.3700263 498.72738 57.4200263 503.66038 58.2600263 508.58038 58.5300263 513.51638 58.9200263 520.69238 59.1200263 527.87838 59.3900263 535.05938 59.9700263 550.37738 60.2100263 565.69238 59.6500263 581.31638zM88.8700263 414.58838C89.3500263 412.41338 89.6300263 410.84838 90.0500263 409.32438 91.2800263 404.86138 92.7700263 400.46238 93.7800263 395.95138 95.4800263 388.34238 98.8000263 381.40838 102.860026 374.92938 109.660026 364.10238 116.970026 353.59538 124.070026 342.96538 126.030026 340.04338 128.010026 337.13138 130.050026 334.26838 138.080026 323.02538 140.500026 310.09038 141.490026 296.70738 142.020026 289.50538 140.920026 282.35038 140.900026 275.16438 140.890026 274.05538 140.630026 272.94538 140.470026 271.83938 139.310026 263.76038 138.400026 255.67638 139.080026 247.48438 139.270026 245.19638 139.580026 242.92938 141.070026 241.20038 142.800026 239.17238 143.590026 236.80038 144.410026 234.38038 145.660026 230.75438 147.010026 227.16738 148.240026 223.53638 148.630026 222.38738 148.760026 221.15238 149.050026 219.77538 147.970026 219.50338 147.220026 219.17938 146.470026 219.14838 142.640026 218.98938 138.810026 218.92938 134.980026 218.78738 132.310026 218.68738 129.890026 219.52838 127.740026 220.95638 125.490026 222.45638 123.400026 224.21038 121.330026 225.96538 119.450026 227.56238 118.260026 229.62538 117.860026 232.09638 117.170026 236.34738 116.430026 240.59138 115.810026 244.85238 115.680026 245.76838 115.860026 246.75538 116.020026 247.68638 117.720026 257.28338 119.420026 266.88038 121.180026 276.46538 121.610026 278.81838 122.070026 281.20238 122.870026 283.44638 124.770026 288.79638 125.350026 294.31938 125.570026 299.93238 125.750026 304.47638 124.950026 308.84338 123.480026 313.11238 123.010026 314.47138 122.470026 315.80538 121.960026 317.14738 118.160026 327.00638 114.040026 336.69738 107.930026 345.42338 104.630026 350.13538 101.420026 354.92338 98.4500263 359.84938 95.4900263 364.77138 92.6600263 369.80038 90.1700263 374.97438 85.5900263 384.47338 84.8300263 394.64538 85.8100263 404.97538 86.1000263 408.10738 86.7300263 411.26938 88.8700263 414.58838zM250.200026 28.2213801C248.160026 28.7573801 247.090026 30.3663801 246.010026 31.9233801 244.460026 34.1543801 242.960026 36.4233801 241.490026 38.7063801 236.990026 45.6893801 232.430026 52.6413801 228.040026 59.6963801 225.430026 63.8983801 223.080026 68.2643801 220.630026 72.5713801 220.250026 73.2493801 219.990026 74.0013801 219.560026 74.9873801 221.900026 79.0883801 224.240026 83.2483801 226.650026 87.3683801 228.060026 89.7893801 230.090026 91.5643801 232.730026 92.5693801 234.660026 93.3073801 236.630026 93.9753801 238.570026 94.7003801 239.370026 95.0013801 240.100026 95.6383801 239.790026 96.4563801 239.560026 97.0583801 238.740026 97.5613801 238.070026 97.8233801 237.530026 98.0343801 236.800026 97.9023801 236.190026 97.7763801 230.980026 96.6953801 226.630026 94.2073801 223.640026 89.6983801 222.230026 87.5733801 220.980026 85.3373801 219.660026 83.1513801 219.020026 82.0943801 218.380026 81.0373801 217.590026 79.7243801 216.840026 80.8453801 216.240026 81.5943801 215.810026 82.4313801 212.880026 88.1063801 209.970026 93.7933801 207.080026 99.4923801 205.780026 102.05638 204.500026 104.63438 203.300026 107.24538 201.910026 110.28738 200.740026 113.44338 199.230026 116.42338 195.970026 122.83438 192.520026 129.14838 189.230026 135.54038 188.670026 136.63338 188.120026 137.94238 188.190026 139.11338 188.390026 142.49538 189.170026 145.72238 191.600026 148.36238 196.720026 153.91738 202.250026 158.88838 208.930026 162.58038 213.440026 165.07638 217.990026 164.85638 222.830026 164.05438 223.130026 162.91038 223.400026 162.00338 223.610026 161.08238 224.460026 157.34438 225.160026 153.56638 226.160026 149.86938 230.280026 134.59838 234.390026 119.32538 238.700026 104.10738 240.920026 96.2473801 242.590026 88.2893801 243.900026 80.2423801 244.160026 78.6903801 244.430026 77.1383801 244.700026 75.5153801 242.370026 73.5273801 240.240026 71.6023801 237.990026 69.8283801 235.150026 67.5903801 233.240026 64.6563801 231.560026 61.5583801 231.120026 60.7563801 230.860026 59.7283801 230.930026 58.8333801 230.970026 58.1953801 231.590026 57.4443801 232.170026 57.0703801 232.430026 56.9013801 233.410026 57.3803801 233.710026 57.8113801 235.110026 59.7563801 236.410026 61.7763801 237.700026 63.7953801 239.200026 66.1573801 241.540026 67.6093801 243.670026 69.2773801 244.230026 69.7143801 244.950026 69.9453801 245.790026 70.3693801 246.140026 69.4533801 246.440026 68.8933801 246.560026 68.2963801 247.570026 63.2853801 248.540026 58.2643801 249.540026 53.2513801 250.850026 46.6503801 251.720026 40.0063801 251.480026 33.2563801 251.410026 31.5393801 251.650026 29.7273801 250.200026 28.2213801zM171.910026 174.38838C171.380026 175.00538 171.000026 175.29238 170.830026 175.67338 165.830026 187.08938 160.890026 198.53038 156.930026 210.36738 155.510026 214.60338 153.920026 218.78438 152.360026 222.97338 151.420026 225.52038 150.310026 228.00738 149.430026 230.57738 149.090026 231.57638 148.940026 232.78738 149.160026 233.80338 150.390026 239.47938 152.680026 244.74138 155.770026 249.65138 156.350026 250.58938 157.050026 251.48938 157.850026 252.25438 160.270026 254.58038 162.800026 256.79138 165.220026 259.11938 169.960026 263.67338 175.310026 265.81138 182.130026 265.36638 190.630026 264.81138 197.500026 261.49138 203.300026 255.55538 204.150026 254.68738 204.870026 253.47938 205.160026 252.30838 205.950026 249.06238 206.490026 245.75538 207.130026 242.46838 208.700026 234.31638 210.110026 226.12938 211.870026 218.01638 214.200026 207.24938 216.880026 196.55638 219.260026 185.79738 220.290026 181.12238 220.970026 176.36638 221.730026 171.63438 221.860026 170.78938 221.620026 169.88238 221.550026 168.92738 220.580026 169.01638 219.950026 169.08338 219.320026 169.12938 214.070026 169.51238 209.310026 168.41238 204.740026 165.51738 201.050026 163.18238 197.800026 160.39938 194.610026 157.52838 192.380026 155.51838 190.490026 153.09238 188.630026 150.71238 187.220026 148.90038 186.090026 146.86738 184.650026 144.65838 180.740026 153.13438 177.000026 161.23438 173.110026 169.67938 174.740026 170.19438 175.410026 171.27738 175.990026 172.65638 176.920026 174.84038 178.130026 176.97038 179.570026 178.85738 181.990026 182.02838 184.580026 185.08738 187.280026 188.02138 192.790026 193.99638 198.980026 198.88738 207.350026 200.24438 208.650026 200.45438 210.300026 200.66238 210.860026 202.63838 207.950026 204.43138 204.810026 204.45438 201.700026 203.53538 198.480026 202.58438 195.360026 201.26838 192.660026 199.20638 184.420026 192.91938 177.540026 185.45938 172.890026 176.09538 172.640026 175.58538 172.320026 175.10438 171.910026 174.38838zM336.620026 480.92638C340.370026 484.57438 344.280026 487.86238 349.130026 489.68638 354.670026 491.76438 360.270026 493.65738 365.900026 495.47238 371.540026 497.29638 377.280026 498.67638 383.310026 497.93138 384.100026 497.83438 384.920026 497.81338 385.700026 497.92338 389.410026 498.44738 393.040026 497.69738 396.670026 497.19838 402.400026 496.41238 406.920026 493.46538 409.990026 488.66938 414.620026 481.40638 419.460026 474.21838 422.220026 465.92838 422.620026 464.72038 423.150026 463.54438 423.730026 462.40738 426.570026 456.81938 428.550026 450.92338 430.130026 444.87738 430.490026 443.48438 430.740026 442.04638 431.240026 440.70538 434.610026 431.69138 436.650026 422.32238 438.720026 412.96038 438.990026 411.71438 439.410026 410.46938 439.470026 409.21238 439.800026 402.32538 439.620026 395.50638 437.370026 388.85138 435.700026 383.88438 433.280026 379.43638 429.230026 376.08538 424.550026 372.20938 420.880026 367.31638 415.960026 363.64338 410.600026 359.63438 405.660026 355.05438 400.520026 350.74838 400.180026 350.46638 399.680026 350.38738 399.300026 350.23638 398.970026 350.50138 398.640026 350.64038 398.510026 350.88638 394.300026 358.78138 389.940026 366.60638 385.950026 374.61138 381.970026 382.61338 378.280026 390.75438 373.960026 398.60238 369.280026 407.13138 364.920026 415.84338 360.470026 424.50538 357.480026 430.33138 354.430026 436.13438 351.700026 442.08238 349.170026 447.59038 346.770026 453.18838 344.780026 458.91138 343.100026 463.74538 341.510026 468.58138 339.150026 473.13738 337.900026 475.55638 337.090026 478.11938 336.620026 480.92638zM97.8100263 352.50638C98.3800263 352.00938 99.1100263 351.61538 99.5000263 351.00338 102.550026 346.12838 105.690026 341.29838 108.500026 336.28838 112.200026 329.72038 114.630026 322.59838 117.280026 315.56238 119.280026 310.25438 120.500026 304.93938 120.450026 299.23738 120.420026 294.86538 119.950026 290.67238 118.470026 286.53738 117.510026 283.84238 116.790026 281.02838 116.280026 278.21138 115.100026 271.77138 114.210026 265.27638 112.980026 258.84738 112.580026 256.74338 112.620026 254.40238 111.080026 252.36038 109.620026 253.99538 108.990026 255.78938 108.450026 257.59538 106.330026 264.63138 104.210026 271.66838 102.220026 278.74038 101.710026 280.56738 101.460026 282.51738 101.410026 284.42038 101.280026 289.68938 101.290026 294.96338 101.300026 300.23438 101.320026 310.78338 101.470026 321.33238 101.370026 331.87938 101.350026 334.56038 100.660026 337.24438 100.200026 339.91338 99.4700263 344.14438 98.6800263 348.36638 97.9100263 352.59238 97.6500263 352.85438 97.3900263 353.11538 97.1300263 353.37738 97.3000263 353.50138 97.4600263 353.62538 97.6300263 353.74838 97.7300263 353.47738 97.8600263 353.21338 97.9300263 352.93338 97.9500263 352.80538 97.8600263 352.64938 97.8100263 352.50638zM258.220026 687.62438C257.010026 687.26438 255.810026 686.90438 254.470026 686.49438 253.220026 682.37438 252.680026 678.13438 252.360026 673.81438 251.580026 663.63438 251.280026 653.40738 249.660026 643.28438 248.370026 635.20038 248.700026 627.03138 248.880026 618.87038 249.210026 604.80338 249.370026 590.73338 249.510026 576.66338 249.610026 567.23338 249.560026 557.80238 249.550026 548.37238 249.540026 536.06038 249.510026 523.74838 249.500026 511.43538 249.490026 502.16238 249.490026 492.88738 249.490026 483.61438 249.500026 472.58138 249.520026 461.54838 249.500026 450.51538 249.500026 449.61138 249.410026 448.53038 248.930026 447.84938 248.390026 447.10438 247.380026 446.67638 247.620026 445.52838 247.840026 444.43938 248.900026 444.23738 249.620026 443.65238 250.330026 443.07638 250.750026 442.13938 251.340026 441.39938 252.560026 439.87138 254.170026 439.33038 256.040026 439.83238 257.260026 440.16238 258.480026 440.60638 259.640026 441.12938 266.190026 444.07738 272.670026 447.21138 279.290026 449.99038 284.170026 452.03738 288.810026 454.48938 293.420026 457.04538 296.920026 458.97938 300.520026 460.73138 304.110026 462.47638 310.300026 465.48138 316.410026 468.60738 322.100026 472.51438 324.060026 473.86338 326.270026 474.85938 328.390026 475.97238 329.210026 476.40338 330.100026 476.71338 330.760026 476.99638 331.170026 476.74738 331.380026 476.69538 331.430026 476.57938 333.840026 470.51038 336.240026 464.43638 338.640026 458.36238 341.870026 450.19538 345.000026 442.01138 349.290026 434.28838 353.790026 426.19338 357.790026 417.81838 362.020026 409.57338 364.500026 404.74038 367.120026 399.97738 369.470026 395.08638 372.800026 388.17638 376.030026 381.21838 379.130026 374.20838 382.890026 365.72338 387.530026 357.70838 391.860026 349.52438 392.530026 348.26538 393.220026 347.02138 393.980026 345.62838 393.150026 344.71138 392.520026 343.78338 391.680026 343.11438 384.790026 337.62338 378.490026 331.46938 372.220026 325.31738 363.310026 316.57538 353.760026 308.54638 344.490026 300.20938 339.270026 295.50938 333.950026 290.91138 328.670026 286.26738 328.430026 286.05638 328.170026 285.86938 327.940026 285.64638 326.570026 284.30238 325.360026 282.72238 323.800026 281.66838 322.260026 280.62838 320.360026 280.11838 318.370026 279.27038 317.610026 279.84338 316.740026 280.50138 315.870026 281.15038 312.000026 284.02938 307.940026 286.43438 303.150026 287.60638 299.050026 288.60838 295.210026 287.47638 291.330026 286.79038 289.230026 286.41938 288.920026 285.09938 289.610026 282.08138 292.360026 281.97038 295.190026 281.70038 298.000026 281.78738 301.370026 281.89038 304.310026 280.88738 307.000026 279.00638 309.600026 277.18238 312.330026 275.48938 314.350026 272.76338 314.080026 271.23138 312.840026 270.39338 311.940026 269.35138 311.000026 268.26338 310.030026 267.19038 308.970026 266.21338 302.420026 260.12338 295.780026 254.12338 289.280026 247.97038 284.650026 243.57738 280.190026 238.98838 275.650026 234.49138 273.950026 232.80238 272.070026 231.26138 270.560026 229.41738 266.510026 224.47638 262.480026 219.50438 258.730026 214.33638 257.480026 212.60238 257.080026 210.24338 256.190026 207.88938 255.490026 208.08838 254.770026 208.28838 254.050026 208.49938 251.820026 209.15738 250.030026 208.82538 248.760026 206.58538 248.140026 205.49938 247.190026 204.54838 246.240026 203.71538 242.680026 200.61638 242.770026 196.75338 244.030026 192.78438 244.700026 190.67238 245.820026 188.68638 246.880026 186.71738 248.280026 184.09638 249.220026 183.74438 252.370026 184.37038 252.830026 184.46238 253.260026 184.69938 253.850026 184.92538 256.580026 190.06238 254.620026 195.84738 255.760026 202.10938 256.280026 200.89538 256.640026 200.43638 256.640026 199.97338 256.710026 194.86138 256.760026 189.74938 256.720026 184.63638 256.700026 181.02038 256.310026 180.29438 252.860026 176.11938 252.470026 176.02938 252.000026 175.81938 251.540026 175.83538 246.930026 175.98738 246.580026 175.99738 243.590026 179.25538 241.890026 181.11538 240.460026 183.28038 239.200026 185.47838 237.300026 188.79738 235.690026 192.27938 233.900026 195.66138 232.720026 197.89338 230.930026 199.22138 228.350026 199.75738 225.880026 200.26938 223.520026 201.28138 221.130026 202.06738 220.740026 203.19138 220.330026 204.06838 220.130026 204.98938 218.940026 210.44738 217.770026 215.91138 216.640026 221.38138 214.540026 231.54338 212.470026 241.71338 210.380026 251.87538 209.470026 256.25838 207.090026 259.79738 203.910026 262.84438 199.430026 267.14438 194.320026 270.42338 188.080026 271.22938 183.820026 271.77838 179.480026 271.85538 175.190026 271.75338 173.360026 271.70938 171.320026 271.03338 169.790026 270.01538 164.470026 266.48138 158.990026 263.05838 155.400026 257.53538 154.010026 255.39638 152.690026 253.19438 151.560026 250.91138 149.730026 247.19838 148.070026 243.39438 146.240026 239.40838 144.040026 241.92238 143.150026 244.99538 143.160026 248.09738 143.190026 255.10638 143.160026 262.10338 144.440026 269.09638 145.480026 274.72238 145.550026 280.54038 145.840026 286.28238 146.260026 294.60838 145.820026 302.89738 144.080026 311.07738 143.410026 314.19938 142.680026 317.30838 141.940026 320.41338 140.770026 325.31738 138.180026 329.58038 135.530026 333.75338 131.930026 339.41738 128.060026 344.91238 124.320026 350.49038 118.980026 358.45938 113.630026 366.42438 108.320026 374.41338 103.680026 381.39038 100.330026 388.96038 98.0800263 397.02438 97.8200263 397.94638 97.6200263 398.89538 97.2500263 399.77238 93.8700263 407.80138 93.5700263 416.20538 94.0800263 424.73238 94.3900263 429.97638 94.6500263 435.22838 94.7400263 440.48038 94.8600263 447.67338 94.8900263 454.87238 94.7800263 462.06638 94.7200263 465.56938 94.5000263 469.10738 93.9300263 472.55938 92.2900263 482.50438 89.7700263 492.25438 87.0100263 501.94038 85.6500263 506.70538 84.1800263 511.43538 82.8400263 516.20538 82.3700263 517.89038 81.9800263 519.63438 81.8500263 521.37438 81.3100263 528.56438 79.7800263 535.59638 78.6400263 542.69138 78.6200263 542.84938 78.6000263 543.01338 78.5400263 543.16038 76.2800263 548.70838 75.8800263 554.65838 74.7900263 560.45838 73.7800263 565.83138 72.1200263 571.03738 69.5300263 575.81438 67.4900263 579.58438 64.7200263 582.95638 62.3500263 586.55738 60.9200263 588.72938 59.2800263 590.63538 56.9700263 591.83738 56.2500263 595.70738 55.5100263 599.47038 54.8400263 603.24538 53.8500263 608.79638 52.0700263 614.04038 49.3800263 619.02938 47.1100263 623.24138 45.1800263 627.63038 42.4200263 631.57738 40.6800263 634.05638 39.3000263 636.79538 37.4600263 639.18638 34.5500263 642.97938 31.3600263 646.56338 28.3300263 650.27038 27.6500263 651.11038 26.8600263 652.01938 26.5900263 653.02238 23.6600263 664.09438 18.5000263 674.18438 13.1800263 684.21438 12.5900263 685.33438 12.0600263 686.48438 11.5000263 687.62438 10.2200263 687.62438 8.94002629 687.62438 7.66002629 687.62438 7.73002629 686.86438 7.64002629 686.02438 7.92002629 685.34438 8.85002629 682.97438 9.94002629 680.67438 10.9200263 678.32438 12.0400263 675.68438 13.0400263 672.98438 14.2000263 670.35438 16.7800263 664.50438 19.1100263 658.57438 20.6700263 652.35938 22.1100263 646.63438 23.6800263 640.93638 24.9300263 635.17238 26.9000263 626.13238 28.7100263 617.05738 30.4600263 607.97238 30.8100263 606.16138 31.1600263 604.22038 30.3000263 602.04038 29.0200263 602.30738 27.6100263 602.25438 26.6300263 602.87138 23.5200263 604.81138 20.4700263 606.86438 17.6000263 609.13438 14.5500263 611.54938 12.5000263 614.73338 11.0400263 618.40238 9.14002629 623.18038 7.90002629 628.06538 7.11002629 633.14538 5.70002629 642.32038 4.78002629 651.49538 4.95002629 660.80338 5.11002629 669.74438 4.85002629 678.68438 4.78002629 687.62438 3.50002629 687.62438 2.22002629 687.62438.940026288 687.62438-.249973712 686.46438.0200262885 684.97438.0400262885 683.55438.120026288 676.52438.350026288 669.48438.300026288 662.45438.200026288 650.42138 1.13002629 638.50638 3.67002629 626.71638 4.69002629 621.98838 6.28002629 617.47438 8.42002629 613.18838 10.4500263 609.11138 13.8200263 606.09638 17.4600263 603.41738 18.1000263 602.94438 18.8500263 602.62738 19.4900263 602.14938 22.8800263 599.61238 26.4800263 597.65638 31.1200263 598.09238 31.3900263 596.85338 31.7300263 595.81338 31.8300263 594.75238 32.5900263 586.46738 32.9400263 578.16538 32.8400263 569.84338 32.7700263 564.72538 32.7700263 559.60638 32.7000263 554.48938 32.5200263 541.25138 36.1200263 528.90038 41.6900263 517.06638 42.9000263 514.49538 44.7900263 512.23538 46.4400263 509.88138 47.6900263 508.10238 49.3200263 506.88038 51.8900263 507.05038 51.9900263 503.72438 52.1500263 500.55738 52.1600263 497.38938 52.1800263 481.39838 52.1800263 465.40638 52.1500263 449.41538 52.1300263 440.07738 53.4900263 430.94238 55.9000263 421.93938 56.7700263 418.69838 57.5300263 415.42738 58.3200263 412.16838 58.4700263 411.54738 58.3700263 410.77638 58.7100263 410.30238 61.4900263 406.36738 59.8200263 402.31038 58.9100263 398.39538 57.9000263 394.04438 56.3500263 389.78738 56.1700263 385.29438 55.9500263 380.02438 55.9900263 374.74238 56.0200263 369.46538 56.0400263 366.11038 56.2300263 362.75538 56.4100263 359.40338 56.7500263 352.96538 59.1900263 347.28538 63.0100263 342.20338 64.0000263 340.88138 65.5800263 340.00038 67.1100263 338.73838 66.6500263 336.57838 65.7400263 334.38138 64.9800263 332.12838 64.4300263 330.47938 63.8800263 328.73638 63.8500263 327.02538 63.7300263 320.31838 63.6300263 313.59938 63.8700263 306.89738 64.2200263 296.85338 67.5800263 287.81738 73.9600263 280.01538 75.2500263 278.43938 77.0100263 277.22938 78.6300263 275.94738 79.4700263 275.28138 80.4800263 274.82638 81.5500263 274.19038 79.3500263 270.98738 77.2200263 268.02938 75.2400263 264.96638 73.8600263 262.82038 72.5700263 260.59238 71.4900263 258.28338 70.8300263 256.87038 70.2900263 255.22538 70.3200263 253.69838 70.4300263 248.51638 71.5100263 243.54838 74.6500263 239.23838 76.3400263 236.90938 78.4700263 235.41138 81.5200263 235.64438 85.4900263 235.94838 89.4700263 236.22438 93.7600263 236.53738 96.3200263 232.63638 100.110026 229.44138 102.660026 225.14438 104.210026 222.52338 105.800026 219.96938 106.840026 217.10438 109.610026 209.53538 113.230026 202.47238 118.750026 196.47538 120.260026 194.83338 121.570026 193.00038 122.880026 191.18438 124.990026 188.25738 127.730026 186.12138 130.900026 184.48338 131.750026 184.04338 132.620026 183.62338 133.420026 183.09238 137.900026 180.09938 142.870026 179.43338 148.100026 179.92338 152.370026 180.32338 156.240026 181.55038 159.210026 184.86638 159.720026 185.42638 160.350026 185.86638 161.010026 186.43138 161.470026 185.92338 161.900026 185.63738 162.070026 185.24238 164.150026 180.39738 166.140026 175.51038 168.260026 170.68738 170.840026 164.84138 173.620026 159.08538 176.160026 153.22138 181.810026 140.14638 188.570026 127.63738 195.300026 115.10838 196.430026 113.00138 197.560026 110.86738 198.420026 108.64438 202.610026 97.8913801 208.490026 87.9673801 213.510026 77.6263801 220.230026 63.7753801 228.320026 50.7743801 236.800026 37.9773801 238.910026 34.7793801 241.120026 31.6393801 243.300026 28.4863801 244.690026 26.4833801 246.390026 24.8153801 248.650026 23.8103801 251.180026 22.6863801 253.590026 23.4993801 254.570026 26.0613801 255.180026 27.6793801 255.490026 29.4593801 255.660026 31.1933801 256.230026 36.6333801 255.960026 42.0763801 255.010026 47.4453801 253.680026 54.9893801 252.100026 62.4883801 250.690026 70.0203801 250.380026 71.7203801 250.370026 73.4773801 250.180026 75.2033801 250.110026 75.8113801 250.120026 76.5633801 249.770026 76.9803801 248.230026 78.8273801 248.000026 81.1063801 247.730026 83.2853801 246.410026 94.1093801 243.470026 104.56238 240.680026 115.05238 236.820026 129.56338 232.750026 144.02238 229.140026 158.59238 227.570026 164.93038 226.890026 171.49138 225.810026 177.95038 225.420026 180.29938 225.030026 182.65038 224.640026 185.04438 227.300026 186.62438 229.840026 188.13938 232.610026 189.78338 233.910026 188.64738 234.640026 187.09538 235.260026 185.47338 237.140026 180.51238 240.560026 176.73038 244.690026 173.61838 247.540026 171.47238 250.960026 171.53738 254.330026 172.23338 254.920026 172.35438 255.530026 172.75638 255.960026 173.19538 258.680026 175.96138 261.190026 178.87438 261.300026 183.04838 261.400026 187.03638 261.410026 191.02638 261.500026 195.01338 261.590026 199.16838 261.720026 203.32138 261.840026 207.47438 261.900026 209.45338 262.570026 211.15038 263.830026 212.73638 268.590026 218.72938 273.020026 224.94138 278.590026 230.33638 284.090026 235.66938 289.740026 240.83238 295.250026 246.14738 300.660026 251.36138 306.230026 256.40938 311.680026 261.57738 313.190026 263.00338 314.520026 264.61238 315.960026 266.10438 316.610026 266.77238 317.340026 267.36138 318.100026 268.04738 320.170026 266.07238 321.180026 263.73238 321.980026 261.31938 323.040026 258.13838 323.970026 254.91238 324.930026 251.69838 325.610026 249.43038 325.590026 249.42438 327.750026 247.34738 330.200026 249.09038 329.870026 252.08938 330.860026 254.70838 332.470026 254.09038 333.910026 253.45238 335.410026 253.01438 335.930026 252.86238 336.700026 253.04538 337.170026 253.35838 337.950026 253.87538 337.910026 254.82838 337.480026 255.50338 336.810026 256.55338 336.040026 257.60638 335.090026 258.40038 334.130026 259.20938 332.970026 259.89738 331.780026 260.29738 329.480026 261.07038 328.470026 262.59538 328.430026 265.19038 331.990026 266.44238 335.530026 265.33738 339.020026 264.66438 339.460026 268.29838 337.960026 270.60638 334.800026 271.02638 332.440026 271.34038 330.010026 271.19438 327.620026 271.28938 326.670026 271.32738 325.680026 271.31238 324.810026 271.61038 324.310026 271.78138 323.780026 272.49138 323.690026 273.03338 323.600026 273.52938 323.920026 274.33438 324.330026 274.63138 325.080026 275.17338 325.990026 275.57438 326.900026 275.79438 328.760026 276.24638 330.650026 276.55238 332.540026 276.89438 333.880026 277.13638 334.960026 277.67638 335.390026 279.36238 334.660026 280.34738 333.830026 281.44938 332.870026 282.73438 335.440026 285.64938 338.490026 287.97738 341.320026 290.51238 347.760026 296.26538 354.320026 301.88238 360.710026 307.68238 368.410026 314.65638 375.860026 321.89238 383.630026 328.77238 391.180026 335.44638 398.990026 341.80838 406.680026 348.31538 412.660026 353.37338 418.740026 358.31338 424.560026 363.55038 428.710026 367.28738 432.620026 371.31338 436.390026 375.43938 438.190026 377.41638 439.740026 379.77838 440.830026 382.22038 443.590026 388.37938 445.280026 394.79838 445.390026 401.67038 445.480026 408.14038 444.360026 414.33738 442.990026 420.61538 440.490026 432.04138 436.220026 442.91838 433.090026 454.14338 431.850026 458.57138 429.500026 462.67438 427.820026 466.99138 424.380026 475.85138 419.240026 483.75938 414.040026 491.61038 410.360026 497.16138 405.190026 500.53438 398.430026 501.74438 390.800026 503.11038 383.150026 503.21038 375.500026 502.76238 371.890026 502.55138 368.300026 501.32838 364.800026 500.23438 358.550026 498.28138 352.360026 496.11138 346.180026 493.96738 342.650026 492.74838 339.600026 490.65938 336.760026 488.30838 332.310026 484.61138 327.560026 481.42138 322.230026 479.11638 321.350026 478.73838 320.510026 478.23938 319.720026 477.70438 311.480026 472.13438 302.480026 467.96838 293.580026 463.61738 291.570026 462.63438 289.690026 461.38538 287.680026 460.42238 281.910026 457.66638 276.100026 455.00238 270.320026 452.28338 266.270026 450.38138 262.150026 448.60238 258.230026 446.47238 255.960026 445.24438 254.350026 445.55238 252.510026 447.65438 252.510026 452.30638 252.460026 457.25238 252.520026 462.19638 252.630026 472.58638 252.810026 482.97538 252.930026 493.36638 253.060026 505.98638 253.170026 518.60838 253.270026 531.22938 253.370026 544.81938 253.450026 558.41038 253.570026 572.00138 253.600026 575.67638 253.740026 579.35238 253.790026 583.02938 254.000026 596.93838 254.260026 610.84638 254.360026 624.75638 254.430026 633.73638 255.640026 642.59638 256.730026 651.47738 256.860026 652.58638 257.080026 653.68838 257.150026 654.80038 257.570026 661.17438 257.880026 667.55438 258.360026 673.92438 258.610026 677.26438 259.050026 680.60438 259.550026 683.91438 259.740026 685.23438 259.770026 686.43438 259.180026 687.62438 258.860026 687.62438 258.540026 687.62438 258.220026 687.62438L258.220026 687.62438zM233.470026.0853801157C234.020026.623380116 234.380026 1.18138012 233.290026 2.29438012 233.420026 1.21638012 233.500026.611380116 233.580026.000380115677 233.590026-.00661988432 233.470026.0853801157 233.470026.0853801157"/>
    <path fill="#1A1919" d="M217.390026 351.86738C216.530026 351.81938 216.200026 351.71238 215.920026 351.80238 215.030026 352.10238 214.150026 352.47438 213.270026 352.81838 213.140026 353.35838 212.940026 353.81838 212.950026 354.27738 212.980026 357.62838 213.080026 360.97838 213.090026 364.32938 213.110026 366.81338 212.540026 369.04938 210.330026 370.34538 208.690026 370.20138 208.220026 369.12338 208.130026 368.02838 207.910026 365.33038 207.810026 362.61738 207.770026 359.90938 207.750026 358.16938 207.910026 356.42538 207.990026 354.72438 206.340026 353.45438 204.830026 353.98238 203.090026 354.37638 202.890026 356.58838 202.800026 358.79138 202.460026 360.95538 202.050026 363.64838 199.200026 365.92938 196.330026 366.00438 195.910026 366.01438 195.490026 365.64038 195.090026 365.45638 194.460026 362.90538 196.910026 361.42438 197.070026 359.14338 197.220026 357.10938 197.830026 355.10838 198.280026 352.87238 196.990026 352.31438 195.820026 351.87538 194.730026 351.29838 194.360026 351.10738 193.890026 350.39038 193.990026 350.21438 194.260026 349.73438 194.890026 349.02838 195.250026 349.09438 198.200026 349.63838 200.920026 348.55838 203.730026 348.09438 211.650026 346.78938 218.440026 342.96338 225.120026 338.84038 226.470026 338.00138 227.750026 337.03238 229.060026 336.12638 237.260026 330.47638 242.770026 322.85938 245.740026 313.38738 246.270026 311.71238 246.740026 310.01738 247.220026 308.32838 247.440026 307.56138 247.580026 306.76938 247.830026 306.01538 248.100026 305.22238 248.650026 304.43738 249.530026 304.75838 250.160026 304.98638 250.930026 305.74138 251.010026 306.34338 251.260026 308.22638 251.460026 310.18038 251.230026 312.04938 250.710026 316.17438 249.720026 320.21838 248.070026 324.05638 245.010026 331.13638 239.970026 336.60838 233.990026 341.30938 232.500026 342.48438 230.950026 343.59438 229.260026 344.86438 230.240026 348.05838 232.570026 350.39638 233.860026 353.57538 233.600026 353.93438 233.350026 354.67338 232.890026 354.84938 232.210026 355.10438 231.290026 355.18338 230.640026 354.91838 229.800026 354.57438 228.950026 353.95038 228.430026 353.21538 227.240026 351.54238 226.240026 349.72838 224.970026 347.66138 224.210026 348.00638 223.290026 348.42138 222.160026 348.93338 222.500026 350.94838 222.830026 352.80138 223.120026 354.66438 223.450026 356.87138 223.820026 359.07938 224.010026 361.30038 224.100026 362.38938 224.000026 363.56638 223.660026 364.59438 223.450026 365.22638 222.660026 366.00538 222.060026 366.07338 221.450026 366.14338 220.460026 365.58438 220.140026 365.01638 219.530026 363.93138 219.140026 362.67238 218.910026 361.43738 218.340026 358.31338 217.910026 355.16438 217.390026 351.86738M274.650026 397.09538C274.680026 398.24538 273.510026 399.41738 272.210026 399.53538 270.670026 399.67438 268.870026 397.65738 268.780026 395.68038 268.720026 394.51538 270.360026 393.20138 271.800026 393.26138 273.230026 393.32138 274.600026 395.17038 274.650026 397.09538M251.730026 395.69038C253.560026 394.70838 255.050026 394.33538 256.050026 395.67438 256.630026 396.45038 256.920026 397.88838 256.610026 398.77838 255.970026 400.65238 254.120026 400.26138 252.770026 400.47438 251.200026 398.93138 251.770026 397.33338 251.730026 395.69038M251.530026 413.48038C251.130026 413.95638 250.810026 414.50938 250.340026 414.83938 249.340026 415.53538 248.210026 415.53838 247.290026 414.74438 246.340026 413.91438 245.560026 412.83838 245.940026 411.46938 246.250026 410.34038 247.150026 409.61838 248.290026 409.39738 249.330026 409.19538 250.110026 409.79338 250.530026 410.71338 250.920026 411.55138 251.170026 412.45638 251.530026 413.48038M292.230026 409.65038C292.000026 410.89338 291.910026 412.00138 291.570026 413.02538 291.260026 413.94238 290.010026 414.33338 289.140026 413.81638 288.480026 413.42238 287.820026 412.89438 287.400026 412.26338 286.700026 411.18438 286.980026 409.58438 287.860026 408.72838 288.700026 407.91038 289.640026 408.27038 290.530026 408.60838 290.970026 408.77438 291.350026 409.09738 292.230026 409.65038M265.190026 386.11638C265.250026 387.38138 264.280026 388.86138 263.300026 389.02938 261.890026 389.26838 260.180026 387.67838 260.230026 386.18638 260.280026 384.97038 261.450026 383.82138 262.690026 383.78738 263.880026 383.75538 265.140026 384.92338 265.190026 386.11638M281.370026 425.50738C281.290026 426.83238 280.070026 428.00138 278.960026 427.81538 277.790026 427.62138 276.780026 426.29838 276.880026 425.09338 276.980026 423.79438 278.200026 422.64238 279.330026 422.78438 280.430026 422.92138 281.440026 424.26038 281.370026 425.50738M269.620026 411.62938C269.140026 411.95038 268.480026 412.71438 267.720026 412.83238 266.390026 413.03938 265.420026 411.81738 265.490026 410.39738 265.560026 409.17938 266.550026 408.26638 267.670026 408.39838 268.890026 408.54438 269.740026 409.73238 269.620026 411.62938M290.040026 397.42038C288.390026 397.50638 287.240026 396.34638 287.200026 395.01938 287.170026 394.10238 288.030026 393.15138 288.940026 393.08738 290.160026 393.00138 291.500026 394.19938 291.280026 395.48938 291.150026 396.26138 290.380026 396.92438 290.040026 397.42038M260.440026 425.31538C260.240026 424.89138 259.670026 424.25838 259.700026 423.65438 259.750026 422.71038 260.990026 421.97238 261.760026 422.37038 262.210026 422.59938 262.640026 423.27338 262.680026 423.77838 262.760026 424.76738 261.770026 425.50638 260.440026 425.31538M276.050026 385.90638C275.810026 385.52138 275.160026 384.94738 275.170026 384.38038 275.180026 383.46738 276.080026 383.10638 276.880026 383.25638 277.380026 383.34938 278.010026 383.81838 278.200026 384.27538 278.520026 385.06338 277.500026 385.94438 276.050026 385.90638M404.050026 428.80138C405.200026 429.11838 406.310026 429.27338 407.290026 429.72038 408.820026 430.42338 409.240026 431.49838 408.940026 433.25638 408.850026 433.72338 408.700026 434.17738 408.580026 434.63838 407.700026 438.00838 406.810026 441.38038 405.930026 444.75238 405.430026 446.67238 404.490026 447.46738 402.630026 447.53138 400.560026 447.60338 399.370026 446.71038 398.900026 444.66838 398.760026 444.05438 398.610026 443.41138 398.640026 442.79238 398.930026 437.60938 400.320026 432.84738 404.050026 428.80138M163.950026 204.77738C164.370026 206.49338 164.770026 207.67138 164.930026 208.87938 165.300026 211.64138 166.420026 214.02638 168.080026 216.25438 174.730026 225.15638 183.230026 231.62938 193.390026 236.04638 196.450026 237.37438 199.340026 239.10338 202.260026 240.72138 202.870026 241.05838 203.300026 241.71838 204.230026 242.63738 201.470026 243.36638 199.340026 243.22838 197.230026 242.53738 183.800026 238.13238 172.660026 230.51638 164.430026 218.91638 162.270026 215.87238 160.870026 212.50338 161.160026 208.64038 161.280026 207.00838 161.290026 207.00938 163.950026 204.77738M208.030026 102.33838C208.760026 107.36538 210.150026 110.84738 212.270026 114.11738 215.640026 119.28538 220.120026 122.88038 225.930026 124.86938 226.980026 125.23138 228.090026 125.47138 229.090026 125.94738 229.580026 126.18138 230.200026 126.83838 230.190146 127.28338 230.160026 127.98338 229.780026 128.78438 229.300026 129.31738 228.930026 129.73438 228.170026 130.01638 227.590026 129.99338 226.330026 129.94238 225.000026 129.88638 223.850026 129.43338 218.230026 127.20838 213.400026 123.87738 210.230026 118.59438 208.680026 116.00538 207.430026 113.23038 206.100026 110.51238 205.210026 108.69538 205.230026 106.78038 205.950026 104.93038 206.210026 104.27438 206.850026 103.77138 208.030026 102.33838M85.9800263 250.63438C86.2600263 250.71438 86.8800263 250.82938 87.4600263 251.07138 90.2400263 252.24438 93.0200263 253.42438 95.7700263 254.65538 97.5400263 255.44238 99.1100263 256.49338 100.110026 258.22638 100.940026 259.66238 100.900026 261.36338 99.5000263 261.98738 97.3500263 262.93738 96.5900263 264.78438 95.5500263 266.53438 95.1500263 267.21738 94.7400263 267.90138 94.2700263 268.54438 93.2800263 269.90938 92.0500263 270.79938 90.2300263 270.48638 88.2400263 270.14138 86.5500263 269.43338 86.0500263 267.19238 85.8800263 266.41738 85.6100263 265.65638 85.5200263 264.87338 85.2700263 262.76038 84.4200263 260.92838 83.2500263 259.17738 82.5500263 258.13238 81.8800263 256.99538 81.5400263 255.80138 80.7900263 253.17838 82.9100263 250.60238 85.9800263 250.63438M415.520026 397.45538C416.080026 396.04338 416.830026 393.78338 417.870026 391.66138 418.570026 390.22738 420.530026 389.84538 422.040026 390.69738 422.500026 390.95638 423.020026 391.70238 422.980026 392.17938 422.710026 395.36238 421.910026 398.44138 420.730026 401.40638 420.180026 402.77638 418.290026 403.15438 417.120026 402.17638 415.940026 401.18738 415.480026 399.87238 415.520026 397.45538"/>
  </g>
</svg>
