<svg xmlns="http://www.w3.org/2000/svg" width="358" height="348" viewBox="0 0 358 348">
  <g fill="none" fill-rule="evenodd" transform="translate(.314 .44)">
    <path fill="#D7A9FF" d="M230.426222 97.3669435C232.166222 97.4929435 233.916222 97.6259435 235.666222 97.7439435 236.126222 97.7749435 236.766222 97.9629435 237.026222 97.7379435 239.266222 95.7879435 240.526222 97.6159435 241.776222 98.9889435 243.816222 101.224943 245.746222 103.558943 247.646222 105.907943 248.126222 106.503943 248.406222 107.292943 248.676222 108.030943 249.316222 109.833943 249.816222 111.690943 250.516222 113.467943 252.046222 117.345943 251.796222 121.396943 251.186222 125.291943 250.456222 129.877943 247.456222 133.325943 243.926222 136.209943 242.696222 137.208943 241.296222 138.021943 239.906222 138.780943 239.086222 139.226943 237.986222 139.843943 237.236222 139.619943 233.706222 138.565943 230.086222 139.624943 226.506222 138.772943 221.666222 137.619943 218.466222 135.429943 217.666222 130.190943 217.306222 127.870943 216.456222 125.478943 215.246222 123.474943 213.316222 120.273943 213.696222 116.953943 214.366222 113.743943 214.796222 111.628943 215.826222 109.572943 216.426222 107.424943 216.666222 106.532943 217.236222 105.677943 217.826222 104.947943 218.736222 103.828943 219.446222 102.668943 220.056222 101.328943 221.176222 98.8729435 223.116222 97.3049435 226.106222 97.5229435 227.536222 97.6269435 228.976222 97.5409435 230.416222 97.5409435 230.416222 97.4829435 230.426222 97.4249435 230.426222 97.3669435M132.326222 127.427943C132.786222 130.438943 132.146222 133.178943 130.226222 135.515943 127.906222 138.346943 125.526222 141.114943 121.786222 142.229943 119.496222 142.910943 117.306222 143.842943 114.826222 143.693943 113.906222 143.638943 112.946222 143.937943 112.036222 144.193943 111.086222 144.460943 110.116222 144.592943 109.206222 144.295943 107.506222 143.742943 105.766222 143.628943 104.016222 143.540943 101.396222 143.408943 98.966222 142.294943 96.916222 140.953943 93.936222 138.997943 91.846222 136.159943 92.096222 132.152943 92.216222 130.258943 91.946222 128.338943 91.846222 126.430943 89.086222 123.801943 91.026222 121.986943 92.916222 120.143943 93.256222 119.815943 93.586222 119.421943 93.766222 118.991943 95.346222 115.067943 98.336222 112.134943 100.816222 108.836943 101.556222 107.860943 102.336222 107.225943 103.556222 107.219943 105.786222 107.208943 108.026222 107.194943 110.256222 107.255943 110.876222 107.272943 111.606222 107.387943 112.066222 107.737943 114.386222 109.467943 116.806222 109.289943 119.336222 108.399943 119.926222 108.193943 120.586222 108.156943 121.216222 108.127943 122.566222 108.067943 123.736222 108.419943 124.506222 109.655943 125.956222 111.997943 127.736222 113.984943 130.386222 115.033943 131.046222 115.295943 131.366222 115.900943 131.326222 116.558943 131.106222 120.248943 133.066222 123.720943 132.326222 127.427943"/>
    <path fill="#1A1919" d="M4.75622199,347.609943 C3.65622199,346.299943 3.54622199,344.679943 3.33622199,343.099943 C2.74622199,338.509943 2.13622199,333.909943 1.62622199,329.299943 C0.126221989,315.770943 -0.123778011,302.188943 0.0462219894,288.587943 C0.226221989,274.508943 1.37622199,260.491943 2.53622199,246.472943 C3.45622199,235.482943 4.94622199,224.566943 6.67622199,213.684943 C9.01622199,199.003943 11.846222,184.410943 15.176222,169.922943 C16.886222,162.456943 18.896222,155.058943 20.756222,147.623943 C20.986222,146.725943 21.086222,145.796943 21.296222,144.604943 C20.096222,144.784943 19.196222,145.100943 18.336222,144.994943 C17.646222,144.909943 16.836222,144.462943 16.396222,143.919943 C15.746222,143.114943 15.836222,142.003943 16.546222,141.271943 C17.306222,140.484943 18.246222,139.822943 19.216222,139.310943 C20.766222,138.495943 22.396222,137.852943 24.216222,137.036943 C25.296222,133.631943 26.406222,130.156943 27.606222,126.357943 C26.126222,126.115943 24.906222,125.983943 23.726222,125.705943 C22.616222,125.445943 21.906222,124.303943 22.006222,123.144943 C22.106222,122.022943 22.866222,121.366943 23.836222,121.215943 C25.556222,120.950943 27.306222,120.894943 29.366222,120.724943 C30.826222,116.381943 32.276222,112.042943 33.786222,107.558943 C32.396222,106.648943 31.116222,106.001943 30.106222,105.060943 C29.666222,104.651943 29.596222,103.589943 29.736222,102.908943 C29.846222,102.440943 30.576222,101.835943 31.086222,101.780943 C32.476222,101.624943 33.906222,101.726943 35.566222,101.726943 C36.736222,98.9139435 38.046222,96.0169435 39.156222,93.0439435 C43.646222,81.0339435 48.886222,69.3949435 56.036222,58.6949435 C57.226222,56.9159435 57.696222,55.0489435 57.846222,52.8739435 C58.116222,48.9019435 58.736222,44.9349435 59.476222,41.0169435 C60.936222,33.3279435 62.416222,25.6379435 64.196222,18.0209435 C65.486222,12.5449435 68.066222,7.54594349 71.016222,2.76094349 C71.356222,2.21994349 71.716222,1.68294349 72.136222,1.21194349 C73.526222,-0.318056511 75.766222,-0.430056511 77.226222,1.05094349 C81.156222,5.01994349 85.066222,9.00494349 88.896222,13.0639435 C89.986222,14.2119435 90.856222,15.5869435 91.686222,16.9429435 C95.606222,23.3409435 99.486222,29.7609435 103.366222,36.1889435 C104.596222,38.2259435 105.746222,40.3069435 107.056222,42.5689435 C108.686222,42.1909435 110.226222,41.9159435 111.706222,41.4749435 C117.886222,39.6429435 124.286222,39.2549435 130.626222,38.5659435 C146.526222,36.8349435 162.456222,35.6199435 178.466222,35.3629435 C192.386222,35.1389435 206.306222,34.9509435 220.156222,36.3339435 C227.286222,37.0449435 234.326222,38.6699435 241.396222,39.9709435 C246.416222,40.8979435 251.416222,41.9799435 256.436222,42.9679435 C256.726222,43.0249435 257.056222,42.8679435 257.756222,42.7399435 C258.236222,41.4689435 258.876222,40.0309435 259.346222,38.5369435 C261.246222,32.4369435 263.046222,26.3049435 264.976222,20.2119435 C266.526222,15.3229435 268.636222,10.7329435 271.566222,6.43494349 C274.166222,2.61594349 278.976222,3.22394349 281.716222,6.14494349 C286.796222,11.5489435 288.816222,18.1839435 290.626222,24.9459435 C291.656222,28.7829435 291.966222,32.8179435 292.546222,36.7689435 C293.096222,40.4059435 293.526222,44.0569435 294.116222,47.6849435 C294.296222,48.7499435 294.616222,49.9159435 295.236222,50.7649435 C299.236222,56.2129435 301.766222,62.4809435 305.076222,68.3129435 C308.776222,74.8529435 311.986222,81.6469435 314.256222,88.8489435 C314.486222,89.5929435 314.966222,90.2639435 315.356222,90.9539435 C315.416222,91.0659435 315.616222,91.1009435 316.116222,91.3579435 C316.706222,90.9709435 317.446222,90.4589435 318.216222,89.9819435 C319.026222,89.4839435 319.806222,88.9129435 320.676222,88.5659435 C321.876222,88.0849435 323.086222,88.5809435 323.526222,89.5909435 C323.966222,90.6169435 323.606222,91.4579435 322.816222,92.1319435 C322.086222,92.7549435 321.296222,93.2999435 320.556222,93.9169435 C319.596222,94.7299435 318.666222,95.5789435 317.506222,96.5989435 C318.916222,100.860943 320.296222,105.066943 321.706222,109.353943 C323.276222,109.592943 324.696222,109.759943 326.086222,110.038943 C327.056222,110.233943 327.886222,110.716943 328.086222,111.828943 C328.266222,112.856943 327.656222,113.668943 326.196222,114.227943 C325.476222,114.506943 324.696222,114.652943 323.596222,114.951943 C324.366222,118.096943 325.116222,121.141943 325.906222,124.374943 C326.986222,124.941943 328.136222,125.466943 329.216222,126.114943 C330.716222,127.020943 332.256222,127.910943 333.586222,129.034943 C334.026222,129.409943 334.156222,130.584943 333.926222,131.207943 C333.696222,131.817943 332.846222,132.564943 332.246222,132.585943 C331.016222,132.628943 329.766222,132.226943 328.306222,131.967943 C328.306222,132.846943 328.136222,133.768943 328.326222,134.604943 C329.866222,141.135943 331.436222,147.659943 333.076222,154.168943 C335.446222,163.625943 337.716222,173.112943 340.316222,182.506943 C343.816222,195.164943 346.466222,207.992943 348.226222,220.991943 C349.786222,232.553943 350.986222,244.164943 352.356222,255.754943 C353.096222,262.099943 354.036222,268.428943 354.566222,274.791943 C355.356222,284.346943 355.986222,293.918943 356.466222,303.494943 C356.966222,313.391943 357.256222,323.299943 357.516222,333.209943 C357.616222,337.199943 357.446222,341.199943 357.306222,345.189943 C357.256222,346.709943 356.836222,346.859943 354.456222,346.489943 C354.076222,342.759943 353.696222,338.979943 353.796222,335.159943 C353.836222,333.889943 353.836222,332.609943 353.796222,331.329943 C353.466222,321.749943 353.136222,312.166943 352.776222,302.584943 C352.696222,300.348943 352.586222,298.108943 352.366222,295.883943 C351.336222,285.712943 351.486222,275.446943 349.666222,265.330943 C348.876222,260.938943 348.746222,256.428943 348.246222,251.978943 C348.006222,249.770943 347.616222,247.577943 347.286222,245.367943 C345.836222,244.600943 344.626222,245.093943 343.486222,245.535943 C340.596222,246.655943 337.566222,246.778943 334.526222,246.979943 C332.696222,247.101943 331.536222,246.271943 330.666222,244.733943 C328.826222,241.472943 328.886222,239.154943 331.076222,236.849943 C331.606222,236.291943 332.326222,235.872943 333.016222,235.520943 C334.726222,234.656943 336.436222,233.790943 338.206222,233.079943 C339.216222,232.673943 340.336222,232.462943 341.436222,232.355943 C342.666222,232.234943 343.926222,232.326943 345.296222,232.326943 C345.746222,230.094943 345.466222,228.297943 344.766222,226.448943 C340.506222,226.533943 336.386222,226.744943 332.266222,226.664943 C328.246222,226.587943 324.316222,226.929943 320.396222,227.860943 C317.106222,228.641943 313.746222,228.397943 310.676222,228.326943 C307.816222,225.917943 307.066222,223.196943 307.776222,219.919943 C308.076222,218.536943 308.646222,217.488943 309.976222,217.046943 C312.086222,216.343943 314.216222,215.649943 316.386222,215.136943 C322.506222,213.685943 328.736222,213.628943 334.986222,213.935943 C337.516222,214.060943 340.066222,213.955943 342.836222,213.955943 C343.416222,212.509943 342.886222,211.196943 342.386222,209.783943 C342.006222,209.656943 341.546222,209.344943 341.136222,209.389943 C337.166222,209.810943 333.206222,210.382943 329.236222,210.729943 C325.576222,211.047943 321.906222,211.177943 318.236222,211.320943 C315.996222,211.407943 313.736222,211.175943 311.526222,211.420943 C308.556222,211.749943 305.826222,210.922943 303.046222,210.216943 C301.666222,209.866943 300.996222,208.896943 300.436222,207.653943 C298.526222,203.430943 302.046222,198.039943 306.206222,198.281943 C310.646222,198.539943 315.136222,198.201943 319.606222,198.106943 C321.526222,198.065943 323.436222,197.923943 325.356222,197.923943 C329.666222,197.922943 333.976222,197.988943 338.286222,198.009943 C338.736222,198.011943 339.186222,197.898943 339.866222,197.808943 C339.766222,196.637943 339.816222,195.528943 339.566222,194.489943 C338.936222,191.846943 338.156222,189.241943 337.476222,186.612943 C334.426222,174.858943 331.376222,163.105943 328.366222,151.341943 C326.776222,145.148943 325.086222,138.971943 323.826222,132.709943 C323.246222,129.801943 321.966222,128.145943 319.186222,127.385943 C317.966222,127.052943 316.816222,126.413943 315.686222,125.831943 C314.976222,125.473943 314.296222,125.028943 313.716222,124.496943 C312.956222,123.802943 312.666222,122.869943 313.096222,121.884943 C313.566222,120.812943 314.506222,120.670943 315.496222,120.980943 C317.166222,121.497943 318.816222,122.082943 320.486222,122.647943 C320.906222,119.837943 320.796222,119.307943 318.846222,114.755943 C318.026222,114.755943 317.066222,114.568943 316.216222,114.790943 C313.676222,115.450943 311.146222,115.421943 308.596222,115.075943 C307.526222,114.929943 306.846222,114.283943 306.766222,113.195943 C306.676222,112.061943 307.396222,111.371943 308.396222,111.151943 C309.626222,110.878943 310.906222,110.794943 312.176222,110.662943 C313.906222,110.482943 315.696222,110.519943 317.426222,109.233943 C317.106222,105.798943 315.576222,102.678943 314.256222,99.0769435 C313.286222,99.6009435 312.446222,99.9179435 311.766222,100.445943 C310.256222,101.619943 308.866222,102.965943 307.336222,104.106943 C306.736222,104.546943 305.886222,104.751943 305.136222,104.832943 C303.976222,104.955943 303.036222,103.440943 303.646222,102.469943 C304.056222,101.803943 304.576222,101.180943 305.146222,100.632943 C307.326222,98.5249435 309.536222,96.4539435 311.926222,94.1899435 C311.726222,93.3969435 311.536222,92.4919435 311.256222,91.6189435 C308.226222,82.2989435 303.636222,73.6809435 299.176222,65.0159435 C296.476222,59.7669435 293.966222,54.3859435 290.216222,49.7489435 C289.246222,48.5529435 289.226222,47.1139435 289.086222,45.6699435 C288.556222,40.0999435 287.966222,34.5349435 287.376222,28.9709435 C286.826222,23.8229435 285.006222,19.0199435 283.036222,14.3089435 C281.746222,11.2039435 279.026222,9.13694349 276.696222,6.60894349 C273.876222,8.65094349 272.396222,11.0999435 271.396222,13.7759435 C269.436222,19.0099435 267.586222,24.2889435 265.856222,29.6039435 C263.926222,35.5279435 262.246222,41.5369435 258.986222,46.8579435 C257.186222,47.6999435 255.446222,47.2849435 253.736222,46.9489435 C243.696222,44.9709435 233.696222,42.8579435 223.636222,41.0169435 C219.566222,40.2719435 215.376222,40.1709435 211.256222,39.6519435 C202.506222,38.5459435 193.716222,38.5589435 184.926222,38.8139435 C184.306222,38.8319435 183.686222,38.9919435 182.816222,39.1259435 C182.716222,40.1219435 182.496222,41.0399435 182.576222,41.9309435 C182.876222,45.2659435 183.266222,48.5929435 183.646222,51.9209435 C183.806222,53.3419435 184.146222,54.7599435 184.136222,56.1769435 C184.126222,58.3989435 183.886222,60.6179435 183.776222,62.3289435 C183.166222,62.9959435 182.996222,63.3619435 182.736222,63.4459435 C177.106222,65.2739435 175.186222,64.1399435 173.926222,58.3729435 C172.966222,53.9559435 172.746222,49.5159435 173.266222,45.0309435 C173.466222,43.3109435 173.636222,41.5869435 173.816222,39.8029435 C173.226222,39.5569435 172.806222,39.2479435 172.396222,39.2519435 C171.976222,39.2569435 171.556222,39.5669435 171.356222,39.6489435 C171.416222,47.1579435 171.516222,54.4829435 171.486222,61.8069435 C171.486222,63.7109435 171.086222,65.6169435 170.826222,67.5169435 C170.686222,68.5619435 169.966222,69.2179435 169.056222,69.6199435 C165.196222,71.3189435 161.976222,70.1299435 161.316222,65.6319435 C161.176222,64.6859435 161.086222,63.7159435 161.126222,62.7649435 C161.496222,55.1259435 160.936222,47.4249435 162.786222,39.9689435 C161.286222,38.8759435 159.966222,39.4979435 158.316222,39.6989435 C158.396222,41.3529435 158.446222,42.7489435 158.516222,44.1459435 C158.716222,48.2929435 159.096222,52.4419435 159.066222,56.5869435 C159.036222,62.2389435 158.636222,62.5359435 152.736222,63.3249435 C151.366222,63.5079435 149.946222,63.3129435 148.336222,63.2889435 C146.046222,55.6749435 146.916222,48.2759435 148.026222,40.6989435 C145.296222,40.2389435 142.916222,40.2459435 140.566222,40.5749435 C129.966222,42.0519435 119.246222,42.7559435 108.816222,45.3729435 C105.256222,46.2669435 103.826222,45.5639435 102.096222,42.4959435 C99.596222,38.0429435 97.386222,33.3899435 94.536222,29.1669435 C91.146222,24.1399435 88.686222,18.4769435 84.436222,14.0479435 C81.476222,10.9679435 78.376222,8.02594349 75.106222,4.78494349 C72.346222,9.51094349 69.776222,13.9249435 68.616222,18.9299435 C67.096222,25.4629435 65.796222,32.0459435 64.486222,38.6269435 C63.836222,41.9179435 63.406222,45.2519435 62.866222,48.5649435 C62.736222,49.3529435 62.366222,50.1609435 62.466222,50.9149435 C62.956222,54.6919435 61.206222,57.6139435 59.306222,60.6589435 C51.736222,72.7649435 45.796222,85.6699435 40.956222,99.0899435 C40.466222,100.437943 40.046222,101.808943 39.526222,103.384943 C40.346222,103.885943 41.106222,104.407943 41.916222,104.842943 C44.306222,106.128943 46.736222,107.322943 49.086222,108.679943 C49.836222,109.111943 50.346222,109.943943 51.056222,110.681943 C48.426222,111.690943 48.416222,111.714943 44.536222,110.563943 C42.416222,109.935943 40.326222,109.205943 38.096222,108.482943 C36.006222,112.366943 35.316222,116.479943 33.916222,120.381943 C34.526222,121.028943 35.156222,121.540943 35.606222,122.179943 C36.736222,123.784943 36.216222,125.153943 34.276222,125.799943 C33.676222,125.997943 33.036222,126.058943 32.086222,126.245943 C31.026222,129.289943 29.936222,132.423943 28.876222,135.445943 C29.246222,135.858943 29.416222,136.180943 29.666222,136.297943 C30.766222,136.805943 32.456222,136.755943 32.386222,138.473943 C32.326222,139.794943 30.916222,139.988943 29.936222,140.457943 C29.086222,140.872943 28.186222,141.200943 27.326222,141.557943 C23.356222,149.271943 13.656222,190.470943 12.966222,202.681943 C13.686222,202.814943 14.436222,203.094943 15.176222,203.069943 C21.556222,202.850943 27.946222,202.489943 34.336222,202.349943 C38.486222,202.258943 42.636222,202.476943 46.796222,202.532943 C48.556222,202.555943 50.316222,202.584943 52.066222,202.491943 C56.896222,202.235943 61.606222,202.909943 66.476222,204.089943 C67.516222,206.076943 67.846222,208.235943 67.486222,210.489943 C67.066222,213.164943 65.296222,214.757943 62.586222,214.757943 C53.806222,214.757943 45.016222,214.686943 36.226222,214.649943 C35.106222,214.645943 33.996222,214.660943 32.876222,214.709943 C32.076222,214.745943 31.276222,214.943943 30.486222,214.913943 C26.186222,214.750943 21.886222,214.594943 17.586222,214.312943 C16.336222,214.230943 15.126222,213.704943 13.876222,213.457943 C12.986222,213.281943 12.066222,213.230943 11.066222,213.113943 C10.056222,215.040943 9.98622199,216.868943 10.076222,219.102943 C22.036222,218.616943 33.776222,218.567943 45.376222,220.913943 C45.956222,222.535943 46.626222,223.840943 46.886222,225.222943 C47.786222,230.089943 44.636222,232.594943 41.126222,232.877943 C40.166222,232.953943 39.206222,232.965943 38.246222,232.903943 C31.076222,232.429943 23.906222,231.950943 16.726222,231.426943 C14.196222,231.241943 11.676222,230.924943 8.93622199,230.646943 C7.60622199,232.416943 7.46622199,234.341943 7.89622199,236.650943 C8.60622199,236.689943 9.22622199,236.852943 9.79622199,236.736943 C13.916222,235.885943 18.066222,236.086943 22.206222,236.478943 C23.616222,236.612943 25.046222,236.991943 26.366222,237.516943 C30.436222,239.128943 31.606222,244.484943 28.766222,247.822943 C26.976222,249.934943 24.736222,250.888943 22.026222,250.780943 C18.026222,250.619943 14.036222,250.413943 10.046222,250.217943 C8.95622199,250.162943 7.86622199,250.073943 6.60622199,249.988943 C6.30622199,251.063943 5.90622199,251.941943 5.83622199,252.845943 C5.16622199,261.773943 4.20622199,270.697943 3.98622199,279.637943 C3.71622199,290.821943 3.76622199,302.031943 4.23622199,313.205943 C4.68622199,323.739943 5.85622199,334.239943 6.69622199,344.749943 C6.76622199,345.699943 6.68622199,346.659943 6.67622199,347.609943 C6.03622199,347.609943 5.39622199,347.609943 4.75622199,347.609943"/>
    <path fill="#1A1919" d="M173.806222 85.0269435C173.806222 90.0119435 173.816222 94.6399435 173.806222 99.2679435 173.786222 118.780943 173.756222 138.291943 173.756222 157.804943 173.756222 160.682943 173.886222 163.560943 173.986222 166.437943 174.506222 181.453943 174.706222 196.476943 174.236222 211.492943 173.996222 218.994943 173.116222 226.474943 172.736222 233.974943 172.256222 243.555943 172.046222 253.149943 171.626222 262.734943 171.266222 271.036943 170.746222 279.332943 170.356222 287.634943 170.236222 290.158943 169.746222 292.737943 171.016222 295.357943 172.316222 295.668943 173.696222 296.044943 175.086222 296.324943 178.166222 296.941943 181.116222 296.716943 183.846222 294.958943 184.916222 294.271943 186.086222 293.719943 187.256222 293.220943 187.636222 293.061943 188.356222 293.099943 188.576222 293.349943 188.956222 293.775943 189.326222 294.491943 189.226222 294.992943 189.086222 295.717943 188.676222 296.533943 188.116222 297.012943 184.156222 300.430943 179.586222 302.056943 174.356222 301.068943 171.946222 300.611943 169.796222 300.535943 167.456222 301.700943 164.656222 303.092943 161.476222 302.703943 158.486222 302.154943 156.706222 301.827943 155.326222 300.603943 154.746222 298.773943 154.446222 297.849943 154.346222 296.841943 155.256222 296.142943 156.106222 295.489943 157.136222 295.409943 157.896222 296.128943 160.306222 298.410943 162.826222 297.724943 165.646222 296.587943 165.796222 295.718943 166.036222 294.812943 166.076222 293.898943 166.696222 280.488943 167.316222 267.076943 167.886222 253.664943 168.236222 245.521943 168.466222 237.371943 168.846222 229.229943 169.106222 223.484943 169.756222 217.749943 169.846222 212.003943 170.016222 202.572943 169.856222 193.135943 169.856222 183.700943 169.856222 179.702943 170.066222 175.696943 169.876222 171.707943 169.096222 155.093943 169.346222 138.476943 169.456222 121.856943 169.526222 111.309943 169.186222 100.759943 169.146222 90.2109435 169.126222 87.1619435 168.426222 84.5659435 166.076222 82.4949435 163.316222 80.0539435 162.306222 77.0539435 163.506222 73.1879435 164.346222 72.8079435 165.296222 72.1959435 166.346222 71.9399435 169.186222 71.2439435 172.076222 71.4599435 174.916222 71.9749435 177.196222 72.3879435 178.166222 73.6409435 178.386222 75.9319435 178.586222 78.0839435 178.246222 80.0789435 176.746222 81.7489435 175.786222 82.8189435 174.826222 83.8919435 173.806222 85.0269435M246.916222 69.4309435C246.946222 71.8029435 246.606222 73.4089435 245.196222 74.7319435 242.276222 77.4559435 237.026222 76.4159435 235.806222 72.7239435 235.376222 71.3949435 235.136204 69.9379435 235.136204 68.5379435 235.126222 64.2979435 239.186222 61.3409435 243.296222 62.4759435 244.996222 62.9449435 245.956222 64.2139435 246.376222 65.7879435 246.746222 67.1479435 246.806222 68.5939435 246.916222 69.4309435M108.916295 75.9339435C108.706222 78.9649435 107.186222 81.2989435 104.786222 83.0299435 104.286222 83.3889435 103.196222 83.3549435 102.586222 83.0649435 99.006222 81.3669435 97.426222 78.4169435 97.716222 74.6289435 97.906222 72.3079435 99.146222 70.7319435 101.116222 69.8679435 103.016222 69.0369435 104.816222 69.7309435 106.376222 71.0339435 107.906222 72.3099435 108.926222 73.8419435 108.916295 75.9339435M232.646222 119.820943C232.236222 120.300943 231.786222 121.213943 231.066222 121.587943 230.116222 122.082943 229.156222 121.409943 228.726222 120.544943 228.166222 119.448943 227.706222 118.244943 227.516222 117.038943 227.306222 115.699943 228.326222 114.640943 229.676222 114.398943 230.786222 114.200943 231.666222 114.836943 232.056222 116.180943 232.226222 116.784943 232.336222 117.410943 232.446222 118.032943 232.516222 118.496943 232.546222 118.970943 232.646222 119.820943M103.406222 119.614943C103.916222 120.390943 104.616222 121.246943 105.076222 122.212943 105.636222 123.349943 105.216222 124.250943 104.036222 124.999943 103.036222 125.630943 101.896222 125.389943 101.156222 124.285943 100.536222 123.368943 99.866222 122.408943 100.426222 121.200943 100.946222 120.055943 101.906222 119.617943 103.406222 119.614943M108.766222 113.435943C107.256222 113.393943 106.416222 112.477943 106.566222 111.030943 106.706222 109.628943 107.826222 108.889943 109.706222 108.959943 110.836222 109.001943 111.756222 109.981943 111.746222 111.126943 111.736222 112.531943 110.506222 113.484943 108.766222 113.435943M239.566222 122.414943C237.326222 122.176943 235.956222 119.590943 236.986222 118.015943 237.346222 117.466943 238.256222 117.095943 238.966222 117.022943 239.426222 116.973943 240.266222 117.493943 240.416222 117.937943 240.766222 118.942943 240.986222 120.082943 240.866222 121.118943 240.796222 121.667943 239.886222 122.114943 239.566222 122.414943M215.046222 117.630943C214.316222 117.192943 213.576222 117.002943 213.356222 116.557943 212.966222 115.745943 212.696222 114.776943 212.726222 113.884943 212.766222 112.864943 213.566222 112.269943 214.606222 112.135943 215.656222 111.997943 216.476222 112.415943 216.756222 113.450943 216.956222 114.180943 217.176222 115.094943 216.906222 115.713943 216.586222 116.446943 215.736222 116.950943 215.046222 117.630943M128.036222 128.525943C127.466222 128.852943 126.756222 129.546943 125.976222 129.649943 124.606222 129.828943 123.436222 128.368943 123.496222 126.876943 123.536222 125.882943 124.746222 124.913943 125.806222 125.022943 127.006222 125.144943 128.166222 126.752943 128.036222 128.525943M237.676222 106.045943C236.576222 106.934943 235.416222 107.282943 234.406222 106.024943 233.666222 105.112943 233.866222 103.589943 234.636222 102.512943 235.166222 101.769943 236.616222 101.717943 237.096222 102.460943 237.796222 103.557943 238.136222 104.735943 237.676222 106.045943M225.616222 125.368943C225.696222 126.834943 225.096222 127.698943 223.936222 127.805943 222.726222 127.916943 221.866222 127.106943 221.796222 125.783943 221.716222 124.365943 222.716222 123.271943 224.076222 123.300943 224.956222 123.320943 225.556222 124.118943 225.616222 125.368943M223.446222 106.941943C224.596222 107.053943 225.566222 108.707943 225.416222 110.319943 225.346222 111.093943 224.166222 111.971943 223.306222 111.884943 222.166222 111.769943 221.236222 110.454943 221.276222 109.036943 221.316222 107.869943 222.386222 106.836943 223.446222 106.941943M120.346222 118.420943C118.826222 118.519943 117.666222 117.331943 117.476222 115.941943 117.356222 115.095943 118.226222 113.978943 119.096222 113.866943 120.336222 113.705943 122.076222 115.299943 121.766222 116.569943 121.576222 117.345943 120.726222 117.958943 120.346222 118.420943M115.636222 128.666943C116.666222 128.768943 117.296222 129.896943 117.066222 131.227943 116.896222 132.208943 115.956222 132.844943 114.976222 132.634943 113.996222 132.425943 113.346222 131.575943 113.396222 130.581943 113.456222 129.413943 114.466222 128.550943 115.636222 128.666943M112.176222 120.455943C112.176222 121.933943 111.376222 122.799943 110.446222 122.788943 109.336222 122.775943 108.376222 121.683943 108.496222 120.565943 108.606222 119.631943 109.676222 118.641943 110.466222 118.992943 111.216222 119.324943 111.766222 120.087943 112.176222 120.455943"/>
  </g>
</svg>
