<svg xmlns="http://www.w3.org/2000/svg" width="488" height="664" viewBox="0 0 488 664">
  <g fill="none" fill-rule="evenodd" transform="translate(.15 .71)">
    <path fill="#D7A9FF" d="M431.249144 379.595447C431.249144 380.026447 431.279144 380.822447 431.239144 381.615447 431.169144 383.020447 431.819144 384.826447 430.649144 385.710447 429.189144 386.811447 427.819144 388.141447 425.899144 388.704447 423.199144 389.490447 420.439144 389.541447 417.879144 388.947447 415.119144 388.309447 412.599144 388.298447 409.919144 389.034447 408.739144 389.360447 407.399144 389.196447 406.129144 389.140447 404.679144 389.076447 403.829144 388.269447 403.549144 386.810447 403.129144 384.639447 402.839144 382.417447 402.139144 380.338447 401.519144 378.501447 401.909144 376.898447 402.479144 375.247447 402.679144 374.668447 403.029144 373.753447 403.429144 373.691447 406.329144 373.235447 406.909144 369.422447 409.879144 369.250447 415.599144 368.919447 421.309144 368.916447 426.739144 371.159447 427.039144 371.280447 427.319144 371.428447 427.609144 371.556447 429.029144 372.192447 431.139144 372.102447 431.679144 373.668447 432.149144 375.028447 431.619144 376.741447 431.509144 378.297447 431.489144 378.611447 431.389144 378.920447 431.249144 379.595447M254.619144 433.435447C254.309144 436.487447 252.739144 439.259447 250.609144 441.671447 247.119144 445.641447 242.849144 448.743447 238.579144 451.822447 237.379144 452.690447 236.399144 452.538447 235.089144 451.858447 231.939144 450.224447 230.289144 447.261447 228.239144 444.654447 227.399144 443.576447 227.689144 442.158447 228.369144 441.012447 229.419144 439.234447 230.399144 437.363447 231.759144 435.833447 235.249144 431.888447 238.939144 428.161447 243.669144 425.607447 245.459144 424.645447 246.959144 424.700447 248.619144 425.640447 250.749144 426.848447 252.279144 428.691447 253.889144 430.465447 254.569144 431.224447 254.629144 432.203447 254.619144 433.435447"/>
    <path fill="#1A1919" d="M308.439144,592.642447 C308.569144,595.349447 309.159144,598.162447 311.109144,600.414447 C312.979144,602.568447 314.969144,604.638447 317.079144,606.562447 C320.029144,609.268447 323.889144,608.828447 327.459144,608.922447 C329.409144,608.973447 330.719144,606.784447 330.509144,604.783447 C330.439144,604.165447 330.339144,603.449447 329.989144,602.979447 C326.189144,597.899447 322.489144,592.736447 318.429144,587.866447 C316.649144,585.723447 313.759144,585.792447 311.319144,586.836447 C309.039144,587.814447 308.479144,590.083447 308.439144,592.642447 Z M452.509144,540.528447 C452.059144,538.203447 451.929144,535.752447 451.089144,533.581447 C449.699144,529.994447 445.459144,529.556447 442.979144,532.553447 C442.489144,533.153447 442.099144,533.898447 441.859144,534.641447 C440.719144,538.114447 439.559144,541.586447 438.579144,545.104447 C437.699144,548.247447 438.049144,551.395447 438.819144,554.550447 C439.269144,556.362447 440.179144,557.732447 441.569144,558.885447 C443.579144,560.556447 445.269144,560.537447 446.979144,558.665447 C447.619144,557.973447 448.199144,557.169447 448.569144,556.313447 C450.719144,551.296447 452.159144,546.103447 452.509144,540.528447 Z M253.129144,564.369447 C256.899144,562.936447 260.049144,560.779447 263.049144,558.400447 C268.369144,554.185447 274.239144,551.069447 280.719144,548.993447 C284.049144,547.928447 287.259144,546.405447 290.399144,544.841447 C300.999144,539.560447 311.999144,535.243447 322.949144,530.770447 C330.189144,527.809447 337.459144,524.903447 344.699144,521.926447 C348.089144,520.528447 351.399144,518.903447 354.819144,517.583447 C365.849144,513.331447 376.939144,509.223447 387.959144,504.964447 C399.149144,500.643447 410.399144,496.538447 422.009144,493.515447 C430.489144,491.306447 438.709144,488.118447 447.529144,487.129447 C456.019144,486.178447 464.399144,485.748447 472.739144,488.194447 C474.979144,488.851447 477.409144,488.843447 479.909144,489.159447 C480.049144,488.208447 480.219144,487.597447 480.219144,486.986447 C480.279144,480.893447 479.629144,474.855447 478.769144,468.836447 C477.749144,461.707447 475.879144,454.780447 474.019144,447.831447 C470.199144,433.558447 464.819144,419.904447 458.199144,406.738447 C456.059144,402.470447 453.319144,398.498447 450.819144,394.409447 C449.399144,392.095447 447.879144,389.842447 446.479144,387.521447 C442.239144,380.532447 437.799144,373.704447 431.569144,368.259447 C430.849144,367.631447 430.159144,366.928447 429.599144,366.157447 C426.569144,361.987447 422.679144,358.681447 418.939144,355.185447 C413.569144,350.177447 407.449144,346.596447 400.669144,343.996447 C399.649144,343.605447 398.689144,343.053447 397.669144,342.561447 C397.619144,341.600447 397.479144,340.808447 397.549144,340.034447 C397.969144,335.384447 397.859144,330.738447 396.799144,326.202447 C393.899144,313.911447 390.689144,301.709447 385.449144,290.156447 C384.199144,287.395447 382.599144,284.794447 381.339144,282.033447 C378.159144,275.010447 374.219144,268.454447 369.579144,262.302447 C363.939144,254.823447 357.799144,247.976447 348.519144,244.902447 C347.189144,244.462447 346.769144,243.201447 347.419144,241.754447 C348.199144,240.005447 349.099144,238.305447 349.979144,236.600447 C353.139144,230.474447 355.629144,224.126447 357.279144,217.393447 C358.599144,212.011447 358.019144,206.983447 356.139144,201.908447 C355.189144,199.339447 353.459144,197.953447 350.819144,197.809447 C349.249144,197.723447 347.619144,197.809447 346.089144,198.156447 C339.099144,199.748447 334.719144,204.249447 332.339144,210.877447 C331.629144,212.832447 330.819144,214.750447 330.199144,216.730447 C328.599144,221.896447 326.299144,226.880447 326.299144,232.470447 C326.299144,234.739447 325.309144,235.550447 322.989144,235.648447 C321.879144,235.695447 320.759144,235.442447 319.649144,235.404447 C316.299144,235.289447 312.919144,234.893447 309.609144,235.193447 C303.889144,235.713447 298.179144,236.448447 292.669144,238.303447 C288.739144,239.629447 284.719144,240.719447 280.799144,242.092447 C272.939144,244.844447 265.289144,248.164447 258.149144,252.411447 C249.299144,257.664447 241.269144,263.945447 235.719144,272.889447 C234.859144,274.278447 233.349144,274.184447 232.099144,272.883447 C230.779144,271.502447 229.509144,270.059447 228.109144,268.764447 C225.039144,265.927447 221.349144,263.975447 217.779144,261.883447 C215.859144,260.758447 213.869144,259.670447 211.779144,258.927447 C207.989144,257.579447 204.129144,256.809447 200.069144,258.155447 C194.979144,259.846447 192.309144,264.160447 193.729144,269.289447 C196.199144,278.184447 200.939144,285.566447 208.579144,290.978447 C210.759144,292.520447 213.239144,293.755447 214.909144,296.121447 C214.759144,296.770447 214.629144,297.379447 214.489144,297.988447 C212.949144,304.889447 212.239144,311.864447 212.579144,318.940447 C212.729144,322.091447 213.009144,325.221447 213.019144,328.398447 C213.069144,336.869447 214.169144,345.304447 216.119144,353.553447 C217.909144,361.164447 220.119144,368.680447 222.269144,376.203447 C223.099144,379.115447 224.179144,381.965447 225.289144,384.787447 C226.619144,388.195447 228.109144,391.546447 229.539144,394.944447 C229.029144,395.572447 228.569144,396.022447 228.259144,396.558447 C227.859144,397.237447 227.509144,397.961447 227.259144,398.707447 C224.349144,407.556447 222.759144,416.683447 221.899144,425.927447 C220.919144,436.589447 220.239144,447.254447 220.529144,458.001447 C220.819144,468.425447 222.089144,478.715447 223.479144,489.004447 C224.739144,498.376447 227.399144,507.439447 230.139144,516.467447 C230.979144,519.218447 231.669144,522.038447 232.809144,524.666447 C238.319144,537.445447 244.529144,549.883447 251.489144,561.945447 C251.949144,562.759447 252.539144,563.507447 253.129144,564.369447 Z M157.679144,663.340447 C157.739144,662.240447 157.549144,661.040447 157.899144,660.040447 C160.559144,652.520447 163.329144,645.040447 166.069144,637.540447 C166.349144,636.788447 166.659144,636.050447 166.909144,635.293447 C169.449144,627.882447 171.969144,620.470447 174.489144,613.055447 C176.349144,607.591447 177.589144,602.009447 178.319144,596.264447 C178.939144,591.363447 179.989144,586.502447 181.109144,581.682447 C182.959144,573.733447 184.549144,565.751447 185.639144,557.658447 C186.579144,550.690447 187.759144,543.756447 188.749144,536.794447 C189.329144,532.681447 189.839144,528.551447 190.229144,524.414447 C191.579144,510.255447 192.839144,496.087447 194.189144,481.927447 C194.379144,479.865447 194.859144,477.831447 195.199144,475.783447 C196.039144,470.580447 197.019144,465.392447 197.699144,460.168447 C199.239144,448.439447 200.649144,436.704447 201.159144,424.861447 C201.419144,418.806447 202.439144,412.783447 203.109144,406.745447 C204.369144,395.306447 205.879144,383.898447 205.759144,372.338447 C205.689144,364.988447 206.239144,357.635447 206.369144,350.281447 C206.409144,348.132447 207.009144,345.804447 205.339144,343.876447 C205.199144,343.716447 205.239144,343.187447 205.389144,343.019447 C207.089144,341.207447 205.319144,339.402447 205.569144,337.643447 C201.559144,336.576447 198.669144,336.651447 194.689144,337.483447 C184.689144,339.575447 174.699144,341.793447 164.619144,343.514447 C158.339144,344.588447 151.909144,344.805447 145.499144,344.655447 C140.069144,344.528447 134.619144,344.578447 129.199144,344.192447 C125.889144,343.956447 122.499144,343.406447 119.359144,342.355447 C114.069144,340.584447 108.999144,338.166447 103.739144,336.267447 C95.6591435,333.349447 89.3991435,328.049447 83.8391435,321.721447 C74.7591435,311.374447 66.5391435,300.366447 58.6291435,289.118447 C53.5591435,281.926447 48.4191435,274.796447 43.4091435,267.565447 C38.0391435,259.799447 33.4291435,251.612447 29.4291435,243.024447 C23.8891435,231.143447 18.5291435,219.194447 13.5491435,207.074447 C11.1791435,201.311447 8.73914354,195.564447 6.71914354,189.677447 C4.69914354,183.791447 3.16914354,177.737447 1.41914354,171.759447 C-0.940856464,163.668447 -0.0608564636,155.636447 1.89914354,147.638447 C2.71914354,144.316447 4.70914354,141.565447 6.52914354,138.746447 C7.33914354,137.482447 8.60914354,136.726447 10.0591435,136.433447 C15.2791435,135.375447 20.1291435,135.844447 24.5591435,139.337447 C29.3791435,143.139447 32.9991435,147.901447 34.6391435,153.626447 C38.8591435,168.311447 45.3291435,182.025447 51.7991435,195.759447 C56.3591435,205.444447 61.1491435,215.022447 65.6791435,224.722447 C67.7691435,229.204447 69.7491435,233.775447 71.3091435,238.461447 C73.6991435,245.602447 76.8391435,252.417447 79.6691435,259.366447 C79.9091435,259.957447 80.2991435,260.493447 80.5091435,261.094447 C84.0391435,271.453447 89.7891435,280.708447 94.9791435,290.240447 C96.7391435,293.467447 98.2291435,296.845447 100.069144,300.016447 C102.559144,304.295447 105.209144,308.488447 107.939144,312.615447 C108.699144,313.764447 109.869144,314.852447 111.109144,315.439447 C113.829144,316.738447 116.709144,317.737447 119.559144,318.768447 C120.099144,318.965447 120.789144,318.746447 121.269144,318.724447 C124.279144,315.383447 124.319144,311.899447 123.099144,307.904447 C120.529144,299.495447 118.209144,291.005447 114.699144,282.925447 C111.769144,276.186447 108.869144,269.414447 105.519144,262.886447 C102.369144,256.769447 99.1291435,250.717447 96.6091435,244.311447 C93.1091435,235.393447 89.4291435,226.533447 86.2491435,217.501447 C83.5391435,209.824447 81.4291435,201.939447 79.0491435,194.146447 C78.7791435,193.229447 78.5391435,192.299447 78.2591435,191.384447 C75.9291435,183.896447 74.0291435,176.348447 73.3291435,168.481447 C72.8691435,163.376447 72.2391435,158.358447 72.9991435,153.212447 C73.5691435,149.430447 73.5491435,145.563447 73.8191435,141.737447 C74.1791435,136.776447 76.2891435,132.517447 79.2891435,128.673447 C81.8391435,125.400447 85.4091435,124.122447 89.4291435,124.155447 C93.4791435,124.189447 96.3291435,126.386447 98.3291435,129.748447 C98.9791435,130.837447 99.4891435,132.045447 99.8491435,133.261447 C103.329144,144.908447 106.389144,156.623447 107.729144,168.775447 C108.749144,177.979447 110.519144,187.099447 111.949144,196.258447 C112.319144,198.625447 112.729144,200.986447 113.039144,203.361447 C114.369144,213.694447 117.229144,223.694447 119.729144,233.764447 C124.159144,251.606447 129.589144,269.163447 135.519144,286.559447 C137.889144,293.517447 140.499144,300.408447 143.909144,306.932447 C145.819144,310.604447 148.059144,314.124447 150.349144,317.588447 C152.029144,320.136447 154.239144,322.228447 156.929144,323.779447 C158.719144,324.806447 160.409144,325.996447 162.199144,327.147447 C163.329144,326.524447 164.279144,325.940447 165.279144,325.470447 C171.579144,322.498447 173.149144,317.172447 172.649144,310.786447 C172.249144,305.500447 171.189144,300.334447 169.649144,295.276447 C168.259144,290.692447 166.809144,286.117447 165.159144,281.619447 C156.919144,259.105447 148.719144,236.578447 140.289144,214.136447 C133.129144,195.088447 127.399144,175.659447 123.659144,155.654447 C122.229144,147.963447 120.819144,140.264447 119.519144,132.548447 C119.149144,130.356447 119.109144,128.091447 119.109144,125.859447 C119.099144,122.822447 119.199144,119.781447 119.369144,116.747447 C119.449144,115.163447 119.629144,113.554447 120.019144,112.020447 C121.229144,107.243447 123.489144,105.239447 128.359144,104.806447 C129.549144,104.701447 130.959144,105.040447 131.989144,105.650447 C134.609144,107.203447 136.899144,109.170447 138.459144,111.905447 C143.349144,120.462447 146.739144,129.533447 148.119144,139.317447 C148.209144,139.951447 148.279144,140.596447 148.449144,141.208447 C151.709144,152.828447 152.329144,164.839447 153.769144,176.729447 C154.809144,185.299447 155.849144,193.872447 157.139144,202.405447 C158.649144,212.396447 161.929144,221.942447 164.979144,231.534447 C166.729144,237.022447 168.899144,242.340447 171.159144,247.642447 C175.909144,258.808447 181.059144,269.823447 184.899144,281.359447 C186.829144,287.128447 188.599144,292.959447 188.949144,299.066447 C189.119144,302.151447 189.839144,305.057447 190.719144,307.966447 C191.519144,310.565447 192.279144,313.173447 193.039144,315.781447 C194.129144,319.514447 196.609144,321.763447 200.399144,322.483447 C202.729144,322.927447 205.099144,323.339447 207.609144,322.102447 C207.779144,317.950447 207.839144,313.827447 208.149144,309.722447 C208.439144,305.756447 208.979144,301.808447 209.439144,297.604447 C208.229144,296.729447 206.979144,295.760447 205.659144,294.882447 C201.189144,291.897447 197.819144,287.940447 194.909144,283.451447 C192.159144,279.231447 190.259144,274.741447 189.049144,269.891447 C187.489144,263.688447 191.209144,256.580447 197.149144,254.302447 C204.099144,251.639447 210.709144,252.852447 217.049144,256.080447 C222.029144,258.617447 226.759144,261.600447 231.069144,265.214447 C232.019144,266.014447 233.039144,266.738447 234.049144,267.516447 C237.049144,264.585447 239.889144,261.789447 242.749144,259.018447 C248.659144,253.291447 255.439144,248.825447 262.859144,245.312447 C272.689144,240.658447 282.659144,236.368447 293.199144,233.526447 C301.909144,231.180447 310.669144,229.709447 319.719144,230.932447 C320.329144,231.015447 320.969144,230.943447 321.589144,230.943447 C321.889144,230.411447 322.259144,230.028447 322.319144,229.600447 C323.429144,222.100447 326.189144,215.079447 329.009144,208.148447 C331.059144,203.096447 334.309144,198.635447 339.609144,196.227447 C343.439144,194.489447 347.349144,193.219447 351.639144,193.765447 C355.609144,194.271447 358.469144,196.213447 359.969144,200.030447 C362.129144,205.510447 362.859144,211.043447 361.699144,216.932447 C360.259144,224.223447 357.699144,231.052447 354.379144,237.642447 C353.889144,238.614447 353.439144,239.611447 353.049144,240.451447 C353.339144,240.969447 353.429144,241.352447 353.669144,241.500447 C356.099144,243.015447 358.549144,244.493447 360.819144,245.878447 C361.389144,245.821447 361.759144,245.886447 362.009144,245.744447 C367.079144,242.912447 372.659144,241.485447 378.189144,239.919447 C381.649144,238.939447 384.639144,237.128447 387.379144,234.891447 C390.059144,232.707447 391.209144,230.045447 390.349144,226.440447 C389.109144,221.291447 387.759144,216.212447 385.109144,211.585447 C384.079144,209.785447 383.019144,207.979447 381.739144,206.360447 C376.879144,200.222447 371.839144,194.227447 367.039144,188.048447 C363.209144,183.123447 359.709144,177.964447 356.849144,172.388447 C355.039144,168.834447 353.239144,165.264447 351.269144,161.798447 C347.219144,154.697447 343.809144,147.313447 340.889144,139.683447 C338.439144,133.266447 335.609144,126.978447 333.459144,120.465447 C329.699144,109.095447 326.509144,97.5394473 322.749144,86.1694473 C319.609144,76.6554473 318.359144,66.8894473 317.719144,56.9744473 C317.389144,51.8624473 317.049144,46.7714473 317.739144,41.6554473 C318.289144,37.5254473 319.899144,34.0414473 323.039144,31.2174473 C325.809144,28.7174473 328.939144,26.8794473 332.369144,25.4744473 C334.769144,24.4924473 337.019144,24.6604473 339.229144,26.0514473 C342.649144,28.2044473 345.699144,30.7224473 347.839144,34.2334473 C352.009144,41.0824473 355.619144,48.2154473 357.899144,55.9144473 C360.299144,64.0304473 362.599144,72.1864473 364.539144,80.4224473 C365.999144,86.6334473 366.779144,93.0034473 367.929144,99.2884473 C370.359144,112.491447 373.179144,125.605447 376.509144,138.615447 C379.249144,149.291447 381.559144,160.075447 384.339144,170.738447 C386.799144,180.159447 388.949144,189.697447 393.419144,198.481447 C394.579144,200.748447 395.169144,203.294447 396.259144,205.603447 C398.839144,211.097447 401.549144,216.528447 404.219144,221.976447 C404.499144,222.547447 404.869144,223.080447 405.239144,223.602447 C407.829144,227.285447 411.809144,227.557447 414.819144,224.182447 C416.929144,221.818447 417.909144,218.883447 417.929144,215.804447 C417.979144,210.524447 417.589144,205.255447 416.059144,200.147447 C412.399144,187.908447 408.669144,175.687447 405.059144,163.430447 C403.309144,157.456447 401.769144,151.419447 400.149144,145.404447 C399.359144,142.472447 398.689144,139.509447 397.859144,136.591447 C394.729144,125.668447 392.649144,114.509447 390.369144,103.398447 C388.349144,93.5304473 386.149144,83.7104473 383.359144,74.0284473 C380.289144,63.3824473 378.619144,52.4924473 377.899144,41.4644473 C377.629144,37.3254473 377.759144,33.1514473 377.899144,28.9994473 C377.999144,25.7814473 378.739144,22.6834473 380.409144,19.8454473 C383.499144,14.5934473 389.419144,12.2284473 395.249144,13.9494473 C397.489144,14.6114473 399.329144,15.7804473 400.499144,17.8424473 C401.289144,19.2314473 402.089144,20.6264473 402.699144,22.0964473 C407.569144,33.9584473 411.299144,46.1124473 413.179144,58.8654473 C414.809144,69.9474473 415.889144,81.0734473 417.069144,92.1994473 C418.299144,103.793447 419.679144,115.369447 422.159144,126.803447 C423.439144,132.719447 424.049144,138.779447 425.589144,144.670447 C428.009144,153.945447 430.279144,163.261447 432.599144,172.564447 C433.829144,177.523447 435.129144,182.470447 436.199144,187.464447 C436.899144,190.719447 438.799144,193.304447 440.559144,195.928447 C441.969144,198.028447 444.179144,199.030447 446.849144,198.298447 C447.779144,198.044447 448.709144,197.819447 450.059144,197.474447 C452.539144,192.987447 455.269144,188.308447 457.739144,183.492447 C459.359144,180.321447 459.729144,176.755447 459.939144,173.236447 C460.289144,167.651447 460.539144,162.060447 460.759144,156.469447 C461.179144,145.525447 459.759144,134.867447 456.739144,124.290447 C454.079144,115.003447 449.919144,106.382447 446.219144,97.5574473 C442.879144,89.6014473 439.149144,81.8124473 435.539144,73.9734473 C434.199144,71.0744473 432.779144,68.2134473 431.289144,65.3884473 C425.779144,54.8944473 420.679144,44.2204473 417.949144,32.6164473 C416.739144,27.4934473 415.939144,22.2684473 415.129144,17.0624473 C414.659144,14.0344473 415.069144,11.0034473 415.889144,8.0384473 C416.599144,5.4784473 418.079144,3.4044473 420.059144,1.7354473 C421.849144,0.228447302 423.949144,-0.435552698 426.319144,0.302447302 C427.689144,0.729447302 429.069144,1.1344473 430.449144,1.5194473 C434.319144,2.5964473 437.339144,4.8994473 439.509144,8.2044473 C440.909144,10.3344473 442.129144,12.6024473 443.249144,14.8984473 C446.389144,21.3674473 449.549144,27.8334473 452.479144,34.4014473 C454.099144,38.0364473 455.409144,41.8294473 456.619144,45.6274473 C458.559144,51.7174473 460.139144,57.9254473 462.169144,63.9854473 C465.029144,72.5344473 466.369144,81.3674473 467.669144,90.2284473 C468.179144,93.7044473 468.949144,97.1424473 469.479144,100.615447 C470.359144,106.299447 470.969144,112.030447 472.009144,117.682447 C473.429144,125.377447 475.369144,132.979447 476.679144,140.691447 C477.899144,147.923447 479.359144,155.145447 479.529144,162.525447 C479.559144,163.962447 479.749144,165.394447 479.849144,166.829447 C480.659144,178.343447 478.169144,189.114447 472.059144,198.885447 C469.019144,203.748447 465.679144,208.449447 461.899144,212.822447 C457.549144,217.837447 452.369144,221.812447 447.029144,225.605447 C441.159144,229.767447 435.139144,233.718447 429.259144,237.854447 C425.969144,240.168447 422.539144,242.195447 418.769144,243.597447 C415.329144,244.878447 411.859144,246.082447 408.379144,247.263447 C401.269144,249.674447 394.129144,251.999447 387.039144,254.454447 C382.689144,255.962447 378.389144,257.642447 373.749144,259.365447 C374.259144,260.331447 374.569144,261.187447 375.109144,261.875447 C379.039144,266.970447 381.989144,272.610447 384.739144,278.406447 C387.619144,284.464447 390.999144,290.280447 393.149144,296.681447 C396.359144,306.230447 399.209144,315.885447 401.239144,325.751447 C401.919144,329.017447 401.919144,332.423447 402.229144,335.764447 C402.349144,337.034447 402.449144,338.304447 402.579144,339.775447 C403.859144,340.366447 405.139144,340.981447 406.439144,341.557447 C412.029144,344.042447 417.159144,347.225447 421.679144,351.400447 C425.669144,355.090447 429.889144,358.537447 433.039144,363.045447 C433.769144,364.082447 434.739144,364.957447 435.659144,365.847447 C441.559144,371.565447 446.389144,378.082447 450.389144,385.257447 C452.019144,388.182447 453.919144,390.972447 455.839144,393.718447 C459.349144,398.715447 462.179144,404.059447 464.659144,409.628447 C468.499144,418.242447 472.459144,426.805447 475.169144,435.864447 C477.239144,442.753447 479.459144,449.607447 481.159144,456.587447 C482.439144,461.852447 483.159144,467.272447 483.839144,472.660447 C484.409144,477.254447 484.649144,481.896447 484.869144,486.524447 C484.969144,488.792447 484.989144,490.991447 486.929144,492.697447 C484.979144,495.492447 484.899144,498.484447 484.959144,501.557447 C485.119144,510.048447 484.639144,518.503447 482.979144,526.852447 C481.669144,533.455447 479.449144,539.796447 477.349144,546.177447 C475.449144,551.966447 473.269144,557.613447 470.099144,562.845447 C469.609144,563.664447 469.139144,564.513447 468.769144,565.392447 C465.799144,572.398447 461.269144,578.445447 456.499144,584.222447 C453.269144,588.129447 449.159144,591.315447 445.359144,594.733447 C441.559144,598.152447 437.539144,601.338447 433.819144,604.845447 C428.669144,609.707447 422.959144,613.856447 416.909144,617.387447 C412.539144,619.936447 407.519144,621.374447 402.789144,623.308447 C399.839144,624.516447 396.889144,625.735447 393.929144,626.935447 C391.419144,627.955447 388.909144,628.981447 386.379144,629.952447 C384.879144,630.528447 383.369144,630.963447 381.729144,630.245447 C381.199144,630.013447 380.449144,630.021447 379.879144,630.190447 C376.109144,631.306447 372.269144,630.882447 368.439144,630.848447 C365.119144,630.819447 361.789144,630.843447 358.319144,630.843447 C358.319144,641.690447 358.319144,652.520447 358.319144,663.340447 C356.399144,663.340447 354.479144,663.340447 352.559144,663.340447 C352.279144,660.970447 351.829144,658.610447 351.779144,656.240447 C351.629144,649.840447 351.669144,643.450447 351.589144,637.052447 C351.559144,634.680447 351.669144,632.270447 350.649144,629.876447 C349.239144,629.597447 347.849144,629.183447 346.449144,629.071447 C337.799144,628.382447 329.429144,626.350447 321.169144,623.801447 C311.789144,620.905447 303.019144,616.670447 294.959144,611.122447 C289.439144,607.323447 284.379144,602.866447 278.949144,598.934447 C270.599144,592.897447 263.359144,585.735447 256.599144,578.018447 C254.049144,575.106447 251.849144,571.977447 250.019144,568.615447 C245.579144,560.483447 241.289144,552.265447 236.909144,544.099447 C229.159144,529.623447 223.999144,514.237447 220.679144,498.186447 C219.319144,491.608447 218.459144,484.967447 217.549144,478.321447 C216.139144,467.989447 215.869144,457.622447 216.089144,447.224447 C216.309144,436.669447 217.089144,426.173447 218.809144,415.729447 C219.639144,410.666447 220.539144,405.671447 222.279144,400.838447 C223.089144,398.593447 223.789144,396.306447 224.499144,394.155447 C223.779144,392.329447 223.209144,390.656447 222.469144,389.071447 C220.139144,384.142447 218.329144,379.028447 216.829144,373.800447 C215.329144,368.579447 213.839144,363.355447 212.319144,358.139447 C212.069144,357.288447 211.989144,356.253447 210.689144,356.036447 C210.569144,359.420447 210.349144,362.770447 210.339144,366.122447 C210.299144,377.495447 209.059144,388.773447 207.869144,400.061447 C207.009144,408.164447 206.279144,416.281447 205.609144,424.400447 C204.899144,432.840447 204.349144,441.293447 203.669144,449.734447 C203.479144,452.120447 203.099144,454.490447 202.789144,456.864447 C202.249144,460.981447 201.739144,465.103447 201.139144,469.211447 C200.229144,475.372447 199.119144,481.505447 198.359144,487.682447 C197.639144,493.550447 197.379144,499.472447 196.699144,505.347447 C194.989144,520.112447 193.109144,534.857447 191.409144,549.624447 C190.029144,561.543447 188.089144,573.360447 185.659144,585.107447 C184.689144,589.792447 183.929144,594.526447 183.269144,599.265447 C182.449144,605.151447 181.069144,610.891447 178.979144,616.434447 C175.319144,626.145447 172.739144,636.244447 168.399144,645.710447 C167.729144,647.150447 167.339144,648.720447 166.839144,650.230447 C165.379144,654.600447 163.929144,658.970447 162.479144,663.340447 C160.879144,663.340447 159.279144,663.340447 157.679144,663.340447 L157.679144,663.340447 Z"/>
    <path fill="#1A1919" d="M331.819144 305.293447C332.609144 305.585447 333.549144 305.640447 333.899144 306.124447 334.629144 307.139447 335.149144 308.346447 335.589144 309.536447 337.259144 314.079447 340.549144 317.317447 344.219144 320.190447 346.549144 322.011447 349.299144 322.782447 352.319144 322.561447 356.149144 322.281447 358.979144 320.527447 360.719144 317.094447 362.859144 312.868447 363.679144 308.357447 363.499144 303.649447 363.419144 301.574447 363.289144 299.501447 363.239144 297.426447 363.229144 296.854447 363.429144 296.278447 363.559144 295.511447 364.239144 295.779447 364.769144 295.829447 365.039144 296.120447 367.159144 298.417447 368.449144 301.149447 368.809144 304.245447 369.539144 310.500447 368.239144 316.303447 364.789144 321.617447 362.859144 324.593447 360.119144 326.280447 356.769144 327.279447 351.479144 328.857447 346.649144 327.901447 342.159144 324.914447 338.389144 322.402447 335.249144 319.222447 333.109144 315.198447 331.509144 312.202447 330.489144 309.052447 331.819144 305.293447M258.189144 327.348447C259.389144 328.370447 260.089144 328.767447 260.509144 329.363447 262.689144 332.422447 264.019144 335.817447 264.239144 339.591447 264.539144 344.499447 263.499144 349.138447 261.169144 353.447447 259.259144 356.981447 256.429144 359.317447 252.369144 360.260447 249.669144 360.887447 247.009144 361.255447 244.309144 360.800447 237.249144 359.615447 232.009144 353.591447 231.779144 346.460447 231.749144 345.696447 232.019144 344.895447 232.279144 344.157447 232.669144 343.061447 233.609144 342.491447 234.449144 342.706447 235.399144 342.949447 235.519144 343.734447 235.689144 344.528447 235.999144 345.929447 236.259144 347.356447 236.739144 348.699447 238.629144 353.954447 243.229144 356.683447 248.749144 356.000447 252.719144 355.507447 255.599144 353.692447 257.159144 349.838447 258.629144 346.202447 259.399144 342.523447 258.799144 338.609447 258.509144 336.713447 258.239144 334.813447 257.949144 332.915447 257.719144 331.348447 257.629144 329.791447 258.189144 327.348447M345.249144 212.264447C342.959144 212.972447 342.019144 214.671447 341.009144 216.270447 338.239144 220.659447 336.869144 225.582447 335.699144 230.567447 335.589144 231.025447 335.719144 231.558447 335.539144 231.974447 335.379144 232.368447 334.959144 232.921447 334.649144 232.929447 334.079144 232.943447 333.359144 232.750447 332.969144 232.370447 332.559144 231.972447 332.329144 231.266447 332.279144 230.672447 332.209144 229.891447 332.299144 229.071447 332.469144 228.299447 333.569144 223.268447 335.239144 218.428447 338.059144 214.105447 339.259144 212.266447 340.839144 210.573447 342.549144 209.196447 345.189144 207.078447 347.739144 207.804447 349.149144 210.834447 351.329144 215.506447 351.859144 220.192447 349.669144 225.108447 347.909144 229.039447 346.559144 233.150447 344.999144 237.169447 344.649144 238.055447 344.249144 238.932447 343.739144 239.737447 343.319144 240.424447 342.569144 241.080447 341.779144 240.604447 341.169144 240.240447 340.509144 239.401447 340.489144 238.752447 340.449144 237.688447 340.789144 236.559447 341.179144 235.541447 342.619144 231.819447 344.009144 228.068447 345.679144 224.448447 347.549144 220.387447 347.719144 216.491447 345.249144 212.264447M209.599144 266.535447C210.539144 266.840447 212.319144 267.147447 213.829144 267.962447 218.809144 270.645447 222.859144 274.517447 226.779144 278.524447 226.889144 278.638447 226.989144 278.764447 227.079144 278.897447 227.659144 279.761447 227.849144 280.655447 227.139144 281.532447 226.439144 282.398447 224.959144 282.676447 224.109144 281.950447 222.769144 280.814447 221.369144 279.672447 220.339144 278.276447 218.389144 275.628447 215.719144 273.878447 213.159144 271.990447 212.269144 271.338447 211.239144 270.828447 210.199144 270.445447 207.589144 269.484447 205.239144 271.380447 205.729144 274.126447 206.109144 276.319447 206.799144 278.360447 208.689144 279.953447 211.489144 282.317447 214.059144 284.964447 216.689144 287.526447 217.249144 288.070447 217.889144 288.917447 217.049144 289.523447 216.569144 289.874447 215.519144 289.781447 214.889144 289.505447 214.039144 289.131447 213.289144 288.450447 212.599144 287.795447 210.279144 285.594447 208.049144 283.300447 205.699144 281.129447 203.419144 279.018447 202.709144 276.200447 202.319144 273.371447 201.849144 269.877447 205.239144 266.491447 209.599144 266.535447"/>
  </g>
</svg>
