<svg xmlns="http://www.w3.org/2000/svg" width="231" height="909" viewBox="0 0 231 909">
  <g fill="none" fill-rule="evenodd" transform="translate(.47 .76)">
    <path fill="#D7A9FF" d="M225.339062 179.739867C225.819062 182.718867 225.179062 185.777867 226.209063 188.702867 225.189063 193.322867 225.379062 198.161867 222.869062 202.517867 220.659062 206.360867 219.079062 210.563867 217.219062 214.602867 216.479063 216.193867 215.609062 217.690867 214.649062 219.175867 211.399062 224.204867 206.609062 227.295867 201.499063 229.970867 198.659062 231.457867 195.909062 233.039867 193.259062 234.829867 190.089062 236.969867 186.929062 239.116867 183.719062 241.186867 181.279062 242.761867 178.519063 243.589867 175.689063 244.170867 175.239062 244.265867 174.739062 244.244867 174.269063 244.177867 170.499063 243.639867 166.689063 243.272867 162.979063 242.470867 159.099062 241.632867 155.779062 239.719867 154.409062 235.663867 153.719062 233.641867 152.499063 231.977867 151.259062 230.359867 149.079062 227.503867 147.779062 224.358867 147.279062 220.836867 147.199062 220.212867 146.899062 219.544867 147.029062 218.973867 148.129062 214.233867 147.529062 209.426867 147.629062 204.654867 147.739062 199.062867 148.449062 193.550867 149.289062 188.042867 149.439063 187.098867 149.529062 186.137867 149.539062 185.183867 149.569063 182.383867 150.389062 179.771867 151.929062 177.519867 153.139062 175.751867 153.839062 173.837867 154.339062 171.854867 155.199062 168.417867 156.709063 165.302867 158.459063 162.258867 160.789062 158.209867 163.729063 154.701867 167.149062 151.522867 169.969062 148.898867 173.099062 147.317867 177.009062 147.433867 179.089062 147.494867 181.169063 147.399867 183.239062 147.471867 185.349062 147.544867 187.379062 147.301867 189.359062 146.583867 192.389062 145.482867 195.499063 145.021867 198.719062 145.418867 199.189063 145.476867 199.819062 145.614867 200.129062 145.384867 202.969062 143.254867 204.389062 145.639867 205.979063 147.222867 207.109062 148.339867 208.049062 149.645867 209.109062 150.829867 210.499063 152.372867 211.659062 153.963867 212.439063 155.983867 213.829062 159.580867 216.249063 162.599867 218.919063 165.380867 220.469062 166.993867 221.969062 168.656867 223.579062 170.207867 224.819062 171.398867 225.409062 172.757867 225.359062 174.467867 225.299062 176.223867 225.339062 177.981867 225.339062 179.739867M93.8790625 194.795867C94.0290625 192.114867 93.5590625 189.373867 94.7490625 186.776867 95.1890625 185.833867 95.5990625 185.096867 96.7390625 185.042867 99.4390625 184.913867 102.119062 184.790867 104.809062 184.209867 106.819062 183.773867 108.869062 184.775867 110.829062 185.372867 111.889062 185.694867 112.769062 186.695867 112.899062 187.849867 113.299062 191.519867 115.019062 194.450867 117.569062 197.012867 118.119062 197.564867 118.459062 198.324867 118.859062 199.009867 119.099062 199.413867 119.519062 199.920867 119.429062 200.273867 118.769062 202.866867 119.089062 205.742867 117.249062 208.000867 115.479062 210.188867 113.349062 211.758867 110.409062 211.896867 109.929062 211.918867 109.399062 211.894867 108.989062 212.087867 106.779062 213.129867 104.899062 212.327867 103.229062 210.970867 101.709062 209.728867 100.349062 208.385867 98.1390625 209.492867 97.8890625 209.620867 97.1590625 209.267867 96.9490625 208.943867 96.1890625 207.753867 95.1890625 206.755867 94.8890625 205.227867 94.2090625 201.774867 93.6190625 198.334867 93.8790625 194.795867"/>
    <path fill="#1A1919" d="M140.349062 643.014867C140.479063 643.014867 140.609062 643.014867 140.729063 643.014867 140.729063 642.312867 140.729063 641.610867 140.729063 640.908867 140.609062 640.908867 140.479063 640.908867 140.349062 640.907867 140.349062 641.610867 140.349062 642.312867 140.349062 643.014867zM53.2790625 87.8378669C58.2890625 85.8238669 63.1390625 83.9278669 67.9290625 81.9038669 68.7290625 81.5638669 69.4790625 80.7798669 69.9590625 80.0168669 71.5090625 77.5598669 73.5190625 75.5558669 75.6390625 73.6178669 76.1690625 73.1308669 76.5190625 72.4408669 76.8990625 71.9208669 72.5890625 65.8068669 66.4190625 64.6338669 59.8890625 64.6408358 56.5090625 64.6448669 53.6490625 66.2068669 52.2690625 69.4598669 49.6590625 75.6098669 49.5090625 81.6988669 53.2790625 87.8378669zM193.399062 140.988867C185.899062 145.106867 178.689063 148.871867 171.689063 152.992867 168.559062 154.837867 165.759062 157.295867 162.959063 159.659867 160.629062 161.628867 158.719062 164.072867 157.519062 166.878867 154.109062 174.839867 151.689063 183.076867 151.359062 191.803867 151.139062 197.381867 150.939063 202.962867 150.869062 208.544867 150.799062 214.655867 151.449062 220.640867 154.689063 226.049867 155.349062 227.143867 155.979063 228.266867 156.479063 229.438867 157.809062 232.577867 160.359062 234.414867 163.219062 235.959867 165.139062 236.999867 167.049062 238.067867 169.479063 239.406867 170.109062 239.257867 171.349062 239.003867 172.569063 238.673867 177.339062 237.381867 182.059062 235.810867 186.889062 234.816867 194.579062 233.233867 201.379062 229.974867 207.459063 225.097867 208.709063 224.098867 209.949062 223.093867 211.189063 222.094867 214.209063 219.673867 216.819062 216.915867 218.579062 213.406867 219.729063 211.127867 221.149062 208.984867 222.289062 206.703867 224.459063 202.373867 226.009062 197.761867 225.719062 192.915867 225.299062 186.084867 224.649062 179.253867 221.739062 172.850867 217.999063 164.619867 213.389062 157.066867 206.289062 151.265867 202.829062 148.438867 199.379062 145.602867 195.909062 142.789867 195.179062 142.194867 194.379062 141.683867 193.399062 140.988867zM150.519063 908.289867C149.669063 901.009867 148.809062 893.719867 147.929062 886.129867 141.939063 885.289867 135.979063 882.639867 129.459063 883.839867 127.169063 884.249867 125.029062 883.339867 123.099062 882.178867 122.469062 881.805867 121.949062 881.090867 121.629062 880.415867 119.689063 876.404867 119.309062 872.132867 119.909062 867.791867 120.339062 864.630867 121.239062 861.529867 121.579062 858.362867 121.969062 854.720867 123.539062 852.036867 127.179062 850.133867 133.259062 850.759867 139.749063 851.425867 146.439063 852.115867 146.859062 848.732867 146.979063 845.320867 146.109062 841.760867 143.959063 841.491867 142.889062 843.407867 141.029062 843.703867 139.769063 843.690867 138.879062 842.757867 138.099062 841.725867 134.889062 837.465867 131.049062 833.908867 126.489062 831.126867 123.139062 829.081867 120.779062 826.079867 118.459063 822.996867 116.069062 819.807867 113.509062 816.747867 111.039062 813.607867 109.079062 811.094867 107.159062 808.536867 105.199062 806.019867 102.519063 802.592867 103.199062 798.758867 103.959063 794.984867 104.119062 794.202867 105.079062 793.449867 105.829062 792.941867 108.619062 791.077867 111.529062 789.396867 114.299062 787.505867 116.989062 785.665867 119.559062 785.776867 122.399062 787.195867 126.839062 789.408867 130.119062 792.843867 133.049062 796.682867 135.559062 799.985867 137.959063 803.385867 140.429062 806.723867 141.449062 808.095867 142.419063 809.549867 143.889062 810.118867 145.079062 809.718867 144.909062 808.971867 144.899062 808.397867 144.819062 804.880867 144.669063 801.365867 144.559062 797.848867 144.479063 795.294867 144.459063 792.736867 144.349062 790.182867 144.319062 789.266867 144.119062 788.358867 144.029062 787.653867 143.629062 787.387867 143.499063 787.225867 143.369062 787.219867 137.749063 786.969867 134.049062 783.511867 130.609062 779.605867 128.709063 777.451867 126.809062 775.291867 124.819062 773.220867 122.369062 770.673867 119.909062 768.209867 119.489062 764.399867 119.349062 763.185867 118.609062 762.039867 118.089062 760.699867 118.849062 759.638867 119.549062 758.586867 120.329062 757.606867 122.169063 755.321867 123.579062 752.878867 123.779062 749.854867 123.929062 747.506867 125.139062 746.023867 127.529062 745.540867 128.459063 745.351867 129.329062 744.907867 130.249063 744.615867 132.979063 743.739867 134.449062 744.085867 135.959063 746.576867 137.639062 749.345867 139.839062 751.602867 141.829062 753.921867 143.449062 753.463867 143.029062 752.338867 143.009062 751.483867 142.769063 738.215867 142.489062 724.949867 142.229063 711.682867 142.189063 709.469867 142.219062 707.255867 142.219062 705.372867 140.709063 703.839867 139.199062 704.159867 137.809062 704.322867 135.339062 704.614867 133.839062 703.505867 132.969062 701.329867 132.559062 700.298867 131.999063 699.254867 131.899062 698.181867 131.629062 695.003867 131.509062 691.807867 131.419063 688.617867 131.359062 686.594867 132.469062 685.307867 134.339062 684.711867 135.399062 684.373867 136.499063 684.153867 137.599062 683.980867 138.679062 683.809867 139.789062 683.765867 140.809062 683.672867 141.939063 680.011867 142.009062 677.318867 141.259062 666.475867 140.879062 660.923867 141.839062 655.330867 140.439063 649.730867 140.249063 650.543867 139.949062 651.346867 139.879062 652.169867 139.519063 656.622867 138.979063 661.052867 139.199062 665.557867 139.299062 667.730867 138.749063 670.011867 138.099062 672.124867 137.109062 675.371867 134.659062 677.046867 131.269063 677.063867 129.039062 677.075867 126.789062 676.915867 124.579062 676.667867 122.649062 676.451867 121.869062 675.761867 121.859062 673.949867 121.809062 667.787867 120.059062 661.967867 118.569062 656.082867 118.179062 654.544867 118.189063 652.907867 117.869062 651.347867 117.409062 649.167867 117.019063 646.939867 116.229063 644.872867 115.259062 642.333867 113.919063 640.117867 110.989062 639.033867 108.439063 638.086867 108.229063 637.035867 108.819062 634.024867 109.029062 632.933867 109.289062 631.838867 109.669063 630.794867 110.329062 628.944867 111.669063 627.981867 113.679062 628.011867 116.549062 628.054867 119.389062 627.921867 122.259062 628.600867 125.179062 629.291867 128.179062 630.111867 131.259062 629.326867 131.709063 629.212867 132.219062 629.307867 132.699062 629.338867 135.869062 629.543867 138.729063 630.253867 139.949062 633.720867 140.039062 633.978867 140.399062 634.144867 140.629062 634.353867 140.879062 634.215867 141.319062 634.105867 141.349062 633.935867 141.699062 631.417867 141.129062 621.076867 140.509062 618.125867 139.589062 618.125867 138.619062 618.261867 137.699062 618.099867 134.519063 617.538867 131.469062 615.568867 131.269063 611.484867 131.099062 607.978867 130.759062 604.479867 130.449062 600.981867 130.249063 598.763867 130.009062 596.545867 129.679062 594.342867 129.119062 590.556867 131.359062 587.426867 135.229063 586.816867 135.819062 586.723867 136.479063 586.948867 137.079062 587.127867 137.529062 587.261867 137.909062 587.598867 138.359062 587.765867 138.629062 587.868867 138.959063 587.822867 139.609062 587.866867 139.699062 587.167867 139.869062 586.445867 139.859062 585.726867 139.789062 581.254867 139.689063 576.780867 139.559062 572.308867 139.549062 571.902867 139.189063 571.505867 138.829062 570.751867 138.219062 571.215867 137.759062 571.571867 137.299062 571.912867 135.319062 573.373867 133.139062 574.247867 130.639062 574.167867 130.159062 574.151867 129.659062 574.053867 129.199062 574.135867 124.519063 574.968867 120.099062 574.107867 115.539062 572.875867 111.589062 571.805867 107.319062 571.818867 103.169063 571.583867 100.749063 571.444867 98.4390625 571.086867 96.1590625 570.210867 93.7990625 569.296867 91.4890625 568.134867 88.8190625 568.220867 87.1790625 568.273867 86.2490625 567.025867 85.5090625 565.782867 84.3590625 563.866867 83.3890625 561.845867 82.2290625 559.934867 81.1690625 558.178867 81.4190625 556.568867 82.5490625 555.022867 84.0790625 552.921867 86.0890625 551.367867 88.3590625 550.127867 90.6090625 548.902867 92.8490625 547.672867 95.0490625 546.368867 96.1390625 545.719867 97.3890625 545.092867 98.1190625 544.122867 101.319062 539.927867 106.249063 539.313867 110.729063 537.827867 112.409062 537.268867 114.169063 537.870867 115.879062 538.393867 122.899062 540.530867 128.889062 544.429867 134.579062 548.897867 135.459063 549.584867 136.379062 550.213867 137.319062 550.801867 137.529062 550.929867 137.909062 550.771867 138.479063 550.721867 139.229063 547.819867 138.499063 544.821867 138.549062 541.861867 138.589062 538.990867 138.359062 536.116867 138.259062 533.243867 138.159062 530.228867 138.079062 527.213867 137.979063 523.874867 136.509062 523.830867 135.289062 523.713867 134.079062 523.772867 131.369062 523.905867 128.669063 524.142867 125.959063 524.308867 121.819062 524.561867 117.669063 524.849867 113.529062 525.006867 110.659062 525.115867 107.799062 525.027867 105.149062 525.027867 100.329062 519.739867 99.2690625 513.562867 99.2290625 507.034867 99.2090625 504.483867 99.0290625 501.933867 98.9190625 499.382867 98.8690625 498.265867 98.7290625 497.144867 98.7690625 496.030867 98.9690625 490.891867 99.1290625 490.413867 104.269063 488.256867 107.029062 487.094867 110.079062 486.459867 113.059062 485.977867 116.869062 485.364867 120.559062 484.442867 124.199062 483.199867 129.429062 481.413867 130.689063 481.407867 135.819062 482.805867 136.929062 482.313867 136.829062 481.297867 136.799062 480.367867 136.489062 468.379867 136.159062 456.391867 135.829062 444.404867 135.649062 438.174867 135.459063 431.946867 135.259062 425.717867 135.239062 425.147867 135.039062 424.584867 134.659062 424.004867 133.899062 426.117867 133.769063 428.311867 133.459063 430.482867 133.129062 432.848867 132.649062 435.196867 132.159062 437.538867 131.719062 439.640867 130.539062 440.796867 128.239062 441.032867 125.999063 441.262867 123.839062 441.466867 121.619062 440.864867 119.989062 440.423867 119.209063 439.496867 118.949062 437.903867 118.039062 432.226867 117.049062 426.560867 116.159062 420.880867 115.289063 415.355867 114.509062 409.818867 113.689063 404.286867 113.539062 403.338867 113.369062 402.394867 113.269063 401.442867 112.689063 396.118867 114.079062 391.702867 118.759062 388.529867 121.129062 386.920867 123.259062 384.939867 125.409062 383.033867 127.519063 381.165867 129.709063 380.305867 132.369062 381.848867 132.629062 382.001867 132.959063 382.044867 133.269063 382.099867 133.419063 382.127867 133.579062 382.067867 133.739062 382.046867 134.579062 375.830867 134.379062 347.820867 133.469062 343.492867 133.179062 343.519867 132.759062 343.431867 132.599062 343.593867 130.449062 345.907867 127.969062 345.736867 125.109062 345.089867 122.939063 344.598867 121.629062 343.480867 120.889062 341.655867 119.629062 338.546867 118.269063 335.510867 116.739062 332.514867 114.679062 328.475867 116.429062 324.143867 120.759062 322.192867 124.549062 320.483867 128.449062 318.927867 132.629062 320.339867 134.259062 319.209867 133.839062 317.670867 133.909062 316.287867 133.979063 314.852867 134.029062 313.413867 134.019063 311.977867 134.009062 310.590867 134.299062 309.128867 133.169063 307.607867 132.139062 308.203867 131.249063 308.771867 130.309062 309.261867 126.329062 311.344867 122.069062 310.407867 119.209063 306.845867 118.709063 306.221867 118.259062 305.552867 117.709063 304.975867 116.429062 303.624867 115.859062 302.048867 115.879062 300.191867 115.919063 294.113867 115.889062 288.036867 115.989062 281.960867 116.009062 280.705867 116.429062 279.454867 116.689063 278.205867 117.279062 275.399867 118.969062 273.715867 121.799062 273.171867 125.709063 272.420867 129.609062 271.652867 133.899062 270.815867 134.039062 270.152867 134.409062 269.105867 134.459063 268.044867 134.689063 262.134867 134.839062 256.221867 135.019063 250.309867 135.039062 249.510867 135.059062 248.709867 135.029062 247.911867 134.949062 245.009867 137.149062 243.303867 139.629062 243.564867 143.669063 243.989867 147.609062 243.383867 151.579062 243.001867 154.429062 242.725867 157.269063 242.253867 160.119062 241.815867 160.539062 241.749867 160.929062 241.389867 161.619062 241.004867 161.139062 240.464867 160.839062 239.931867 160.379062 239.651867 157.309062 237.766867 155.059062 235.262867 153.319062 232.038867 151.799062 229.214867 150.389062 226.406867 149.279062 223.386867 148.159062 220.334867 147.499063 217.287867 147.489062 214.045867 147.489062 208.450867 147.169063 202.848867 147.369062 197.262867 147.719062 187.269867 149.929062 177.617867 153.669063 168.354867 157.119062 159.802867 163.539062 153.949867 171.449062 149.587867 176.209063 146.965867 181.019063 144.440867 185.789062 141.825867 187.169063 141.069867 188.459063 140.156867 190.019063 139.171867 189.269063 137.912867 188.349062 137.007867 187.319062 137.753867 184.969062 139.463867 183.189063 138.435867 181.389062 136.814867 180.149062 137.465867 179.029062 138.055867 177.699062 138.753867 177.599062 139.415867 177.499063 140.173867 177.379062 140.929867 177.049062 143.040867 175.729063 144.036867 174.179062 142.979867 172.569063 141.876867 171.139062 141.732867 169.299062 142.081867 167.269063 142.465867 165.159062 142.479867 163.079062 142.472867 159.139062 142.460867 153.949062 138.785867 152.609062 135.138867 152.089062 133.720867 152.089062 132.322867 153.129062 131.068867 153.619062 130.491867 154.869062 130.510867 155.189063 131.160867 155.399062 131.588867 155.509062 132.063867 155.699062 132.505867 157.429062 136.685867 160.179062 138.669867 164.509062 138.352867 169.689063 137.974867 174.629062 136.568867 178.749063 133.290867 180.059062 132.254867 180.889062 130.566867 181.769063 129.079867 182.579062 127.713867 181.959063 126.328867 181.549062 124.925867 180.329062 120.789867 179.309062 116.595867 178.069063 112.466867 176.829062 108.318867 175.109062 104.360867 172.709063 100.731867 171.909062 99.5318669 171.049062 98.3598669 170.369062 97.0978669 167.209063 91.2278669 162.709063 86.4868669 157.759062 82.1418669 155.359062 80.0368669 152.909062 77.9858669 150.389062 76.0268669 148.649062 74.6668669 147.529062 73.0298669 147.369062 70.8168669 146.909062 64.5498669 144.539062 58.6968669 143.409062 52.5678669 142.889062 49.7248669 141.249063 47.1028669 139.119062 45.2228669 135.089062 41.6598669 131.139062 41.0698669 126.059062 44.7658669 122.629062 47.2618669 120.449062 50.8878669 119.209063 54.9648669 117.489062 60.5988669 117.409062 66.2748669 119.019063 71.9608669 119.139062 72.4008669 119.149062 72.8768669 119.239062 73.5518669 118.629062 73.9678669 118.039062 74.6568669 117.349062 74.7848669 113.119062 75.5738669 108.869062 76.3378669 104.589062 76.9068669 101.469062 77.3218669 99.1590625 76.1038669 97.3890625 73.2858669 93.6690625 67.3778669 91.1490625 61.0718669 90.0690625 54.1898669 89.4990625 50.5508669 88.5190625 47.0338669 87.4190625 43.5138669 86.5790625 40.8098669 86.4190625 37.8788669 86.0490625 35.0368669 85.8690625 33.6448669 85.8990625 32.2248669 85.8290625 30.7348669 83.3590625 29.8378669 81.2890625 31.0258669 78.8190625 30.8158669 78.8190625 32.1388669 78.7490625 33.0548669 78.8290625 33.9598669 79.0590625 36.8268669 79.3990625 39.6858669 79.5890625 42.5538669 79.8490625 46.5868669 81.1190625 50.3778669 82.2590625 54.1968669 82.4690625 54.9098669 83.0790625 55.5378669 83.5990625 56.1208669 84.6590625 57.3168669 85.7990625 58.4378669 86.8790625 59.6198669 93.7090625 67.1278669 96.9690625 76.1298669 97.9790625 86.0928669 98.3390625 89.5898669 97.0790625 92.1718669 94.3790625 94.4408669 89.2190625 98.7768669 83.3090625 99.8568669 76.8690625 99.1908669 75.0290625 99.0008669 73.5390625 98.0468669 72.3490625 96.6978669 70.5290625 94.6378669 69.0290625 92.3888669 68.7590625 89.5338669 68.6790625 88.5898669 68.5190625 87.6518669 68.3490625 86.4078669 67.4890625 86.5388669 66.6890625 86.4868669 66.0490625 86.7858669 63.0190625 88.2128669 60.0790625 89.8508669 57.0090625 91.1958669 52.1690625 93.3168669 50.8990625 92.8398669 48.8090625 88.1658669 45.4190625 80.5898669 46.0190625 73.2658669 50.4090625 66.2248669 52.3590625 63.1048669 55.2590625 61.6358669 58.7890625 61.4248669 62.8190625 61.1848669 66.7990625 61.7618669 70.6490625 62.8838669 73.7990625 63.8008669 76.2190625 65.9568669 78.4390625 68.2998669 79.5390625 69.4588669 80.5390625 70.7028669 81.7390625 72.0788669 85.3690625 72.0388669 88.1190625 74.2398669 91.3090625 77.1198669 91.1990625 75.7678669 91.2290625 75.2008669 91.0890625 74.6758669 90.2590625 71.3728669 88.6990625 68.4378669 86.6490625 65.7188669 83.4290625 61.4398669 79.6390625 57.6498669 74.7490625 55.5628669 70.5890625 53.7858669 66.3690625 51.6218669 61.4790625 52.2148669 50.3990625 53.5618669 41.9490625 61.4768669 42.1990625 72.8278669 42.2590625 75.3868669 42.2090625 77.9508669 42.3590625 80.5038669 42.6190625 84.8158669 43.0090625 89.1098669 44.8690625 93.1238669 45.3190625 94.1028669 45.4690625 95.2238669 45.7390625 96.1858669 39.7490625 101.492867 39.5490625 101.502867 36.8790625 106.672867 36.0890625 106.358867 35.1490625 106.189867 34.4590625 105.675867 32.4190625 104.139867 30.3790625 102.577867 28.5290625 100.824867 25.4590625 97.9198669 21.8890625 95.8708669 18.1190625 94.0608669 15.3290625 92.7228669 12.3890625 92.7418669 9.6890625 93.5058669 6.9190625 94.2888669 5.4990625 96.8858669 4.9990625 99.6778669 4.6590625 101.549867 4.6490625 103.498867 4.6490625 105.413867 4.6490625 110.048867 4.7890625 114.685867 4.7690625 119.320867 4.7590625 122.076867 5.1590625 124.738867 6.0990625 127.317867 6.5790625 128.637867 7.4790625 129.911867 6.1690625 131.280867 6.0290625 131.426867 6.0790625 131.972867 6.2490625 132.156867 8.9290625 135.203867 8.7990625 139.251867 10.0390625 142.805867 12.7290625 150.505867 15.6790625 158.091867 19.1290625 165.491867 20.2590625 167.936867 21.1590625 170.511867 21.9490625 173.092867 24.2490625 180.575867 26.4890625 188.075867 28.6490625 195.598867 30.8990625 203.427867 32.9290625 211.302867 34.4590625 219.321867 35.5990625 225.289867 36.7390625 231.247867 37.4590625 237.277867 38.4690625 245.849867 39.4890625 254.422867 40.3690625 263.008867 41.0290625 269.366867 41.4690625 275.746867 42.0290625 282.114867 42.7490625 290.392867 43.4590625 298.670867 44.2390625 306.942867 44.9490625 314.579867 45.7590625 322.207867 46.4990625 329.842867 46.8790625 333.821867 47.1690625 337.810867 47.5290625 341.791867 47.6190625 342.724867 47.8590625 343.644867 48.0190625 344.561867 52.5390625 344.557867 55.7290625 346.990867 58.4890625 349.822867 60.7290625 352.111867 62.7490625 354.581867 65.4890625 356.312867 67.1290625 357.345867 67.8390625 358.850867 67.7990625 360.764867 67.7490625 362.678867 67.7190625 364.593867 67.6890625 366.508867 67.6190625 372.242867 67.5390625 377.976867 67.4690625 383.710867 67.4590625 384.667867 67.4390625 385.625867 67.4490625 386.582867 67.4990625 390.937867 66.9090625 391.732867 62.2190625 393.313867 62.0690625 393.364867 61.9090625 393.388867 61.7490625 393.425867 57.6090625 394.421867 57.1390625 394.062867 55.2090625 390.093867 52.9690625 385.495867 50.7390625 380.906867 49.2590625 375.991867 49.1490625 375.626867 48.6490625 375.379867 48.2490625 375.007867 47.7390625 378.787867 49.7890625 418.564867 50.6490625 422.269867 50.8990625 422.451867 51.1390625 422.748867 51.4090625 422.796867 55.2890625 423.479867 57.3990625 425.872867 58.6990625 429.524867 60.3590625 434.178867 62.5290625 438.650867 64.3490625 443.249867 64.9890625 444.865867 65.4890625 446.600867 65.6790625 448.322867 66.2190625 453.404867 66.4490625 458.521867 67.0390625 463.597867 67.9090625 471.096867 66.9590625 478.596867 67.2690625 486.093867 67.3690625 488.474867 67.1290625 490.883867 66.8790625 493.261867 66.5290625 496.475867 65.1790625 497.702867 61.9690625 498.031867 59.9090625 498.242867 57.8590625 498.467867 55.8290625 498.683867 53.4190625 496.601867 53.4190625 496.601867 51.8490625 492.080867 50.6890625 497.870867 49.9290625 515.894867 50.6890625 520.218867 53.2590625 519.970867 55.4890625 518.784867 57.7290625 517.646867 60.1490625 516.419867 62.5190625 515.136867 65.2290625 514.509867 66.8990625 514.123867 68.4290625 513.105867 70.0190625 512.351867 71.5390625 511.628867 72.4190625 510.505867 72.9290625 508.802867 73.5590625 506.681867 74.5890625 504.663867 75.5990625 502.676867 76.7290625 500.448867 78.6790625 499.614867 81.1490625 499.696867 86.1590625 499.863867 87.1590625 500.603867 88.3890625 505.505867 88.6990625 506.736867 89.0490625 508.006867 89.0490625 509.258867 89.0390625 514.352867 90.0690625 519.431867 89.1890625 524.545867 88.9790625 525.776867 89.1790625 527.105867 89.3490625 528.367867 89.5890625 530.118867 89.1390625 531.593867 87.7290625 532.610867 86.2590625 533.672867 85.3390625 535.121867 84.3190625 536.561867 83.0090625 538.412867 81.2790625 539.892867 78.9590625 540.343867 75.0090625 541.113867 71.3190625 542.630867 67.6490625 544.216867 67.2090625 544.407867 66.7790625 544.630867 66.3090625 544.738867 62.6090625 545.600867 59.5490625 547.319867 57.5790625 550.769867 56.7090625 552.296867 55.0690625 552.669867 53.3590625 552.380867 51.9590625 552.142867 50.5690625 551.839867 48.8490625 551.501867 48.7390625 553.919867 48.6390625 556.264867 48.5390625 558.597867 51.1090625 559.439867 53.4190625 560.035867 55.5990625 560.949867 58.3790625 562.118867 61.0790625 563.511867 63.7790625 564.873867 65.4890625 565.733867 67.0690625 566.860867 68.8190625 567.609867 72.6090625 569.230867 75.4190625 572.047867 78.2090625 574.910867 79.2690625 575.987867 79.9190625 577.201867 79.7990625 578.763867 79.6490625 580.984867 79.7590625 583.250867 79.3590625 585.423867 77.9390625 593.145867 77.4290625 600.961867 76.7190625 608.755867 76.6690625 609.234867 76.6790625 609.718867 76.6090625 610.190867 76.0090625 613.948867 72.6090625 616.781867 68.7990625 616.433867 65.1790625 616.102867 62.0790625 614.735867 59.8890625 611.535867 57.4090625 607.920867 55.9190625 603.944867 54.5590625 599.820867 52.5690625 593.755867 50.2490625 587.798867 48.0390625 581.808867 47.9690625 581.608867 47.5490625 581.536867 47.0390625 581.277867 46.0790625 592.647867 45.6190625 603.920867 45.6890625 615.437867 47.8890625 617.064867 48.8590625 619.536867 50.0190625 622.001867 55.0890625 632.767867 57.8790625 644.291867 61.4390625 655.554867 62.2490625 658.103867 62.3690625 660.887867 62.6490625 663.579867 62.7890625 664.911867 62.0890625 666.012867 61.0490625 666.906867 59.0990625 668.569867 57.3590625 670.381867 55.9390625 672.571867 54.6090625 674.600867 52.4390625 675.217867 49.9890625 674.660867 48.1490625 674.240867 46.2890625 673.912867 44.1790625 673.492867 43.6390625 678.372867 42.9590625 682.907867 43.1990625 687.800867 45.7990625 688.376867 48.0890625 687.771867 50.2890625 686.989867 52.0890625 686.351867 53.7890625 685.433867 55.5290625 684.610867 57.5390625 683.649867 59.6790625 682.858867 61.5290625 681.630867 63.9390625 680.022867 66.3290625 680.350867 69.1490625 680.922867 72.4490625 687.122867 74.7890625 693.614867 74.7690625 700.833867 74.7590625 702.211867 74.3890625 703.398867 73.4490625 704.310867 68.4090625 709.182867 63.9090625 714.640867 57.6790625 718.190867 55.1390625 719.637867 52.6090625 720.730867 49.6690625 721.120867 46.6790625 721.515867 43.7690625 722.399867 40.8390625 723.065867 39.7790625 725.930867 39.8990625 728.558867 40.2390625 731.186867 41.8890625 731.613867 42.7890625 730.547867 43.7790625 729.818867 44.6690625 729.160867 45.3890625 728.200867 46.3490625 727.706867 47.1290625 727.308867 48.1690625 727.261867 49.0690625 727.334867 49.8290625 727.395867 50.5590625 727.867867 51.3190625 728.126867 54.2490625 729.130867 55.7590625 730.995867 55.4090625 734.268867 55.2190625 736.004867 55.4890625 737.784867 55.4490625 739.541867 55.3590625 743.108867 53.9190625 746.000867 51.0790625 748.216867 49.1990625 749.689867 47.2190625 751.104867 45.5890625 752.837867 44.1990625 754.319867 42.8990625 754.973867 40.9790625 754.138867 40.7290625 754.028867 40.3690625 754.153867 40.0590625 754.170867 39.9190625 754.241867 39.7390625 754.281867 39.6390625 754.391867 39.5490625 754.501867 39.4990625 754.680867 39.4890625 754.833867 38.9690625 765.052867 38.4590625 775.272867 37.9690625 785.493867 37.9490625 785.946867 38.1290625 786.410867 38.2690625 787.192867 39.6490625 786.697867 40.9290625 786.239867 42.2690625 785.759867 45.0890625 787.260867 47.4590625 789.255867 49.8090625 791.492867 54.7790625 796.238867 58.7190625 801.985867 64.2590625 806.147867 66.1390625 807.562867 66.6790625 809.466867 66.5290625 811.633867 66.4390625 812.900867 66.1090625 814.153867 65.8390625 815.403867 64.5890625 821.331867 63.1690625 827.228867 62.1290625 833.194867 61.7190625 835.571867 60.5390625 837.348867 59.1890625 839.102867 57.9190625 840.742867 52.2790625 842.459867 50.8590625 841.565867 48.8490625 840.303867 46.7590625 839.133867 45.3290625 837.059867 42.6190625 833.121867 39.7590625 829.286867 36.8790625 825.289867 36.1790625 825.285867 36.2290625 826.053867 36.2090625 826.603867 35.8190625 834.270867 35.4590625 841.938867 35.1090625 849.607867 35.0890625 850.068867 35.2790625 850.538867 35.3590625 850.941867 35.6590625 851.195867 35.9290625 851.597867 36.1290625 851.567867 39.1490625 851.106867 41.0990625 852.435867 42.9390625 854.806867 44.6690625 857.042867 47.0390625 858.787867 49.1490625 860.722867 51.0390625 862.446867 52.9090625 864.179867 54.8590625 865.826867 57.6390625 868.175867 58.1790625 871.265867 57.4690625 874.518867 56.2390625 880.123867 54.6590625 885.649867 53.3590625 891.239867 52.8390625 893.479867 51.9990625 895.479867 50.1090625 897.519867 47.7890625 897.719867 45.1090625 897.849867 42.4490625 898.209867 39.7790625 898.569867 38.1890625 897.209867 37.0690625 895.099867 36.4690625 893.989867 36.1190625 892.729867 35.6490625 891.549867 35.1290625 890.239867 34.6090625 888.939867 33.8490625 887.059867 31.7890625 890.899867 32.7090625 894.449867 32.3290625 897.789867 31.9290625 901.279867 31.7490625 904.789867 31.4790625 908.289867 30.1990625 908.289867 28.9190625 908.289867 27.6390625 908.289867 27.4890625 907.049867 27.1690625 905.789867 27.2390625 904.559867 27.8790625 893.539867 28.5990625 882.539867 29.2990625 871.526867 29.3190625 871.207867 29.3290625 870.887867 29.3490625 870.567867 29.6290625 863.389867 29.8490625 856.216867 30.4390625 849.044867 31.1290625 840.766867 31.1790625 832.435867 31.5290625 824.129867 31.6690625 820.936867 31.8890625 817.748867 32.0390625 814.556867 32.7790625 798.747867 33.5690625 782.940867 34.1990625 767.127867 34.6190625 756.583867 34.7790625 746.028867 35.0990625 735.480867 35.2490625 730.686867 35.4090625 725.889867 35.7490625 721.108867 35.8790625 719.405867 35.3890625 717.973867 34.8090625 716.486867 34.1290625 714.744867 34.0390625 713.018867 35.3290625 711.515867 36.5790625 710.075867 36.7790625 708.340867 36.8990625 706.583867 37.7090625 694.300867 38.5590625 682.020867 39.2890625 669.733867 39.9090625 659.200867 40.4790625 648.662867 40.8690625 638.118867 41.0390625 633.497867 40.7190625 628.857867 40.5990625 624.226867 40.5690625 623.108867 40.3790625 621.988867 40.4390625 620.876867 40.9590625 609.700867 41.5290625 598.525867 42.0790625 587.350867 43.0090625 568.505867 43.9590625 549.660867 44.8590625 530.813867 45.4490625 518.672867 45.9890625 506.530867 46.4990625 494.386867 46.6290625 491.353867 46.5690625 488.310867 46.5590625 485.272867 46.5490625 470.878867 46.7390625 456.479867 46.4390625 442.090867 46.2190625 431.386867 45.1890625 420.701867 44.8290625 409.996867 44.3790625 396.414867 44.1990625 382.822867 44.0090625 369.232867 43.9290625 363.157867 44.3190625 357.070867 44.0990625 351.003867 43.8090625 343.176867 43.1590625 335.361867 42.5990625 327.546867 42.0990625 320.537867 41.5890625 313.527867 40.9090625 306.533867 40.0990625 298.107867 39.0790625 289.702867 38.2190625 281.281867 37.7790625 276.986867 37.3590625 272.683867 37.1490625 268.374867 36.5790625 256.697867 35.2490625 245.112867 33.1990625 233.608867 31.7190625 225.272867 30.3690625 216.905867 28.6190625 208.624867 27.4990625 203.330867 25.7890625 198.157867 24.2690625 192.952867 22.7890625 187.891867 20.9890625 182.914867 19.7490625 177.799867 18.1890625 171.370867 15.5090625 165.412867 12.7990625 159.451867 9.6790625 152.585867 7.4290625 145.432867 5.4390625 138.179867 4.0390625 133.099867 2.4790625 128.066867 1.0590625 122.991867.5890625 121.304867.0890625 119.558867.0590625 117.830867-.0609375 112.401867.0390625 106.969867.0390625 101.538867.0490625 98.5528669 1.0690625 95.9798669 2.7390625 93.5028669 4.3690625 91.0778669 6.4590625 89.6758669 9.2790625 89.0888669 13.8290625 88.1418669 18.0890625 88.5108669 22.2290625 90.8968669 26.1490625 93.1478669 29.8990625 95.4948669 32.7790625 99.0608669 33.5590625 100.035867 34.6690625 100.754867 35.7290625 101.679867 37.9090625 100.076867 39.2990625 97.9978669 40.7490625 95.7798669 37.9990625 90.7168669 37.8590625 85.3038669 37.9990625 79.8458669 38.0590625 77.4468669 38.1590625 75.0478669 38.1690625 72.6498669 38.2290625 64.5418669 41.7090625 57.9218669 48.0490625 53.3018669 54.3190625 48.7318669 61.5990625 46.9088669 69.3890625 49.3158669 71.9690625 50.1098669 74.4890625 51.0708669 77.3390625 52.0638669 77.3790625 48.1268669 75.9990625 44.6548669 75.7690625 41.0388669 75.5190625 37.3728669 75.1290625 33.7168669 74.7890625 29.8238669 74.4990625 29.4928669 74.1590625 28.9258669 73.6690625 28.5698669 70.4090625 26.2068669 69.2490625 22.7858669 68.8990625 19.0118669 68.6990625 16.7868669 68.7890625 14.5358669 68.6890625 12.2988669 68.5690625 9.58586687 69.9290625 7.66886687 72.0890625 6.38086687 74.0090625 5.24286687 76.0590625 4.27986687 78.1390625 3.49586687 84.6990625 1.02786687 93.7490625 5.90686687 95.8390625 12.1588669 96.0890625 12.9168669 96.3790625 13.6698669 96.5490625 14.4478669 97.6190625 19.2858669 97.3090625 23.6928669 92.7090625 26.7978669 91.7990625 27.4168669 91.0290625 28.2538669 90.3890625 28.8148669 89.7790625 33.2108669 90.2190625 37.1578669 91.1690625 41.0678669 92.2990625 45.7128669 93.7090625 50.3088669 94.5290625 55.0088669 95.6290625 61.2968669 98.1090625 66.8798669 101.789062 71.9428669 106.389062 73.2558669 106.389062 73.2558669 114.619062 70.6698669 114.439063 69.1968669 114.219062 67.6558669 114.059062 66.1088669 113.039062 56.1448669 116.209063 47.7578669 124.079062 41.5508669 127.879062 38.5548669 132.449062 37.7538669 137.199062 39.7408669 142.409062 41.9248669 145.899062 45.7778669 147.409062 51.1178669 149.049062 56.9498669 150.929062 62.7628669 151.489062 68.8448669 151.669063 70.7708669 152.509062 72.0358669 153.969062 73.2268669 157.449062 76.0468669 160.759062 79.0708669 164.189063 81.9488669 169.939063 86.7778669 173.679062 93.1248669 177.449062 99.4448669 180.669063 104.850867 182.859062 110.647867 184.049062 116.839867 184.439063 118.874867 185.149062 120.844867 185.639062 122.864867 186.139062 124.962867 187.299062 126.210867 189.519063 126.505867 190.429062 126.627867 191.349062 127.020867 192.179062 127.452867 192.999063 127.877867 193.189063 129.388867 192.479063 129.970867 191.509062 130.767867 190.389062 131.393867 189.169063 132.208867 189.709063 132.727867 190.219062 133.323867 190.829062 133.779867 194.279062 136.355867 197.789062 138.857867 201.219062 141.463867 203.889062 143.493867 206.549062 145.556867 209.079062 147.752867 214.569063 152.508867 218.999063 158.168867 222.569063 164.467867 225.179062 169.062867 227.659062 173.763867 228.519063 179.052867 229.239062 183.457867 230.099062 187.906867 230.129936 192.340867 230.169063 198.618867 228.839062 204.716867 225.329062 210.130867 223.579062 212.812867 222.019063 215.625867 220.099062 218.171867 218.479063 220.323867 216.639062 222.383867 214.579062 224.113867 211.409062 226.784867 207.929062 229.098867 204.639062 231.636867 200.089062 235.148867 194.769063 236.778867 189.309062 238.122867 185.279062 239.114867 181.189063 239.928867 177.229063 241.165867 169.729063 243.512867 162.099062 245.182867 154.289062 246.002867 152.539062 246.185867 150.809062 246.541867 149.069063 246.760867 147.329062 246.980867 145.579062 247.250867 143.829062 247.272867 142.259062 247.293867 140.689063 247.006867 138.909062 246.834867 138.209063 249.517867 138.419063 252.047867 138.399062 254.558867 138.349062 259.349867 138.299062 264.140867 138.209063 268.930867 138.069063 275.958867 137.799062 282.983867 137.749063 290.011867 137.659062 301.684867 137.669063 313.358867 137.719062 325.031867 137.729063 327.245867 138.239062 329.452867 138.389062 331.671867 138.459063 332.915867 138.499063 334.252867 138.129062 335.411867 137.479063 337.446867 137.429062 339.476867 137.429062 341.564867 137.419063 352.429867 137.309062 363.294867 137.349062 374.158867 137.369062 379.585867 137.719062 385.011867 137.759062 390.438867 137.789062 393.950867 137.399062 397.465867 137.449062 400.975867 137.519063 406.565867 137.799062 412.151867 137.999063 417.739867 138.119062 421.249867 138.249063 424.759867 138.379062 428.270867 138.829062 440.414867 139.289062 452.556867 139.709063 464.701867 140.129062 476.848867 140.239062 489.013867 140.949062 501.143867 141.749063 514.883867 141.579062 528.631867 141.999063 542.372867 142.139062 547.138867 141.619062 551.986867 143.249063 556.638867 143.389062 557.040867 143.269063 557.585867 143.139062 558.020867 142.259062 560.838867 142.499063 563.725867 142.589062 566.595867 142.759062 572.190867 143.009062 577.782867 143.189063 583.377867 143.439063 591.206867 143.399062 599.053867 143.939063 606.862867 145.319062 626.838867 144.399062 646.835867 144.759062 666.817867 144.959063 677.692867 145.339062 688.563867 145.549062 699.437867 145.779062 711.110867 145.779062 722.790867 146.129062 734.458867 146.419063 743.726867 146.729063 753.022867 147.729063 762.227867 148.309062 767.509867 148.519063 772.675867 147.969062 777.921867 147.869062 778.865867 148.019063 779.835867 148.039062 780.792867 148.249063 787.984867 148.359062 795.182867 148.689063 802.368867 149.089062 810.832867 149.679062 819.286867 150.209063 827.743867 150.259062 828.538867 150.309062 829.364867 150.559062 830.112867 151.619062 833.362867 152.379062 836.591867 150.599062 839.844867 150.659062 843.359867 150.659062 846.877867 150.819062 850.387867 150.939063 853.258867 151.179062 856.129867 151.489062 858.987867 151.789062 861.675867 151.979063 864.415867 152.679062 867.010867 153.829062 871.302867 153.839062 875.628867 153.069063 879.863867 152.349062 883.879867 152.639062 887.819867 152.919063 891.779867 153.209063 895.769867 153.709063 899.729867 154.089062 903.709867 154.239062 905.289867 154.619062 906.909867 153.399062 908.289867 152.439063 908.289867 151.479063 908.289867 150.519063 908.289867L150.519063 908.289867zM155.639062 4.23286687C156.579062 3.12786687 157.399062 2.18686687 158.199062 1.22786687 158.999062.262866868 160.009062-.0291331321 161.199062.274866868 162.569062.622866868 163.489062 1.47086687 163.669062 2.88486687 163.939062 4.94586687 164.189062 7.02786687 163.239062 9.00986687 162.069062 11.4558669 161.019062 13.9698669 159.689062 16.3218669 158.339062 18.7108669 155.719062 19.0448669 153.589062 17.3058669 152.599062 16.4998669 151.679062 15.6078669 150.699062 14.7948669 147.219062 11.9198669 146.029062 7.99286687 145.889062 3.73586687 145.779062.388866868 148.559062-.997133132 151.479062.773866868 152.159062 1.18286687 152.729062 1.76886687 153.339062 2.28086687 154.059062 2.88386687 154.769062 3.49486687 155.639062 4.23286687"/>
    <path fill="#1A1919" d="M80.2190625 716.880867C81.1690625 716.982867 82.1290625 717.172867 83.0790625 717.167867 85.4390625 717.153867 86.4390625 718.597867 87.0390625 720.609867 88.3090625 724.886867 89.4890625 729.203867 90.9790625 733.404867 92.0390625 736.397867 93.5590625 739.228867 94.8790625 742.131867 97.5790625 748.070867 100.909062 753.718867 102.589062 760.116867 103.289062 762.776867 102.949062 765.193867 101.699062 767.445867 98.1590625 773.857867 94.6190625 780.285867 90.7590625 786.510867 89.2090625 789.021867 87.0790625 791.312867 84.0890625 792.412867 83.3490625 792.683867 82.5290625 792.923867 81.9490625 793.421867 79.6390625 795.430867 77.2190625 794.943867 74.8090625 793.821867 67.3590625 790.355867 60.3590625 786.123867 55.5690625 779.289867 53.5790625 776.439867 51.3190625 773.326867 51.8990625 769.272867 52.1190625 767.771867 50.7890625 766.427867 51.1790625 764.651867 51.7790625 761.899867 52.8090625 759.447867 54.7790625 757.485867 58.0290625 754.260867 59.8990625 750.230867 61.8290625 746.189867 64.2490625 741.150867 66.8890625 736.221867 69.4090625 731.235867 70.7090625 728.678867 71.9590625 726.099867 73.2390625 723.533867 73.9490625 722.103867 74.5990625 720.637867 75.4090625 719.263867 76.4690625 717.459867 78.0790625 716.581867 80.2190625 716.880867M109.979063 652.883867C108.999063 655.869867 108.019063 658.885867 107.029062 661.898867 106.929062 662.201867 106.739062 662.474867 106.649062 662.778867 104.559062 669.820867 102.309062 676.820867 100.469062 683.925867 99.2190625 688.757867 98.9590625 690.163867 93.4690625 688.581867 92.1090625 688.187867 90.6190625 688.274867 89.2090625 688.037867 87.4190625 687.736867 86.6590625 686.999867 86.4090625 685.256867 86.2190625 683.995867 86.0390625 682.693867 86.1490625 681.435867 86.4190625 678.549867 85.3590625 676.147867 83.8890625 673.782867 82.7890625 672.033867 81.8690625 670.164867 81.0090625 668.289867 78.5690625 663.030867 75.5290625 658.193867 71.6190625 653.889867 69.9090625 652.004867 68.2790625 650.020867 66.8290625 647.926867 64.8190625 645.005867 64.5790625 642.888867 67.1590625 640.630867 72.1490625 636.263867 74.4290625 630.200867 78.0190625 624.969867 78.9390625 623.631867 79.8590625 622.403867 81.4890625 621.827867 85.3990625 620.448867 87.1690625 620.852867 89.6990625 624.240867 91.6090625 626.790867 93.4290625 629.427867 95.0490625 632.168867 97.2590625 635.903867 99.6790625 639.433867 102.749063 642.528867 105.699062 645.500867 107.709063 649.150867 109.979063 652.883867M116.139062 344.576867C115.739062 346.931867 115.519062 349.330867 114.909062 351.631867 113.459062 357.177867 111.839062 362.678867 110.279062 368.193867 109.889062 369.573867 109.509062 370.959867 109.049062 372.314867 107.599062 376.516867 103.579062 378.596867 99.1690625 377.255867 95.5990625 376.169867 92.5090625 374.202867 90.1290625 371.263867 87.2290625 367.668867 84.5090625 363.924867 81.4890625 360.429867 78.3590625 356.801867 78.1290625 352.875867 80.1090625 348.860867 82.7490625 343.534867 84.1090625 337.782867 86.1890625 332.274867 88.1490625 327.059867 89.7390625 321.670867 92.0690625 316.626867 94.2390625 311.928867 98.9490625 310.702867 103.859062 313.134867 105.939062 314.163867 106.629062 316.579867 106.829062 318.865867 107.079062 321.882867 107.449062 324.932867 107.249062 327.933867 107.069062 330.549867 107.849062 332.642867 109.369062 334.550867 110.849062 336.416867 112.429062 338.213867 114.089062 339.920867 115.379062 341.247867 116.279062 342.644867 116.139062 344.576867M114.999063 850.373867C115.099062 855.201867 114.239062 856.839867 111.039062 858.005867 108.659062 858.869867 106.089062 859.204867 103.609062 859.808867 101.769063 860.259867 99.9090625 860.695867 98.0990625 861.260867 94.7590625 862.302867 91.4590625 863.499867 88.1190625 864.509867 85.5490625 865.286867 83.0790625 865.101867 80.9790625 863.144867 80.3990625 862.604867 79.7090625 862.179867 79.0690625 861.710867 77.0690625 860.252867 76.2890625 858.266867 76.7490625 855.875867 77.0490625 854.315867 77.4790625 852.766867 78.0090625 851.269867 78.6990625 849.329867 78.7790625 847.703867 77.1390625 846.049867 75.6190625 844.508867 75.4690625 842.275867 75.4690625 840.202867 75.4690625 837.821867 75.7090625 835.481867 76.3890625 833.126867 77.7590625 828.374867 78.8990625 823.572867 81.2690625 819.159867 83.7090625 814.595867 88.6990625 813.439867 92.9090625 816.470867 96.2190625 818.850867 98.5890625 821.827867 100.479063 825.490867 102.289062 828.987867 104.949062 832.051867 107.279062 835.269867 108.689063 837.202867 110.209063 839.045867 111.639062 840.961867 114.019063 844.149867 115.039062 847.777867 114.999063 850.373867M92.2390625 581.042867C94.9990625 579.786867 97.8390625 579.545867 100.739063 580.045867 104.809063 580.749867 108.989063 580.807867 112.939063 582.381867 116.429063 583.773867 118.359062 586.052867 118.629062 589.829867 118.869063 593.171867 119.169063 596.518867 119.639063 599.835867 120.199063 603.785867 120.899062 607.717867 121.669063 611.631867 122.809063 617.410867 118.979063 621.177867 113.099063 619.989867 111.389063 619.641867 109.649062 619.356867 107.909063 619.161867 105.349063 618.874867 102.879062 618.384867 100.489063 617.343867 99.0390625 616.708867 97.4890625 616.210867 95.9390625 615.904867 94.2290625 615.567867 93.0890625 614.588867 92.0690625 613.301867 88.2490625 608.493867 88.1690625 608.497867 88.3690625 601.992867 88.5190625 596.888867 88.8690625 591.791867 89.1190625 586.689867 89.1690625 585.542867 89.3990625 584.511867 90.2290625 583.622867 90.9790625 582.814867 91.5990625 581.881867 92.2390625 581.042867M112.949062 888.299867C112.369062 888.929867 111.999062 889.459867 111.519062 889.839867 105.739062 894.439867 99.6590625 898.439867 92.3790625 900.359867 89.7690625 901.049867 87.1690625 901.969867 84.7690625 903.179867 82.1090625 904.509867 79.2790625 904.799867 76.4790625 905.279867 73.9190625 905.709867 71.7790625 904.719867 70.2790625 902.529867 69.7290625 901.739867 69.0990625 900.989867 68.6990625 900.129867 65.9090625 894.109867 64.4090625 887.789867 64.6590625 881.109867 64.7490625 878.889867 64.8190625 876.663867 64.7390625 874.445867 64.6190625 871.183867 65.0990625 870.341867 68.2990625 869.128867 69.3290625 868.736867 70.4090625 868.443867 71.5590625 868.074867 76.4390625 870.105867 79.4290625 873.686867 80.2990625 879.084867 81.1590625 879.084867 81.7790625 879.097867 82.3890625 879.081867 84.9290625 879.012867 87.4890625 878.743867 90.0090625 878.900867 95.4290625 879.237867 100.819062 879.676867 106.229062 878.653867 109.069062 878.115867 109.919062 878.749867 110.849062 881.477867 111.619062 883.729867 112.249062 886.029867 112.949062 888.299867M103.659062 710.799867C104.139062 708.138867 104.679062 705.486867 105.089062 702.815867 105.379062 700.923867 105.519063 699.008867 105.699062 697.102867 105.819062 695.831867 105.829062 694.548867 105.989062 693.284867 106.229063 691.334867 107.429062 690.126867 109.239062 689.524867 109.999063 689.273867 110.809062 689.203867 111.569062 688.962867 113.669063 688.291867 115.319062 688.894867 116.609062 690.645867 117.929062 692.448867 119.499063 694.121867 120.529062 696.075867 122.649062 700.083867 125.329062 703.681867 128.679062 706.628867 134.019063 711.316867 133.909062 716.887867 131.859062 722.830867 130.979063 725.378867 129.579062 727.747867 128.399062 730.190867 127.519063 732.032867 126.309062 733.365867 123.999063 733.222867 122.899062 733.155867 121.739062 733.197867 120.669063 733.453867 117.539062 734.203867 115.499063 732.659867 113.699062 730.425867 110.669063 726.689867 108.219062 722.588867 105.919063 718.388867 105.769063 718.108867 105.639062 717.807867 105.469062 717.544867 104.089062 715.507867 103.109062 713.384867 103.659062 710.799867M113.649062 467.864867C107.449063 472.056867 100.919063 473.901867 94.0890625 475.047867 90.4890625 475.653867 87.1190625 474.908867 83.7790625 473.838867 83.0990625 473.621867 82.4390625 472.965867 82.0190625 472.343867 80.4290625 469.971867 79.0290625 467.476867 77.3990625 465.130867 75.3990625 462.242867 75.7890625 459.384867 77.4190625 456.618867 79.3190625 453.384867 82.2390625 451.150867 85.4190625 449.263867 85.8190625 449.027867 86.3190625 448.788867 86.7590625 448.812867 89.6290625 448.972867 91.9890625 447.520867 94.4090625 446.366867 97.8390625 444.729867 101.409063 444.418867 105.119063 444.806867 106.479063 444.949867 107.549062 445.449867 108.189063 446.709867 108.909063 448.123867 109.679063 449.513867 110.349063 450.953867 111.089062 452.541867 111.589062 454.249867 112.439063 455.768867 114.589062 459.634867 114.629062 463.638867 113.649062 467.864867M106.309062 426.736867C105.789062 427.697867 105.399062 428.221867 105.199062 428.807867 104.049062 432.113867 101.149062 432.573867 98.2990625 432.958867 97.6190625 433.048867 96.5790625 432.681867 96.1690625 432.160867 94.5190625 430.030867 92.1490625 429.475867 89.7990625 429.411867 86.4990625 429.320867 84.9790625 427.666867 84.0790625 424.741867 82.2890625 418.945867 80.7190625 413.134867 80.6590625 407.005867 80.6390625 405.588867 80.2490625 404.179867 80.1090625 402.759867 79.8590625 400.227867 79.5890625 397.693867 79.4790625 395.154867 79.3890625 393.047867 80.9290625 392.044867 82.6190625 391.393867 84.4690625 390.680867 86.4190625 390.402867 87.8990625 392.163867 89.4290625 393.984867 90.9590625 395.832867 92.2390625 397.831867 94.2890625 401.052867 96.2190625 404.361867 98.0390625 407.721867 99.3190625 410.097867 100.379062 412.597867 101.449062 415.082867 103.079062 418.880867 104.629062 422.712867 106.309062 426.736867M54.5490625 296.159867C57.8890625 296.159867 61.0490625 296.159867 64.5390625 296.159867 65.0390625 297.165867 65.7490625 298.227867 66.1090625 299.397867 67.2490625 303.052867 68.1090625 306.795867 69.3390625 310.416867 71.1190625 315.666867 71.1990625 321.066867 71.2191476 326.500867 71.2290625 328.957867 70.3590625 330.876867 68.0090625 331.873867 65.6290625 332.885867 63.4790625 332.671867 61.3290625 330.943867 59.2990625 329.304867 57.5890625 327.569867 56.5590625 325.119867 55.2690625 322.034867 53.8090625 319.011867 52.3290625 316.006867 51.0290625 313.360867 50.5990625 310.575867 50.5190625 307.664867 50.4590625 305.219867 50.7090625 302.938867 52.1290625 300.819867 53.0790625 299.398867 53.7290625 297.769867 54.5490625 296.159867M65.9890625 174.273867C65.1490625 173.730867 64.6290625 173.395867 63.8890625 172.913867 63.2990625 173.478867 62.7490625 173.989867 62.2190625 174.519867 61.6490625 175.080867 61.1390625 175.703867 60.5390625 176.220867 59.4990625 177.109867 58.3490625 177.174867 57.4990625 176.474867 56.5190625 175.674867 56.4090625 174.251867 57.4790625 173.059867 58.4190625 172.013867 59.5890625 171.181867 60.8290625 170.109867 59.7590625 168.673867 58.8690625 167.597867 58.1190625 166.432867 57.7090625 165.790867 57.4190625 165.015867 57.2890625 164.262867 57.2190625 163.881867 57.5090625 163.271867 57.8390625 163.033867 58.1490625 162.810867 58.7690625 162.796867 59.1490625 162.952867 59.7190625 163.191867 60.2490625 163.606867 60.7090625 164.034867 61.5290625 164.791867 62.3090625 165.601867 63.0790625 166.412867 67.3790625 170.950867 72.6990625 173.081867 78.9190625 173.092867 81.1490625 173.097867 83.3990625 173.240867 85.6290625 173.124867 94.3390625 172.670867 99.6890625 165.321867 99.5790625 158.803867 99.5390625 156.088867 99.5790625 153.369867 99.6590625 150.653867 99.7190625 148.316867 98.5490625 146.359867 97.9290625 144.232867 97.7490625 143.646867 98.1190625 142.569867 98.5990625 142.214867 99.0890625 141.852867 100.179062 141.833867 100.739062 142.145867 101.519062 142.577867 102.249062 143.361867 102.649062 144.168867 103.569062 146.022867 104.319062 147.955867 104.249062 150.115867 104.199062 151.688867 104.319062 153.266867 104.369062 155.067867 105.469062 155.279867 106.369062 155.449867 107.269062 155.626867 108.049062 155.778867 108.879062 155.809867 109.589062 156.124867 110.519062 156.542867 110.989062 157.416867 110.909062 158.462867 110.829062 159.544867 110.169062 160.286867 109.149062 160.436867 107.599062 160.666867 106.019062 160.695867 104.309062 160.820867 103.649062 162.849867 103.019062 164.798867 102.289062 167.015867 102.989062 167.938867 103.719062 168.951867 104.499062 169.921867 105.029062 170.584867 105.409062 171.275867 104.949062 172.082867 104.369062 173.078867 103.389062 173.100867 102.419062 172.871867 101.809062 172.726867 101.229062 172.415867 100.629062 172.200867 100.049062 171.991867 99.4590625 171.810867 98.9790625 171.652867 96.8190625 173.337867 94.8290625 174.893867 92.4090625 176.792867 92.3690625 176.998867 92.1990625 177.761867 92.1090625 178.534867 91.9890625 179.534867 91.7490625 180.408867 90.6590625 180.769867 89.4590625 181.163867 88.4390625 180.926867 87.6590625 179.932867 87.1790625 179.317867 86.7890625 178.634867 86.3490625 177.971867 84.6890625 177.971867 83.1390625 177.971867 81.5290625 177.971867 81.0590625 179.534867 80.6990625 180.920867 80.2090625 182.258867 79.7890625 183.401867 78.6490625 183.946867 77.5090625 183.659867 76.4890625 183.401867 75.8190625 182.752867 75.7090625 181.688867 75.6390625 181.060867 75.7690625 180.414867 75.7790625 179.775867 75.7790625 179.306867 75.7390625 178.836867 75.7090625 178.212867 74.3290625 176.986867 72.6290625 176.873867 70.6590625 176.775867 69.9390625 178.225867 69.2790625 179.648867 68.5290625 181.015867 67.8690625 182.210867 66.9290625 182.525867 65.6990625 182.114867 64.3090625 181.646867 63.7390625 180.638867 64.2090625 179.087867 64.6690625 177.572867 65.2990625 176.108867 65.9890625 174.273867M88.0990625 254.693867C89.5490625 255.089867 91.4190625 255.529867 93.2390625 256.127867 93.9590625 256.366867 94.8390625 256.799867 95.1890625 257.408867 96.7790625 260.158867 98.2690625 262.969867 99.6190625 265.837867 99.9090625 266.438867 99.6990625 267.488867 99.3490625 268.134867 97.6090625 271.374867 95.7290625 274.501867 92.5890625 276.691867 90.6090625 278.070867 88.7190625 278.818867 86.3690625 277.680867 85.3790625 277.199867 84.2490625 276.995867 83.1690625 276.698867 81.8090625 276.325867 80.1290625 276.456867 79.4290625 274.933867 78.6290625 273.186867 77.8490625 271.187867 78.6090625 269.368867 80.5190625 264.824867 82.7190625 260.398867 84.8390625 255.945867 85.3890625 254.782867 86.4790625 254.525867 88.0990625 254.693867M75.5290278 294.807867C75.5190625 291.910867 77.6690625 289.715867 80.0890625 289.504867 86.0690625 288.982867 93.2490625 293.665867 95.1790625 299.295867 95.5790625 300.456867 95.4790625 301.535867 94.8390625 302.492867 93.6990625 304.202867 92.6390625 306.036867 91.1890625 307.452867 89.2690625 309.327867 87.0390625 310.906867 84.8590625 312.486867 84.2790625 312.902867 83.3390625 313.077867 82.6190625 312.976867 80.7090625 312.706867 77.8390625 309.614867 77.5890625 307.710867 77.4890625 306.925867 77.5190625 306.119867 77.5390625 305.324867 77.6190625 302.589867 77.3590625 299.936867 76.1790625 297.396867 75.7290625 296.414867 75.6390625 295.260867 75.5290278 294.807867M7.3390625 111.082867C7.2690625 108.757867 8.1490625 106.532867 9.5790625 104.567867 11.9590625 101.278867 15.9990625 100.898867 19.1290625 103.545867 23.9390625 107.605867 24.2790625 108.495867 21.6990625 114.128867 20.4490625 116.857867 18.7590625 119.430867 16.9790625 121.856867 15.3290625 124.092867 12.4790625 123.845867 11.0490625 121.464867 9.1690625 118.316867 7.3290625 115.113867 7.3390625 111.082867M142.569063 69.2298669C142.569063 69.8688669 142.589062 70.5088669 142.559062 71.1468669 142.419063 74.5328669 139.779062 76.3078669 136.679062 74.9588669 135.089062 74.2648669 133.599062 73.2868669 132.169063 72.2808669 131.559062 71.8538669 130.989062 71.0818669 130.829062 70.3688669 130.219062 67.7418669 129.389062 65.0698669 130.259062 62.3658669 131.039062 59.9418669 131.979063 57.5688669 132.929062 55.2018669 133.519063 53.7238669 134.699062 53.0598669 136.289062 52.9438669 137.899062 52.8288669 139.179062 53.2538669 139.829062 54.7768669 140.509062 56.3888669 141.209063 58.0258669 141.599062 59.7218669 142.069063 61.7358669 142.259062 63.8178669 142.479063 65.8808669 142.589062 66.9858669 142.499063 68.1128669 142.499063 69.2298669 142.519063 69.2298669 142.539062 69.2298669 142.569063 69.2298669M67.5890625 277.025867C67.6590625 280.627867 64.1290625 283.818867 59.9690625 284.101867 56.8590625 284.312867 52.1590625 280.488867 52.3690625 277.545867 52.6390625 273.779867 56.3790625 269.269867 59.6590625 269.319867 64.3790625 269.392867 67.4990625 272.422867 67.5890625 277.025867M54.3790625 245.626867C54.3790625 244.209867 54.2490625 242.778867 54.4090625 241.380867 54.6990625 238.841867 56.4390625 237.005867 58.5090625 236.816867 61.5890625 236.533867 63.8790625 237.587867 64.7890625 239.988867 65.8590625 242.805867 66.6890625 245.690867 66.0790625 248.789867 65.4990625 251.803867 63.3290625 253.385867 60.7790625 254.345867 58.4390625 255.223867 55.4390625 253.316867 54.9490625 250.824867 54.6190625 249.128867 54.6390625 247.365867 54.4990625 245.632867 54.4590625 245.630867 54.4190625 245.628867 54.3790625 245.626867M121.019063 204.812867C120.519063 205.191867 119.889063 206.049867 119.129063 206.187867 117.349063 206.509867 115.369063 204.414867 115.539063 202.656867 115.629063 201.745867 116.899063 200.757867 117.969063 200.769867 119.439063 200.784867 121.049063 202.709867 121.019063 204.812867M110.099063 206.927867C107.769063 208.857867 106.869063 208.998867 105.569063 207.760867 103.849063 206.126867 104.209063 204.266867 106.409063 203.323867 107.449063 202.880867 108.319063 203.148867 108.849063 204.046867 109.389063 204.962867 109.709063 206.003867 110.099063 206.927867M92.5490625 193.495867C93.3490625 193.855867 94.0490625 193.971867 94.4190625 194.382867 94.9190625 194.944867 95.2990625 195.695867 95.5190625 196.429867 95.9090625 197.790867 95.2990625 199.175867 94.2390625 199.666867 93.2390625 200.135867 91.9890625 199.428867 91.3590625 197.890867 91.0690625 197.181867 90.7390625 196.294867 90.9290625 195.634867 91.1490625 194.870867 91.9290625 194.267867 92.5490625 193.495867M116.929063 190.743855C118.179063 190.746867 119.319063 192.429867 119.359063 194.305867 119.379063 195.249867 118.229063 196.118867 116.969063 196.110867 115.499063 196.101867 114.179063 194.553867 114.229063 192.885867 114.259063 191.783867 115.579063 190.739867 116.929063 190.743855M104.589062 195.771867C104.479063 196.737867 103.109062 197.668867 102.109062 197.457867 100.639063 197.144867 99.4990625 195.644867 99.7790625 194.393867 100.009063 193.419867 101.369063 192.428867 102.249063 192.604867 103.499063 192.852867 104.729063 194.522867 104.589062 195.771867M102.239062 217.199867C101.069062 217.244867 100.169062 216.322867 100.179062 215.082867 100.189062 214.033867 100.909062 213.246867 101.919062 213.185867 103.119062 213.113867 104.009062 214.029867 103.959062 215.278867 103.909062 216.366867 103.199062 217.163867 102.239062 217.199867M117.329062 218.210867C115.869062 218.117867 115.089062 217.353867 115.079062 216.373867 115.059062 215.472867 116.089062 214.661867 117.059062 214.799867 118.019062 214.935867 118.919062 215.975867 118.579062 216.834867 118.339062 217.450867 117.639062 217.885867 117.329062 218.210867M93.7990625 210.258867C93.3190625 209.449867 92.8790625 209.015867 92.8090625 208.525867 92.6890625 207.738867 93.5290625 207.017867 94.2890625 207.294867 94.7490625 207.465867 95.4490625 208.215867 95.3590625 208.452867 95.1390625 209.031867 94.5290625 209.463867 93.7990625 210.258867M178.529063 183.324867C178.229063 179.875867 179.359063 177.097867 181.479063 174.460867 186.179063 168.606867 192.149063 164.451867 198.639063 160.879867 201.509063 159.300867 204.539063 159.750867 207.539063 159.813867 208.659063 159.836867 209.529063 161.091867 209.789063 162.589867 209.969063 163.672867 209.499063 164.446867 208.599063 164.982867 208.049063 165.308867 207.449063 165.551867 206.909063 165.883867 206.509063 166.128867 206.159063 166.458867 205.699063 166.820867 204.979063 171.048867 206.339063 175.011867 207.669063 178.915867 208.289063 180.742867 208.789063 182.533867 209.099063 184.439867 209.589063 187.420867 210.069063 190.454867 211.969063 192.982867 212.819063 194.119867 213.479063 195.422867 214.989063 195.944867 215.819063 196.233867 216.339063 197.046867 215.869063 197.825867 215.519063 198.401867 214.699063 198.915867 214.029063 199.020867 212.969063 199.183867 211.859063 198.975867 210.759063 198.924867 209.619063 200.851867 208.589063 202.641867 207.499063 204.398867 204.459063 209.331867 199.649063 211.686867 194.369063 213.329867 193.789063 213.511867 193.079063 213.532867 192.489063 213.379867 191.939063 213.236867 191.249063 212.872867 191.029063 212.410867 190.609063 211.503867 191.349063 210.929867 192.079063 210.596867 194.119063 209.676867 196.199063 208.847867 198.239063 207.939867 200.329063 207.008867 202.029063 205.586867 203.319063 203.680867 204.909063 201.326867 205.649063 198.800867 204.959063 195.962867 204.739063 195.031867 204.399063 194.098867 204.359063 193.154867 204.139063 188.503867 201.969063 184.590867 199.729063 180.715867 197.809063 177.384867 196.879063 176.808867 192.579063 175.774867 191.049063 176.107867 190.349063 177.441867 189.409063 178.503867 187.829063 180.295867 186.319063 182.153867 184.659063 183.868867 182.869063 185.720867 182.469063 185.719867 180.079063 184.448867 179.539063 184.157867 179.069063 183.720867 178.529063 183.324867"/>
  </g>
</svg>
