<svg xmlns="http://www.w3.org/2000/svg" width="663" height="401" viewBox="0 0 663 401">
  <g fill="none">
    <g fill="#D7A9FF" transform="translate(346 25)">
      <path d="M59.4979863,32.3217139 C58.886241,28.3404117 58.4702542,23.8029239 56.4322683,20.2475612 C55.7471135,19.0507064 54.7857995,18.0333798 53.6462053,17.3891903 C53.5797872,17.0512548 53.5553174,16.706279 53.5693002,17.2765451 C53.5588131,16.8048435 53.5203606,16.3366621 53.5133692,15.8649605 C53.4993864,14.826513 53.537839,13.7915856 53.5762916,12.7531381 C53.7126234,8.85279949 54.5061445,4.5652432 51.814465,1.34077558 C50.8776207,0.221364337 49.2486303,-0.137692101 47.8853122,0.0453562795 C46.3402183,0.253045788 45.3719128,1.05916269 44.4700254,2.29473926 C43.8233232,3.17477955 43.4387976,4.28011015 43.0367935,5.27983592 C42.8794876,5.67409397 42.729173,6.07187218 42.5788584,6.46965039 C42.5578843,6.52597297 42.5229274,6.63861812 42.4844749,6.75478344 C42.4390309,6.82518667 42.3796042,6.9307915 42.3061948,7.09271891 C41.7608675,8.29661403 41.173592,9.5321906 40.8310146,10.8135293 C40.6632216,11.4330776 40.6002993,12.0737469 40.5164028,12.707376 C40.4989243,12.8446622 40.4849416,12.9502671 40.4744545,13.0453114 C40.4604718,13.0699526 40.4499847,13.0981138 40.4325063,13.1368356 C40.2891831,13.4747711 40.2157736,13.8901501 40.0899289,14.2351259 C39.7054032,15.2982146 39.271938,16.3401823 38.9083865,17.4138314 C38.7301064,17.9453758 38.5413393,18.4698798 38.3350937,18.9908636 C38.275667,19.1070289 37.8911414,19.9729886 37.8142363,20.1384362 C36.7760171,22.3279764 35.7622677,24.524557 34.5597511,26.6260932 C33.8501266,27.8687101 33.3117907,29.2063713 32.7734548,30.5299519 C32.5567222,31.0685365 32.3469809,31.6141615 32.1302483,32.1527462 C32.0044035,32.4660405 31.8750631,32.7793349 31.7492183,33.0926292 C31.6862959,33.2439961 31.6618261,33.307359 31.6548348,33.3249598 C31.6233736,33.4024034 31.584921,33.4904074 31.5359814,33.6030526 C30.5432061,35.9333993 29.4979955,38.242625 28.4318108,40.5377701 C27.3656261,42.829395 26.2435104,45.0682175 25.0374982,47.2894392 C23.719624,49.7148302 22.7058746,52.2458261 21.7026122,54.8120235 C21.3600348,55.6850235 21.1607807,56.0687211 20.653906,57.2550154 C20.3113286,58.0576121 19.9722469,58.863729 19.6646264,59.6768863 C19.5527644,59.9690596 19.4513894,60.261233 19.3430231,60.5534064 C19.3255447,60.6026886 19.3080662,60.6484507 19.2905878,60.6906927 C19.2940835,60.6801322 19.2975792,60.676612 19.3045705,60.6660515 C19.2975792,60.6801322 19.2940835,60.6942128 19.2870921,60.7082935 C19.2416482,60.8138983 19.2066913,60.8913419 19.1996999,60.9019023 C18.0705928,63.2674506 17.3085329,65.4323498 16.4835507,67.3191561 C15.9032665,68.6427367 15.3020083,69.959277 14.7811508,71.3074987 C14.5923837,71.8003213 14.4175993,72.296664 14.2393193,72.7965269 C14.1379443,73.0816599 14.0400651,73.3632728 13.9351944,73.6484059 C13.8862548,73.782172 13.7953669,74.021543 13.7464273,74.1517889 C13.3199534,75.1057526 12.7711305,75.9717123 12.1558895,76.8165509 C11.2889589,77.9993251 10.694692,79.1504178 10.1493648,80.5268008 C8.5413485,84.5609055 6.60124189,89.3025626 4.53529054,93.1958608 C2.10229198,97.7896711 1.21089165,103.295203 0.445336072,108.406477 C-0.00910331343,111.433816 -0.348185008,114.36259 0.637598888,117.337126 C1.53948628,120.068771 3.06710175,122.353356 4.86388517,124.564017 C5.72732,125.627106 6.76553921,127.116134 7.9785428,127.770884 C7.91911611,127.718081 7.86318511,127.665279 7.80725411,127.612476 C7.5835301,127.418868 7.57653873,127.401267 7.77928861,127.566714 C8.09739618,127.503351 8.737107,128.327069 9.12512833,128.598122 C9.60403752,128.932537 10.1039208,129.238791 10.6212826,129.509843 C12.977376,130.75598 15.707508,131.681783 18.4026832,131.491694 C18.6963209,131.470573 18.9794716,131.41425 19.2556309,131.340327 C19.9722469,132.069 20.6783758,132.808234 21.391496,133.543948 C23.9083911,136.131266 26.628036,138.426411 30.0048702,139.760553 C36.4788836,142.31619 44.6518012,140.982048 48.8815831,135.177303 C49.9512635,133.709396 50.639914,131.998597 51.3215731,130.31948 C52.1430596,128.291868 52.866667,126.119928 52.9960074,123.919827 C53.0169815,123.54317 53.0484427,123.148912 52.989016,122.775775 C52.9645462,122.620888 52.9435721,122.522323 52.922598,122.45896 C52.9400764,122.409678 52.9610505,122.353356 52.9855204,122.279432 C53.3280977,121.174102 53.5448304,120.156775 53.6811622,118.995122 C53.7405889,118.502299 53.7895285,118.005957 53.8454595,117.509614 C53.8629379,117.361767 53.873425,117.259682 53.8839121,117.175199 C54.0307309,116.048747 54.2055153,114.925816 54.3733083,113.799364 C54.7298685,111.398614 55.0864286,108.990824 55.317144,106.572473 C55.429006,105.41434 55.4709542,104.252687 55.5618421,103.091034 C55.5933033,102.668614 55.6387472,102.246195 55.6876869,101.823776 C55.708661,101.69705 55.8030445,100.993018 55.820523,100.887413 C55.9393764,100.151699 56.0792039,99.4159856 56.2225271,98.683792 C57.5194271,96.0119897 58.0158148,92.8825664 58.103207,89.8411472 C58.2360431,89.115994 58.3653835,88.3908408 58.4702542,87.6621675 C59.1064693,83.2267644 58.7569005,78.8230428 58.6590213,74.3665188 C58.6100817,72.2297809 58.7638919,70.1000834 58.7429178,67.9668658 C58.7359264,67.2909948 58.7079609,66.6045634 58.6485342,65.9251723 C58.6520299,65.8547691 58.6520299,65.787886 58.6520299,65.7174828 C58.6799954,65.087374 58.7044652,64.4678256 58.7079609,63.8588377 C58.8582755,62.4296523 59.0120857,61.003987 59.1624003,59.5783218 C59.6343181,55.1182776 59.8230853,50.7039955 59.9069818,46.2228303 C59.9768955,41.562137 60.2111066,36.9612863 59.4979863,32.3217139 Z"/>
      <path d="M19.2870921,60.7047733 C19.2066913,60.8702209 19.1822215,60.9265435 19.1927085,60.9124628 C19.2241697,60.8455798 19.2486395,60.785737 19.2801007,60.718854 C19.2835964,60.7153338 19.2870921,60.7082935 19.2870921,60.7047733 Z"/>
    </g>
    <g fill="#D7A9FF" transform="translate(66 6)">
      <path d="M44.3819244,84.1301187 C44.3749472,84.1053255 44.3575043,84.0344877 44.326107,83.9176054 C44.326107,83.9246891 44.3295956,83.928231 44.3295956,83.9353148 C44.3470385,83.9990688 44.3644814,84.0663647 44.3819244,84.1301187 Z"/>
      <path d="M47.8774901,96.2433783 C47.8181841,95.7333463 47.7484124,95.2233143 47.675152,94.7132823 C47.6367775,94.3838867 47.5949145,94.0509491 47.5251427,93.7286372 C47.1204664,91.8372686 46.5553151,89.8750623 45.8575974,88.0722409 C45.5785103,87.3461537 45.2575601,86.634234 44.9645187,85.9152306 C44.7621805,85.4193662 44.9575415,85.8833536 44.9889388,85.9719008 C44.877304,85.6850079 44.7621805,85.3981149 44.6645001,85.10768 C44.5563538,84.7853681 44.4691391,84.4595143 44.3819244,84.1336606 C44.3923902,84.1903308 44.3575043,84.0805322 44.3295956,83.9388567 C44.3156412,83.8928121 44.3051754,83.8432257 44.2912211,83.7971811 C44.3051754,83.8503095 44.3156412,83.8821865 44.326107,83.9211473 C44.3121526,83.8573933 44.3051754,83.7936393 44.3016868,83.736969 C44.2912211,83.4323666 44.2772667,83.1277642 44.249358,82.8231617 C44.1412118,81.6012101 43.8795676,80.4075936 43.7121154,79.1962676 C43.7121154,79.1643906 43.7121154,79.1395974 43.7121154,79.0970948 C43.7121154,78.7818667 43.6667637,78.4595548 43.6353664,78.1443267 C43.5551289,77.3296923 43.4434941,76.5150578 43.3144163,75.7075072 C42.5608811,71.0676329 41.1200941,66.576518 40.331673,61.9437275 C39.9269968,59.5600363 39.4769688,57.1798871 38.9432148,54.8209891 C38.7025022,53.7619644 38.4478352,52.7100234 38.1722367,51.6580825 C38.025716,51.0984641 37.8547752,50.5459294 37.7187202,49.9827691 C37.6803457,49.8198422 37.6454598,49.6569153 37.610574,49.4939884 C37.6070854,49.4585696 37.5303364,49.030001 37.5094049,48.838739 C36.9756508,44.0394797 35.7930193,39.2402205 34.599922,34.5684692 C33.4591535,30.0986056 31.6136902,25.8908417 30.1868575,21.5130672 C28.7635133,17.1423765 27.2424887,12.7291831 26.0389256,8.29119643 C25.9063593,7.80595767 25.8330989,7.25696491 25.6726238,6.77880993 C25.6098292,5.9677174 25.5261031,5.13537354 25.3377193,4.35615801 C24.6225587,1.427016 21.8002905,-0.63082137 18.8175473,0.176729268 C14.1498157,1.43764167 13.6369932,6.58400605 12.4543617,10.4765418 C11.8194386,12.5662562 11.3938308,14.737434 10.7065788,16.8094389 C10.6507614,16.9759077 10.5914554,17.1388346 10.5321494,17.3017615 C10.4902863,17.41156 10.3926058,17.6594922 10.3716743,17.7090787 C10.1379389,18.2332782 9.90071485,18.750394 9.66697942,19.2745935 C9.11578242,20.5248802 8.59947131,21.7928764 8.15642056,23.0892077 C6.70516771,27.3288485 5.83999775,31.7314163 4.60852598,36.0348111 C3.32472538,40.5117585 2.37582929,45.0453762 1.48972779,49.6214964 C0.983882442,52.2354104 0.858293253,54.7749446 0.715261121,57.4171936 C0.593160521,59.6733768 0.258256017,61.9153923 0.167552714,64.1715755 C-0.0173424805,68.7335282 0.0070776396,73.3521512 0,77.9211877 C-0.00687671472,82.7629496 0.34895932,87.5338738 1.25948094,92.2906304 C1.28738965,92.4393897 1.41646743,93.3461133 1.41297884,93.2221471 C1.46879625,93.767598 1.51065932,94.3130489 1.56647674,94.8584998 C1.70950887,96.2858809 1.97813019,97.6813851 2.1874455,99.0910568 C2.16651397,99.0025096 2.24675151,99.7356806 2.26419445,99.9198588 C2.31303469,100.454684 2.36187493,100.993051 2.42466953,101.527876 C2.59561037,103.001302 2.80841427,104.379097 3.28286232,105.778143 C4.00151156,107.89265 4.56317433,110.000074 6.04233588,111.728516 C7.58429204,113.531337 10.026304,114.321179 12.2799323,114.675367 C14.8754422,115.086227 17.3000112,115.135813 19.8955211,114.657658 C22.211944,114.229089 24.3888232,113.244444 26.5343052,112.295218 C26.7471091,112.199587 26.959913,112.103956 27.1692283,112.008325 C27.2320229,111.97999 27.5355301,111.84894 27.7029824,111.774561 C27.7901971,111.739142 27.8774118,111.703723 27.8913662,111.700181 C28.1425445,111.60455 28.3972115,111.508919 28.6483899,111.413288 C29.7472953,110.998887 30.8496893,110.580944 31.8997544,110.056744 C32.8800478,109.567964 33.675446,108.877295 34.5301502,108.218504 C34.5127073,108.243297 34.735977,108.105164 35.0115755,107.949321 C35.405786,107.726182 35.8174394,107.542003 36.2256043,107.3472 C37.3035782,106.837168 38.2768944,106.245672 39.1385757,105.516043 C39.8048962,106.033159 40.6421574,106.359013 41.6643139,106.412141 C46.258785,106.649447 48.030988,101.959987 48,98.0851604 C47.9926136,97.461788 47.9437733,96.8490412 47.8774901,96.2433783 Z"/>
    </g>
    <path fill="#D7A9FF" d="M112.719051 195.62043C113.390475 194.520288 114.051622 192.929201 113.996812 191.592546 113.911171 189.564269 112.736179 187.876428 111.067895 186.898125 109.796984 186.152752 108.502094 185.855319 107.224332 185.883987 106.981112 184.58675 106.429585 183.619198 105.542346 182.888158 106.056191 181.580171 105.734181 179.964 105.179229 178.767102 103.956277 176.140377 100.866354 175.595681 98.4238769 176.25505 96.9611309 176.649238 95.5463437 177.376694 94.2069205 178.143568 93.1278456 176.75316 91.305408 175.921782 89.4795447 176.348221 85.8038386 177.211851 82.7104905 178.763519 79.8603624 181.357992 78.6956466 182.418716 77.5994435 183.551111 76.4415789 184.619002 76.1264206 184.909268 75.8078365 185.192366 75.4858269 185.471881 75.3967604 185.550719 75.3316733 185.608055 75.2802888 185.654641 75.222053 185.69406 75.1432634 185.74423 75.0336431 185.823067 74.3348136 186.31401 73.6325585 186.758368 72.8789189 187.148972 70.8577944 188.191779 70.1418367 191.356033 71.3373832 193.294721 71.5943058 193.71041 71.8957617 194.047262 72.2143457 194.341111 71.1695271 195.842609 70.1760931 197.379942 69.3573664 199.010447 68.6414087 200.436691 67.9734099 201.923855 68.000815 203.572277 68.0453483 206.055662 69.651971 208.073187 71.9060386 208.707472 72.5945912 208.900982 73.2934207 208.936817 73.9819732 208.850813 74.7698692 210.864755 76.1983589 212.12974 78.3393806 212.247996 79.8500855 212.330418 81.2477444 211.943397 82.5666138 211.316279 83.399043 212.667269 84.8960454 213.588236 86.437581 213.566734 88.4689824 213.538066 90.2982713 212.699521 91.980258 211.567126 93.0147997 213.323055 95.2722929 214.53787 97.1426895 213.760245 98.4170256 213.229883 99.5372082 212.660102 100.62656 211.796472 101.274005 211.284028 101.911173 210.757249 102.54149 210.223304 102.753879 210.040544 102.969694 209.857784 103.182083 209.675024 103.240319 209.624855 103.267724 209.59977 103.301981 209.567518 103.322535 209.556768 103.332811 209.553184 103.363642 209.535266 104.497527 208.872314 105.67252 208.166359 106.70021 207.338564 107.128415 206.990962 107.488106 206.607525 107.834095 206.213337 109.327672 205.690142 110.646542 204.339152 110.971977 202.851988 111.328243 201.210733 110.968551 199.823908 110.139548 198.741683 111.085023 197.784881 111.98939 196.810161 112.719051 195.62043zM331.969411 218.846383C331.587282 215.617838 329.294507 213.818779 326.034138 214.348734 325.392582 214.453331 324.789589 214.697389 324.214642 215.014665 324.123492 214.910069 324.02533 214.808959 323.923663 214.707849 324.193608 213.316716 323.632684 211.691984 322.630033 210.743642 320.652777 208.874852 318.268852 208.913204 315.979582 209.669785 316.253033 208.881825 316.333665 208.03808 316.088261 207.121118 315.657051 205.496386 314.349398 204.168011 313.003181 203.223156 311.02242 201.832023 308.361539 201.70302 306.110833 202.456115 304.326394 203.055801 302.766326 204.032035 301.269361 205.130298 301.181716 204.816509 301.073037 204.516666 300.911772 204.241228 299.737338 202.243435 297.36393 201.863402 295.39018 202.801283 292.287571 204.426015 289.125364 205.66374 286.460977 208.006701 283.589749 210.534449 281.076111 213.508476 278.899026 216.642884 278.366148 217.409924 278.274998 218.347806 278.474827 219.236876 277.980513 220.457168 277.822754 221.782057 278.23994 223.180163 278.916555 225.453393 281.139214 226.555143 283.407449 226.098405 283.719463 226.035647 284.020959 225.944997 284.311939 225.847373 284.126133 228.988754 285.966663 232.056918 289.644219 231.99416 290.98693 231.969754 292.298089 231.648991 293.549649 231.153901 293.328786 233.475943 294.152642 235.846797 296.056277 237.422717 298.324512 239.301967 301.22028 240.173604 304.165129 239.971384 306.359742 239.821463 308.452689 239.277561 310.457991 238.486114 311.285353 239.319399 312.428235 239.838895 313.735888 239.866788 315.65004 239.908626 317.353845 239.009097 318.507244 237.527313 318.962995 236.941573 319.204893 236.460429 319.492367 235.780552 319.590528 235.55044 319.681678 235.316841 319.772828 235.083242 319.951623 234.867076 320.502029 233.859463 320.635248 233.643297 320.6668 233.601459 320.701858 233.55962 320.736916 233.514295 320.978814 233.221425 321.217207 232.921582 321.462611 232.632198 322.289973 231.648991 323.219003 230.766894 324.172573 229.90223 325.697584 228.51807 327.159491 227.095558 328.575823 225.603315 330.23756 223.86004 332.274413 221.443862 331.969411 218.846383z"/>
    <path fill="#000" d="M519.169919,148.326027 C524.67261,145.468082 529.259355,142.620709 534.186509,140.61909 C548.834616,134.670617 563.068617,127.548659 579.088887,125.52942 C590.508374,124.088114 601.892768,123.679333 613.126258,125.980489 C623.07532,128.017348 632.406732,131.974774 641.327548,137.052825 C649.700903,141.817242 655.747546,148.703093 661.095824,156.406506 C662.099504,157.854861 662.696097,159.726093 662.980356,161.484557 C663.127749,162.393743 662.422366,163.87029 661.646795,164.363646 C661.088806,164.719568 659.572758,164.116968 658.825263,163.514368 C651.494191,157.597611 643.078723,155.518464 633.86663,156.254975 C613.428064,157.883053 598.972973,168.916625 588.560674,185.891622 C582.043776,196.519936 579.878495,208.504982 578.502823,220.750801 C577.011341,234.046766 578.650216,247.134817 580.173282,260.258107 C582.229773,277.969615 581.078699,295.585976 578.278223,313.093093 C576.84991,322.029899 574.603913,330.836317 572.705345,339.801315 C573.277372,339.244526 574.077508,338.62783 574.67761,337.856079 C584.4126,325.314245 590.020572,311.302913 589.655598,295.184243 C589.602957,292.911277 589.402923,290.638312 589.47311,288.368871 C589.574882,285.130336 592.070044,283.763033 594.884558,285.394635 C595.954915,286.014855 596.877879,286.931089 597.772768,287.805035 C612.140125,301.851607 619.741419,319.059186 621.854059,338.980228 C624.033377,359.532062 619.309767,378.716592 611.083805,397.280903 C609.795867,400.18466 607.781489,401.513199 606.033823,400.818975 C604.131745,400.06132 603.514096,397.591013 604.868713,394.58506 C608.514947,386.497533 611.332971,378.15628 612.957808,369.423865 C613.091164,368.712021 613.178899,367.989606 613.333311,366.950033 C609.578286,369.649399 606.205782,372.243046 602.668338,374.582967 C594.635392,379.900648 585.788273,383.530345 576.748138,386.694876 C560.475193,392.393147 543.865349,396.692398 526.662422,398.345144 C524.272542,398.574202 521.78089,398.486103 519.422594,398.063225 C516.067637,397.460625 514.737586,395.120705 515.867603,391.885694 C516.804604,389.200423 518.103071,386.631444 519.369953,384.076561 C524.262014,374.234093 528.308316,364.134375 529.417277,353.047944 C530.835062,338.902701 529.136527,325.166238 524.314654,311.81389 C522.177448,305.893608 519.994621,299.994471 517.745115,293.852179 C516.709851,296.618501 515.783378,299.289676 514.723548,301.911515 C509.161198,315.658549 500.938747,327.277101 488.147096,335.209573 C487.718953,335.473871 487.297829,335.752265 486.855648,335.991896 C484.774592,337.133664 482.637387,338.412868 480.265053,336.943369 C478.005019,335.547874 477.871663,333.077567 478.110301,330.839841 C479.833401,314.56964 475.923964,299.042997 472.011017,283.533975 C470.572176,277.835704 468.617457,272.26782 466.859263,266.654125 C466.645192,265.973998 466.195992,265.367874 466.090711,265.167007 C463.778037,270.625647 461.756641,276.404969 458.956164,281.77551 C454.225534,290.846227 447.206796,298.154955 439.45109,304.660217 C426.312013,315.679692 412.488608,325.772362 397.535186,334.212287 C395.429564,335.399867 393.176549,336.411249 390.874403,337.13014 C387.10885,338.307148 384.985682,336.50992 384.750554,332.573638 C383.887249,318.019613 380.914814,304.032949 372.864321,291.61093 C370.885037,288.555642 368.165276,285.979615 365.498155,282.843275 C364.178633,285.986663 363.087219,288.594406 361.988786,291.202149 C358.370627,299.79008 352.159043,306.626596 346.610731,313.885988 C343.504939,317.94561 339.953458,321.666929 336.475673,325.427013 C334.882419,327.150237 334.682385,328.665547 335.250903,331.044232 C338.518126,344.696119 341.504599,358.418485 344.470016,372.140851 C344.89114,374.086086 344.820953,376.175805 344.694615,378.180948 C344.645484,378.984414 343.824292,379.738545 343.354036,380.517344 C342.606541,379.971128 341.395808,379.558823 341.199284,378.854027 C340.490391,376.355527 340.157001,373.754833 339.630596,371.203473 C336.314242,355.046039 332.962794,338.906224 326.186203,323.721408 C320.409781,310.777841 314.777244,297.767318 308.944672,284.471353 C306.853088,285.126812 304.757995,285.933803 302.596223,286.430684 C289.20798,289.500068 275.791662,292.439064 262.413947,295.543688 C252.142024,297.925897 241.694632,298.338202 231.226184,299.00071 C215.802507,299.976851 200.385848,300.459636 185.007793,298.96547 C174.774473,297.971708 164.586774,298.458017 154.367491,298.384014 C141.463541,298.29239 128.5631,297.647502 116.206612,293.062808 C113.107839,291.913992 109.661638,291.695505 106.376869,291.054142 C104.730975,290.73346 103.071043,290.490305 101.439186,290.109716 C96.2593575,288.90804 96.340073,288.946803 93.0833785,293.323583 C79.2248799,311.944277 68.6862445,332.541922 58.2248152,353.132519 C54.1820219,361.089659 52.6308808,370.019417 52.3676781,379.047846 C52.3255657,380.475057 52.3115282,381.919887 52.0658724,383.318906 C51.9816475,383.801691 51.2271332,384.168184 50.7779339,384.584014 C50.4164689,384.108277 49.7496888,383.636064 49.74267,383.153279 C49.5356172,372.158471 50.3041691,361.283478 53.8907443,350.774979 C57.5826006,339.95637 63.053707,330.05047 69.0161252,320.35601 C72.8834499,314.065711 76.1120695,307.377203 79.986413,301.093952 C82.7588146,296.600881 86.1313183,292.477828 89.2336006,288.189148 C89.7178935,287.519593 90.2056958,286.857085 90.9040603,285.902087 C88.752817,284.922422 86.8086265,284.034379 84.8609267,283.153385 C77.4491391,279.798559 69.9636548,276.602312 62.6641671,273.021952 C59.3057008,271.376254 56.0419876,269.297108 53.2064173,266.86204 C46.01572,260.680984 39.1092816,254.165151 32.0519404,247.825516 C26.7457743,243.0611 20.9482965,238.758324 16.1720452,233.514646 C11.80639,228.725561 8.38475511,223.030815 4.8648579,217.529887 C4.14192786,216.402214 4.41565865,214.2103 4.94557339,212.776042 C6.2054369,209.357784 7.89344344,206.098105 9.11821325,202.38031 C7.95661208,203.335307 6.75991722,204.251541 5.64042847,205.255875 C2.88206435,207.729707 1.81521615,207.405501 0.629049388,203.969623 C-0.676435919,200.181348 0.257056263,196.600987 1.54850409,193.136918 C4.64376764,184.841476 9.23402244,177.314262 15.4806994,171.147302 C24.1979723,162.538226 33.4486693,154.478891 42.4958228,146.208117 C48.5038627,140.714237 54.7329929,135.445892 60.5094144,129.712381 C63.5064157,126.734621 65.7524119,122.985109 68.2756483,119.542184 C68.5528884,119.165118 68.5458697,118.463847 68.4616448,117.949346 C67.0438597,109.255695 64.9698226,100.614903 64.2925143,91.8648687 C63.14846,77.0817854 63.0431789,62.157743 66.1700268,47.6001943 C67.9036551,39.533811 71.2515933,31.7916337 74.1994633,24.0283125 C76.5226657,17.9071645 79.2985766,11.9586914 81.9481503,5.96793062 C84.987264,-0.900300444 85.1451856,-0.921444305 92.2762236,1.34799685 C102.509544,4.60062757 111.7076,9.68220232 119.115879,17.5371469 C122.846338,21.4910491 125.931073,26.0581232 129.373764,30.2939435 C137.108414,39.8086812 145.320338,49.0238809 150.745822,60.1455522 C154.676316,68.2013635 158.076894,76.532045 161.449398,84.8486306 C162.954917,88.5593783 163.804185,92.5414722 164.983333,96.5094703 C167.408307,95.5051369 169.636756,94.3915601 171.981015,93.644477 C182.284522,90.3601305 192.893345,88.9716836 203.670618,88.7109093 C211.629867,88.5170906 219.613682,87.8757268 227.541346,88.305652 C243.165058,89.1584544 258.406248,92.5414722 273.394763,96.9429195 C277.837624,98.2467909 282.076942,100.251934 286.411013,101.936395 C286.379429,102.190121 286.347845,102.447371 286.31626,102.701098 C286.625085,102.3487 286.965493,102.024494 287.235715,101.643905 C289.253602,98.7718635 291.117077,95.783531 293.285867,93.034829 C301.599563,82.487566 309.895711,71.9262071 318.409441,61.544571 C326.123034,52.1390766 334.584123,43.5300009 345.750935,38.1453641 C346.954649,37.5639079 348.140816,36.8732084 349.17257,36.0309779 C359.85509,27.312659 372.467762,22.4918585 385.287488,18.1926066 C388.877572,16.9874065 392.790519,16.7301562 396.5666,16.0993643 C398.865237,15.7152509 400.612903,16.7900638 401.455151,18.8163506 C403.546735,23.8415417 406.027859,28.8068252 407.30176,34.0540269 C411.825337,52.6993889 413.387006,71.7429603 413.548437,90.8887271 C413.660737,104.061353 411.842884,117.071876 409.36176,129.987251 C407.24561,141.006727 405.820806,152.093159 406.599886,163.341693 C406.715695,165.015582 407.277195,166.83043 408.165065,168.240021 C410.432117,171.841525 413.000976,175.252735 415.489118,178.794332 C418.682644,174.889766 421.511196,170.911196 424.852115,167.43303 C434.738008,157.146542 444.35017,146.549943 456.03286,138.169926 C458.682433,136.270502 461.009145,133.92001 463.528872,131.833815 C464.946657,130.656807 466.325839,129.324744 467.947168,128.521277 C481.988153,121.55085 495.836124,114.051828 511.572135,111.447609 C520.580685,109.956966 529.585727,107.987063 538.748689,110.104973 C541.58426,110.760433 544.41983,111.620283 547.065894,112.811388 C548.399454,113.410464 549.561056,114.805959 550.357682,116.10983 C551.578943,118.114973 550.740204,119.034731 548.613526,119.996777 C544.893595,121.677714 541.07891,123.386842 537.815197,125.786671 C531.866817,130.159926 526.195676,134.963107 522.426614,141.528276 C521.303616,143.498179 520.447329,145.640757 519.169919,148.326027 Z M5.53865677,198.955004 C9.47265953,197.47141 12.5363388,196.223922 15.6737147,195.191397 C16.4071729,194.951766 17.691602,195.166729 18.1548387,195.684753 C18.5654349,196.14287 18.3127603,197.341023 18.1267637,198.162109 C17.9653328,198.873953 17.5056054,199.525888 17.140631,200.181348 C15.2245155,203.627798 13.1048566,206.9791 11.4624718,210.552412 C10.7430512,212.117058 10.6553169,214.182108 10.8799165,215.940573 C11.5817904,221.423881 15.4526245,225.007766 19.1901026,228.475359 C24.727887,233.609793 30.5534398,238.42707 36.1929959,243.448737 C43.0889062,249.591029 49.8268949,255.916567 56.8280862,261.931996 C59.4074725,264.148578 62.3869269,266.062097 65.468153,267.496356 C73.5221551,271.252915 81.6989851,274.745176 89.8898526,278.19515 C95.4206183,280.524498 100.603956,283.759509 106.805012,284.407921 C110.623205,284.80613 114.511586,285.366443 118.143783,286.550499 C130.047563,290.44097 142.274205,291.350156 154.641222,291.075285 C164.779789,290.849751 174.872735,290.451541 185.032358,291.452351 C199.813821,292.907753 214.651434,292.636407 229.489046,291.565118 C239.603048,290.835655 249.741615,290.75108 259.715242,288.499258 C271.401441,285.863324 283.287675,284.020284 294.847536,280.926232 C308.028727,277.398731 320.943205,272.884516 333.969983,268.775559 C341.564258,266.382779 349.253286,264.236677 356.710695,261.466831 C367.228274,257.558741 377.577404,253.199581 387.982683,248.988429 C398.314266,244.808992 407.782544,239.167105 416.352423,231.995812 C417.808811,230.78004 418.524723,229.430357 418.050958,227.629604 C417.068334,223.908285 415.882168,220.239825 414.997807,216.497361 C414.724076,215.341497 414.710038,213.466741 415.387347,212.906429 C416.345404,212.113534 418.075523,211.951431 419.437158,212.053626 C420.402235,212.12763 421.332218,213.04034 422.227107,213.657036 C423.93266,214.837568 425.60312,216.078008 427.287617,217.29378 C427.491161,217.184537 427.694704,217.075294 427.898247,216.96605 C426.764721,213.769803 426.04881,210.344498 424.427481,207.419597 C418.324688,196.403645 412.000805,185.503984 405.603225,174.657183 C403.311607,170.770236 400.963839,167.024249 401.451642,162.242212 C401.493754,161.822859 401.18493,161.368266 401.135799,161.223783 C398.173891,162.932912 395.464658,164.941579 392.439582,166.167923 C382.725648,170.104205 373.938188,166.989009 365.824527,161.625516 C359.823505,157.657518 354.127799,153.199687 348.484734,148.717189 C345.884291,146.652138 343.143474,144.164211 343.655842,140.351267 C344.698125,132.612614 345.28068,124.68719 347.477545,117.262171 C350.281531,107.78972 354.113762,98.5674728 358.18463,89.5460918 C365.550796,73.2195067 373.559176,57.1854116 381.016585,40.8975901 C383.929362,34.5332877 386.71931,28.1654614 390.997231,22.576434 C391.039344,22.5200503 390.884931,22.3121357 390.719991,21.956214 C388.505579,22.8935919 386.287658,23.8415417 384.059209,24.7683476 C373.208239,29.2825621 362.406401,33.8602081 353.183779,41.4438065 C351.320304,42.9767365 349.056761,44.0127857 347.017818,45.3378011 C343.99976,47.3006562 340.778159,49.0344529 338.058398,51.3602777 C326.681024,61.0758821 317.897073,73.1384552 308.635848,84.7605312 C308.270873,85.2186482 308.021708,85.7683886 307.667262,86.2370775 C305.649375,88.9188239 303.610431,91.5864745 301.596053,94.268221 C298.785049,98.0106845 295.981063,101.756672 293.194624,105.516755 C292.243585,106.799483 291.422392,108.180882 290.429241,109.424846 C289.306243,110.830913 287.786686,111.250266 286.15132,110.446799 C284.03868,109.41075 282.045358,108.113926 279.904643,107.144833 C277.24805,105.939633 274.545836,104.790816 271.773435,103.909822 C267.379704,102.514327 262.95439,101.16112 258.462398,100.146214 C245.621616,97.2495054 232.763288,94.3774642 219.459269,94.9236807 C215.525267,95.0857836 211.587754,95.2901743 207.650242,95.3218901 C192.907383,95.4311333 178.315426,96.1394527 164.895598,103.437609 C161.733657,105.15731 159.694713,103.990873 158.613828,100.477468 C157.353964,96.3755592 156.136213,92.2595541 154.946537,88.140025 C150.612466,73.1525511 143.197169,59.7473428 134.044735,47.2618925 C130.022998,41.7785843 125.330971,36.7639652 121.597002,31.1044582 C115.455607,21.801159 107.559526,14.6897736 97.7017082,9.6857263 C95.950533,8.79768411 94.1502267,8.00831327 91.662084,6.84187691 C92.3253548,8.30785132 92.6692729,9.03026659 92.9816068,9.76677777 C95.1714531,14.9540718 97.8104987,20.0074548 99.449374,25.3638997 C104.292303,41.2077001 108.893086,57.1290279 113.290326,73.1032154 C115.922353,82.6708128 118.073596,92.3793693 118.235027,102.398036 C118.291177,105.77753 117.083954,108.540328 114.609849,110.92606 C111.391757,114.02716 107.324398,115.56009 103.593939,117.759051 C94.9117598,122.868818 86.1313183,122.794814 76.9648462,119.834674 C75.5821547,119.387129 74.0941822,119.263789 72.732547,119.003015 C72.1780667,120.483085 71.8201111,121.593138 71.3603837,122.657379 C68.6230758,128.961774 64.222327,134.029253 59.2460416,138.592803 C49.4724486,147.561324 39.6602526,156.491082 29.756813,165.318644 C22.1871038,172.06706 15.1999499,179.287689 10.3429831,188.294974 C8.57075167,191.565224 7.26526637,195.078629 5.53865677,198.955004 Z M389.481184,332.471443 C391.299037,331.622164 393.271302,330.910321 395.029496,329.84608 C411.137501,320.09876 426.641893,309.481017 440.447751,296.586785 C450.467,287.234151 458.082331,276.320394 460.577492,262.435925 C460.861751,260.864231 460.837186,259.169198 461.444307,257.738464 C461.977731,256.47688 463.023523,254.936902 464.164068,254.5986 C465.034391,254.337826 466.680285,255.525406 467.48744,256.487452 C468.65606,257.879423 469.480762,259.599123 470.280898,261.258916 C475.246655,271.570073 477.868154,282.631837 480.366825,293.71122 C483.037455,305.558831 485.174661,317.487493 483.497182,329.733313 C483.388392,330.533255 483.483145,331.36139 483.483145,332.49611 C484.356978,332.01685 485.06587,331.763123 485.609822,331.30853 C489.143757,328.344866 492.877726,325.571496 496.102836,322.294197 C503.47602,314.805746 508.066275,305.516543 512.077484,295.93485 C513.340857,292.914801 514.232237,289.739698 515.330669,286.652694 C515.857075,285.176148 516.144843,283.37892 518.246955,283.357776 C520.521026,283.336632 520.710532,285.257199 521.243956,286.818321 C521.272031,286.899373 521.282559,286.983948 521.307125,287.061476 C523.514518,293.591405 525.472746,300.220006 527.971417,306.637168 C538.920648,334.733836 538.046816,362.051705 523.075847,388.552012 C522.265183,389.98627 521.50365,391.452245 520.510498,393.281189 C522.426614,393.281189 523.998811,393.460912 525.521877,393.252997 C546.721976,390.377432 567.272841,385.07737 586.967421,376.58811 C594.737164,373.240332 601.896277,368.849457 608.174538,363.211093 C616.281181,355.930557 614.628268,358.904794 614.901999,348.77336 C614.923055,347.931129 614.905508,347.088899 614.870415,346.246668 C614.193106,328.683167 609.262443,312.6385 598.057027,298.838607 C597.520094,298.179623 596.941048,297.559403 596.021593,296.512782 C595.944387,297.837797 595.881218,298.493257 595.867181,299.148717 C595.684694,308.201813 593.694881,316.860225 589.799482,325.004135 C585.374167,334.258099 580.29962,343.071565 570.971716,348.357531 C569.627628,349.11871 567.967696,349.35834 566.697305,350.207619 C565.254954,351.169664 563.83015,352.022467 562.398328,350.753835 C560.88579,349.414724 561.545551,347.726739 562.303575,346.116281 C563.766982,343.008134 565.50061,339.959894 566.465687,336.689643 C568.009809,331.460061 569.245107,326.114188 570.217202,320.747171 C573.814305,300.868417 575.590046,280.88042 573.115941,260.702128 C571.371785,246.472309 570.336521,232.274206 571.947321,217.910476 C574.817985,192.301736 585.374167,171.584275 608.16752,158.302406 C621.924247,150.285358 636.31266,147.86791 651.539812,153.770572 C651.77494,153.862195 652.066218,153.812859 652.904957,153.862195 C650.364174,151.152257 648.476133,148.449366 645.966934,146.592231 C635.933648,139.156639 624.780873,133.733239 612.56125,131.417986 C596.218118,128.316886 579.846911,129.701809 564.16354,135.082922 C553.014275,138.906437 542.265077,143.97744 531.51588,148.889864 C525.427124,151.670281 519.517347,155.039203 515.407875,160.649375 C514.133974,162.386695 512.82498,162.658042 511.143992,161.62904 C509.392817,160.554227 509.277008,159.007201 510.091181,157.241689 C510.473702,156.413554 510.87728,155.553704 511.024673,154.665662 C512.912714,143.230357 517.955677,133.623995 527.350258,126.653569 C532.028247,123.182452 536.920308,120.000301 541.847462,116.599663 C540.110325,116.310697 538.250359,115.965347 536.383375,115.697525 C528.571519,114.573376 521.05796,116.610235 513.477722,117.914106 C498.436566,120.504229 485.276432,127.911629 471.744305,134.360507 C470.775719,134.822148 469.887849,135.523419 469.073675,136.238786 C459.14567,145.009965 448.175382,152.57242 439.226491,162.488891 C432.55518,169.87867 425.627686,177.035867 418.823019,184.284688 C420.679475,187.040438 422.258691,189.316927 423.771229,191.639228 C429.466935,200.396311 433.815044,209.724278 435.334601,220.172869 C435.622369,222.142772 435.622369,224.214871 435.373204,226.191822 C434.980154,229.314065 432.878042,230.293731 430.126697,228.750229 C429.210751,228.235729 428.470275,227.372354 427.712251,226.604127 C426.32605,225.194536 424.985471,223.73561 423.244824,221.89257 C423.571195,224.930238 423.613308,227.365306 424.122166,229.698179 C425.82772,237.524932 421.781417,241.788944 415.289084,244.720893 C408.347552,247.853708 401.490245,251.183866 394.5066,254.210963 C385.827931,257.97457 377.068545,261.551407 368.305651,265.114147 C366.996656,265.646268 366.821187,266.361635 366.835225,267.584455 C366.873828,270.597455 366.933487,273.624552 366.6387,276.612884 C366.498326,278.036571 366.954543,278.593359 367.926639,279.463781 C370.853453,282.082096 373.955735,284.63698 376.303503,287.738079 C382.083434,295.360441 385.389259,304.247911 387.301866,313.523019 C388.540673,319.584259 388.754744,325.84989 389.481184,332.471443 Z M397.822954,23.9225932 C397.436924,23.9190692 397.050893,23.9155452 396.668372,23.9155452 C396.247247,24.7013921 395.791029,25.473143 395.408508,26.2766098 C390.011099,37.6625793 384.480333,48.9921652 379.26892,60.4662341 C372.699381,74.9286355 366.628172,89.6236193 359.893693,104.008493 C354.710355,115.073781 352.060781,126.667665 350.744768,138.698522 C350.516659,140.770621 351.316795,141.940581 352.927595,143.050634 C356.026368,145.179116 358.998804,147.494369 362.006333,149.753238 C367.045787,153.534465 372.085241,157.336836 378.138903,159.380743 C385.915665,162.00963 398.166872,159.54637 400.100535,147.652948 C401.841182,136.947106 403.378285,126.206024 404.775014,115.450846 C407.814128,92.0340196 405.91205,68.7475799 402.357059,45.5633356 C401.23757,38.2863232 399.353039,31.13265 397.822954,23.9225932 Z M86.3839929,8.06469691 C86.1313183,8.05764895 85.8751343,8.04707702 85.6224598,8.04002907 C82.8149645,15.0315993 79.4740451,21.8610666 77.3298206,29.0499796 C74.4521379,38.6845326 71.7744893,48.3895651 71.0129562,58.5844304 C69.7355458,75.7180063 70.5040977,92.7000512 72.8378281,109.678572 C73.1992931,112.321555 73.9187138,113.914392 76.8841307,113.773433 C77.7509449,113.731146 78.6388152,114.273838 79.5266856,114.520516 C86.433124,116.430512 93.2132251,116.772338 99.7406517,113.06159 C101.105796,112.286315 102.628862,111.729527 104.141401,111.281982 C109.549338,109.689144 114.020275,105.590759 112.483171,99.3392238 C111.079423,93.6268571 110.314381,87.7488636 108.777277,82.0787847 C103.783445,63.6589572 98.7053878,45.2602736 93.3571093,26.9391174 C91.4831062,20.5184314 88.7352702,14.3514718 86.3839929,8.06469691 Z M315.265046,282.906707 C320.869508,295.476733 326.330087,307.719029 331.822249,320.031804 C332.141602,319.728742 332.534651,319.415108 332.854004,319.038042 C339.083134,311.574259 345.498261,304.258483 351.471207,296.590309 C356.672092,289.912373 360.24463,282.297059 362.108105,273.976949 C362.567832,271.922471 362.592398,269.765797 362.848582,267.348349 C346.831821,272.584978 331.344975,277.648933 315.265046,282.906707 Z"/>
    <path fill="#000" d="M165.950436 331.054188C189.653384 330.437039 206.444443 335.104674 221.884172 344.379648 228.072766 348.096731 234.30017 352.203966 239.338546 357.300768 247.975762 366.047264 255.699155 375.705296 263.778904 385.005098 264.322258 385.629341 265.059668 386.480582 264.996159 387.161574 264.876197 388.449075 264.58335 390.148009 263.711867 390.800627 263.016797 391.322012 261.294999 390.704862 260.151838 390.272149 259.552031 390.045151 259.234486 389.108787 258.758169 388.520012 256.157831 385.306579 253.645699 382.015116 250.921871 378.911635 247.580595 375.105881 244.179339 371.332049 240.576971 367.77812 237.641446 364.883902 234.473056 362.202495 231.2341 359.655867 219.604907 350.508579 206.747874 343.787326 192.285477 340.474582 185.034873 338.814663 177.681949 338.47062 170.205535 338.676337 158.756284 338.988458 148.259667 342.329577 138.514573 347.898108 127.09002 354.424285 117.556622 363.248811 110.355414 374.396514 107.850339 378.273205 105.772185 382.430096 103.436467 386.423832 103.097753 387.005513 102.321533 387.824832 101.894611 387.743255 101.220711 387.615569 100.338642 386.923936 100.148116 386.285506 99.8764384 385.377516 100.028154 384.285091 100.208096 383.309711 101.65116 375.538595 106.223804 369.39193 110.877598 363.390685 117.725979 354.555518 125.999783 347.142632 135.57552 341.478337 146.601378 334.948613 158.474022 330.752707 165.950436 331.054188zM107.24255 239.527152C115.822404 241.266661 123.681732 242.767343 131.49559 244.460512 145.192577 247.426232 158.763646 245.323137 172.383683 243.761857 186.108651 242.189883 198.871752 237.399106 211.386517 231.902544 225.566186 225.675246 239.522002 218.931085 253.624721 212.521995 254.53762 212.108505 255.866746 212.636061 257 212.725175 256.884576 213.894353 257.209862 215.598216 256.576779 216.14003 254.429192 217.982911 252.099725 219.76163 249.563893 220.94863 237.570286 226.552129 225.51372 232.013045 213.425675 237.399106 207.154302 240.193726 200.840956 242.927749 194.419182 245.337396 183.590309 249.397437 172.173821 250.545228 160.827288 252.135025 142.677732 254.676561 125.231213 251.272399 107.903615 246.41033 104.626272 245.490672 101.5448 244.759936 97.9386731 245.294621 93.1118494 246.007534 88.2430534 244.620918 84.1962165 241.626682 80.7090113 239.045935 79.8136006 234.957377 80.0304579 230.893771 80.6355597 219.373092 94.0142556 212.564769 103.53499 218.877617 105.045996 219.87926 105.913425 219.540626 107.27403 218.763551 118.998314 212.072859 127.665611 201.764132 137.151368 192.464178 143.464714 186.27609 149.225423 179.506978 155.304423 173.06937 155.878045 172.463394 156.951838 172.342198 157.791286 172 157.812272 172.987385 158.235494 174.270629 157.784291 174.905122 155.332404 178.3378 152.723121 181.66354 150.054377 184.928684 144.926752 191.20945 139.813117 197.504475 134.528095 203.642659 127.669108 211.609465 120.208518 218.916827 111.100512 224.238725 109.56852 225.133432 109.075344 226.081606 109.603497 227.938746 110.680788 231.710057 109.960262 235.338786 107.24255 239.527152zM103.833448 166.901435C103.112828 166.367131 102.858491 166.15896 102.586492 165.978546 99.467338 163.921128 99.6192334 164.12236 96.6519745 166.294271 94.4653873 167.893714 91.8619708 168.9762 89.3503981 170.082972 88.7286867 170.357063 87.7360679 169.81929 86.9165393 169.652754 87.1814731 168.847828 87.2026678 167.800037 87.7501977 167.28308 89.9827068 165.166681 92.3741762 163.213349 94.7055939 161.197565 94.6561396 160.906127 94.6066853 160.614688 94.557231 160.32325 93.7447672 160.32325 92.819265 160.076915 92.137502 160.371823 90.3712764 161.131645 88.7675436 162.262704 86.9907207 162.987831 85.77909 163.48397 84.3272526 163.900311 83.0873623 163.709488 81.9852375 163.539482 81.0244108 162.488222 80 161.825546 80.7312174 160.961639 81.3034745 159.851397 82.2219117 159.278928 84.4756155 157.877247 86.8882796 156.725371 89.357463 155.410428 88.9512311 154.504887 88.6898297 153.92201 88.4319608 153.339132 87.587705 151.427434 87.7961196 149.685742 89.6753836 148.554682 91.5440502 147.430562 93.0947962 148.138342 94.6208151 149.574717 97.7611641 152.530737 100.859124 155.583903 104.335056 158.127052 111.004323 163.005178 118.79691 163.643568 126.773185 162.894154 132.566405 162.349442 137.999315 160.708365 142.67628 157.124364 143.001265 156.87456 143.432224 156.565774 143.792534 156.586591 144.8664 156.649042 145.9332 156.864151 147 157.01681 146.816313 157.991741 146.975273 159.271989 146.395951 159.893031 142.937681 163.608873 138.87183 166.544075 133.891074 167.997799 126.102019 170.270326 118.245848 171.252196 110.223652 169.04212 109.609005 168.872114 108.67997 169.520912 107.994675 169.940723 105.81162 171.269544 103.769863 172.868986 101.466705 173.927186 100.710761 174.274137 99.3154426 173.288797 98.2133179 172.91409 98.7255233 171.99814 99.068171 170.922593 99.7817262 170.197466 100.936838 169.04212 102.328623 168.108823 103.833448 166.901435zM320.512117 175.018913C323.871147 175.986538 326.805879 176.715814 329.641607 177.719013 330.557385 178.042741 331.222119 179.088629 332 179.803675 331.059472 180.333734 330.023476 181.429427 329.19963 181.287129 326.183574 180.764185 323.128625 180.098943 320.296432 178.960561 317.934503 178.010724 318.061793 177.686996 316.046375 180.212781 318.3093 181.941699 320.586369 183.645714 322.824544 185.410207 324.12219 186.431193 326.066892 187.413047 325.172329 189.405216 324.210586 191.553912 321.997162 190.942032 320.490902 190.191411 317.655174 188.779106 314.847732 187.174699 312.383264 185.203875 311.032581 184.122412 310.081445 184.157986 309.197489 185.129168 308.624686 185.755279 308.207459 187.085763 308.483253 187.807924 309.0702 189.362527 310.138018 190.739257 311.036116 192.172907 311.573561 193.033809 312.397407 193.791544 312.669666 194.720037 312.966675 195.737466 312.782812 196.90075 312.807563 198 311.725601 197.893277 310.459778 198.113838 309.593501 197.622911 305.838459 195.484887 304.088228 191.82072 303.105269 188.505183 297.440884 188.295293 292.069972 188.387787 286.769776 187.822153 279.850174 187.082205 274.47219 182.959128 269.352321 178.594144 268.652228 177.996494 268.1855 176.907916 268.012244 175.972308 267.909706 175.410232 268.471901 174.268293 268.924486 174.158012 269.684688 173.969467 270.731291 174.172242 271.41724 174.599135 273.701381 176.029227 275.780444 177.807949 278.11055 179.145548 289.54186 185.716147 306.174362 182.375707 314.327966 171.952397 315.371033 170.618355 316.293882 169.188263 317.354629 167.872009 318.974035 165.858496 320.809126 165.445832 322.371959 166.747857 324.175228 168.249098 323.90297 169.963786 322.707862 171.714048 322.092629 172.606966 321.502147 173.52123 320.512117 175.018913zM314.286056 226.000839C316.323084 226.045222 318.003632 227.697621 318 229.650456 317.992719 231.801305 315.784727 233.98971 313.609472 234 311.55062 234.010194 309.953735 232.391935 310.001024 230.343507 310.055587 227.953674 312.030776 225.953042 314.286056 226.000839zM303.016695 206.001581C304.610105 205.949268 305.969772 207.201719 305.999402 208.75882 306.032323 210.383621 304.702286 211.906872 303.171427 211.996113 301.640567 212.085354 300.047157 210.623648 300.001066 209.081934 299.954976 207.537142 301.410115 206.053895 303.016695 206.001581zM99.0650884 206C97.1771234 205.874213 96.0323685 204.916837 96.0006676 203.03353 95.9689667 201.153717 97.0679314 200.032119 98.9453294 200.000673 100.819205 199.969226 101.967482 201.041907 101.999183 202.925214 102.034406 204.80852 100.928397 205.807826 99.0650884 206zM92.9978347 186C94.9899966 186.273029 96.1099147 187.372237 95.9914618 189.205432 95.8765984 191.020898 94.6992487 192.123652 92.7501605 191.988911 90.9446515 191.861261 89.9719022 190.737232 90.000618 188.989137 90.0365129 187.077933 91.238989 186.1702 92.9978347 186zM74.3324427 199.977664C73.5146934 198.868325 72.151778 197.80738 72.0154864 196.634756 71.8255043 194.963302 73.4114423 193.66411 75.236923 194.07732 76.3974661 194.341626 77.9875342 195.800891 77.9999243 196.73899 78.0123144 197.818548 76.5007173 198.912997 75.6499276 200 75.2121427 199.992555 74.7702277 199.98511 74.3324427 199.977664zM84.5181306 180.042117C85.0278421 181.133341 85.8572031 182.167132 85.9781516 183.331104 86.173973 185.211072 85.0220826 186.283151 83.7809208 185.934725 83.043711 185.727967 81.9580543 184.238543 82.0012502 183.415339 82.0646042 182.232223 83.012034 181.133341 83.5822197 180 83.8961098 180.011487 84.2071202 180.026802 84.5181306 180.042117zM318.953327 220C317.509331 218.334307 316.089138 217.400169 316.001863 216.364738 315.934424 215.588166 317.715617 213.896212 318.437615 214.005007 319.718963 214.200088 320.821795 215.449358 322 216.259695 321.174859 217.268864 320.353686 218.278034 318.953327 220zM295.98539 232C295.008897 230.416854 293.887093 229.355302 294.009155 228.616991 294.17481 227.59217 295.183271 226.266148 295.994108 226.04943 297.153693 225.740882 298.217372 226.91263 297.961624 228.565566 297.804688 229.579367 296.929914 230.420528 295.98539 232zM310 219.788404C308.409459 220.919392 307.468575 222.086233 306.725576 221.994971 305.736154 221.877636 304.899813 220.779241 304 220.1013 304.739266 219.358173 305.411325 218.090293 306.240199 218.00555 307.166148 217.917548 308.23771 218.892088 310 219.788404zM102 184.128649C100.929277 185.036395 100.06909 186.166661 99.7232107 185.979461 98.9743064 185.580335 98.2975856 184.584288 98.0058438 183.65535 97.9065914 183.333931 99.0976199 181.935226 99.6029048 182.002336 100.309702 182.097702 100.923262 183.107878 102 184.128649zM104.09075 194C103.007404 192.761436 101.996014 192.09993 102 191.441239 102 190.959887 103.335206 190.481351 104.07476 190 104.758347 190.540464 105.889665 191.04152 105.993602 191.632653 106.089544 192.184377 105.090147 192.828994 104.09075 194zM288.031512 218C287.0391 217.006808 285.875308 216.180967 286.010818 215.915388 286.417348 215.125928 287.23838 214.300087 288.103253 214.01268 288.541667 213.867157 290.084091 215.016786 289.996408 215.282365 289.725388 216.130034 288.92827 216.843095 288.031512 218z"/>
  </g>
</svg>
