<svg xmlns="http://www.w3.org/2000/svg" xmlns:xlink="http://www.w3.org/1999/xlink" width="91" height="211" viewBox="0 0 91 211">
  <defs>
    <polygon id="1-a" points="0 0 91 0 91 211 0 211"/>
  </defs>
  <g fill="none" fill-rule="evenodd">
    <mask id="1-b" fill="#fff">
      <use xlink:href="#1-a"/>
    </mask>
    <path fill="#231F20" d="M61.1730662,25.6956791 C60.9290845,25.7344522 60.6844945,25.7732254 60.4405129,25.8126043 C60.0127845,28.9338411 59.3149119,32.0484138 59.2339903,35.1793439 C59.1561109,38.2121296 59.9562002,41.2636959 59.9300376,44.3037515 C59.8923148,48.7553913 59.2838818,53.2027903 59.2577192,57.6538243 C59.2388578,60.8526073 58.4831841,63.9314361 60.1734108,67.3337781 C61.4535537,69.9091619 60.4386876,73.6404697 60.357766,76.8550044 C60.212959,82.6085731 59.8990075,88.3603244 59.867369,94.1138931 C59.8521582,96.7444075 60.4253021,99.3743161 60.5506392,102.012706 C60.5932296,102.92751 59.8387727,103.876846 59.8728449,104.794678 C60.0352965,109.033672 60.5567236,113.267213 60.5421212,117.501359 C60.5293441,121.242966 59.9032666,124.979121 59.7316885,128.72618 C59.6963994,129.480439 60.4873622,130.272259 60.8980545,131.046509 C61.4121803,130.327389 62.295625,129.648859 62.381414,128.881878 C63.0160096,123.236753 63.4784186,117.572242 64.0205324,111.916211 C64.6009774,105.859122 65.3286632,99.8129371 65.7594338,93.7461542 C66.011325,90.1990188 65.6791206,86.6137161 65.8494818,83.0568874 C65.9875961,80.162231 66.6039387,77.2924137 66.7913361,74.3971515 C67.1338838,69.1179478 66.9470949,63.7793727 67.6480097,58.5540878 C68.8253274,49.7616752 67.5293652,41.352753 64.6727725,33.1098282 C63.7832435,30.5435318 62.354643,28.1620136 61.1730662,25.6956791 M24.8477934,132.187893 C28.1862651,132.873693 28.9991315,131.424547 28.9480231,129.204786 C28.717427,119.092875 28.4253792,108.982176 28.209994,98.8696596 C28.1637531,96.6814012 28.2738794,94.4828436 28.4357226,92.2976144 C28.8007824,87.3752446 29.5041309,82.462568 29.5789681,77.5383808 C29.6483295,72.9855673 28.9833122,68.4266956 28.8105173,63.8641889 C28.4381563,54.0424709 28.1893072,44.2159062 27.8577113,34.3917648 C27.7658379,31.66977 27.5601876,28.9508044 27.3667059,25.5205942 C26.3445385,26.6316867 25.7312381,27.1236207 25.3394073,27.7524724 C23.0486572,31.4292554 22.0763813,35.4755949 21.9467851,39.7794121 C21.7411348,46.6186284 21.435093,53.4548156 21.2081475,60.2934261 C21.0797682,64.1440824 20.6398711,68.0347235 21.0140574,71.8417601 C21.929749,81.1594274 23.2384883,90.4383217 24.3799085,99.7341792 C24.4273663,100.121305 24.4857758,100.554473 24.3646977,100.907066 C22.6124108,105.991799 23.2190184,111.074108 24.2113726,116.196401 C24.6987274,118.712414 25.0528354,121.282951 25.1398413,123.84016 C25.2371905,126.653029 24.9585282,129.478621 24.8477934,132.187893 M85.2743124,139.916468 C58.6571959,134.767518 31.6804955,138.949563 5.00922852,136.997579 C4.62652419,139.406359 4.27302464,140.971824 4.15438022,142.554859 C4.02904303,144.232402 4.1263923,145.926303 4.1263923,147.832245 C16.5140873,145.304116 28.8117341,145.442245 41.119116,146.584235 C44.3182564,146.477609 47.5161801,146.438836 50.7128868,146.487908 C54.018503,146.539403 57.4299866,146.962879 60.5500308,147.471776 C63.8659904,148.013388 67.077908,147.494192 70.2995605,147.984914 C74.3018325,148.595591 78.3375682,149.019066 82.3720872,149.3759 C83.7033385,149.494037 85.0759632,149.156589 86.5057807,149.020278 C86.0786607,145.862085 85.7062998,143.109193 85.2743124,139.916468 M50.6733387,116.612001 C50.6733387,119.357623 50.5565195,122.411613 50.7177543,125.451062 C50.8114529,127.202517 50.9392239,129.202968 51.8415299,130.575174 C52.4536135,131.505729 54.42737,131.771688 55.8188562,131.847153 C56.2934339,131.872256 57.0168606,130.472182 57.3289867,129.616145 C57.7743597,128.393579 58.2045218,127.068629 58.1899194,125.792751 C58.1248171,120.095524 57.8881366,114.400721 57.7378537,108.704706 C57.6770104,106.400734 57.7372453,104.093127 57.6362454,101.792184 C57.5127335,99.0053656 57.1069087,96.2227878 57.1282039,93.44021 C57.1628846,88.8474118 57.635637,84.2534019 57.5693178,79.6648445 C57.4847456,73.7949564 56.8440657,67.9305207 56.8185115,62.0618443 C56.7905236,55.5110031 57.3575831,48.9589502 57.3472397,42.4075032 C57.3350711,35.0927102 57.0077341,27.7767056 56.7296803,20.4643359 C56.6341563,17.9477176 53.6248469,15.0373096 51.4795123,15.6491981 C49.1528647,16.3125821 49.1157503,18.7062169 48.882112,20.7381712 C48.8711602,20.8302573 48.9891962,20.952635 48.9587746,21.024123 C47.4498609,24.5379377 50.0600382,27.7633773 49.3493885,31.5788955 C48.2396068,37.5414756 49.0640335,43.8717946 49.1857201,50.0445978 C49.2234429,51.962656 49.7406109,53.8679918 49.8586469,55.7896849 C50.0223154,58.4365568 50.1494779,61.0991802 50.0399599,63.7448404 C49.9505203,65.9185589 49.4929787,68.0765258 49.2891537,69.5753495 C49.8337012,70.9481606 50.4354414,71.8090452 50.4816823,72.6990097 C50.6453507,75.8341806 50.9227962,79.0178179 50.524881,82.1020991 C50.3496523,83.4615819 51.3383559,86.1993283 48.2377815,86.246583 C48.2170948,86.246583 48.2012756,86.5700963 48.1617274,86.9360177 C48.9952806,86.9753967 49.8136229,87.0147756 50.7153205,87.0571838 C51.0566514,97.0436876 52.1591319,106.88661 50.2310079,116.940361 C50.7664289,116.542936 51.0067599,116.364822 50.6733387,116.612001 M38.9549199,124.845232 C38.6634806,124.427209 37.6997228,123.665075 37.6358373,122.834482 C37.4490484,120.412373 37.6778192,117.962396 37.6419216,115.52393 C37.5652591,110.284105 37.3109341,105.04428 37.3437895,99.8050613 C37.3736027,94.9299463 37.7952467,90.0578604 37.8299274,85.1827453 C37.8579153,81.2854401 37.501982,77.3869232 37.4314038,73.4871947 C37.3815123,70.7034052 37.4253195,67.9093167 37.601765,65.1309797 C37.8761683,60.7980826 38.2862521,56.4730613 38.6847757,52.1492517 C38.7127636,51.8457308 39.1161547,51.5761364 39.3455339,51.2907904 C39.6546178,51.3325927 39.9630933,51.3756066 40.2715689,51.4180147 C39.9490994,59.9256872 38.6616553,68.5375625 39.5657866,76.9137699 C40.5411047,85.940033 39.7738707,94.8015103 39.7915153,103.74114 C39.8103767,112.772249 40.3889964,121.802147 40.7278936,131.007736 C41.2943447,131.36457 42.1528436,131.975247 43.074011,132.472634 C44.5744067,133.282628 48.2554261,131.549954 48.2913236,129.857265 C48.4130102,124.069164 48.3734621,118.276822 48.3479079,112.486903 C48.3375645,110.067218 48.128872,107.647532 48.1580768,105.229664 C48.1805888,103.416415 48.6673352,101.590443 48.546257,99.7965797 C48.2414321,95.2746636 47.4066621,90.7721341 47.3403429,86.253853 C47.2429937,79.7157342 47.6761979,73.1709514 47.7784147,66.6273801 C47.7948423,65.6229138 46.68141,64.1798264 47.0653312,63.6757757 C48.5973654,61.6650255 47.6086619,59.3749877 47.6323907,57.472681 C47.6877581,53.107675 46.2987057,48.745698 45.9397303,44.3473713 C45.5996162,40.1762309 45.8143931,35.9596532 45.8137846,31.7630678 C45.8137846,30.9615546 46.005441,30.1606472 46.0084832,29.3585281 C46.027953,24.4603915 46.0182181,19.561649 46.0182181,14.6647241 C40.8148995,13.5663541 39.9898644,17.4763817 38.9889922,20.6618366 C39.6454913,22.3551318 40.3543157,24.1296082 40.2989483,25.8798515 C40.1961232,29.1416409 37.9163249,32.3380006 40.1510991,35.6918762 C40.3823037,36.0378052 39.8919067,36.8150853 39.8395815,37.4021347 C39.6278468,39.7460915 38.5296253,42.5928872 39.4733048,44.3310139 C41.1750918,47.4667906 40.1273702,48.9474395 37.2373137,50.8400528 L37.2373137,16.5579433 C35.2690331,17.892587 34.0010588,18.9115933 32.5919281,19.6706985 C30.2981359,20.9059861 29.4943959,22.6416894 30.0870096,25.1710302 C30.4508525,26.7201379 30.7435088,28.3225585 30.7702798,29.9068043 C30.8420749,34.1863884 30.6850992,38.4702132 30.7489847,42.7504031 C30.8347737,48.4718628 31.0830144,54.1908992 31.1675866,59.912359 C31.1852311,61.1209901 30.5652379,62.3490078 30.6376414,63.5443106 C30.8816231,67.5367312 31.58558,71.5182468 31.5916643,75.5052148 C31.5989655,80.6450777 30.8451171,85.7885755 30.8907496,90.926015 C30.9412495,96.7007877 31.6877967,102.466473 31.8210435,108.243063 C31.9944469,115.788072 31.8636339,123.340956 31.8636339,131.14526 C34.0503419,131.345184 35.7217072,131.497853 37.2324462,131.635982 C37.8609575,129.16056 38.3982038,127.038943 38.9549199,124.845232 M7.46851452,152.245111 C8.35074231,154.737497 9.3735181,156.946353 9.9125897,159.266683 C12.7223331,171.360264 15.4377694,183.475655 18.122784,195.597104 C19.1613791,200.2832 22.3812062,202.459342 26.7400199,203.48683 C27.0983869,203.57104 27.5036033,204.060551 27.73785,203.971494 C32.9429939,201.992247 37.865825,204.828743 42.9584088,205.009887 C48.0272637,205.190424 52.9665225,206.03798 58.1637568,205.300079 C63.0433891,204.607615 64.7281399,201.858358 65.7277953,197.769005 C68.8009901,185.19803 71.8474139,172.619179 75.1256507,160.100911 C76.1240892,156.285998 75.68115,154.101981 70.5465843,153.384678 C66.7882939,152.858817 62.9953229,152.575895 59.2175626,152.190587 C55.6138142,151.822242 52.0167586,151.323644 48.4038837,151.128567 C42.4771383,150.8099 36.5357905,150.782032 30.6090451,150.462759 C22.8326635,150.044131 15.0982638,149.882374 7.46851452,152.245111 M8.46573614,106.89812 C10.5319745,106.89812 12.5976043,106.89812 14.6638426,106.897515 C19.8482999,106.896303 20.3691185,106.218985 19.0640298,101.18696 C15.5016548,100.743492 11.9222438,100.297601 8.34222425,99.8517103 L8.21932079,98.3062376 C9.5986383,97.9615202 10.962745,97.4695862 12.3639661,97.3120703 C13.8199461,97.1484962 15.3130406,97.2835963 16.7884905,97.3338802 C18.835259,97.4041565 19.6006676,96.6408106 19.4187462,94.4470997 C19.2173549,92.0219617 17.9177421,92.2358197 16.1338167,92.1928058 C14.0700121,92.1425219 12.0031653,91.5845523 9.97951733,91.0780783 C9.50189746,90.9593356 9.19524725,90.1644865 8.81010919,89.6804282 C9.35222295,89.34601 9.87486686,88.768048 10.4407095,88.7232166 C12.1504061,88.5869048 13.9045183,88.8407477 15.5844017,88.579029 C16.6041353,88.4209074 18.3911029,87.4370392 18.3290428,87.0880811 C18.0607238,85.5728999 17.6299533,83.4464362 16.5372077,82.8502993 C14.3273792,81.6440915 11.6466236,81.2981625 9.1684762,80.5663197 C8.7955068,80.4554528 8.47303733,80.1737418 8.11892935,79.9665479 C10.1760412,77.4571995 13.340501,77.4317547 16.3911838,79.8514402 C18.7226989,76.235846 17.8629831,74.0524342 13.7852655,73.5841275 C11.4032504,73.3108981 8.97195235,73.4556915 6.59237107,73.1691339 C5.7825468,73.072201 5.06277062,72.2319147 4.30162099,71.731499 C5.01105382,71.2080617 6.13239575,70.1036334 6.35751595,70.2617551 C7.31579785,70.9366498 9.16969306,68.7223407 9.48546977,71.2038209 C9.48912037,71.2322949 10.7802151,71.2050326 11.4135938,71.0154078 C11.9417136,70.8566803 12.4290684,70.1048451 12.8604474,70.1630048 C14.7672762,70.4192709 16.730081,70.7082519 16.9472915,68.1098465 C17.0708034,66.6407084 16.5262559,65.115834 16.2555033,63.4491953 C18.0844527,63.089938 17.7893627,61.7613525 17.7333869,59.5276568 C17.591622,53.9625013 13.6009103,54.8149043 10.3433602,54.1648485 C8.85878382,53.8679918 7.37724958,53.5553834 5.89449847,53.2494392 C5.9541249,52.9180501 6.01435976,52.5860552 6.07398619,52.2546661 C9.47208424,52.6787472 12.8701823,53.1034342 16.4508102,53.5505368 C16.7702375,50.643158 17.0683697,47.9272215 17.4036162,44.8738377 C14.6401138,43.9457059 11.516419,42.8958023 8.39211575,41.8465045 C8.47668793,41.5563119 8.56126011,41.2661193 8.64583229,40.9759266 C11.5267623,41.4799773 14.4089092,41.984028 17.210743,42.4741445 C20.9173166,34.8776405 14.456367,33.8531818 9.24635562,31.9993416 L10.0488787,30.9433797 C11.6490574,31.3850298 13.2595794,31.7915419 14.8457641,32.2780235 C16.3333827,32.7342135 17.8946216,33.2879423 18.7963193,31.4886268 C19.6980169,29.686888 20.6234434,27.7258159 18.5821509,26.0094991 C17.228996,24.872356 15.8016123,23.823664 14.4076924,22.7349873 C14.6766197,22.3666425 14.9449387,21.9982978 15.2144745,21.6299531 C16.1161721,21.8419937 17.0896648,21.9080291 17.9031397,22.3012129 C19.0768069,22.8682699 20.1543416,24.2477451 21.2361354,24.2107895 C22.2589112,24.1750455 23.2342293,22.7586146 24.252746,21.9310507 C22.7316636,19.0915249 21.2105812,16.2507874 19.4905413,13.0398877 C23.5354036,13.5675657 24.9810403,16.2732031 26.3481891,19.162407 C29.2832697,17.450331 30.215389,15.2257228 28.6413729,12.0136115 C27.7956511,10.2857839 27.3423686,8.36711992 26.7126405,6.5350896 C27.0624894,6.33031902 27.4135552,6.12494261 27.7634042,5.91956619 C29.6726668,8.6039995 31.5807125,11.2884328 33.5337823,14.0346608 C36.286333,12.4776773 38.0526139,10.7886229 36.9264045,7.42747739 C36.4262726,5.93592361 36.3550859,4.254745 36.3599534,2.66080593 C36.3629956,1.77326479 36.9209286,0.886935309 37.2287956,0 C38.096421,0.898446082 39.4367988,1.66360954 39.7373647,2.72138894 C40.4382795,5.19135838 40.6390624,7.80188041 41.041845,10.3524252 C43.101999,10.1997561 44.8609786,10.0688967 46.9935361,9.91077509 C47.2527286,7.3874926 47.5161801,4.81816702 47.7790231,2.24884144 C48.1392154,2.17008352 48.4994077,2.09132561 48.8596,2.01256769 C49.5094064,3.29813922 50.8808143,4.71214675 50.6775977,5.84626075 C50.0137973,9.54364203 51.5987652,11.4526128 55.1769594,12.6539739 C56.5349817,9.3400831 57.9021306,6.00498824 59.5351646,2.02226097 C62.4891066,6.85920872 59.5777549,10.153713 58.2130398,13.85897 C59.2254723,14.2654821 60.2640673,14.6822932 60.8317353,14.9100853 C63.8477374,14.3781665 64.0752914,8.80816425 68.4870387,11.6876749 C66.8527878,13.6087622 65.2635609,15.2348103 64.0028878,17.083198 C63.5471715,17.7514286 63.4838945,19.3053829 63.9487373,19.822156 C64.568122,20.5091674 65.8817288,20.8532789 66.8935528,20.8484322 C68.3921232,20.8399506 69.8876514,20.3958771 71.3843964,20.1371877 C71.5292035,20.5194665 71.6734021,20.9011395 71.8176007,21.2828124 C71.2852219,21.6856895 70.807602,22.3018187 70.2107293,22.4538821 C67.9692623,23.0245741 67.2032452,24.4840188 67.2829499,26.6316867 C67.3638715,28.8266092 68.0319309,29.7359602 70.4723554,28.809646 C72.0701004,28.2026042 73.934339,28.2928729 75.6793247,28.0705332 C75.8381257,28.4225205 75.9957098,28.7751137 76.1545108,29.127101 C75.0508134,29.8577321 73.9118269,30.5417143 72.8531536,31.3329285 C71.9563234,32.0029766 70.7589274,32.6372807 70.3798736,33.5654125 C69.246363,36.3389028 70.3768315,37.5911537 73.2778398,37.1525327 C74.4642841,36.9726011 75.6890596,36.6957368 76.8523834,36.833866 C77.7078401,36.9350397 78.4902849,37.6396201 79.3055851,38.075212 L79.02023,38.9348849 C77.3080997,39.1941802 75.5186984,39.2378 73.9142607,39.801222 C73.0770569,40.0956554 72.1352027,41.2394627 71.9995222,42.1160989 C71.7482393,43.7379062 72.055498,45.4451355 72.155281,47.6945828 C73.8010921,47.5964383 75.6647223,47.212342 77.436479,47.465579 C78.9094952,47.675802 81.2428356,46.6640657 82.1068104,49.5296422 C80.263867,49.6550491 78.8930675,49.7731859 77.5192259,49.8367981 C72.4753167,50.068831 71.8674922,50.8636802 72.9152138,55.9684048 C74.677844,56.2446634 76.4575104,56.5233452 78.2365684,56.8026329 C78.3728574,57.0588991 78.5091463,57.3145594 78.6460438,57.5702197 C75.6987945,59.3041055 70.2478437,59.08843 72.4035216,64.7941382 C74.9358196,65.3151521 77.6056234,65.86464 80.2754272,66.4141279 C80.1999815,66.930901 80.1257527,67.4476741 80.0509155,67.9644472 C78.7969351,67.8935651 77.5350452,67.7009111 76.2907998,67.783304 C74.7946632,67.8820543 72.727208,67.7184802 71.9879619,68.5836056 C71.2182942,69.4856867 71.3393724,71.6297195 71.8443718,72.9334659 C72.1291184,73.6677321 73.947116,73.9645888 75.1256507,74.1675419 C77.0519494,74.4995368 79.0196216,74.5934405 80.9696492,74.787912 C81.0091974,75.1804899 81.0481371,75.5730678 81.0870768,75.9650399 C80.4689089,76.296429 79.8720362,76.6859778 79.2228382,76.9367914 C78.8669049,77.0743149 78.4166645,77.0197902 78.0157072,76.9798054 C71.2937399,76.3164214 71.2937399,76.3139981 71.5815287,82.8842258 C73.5948334,83.2931612 75.6117886,83.6851333 77.6147499,84.1401117 C77.7595569,84.1728265 77.7978882,84.6647606 78.0077976,85.3293562 C76.7811968,85.5207985 75.6501199,85.8849025 74.5385129,85.8321952 C72.0500221,85.7140584 70.8325478,86.7591153 70.630548,89.2302964 C70.3713556,92.3939414 72.5641479,92.1019312 74.5993562,92.2588412 C75.7985775,92.3509274 76.9758953,92.7350237 78.1623396,92.9876549 C78.1580805,93.3923494 78.1544299,93.7970439 78.1501709,94.2017385 C76.8043172,94.3719767 75.4578551,94.6894317 74.1138267,94.6761035 C72.3828349,94.6591402 70.8775718,94.8184735 70.4802651,96.8395228 C70.0957354,98.793325 70.5995179,100.127969 72.9413764,100.234595 C74.2342964,100.292755 75.540602,100.513883 76.7921485,100.844666 C77.3476478,100.991883 77.7814605,101.592866 78.2712491,101.988473 C77.7595569,102.387109 77.2180516,103.158937 76.7416486,103.12077 C74.6748019,102.95659 72.6268165,102.556742 70.3202472,102.204149 C70.0622716,103.715089 69.6613143,105.267226 69.6035132,106.832085 C69.5828265,107.390055 70.2983436,108.348478 70.8416742,108.486607 C72.6329009,108.942797 74.5178262,109.024584 76.3273058,109.425038 C77.0464735,109.584371 77.664033,110.199895 78.3272249,110.607618 C78.2073636,110.904475 78.0875023,111.201938 77.9682494,111.498794 L70.1389342,111.498794 C69.9259826,111.69266 69.8061214,111.747185 69.7909105,111.822914 C68.8034238,116.732561 68.8040323,116.731349 73.7219959,117.329304 C74.9193919,117.475309 76.1155711,117.62919 78.1818094,117.887879 C75.4243913,121.18723 72.0062149,118.802683 69.2585317,120.210026 C68.9080743,121.739141 68.4900809,123.560267 67.9205876,126.04417 L78.344261,126.04417 C78.3247912,126.55852 78.3053213,127.07287 78.2864599,127.587825 C76.5475585,127.587825 74.769109,127.819858 73.0764485,127.538753 C69.6673986,126.972302 67.8189793,128.173057 67.739883,131.31671 C71.4002157,132.030378 75.1536386,133.604324 78.6837666,133.208717 C82.1110694,132.824015 85.0412825,135.625374 88.0530257,133.972669 C88.5884467,135.373348 89.3039638,136.626205 89.5284756,137.960849 C89.9848003,140.688296 89.6221743,143.685338 90.6327814,146.15046 C91.6798945,148.70464 90.1137881,150.811112 90.5104864,153.139317 C90.5932333,153.623375 89.5978369,154.572711 88.9151752,154.839882 C87.6240804,155.346356 86.2088654,155.576571 84.8265057,155.809816 C80.0886383,156.607088 79.5909401,157.240787 78.4981945,161.942634 C76.1751975,171.926109 73.6921826,181.872628 71.270011,191.833081 C70.0324584,196.920843 68.8241106,202.017086 67.4922508,207.080008 C67.2872089,207.8585 66.587511,208.948994 65.9364878,209.094999 C62.3278719,209.902571 58.592702,211.2669 55.0315439,210.954292 C44.7678884,210.052211 34.5699436,208.414046 24.3397519,207.119993 C20.7037566,206.660774 18.9459938,204.144155 17.4516824,201.256769 C13.2078626,193.054435 11.8674848,184.138433 10.4352336,175.144885 C9.30659048,168.059701 7.00245488,161.156267 5.11570429,154.200125 C4.94412619,153.567033 4.08258513,153.008457 3.41574261,152.644354 C2.29987657,152.0361 1.08240223,151.612019 0,151.150376 C0.199566009,147.160985 0.221469596,143.472691 0.629119675,139.826806 C0.860932631,137.749414 1.51986552,135.655665 2.35159337,133.72549 C3.36037521,131.383351 6.50536515,131.133143 8.4097603,132.811898 C8.90319943,133.246279 10.7564862,133.149952 10.903727,132.819168 C12.4095985,129.442271 15.3270346,130.783579 17.7589411,130.640603 C18.7135724,130.584261 19.6864567,130.849615 20.6982807,130.974416 C21.6024121,128.089453 21.1844186,126.571848 17.9694589,126.391311 C15.2777515,126.239853 12.5878694,125.65341 9.96126434,125.003354 C9.1185847,124.794948 8.48033853,123.768066 7.74778525,123.116193 C8.71884424,122.841146 9.76656579,122.178974 10.6487936,122.352241 C17.4109174,123.681433 17.4011825,123.731716 20.759124,122.278936 C20.3125342,117.714006 20.1141851,117.837595 15.6744498,118.126576 C12.9419774,118.304084 10.1401436,117.405638 7.36933995,116.990645 C7.3924604,116.468419 7.41618929,115.945588 7.43991817,115.42215 C11.4653106,115.074404 15.4913115,114.726657 19.7217458,114.361342 L19.7217458,110.84571 C15.8521122,109.428673 11.5200696,110.402242 8.27590505,107.765669 C8.33857365,107.476688 8.40245911,107.187101 8.46573614,106.89812" mask="url(#1-b)"/>
  </g>
</svg>
