<svg xmlns="http://www.w3.org/2000/svg" xmlns:xlink="http://www.w3.org/1999/xlink" width="154" height="149" viewBox="0 0 154 149">
  <defs>
    <polygon id="10-a" points="0 0 154 0 154 149 0 149"/>
  </defs>
  <g fill="none" fill-rule="evenodd">
    <mask id="10-b" fill="#fff">
      <use xlink:href="#10-a"/>
    </mask>
    <path fill="#231F20" d="M14.999775,37.2512435 C14.8183617,36.9747409 14.6369485,36.6982382 14.4555353,36.4211358 C13.8053215,36.8667789 12.8150327,37.1840672 12.5875177,37.7886543 C12.2660032,38.6469522 12.5060913,39.7169755 12.5060913,40.6964307 C12.8090455,40.7372163 13.1125983,40.7774021 13.4155524,40.817588 C13.9436266,39.6288065 14.4717008,38.440025 14.999775,37.2512435 L14.999775,37.2512435 Z M135.093543,115.088841 C135.44679,115.201001 135.800037,115.311962 136.153284,115.424122 C136.740033,114.173563 137.326782,112.923603 137.913531,111.673643 C137.714156,111.581275 137.514183,111.488308 137.314808,111.395941 C137.085497,111.853579 136.856186,112.310619 136.576582,112.867822 C136.29099,111.977736 136.090418,111.348557 135.889247,110.719979 C135.624012,110.749368 135.358778,110.778158 135.093543,110.807548 L135.093543,115.088841 Z M99.7610697,20.0726913 C99.6658727,19.8111834 99.5706756,19.5490757 99.4754786,19.2875677 C98.2720442,19.3697388 97.0674124,19.4513101 94.9832557,19.5940598 C96.424982,20.8470187 97.2212844,21.5403746 98.0175867,22.2331307 C98.5989473,21.5127843 99.1803079,20.7930377 99.7610697,20.0726913 L99.7610697,20.0726913 Z M112.016342,22.7687422 C112.132495,22.4610505 112.249246,22.152759 112.365997,21.8450673 C110.30519,21.260873 108.244384,20.6760789 106.183577,20.0918846 C106.057845,20.5447251 105.932113,20.9975657 105.80698,21.4504063 L112.016342,22.7687422 Z M111.077544,107.599877 L111.888215,107.680849 C111.916355,106.14419 112.009158,104.604532 111.936113,103.072671 C111.912763,102.576046 111.45474,102.099813 111.244588,101.706352 C110.497979,102.341528 109.881893,102.865144 109.587321,103.115256 C110.139943,104.777871 110.608743,106.189174 111.077544,107.599877 L111.077544,107.599877 Z M48.284614,107.340168 C50.0945553,106.195172 51.5482561,105.274496 53.2468349,104.199674 C49.8784161,102.821359 48.6731856,103.536308 48.284614,107.340168 L48.284614,107.340168 Z M20.8145782,30.625976 C17.1707466,29.2470614 16.0601144,29.9680076 15.7433896,33.8648357 C17.5940442,32.6832517 18.9274015,31.8315516 20.8145782,30.625976 L20.8145782,30.625976 Z M109.510684,119.255574 C109.543015,119.544672 109.575346,119.83437 109.607677,120.124068 C112.03131,119.03725 114.581873,122.651578 117.525797,119.255574 L109.510684,119.255574 Z M15.4673781,123.716803 C17.9640553,123.716803 20.4631275,123.762987 22.9556137,123.663422 C23.2974848,123.649627 23.6100185,122.910687 23.9363229,122.508228 C23.4687198,122.241922 23.0202758,121.805276 22.5293225,121.749496 C21.685721,121.654129 20.5738913,122.160351 19.9991167,121.776486 C17.7215723,120.255422 16.7618184,122.121964 15.4673781,123.716803 L15.4673781,123.716803 Z M20.847508,26.5114245 C22.359285,24.82002 25.7773978,26.1077666 25.8522383,22.5684127 C25.8582255,22.2739164 26.543764,21.9944148 26.9137751,21.7083155 C26.3833061,21.658533 25.8306842,21.4917917 25.326559,21.584759 C24.4655945,21.7431032 23.4794968,21.8606619 22.8250919,22.3608858 C21.6324346,23.2725648 19.5985707,23.905342 20.847508,26.5114245 L20.847508,26.5114245 Z M138.84754,102.624029 C139.37741,104.063522 139.607919,105.514411 140.391648,106.543649 C140.976601,107.312578 142.27643,107.5351 143.257738,108.000536 C143.5571,106.992291 144.280358,105.889279 144.079785,104.992595 C143.40203,101.965461 141.044856,102.39431 138.84754,102.624029 L138.84754,102.624029 Z M84.6570704,118.586209 C83.0069883,119.557867 81.7819999,120.278813 80.5564127,120.99976 C80.3773944,120.788034 80.198376,120.576309 80.0199564,120.363983 C79.7217921,121.561762 79.423029,122.75954 79.0619987,124.209829 C81.3557087,123.856554 83.4219037,123.537466 85.8120082,123.169196 C85.3845195,121.473593 85.0055275,119.968123 84.6570704,118.586209 L84.6570704,118.586209 Z M16.3528902,40.4205278 C11.8013937,44.8325745 11.7894192,49.6782686 16.3528902,51.0481863 L16.3528902,40.4205278 Z M135.774891,70.6978685 C135.738967,65.3789411 132.648955,62.2450444 128.831494,59.3702565 C128.487228,61.1288373 128.095064,62.7302736 130.737829,62.3554055 C130.918045,64.8469284 131.096465,67.3126603 131.29584,70.0692898 C132.394498,70.2234356 133.978121,70.4453574 135.774891,70.6978685 L135.774891,70.6978685 Z M40.7119584,26.3830697 C39.5881542,24.1398595 38.7044383,22.3746809 37.8027606,20.5759142 C34.832493,22.5744106 30.9563566,21.6987189 29.5757001,25.498981 C33.110564,25.7796822 36.5280781,26.0507867 40.7119584,26.3830697 L40.7119584,26.3830697 Z M46.1106487,15.4927037 C44.9401442,16.2064524 43.9779954,16.7930459 43.0152479,17.3784398 C42.1848183,17.8846616 41.2532045,18.2853206 40.5682647,18.9438887 C40.2587246,19.241384 40.357514,20.5477241 40.4108004,20.5573207 C42.9990824,20.9903682 42.0435196,23.3667316 42.77037,24.7906304 C47.0290907,22.1767506 48.8917197,18.9564843 47.7068457,16.1410755 C47.4194584,16.4853543 47.1536252,16.8038421 46.8740213,17.1391241 C46.5333476,16.403783 46.2333871,15.756011 46.1106487,15.4927037 L46.1106487,15.4927037 Z M42.5931478,16.4745581 C43.4068131,14.5492359 42.6135044,12.0553139 40.9334861,11.5964754 C38.1703768,10.8407415 33.2806015,14.1065917 32.3789238,17.8816627 C35.9503099,17.3898358 39.2480793,16.9357957 42.5931478,16.4745581 L42.5931478,16.4745581 Z M70.2404058,17.0539541 C64.9381099,13.6795421 59.1322875,14.2685347 56.8912652,18.3596944 C57.4277215,18.6032087 58.0479991,18.744159 58.4832712,19.1070313 C60.4620525,20.7606491 62.1109372,20.8452193 63.4969823,18.3638929 C63.7304845,17.9464399 64.4675132,17.5067947 64.9105686,17.5631748 C67.1982913,17.8498739 69.4662562,18.295517 71.9288062,18.7189679 C71.8102589,17.6027609 71.7150619,16.7036774 71.5749606,15.3805432 C70.9624664,16.1488727 70.5978437,16.6059118 70.2404058,17.0539541 L70.2404058,17.0539541 Z M115.637422,23.1963916 C116.180465,25.4977814 115.900861,26.9678638 113.608348,27.5424616 C112.960529,27.7044045 112.597104,29.0053465 112.103157,29.7838725 C112.333666,30.0615747 112.564174,30.3392769 112.794683,30.6157796 C114.11427,30.2631037 115.419487,29.8312558 116.758832,29.5859421 C117.547351,29.441393 118.425079,29.4473909 119.202223,29.6363244 C122.091662,30.3380774 124.955956,31.142994 127.830428,31.9095241 C127.929816,31.6306223 128.029204,31.3511207 128.129191,31.0716191 C125.193051,26.9510698 120.616408,25.2974519 115.637422,23.1963916 L115.637422,23.1963916 Z M59.8729085,124.369373 L68.8393926,124.369373 C70.4643284,122.596397 67.2114632,120.414366 70.3876917,119.767793 C70.1086866,119.085234 69.9290695,118.330699 69.5075681,117.752503 C69.3057983,117.476 68.5508079,117.327852 68.2107329,117.483198 C67.2743292,117.910247 66.2062064,118.346294 65.5805403,119.103227 C63.6077461,121.489187 61.3559468,121.33804 58.8401104,120.273415 C58.2425843,120.020304 57.5384854,119.899147 56.889469,119.91954 C56.0722114,119.945331 55.2615397,120.179248 54.4478743,120.323198 C55.0459992,121.072334 55.5106087,122.025998 56.272185,122.526222 C57.5971603,123.397715 59.1059437,123.989107 59.8729085,124.369373 L59.8729085,124.369373 Z M147.714636,100.34963 C150.472955,99.2856041 151.020189,97.7141573 150.230472,95.4865416 C149.871837,94.474098 149.75808,93.3740853 149.389865,92.3676396 C148.318748,89.4388707 147.175186,86.5364925 146.059764,83.6239179 L145.162876,83.7366782 C144.355797,85.4196857 142.548849,87.3857935 142.929637,88.7317196 C144.05883,92.7269131 146.049586,96.4779925 147.714636,100.34963 L147.714636,100.34963 Z M145.135934,80.3154826 C143.452323,77.7028024 142.158481,75.5303672 140.684424,73.488686 C140.105458,72.6867683 138.74456,71.4751949 138.3973,71.6635286 C137.334566,72.2411252 136.428098,73.303951 135.754534,74.3655773 C133.992491,77.1425996 137.72673,78.6984519 137.437546,81.3579156 C137.284273,82.7638207 138.563745,84.7905072 140.258133,84.2081122 C141.972877,83.6185198 143.287674,81.8611385 145.135934,80.3154826 L145.135934,80.3154826 Z M81.1293912,127.27655 C84.5043959,130.693547 93.2188174,130.439836 105.143595,126.659367 C104.276044,126.131553 103.2648,125.868845 102.901375,125.234269 C100.892059,121.726704 98.276834,123.188389 95.7651887,124.274607 C94.3234623,124.898387 93.0421939,125.887439 91.6148369,126.554404 C90.7610571,126.953264 89.7707684,127.209973 88.8313711,127.244761 C86.3167321,127.337728 83.7961059,127.27655 81.1293912,127.27655 L81.1293912,127.27655 Z M85.979052,17.9350439 C86.8663604,16.8920111 88.1751701,15.4633141 85.1522148,14.1161883 C83.9763217,13.5919729 83.0471028,12.3660045 82.1819472,11.3133751 C80.0457015,8.71269065 77.4316745,7.59168531 74.1410898,8.51715949 C71.9527551,9.13254284 69.7811848,9.83669494 67.6605059,10.6524078 C66.8665985,10.9577003 66.2379387,11.6924416 65.4063117,12.3288176 C69.0315829,13.361654 72.2131999,14.230748 75.3678743,15.1874112 C76.434201,15.5106974 77.3975472,16.2112508 78.472256,16.466161 C80.8360166,17.025764 83.2410892,17.4114282 85.979052,17.9350439 L85.979052,17.9350439 Z M139.584569,45.2356326 C142.193207,48.4912864 140.256935,52.0594303 140.177305,55.3240809 C140.089293,58.9252131 141.76991,60.1379862 144.274969,60.5950253 C146.76506,61.0484656 145.990312,62.8310381 146.271114,64.1043898 C146.334578,64.3916886 144.79526,65.2757774 143.903761,65.4707088 C142.790135,65.714223 141.583108,65.5288883 139.965357,65.5288883 C141.407682,69.0496488 143.015255,71.9160397 145.775969,74.0326945 C146.397444,74.5089268 147.010537,74.9971549 147.627222,75.4793852 C147.992444,74.8040229 148.563027,74.1652478 148.689358,73.4479004 C149.478476,68.9626794 150.326268,64.4978513 148.776173,59.9484529 C147.738585,56.9051243 147.402701,53.5906912 146.142388,50.6613225 C144.500688,46.8436665 141.826789,43.6497909 138.502675,40.9555394 C138.202116,42.8862597 137.956041,44.4655037 137.660271,46.3674342 C138.478128,45.8858037 139.111577,45.5133348 139.584569,45.2356326 L139.584569,45.2356326 Z M124.089603,38.4010388 C123.85191,39.24974 123.568115,39.7487643 123.611223,40.2177992 C123.703426,41.2218457 123.798623,42.2870707 124.206354,43.183755 C124.566187,43.976076 125.781596,44.5212841 125.875595,45.268621 C126.30967,48.731202 128.27049,50.9168325 131.14077,52.5794472 C132.253199,53.2230206 133.205768,54.1436965 134.576845,55.2065223 C134.995353,55.1651369 135.98624,55.0667715 137.748882,54.892233 C137.039395,50.9504207 136.275424,47.1777489 135.695859,43.376887 C134.589418,36.1212414 129.221263,34.0705633 122.743672,33.8030575 C122.129382,33.7778664 121.057667,34.3590617 120.933731,34.8460903 C120.537376,36.4061411 120.487083,38.053761 120.303275,39.6593957 C121.433067,39.2839279 122.562858,38.9084601 124.089603,38.4010388 L124.089603,38.4010388 Z M123.224447,144.479693 C120.786445,140.623651 118.559792,136.96134 116.139752,133.432183 C115.803269,132.942155 114.495657,132.922362 113.670017,133.005133 C111.447555,133.228854 109.232876,133.568935 107.035561,133.973792 C105.390867,134.276685 103.763537,134.700736 102.155964,135.164973 C100.689091,135.588424 99.2862819,136.415532 97.8038424,136.569078 C95.480795,136.809594 93.1146395,136.632656 90.7670444,136.632656 C95.6394567,141.22284 116.091255,145.952775 123.224447,144.479693 L123.224447,144.479693 Z M5.31482262,122.98686 C2.97501094,125.378818 2.85945729,126.363071 4.66939862,128.734636 C7.61990834,132.602075 11.5301719,135.169771 16.2397315,136.140229 C20.8241578,137.084297 25.4971952,137.90061 30.1576594,138.079946 C34.0972604,138.232293 38.1081096,137.594117 42.0279528,136.946945 C47.5146555,136.041264 52.9456769,134.799101 57.9222672,131.660406 C57.4522692,130.845293 57.2229581,129.826252 56.6487822,129.563545 C54.5370842,128.597285 51.6081285,129.393804 50.3268601,126.528613 C50.2669877,126.393661 49.088101,126.762531 48.4295051,126.892085 C48.154691,126.946666 47.8780807,126.989851 47.4769359,127.060026 C47.6278142,126.427849 47.7505526,125.914429 47.825393,125.601939 C46.0597572,124.883992 44.4737385,124.092271 42.79851,123.605842 C41.5310122,123.236972 39.519301,122.61619 38.9199787,123.207582 C34.3606988,127.706598 28.2441389,125.626531 23.0196771,126.811114 C17.5287833,128.056275 11.3499561,126.255109 5.61957291,125.796271 C5.46749713,124.389766 5.40223626,123.791177 5.31482262,122.98686 L5.31482262,122.98686 Z M7.2277444,55.3462731 C4.7172965,53.7322413 7.18164269,51.7577365 6.85653579,49.9625685 C6.46976037,47.8291196 6.32367182,45.6512863 6.05245005,43.4944456 C6.03029728,43.3187075 5.72015847,43.1129799 5.76206912,43.0050179 C7.22355334,39.1597716 5.32380347,34.2804894 9.2909458,31.2245653 C11.3397778,29.6471206 13.5011699,28.2166242 15.588919,26.6901616 C17.3413828,25.4078131 19.3369285,24.2586176 18.9118347,22.0693884 C20.4499556,21.0383514 21.7192495,20.1290715 23.0532056,19.3259542 C23.4884776,19.0638465 24.1165387,19.1454178 24.6110843,18.9522858 C25.8408625,18.4718549 27.3029455,18.1977514 28.202827,17.3448517 C29.8846415,15.7506129 31.3784567,13.9032633 32.6884639,11.9821396 C34.7229266,8.99878993 37.8117414,7.45673282 40.6844171,5.58359226 C41.9453289,4.76128176 43.1397824,3.83700716 44.3641721,2.9583165 C44.6312028,3.21082761 44.8976348,3.46333871 45.1634681,3.71584981 C43.8420852,5.33707905 42.5207022,6.95830829 40.782009,9.0917572 C44.4563755,10.552243 47.8858641,12.0739073 51.4279127,13.2590901 C53.2977264,13.8846698 55.3639214,13.9224565 57.9587893,13.7263256 C57.366053,13.4984058 56.7733167,13.2716856 56.4745536,13.1565262 C61.9343138,10.8581353 67.4473603,8.53695252 73.6567224,5.92307275 C69.0896591,3.21802507 65.1602363,2.27155828 61.0470054,2.41070929 C57.1612895,2.54266284 53.2917391,3.08247279 49.4084181,3.35057841 C48.68516,3.40036088 47.9313671,3.01649602 47.1925422,2.83236085 L47.3440193,1.52362159 L55.531564,1.52362159 C57.309773,-0.809557002 60.1159903,0.231676427 62.2264909,0.231076638 C64.4297936,0.23047685 66.6324976,1.56380745 68.6843232,2.26196166 C68.5142857,1.93027843 68.2520448,1.41925833 67.9730396,0.873450488 C68.3987321,0.719304756 68.6166674,0.552563458 68.7507815,0.604145298 C71.225306,1.56380745 73.6854611,2.55885713 76.1563933,3.52691633 C78.7237199,4.53276221 81.2892504,5.5440062 83.8781311,6.49227236 C84.4996061,6.71959233 85.6096396,7.01888696 85.8150018,6.75438008 C87.8009678,4.20167877 89.1169622,6.62662506 90.6754397,7.28339384 C91.7010531,7.7158416 92.8727551,7.89757762 93.7804201,8.4949673 C95.2820188,9.48341931 96.7039872,10.6332145 97.9942365,11.8861734 C98.5318903,12.4085895 98.6444503,13.370051 98.9497993,14.1317828 C97.8816765,13.6915378 96.765057,13.3400616 95.7532142,12.7948535 C92.65003,11.1214426 89.5869602,9.37365796 86.1065802,7.43034211 C85.4372072,9.08455973 84.8510569,10.53245 84.0032643,12.6263128 C87.3465367,11.0542663 88.5248246,13.2470943 89.3337002,14.8623256 C90.588026,17.3664441 92.2399043,17.8378781 94.6365948,17.1547186 C95.0179817,17.0461568 95.4191265,16.9855782 95.8148827,16.9555887 C100.749562,16.58252 100.750161,16.5849192 101.304579,11.9671449 C101.494973,12.9286064 101.590769,13.9230563 101.905099,14.8431324 C102.142193,15.5376879 102.9834,16.7090755 103.004954,16.6964799 C105.683643,15.1748156 106.972096,18.1767588 109.055654,18.5486279 C111.159569,18.9234959 113.220974,19.5778655 115.26801,20.2160409 C117.235416,20.8296248 119.319572,21.3058572 121.068444,22.3296967 C124.002189,24.0462924 126.943718,25.8918427 129.448179,28.1638428 C131.958028,30.4406412 133.487168,34.0795601 136.271233,35.6965909 C139.14331,37.3652034 140.453915,40.5560801 142.738046,41.755058 C145.587371,43.2503315 146.733328,45.4689505 148.159488,47.7025641 C148.87137,48.8175716 148.77737,50.4489972 149.266528,51.7715316 C149.706589,53.0070966 150.149046,54.2414621 150.585516,55.4782267 C151.168672,57.1318445 151.977548,58.7464761 152.275712,60.451076 C152.731341,63.0553591 151.47941,65.6776359 152.784028,68.4630553 C153.31809,69.6032539 151.61532,71.736103 151.062698,73.4598961 C150.17539,76.2285214 149.333585,79.0169398 148.636072,81.8377467 C148.512735,82.3373708 149.083917,83.4679728 149.511405,83.5711364 C152.061369,84.18592 152.19249,85.5594365 151.208787,87.6389044 C151.009412,88.0599561 151.576403,88.8198886 151.730275,89.4388707 C152.470297,92.4132236 153.237861,95.3821783 153.902444,98.3739251 C154.456862,100.868447 152.538552,101.880291 150.917807,103.030686 C149.876028,103.769625 148.827663,104.498969 147.667936,105.314082 C149.908958,106.975497 151.649447,112.560731 150.392128,114.403882 C149.539545,115.653242 147.964902,116.967979 146.557303,117.171907 C142.390786,117.774695 139.031947,119.196794 136.306557,122.663574 C135.017505,124.304596 132.520229,125.078923 130.462417,126.006197 C127.358634,127.404905 124.142291,128.551701 121.016355,129.904225 C120.294893,130.216115 119.746462,130.928664 119.703953,130.964052 C121.883905,134.949049 124.012368,138.38104 125.640297,142.037353 C126.31925,143.562016 128.098057,145.316999 125.940258,147.404264 C123.966865,149.314591 121.752785,149.103466 119.527329,148.80777 C114.63935,148.156999 109.647792,147.747343 104.950207,146.373227 C101.44947,145.349387 97.729002,146.359432 94.393513,144.476095 C91.0286866,142.576563 87.5075933,140.925944 83.9619524,139.380888 C81.4856317,138.303068 79.1877307,137.347604 77.8938891,134.610768 C77.4053306,133.578531 75.5672493,133.186269 74.5128971,132.596677 C73.5238058,132.951752 72.3916195,133.813648 71.6138776,133.564736 C65.4242734,131.586033 60.2351363,134.902865 54.693351,136.454519 C49.5664811,137.891013 44.3971019,139.200352 39.1953916,140.330354 C36.2867925,140.962532 33.2770092,141.39318 30.3097352,141.411773 C27.1909842,141.432166 24.0740293,140.684829 20.9456987,140.577467 C16.9378431,140.438916 14.003499,137.327211 9.89505787,137.063904 C7.75641731,136.927152 5.74949593,134.418236 3.72760646,132.919963 C2.85646367,132.27459 1.86138511,131.610624 1.34648285,130.71154 C0.651364791,129.498767 -0.132963076,127.990299 0.0191127089,126.716947 C0.257404687,124.728647 1.15549003,122.791329 1.94161407,120.902594 C3.42285616,117.342847 5.28428772,113.975632 4.4784058,109.796904 C4.13952827,108.040722 4.57539902,105.994242 5.13460683,104.231463 C6.83857409,98.859754 5.66268101,93.5786133 4.8849391,88.2956732 C4.57899136,86.2186044 3.61923749,84.2434997 3.22767228,82.1700297 C3.00434839,80.9854467 3.32706039,79.6982999 3.40429573,78.4435416 L2.46130612,78.4435416 C2.40622355,78.1664392 2.35173971,77.888737 2.29605842,77.6110347 C3.2713791,77.4412945 4.24669978,77.2715542 5.22082302,77.0994148 C5.2202243,77.0982153 5.33697539,77.2289692 5.33697539,77.2289692 C7.5833862,79.9070264 8.28389277,76.1577464 9.51127607,76.3202891 C9.0598385,73.3873217 8.62756009,70.5827091 8.19528168,67.7768969 C9.35081816,67.1561154 10.3321261,66.6295008 11.5295732,65.987127 C10.8392449,65.7921956 10.4764185,65.6896317 9.86452297,65.5168925 C11.7008081,64.1895598 12.7719246,62.7236759 11.6475217,60.4294836 C10.605144,58.3032321 9.81243402,56.054024 8.78083332,53.5445074 C8.29586724,54.0891157 7.71450666,54.741686 7.13314608,55.394856 L7.2277444,55.3462731 Z" mask="url(#10-b)"/>
  </g>
</svg>
