<svg xmlns="http://www.w3.org/2000/svg" xmlns:xlink="http://www.w3.org/1999/xlink" width="108" height="198" viewBox="0 0 108 198">
  <defs>
    <polygon id="2-a" points=".001 0 107.61 0 107.61 197.303 .001 197.303"/>
  </defs>
  <g fill="none" fill-rule="evenodd">
    <mask id="2-b" fill="#fff">
      <use xlink:href="#2-a"/>
    </mask>
    <path fill="#231F20" d="M27.1709,142.7016 C28.4959,147.6026 29.6389,151.8306 30.9119,156.5436 C37.6089,150.6836 37.4219,148.7226 27.1709,142.7016 M74.1749,124.4946 C73.7029,124.1376 73.2329,123.7806 72.7609,123.4236 C70.0669,126.6696 67.3719,129.9156 64.4549,133.4306 C66.0859,134.9426 67.4439,136.2026 69.4929,138.1036 C71.2609,132.9646 72.7179,128.7296 74.1749,124.4946 M18.5589,109.1566 C21.4809,107.0786 23.4919,105.6486 25.9099,103.9286 C22.1369,100.1866 18.9479,97.0246 15.7599,93.8636 C15.3249,94.1966 14.8909,94.5286 14.4559,94.8606 C15.7359,99.3216 17.0169,103.7816 18.5589,109.1566 M72.5089,86.1196 C66.7179,85.4546 62.0609,84.5956 57.3959,84.5456 C55.5449,84.5256 53.6949,86.1586 55.6729,88.7856 C61.2159,96.1486 62.0089,96.2506 68.6029,89.8186 C69.5289,88.9146 70.4819,88.0366 72.5089,86.1196 M24.5399,130.7156 C28.1099,127.6526 30.9599,124.7696 34.2369,122.5066 C38.5169,119.5516 39.3319,116.6546 35.2989,112.9696 C33.4209,111.2536 32.7299,107.6256 28.7689,109.4966 C24.4979,111.5136 20.0089,117.0776 20.8629,120.2516 C21.7479,123.5386 23.1039,126.6996 24.5399,130.7156 M58.4969,160.4296 C60.2299,156.9936 61.7799,153.9406 63.3119,150.8786 C67.2509,142.9996 67.2489,142.9956 60.1939,137.4076 C59.9499,137.2136 59.6059,137.1486 58.5269,136.6966 C56.0739,139.5716 53.2729,142.5156 50.8629,145.7526 C46.8499,151.1456 47.0989,152.5056 52.4419,156.5936 C54.2509,157.9786 56.2999,159.0516 58.4969,160.4296 M59.0109,98.4566 C56.8249,96.7496 55.7829,96.1476 55.0129,95.2996 C50.0849,89.8686 50.1169,89.8636 45.0649,94.8916 C44.4969,95.4566 43.6409,95.7196 43.0079,96.2316 C40.1129,98.5746 37.2499,100.9566 34.0239,103.6156 C37.1549,106.9666 39.9359,109.9416 44.0279,114.3206 C48.8879,109.1746 53.5759,104.2106 59.0109,98.4566 M29.5219,136.7016 C34.0139,139.5736 38.6919,144.5276 40.9629,143.5986 C45.4769,141.7516 48.6649,136.6646 52.3999,132.9166 C49.6039,129.3796 46.8069,125.8426 43.5859,121.7696 C38.6619,126.9966 34.6469,131.2606 29.5219,136.7016 M72.1599,113.4926 C69.6939,110.4326 66.8999,106.9646 63.4039,102.6246 C58.7019,107.3896 54.2599,111.7296 50.0769,116.3056 C49.4339,117.0096 49.4539,119.2096 50.0759,120.0246 C52.5449,123.2586 55.3729,126.2166 57.7569,128.9236 C62.8879,123.4266 67.2119,118.7946 72.1599,113.4926 M12.4579,83.8136 C18.3829,89.3216 22.9569,93.6956 27.7259,97.8436 C28.2739,98.3196 30.1449,97.8796 31.0029,97.2866 C34.8669,94.6206 38.6569,91.8326 42.3169,88.8926 C43.4299,87.9986 44.0389,86.4796 44.8799,85.2476 C43.3769,84.2746 41.9429,82.6066 40.3609,82.4506 C33.6349,81.7886 26.8659,81.3886 20.1089,81.3076 C18.0689,81.2836 16.0139,82.5966 12.4579,83.8136 M42.3979,153.8876 C39.7369,156.7326 37.6649,158.6566 35.9699,160.8686 C34.9359,162.2196 33.5689,164.2586 33.9199,165.5686 C35.8399,172.7356 38.2439,179.7726 40.5429,187.0496 C41.7629,186.3756 42.7739,186.1606 43.1629,185.5496 C46.7199,179.9686 50.2149,174.3456 53.5899,168.6536 C54.0019,167.9586 54.0009,166.4326 53.5189,165.8856 C49.9799,161.8776 46.2689,158.0206 42.3979,153.8876 M36.9099,46.2706 C30.6039,40.8736 24.1889,40.4746 17.7559,40.5996 C15.9329,40.6356 13.4699,41.3776 12.4299,42.6906 C3.9479,53.4026 2.5949,62.9356 11.8069,73.5416 C13.3739,75.3466 15.3599,77.7536 17.3929,78.0136 C23.8989,78.8486 30.5979,79.5886 37.0739,78.9256 C48.0679,77.8016 58.6819,80.0976 69.4699,80.7476 C76.9549,81.1986 85.5669,83.9126 91.7149,76.1756 C93.2209,74.2806 95.7859,73.0846 96.8989,71.0416 C101.3959,62.7856 102.8799,53.7796 100.8969,44.6346 C98.0149,31.3496 82.7129,25.2056 71.4209,32.4596 C68.5429,34.3086 65.8189,36.3976 62.0419,39.0726 C61.5139,36.5696 60.3909,34.5616 60.9049,33.1516 C64.6079,23.0076 74.1379,24.1966 82.1199,23.0556 C79.9659,19.7906 78.1549,16.6856 75.9979,13.8456 C69.5589,5.3656 59.4599,5.8016 51.0459,6.5106 C43.2169,7.1706 35.5179,12.1266 32.2549,20.8466 C30.6439,25.1536 29.0409,29.4636 27.2429,34.2836 C33.1939,32.2106 35.4429,36.5876 37.7709,40.0756 C38.5249,41.2066 37.3389,43.6336 36.9099,46.2706 M86.3019,24.1366 C91.0559,22.4816 94.3009,26.1196 97.3679,28.9396 C105.9559,36.8346 108.7959,46.6086 107.1759,58.3306 C105.9659,67.0836 103.6849,74.7996 96.0889,79.8196 C92.3409,82.2976 87.6659,83.4266 84.0689,86.0646 C78.3259,90.2776 73.1329,95.2396 67.4419,100.1126 C71.5109,104.4596 74.9259,108.1076 79.2099,112.6836 C83.1729,103.3816 86.8139,94.8356 90.4289,86.3496 C97.0729,88.7776 97.1529,92.5856 94.7119,99.1236 C90.5879,110.1636 86.0149,121.0476 81.2939,131.8496 C76.7769,142.1886 72.0589,152.4536 66.9859,162.5286 C64.2129,168.0346 60.2649,172.9396 57.3179,178.3706 C54.2659,183.9976 51.9049,189.9786 46.0039,193.5056 C45.2099,193.9786 45.2279,195.8126 44.7849,197.3036 C39.6649,195.3416 37.0679,191.9306 35.4819,187.0106 C32.7129,178.4276 29.0789,170.1246 26.2859,161.5476 C25.0249,157.6746 25.3219,153.3106 24.1989,149.3726 C21.2209,138.9306 17.7689,128.6236 14.6919,118.2076 C13.7469,115.0096 13.4329,111.6266 12.7819,108.3376 C11.9689,104.2296 11.7069,100.3086 8.0899,96.8486 C4.7649,93.6676 6.7099,84.7516 10.3479,80.3416 C3.5489,71.6926 -3.1851,61.9206 1.6319,50.9986 C5.5239,42.1756 9.4909,30.2086 24.2619,33.9916 C24.4079,25.2156 26.7999,18.2516 31.8989,11.8876 C33.1439,10.3326 33.3879,7.4136 35.4749,5.3656 C41.7329,-0.7774 49.2469,-0.2544 56.9299,0.3356 C67.8469,1.1746 76.5439,5.9166 82.4579,15.1926 C84.0859,17.7456 84.9049,20.8146 86.3019,24.1366" mask="url(#2-b)"/>
  </g>
</svg>
