<svg xmlns="http://www.w3.org/2000/svg" xmlns:xlink="http://www.w3.org/1999/xlink" width="285" height="139" viewBox="0 0 285 139">
  <defs>
    <polygon id="5-a" points="0 .692 284.619 .692 284.619 139 0 139"/>
  </defs>
  <g fill="none" fill-rule="evenodd">
    <mask id="5-b" fill="#fff">
      <use xlink:href="#5-a"/>
    </mask>
    <path fill="#231F20" d="M156.278225,100.44913 C162.047428,98.7640342 167.319556,97.7925209 171.325927,93.9852588 C177.405431,88.2067241 180.404256,80.9118257 180.911005,72.6097348 C181.074713,69.9248791 180.331332,67.1025102 180.899843,64.5417882 C182.146997,58.9290128 180.256175,53.7525636 179.395222,48.4326545 C178.340796,41.9212107 174.449765,36.6748898 171.565535,30.9424406 C168.215483,24.2808471 162.974608,20.115307 156.548342,17.0617668 C154.326384,16.0055155 151.707063,15.6888631 149.632441,14.4348898 C142.356384,10.0374353 134.373407,8.0579861 126.089804,6.91551016 C123.813525,6.60257433 121.520131,5.86669198 119.272872,5.99528556 C113.452324,6.32829091 107.630287,6.86719465 101.849922,7.63503957 C94.5507963,8.60506631 87.8000914,10.5369433 84.5571932,18.3499326 C83.5965274,20.6646171 81.3284334,22.4188417 80.2509399,24.7075102 C77.8712272,29.7627989 75.8948303,35.0061465 73.6914752,40.1469166 C73.1348695,41.4447455 72.0104961,42.5693818 71.7165666,43.8991733 C70.0906527,51.2535369 68.0926762,58.590061 67.307624,66.0462588 C66.7048825,71.7690449 66.8090601,77.8924781 68.2407572,83.4130824 C69.7781201,89.3402802 73.4913055,94.6698524 75.7809791,100.446901 C78.185248,106.513098 82.1506919,110.314414 88.0069582,113.490601 C104.405992,122.386601 120.645039,123.83235 137.086488,114.488874 C141.953812,111.722997 146.263786,107.880799 148.766279,102.514804 C149.958368,99.9592856 151.370718,97.5070877 152.642428,94.9872481 C156.050522,88.2349701 158.798577,81.3362588 157.835679,73.5061733 C157.274608,68.9496492 157.303629,64.2831144 156.339987,59.8232214 C155.33393,55.1700663 154.640405,49.6680449 151.733851,46.355831 C143.259008,36.7009059 133.623329,28.7697294 118.947689,32.1332321 C110.798029,34.0004406 102.579909,34.915462 98.2982115,43.5119059 C96.234752,47.6536599 93.6236162,51.567216 91.9828198,55.8591198 C90.8480287,58.8286652 91.2133943,62.3341412 90.446201,65.4872856 C88.4325979,73.7626171 91.8265535,84.1132856 98.966436,88.7612374 C102.937833,91.3464888 107.378773,93.4701412 111.89859,94.852708 C114.406292,95.6198096 117.826292,95.0957722 120.259582,93.9421465 C122.673525,92.7974406 124.569556,90.296184 126.333877,88.1026599 C130.585065,82.8184299 132.356828,76.853323 130.188446,70.1716599 C129.905679,69.2990075 128.815535,67.9982053 128.180796,68.0428043 C124.555418,68.2985048 120.964269,69.0358738 117.33889,69.3198203 C115.923564,69.4305743 113.959817,69.2685316 113.095144,68.3936492 C110.789099,66.0596385 112.185078,62.9280503 116.125966,61.9795797 C118.781749,61.339585 121.633238,61.4592588 124.402128,61.3492481 C129.331214,61.1544995 132.913433,63.7092749 135.902585,67.2712428 C136.554439,68.0472642 137.259869,69.1220984 137.246475,70.0504995 C137.197363,73.5032 137.427298,77.1164567 136.488211,80.3625155 C135.262637,84.5956973 133.920979,88.7552909 130.114778,92.0362856 C124.667037,96.7325529 119.788551,100.820788 111.724465,98.6443604 C104.987154,96.8254674 98.1203655,95.479323 93.8624804,89.5060396 C90.8606789,85.2951572 87.6773107,80.6672749 86.6050261,75.7799754 C85.4799086,70.6570449 86.5559138,64.981831 87.0864752,59.5883337 C87.536671,55.0162 88.5687728,50.499815 89.3843342,45.9663337 C89.4654439,45.5106813 89.7816971,44.7718257 90.0733943,44.7287134 C94.7457572,44.0292535 92.6971802,38.2105797 96.6239295,36.4972374 C99.9144517,35.0626385 102.341044,31.7563711 105.540783,29.982077 C109.137885,27.9877615 113.008825,26.4936973 117.426697,26.7055422 C121.386932,26.8950877 125.653747,25.352708 129.302937,26.3450342 C135.251475,27.9624888 141.647977,29.0098203 146.030875,34.5779968 C148.607781,37.850815 152.888734,39.7559326 155.61893,42.9454995 C157.44799,45.0817882 157.284282,48.9128364 159.10218,51.0684513 C162.576501,55.1864193 162.477533,60.1800128 162.070496,64.4986759 C161.671645,68.7273979 163.203799,72.3607241 163.240261,76.2928631 C163.263329,78.7123551 163.504426,81.2976064 162.775183,83.523093 C160.994491,88.958216 158.70705,94.228323 156.278225,100.44913 M71.891436,110.579034 C58.0053133,113.554526 45.4288512,116.088489 32.9349869,118.980729 C24.2138381,121.000318 15.591658,123.459949 6.97245431,125.89059 C6.1673107,126.117302 5.04963446,127.754082 5.24087467,128.382184 C5.51099217,129.268216 6.86083551,130.415152 7.76197128,130.427045 C15.5261749,130.529622 23.298564,130.195874 31.0560705,130.427788 C35.1122977,130.548949 39.1268538,131.898066 43.1868016,132.076462 C55.0875979,132.599756 66.9995561,132.907489 78.9107702,133.091088 C82.281658,133.142376 85.6614752,132.242221 89.0412924,132.205799 C93.3579634,132.15897 97.6798433,132.700104 101.999491,132.693414 C105.315313,132.688954 108.631136,132.229585 112.729034,131.911446 C113.146488,132.257831 118.622507,132.757339 120.480587,132.808628 C123.760692,132.899312 127.018473,133.649318 130.297089,134.026179 C132.388825,134.26627 134.499164,134.429799 136.603551,134.451355 C139.252637,134.478858 142.235091,135.066077 144.471932,134.066318 C147.343512,132.782612 150.013433,133.062842 152.872363,132.933505 C156.636149,132.762542 160.362728,131.890633 164.125026,131.513772 C167.070274,131.218676 170.046775,131.249152 173.006906,131.077446 C183.169426,130.487997 193.430914,130.546719 203.463211,129.065291 C212.394204,127.746649 221.25376,125.232756 229.79111,122.238681 C235.007428,120.410125 239.554778,116.677195 244.404243,113.80205 C247.219269,112.133307 250.125078,110.596874 252.824021,108.757911 C254.485653,107.625098 256.040131,106.195703 257.288773,104.61913 C262.199256,98.4183925 268.173838,92.6695904 271.458407,85.6772214 C274.848642,78.4588845 278.305104,70.9499112 279.292559,62.6143711 C280.110352,55.7156599 280.62752,48.9596652 275.960366,43.5148791 C273.090274,40.1654995 269.028094,37.5497722 265.032885,35.5286973 C261.0347,33.5061358 257.04842,36.0594246 253.403695,37.7244513 C245.57624,41.2983123 239.478133,46.841216 234.392037,53.892307 C229.411606,60.7962214 223.81876,67.3403711 217.888825,73.4571144 C212.293003,79.2311893 206.077324,84.4514941 199.809556,89.5149594 C195.742911,92.7996706 190.675418,92.6480342 185.605692,92.2451572 C183.757285,92.0987241 181.492911,93.0553711 179.954804,94.2164299 C178.110117,95.6079166 177.068342,98.0422749 175.25342,99.4939701 C173.604439,100.813355 172.05889,102.734082 169.144896,101.834671 C167.769752,101.410237 165.439151,102.082195 164.354961,103.111687 C161.74829,105.588414 159.033721,105.392922 155.897232,104.884494 C154.78923,104.705355 152.835901,105.541585 152.339569,106.479649 C149.463525,111.912542 145.365627,115.762917 139.755666,118.379387 C133.357676,121.362312 126.496841,121.165334 119.799713,122.256521 C112.536305,123.440622 105.411305,122.953007 98.6308355,120.671029 C91.3510574,118.221061 84.0549086,115.35112 77.4865144,111.453173 C74.0456789,109.411286 71.7731201,104.986328 69.6545953,101.251168 C67.2666971,97.0402856 65.1690078,92.5365369 63.7931201,87.9086545 C61.1105483,78.8833176 60.8478721,69.6126866 63.0765274,60.4149005 C64.3452611,55.1819594 65.930248,50.0188898 67.533094,44.8744032 C69.320483,39.1374941 71.1153133,33.3909219 73.2576501,27.7818631 C74.2525457,25.1772856 76.053329,22.8752374 77.5274413,20.4587187 C79.6734987,16.9398631 81.6923107,13.3273497 84.0705352,9.97128021 C86.0275849,7.2098631 88.1743864,5.08992727 91.9024543,3.75121604 C102.204869,0.0524780749 112.427663,0.254659893 122.97936,1.51383636 C132.804791,2.68678824 142.075849,5.07357433 150.447258,10.5592428 C151.86705,11.4898738 153.995992,11.2765422 155.562376,12.0607401 C163.248446,15.9096278 170.253642,20.6482642 175.118734,27.9825583 C177.872742,32.1347187 180.897611,36.1367294 183.285509,40.4888417 C184.328029,42.3880128 183.886018,45.0423925 184.446345,47.272339 C186.776945,56.5526332 188.107441,65.9414513 187.158681,75.4945422 C186.765783,79.4408043 185.627272,83.3134781 184.757389,87.5630128 C192.9197,88.0142053 200.709948,87.4946278 206.726945,80.5312481 C212.508055,73.8421519 218.642624,67.4585583 224.420013,60.7657455 C227.139047,57.6163176 229.150418,53.8536545 231.888799,50.7242963 C239.642585,41.8624888 247.775875,33.388692 259.986971,30.7982374 C263.648068,30.022216 267.135783,29.9240984 270.190418,33.0958257 C271.994178,34.9697241 274.588198,36.1701786 276.976097,37.3780663 C280.160209,38.988831 284.901775,46.7252588 284.606358,50.7904513 C284.20453,56.3058524 283.74094,61.8368631 282.859896,67.2898257 C282.377702,70.2697775 281.138734,73.168708 279.957807,75.9858738 C278.023081,80.6003765 276.415026,85.4928791 273.661762,89.5930075 C269.164269,96.2895369 264.195,102.748205 258.777768,108.722232 C254.967102,112.923451 250.198747,116.30628 245.624608,119.744114 C243.674256,121.209933 241.19111,122.512965 238.834465,122.753056 C236.139987,123.027339 234.737311,124.345237 233.195483,126.162644 C230.643133,129.170842 230.553838,129.095024 227.372702,128.298933 C225.600196,129.381943 224.562141,130.324467 223.346984,130.710991 C212.385274,134.193425 201.157167,135.594574 189.638107,135.400569 C182.80406,135.286098 175.959595,136.079216 169.114386,136.318564 C161.72299,136.577237 154.386658,136.538585 147.086044,138.554457 C143.390718,139.574286 139.141018,138.497221 135.144321,138.54851 C130.533721,138.608719 125.925352,139.010109 121.316984,138.999901 C117.284569,138.990783 113.219413,138.872596 109.227924,138.347815 C102.624556,137.478136 95.9787728,138.531414 89.4029373,137.657275 C83.594295,136.88497 77.852624,138.184286 72.1087206,138.098804 C63.7603786,137.975414 55.3353916,139.520767 47.0264883,136.86936 C44.2256005,135.975152 40.9693081,136.537842 37.9280679,136.32451 C37.4897781,136.293291 37.0953916,135.641403 36.8386684,136.050227 C33.5831201,136.088136 30.3245953,136.239029 27.0742559,136.132735 C23.6021671,136.019751 20.1375196,135.671879 16.6713838,135.412462 C13.7112533,135.190211 10.7548433,134.898831 7.79173629,134.737532 C6.36748042,134.660227 4.71477807,135.298735 3.5375718,134.776184 C-1.0283812,132.749163 -1.10800261,129.143339 2.91399478,125.005302 C4.34494778,123.532794 7.45390339,122.325649 7.46655352,121.596457 C7.5156658,118.522847 9.83212794,119.007489 11.3054961,118.618735 C12.890483,118.200248 14.6756397,118.617248 16.3514099,118.450002 C18.7422846,118.211398 21.1353916,117.876163 23.4883159,117.392264 C26.7669321,116.718077 29.9770888,115.441061 33.2743081,115.191307 C38.6119191,114.787687 42.8192037,111.247275 47.8532115,110.428884 C52.1051436,109.738344 55.5482115,107.092884 59.4920757,106.286387 C61.7259399,105.829248 64.4427415,104.78043 66.3759791,105.279938 C68.4260444,105.809179 69.9046214,108.543093 71.891436,110.579034" mask="url(#5-b)"/>
    <path fill="#231F20" d="M262 81.1483354C261.133149 82.1659026 260.23523 83.222803 259.572968 84 250.595298 81.793693 244.989558 75.6722653 239.106487 69.9529114 238.770809 69.6265907 239.313349 68.4662582 239.567949 67 247.181692 71.8023052 254.354432 76.3263636 262 81.1483354M252 56.2348217C249.80099 58.0748212 247.731157 60.2108508 247.438811 59.9832537 245.728555 58.6515031 244.434531 56.7661379 243 55.0676177 244.289491 53.9665398 245.741397 51.832817 246.829193 52.010435 248.385345 52.264175 249.674836 54.2087462 252 56.2348217M263.051116 70.4496409C264.533465 69.5606549 266.1478 67.8062426 267.46307 68.0174945 268.856159 68.242097 270.918326 70.2792257 270.993092 71.6252699 271.133469 74.1241687 269.116314 75.5707343 266.589529 74.7861963 265.271207 74.3778282 264.188626 73.1676449 263 72.3194957 263.016784 71.695949 263.034331 71.0731876 263.051116 70.4496409M253.680261 70.8865581C253.052291 69.2391843 251.992987 67.5889921 252 65.9444368 252.002854 65.2489886 254.194055 64.2075778 255.496512 64.0067644 256.268965 63.8869811 258.09156 65.3941378 257.996413 65.6668212 257.352232 67.5192359 256.321825 69.2377751 255.416871 71L253.680261 70.8865581z"/>
  </g>
</svg>
