<svg xmlns="http://www.w3.org/2000/svg" xmlns:xlink="http://www.w3.org/1999/xlink" width="173" height="184" viewBox="0 0 173 184">
  <defs>
    <polygon id="7-a" points="0 0 172.853 0 172.853 183.246 0 183.246"/>
  </defs>
  <g fill="none" fill-rule="evenodd">
    <mask id="7-b" fill="#fff">
      <use xlink:href="#7-a"/>
    </mask>
    <path fill="#231F20" d="M102.9042,95.9663 C94.2132,95.9663 87.0782,95.8833 79.9482,96.0423 C78.6712,96.0713 76.7292,96.7673 76.2702,97.7213 C74.4012,101.6063 73.0112,105.7183 71.4032,109.7303 C70.3932,112.2493 68.8482,114.6503 68.3522,117.2573 C67.1542,123.5473 66.4322,129.9263 65.2912,137.8413 C73.1672,135.4943 79.2712,133.6403 85.3972,131.8633 C89.7312,130.6053 92.0182,132.3163 91.0272,136.0633 C88.4272,145.8803 85.7152,155.6673 83.1692,165.4983 C82.7272,167.2063 82.8792,169.0683 82.7562,170.8593 C83.2812,171.1073 83.8062,171.3553 84.3322,171.6043 C88.3012,167.0453 92.7322,162.8033 96.1452,157.8603 C103.2022,147.6353 109.4142,136.8713 113.2582,124.9443 C113.9132,122.9093 114.9182,119.1963 114.3012,118.8493 C111.4362,117.2343 106.0902,114.8233 105.2272,115.8173 C102.5122,118.9453 99.3792,117.5233 96.5932,118.0793 C94.8092,118.4363 92.7212,117.2673 90.7692,116.7823 C91.4742,114.8443 91.8812,112.7203 92.9432,111.0033 C95.8702,106.2693 99.0712,101.7043 102.9042,95.9663 M4.5272,68.8443 C4.0042,66.2993 2.9262,64.2993 3.5182,63.4083 C7.5102,57.3973 11.9222,51.3913 19.8772,50.8763 C22.6912,50.6933 26.9392,47.3873 28.7592,52.6453 C33.7612,52.4923 34.7702,49.1623 35.8802,44.8173 C36.5072,42.3633 40.0472,40.4533 42.5692,38.7293 C47.2522,35.5293 52.3572,35.2233 57.8542,36.7223 C59.0832,37.0573 61.8782,35.4053 62.3442,34.0963 C63.8442,29.8803 63.8672,25.0423 65.7942,21.0943 C69.1232,14.2703 71.0522,6.8463 79.6412,2.9643 C86.8422,-0.2907 93.6932,-0.5157 100.5442,0.6243 C105.8542,1.5083 111.3782,4.2833 115.6232,7.6923 C123.4162,13.9503 129.7192,21.7133 132.4852,31.7333 C133.8302,36.6113 135.2562,41.4673 136.6672,46.3263 C137.3382,48.6383 138.5652,50.0763 141.3092,49.4413 C151.5622,47.0663 157.2982,53.9413 164.0472,59.7733 C168.3222,63.4673 169.8582,68.2873 172.5172,72.6383 C173.2672,73.8653 172.5452,76.0203 172.4262,77.7443 C171.9082,85.2683 171.8502,92.9883 166.4902,99.0773 C165.1812,100.5653 162.8832,102.1713 161.1062,102.0983 C150.1012,101.6503 139.0992,100.9083 128.1312,99.8913 C123.9792,99.5063 119.9042,98.1903 115.8222,97.1813 C113.0652,96.5003 106.4422,99.1173 105.3492,101.6053 C104.2492,104.1113 103.3412,106.7023 102.4812,108.9163 C109.4052,110.3903 116.5132,111.9043 123.5052,113.3933 C121.9252,118.5923 120.6732,122.8703 119.3242,127.1173 C117.9932,131.3083 116.8032,135.5673 115.1252,139.6193 C112.5072,145.9403 109.9032,152.3243 106.5232,158.2413 C105.1532,160.6403 101.7612,161.8843 99.9372,163.8213 C98.1232,166.5243 96.3812,169.2803 94.4722,171.9163 C92.7962,174.2293 90.8712,176.3613 89.1632,178.6533 C85.3382,183.7883 80.2152,184.0253 73.4122,182.2323 C76.5612,168.2393 79.7402,154.1093 82.8062,140.4803 C76.0092,140.9083 70.3462,141.8083 64.7682,141.4383 C60.6742,141.1663 60.1192,137.7373 60.2582,133.7523 C60.4212,129.0393 63.8312,124.9633 62.3132,119.9603 C61.9502,118.7633 63.8402,116.9883 64.4212,115.3813 C66.1692,110.5483 67.8342,105.6843 69.4312,100.8003 C70.7592,96.7413 68.6772,95.1343 63.5822,95.4653 C57.0462,95.8903 50.2572,97.0093 43.9822,95.7713 C34.7862,93.9573 25.6932,95.2323 16.6212,94.4953 C11.8892,94.1103 7.2222,91.8953 2.7342,90.0093 C0.7842,89.1903 -0.5948,78.1083 0.2572,75.5993 C1.0822,73.1643 1.6182,70.6313 2.3562,67.8603 C3.1832,68.2843 4.7142,69.0713 6.7552,70.1203 C6.1292,73.5793 5.2902,77.4083 4.7772,81.2803 C4.2952,84.9263 11.0692,89.3063 16.2302,88.8023 C21.2232,88.3163 26.2642,87.0703 31.1912,87.4293 C38.7712,87.9833 46.2442,90.2823 53.8152,90.6113 C60.7192,90.9093 67.6952,89.5843 74.6352,88.9363 C75.4432,88.8613 76.4492,88.1143 76.9892,88.3973 C83.0952,91.5903 89.7062,88.5083 96.0402,90.0683 C99.9202,91.0233 104.2822,89.8303 108.4092,90.0123 C115.5262,90.3253 122.6792,90.6003 129.7202,91.5813 C134.4742,92.2433 139.0292,94.2373 143.7442,95.3263 C145.4902,95.7303 147.4602,95.0483 149.2952,95.2183 C152.5952,95.5243 155.9302,96.6823 159.1352,96.3553 C161.2392,96.1403 164.0132,94.3973 164.9772,92.5503 C168.5882,85.6293 170.5282,77.4683 163.7252,69.5553 C159.2442,64.3433 154.7742,59.6753 147.7412,58.6863 C144.7132,58.2603 141.4002,58.0143 138.5212,58.8003 C134.0752,60.0143 132.5002,58.1013 132.4942,54.3493 C132.4782,43.9563 129.0682,34.5723 124.2182,25.6493 C116.9382,12.2543 101.0302,4.2173 86.3602,6.3333 C80.6032,7.1633 76.2002,11.1123 74.3302,16.5103 C72.2042,22.6453 70.5422,29.1233 69.9982,35.5633 C69.5872,40.4273 67.6812,42.1443 63.4002,42.1423 C58.4552,42.1393 53.5102,41.9203 48.5662,41.7963 C41.3042,41.6153 38.9992,46.8333 40.4922,52.8323 C41.6032,57.2943 39.9922,59.2993 35.2372,58.2753 C30.5422,57.2653 25.9572,55.4433 21.2282,54.9923 C17.0072,54.5913 13.2092,56.1183 11.0712,60.6993 C9.8312,63.3543 7.3442,65.4273 4.5272,68.8443" mask="url(#7-b)"/>
  </g>
</svg>
