<svg xmlns="http://www.w3.org/2000/svg" xmlns:xlink="http://www.w3.org/1999/xlink" width="159" height="190" viewBox="0 0 159 190">
  <defs>
    <polygon id="9-a" points="0 .867 158.687 .867 158.687 190 0 190"/>
  </defs>
  <g fill="none" fill-rule="evenodd" transform="translate(0 -1)">
    <g transform="translate(0 .133)">
      <mask id="9-b" fill="#fff">
        <use xlink:href="#9-a"/>
      </mask>
      <path fill="#231F20" d="M85.6868,31.159 C87.0328,29.362 88.0928,27.758 89.3398,26.314 C95.7468,18.896 101.3658,10.078 111.7648,8.041 C125.4318,5.363 138.2168,7.835 147.8328,18.811 C151.5818,23.09 155.2918,28.148 156.7758,33.475 C158.6358,40.159 158.4668,47.477 158.6588,54.536 C158.8418,61.349 158.0748,68.189 158.2708,75.002 C158.4628,81.668 154.3018,86.47 151.2778,91.423 C145.0098,101.686 137.6398,111.279 130.6098,121.066 C129.8438,122.132 128.3428,122.672 127.1728,123.44 C126.0048,124.209 124.3848,124.685 123.7178,125.76 C117.2268,136.193 109.6418,145.816 101.3378,154.794 C94.4318,162.262 86.6388,168.901 79.5078,176.171 C76.6768,179.057 74.6988,182.763 72.0778,185.881 C70.8388,187.352 69.1428,188.635 67.3938,189.431 C65.3178,190.379 62.7168,190.413 62.4818,187.401 C62.3548,185.79 63.5738,183.899 64.6078,182.432 C65.2758,181.484 66.9268,181.279 67.7628,180.388 C71.8778,176.002 75.8028,171.436 79.9168,167.048 C86.7118,159.8 93.7538,152.777 100.4168,145.41 C112.2458,132.333 124.2718,119.399 135.4098,105.749 C141.3078,98.519 146.9438,90.426 150.0718,81.773 C153.1338,73.297 153.0868,63.637 153.9408,54.453 C154.2678,50.928 153.3298,47.28 152.9338,43.692 C151.7078,32.581 144.6788,24.817 137.0048,17.88 C125.7428,7.699 103.4988,12.132 96.3948,25.517 C93.7258,30.546 91.4578,35.792 88.6658,40.748 C87.6238,42.598 85.6108,43.904 83.1668,46.322 C80.7998,33.799 75.2488,24.638 68.3948,16.267 C61.7838,8.195 52.7328,5.305 42.7348,6.81 C17.6188,10.594 5.5408,32.144 5.9948,52.325 C6.5188,75.704 13.8528,96.761 25.5588,116.674 C30.7718,125.544 35.2608,134.836 40.2688,143.831 C46.4678,154.967 52.8608,165.995 59.1788,177.064 C59.8368,178.219 60.8508,179.263 61.1638,180.494 C61.4498,181.625 61.0098,182.938 60.8898,184.172 C59.7388,183.93 58.0488,184.091 57.5218,183.384 C53.9158,178.551 50.2078,173.737 47.1788,168.54 C39.0318,154.556 30.9868,140.503 23.3208,126.252 C16.6618,113.873 10.3808,101.401 5.5568,88.006 C0.3558,73.564 -0.6002,59.1 0.2988,44.375 C0.6638,38.409 3.2118,32.055 6.4028,26.887 C14.6758,13.482 27.1688,5.034 42.4648,1.765 C55.8518,-1.095 67.7558,2.836 76.1768,14.038 C79.9278,19.028 82.3408,25.023 85.6868,31.159" mask="url(#9-b)"/>
    </g>
    <path fill="#231F20" d="M69.4075,76.5518 C68.4615,76.4338 65.6365,75.3398 64.9475,76.1238 C62.3095,79.1208 59.4975,82.4088 60.3805,87.4068 C63.5145,83.6368 66.3395,80.2408 69.4075,76.5518 M57.3795,74.9038 C50.6605,76.4248 44.3175,77.8598 38.0165,79.2858 C40.3235,90.0608 47.9825,94.8878 55.2855,100.0738 C51.4825,91.6508 54.0265,83.9808 57.3795,74.9038 M102.9645,107.3508 C97.9435,113.4308 90.2245,113.0488 82.7665,113.6008 C74.3665,114.2208 66.1895,112.0838 58.7065,109.2808 C52.0375,106.7818 46.3375,101.4038 40.6235,96.7838 C38.0155,94.6768 36.1815,91.4738 34.3855,88.5308 C30.7515,82.5778 32.5075,77.9548 38.5755,74.7108 C51.8835,67.5958 66.2515,68.7608 80.0395,70.7518 C89.5515,72.1248 97.6955,78.7048 104.4615,86.0408 C106.6785,88.4448 108.8735,90.8668 111.1165,93.3228 C109.8375,95.2558 108.7035,96.9688 107.6525,98.5568 C101.4445,92.4798 95.2745,86.4408 88.2375,79.5528 C88.6145,89.2588 90.1005,97.4308 83.5915,104.1988 C81.6185,106.2498 82.6485,108.8298 85.7545,108.0628 C91.8025,106.5688 97.7015,104.4348 103.5955,102.3758 C105.5935,101.6788 107.3145,100.1978 109.3075,99.4868 C110.3325,99.1208 111.6785,99.6608 112.8795,99.7908 C112.5195,100.7528 112.3965,101.9278 111.7565,102.6348 C109.9285,104.6498 107.9525,106.5458 105.8745,108.2988 C105.5525,108.5708 104.3865,107.8398 102.9645,107.3508"/>
  </g>
</svg>
