<svg width="103" height="200" viewBox="0 0 103 200" fill="none" xmlns="http://www.w3.org/2000/svg">
<path fill-rule="evenodd" clip-rule="evenodd" d="M102.857 168.91L52.2219 195.324L0.87793 168.589L51.5747 142.113L102.857 168.91Z" fill="black"/>
<path fill-rule="evenodd" clip-rule="evenodd" d="M24.0508 122.955L36.2693 116.584V123.893L24.0508 130.264V122.955Z" fill="#E6AB28"/>
<path fill-rule="evenodd" clip-rule="evenodd" d="M11.8281 116.584L24.051 122.955V130.264L11.8281 123.893V116.584Z" fill="#E9D21B"/>
<path fill-rule="evenodd" clip-rule="evenodd" d="M24.0508 86.7666L36.2693 80.3909V116.584L24.0508 122.955V86.7666Z" fill="#E76652"/>
<path fill-rule="evenodd" clip-rule="evenodd" d="M36.2695 80.3909L24.051 86.7666L11.8281 80.3909L24.051 74.0197L36.2695 80.3909Z" fill="#EB7D72"/>
<path fill-rule="evenodd" clip-rule="evenodd" d="M11.8281 80.3909L24.051 86.7666V122.955L11.8281 116.584V80.3909Z" fill="#737373"/>
<path fill-rule="evenodd" clip-rule="evenodd" d="M80.1194 122.546H80.1766V161.077L56.497 173.357V134.826L80.1194 122.55V122.546ZM32.8174 161.077V122.489L56.4398 110.151L61.1775 112.665L65.9107 115.122L42.2928 127.46V156.168L32.8218 161.077H32.8174Z" fill="#9D6942"/>
<path fill-rule="evenodd" clip-rule="evenodd" d="M32.8177 161.077L28.0844 158.563L18.5518 153.592V115.065L42.1741 102.728L51.7068 107.699L56.44 110.156L32.8177 122.493V161.081V161.077ZM80.1197 122.546L56.4973 134.822V173.353L50.1833 170.077L47.0263 168.439L42.2886 165.982V127.451L65.9066 115.114L70.6443 117.57L80.1153 122.541L80.1197 122.546Z" fill="#6B482E"/>
<path fill-rule="evenodd" clip-rule="evenodd" d="M32.8177 174.409L28.0844 171.953L18.5518 166.981V153.592L28.0844 158.563L32.8177 161.077V174.409ZM42.2886 169.496V165.986L47.0263 168.443L50.1833 170.081L56.4973 173.357V186.747L47.0263 181.833L42.2886 179.376V169.496Z" fill="#3C3C3C"/>
<path fill-rule="evenodd" clip-rule="evenodd" d="M56.497 173.353L80.1766 161.073V174.462L56.497 186.742V173.353ZM42.2883 169.496L32.8174 174.409V161.077L42.2883 156.168V169.5V169.496Z" fill="#595959"/>
<path fill-rule="evenodd" clip-rule="evenodd" d="M80.1197 96.0614L56.4973 108.342L18.5518 88.5762L42.1741 76.2433L80.1197 96.0614Z" fill="#F9EA7E"/>
<path fill-rule="evenodd" clip-rule="evenodd" d="M56.4971 142.192L80.1767 129.912V147.978L56.4971 160.258V142.192Z" fill="#9D6942"/>
<path fill-rule="evenodd" clip-rule="evenodd" d="M56.4973 160.258L18.5518 140.497V122.431L56.4973 142.192V160.258Z" fill="#6B482E"/>
<path fill-rule="evenodd" clip-rule="evenodd" d="M80.1767 129.912L56.4971 142.192V108.342L80.1195 96.0614H80.1767V129.912Z" fill="#C4C4C4"/>
<path fill-rule="evenodd" clip-rule="evenodd" d="M56.4973 108.342V142.192L18.5518 122.431V88.5762L56.4973 108.342Z" fill="#919191"/>
<path fill-rule="evenodd" clip-rule="evenodd" d="M73.6875 154.001V146.692L85.9104 140.321V147.63L73.6875 154.001Z" fill="#E6AB28"/>
<path fill-rule="evenodd" clip-rule="evenodd" d="M61.4688 140.321L73.6872 146.692V154.001L61.4688 147.63V140.321Z" fill="#E9D21B"/>
<path fill-rule="evenodd" clip-rule="evenodd" d="M73.6872 110.504L61.4688 104.128L73.6872 97.7567L85.9101 104.128L73.6872 110.504Z" fill="white"/>
<path fill-rule="evenodd" clip-rule="evenodd" d="M73.6875 110.504L85.9104 104.128V140.321L73.6875 146.692V110.504Z" fill="#C4C4C4"/>
<path fill-rule="evenodd" clip-rule="evenodd" d="M73.6872 146.692L61.4688 140.321V104.128L73.6872 110.504V146.692Z" fill="#919191"/>
<path fill-rule="evenodd" clip-rule="evenodd" d="M12.2998 23.0368L56.4977 46.0736V59.9872V108.342L12.2998 85.3048V36.9505V23.0368Z" fill="#E6AB28"/>
<path fill-rule="evenodd" clip-rule="evenodd" d="M72.7805 37.5933L94.2675 64.6941V74.4293V88.6952L56.498 108.342V59.9872V46.0736L72.7805 37.5933Z" fill="#E9D21B"/>
<path fill-rule="evenodd" clip-rule="evenodd" d="M12.2998 23.0368L50.0076 3.33313L94.2671 26.4272L72.7802 37.5933L56.4977 46.0736L12.2998 23.0368Z" fill="#EBBE58"/>
<path fill-rule="evenodd" clip-rule="evenodd" d="M72.7803 37.5933L94.2672 26.4272V40.3408V64.6941L72.7803 37.5933Z" fill="#452F21"/>
<path fill-rule="evenodd" clip-rule="evenodd" d="M22.4441 54.0431L4.42676 44.6558L13.5631 39.9621L31.4131 49.3494L22.4441 54.0431Z" fill="#E88F51"/>
<path fill-rule="evenodd" clip-rule="evenodd" d="M31.4134 49.3494V70.6382L22.4443 75.2482V54.0431L31.4134 49.3494Z" fill="#773911"/>
<path fill-rule="evenodd" clip-rule="evenodd" d="M4.42676 44.6558L22.4441 54.0431V75.2482L4.42676 65.8609V44.6558Z" fill="#C9611D"/>
<path fill-rule="evenodd" clip-rule="evenodd" d="M20.2693 71.3339L7.0293 64.4344V48.9928L20.2693 55.888V71.3339Z" fill="#352606"/>
<path fill-rule="evenodd" clip-rule="evenodd" d="M47.4089 67.6661L29.3916 58.2788L38.5235 53.5851L56.3779 62.9725L47.4089 67.6661Z" fill="#E88F51"/>
<path fill-rule="evenodd" clip-rule="evenodd" d="M47.4092 67.6661L56.3782 62.9725V84.2612L47.4092 88.8712V67.6661Z" fill="#773911"/>
<path fill-rule="evenodd" clip-rule="evenodd" d="M47.4089 88.8712L29.3916 79.4839V58.2788L47.4089 67.6661V88.8712Z" fill="#C9611D"/>
<path fill-rule="evenodd" clip-rule="evenodd" d="M45.115 84.3097L31.875 77.4145V61.9686L45.115 68.8682V84.3097Z" fill="#352606"/>
<path fill-rule="evenodd" clip-rule="evenodd" d="M52.4639 70.101L70.0629 60.9207V64.0776L61.4109 68.582L52.4639 73.2008V70.101Z" fill="#E88F51"/>
<path fill-rule="evenodd" clip-rule="evenodd" d="M53.1689 70.6295L70.7635 61.4491V64.6061L62.1115 69.106L53.1689 73.7248V70.6295Z" fill="#773911"/>
<path fill-rule="evenodd" clip-rule="evenodd" d="M47.5852 93.8379L50.8919 92.1119L50.9007 94.0053L47.5852 95.7313L44.1553 97.5013V95.6388L47.5852 93.8467V93.8379Z" fill="#773911"/>
<path fill-rule="evenodd" clip-rule="evenodd" d="M18.7279 26.1938L5.92383 22.8034L49.5405 0L62.2873 3.39035L18.7279 26.1938ZM87.7766 16.6612L44.2172 39.4646L31.4704 36.1006L75.0298 13.2972L87.7766 16.6612Z" fill="#452F21"/>
<path fill-rule="evenodd" clip-rule="evenodd" d="M87.7806 16.6612L100.704 26.7177L57.0297 49.4023L44.2256 39.4646L87.785 16.6612H87.7806ZM18.7319 26.1938L62.287 3.39035L75.0338 13.3016L31.4744 36.1051L18.7275 26.1938H18.7319Z" fill="#7E503D"/>
</svg>
