<svg width="103" height="200" viewBox="0 0 103 200" fill="none" xmlns="http://www.w3.org/2000/svg">
<path fill-rule="evenodd" clip-rule="evenodd" d="M102.735 168.91L52.0999 195.324L0.755859 168.589L51.4526 142.113L102.735 168.91Z" fill="black"/>
<path fill-rule="evenodd" clip-rule="evenodd" d="M23.7451 122.718L35.9818 116.337V123.655L23.7451 130.036V122.718Z" fill="#E6AB28"/>
<path fill-rule="evenodd" clip-rule="evenodd" d="M11.5078 116.337L23.7445 122.718V130.036L11.5078 123.655V116.337Z" fill="#E9D21B"/>
<path fill-rule="evenodd" clip-rule="evenodd" d="M23.7451 86.4763L35.9818 80.095V116.337L23.7451 122.718V86.4763Z" fill="#E76652"/>
<path fill-rule="evenodd" clip-rule="evenodd" d="M35.9813 80.095L23.7445 86.4762L11.5078 80.095L23.7445 73.7138L35.9813 80.095Z" fill="#EB7D72"/>
<path fill-rule="evenodd" clip-rule="evenodd" d="M11.5078 80.095L23.7445 86.4763V122.718L11.5078 116.337V80.095Z" fill="#6C1695"/>
<path fill-rule="evenodd" clip-rule="evenodd" d="M79.8961 122.314H79.9533V160.895L56.2418 173.193V134.612L79.8961 122.318V122.314ZM32.5303 160.895V122.253L56.1846 109.902L60.9277 112.42L65.6708 114.878L42.0164 127.233V155.98L32.5303 160.899V160.895Z" fill="#3D52BF"/>
<path fill-rule="evenodd" clip-rule="evenodd" d="M32.5305 160.895L27.7874 158.377L18.2441 153.401V114.817L41.8985 102.462L51.4418 107.437L56.1848 109.898L32.5305 122.249V160.891V160.895ZM79.8963 122.314L56.242 134.608V173.189L49.9179 169.909L46.7559 168.27L42.0128 165.809V127.225L65.6671 114.87L70.4102 117.331L79.8925 122.306L79.8963 122.314Z" fill="#223496"/>
<path fill-rule="evenodd" clip-rule="evenodd" d="M32.5305 174.248L27.7874 171.787L18.2441 166.811V153.405L27.7874 158.381L32.5305 160.899V174.248ZM42.0166 169.33V165.817L46.7597 168.278L49.9217 169.916L56.2458 173.196V186.603L46.7597 181.684L42.0166 179.227V169.333V169.33Z" fill="#3C3C3C"/>
<path fill-rule="evenodd" clip-rule="evenodd" d="M56.2418 173.193L79.9533 160.895V174.305L56.2418 186.599V173.193ZM42.0164 169.33L32.5303 174.248V160.899L42.0164 155.98V169.33Z" fill="#595959"/>
<path fill-rule="evenodd" clip-rule="evenodd" d="M56.123 142.025L79.8346 129.728V147.82L56.123 160.114V142.025Z" fill="#3D52BF"/>
<path fill-rule="evenodd" clip-rule="evenodd" d="M56.1228 142.025V160.114L18.125 140.326V122.238L56.1228 142.025Z" fill="#223496"/>
<path fill-rule="evenodd" clip-rule="evenodd" d="M38.1487 98.7551L56.1228 108.123V142.026L18.125 122.238V88.3356L33.0552 96.1226L34.7543 102.035L38.1487 98.7551Z" fill="#7D1AAB"/>
<path fill-rule="evenodd" clip-rule="evenodd" d="M79.8343 129.728L56.1228 142.025V108.123L38.1487 98.755L33.0552 96.1225L18.125 88.3355L41.7794 75.9845L79.7772 95.8292H79.8343V129.728Z" fill="#9C27D2"/>
<path fill-rule="evenodd" clip-rule="evenodd" d="M33.0547 96.1225L38.1482 98.755L34.7538 102.035L33.0547 96.1225Z" fill="#6C1695"/>
<path fill-rule="evenodd" clip-rule="evenodd" d="M73.3887 153.801V146.483L85.6254 140.101V147.42L73.3887 153.801Z" fill="#E6AB28"/>
<path fill-rule="evenodd" clip-rule="evenodd" d="M61.1523 140.101L73.3891 146.483V153.801L61.1523 147.42V140.101Z" fill="#E9D21B"/>
<path fill-rule="evenodd" clip-rule="evenodd" d="M73.3891 146.483L61.1523 140.101V103.86L73.3891 110.241V146.483Z" fill="#7D1AAB"/>
<path fill-rule="evenodd" clip-rule="evenodd" d="M73.3887 110.241L85.6254 103.86V140.101L73.3887 146.483V110.241Z" fill="#9C27D2"/>
<path fill-rule="evenodd" clip-rule="evenodd" d="M73.3891 110.241L61.1523 103.86L73.3891 97.4787L85.6258 103.86L73.3891 110.241Z" fill="#B232ED"/>
<path fill-rule="evenodd" clip-rule="evenodd" d="M10.1211 22.6678L54.3859 45.7354V59.6713V108.089L10.1211 85.0209V36.6036V22.6678Z" fill="#E6AB28"/>
<path fill-rule="evenodd" clip-rule="evenodd" d="M54.3867 45.7354L92.2093 26.066V39.998V74.1023V88.4191L54.3867 108.089V59.6712V45.7354Z" fill="#E9D21B"/>
<path fill-rule="evenodd" clip-rule="evenodd" d="M92.2085 26.066L54.3859 45.7354L10.1211 22.6677L47.8865 2.93736L92.2085 26.066Z" fill="#EBBE58"/>
<path fill-rule="evenodd" clip-rule="evenodd" d="M27.2768 59.1872L27.2006 68.2009L20.1641 64.5322L20.2364 55.5413L27.2768 59.1872Z" fill="white"/>
<path fill-rule="evenodd" clip-rule="evenodd" d="M29.5131 53.0084L16.6973 47.5301L16.7582 42.6803L29.635 48.2158L29.5131 53.0084Z" fill="#373503"/>
<path fill-rule="evenodd" clip-rule="evenodd" d="M47.056 63.5836L34.2402 55.6176L34.3012 50.7678L47.1817 58.791L47.056 63.5836Z" fill="#373503"/>
<path fill-rule="evenodd" clip-rule="evenodd" d="M7.75586 21.1363L55.2398 45.903V52.9586L49.9139 52.7529C49.5253 52.9853 49.171 53.2595 48.8586 53.5719C47.9595 54.5053 45.1708 55.6787 40.4849 57.0845L39.8411 46.4859L35.4523 64.6924L25.2652 43.381L7.75967 32.1691V21.1324L7.75586 21.1363Z" fill="#373503"/>
<path fill-rule="evenodd" clip-rule="evenodd" d="M55.2402 45.9031L95.7563 24.7631V39.7542V76.3463V81.2913L75.7325 64.5477L69.759 74.8224L55.2402 52.9548V45.9031Z" fill="#6F6D3B"/>
<path fill-rule="evenodd" clip-rule="evenodd" d="M95.7559 24.763L55.2398 45.9029L7.75586 21.1362L48.2148 0L95.7559 24.763Z" fill="#55531B"/>
<path fill-rule="evenodd" clip-rule="evenodd" d="M29.3303 108.005V106.831V101.025L31.2922 100L29.3303 98.9795L27.3721 100V105.81V106.984L29.3303 108.005Z" fill="white"/>
<path fill-rule="evenodd" clip-rule="evenodd" d="M31.2921 100L29.3301 101.025V106.831V108.005L31.2921 106.984V105.81V100Z" fill="#F7C8C4"/>
<path fill-rule="evenodd" clip-rule="evenodd" d="M39.5362 112.051V110.877V105.067L41.4944 104.046L39.5362 103.022L37.5742 104.046V109.852V111.03L39.5362 112.051Z" fill="white"/>
<path fill-rule="evenodd" clip-rule="evenodd" d="M41.4933 104.046L39.5352 105.067V110.877V112.051L41.4933 111.03V109.852V104.046Z" fill="#F7C8C4"/>
<path fill-rule="evenodd" clip-rule="evenodd" d="M29.0325 75.687V76.5099V79.3671L26.4229 78.0071V75.1498V74.3269L29.0325 75.687Z" fill="#E6AB28"/>
<path fill-rule="evenodd" clip-rule="evenodd" d="M29.0322 75.687L31.2685 74.5289V75.348V77.3633V78.209L29.0322 79.3672V76.5099V75.687Z" fill="#E9D21B"/>
<path fill-rule="evenodd" clip-rule="evenodd" d="M31.2688 74.5288L29.0325 75.687L26.4229 74.3269L28.6515 73.1612L31.2688 74.5288Z" fill="#EBBE58"/>
<path fill-rule="evenodd" clip-rule="evenodd" d="M27.342 59.4349V63.0542L24.3057 61.4579V57.8654L27.342 59.4349Z" fill="black"/>
<path fill-rule="evenodd" clip-rule="evenodd" d="M37.1632 87.0286C33.0068 88.1791 28.8504 86.0114 24.6941 80.5216L24.6064 78.0377C28.9495 83.6227 33.1059 85.7904 37.0756 84.537L37.1594 87.0286H37.1632Z" fill="#773911"/>
<path fill-rule="evenodd" clip-rule="evenodd" d="M42.5189 67.3401L42.4427 76.35L35.4062 72.6813L35.4786 63.6942L42.5189 67.3401Z" fill="white"/>
<path fill-rule="evenodd" clip-rule="evenodd" d="M42.5832 67.523V71.1422L39.5469 69.5459V65.9534L42.5832 67.523Z" fill="black"/>
</svg>
