<svg xmlns="http://www.w3.org/2000/svg" width="275" height="213" viewBox="0 0 275 213">
  <g fill="none" fill-rule="evenodd" transform="matrix(-1 0 0 1 274.478 .48)">
    <g fill="#1A202C" transform="matrix(-1 0 0 1 274.478 0)">
      <path d="M214.912724,109.101075 C215.773821,115.339985 210.995859,121.300092 205.175106,123.702928 C199.354354,126.105377 192.780433,125.694161 186.548156,124.794456 C183.424059,124.343245 180.228139,123.78059 177.138982,124.428672 C173.05013,125.286051 169.684164,128.154855 166.862111,131.236062 C162.192465,136.334906 158.491455,142.261618 153.787257,147.328621 C149.08267,152.395236 142.988214,156.705431 136.089344,157.149264 C133.890402,157.290996 131.546649,156.983458 129.80582,155.63293 C125.423077,152.231759 127.547478,145.154885 130.833857,140.685096 C135.173118,134.783624 140.902247,129.86806 144.315577,123.386459 C145.329637,121.461239 146.139876,119.295269 145.797844,117.145996 C145.235685,113.612801 141.812262,111.290344 138.492884,109.956901 C135.173894,108.623459 131.507438,107.747441 128.931523,105.265002 C125.37416,101.83665 124.914494,96.1141856 126.507019,91.4366536 C128.099155,86.7591216 131.372722,82.8760626 134.576406,79.1145446 C149.270185,84.8731196 164.880578,79.5851706 185.435873,86.8600806 C205.991169,94.1353796 214.912724,109.101075 214.912724,109.101075 M237.777996,66.4631516 C237.777996,66.4631516 252.872818,57.6649176 251.7155,72.7160406 C250.557794,87.7675516 270.236463,87.1885876 270.236463,87.1885876 C270.236463,87.1885876 262.48426,105.906095 251.890592,113.624839 C241.297313,121.343582 228.564102,127.132446 228.564102,127.132446 L219.303232,110.923395 C219.303232,110.923395 233.100973,90.3128966 237.777996,66.4631516 M11.2885052,94.1699386 C11.2885052,94.1699386 34.0920479,83.1362276 34.0920479,103.976603 C34.0920479,124.816978 50.2979878,113.238862 56.0857402,124.816978 C61.8738809,136.394705 35.2497537,163.023943 35.2497537,163.023943 C35.2497537,163.023943 19.0434257,145.656964 15.5710848,128.290374 C12.0979675,110.923395 11.2885052,94.1699386 11.2885052,94.1699386 M99.163887,188.626113 C101.881118,190.728789 105.116638,191.760518 108.557144,191.336099 C110.235856,191.129132 110.256432,188.463413 108.557144,188.673098 C105.863983,189.005488 103.21974,188.424582 101.046421,186.743218 C99.707799,185.707606 97.8097361,187.578852 99.163887,188.626113 M118.594476,192.142611 C120.909888,192.142611 123.224911,192.142611 125.539934,192.142611 C127.253199,192.142611 127.255917,189.479609 125.539934,189.479609 C123.224911,189.479609 120.909888,189.479609 118.594476,189.479609 C116.8816,189.479609 116.878882,192.142611 118.594476,192.142611 M213.703384,156.852599 C213.948746,158.867129 213.514703,160.67314 212.350786,162.340913 C211.367784,163.74891 213.674655,165.081576 214.649892,163.68484 C216.040925,161.691666 216.659765,159.268249 216.365874,156.852599 C216.161276,155.173176 213.496456,155.152596 213.703384,156.852599 M208.972785,171.119344 C206.80296,172.741686 205.522962,174.990753 205.260129,177.691032 C205.094743,179.395695 207.758009,179.384045 207.923008,177.691032 C208.085288,176.019764 208.968903,174.426156 210.316454,173.418891 C211.672934,172.404636 210.347124,170.092275 208.972785,171.119344 M206.361541,161.260258 C205.147542,162.248885 204.482114,163.784635 204.487862,165.339023 C204.494537,167.052228 207.156639,167.055335 207.150427,165.339023 C207.146933,164.425339 207.544094,163.713186 208.244075,163.143153 C208.801963,162.688836 208.715776,161.73205 208.244075,161.260258 C207.692398,160.708476 206.920594,160.804776 206.361541,161.260258 M38.0997598,19.2148726 C40.3744071,17.0127901 42.6335251,14.7940105 44.8759492,12.5593104 C44.179074,12.4692234 43.4821988,12.3795248 42.7853236,12.2898261 C44.1414155,14.5016162 44.744727,16.8601859 44.6344693,19.4513509 C44.5610936,21.1649446 47.223584,21.1614498 47.2965715,19.4513509 C47.4258525,16.421012 46.6688014,13.5304633 45.0844294,10.9455113 C44.6371869,10.2162729 43.6110916,10.0609506 42.9934155,10.676027 C40.7506032,12.9111155 38.4918734,15.1295068 36.2172262,17.3319775 C34.9838153,18.526018 36.8675136,20.4077482 38.0997598,19.2148726 M105.327059,32.8913926 C106.51,32.0860466 111.999591,28.180078 113.215143,29.4913868 C113.827772,30.1522836 112.979487,31.5742596 112.771006,32.3889246 C112.522538,33.3577486 112.456151,34.2582296 112.692195,35.2383136 C113.093627,36.9033686 115.661777,36.1982056 115.259569,34.5304316 C114.910161,33.0816626 115.997985,31.6010526 116.125325,30.1616026 C116.246453,28.7932129 115.680412,27.5005428 114.397307,26.8866312 C112.885535,26.1632174 111.204105,26.7740225 109.775414,27.3887107 C107.737199,28.2658936 105.816619,29.3442189 103.983391,30.5922336 C102.575276,31.5509606 103.905744,33.8594396 105.327059,32.8913926 M107.988385,183.265939 C110.77278,184.507353 113.770314,184.715873 116.65332,183.653856 C118.247397,183.06635 117.558287,180.491882 115.945574,181.08599 C113.768761,181.887842 111.472373,181.920848 109.332053,180.966392 C107.780681,180.274819 106.424589,182.568542 107.988385,183.265939"/>
      <path d="M52.9756191,180.028245 C38.148677,167.037084 24.5357341,150.493702 18.137682,131.600293 C11.6262664,112.371776 11.6243253,90.7524586 13.5080236,70.7302446 C15.1964416,52.7815836 19.4153513,34.4069506 29.1914041,19.030039 C31.5312742,15.3496762 34.1863882,11.8743389 37.170334,8.69178413 C40.0572221,5.61329543 43.8285011,0.271760128 47.821072,4.36139733 C50.780171,7.39251283 52.7325863,11.8432744 54.2233946,15.7593389 C54.454004,16.3654843 54.8705762,16.6714693 55.5072755,16.7367047 C60.3896726,17.2372309 65.2557639,18.046072 70.0686675,18.997033 C74.0262975,19.779081 77.9602454,20.6915997 81.8386763,21.8037077 C83.9681251,22.4141245 86.0793269,23.0820105 88.1617997,23.8384303 C89.8292532,24.4441874 92.0297483,26.1201155 93.7069076,25.9993524 C96.5604078,25.7935503 100.209006,23.071138 102.794238,21.9784453 C108.707777,19.4789206 115.424179,16.4652789 121.931712,16.1740495 C130.114852,15.8071005 127.526126,27.1739775 126.75471,32.4017396 C125.763167,39.1213716 124.136478,45.8091636 123.709424,52.6017976 C123.210546,60.5364396 122.687987,70.7648036 128.649667,76.9314886 C138.081747,86.6884496 154.539261,81.5736856 166.439715,83.2294216 C182.845594,85.5122716 199.193627,92.9056146 211.280044,104.307828 C224.528438,116.806617 229.096367,132.633575 225.691967,150.405557 C222.779844,165.608119 216.045195,180.048048 208.220781,193.30947 C206.737349,195.82375 204.911886,200.410419 202.547557,202.266132 C199.095016,204.976119 189.919557,204.969518 185.413744,205.272785 C178.929117,205.709629 171.74839,206.153462 165.360044,204.661591 C164.654628,204.496949 163.155666,204.369197 162.668824,203.818191 C161.493648,202.488632 164.16235,200.241506 165.315786,199.113089 C167.555104,196.921879 170.303781,195.1248 173.093612,193.697387 C173.733029,193.370045 173.918991,192.469176 173.571136,191.875845 C167.980994,182.341771 163.501969,169.313722 166.294905,158.299426 C169.553719,145.446503 190.296141,132.640176 203.004117,140.43891 C204.468525,141.33745 205.807535,139.035185 204.347786,138.139752 C191.49927,130.254425 170.612037,141.320365 165.100705,153.628107 C159.534633,166.05933 164.740427,182.079665 171.272419,193.219771 C171.431593,192.612461 171.59038,192.00515 171.749943,191.398228 C168.317202,193.154536 156.71258,199.998426 159.969064,205.01029 C162.815964,209.391933 174.619749,208.263904 178.789742,208.20527 C186.003079,208.104311 196.915097,208.473201 203.391184,204.646059 C207.29912,202.336804 209.751189,196.04159 211.899661,192.276188 C222.876902,173.040293 234.753286,147.075834 227.697182,124.594867 C220.688053,102.263009 197.1954,87.7772596 175.615951,82.3235036 C169.924091,80.8848306 164.039281,79.9983286 158.164176,79.9090176 C151.501739,79.8072816 144.865313,80.9970506 138.300321,79.2512276 C128.716831,76.7027766 126.31562,68.9316116 126.252727,59.9539806 C126.17974,49.5217556 128.637632,39.5919986 129.843478,29.2883029 C130.544624,23.2994618 131.45425,13.8760555 123.272663,13.4792069 C114.591423,13.0582834 105.038991,17.9792834 97.3349292,21.4864618 C96.3523158,21.9334018 94.7714379,23.1068621 93.6929313,23.1950075 C92.7530233,23.2718921 91.1174047,22.105033 89.6405728,21.550144 C83.076746,19.0851784 76.1968988,17.4469161 69.3178281,16.1476447 C65.683983,15.46112 60.5492356,13.7401485 56.8074622,14.2197062 C56.4759127,14.2620315 56.0096469,14.1401035 55.6722739,14.0911769 C55.8512485,14.1171934 56.8517206,15.607123 56.5978173,14.5590855 C56.2821852,13.2539895 55.4843699,11.8980255 54.9093993,10.6989371 C52.3641548,5.39351433 47.4549698,-3.64158617 40.8154379,1.55977063 C19.0317788,18.6242594 12.1802725,49.8836566 10.4258552,75.9560646 C9.33220757,92.2012276 9.67928636,108.875858 13.4505654,124.779312 C17.011423,139.797429 24.9876354,153.183497 34.7089475,165.036144 C39.6938376,171.113907 45.1826519,176.732693 51.0930855,181.911528 C52.3769664,183.03645 54.267653,181.160156 52.9756191,180.028245"/>
      <path d="M51.4510348,158.428344 C52.5920466,171.07896 51.6676678,183.758699 48.3261609,196.035765 C47.5166986,199.010188 44.6554338,203.800717 46.0802427,206.874934 C47.4293466,209.785287 52.6960926,211.316765 55.4971815,211.749338 C63.1740676,212.934836 69.8652343,209.17487 74.1843077,202.989546 C80.6592296,193.717579 84.00656,181.465753 88.2576929,171.090609 C88.9068156,169.505933 86.3320655,168.815525 85.6903192,170.382728 C82.1593554,179.001176 78.9851761,187.905417 74.925053,196.289329 C70.8230009,204.760221 63.0878802,212.020375 53.0144423,208.405248 C46.6031903,206.104536 49.9194622,200.508272 51.1652965,195.744924 C52.2135211,191.737608 53.0148305,187.668939 53.5898011,183.567264 C54.7607067,175.216359 54.870188,166.82041 54.1131369,158.428344 C53.960562,156.734942 51.2965187,156.719021 51.4510348,158.428344 M220.664371,112.27897 C230.996759,100.297017 235.485102,85.2761816 238.464001,70.0111016 C240.263453,60.7907796 241.31556,51.2578706 243.908945,42.2138396 C244.480421,40.2210536 245.074415,37.6368786 246.66694,36.1745186 C249.560428,33.5181186 254.26385,35.6153586 257.04941,37.1099476 C260.998499,39.2285446 264.248383,42.6320446 266.627853,46.3826916 C276.372459,61.7421286 271.267217,82.7832576 262.977314,97.6654676 C255.399039,111.269375 243.381338,122.250276 227.89285,125.592425 C226.218797,125.953549 226.927319,128.521416 228.600596,128.160291 C255.003043,122.463068 272.757637,95.0234346 274.387044,69.1145036 C275.228341,55.7385326 270.284604,40.8644766 257.65738,34.4349086 C253.667139,32.4032926 248.424463,30.7347426 244.784406,34.2916236 C240.320523,38.6538516 239.909386,47.5344066 238.834762,53.2215336 C235.065424,73.1746296 232.557061,94.4211726 218.781838,110.395687 C217.667614,111.687581 219.542771,113.579407 220.664371,112.27897"/>
      <path d="M79.683216,193.570411 C105.269213,203.831782 135.381986,206.326258 162.357463,200.778533 C164.034622,200.433329 163.324547,197.866239 161.649717,198.210666 C135.117989,203.66714 105.535928,201.086848 80.3909617,191.002545 C78.8007662,190.364946 78.1097145,192.939414 79.683216,193.570411 M33.6715934,163.525635 C35.0090503,169.531173 36.3465072,175.537099 37.6835758,181.543026 C38.3521102,184.545018 39.0610206,187.541186 39.6895671,190.551722 C40.5871579,194.848714 40.3922657,195.845107 39.3110415,200.347901 C38.101701,205.383063 41.0553648,207.07763 46.1951592,205.687883 C47.8470835,205.240943 47.1459377,202.671524 45.4870253,203.120017 C39.5102042,204.735758 43.1716137,198.985336 43.3525295,197.390176 C43.6716557,194.576512 42.6016902,191.392404 42.0061433,188.717753 C40.0840101,180.084549 38.1614886,171.450957 36.2389671,162.817753 C35.8666533,161.145708 33.2992796,161.853201 33.6715934,163.525635 M39.8200128,37.4831096 C38.1211125,41.0469806 39.4298403,45.7151936 43.2251896,47.3293806 C47.0236448,48.9447336 51.2848718,46.6401376 52.6751281,42.9473496 C53.2796043,41.3417046 50.7071836,40.6478026 50.1077544,42.2394676 C49.2680101,44.4702846 46.5080736,45.8347916 44.2617673,44.8698516 C42.012355,43.9037466 41.0899174,40.9856286 42.1187304,38.8274246 C42.8524876,37.2881796 40.5576523,35.9353226 39.8200128,37.4831096 M84.6312241,50.6719176 C82.7510199,53.9166016 83.7379039,58.4640506 87.1244456,60.3197646 C90.4807054,62.1583926 94.9251775,60.5240136 96.5712782,57.1698276 C97.3236705,55.6371846 95.028447,54.2858796 94.2725606,55.8259006 C93.2689827,57.8703316 90.6371626,59.1696026 88.4681142,58.0202176 C86.3293479,56.8871406 85.7695184,54.0187256 86.9299418,52.0158446 C87.7910388,50.5305746 85.4911565,49.1882006 84.6312241,50.6719176 M52.3447432,57.2319566 C52.3855075,59.4371456 53.7544112,61.1953946 55.7891315,62.0127786 C58.2885647,63.0169366 60.9654196,62.1758666 63.3701244,61.3083916 C64.9696374,60.7313686 64.2797503,58.1569006 62.6623787,58.7405246 C60.5570003,59.5000506 55.0802211,61.1732606 55.0068454,57.2319566 C54.9753986,55.5206926 52.3129083,55.5148676 52.3447432,57.2319566"/>
      <path d="M48.6957571,67.4424586 C52.926702,68.2214006 56.7690273,66.6879806 59.3418362,63.2522506 C58.530821,62.9105416 57.7198058,62.5684436 56.9087906,62.2263466 C56.3004321,66.6343946 58.9563226,70.8044106 63.4524294,71.6299486 C65.1272593,71.9374876 65.8454872,69.3715626 64.1601751,69.0620826 C61.2356286,68.5250556 59.0514392,66.0103866 59.4757761,62.9342276 C59.683868,61.4291546 57.9791443,60.6579786 57.0427304,61.9083236 C55.2347372,64.3228096 52.3563902,65.4182206 49.4035028,64.8749806 C47.7286729,64.5666656 47.010445,67.1325906 48.6957571,67.4424586 M33.0088826,51.1188576 C23.1850774,46.5651946 13.5891639,41.5944916 4.2025072,36.1962636 C2.7148048,35.3404376 1.37230091,37.6407616 2.85883861,38.4954226 C12.2454954,43.8936506 21.8414088,48.8647426 31.665214,53.4184046 C33.2095982,54.1340526 34.5633608,51.8395536 33.0088826,51.1188576 M26.7956286,54.7999966 C18.3050097,54.0257156 9.80313215,53.4692726 1.28378417,53.1302816 C-0.42948063,53.0619396 -0.426374779,55.7249416 1.28378417,55.7928946 C9.80313215,56.1322746 18.3050097,56.6887166 26.7956286,57.4629986 C28.501517,57.6183206 28.4910348,54.9545426 26.7956286,54.7999966 M20.9453709,61.1790856 C14.6051653,62.8810296 8.20983084,64.3045596 1.74577943,65.4523916 C0.0616319848,65.7517756 0.775589374,68.3184766 2.45391335,68.0202576 C8.91718829,66.8724256 15.3125228,65.4488966 21.6531166,63.7469516 C23.3062055,63.3031186 22.6046716,60.7336986 20.9453709,61.1790856 M83.8675731,67.8657126 C94.9620594,68.3949726 105.613186,70.6712216 115.967703,74.6665006 C117.567216,75.2835186 118.259821,72.7098276 116.675449,72.0986346 C106.114392,68.0237526 95.1682103,65.7420676 83.8675731,65.2027106 C82.1550848,65.1207786 82.1593554,67.7841676 83.8675731,67.8657126 M83.813609,74.1275326 C90.4092708,77.9472966 97.3019296,81.0890796 104.503232,83.5812266 C106.125519,84.1427166 106.822914,81.5713556 105.210978,81.0133596 C98.2204849,78.5942146 91.5572708,75.5347526 85.1572776,71.8279846 C83.6715163,70.9678876 82.3297889,73.2682116 83.813609,74.1275326 M83.2708616,82.5906586 C85.968681,85.4586856 88.2526459,88.6179416 90.1479911,92.0680386 C90.9733709,93.5703946 93.2732532,92.2280206 92.447097,90.7237246 C90.4449881,87.0798616 88.0014602,83.7357726 85.1533953,80.7077636 C83.9770544,79.4570296 82.0972383,81.3426436 83.2708616,82.5906586"/>
    </g>
    <g transform="translate(156 11.52)">
      <path fill="#1A202C" d="M88.9513502 7.04863695C93.9722616 6.33925274 95.4068078 13.4330948 92.5377155 25.4926263 89.6686232 37.5521578 83.9304387 43.9366157 75.3231618 39.6803104 66.7161031 35.4240052 57.3915532 19.1081685 62.4124647 14.142479 67.4333762 9.17678957 76.8294571 17.4269128 78.1924722 16.9800158 80.3440733 16.2706316 83.9304387 7.75802116 88.9513502 7.04863695M29.5887928 57.8702527C26.7126425 58.5963206 22.3984171 56.4176754 13.7699662 47.7022113 5.14151529 38.9867472 5.14151529 30.2712831 11.6128535 28.0924171 18.0841916 25.913551 22.3984171 36.8078812 24.5555298 36.0815925 26.7126425 35.3553038 27.4316801 27.3661284 31.3862775 23.3714303 35.3410934 19.376953 43.2505068 19.376953 43.9695443 31.7238604 44.6885819 44.0707679 32.4649431 57.1437432 29.5887928 57.8702527z"/>
      <path fill="#FFFFFE" d="M15.0075904 39.7842972C15.434626 43.1754885 17.7056792 45.9691257 20.9875271 46.9609595 22.0023958 47.2676751 22.4361413 45.6758816 21.424388 45.3701283 18.9108207 44.610436 16.9829298 42.420848 16.6507909 39.7842972 16.5199484 38.7450728 14.8750703 38.7320825 15.0075904 39.7842972M32 52C33.3322765 52 33.3343898 50 32 50 30.6677235 50 30.6656102 52 32 52M68.0044009 23.737931C68.3147183 26.7618821 70.6697404 29.3256228 73.9471154 29.9795351 75.0041112 30.1905398 75.4557054 28.7051926 74.3950241 28.4935138 71.8967597 27.9951023 69.9314158 26.0965095 69.6894026 23.737931 69.5889118 22.7588602 67.9029273 22.7491976 68.0044009 23.737931M78.0184349 33.8984453C78.2348961 33.7668204 78.4513574 33.6349587 78.6678186 33.5033338 78.994691 33.3042393 79.0892441 32.7554866 78.9116349 32.3928079 78.7173748 31.9958026 78.309825 31.9018187 77.9817633 32.1013866 77.7651039 32.2332483 77.5486426 32.3648732 77.3321814 32.4967348 77.005309 32.6955926 76.9107559 33.244582 77.0883651 33.6072607 77.2828235 34.004266 77.690175 34.09825 78.0184349 33.8984453"/>
      <path fill="#1A202C" d="M31.2022078 63.2719917C26.0533943 64.4838246 20.2567111 60.7801615 16.3253696 57.9150719 10.9322192 53.9847792 6.0122222 48.7505989 3.28371913 42.6429959.703325921 36.8670086.37916929 28.2717398 6.38648786 24.3754196 12.3020138 20.5384965 19.0312571 24.3916387 22.8450862 29.2052172 23.1938539 29.6453258 24.0084582 29.3902031 24.1157714 28.8736015 25.965371 19.9809087 34.2601888 12.8354997 43.3676155 18.5178982 48.0179993 21.4193713 48.720856 27.6089467 48.416876 32.5546893 48.0355153 38.7596071 46.0688468 44.9601415 43.2481076 50.4904307 40.7147194 55.4574335 36.9190714 61.5461873 31.2022078 63.2719917 30.2689826 63.5538541 30.6669724 65.005029 31.6064058 64.7214132 37.0937878 63.0648688 40.9111645 57.7894832 43.5829069 53.0699319 47.0078368 47.0199726 49.3314766 40.1349466 49.8908796 33.2082769 50.3190236 27.9057132 49.636787 21.4910423 45.1300786 17.9243652 40.6045239 14.342784 33.4899288 13.8656344 28.9202515 17.5289688 25.6520787 20.1490179 23.4900737 24.4335016 22.649528 28.4740407 23.0732375 28.3635752 23.4967253 28.2528905 23.9202131 28.142425 19.922577 23.0967374 13.0875726 19.3143896 6.70044531 22.466821.429278318 25.5622663-1.00459373 33.4756735.613528769 39.6512216 2.62010709 47.3101637 8.54405843 53.9010534 14.7495959 58.6100841 19.2110731 61.9955013 25.6826762 66.1156019 31.6064058 64.7214132 32.5580339 64.4974136 32.1551662 63.047773 31.2022078 63.2719917M78.3207006 10.5275847C70.9707754 6.06331159 59.161211 4.36454848 55.0365526 13.9029464 50.7986147 23.7035873 60.4722071 36.0924224 67.5050377 41.9225528 71.3956291 45.1480301 76.3505629 48.116312 81.5945474 47.9964923 86.293774 47.8894006 90.062253 44.9382359 92.7666104 41.3289403 99.1146846 32.8559725 102.195978 19.7495356 100.571862 9.31797581 99.7881793 4.28466865 96.6463816.104363971 91.1133464.00210023116 84.6100372-.117719515 78.8265945 4.90527349 77.2084406 10.9772379 76.9586955 11.9145092 78.4189646 12.3141278 78.6687096 11.3772954 80.1325118 5.88380142 85.4992711 1.15443263 91.4507562 1.51323352 96.7274218 1.83121669 98.7995774 6.29066188 99.2491627 10.8659767 100.140384 19.9336542 97.7725531 30.3107904 93.092096 38.1293581 90.962307 41.6868634 87.8794677 45.2770668 83.6364509 46.2430861 79.1858653 47.2562871 74.6118424 45.1471523 71.0162638 42.7002839 63.5113244 37.593461 55.2359512 27.5630559 55.6744957 17.9656259 56.2166037 6.10676271 70.174285 7.34336394 77.5564497 11.8269486 78.3902582 12.3334394 79.1518593 11.0325393 78.3207006 10.5275847"/>
      <path fill="#1A202C" d="M24.3525232 35.8846936C23.3557571 36.030973 21.412893 32.9625938 20.8387292 32.3212317 19.3744455 30.6859981 17.7267392 28.993212 15.6230207 28.1794103 12.3725234 26.9217563 8.55914648 28.4405768 6.92117551 31.4590335 4.71789104 35.5193222 6.85922334 40.5678142 9.23420381 44.0377533 12.6707789 49.0583411 17.934279 53.8670309 23.1776447 57.0758034 25.1837885 58.3035911 27.8694148 59.6137836 30.2607683 58.6872748 33.5254261 57.4222087 36.2294169 53.5925663 38.1999382 50.9277089 41.6265566 46.2934208 44.4347597 40.7768782 44.9195354 34.9856531 45.2691226 30.8065533 44.5754797 25.104055 40.9260547 22.3421867 38.1778124 20.2622289 34.4686478 20.7540416 31.8301494 22.7592247 29.9043221 24.2226726 28.6869621 26.369339 27.7264823 28.5271236 26.8848179 30.4176376 26.1621902 34.972791 24.1713131 35.9601224 23.2988939 36.3926385 24.0662157 37.6827748 24.9370861 37.2509127 27.1861709 36.135614 27.7986123 32.3053176 28.6371791 30.2456339 30.0457058 26.786159 32.3755497 22.5569187 36.7053422 22.4660119 41.349542 22.3687829 42.9817602 27.5550523 43.3612172 31.2593436 43.8995373 36.5179897 42.1394321 41.6238163 39.5301397 46.1475774 37.4766467 49.7084233 34.8868249 53.1774903 31.7285921 55.871124 29.5434508 57.7350417 27.8116665 57.8091624 25.220296 56.507908 21.0407375 54.408984 17.4207398 50.8163098 14.1751102 47.5491127 10.7619884 44.1134 6.17155432 38.4250718 7.83740376 33.1797239 8.63039147 30.6833821 11.2631372 28.8661168 13.9321692 29.2692026 16.1533755 29.6047078 17.8783008 31.3275782 19.3295302 32.8943592 20.6205691 34.2880464 22.4534681 37.6638086 24.755876 37.3263414 25.7183472 37.185294 25.3094629 35.7445183 24.3525232 35.8846936M48.339445 21.8224867C50.6004479 20.0428059 53.1478845 19.0064727 56.0506946 19.7058507 57.0036205 19.935494 57.4101429 18.4964688 56.4561051 18.2666079 52.9888782 17.4309676 49.9626436 18.6405672 47.2610932 20.7669984 46.4963063 21.3690773 47.5813297 22.4193415 48.339445 21.8224867M49.309928 26.8050994C51.2629903 25.1010755 53.4788131 24.0431449 56.0671905 24.7343558 57.0031789 24.984392 57.4026889 23.5146241 56.4667004 23.2648102 53.3354892 22.4284672 50.6154029 23.6610897 48.2470519 25.7273882 47.5126812 26.3681474 48.5797212 27.4420804 49.309928 26.8050994M79.1668425 16.1605148C77.9966725 16.2744744 76.145997 14.6913842 75.1622609 14.1698594 73.3426576 13.2052809 71.4236671 12.27575 69.3914058 11.8670826 66.2877008 11.2428399 62.813993 12.102937 61.5329764 15.2885147 60.2486543 18.4822482 61.5294505 22.377373 62.8034152 25.3539881 64.6360203 29.6361786 67.3807409 33.6684076 70.7220059 36.9187902 76.2460454 42.2923034 84.1741121 44.6493047 89.4445046 37.6783737 92.7227434 33.3423995 94.1593419 27.6347224 95.1115649 22.3839857 95.8625892 18.2422057 96.7359195 13.0635478 94.950033 9.0502754 93.73645 6.3227402 91.138276 5.31517892 88.3666701 6.4735107 86.2405308 7.36226307 84.6128707 9.23763639 83.2196853 10.9999318 81.9514503 12.6039624 80.6893856 15.3601528 78.7853803 16.2636736 77.9072019 16.6802763 78.6732115 17.9840883 79.5480843 17.5688082 82.9248289 15.9667615 88.198527 3.164936 92.9182125 8.56093257 95.0436907 10.9908944 94.4832872 15.6275279 94.1606641 18.5640257 93.6062107 23.6066815 92.4223778 28.9209005 90.1986141 33.5052933 88.7022951 36.590137 86.3789238 39.8405195 82.8117786 40.5703457 78.9226714 41.3660789 75.0910811 38.8964406 72.3670753 36.3977062 67.7348771 32.1485793 61.3879723 23.6860344 62.6443073 16.8797606 63.5852914 11.7824395 69.478232 13.0994771 72.8483655 14.6896208 74.5046739 15.4712468 77.2258148 17.8613118 79.1668425 17.6721874 80.125897 17.5787273 80.1355933 16.0661731 79.1668425 16.1605148"/>
    </g>
  </g>
</svg>
