<svg xmlns="http://www.w3.org/2000/svg" width="412" height="205" viewBox="0 0 412 205">
  <g fill="#1A1919" fill-rule="evenodd" transform="translate(.39 .95)">
    <g transform="translate(0 13.444)">
      <path d="M319.910079,119.840534 C318.310079,121.305534 316.800079,122.428534 315.630079,123.837534 C313.820079,126.012534 313.830079,128.516534 314.980079,131.047534 C315.690079,132.609534 316.620079,133.267534 318.380079,133.036534 C319.450079,132.895534 320.500079,132.453534 321.500079,132.014534 C322.490079,131.581534 323.410079,130.982534 324.210079,130.539534 C325.870079,131.421534 327.200079,132.611534 328.670079,132.829534 C334.840079,133.743534 340.500079,132.882534 344.310079,127.143534 C344.660079,126.613534 344.960079,126.050534 345.290079,125.509534 C347.880079,121.325534 348.970079,116.850534 348.910079,111.862534 C348.850079,105.894534 347.640079,104.214534 356.470079,104.400534 C362.150079,104.519534 366.290079,102.113534 369.410079,97.6125337 C371.250079,94.9675337 372.860079,92.2245337 372.510079,88.7855337 C372.100079,84.6915337 372.320079,80.4435337 368.460079,77.5065337 C367.000079,76.3975337 367.230079,75.2975337 368.550079,73.8225337 C369.710079,72.5185337 370.940079,71.2605337 371.960079,69.8465337 C373.480079,67.7185337 373.470079,65.3575337 372.340079,63.0655337 C371.640079,61.6395337 370.710079,60.3265337 369.870079,58.9705337 C368.660079,57.0375337 366.920079,56.2895337 364.640079,56.2335337 C359.820079,56.1165337 355.970079,58.2985337 352.620079,61.3625337 C350.180079,63.5955337 348.140079,66.2675337 345.610079,69.0915337 C345.500079,69.1095337 344.870079,69.3255337 344.250079,69.2875337 C340.960079,69.0825337 338.410079,70.5075337 336.180079,72.7625337 C333.440079,75.5255337 331.350079,78.6805337 330.000079,82.3415337 C328.590079,86.1915337 327.940079,89.9955337 329.820079,93.9355337 C330.570079,95.5155337 330.150079,96.4175337 328.370079,97.3955337 C325.120079,99.1805337 323.120079,101.858534 321.770079,105.264534 C320.340079,108.903534 319.600079,112.586534 319.890079,116.490534 C319.990079,117.752534 319.910079,119.026534 319.910079,119.840534 Z M328.070079,76.4815337 C325.450079,75.6695337 323.290079,75.1125337 321.210079,74.3295337 C315.140079,72.0435337 308.800079,71.3055337 302.410079,71.0415337 C299.510079,70.9225337 296.680079,70.6495337 293.870079,69.9555337 C292.490079,69.6135337 291.030079,69.2375337 289.640079,69.3345337 C284.390079,69.6985337 279.090079,69.9155337 273.910079,70.8035337 C263.970079,72.5105337 254.420079,75.7355337 244.930079,79.1305337 C239.620079,81.0305337 234.660079,83.3925337 230.120079,86.7905337 C224.720079,90.8265337 219.690079,95.2425337 214.930079,99.9855337 C213.700079,101.211534 212.620079,102.652534 211.740079,104.154534 C208.270079,110.082534 204.690079,115.963534 201.560079,122.072534 C198.070079,128.895534 194.600079,135.786534 192.520079,143.211534 C190.980079,148.728534 189.210079,154.196534 189.360079,160.093534 C189.560079,167.602534 189.390079,175.120534 189.390079,182.635534 C189.390079,184.233534 189.440079,185.831534 189.500079,187.428534 C189.530079,188.189534 189.410079,189.072534 190.240079,189.234534 C193.730079,186.998534 197.060079,184.864534 200.410079,182.721534 C200.410079,181.278534 200.410079,179.852534 200.400079,178.427534 C200.370079,174.111534 199.900079,169.747534 200.380079,165.489534 C201.630079,154.327534 203.820079,143.364534 209.640079,133.488534 C210.130079,132.664534 210.570079,131.803534 210.930079,130.919534 C214.680079,121.842534 221.020079,114.702534 227.980079,108.007534 C232.750079,103.420534 238.300079,100.016534 244.040079,96.8035337 C250.780079,93.0325337 257.770079,89.9385337 265.200079,87.8745337 C267.800079,87.1505337 270.500079,86.4835337 273.180079,86.3555337 C280.840079,85.9895337 288.520079,85.6985337 296.190079,85.8055337 C300.800079,85.8705337 305.440079,86.4765337 309.990079,87.3125337 C314.050079,88.0605337 317.990079,89.4725337 322.000079,90.5535337 C322.840079,90.7795337 323.720079,90.8375337 325.050079,91.0475337 C323.940079,85.6645337 326.340079,81.3585337 328.070079,76.4815337 Z M159.890079,221.691534 C157.350079,223.882534 156.620079,224.533534 156.400079,226.350534 C155.950079,230.119534 155.240079,233.919534 157.020079,237.628534 C158.010079,239.681534 157.420079,240.836534 155.390079,241.780534 C150.860079,243.884534 149.690079,246.036534 150.490079,250.810534 C151.420079,256.328534 155.430079,259.042534 160.930079,257.763534 C162.790079,257.330534 164.690079,256.855534 166.400079,256.024534 C171.530079,253.520534 175.770079,249.953534 178.400079,244.770534 C180.450079,240.723534 180.710079,240.603534 183.890079,243.625534 C187.200079,246.769534 190.960079,248.634534 195.620079,247.404534 C197.450079,246.922534 199.350079,246.267534 200.870079,245.199534 C204.270079,242.815534 207.480079,240.144534 210.070079,236.850534 C211.990079,234.411534 213.340079,231.751534 213.140079,228.514534 C213.100079,227.726534 213.160079,226.913534 213.310079,226.137534 C213.620079,224.462534 214.470079,223.723534 216.260079,223.571534 C217.700079,223.450534 219.140079,223.454534 220.570079,223.371534 C226.220079,223.043534 231.100079,220.834534 235.240079,217.082534 C238.970079,213.696534 239.260079,208.533534 236.090079,204.593534 C234.380079,202.464534 232.440079,200.561534 229.740079,199.679534 C228.710079,199.342534 228.150079,198.662534 228.360079,197.263534 C229.040079,196.669534 229.890079,195.957534 230.710079,195.224534 C236.170079,190.354534 235.490079,182.954534 233.390079,178.449534 C232.570079,176.696534 231.180079,175.692534 229.210079,175.811534 C225.460079,176.038534 221.890079,176.899534 219.100079,179.593534 C216.820079,181.799534 214.380079,183.879534 213.000079,186.893534 C212.180079,188.655534 211.480079,188.765534 209.480079,188.186534 C209.180079,188.098534 208.880079,187.965534 208.580079,187.872534 C200.040079,185.283534 191.680079,189.574534 188.580079,198.003534 C186.810079,202.827534 186.820079,207.691534 187.730079,212.642534 C187.930079,213.677534 188.040079,214.725534 188.220079,215.973534 C187.410079,215.836534 186.840079,215.910534 186.540079,215.661534 C184.050079,213.658534 184.630079,210.414534 183.540079,207.633534 C182.230079,207.539534 180.970079,207.364534 179.720079,207.378534 C177.490079,207.403534 175.230079,207.342534 173.040079,207.677534 C168.550079,208.363534 168.400079,208.619534 166.160079,212.689534 C165.140079,214.543534 164.460079,216.461534 164.360079,218.587534 C164.310079,219.700534 164.300079,220.847534 164.010079,221.906534 C163.820079,222.568534 163.260079,223.376534 162.670079,223.613534 C161.860079,223.939534 161.270079,223.184534 160.830079,222.462534 C160.690079,222.221534 160.380079,222.080534 159.890079,221.691534 Z M334.690079,68.7645337 C334.280079,68.3795337 334.100079,68.1005337 333.840079,67.9735337 C326.070079,64.2025337 318.200079,60.6735337 309.960079,58.0395337 C303.400079,55.9405337 296.650079,54.4825337 289.830079,53.8115337 C282.020079,53.0425337 274.160079,53.5535337 266.460079,55.3025337 C258.050079,57.2135337 249.560079,58.8455337 241.540079,62.1945337 C239.330079,63.1185337 237.080079,63.9475337 234.820079,64.7555337 C222.550079,69.1515337 212.200079,76.5555337 202.830079,85.4175337 C194.460079,93.3385337 189.150079,103.444534 183.560079,113.303534 C180.570079,118.582534 178.130079,124.144534 176.360079,130.000534 C174.420079,136.416534 172.050079,142.703534 170.120079,149.123534 C168.470079,154.638534 167.170079,160.275534 167.189851,166.084534 C167.230079,176.796534 167.380079,187.507534 167.500079,198.218534 C167.520079,199.654534 167.600079,201.102534 167.830079,202.518534 C167.970079,203.394534 168.430079,204.220534 168.800079,205.228534 C173.890079,203.744534 178.830079,204.327534 183.570079,204.347534 C184.940079,200.518534 186.260079,196.923534 187.500079,193.302534 C187.750079,192.571534 187.790079,191.740534 187.790079,190.956534 C187.730079,182.324534 187.540079,173.691534 187.580079,165.060534 C187.620079,158.839534 187.540079,152.609534 189.290079,146.502534 C192.220079,136.334534 195.860079,126.470534 200.930079,117.164534 C201.700079,115.760534 202.540079,114.390534 203.200079,112.941534 C208.420079,101.630534 216.290079,92.5555337 226.400079,85.3635337 C231.220079,81.9315337 236.080079,78.5555337 241.760079,76.6235337 C247.350079,74.7195337 252.990079,72.9355337 258.550079,70.9405337 C264.600079,68.7675337 270.840079,67.3975337 277.190079,66.5585337 C282.910079,65.8035337 288.720079,65.4255337 294.400079,66.3905337 C299.310079,67.2245337 304.230079,67.5955337 309.150079,68.0265337 C313.640079,68.4185337 318.020079,69.0975337 322.240079,70.7055337 C325.080079,71.7845337 328.020079,72.3895337 331.090079,72.7015337 C332.340079,71.3375337 333.510079,70.0625337 334.690079,68.7645337 Z M373.280079,75.8195337 C375.030079,78.4135337 376.020079,81.2325337 376.520079,84.2595337 C378.210079,94.3365337 370.820079,103.930534 363.540079,106.649534 C361.780079,107.306534 359.820079,107.498534 357.930079,107.727534 C356.210079,107.936534 354.470079,107.904534 352.740079,107.978534 C351.710079,109.690534 352.040079,111.324534 352.130079,112.853534 C352.590079,120.419534 349.500079,126.508534 344.450079,131.826534 C341.560079,134.872534 338.140079,136.676534 333.810079,136.390534 C330.510079,136.172534 327.030079,137.251534 324.530079,135.124534 C322.040079,135.734534 320.080079,136.354534 318.060079,136.680534 C315.200079,137.141534 313.160079,135.948534 311.830079,133.315534 C309.300079,128.295534 309.810079,124.256534 313.760079,120.202534 C314.870079,119.071534 316.160079,118.124534 317.350079,117.106534 C319.250079,100.733534 318.190079,105.155534 324.760079,95.2505337 C322.900079,94.6815337 321.120079,94.1165337 319.330079,93.5925337 C306.150079,89.7325337 292.760079,88.0925337 279.060079,89.8865337 C278.590079,89.9495337 278.110079,90.0075337 277.630079,89.9965337 C268.270079,89.7965337 259.720079,92.8005337 251.390079,96.6585337 C245.150079,99.5515337 238.990079,102.596534 233.700079,107.101534 C225.860079,113.787534 218.780079,121.093534 214.490079,130.693534 C213.450079,133.023534 212.220079,135.280534 210.930079,137.484534 C208.640079,141.388534 207.120079,145.571534 206.060079,149.942534 C205.420079,152.582534 204.760079,155.216534 204.170079,157.868534 C202.440079,165.729534 202.940079,173.769534 202.340079,181.722534 C202.310079,182.007534 202.530079,182.310534 202.740079,182.930534 C205.190079,183.322534 207.810079,183.740534 210.540079,184.176534 C211.710079,182.860534 212.850079,181.547534 214.020079,180.254534 C216.070079,177.981534 218.390079,176.045534 221.120079,174.621534 C223.580079,173.337534 226.180079,172.764534 228.970079,172.831534 C232.990079,172.929534 235.740079,174.861534 236.910079,178.592534 C238.820079,184.660534 238.720079,190.575534 234.540079,195.864534 C234.160079,196.353534 233.740079,196.818534 233.130079,197.536534 C234.290079,198.492534 235.370079,199.372534 236.440079,200.275534 C238.830079,202.298534 240.390079,204.788534 241.120079,207.882534 C242.440079,213.547534 239.610079,217.532534 235.700079,220.822534 C231.190079,224.606534 225.910079,226.786534 219.890079,226.837534 C218.950079,226.846534 218.000079,226.923534 217.050079,226.969534 C216.780079,227.517534 216.420079,227.918534 216.410079,228.336534 C216.160079,233.551534 214.020079,237.995534 210.330079,241.494534 C207.450079,244.224534 204.200079,246.640534 200.870079,248.799534 C195.880079,252.020534 190.670079,252.210534 185.530079,248.904534 C184.340079,248.136534 183.090079,247.458534 181.710079,246.652534 C180.530079,248.099534 179.410079,249.421534 178.350079,250.790534 C173.730079,256.747534 167.540079,260.016534 160.320079,261.819534 C152.370079,263.803534 146.270079,257.354534 146.218997,250.863534 C146.180079,246.203534 147.240079,242.367534 151.000079,239.464534 C151.490079,239.081534 151.930079,238.622534 152.320079,238.265534 C152.320079,236.514534 152.320079,234.932534 152.320079,233.349534 C152.320079,231.591534 152.130079,229.808534 152.350079,228.078534 C152.990079,223.013534 155.020079,218.869534 159.880079,217.412534 C162.120079,213.264534 164.140079,209.499534 166.330079,205.424534 C166.140079,204.141534 165.720079,202.424534 165.670079,200.696534 C165.290079,189.350534 164.860079,178.004534 164.700079,166.655534 C164.580079,158.589534 166.530079,150.798534 168.840079,143.137534 C170.860079,136.408534 173.060079,129.723534 175.450079,123.113534 C176.800079,119.369534 178.410079,115.661534 180.380079,112.207534 C184.170079,105.545534 188.320079,99.0815337 192.290079,92.5215337 C194.720079,88.5145337 197.910079,85.1365337 201.280079,81.9575337 C207.700079,75.9035337 214.550079,70.3065337 222.510079,66.4405337 C232.260079,61.7005337 242.010079,56.8335337 252.730079,54.4705337 C258.350079,53.2345337 263.880079,51.5805337 269.540079,50.6035337 C279.380079,48.9025337 289.200079,49.1215337 299.070079,51.1105337 C310.430079,53.4015337 321.240079,57.0945337 331.600079,62.2255337 C333.460079,63.1465337 335.400079,63.9255337 337.310079,64.7385337 C341.510079,66.5255337 342.820079,66.3055337 345.460079,62.7055337 C348.270079,58.8725337 351.840079,56.0365337 355.960079,53.7875337 C359.330079,51.9465337 362.970079,51.5825337 366.670079,51.9965337 C368.030079,52.1485337 369.540079,52.7225337 370.590079,53.5795337 C374.170079,56.4845337 376.480079,60.2895337 377.340079,64.8305337 C377.840079,67.4165337 377.410079,69.9195337 375.760079,72.1205337 C374.910079,73.2545337 374.170079,74.4795337 373.280079,75.8195337 L373.280079,75.8195337 Z" transform="rotate(40 261.878 155.822)"/>
      <path d="M64.6700788 37.0625337C65.6900788 34.9075337 66.6200788 33.0715337 67.4300788 31.1865337 68.3300788 29.0975337 69.4900788 27.1955337 71.2700788 25.7615337 72.1300788 25.0695337 73.0700788 24.3465337 74.0900788 24.0215337 77.2700788 23.0175337 80.8000788 23.5395337 81.1000788 28.5575337 81.3000788 31.9365337 80.9200788 35.1265337 79.1100788 38.2205337 76.6000788 42.4815337 74.5900788 47.0335337 72.3200788 51.4325337 70.6900788 54.5795337 68.8900788 55.5295337 65.7000788 54.2245337 60.9700788 52.2855337 56.3700788 49.9435337 52.8800788 46.0275337 50.5700788 43.4295337 49.2500788 40.4495337 49.8200788 36.8125337 50.0100788 35.5405337 50.6100788 34.7085337 51.6900788 34.2685337 54.6200788 33.0765337 57.5700788 32.7525337 60.4400788 34.4325337 61.6800788 35.1555337 62.8800788 35.9465337 64.6700788 37.0625337M6.14007883 35.5085337C6.91007883 33.6035337 7.58007883 31.8255337 8.33007883 30.0785337 9.11007883 28.2755337 10.8200788 28.2625337 12.4000788 28.1395337 13.9500788 28.0205337 14.6600788 29.0995337 15.2300788 30.3095337 17.0100788 34.1315337 16.6000788 38.1065337 15.8800788 42.0445337 15.5600788 43.7935337 11.9900788 46.0775337 9.76007883 45.9205337 5.94007883 45.6515337 2.66007883 44.1825337.540078835 40.7565337-.489921165 39.0985337-.159921165 36.3145337 2.52007883 35.9875337 3.77007883 35.8345337 5.01007883 35.6585337 6.14007883 35.5085337M111.090079 64.5275337C111.790079 64.3635337 112.250079 64.2445337 112.710079 64.1545337 117.870079 63.1365337 118.630079 63.7005337 119.420079 69.3475337 117.470079 71.8835337 114.510079 73.2245337 111.660079 74.5325337 108.760079 75.8575337 105.360079 74.6125337 103.730079 71.9075337 102.320079 69.5605337 101.480079 66.9675337 101.350079 64.2075337 101.250079 62.0765337 102.050079 60.9075337 103.950079 60.0925337 105.880079 59.2585337 107.120079 59.4875337 108.640079 61.1775337 109.490079 62.1145337 110.140079 63.2185337 111.090079 64.5275337"/>
    </g>
    <path d="M58.4700788,22.0794182 C56.6100788,20.0974182 54.8400788,18.2754182 53.1400788,16.3894182 C50.1000788,13.0024182 49.7100788,9.01841818 50.6600788,4.76641818 C50.9300788,3.57741818 51.6900788,2.88841818 52.8500788,2.48641818 C55.9300788,1.42141818 58.4800788,2.07541818 60.5400788,5.02641818 C61.8100788,3.75541818 62.8900788,2.65341818 64.0000788,1.56841818 C65.2000788,0.386418177 66.6000788,-0.163581823 68.3200788,0.042418177 C70.5500788,0.307418177 71.3800788,0.962418177 71.8800788,3.19541818 C72.6900788,6.74941818 72.3200788,10.0954182 70.3800788,13.2864182 C68.5300788,16.3364182 66.0100788,18.7324182 63.3700788,21.0414182 C62.3800788,21.9094182 62.3200788,21.8354182 58.4700788,22.0794182"/>
  </g>
</svg>
