<svg xmlns="http://www.w3.org/2000/svg" width="214" height="340" viewBox="0 0 214 340">
  <g fill="none" fill-rule="evenodd">
    <path fill="#282826" d="M73.1222003 120.239029C71.7848175 121.074893 69.7975595 120.924366 69.4711744 119.240334 69.3112385 118.406641 69.5211091 117.539658 69.7722302 116.683531 70.1058522 116.280434 70.3996712 115.85418 70.6667135 115.413451 71.5973813 114.634759 72.6626559 114.484955 73.8256288 115.225291 74.5739263 115.700033 74.6455718 116.89702 74.6455718 117.67137 74.6455718 118.754737 74.0101703 119.687576 73.1222003 120.239029zM65.6421203 115.850561C61.9867523 118.510853 57.7263778 115.88168 56.6437346 111.983152 55.8505683 109.135424 55.9142532 104.184647 59.1339586 102.863186 59.45962 102.73075 59.7035042 102.493379 59.8569269 102.214034 60.641409 101.835543 61.4693125 101.561988 62.4860997 101.545343 64.4132914 101.515671 66.0893619 102.710487 67.3283225 104.063791 70.5031591 107.534617 69.2222244 113.252507 65.6421203 115.850561zM89.9408011 111.537357C89.1223055 111.40854 88.5006541 111.934664 87.7552514 112.206049 87.2414301 112.392761 86.7167535 112.387695 86.1928005 112.347892 86.3910921 110.998931 86.4685271 109.6326 86.4128028 108.268441 88.0222937 107.989819 89.7707335 106.49033 89.8807346 105.002419 89.8981033 104.756364 89.6100739 104.530572 89.3763214 104.618862 88.6938799 104.867812 88.2582173 105.472095 87.7769622 105.990982 87.3355101 106.468619 86.8578734 106.767504 86.3245124 106.98244 86.0350356 104.024711 85.1543025 101.13718 83.6909974 98.6107718 78.1272538 89.0073797 62.198794 87.3349276 55.0002302 95.7500175 54.8981897 95.8715978 54.8439128 95.9960728 54.7852937 96.1191004 46.3781644 103.279309 45.3555877 114.5566 52.8827076 122.840702 58.4348722 128.953728 67.4057576 130.091371 74.6839275 127.11555 75.081958 126.997588 75.4676858 126.877456 75.8324266 126.756599 79.0658822 125.639219 81.0118898 123.883542 82.1169674 121.770361 82.9615159 120.741272 83.6931685 119.633299 84.2865959 118.455852 85.9937852 119.522574 88.4615747 120.294754 89.8206682 118.527498 90.0356047 118.245982 89.8206682 117.722029 89.4725724 117.67137 88.6504583 117.550514 87.8211074 117.722029 86.9932038 117.594659 86.2890515 117.489 85.6290445 117.175641 85.0218669 116.800769 85.385884 115.870825 85.6702949 114.914828 85.8939157 113.943633 86.5401726 114.120214 87.2414301 114.109359 87.9397928 113.981989 88.9203954 113.800342 90.2838311 113.155533 90.3143764 112.022955 90.3200157 111.819597 90.1579087 111.570647 89.9408011 111.537357L89.9408011 111.537357zM123.052602 232.663849C125.843882 233.163197 128.505621 232.975037 130.855449 235.464537 133.007709 237.751404 133.268238 241.116571 133.274027 244.12713 128.027984 243.461333 123.860243 238.60536 123.052602 232.663849zM152.248507 196.646425C153.269636 206.757125 154.136619 215.766366 151.733238 225.846671 150.164274 232.425031 146.905489 237.852721 141.359838 241.818553 139.520936 243.135672 137.67914 243.837653 135.9032 244.090945 137.233346 236.441521 130.580446 228.111827 122.878916 230.536195 122.439635 221.90255 123.831295 213.192918 124.093271 204.590391 124.300247 197.767424 124.256826 189.301675 118.745188 184.436294 118.115576 183.883394 117.019906 184.605638 117.530109 185.372752 124.122219 195.291674 120.503759 210.518876 119.880661 221.62031 119.290128 232.128317 119.315457 242.824484 130.764987 246.833738 141.260692 250.51733 150.490659 238.504043 153.570692 230.203297 157.087111 220.730169 159.056277 205.373426 153.99767 196.170959 153.569244 195.39299 152.150808 195.696217 152.248507 196.646425L152.248507 196.646425z"/>
    <path fill="#1A202C" d="M28.5174472 136.585783C28.3922485 137.174868 28.1461932 137.694479 27.8169134 138.192379 27.8169134 138.192379 27.7995448 138.211919 27.7952026 138.215537 27.7127017 138.087444 27.6302008 137.960074 27.5665159 137.819678 27.2314466 137.183553 27.3819745 136.340451 27.7170439 135.749919 27.8950721 135.43656 28.1990227 135.259979 28.5297499 135.115965 28.616593 135.537877 28.6404748 136.010448 28.5174472 136.585783zM29.4321938 131.441781C26.9166406 129.499391 23.4045636 130.447428 21.4954642 132.753834 21.0373672 133.307458 21.5967811 134.06444 22.2575118 133.745292 23.4414719 133.165615 25.0393837 132.922454 26.3427529 133.187326 24.9880015 134.44076 24.4148375 136.76743 24.8208287 138.520935 25.1124766 139.776541 26.2530151 141.200767 27.6287535 141.247806 28.905346 141.289781 29.809961 140.419179 30.4612837 139.418313 32.0895906 136.914339 31.8500486 133.30963 29.4321938 131.441781L29.4321938 131.441781zM130.820712 73.3264226C130.898147 73.0825384 130.733145 72.7626666 130.474063 72.7149029 129.417473 72.5144402 128.108314 73.003656 127.044487 73.1418811 125.896712 73.2916854 124.897293 73.2374085 123.819716 73.0051034 123.202407 69.9055308 122.834047 66.8558929 126.674681 66.411546 130.730974 65.9396989 134.232196 66.8406954 137.923748 64.5668553 141.077598 62.6237424 142.168925 58.5710675 142.275308 55.1176095 142.291953 54.5791827 141.582735 54.5704984 141.406878 54.9996478 139.593305 59.4163397 137.348413 62.9327589 132.227569 63.5312521 128.983982 63.9111904 126.043621 63.0796683 122.945496 64.4575778 116.355557 67.3892539 125.23381 76.3796789 120.159282 78.7490463 119.860397 78.8879952 119.850989 79.4119482 120.159282 79.5494496 121.686272 80.2246542 124.027415 80.0198494 124.384919 77.9102874 124.503605 77.2119246 124.439196 76.3832974 124.2988 75.4989458 126.674681 76.1546107 130.19906 75.2695355 130.820712 73.3264226M72.2269933 266.083943C72.2212038 266.438553 72.6250239 266.65566 72.9260797 266.481974 73.764115 265.9971 74.2634625 265.135907 74.7164936 264.274714 75.1405771 265.020116 75.4756465 265.852362 76.1030874 266.351709 76.30355 266.518159 76.6957911 266.503685 76.7493443 266.18526 76.9201356 265.172092 76.2601285 263.992474 75.3793954 263.008253 75.8461767 262.096401 76.2557864 261.061521 76.3274319 260.0773 76.3614454 259.592427 75.7368993 259.534531 75.5038704 259.845719 75.0363654 260.489805 74.6296506 261.199023 74.2287252 261.915478 73.8408264 261.611527 73.4529275 261.350998 73.1091738 261.191786 72.8218681 261.054284 72.4383114 261.350998 72.6402214 261.662186 72.9362114 262.110875 73.29661 262.516142 73.6613508 262.914173 73.6251662 262.972068 73.5904289 263.0372 73.5542443 263.102333 72.9752908 264.064843 72.2450856 264.918799 72.2269933 266.083943"/>
    <path fill="#1A202C" d="M86.6892532,226.751286 C79.9690498,220.057136 70.7528328,223.99402 66.4902873,231.071727 C66.2673901,231.44081 66.8108828,231.889499 67.0960174,231.542127 C74.1346453,223.082168 83.3023749,224.58021 88.3609816,233.713203 C91.5473972,239.459317 92.4418804,246.623867 92.8949116,253.057488 C93.7213678,264.817483 91.0552867,292.23817 72.1611373,281.317659 C71.3969187,280.876207 70.606647,281.903849 71.2239563,282.533461 C78.2191626,289.611169 87.7154483,286.571662 92.2320098,278.234731 C96.4236335,270.498464 96.2969874,259.845719 95.7093496,251.371286 C95.1144748,242.766589 93.0027417,233.040169 86.6892532,226.751286"/>
    <path fill="#1A202C" d="M197.344646,328.11158 C190.358848,328.495137 185.043331,322.75626 181.958956,317.205543 C174.996315,304.685672 183.314431,293.077653 187.523423,281.33937 C192.573345,267.256324 188.069087,251.465366 171.745491,251.248259 C171.87069,250.155484 171.99806,249.062709 172.093587,247.962697 C185.140305,246.602156 199.082231,252.659458 200.588957,267.22014 C201.790286,278.835396 192.317159,289.46643 189.254494,300.242203 C187.120327,307.754126 190.134504,314.983808 197.239711,318.204237 C201.784497,320.273996 207.335214,319.687806 210.837883,316.380534 C209.621357,323.125343 204.746568,327.706313 197.344646,328.11158 Z M170.702651,258.919393 C170.651993,258.919393 170.617979,258.941104 170.568768,258.948341 C170.889364,257.276612 171.170156,255.604884 171.405356,253.911445 C179.187939,254.613426 185.324123,257.96412 186.431372,266.605002 C186.6369,268.218835 186.618808,269.847142 186.470451,271.482685 C184.253059,264.687218 177.706542,258.919393 170.702651,258.919393 Z M150.474014,289.712485 C138.738625,299.692197 143.971642,314.46275 138.382569,327.445784 C136.720248,331.303062 134.585357,334.834678 130.213534,335.25442 C127.404886,335.529423 124.549197,335.46429 121.732588,335.428106 C120.439351,335.413632 118.576568,335.507712 116.603783,335.500873 C118.07722,331.505695 116.427926,327.192491 113.816846,324.008247 C112.450515,322.343755 110.506679,321.099005 108.391327,320.686501 C107.278289,320.462156 105.852616,320.621369 104.801091,321.236507 C101.207237,311.12653 93.2046518,303.911321 83.9479081,297.115854 C77.494747,292.390146 71.0162567,287.84536 66.3412067,281.24529 C61.8781985,274.941933 59.7831103,267.162244 58.7851391,259.599664 C56.7559069,244.250157 60.338182,229.038153 67.0750304,215.286558 C72.8906188,203.41801 80.4987923,192.556118 85.1680527,180.123814 C88.7467094,170.594239 92.4165512,158.79227 87.9926224,149.049929 C92.5641844,149.754082 97.1053513,151.21015 101.684874,152.326083 C109.186665,154.146892 115.216466,152.930366 121.713772,148.956573 C139.827058,137.870336 137.830392,116.403462 127.166791,100.688491 C127.006855,100.451844 126.66093,100.655202 126.786129,100.912112 C131.579865,110.78906 135.352471,121.792796 131.62401,132.639491 C129.180826,139.749764 123.176354,145.147059 116.577731,148.354461 C107.415067,152.809509 97.707463,147.761034 88.4601274,145.916343 C77.3948775,143.711254 67.5302326,149.741779 57.9840121,154.416105 C45.7340786,160.416959 32.1460386,161.367166 22.1257999,150.760737 C13.7997241,141.943274 15.2109234,128.923333 21.7552696,119.811327 C30.5843114,107.517249 48.0868011,99.4625572 49.621028,82.9088276 C55.097205,80.2507071 60.4025906,77.1887665 65.6290938,74.1868923 C69.1585395,72.1612786 72.6250239,70.2869164 76.1001926,68.6137406 C75.1297217,71.2096236 74.1831326,73.6810316 72.1763349,75.9946748 C68.3740574,80.3744585 63.5007158,80.7449887 58.6555983,83.0209999 C58.1425007,83.0275131 57.9731567,83.7577183 58.3994113,84.0841034 C65.6204095,89.6109388 74.5753737,87.040385 82.0453219,83.3625825 C91.6110821,78.653519 97.1827864,68.462489 108.033823,66.5461527 C108.947846,69.3851963 110.573982,71.8884467 112.920915,73.4552398 C113.200984,73.6412286 113.524474,73.3358306 113.456447,73.043459 C111.615375,65.2348229 107.634345,58.6940951 114.269877,51.6294144 C118.092418,47.5600945 123.667017,44.2369011 128.544701,41.5447671 C133.358699,38.888094 139.755412,34.4192962 140.847464,28.6015366 C146.595025,37.5854485 151.952517,45.7479699 151.997385,57.2843432 C152.045149,70.3954702 143.188607,81.4180222 130.004387,83.1990281 C129.508658,83.2663315 129.55208,84.0551557 130.004387,84.1579199 C134.138116,85.0987195 137.923748,84.3540405 141.239705,82.5715872 C141.173125,83.2106072 141.17602,83.8764038 141.087006,84.4727259 C140.819963,86.2356395 140.138969,87.928355 139.268368,89.4719899 C137.273873,93.0072251 134.596936,93.4949934 131.08703,94.7520463 C130.568867,94.9387589 130.423405,95.6371216 130.932884,95.943967 C130.932884,95.943967 130.934331,95.943967 130.935055,95.9446907 C130.953871,95.9960728 130.945187,96.0554155 131.005253,96.0908764 C131.007424,96.0908764 131.008148,96.0923238 131.009595,96.0923238 C133.166921,100.856388 137.319465,103.26194 141.896817,103.703392 C142.457678,112.882701 143.844996,121.69944 145.630344,130.712299 C147.467798,139.98424 148.344912,149.779411 152.131992,158.539702 C155.094787,165.39017 157.415667,172.465706 159.516545,179.620848 C166.732477,204.191637 171.767202,231.15857 167.615381,256.704896 C165.567333,269.318846 160.346619,281.317659 150.474014,289.712485 Z M106.768086,331.085954 C106.61394,328.357635 106.170317,325.817477 105.500178,323.429293 C106.209396,323.385872 106.926575,323.299029 107.64303,323.400346 C109.132388,323.602979 110.39523,324.594437 111.419978,325.629317 C113.538224,327.749734 115.228769,331.701092 113.968821,334.646518 C113.855201,334.907048 113.843622,335.16034 113.871123,335.406395 C110.242531,335.124155 106.938878,334.139934 106.768086,331.085954 Z M98.0063478,327.387888 C98.1829286,327.127359 98.337075,326.852356 98.4391156,326.591827 C99.2387952,324.507594 98.5353666,322.235202 97.5931197,320.339129 C96.4200151,317.972656 94.1222931,316.1779 91.5249627,315.721974 C91.160222,315.664079 89.6506006,315.779869 88.5332202,316.156189 C88.4840092,314.129852 88.4825618,312.16141 88.2603884,310.605472 C88.0975577,309.469276 87.7016982,306.755431 86.9172161,304.186324 C94.5398634,310.388364 100.968419,317.220016 102.801531,327.800393 C101.312896,327.532627 99.6599839,327.460257 98.0063478,327.387888 Z M90.338108,324.934573 C89.1736876,323.349687 88.7879598,320.94703 88.632366,318.414108 C89.1179633,318.558846 89.6527717,318.609505 90.1325794,318.718059 C92.0076653,319.116089 93.4564965,319.998993 94.4711127,321.656248 C95.0775665,322.647706 95.4466494,323.841798 95.4886235,324.999705 C95.5211897,325.92603 94.8865118,326.410904 94.4009145,327.033279 C92.7262914,326.736565 91.2557493,326.179323 90.338108,324.934573 Z M49.0297717,228.770387 C49.2910245,227.091421 49.5283954,225.499299 49.7838587,224.095337 C51.5807858,224.399287 53.4515295,224.399287 54.7143719,222.95914 C54.9951644,222.640716 54.9314795,222.018341 54.4422637,221.931498 C53.1316576,221.678206 51.8615783,221.576889 50.5118928,221.388729 C48.9110862,221.171621 47.091001,220.701222 45.8107899,219.658381 C44.1491932,218.315209 45.8969092,216.74335 47.206068,215.918341 C48.3972649,215.167873 49.8482673,214.770566 51.1994001,214.415957 C52.3840839,214.104046 53.410279,213.619172 54.5291068,213.14443 C54.9199004,212.977981 54.8098993,212.310737 54.4104213,212.236197 C53.4848193,212.066129 52.5346118,211.981457 51.5880227,211.981457 C51.7124977,210.984933 51.8405912,209.976107 51.9578293,208.962214 C58.1671062,206.340279 64.4082255,203.762488 70.2513143,200.382123 C70.844018,200.038369 71.4967881,199.627312 72.1582426,199.184413 C71.5988287,200.142581 71.0604019,201.065288 70.5552649,201.942403 C65.0863249,211.432175 60.5321315,220.780828 57.7495359,230.789487 C54.8960186,229.957242 51.9216447,229.457894 49.0297717,228.770387 Z M42.5563472,242.831721 C41.1610692,240.675119 39.982175,238.32312 38.8843343,235.942174 C39.4669063,235.43559 40.0190833,234.878347 40.5321809,234.255972 C41.452717,235.283614 42.4268064,236.383626 43.4819492,237.17245 C42.7416124,239.300105 41.8840374,241.789605 42.5563472,242.831721 Z M36.4852955,230.536195 C36.5178616,230.485537 36.556941,230.442115 36.5866124,230.391457 C37.3848446,231.151333 38.1439974,231.918447 38.8647946,232.540822 C39.0558493,232.707271 39.2483513,232.902668 39.4415771,233.090828 C39.0305201,233.611886 38.6455159,234.140181 38.3155124,234.68295 C37.6924137,233.293461 37.0837887,231.903973 36.4852955,230.536195 Z M32.9898634,180.049998 C35.2752826,177.396943 35.2354795,174.806126 33.6621732,172.790644 C35.9475924,172.679919 38.1620897,173.01933 40.2434278,173.757496 C41.4165324,176.131929 41.3166629,179.283608 40.0111227,181.353367 C38.7707147,183.318914 36.4107552,184.448597 34.3829704,185.400976 C31.0735271,186.955466 27.9138881,188.295744 25.6147188,191.068207 C24.5921421,191.721701 23.6875271,192.526447 23.0072567,193.452049 C23.0861391,190.641953 23.9798987,188.041004 26.5453866,185.871376 C28.771463,183.988329 31.0764219,182.268837 32.9898634,180.049998 Z M47.159028,178.259584 C47.6533096,180.280132 47.4434389,182.599564 46.6936941,184.122936 C45.5951297,186.352631 42.9333907,187.533696 40.726854,188.263177 C37.2770145,189.405887 33.3430251,188.763249 29.7585789,189.424703 C31.3731356,188.451337 33.0564431,187.618368 34.9966612,186.857044 C37.2017505,185.996574 39.2382197,184.683797 40.8375789,182.938976 C42.655493,180.956784 43.1114189,177.291284 42.0584472,174.515925 C43.9414936,175.436461 45.6566435,176.697133 47.159028,178.259584 Z M49.8772149,181.72245 C50.6530127,183.009174 51.1769657,184.719982 51.4505212,186.537172 C47.6214672,193.556984 40.4547458,195.274305 32.243737,195.502268 C28.7635024,195.594901 25.7486018,194.945749 23.1700874,196.36708 C23.1541662,196.256355 23.1317317,196.143459 23.1179816,196.035629 C24.8345789,190.453069 33.5456588,190.718664 38.5724231,190.359713 C41.5685077,190.1455 44.335182,188.720551 46.5460609,186.766582 C47.9174572,185.557293 48.8365459,182.901344 48.9052967,180.357567 C49.2324054,180.808427 49.583396,181.237576 49.8772149,181.72245 Z M46.0459898,225.781539 C45.1992702,226.686154 44.3605112,227.598006 43.5297129,228.517095 C42.453583,227.228923 41.3477817,225.969699 40.1833613,224.790081 C41.1060686,223.52362 42.2393702,222.242685 43.0976688,220.860434 C43.8980721,221.974919 45.1659804,222.727559 46.5156659,223.226906 C46.3665853,224.080863 46.2030309,224.927582 46.0459898,225.781539 Z M44.3264977,229.465131 C44.7802526,228.893414 45.2448628,228.321698 45.6877623,227.735507 C45.5147999,228.640122 45.3317058,229.5375 45.1500592,230.434878 C44.8757799,230.116454 44.5978822,229.790792 44.3264977,229.465131 Z M37.4065553,228.936836 C38.0072197,227.909193 38.6773584,226.932209 39.3569051,225.955225 C40.5126412,227.069711 41.5598234,228.299987 42.6772038,229.436183 C42.4543067,229.689476 42.2198305,229.921057 41.9991044,230.174349 C41.4946911,230.746066 40.9323825,231.368441 40.3671791,232.00529 C39.6854613,231.411862 38.9885459,230.832909 38.3075518,230.246718 C37.9862326,229.971715 37.6149786,229.63158 37.2198428,229.291445 C37.2799092,229.175654 37.3406994,229.04539 37.4065553,228.936836 Z M42.4145036,219.60121 C41.1205424,220.737406 40.069018,222.336765 39.1101262,223.71178 C37.712677,222.423608 36.1024625,221.395966 34.7180398,220.086083 C34.428563,219.81108 34.1528363,219.544038 33.876386,219.272654 C35.2137687,217.812243 36.5156906,216.270779 37.7828751,214.680828 C39.2317064,215.776498 40.7369857,216.807759 42.3421344,217.712374 C42.2198305,218.325341 42.2220015,218.960019 42.4145036,219.60121 Z M31.3825436,209.311034 C32.9196653,210.669404 34.4633002,212.019813 36.051804,213.311603 C34.858436,214.908068 33.7439504,216.534203 32.7380186,218.202313 C32.2466318,217.750729 31.7371526,217.324475 31.1907652,216.926444 C30.6009563,215.324914 29.9988446,213.72845 29.3837064,212.141393 C30.1414119,211.285989 30.7862214,210.258347 31.3825436,209.311034 Z M30.2629921,208.330431 C29.7202232,208.962214 29.1593619,209.636695 28.6744883,210.332163 C27.9573096,208.551157 27.1909198,206.798376 26.3861744,205.070199 C27.7105306,206.119553 28.9943602,207.217393 30.2629921,208.330431 Z M35.2550192,202.55537 C33.8908599,203.971635 32.5990697,205.449414 31.3731356,207.005351 C31.318135,207.07555 31.252279,207.151537 31.1951074,207.22463 C29.429299,205.6506 27.6577011,204.14315 25.4931385,203.159652 C25.163135,202.499645 24.7962232,201.864968 24.44668,201.217987 C27.711978,202.32017 31.4303072,202.73774 35.2550192,202.55537 Z M49.7657664,195.946615 C46.3600721,197.011889 43.0332602,198.174862 39.4871697,198.894212 C34.228824,199.963105 28.971202,199.623694 23.6788428,199.177899 C23.5869339,198.758882 23.4943014,198.342035 23.4154189,197.92736 C29.2042308,194.69318 38.1005759,198.473747 44.2548522,195.353187 C47.5708087,193.672051 50.0183349,191.428606 51.6314442,188.517193 C51.7334848,191.297618 51.1639392,194.063568 49.7657664,195.946615 Z M41.5967317,206.418437 C40.0646759,208.243588 38.5413043,210.083937 37.0801703,211.962641 C35.946145,211.131119 34.8229751,210.332163 33.8539516,209.541168 C33.2836823,209.073663 32.7344001,208.590961 32.1887364,208.10464 C33.4863161,206.252712 34.8454095,204.423942 36.2710827,202.6632 C37.9572849,203.850778 39.6413161,205.041975 41.3318605,206.227383 C41.4187035,206.286725 41.509165,206.357647 41.5967317,206.418437 Z M41.8341027,205.36836 C40.3917846,204.363876 38.9595983,203.352155 37.4962931,202.390368 C40.5828393,202.066154 43.6462273,201.41266 46.4852708,200.449426 C45.1319669,202.181945 43.70557,203.90795 42.2487781,205.641916 C42.1120004,205.546388 41.9687094,205.461717 41.8341027,205.36836 Z M48.4913449,209.810381 C46.9773813,208.640172 45.3136135,207.6147 43.6787934,206.581268 C45.1891385,204.332033 46.6213249,202.08497 47.9666682,199.881328 C48.5745694,199.648299 49.2049051,199.434086 49.7838587,199.175728 C49.3778675,202.720371 48.944376,206.267909 48.4913449,209.810381 Z M35.3700862,227.873009 C34.3894836,225.506536 33.4660527,223.089405 32.5657799,220.650563 C32.6931497,220.520299 32.8226906,220.397271 32.948613,220.259769 C34.5841567,221.859129 36.2739774,223.386119 38.1049181,224.840739 C38.1418264,224.869687 38.1736688,224.905872 38.2105771,224.934819 C37.4847141,225.853908 36.5135195,227.019052 35.8289069,228.184196 C35.6769316,228.075642 35.5242326,227.974326 35.3700862,227.873009 Z M44.0529422,235.450063 C43.3306976,234.769793 42.5657552,234.125707 41.9339722,233.467147 C41.7928522,233.322409 41.63364,233.192145 41.4896253,233.054643 C41.9933149,232.396083 42.4875965,231.751998 42.9811544,231.15857 C43.2026041,230.890804 43.4052379,230.615801 43.6223455,230.348035 C44.0428105,230.731592 44.4791967,231.093438 44.9423596,231.433573 C44.7115018,232.540822 44.4929469,233.655307 44.2418258,234.769793 C44.1955095,234.96519 44.1253114,235.211245 44.0529422,235.450063 Z M44.5522896,214.312469 C43.6418851,215.077411 42.8972061,216.020382 42.5194389,217.05309 C41.6061397,215.671563 40.2940862,214.440563 38.8561103,213.306537 C40.3172443,211.406846 41.7241015,209.456496 43.0716159,207.482264 C44.7527523,208.711817 46.5091526,209.912422 48.3791726,210.733089 C48.3060797,211.299016 48.2489081,211.864943 48.1729204,212.431594 C46.8717223,212.802848 45.6378275,213.402065 44.5522896,214.312469 Z M45.5017734,168.127896 C42.2791732,168.208226 42.3718058,164.688189 42.1894354,162.165398 C43.1837881,162.110398 44.1781409,162.011252 45.1710462,161.873027 C44.6825542,163.20462 44.6000533,164.675886 45.2086782,165.598593 C45.3997329,165.889517 45.8448034,165.92136 46.0293449,165.598593 C46.4932314,164.776479 46.5561926,163.783574 46.776195,162.877511 C46.9028411,162.362966 47.1286329,161.92658 47.377583,161.503944 C48.6795048,161.243415 49.9727423,160.929333 51.2457164,160.550118 C50.6942632,161.506115 50.2390609,162.568495 49.8222144,163.577321 C48.9726,165.627541 48.0759457,168.066383 45.5017734,168.127896 Z M72.1539004,82.4109276 C78.2625841,80.4410381 82.1611127,76.7610646 85.3598311,71.3601516 C90.4980439,62.6874273 97.8123984,62.1605796 107.112564,61.1025419 C107.143682,61.1003709 107.143682,61.0612915 107.168288,61.0504361 C107.169735,62.1236713 107.260197,63.1969064 107.445462,64.2469834 C100.335912,64.6963961 95.2917793,68.9422968 90.2512649,73.8641257 C83.3950074,80.5618947 73.754707,85.2239182 64.2273025,84.2064073 C67.7581955,83.3119241 71.1812585,80.9273591 73.5303625,78.6716113 C76.2044043,76.104676 79.4096359,71.3753491 79.0825271,67.259713 C83.1800709,65.4323908 87.3166941,63.8779005 91.6110821,62.7518359 C90.1904748,63.5601998 88.8494736,64.5234338 87.6474213,65.6683144 C85.9785877,67.2553709 84.71864,69.3077612 83.5998122,71.2964667 C80.8700462,76.1495449 77.104677,79.7499123 72.0692285,82.2082938 C71.9556088,82.2640181 72.0366623,82.4485596 72.1539004,82.4109276 Z M26.6083478,87.1330175 C13.8424219,88.7931669 2.5289457,81.6546695 1.38478873,68.6687412 C14.4105201,78.4067401 28.9668599,64.8382398 38.8372943,55.4186654 C40.0075042,60.0893732 43.2858287,64.7289623 46.5229028,67.3711616 C46.1321091,67.6830728 45.7615789,68.0239317 45.3621009,68.3228165 C35.7782485,75.5025643 24.2172696,79.4293168 12.3378663,76.7538276 C11.7690445,76.6264579 11.5852267,77.3964661 12.1026664,77.6070605 C28.0817846,84.1007483 45.6921044,72.4008206 56.6806429,61.6026131 C65.2122473,53.2186419 72.7299592,46.1944878 85.1166706,44.7463803 C94.0759769,43.6984743 103.719172,45.2594779 111.338201,50.2312415 C111.173199,50.4013091 110.988658,50.5554555 110.826551,50.7262468 C108.908767,52.764887 107.774018,55.5474826 107.358619,58.5023168 C105.932946,58.1462603 104.500759,57.9009288 103.066402,57.7677694 C100.754206,57.0245378 98.4297076,56.3225566 95.9264572,55.969395 C91.8137158,55.3933362 87.6112367,55.598141 83.497048,55.9990663 C75.3330791,56.7944038 67.1481232,59.6421316 61.0198998,65.1935725 C60.7007517,65.4816019 61.1118087,66.0026601 61.4736547,65.7826577 C68.9428793,61.2436619 76.865135,58.6550158 85.5516094,57.8090199 C88.8516447,57.4877007 92.1864172,57.5940834 95.4857288,57.9501398 C81.1341938,59.9193056 66.8666071,70.1624414 55.0812837,76.5808653 C46.195794,81.420917 36.7320744,85.8151745 26.6083478,87.1330175 Z M36.4592426,32.3632874 C45.4967076,35.4512809 63.4167676,29.2130563 65.8896229,41.6591104 C64.5869774,41.7365455 63.2662396,41.9254291 61.9397123,42.2062215 C58.1743431,43.0008353 54.5587781,44.9519088 50.8324883,45.9940252 C41.7805495,48.5276707 33.3046694,41.827007 36.4592426,32.3632874 Z M30.155162,17.8930669 C34.4806688,19.4497283 38.9711773,20.4947395 43.3574742,21.8588988 C48.256145,23.3822703 51.7523008,25.3181463 51.5055218,30.5337941 C40.9779751,30.1350399 26.6163084,31.9269011 30.155162,17.8930669 Z M23.673777,3.55093993 C24.3605606,5.44267068 26.6597299,6.86472535 28.607185,7.67526033 C30.8216823,8.59579649 33.2894719,8.88020742 35.5705489,9.6096889 C39.4003266,10.8305572 41.4462038,14.9230352 42.465162,18.7528129 C33.3828281,16.0187048 20.267359,14.6494796 23.673777,3.55093993 Z M48.6476623,65.6140375 C43.2206964,60.6350369 41.7602861,55.0770828 41.6307452,48.1774038 C52.2494771,51.5679005 62.5917587,41.1156178 72.65759,45.2319776 C71.6979745,45.656061 70.7673067,46.0982368 69.8981526,46.5744261 C61.491747,51.1843438 55.7535936,59.2759435 48.6476623,65.6140375 Z M92.868135,30.0843814 C104.16569,30.6734667 112.007616,35.206673 118.075049,44.4844038 C117.457016,44.9330928 116.845497,45.3825055 116.243385,45.8550763 C105.123858,34.290479 86.9519533,28.0594914 71.9635694,35.9962209 C71.6444213,36.1648412 71.8644237,36.7018206 72.2103484,36.5816877 C88.078018,31.0259047 103.056994,35.8847724 115.160018,46.7466648 C114.178692,47.5557524 113.240063,48.3966824 112.332554,49.2687312 C103.813976,39.956987 87.4151162,39.8882362 75.4741991,44.1218341 C73.0541732,42.4276713 70.3772367,41.6924003 67.5758252,41.6236495 C68.0440539,39.0038847 66.9288446,36.905178 65.1203384,35.2566078 C73.9486565,31.1170898 83.1438863,29.575626 92.868135,30.0843814 Z M66.9223314,13.4532168 C70.2484195,20.1907888 87.9665694,20.1162486 93.2263625,20.5634902 C99.568075,21.1011933 105.846103,21.5216583 112.005445,23.1883209 C120.964027,25.6105178 125.513879,30.0076701 125.149138,39.8918547 C124.56729,40.2334373 123.982547,40.5728488 123.406488,40.922392 C122.336147,30.6018212 114.526064,25.3275543 104.215625,23.8273409 C103.860292,23.7766824 103.696014,24.2810957 104.062926,24.3816889 C113.575133,26.9652692 121.202846,31.6200557 121.859958,41.9102315 C121.186925,42.3386572 120.512444,42.7598459 119.845923,43.2143244 C117.415042,33.1057953 105.67314,28.7050246 96.4612655,27.3459311 C90.48357,26.4630269 84.4472555,26.6316472 78.5592978,27.6744873 C72.7393672,24.7001134 65.8744254,20.5953326 66.9223314,13.4532168 Z M176.35758,50.6748647 C177.244826,58.0738911 177.799174,65.1790987 171.94523,71.1734391 C167.215903,76.0192803 160.44866,76.6083656 154.11925,76.955014 C153.518586,76.9890275 153.434638,77.7713385 153.981749,77.9761433 C155.387159,78.4979252 156.853358,78.740362 158.332585,78.834442 C158.871012,85.3049717 158.666207,91.6886583 154.127935,96.8000945 C148.702416,102.913844 140.673054,102.179297 134.842992,97.9268829 C137.51631,98.922683 140.232325,99.2316995 143.310187,98.3278082 C147.202203,97.1829276 150.425527,93.5319017 150.039075,89.3721204 C149.999272,88.9379052 149.393542,88.816325 149.258211,89.2657377 C147.839052,94.0066436 144.341448,96.8275948 139.374027,97.1901645 C138.150264,97.2791786 136.854855,96.7704232 135.571026,96.2689047 C137.71243,95.4771857 139.636727,93.6187448 140.831542,91.8377389 C142.139254,89.8873891 143.970194,84.4003567 142.556824,81.8051974 C146.637723,79.1687877 149.887823,74.9366372 152.038636,70.3925754 C154.680111,72.2654902 159.04904,72.7742456 161.925715,72.2770693 C166.581949,71.4730475 169.992709,68.4125543 171.377856,63.9249405 C171.50016,63.5305284 170.93568,63.1657877 170.657059,63.5051992 C168.308678,66.3847694 166.047141,68.9242045 162.356312,69.9887553 C159.430425,70.8333038 155.628148,70.1110593 152.673314,68.9763103 C153.454901,67.1041192 154.062079,65.2058753 154.445635,63.3626319 C154.834258,61.4962304 155.032549,59.5719335 155.083208,57.6223074 C162.919344,60.2008218 173.591629,58.7266613 176.35758,50.6748647 Z M158.910091,129.182414 C157.466325,136.066172 159.515821,150.183231 169.199543,150.404681 C175.813364,150.553761 184.059833,142.422359 180.458742,135.398928 C177.034956,128.715633 168.314468,130.276637 164.820483,136.303543 C164.575151,136.727627 165.070157,137.247237 165.500753,136.981642 C167.530709,135.735445 169.20678,134.561617 171.505949,133.7547 C175.515203,132.295013 177.76299,134.602867 178.244969,140.677537 C177.377986,145.165875 173.009781,148.354461 168.494667,147.336951 C167.455445,146.579969 166.276551,145.96266 165.85681,144.614421 C165.357462,143.007825 166.317078,141.218135 167.69933,140.436548 C168.618418,139.919108 169.869682,139.840226 170.801073,140.356942 C171.883716,140.953988 170.650545,142.838481 170.316923,143.510068 C170.164224,143.815466 170.472517,144.148364 170.784428,143.978296 C172.419248,143.094668 173.861567,141.021291 172.532144,139.261272 C171.32575,137.665531 168.975922,137.607636 167.245575,138.275604 C164.884168,139.184561 163.712511,141.398334 163.648826,143.842966 C163.64376,144.057902 163.687905,144.254023 163.714682,144.455933 C160.282935,140.618194 160.654912,134.443655 162.095059,128.649777 C171.502331,116.215302 187.319342,125.187635 187.158682,140.580563 C187.119603,144.489946 185.687417,148.16413 183.530091,151.354888 C178.63721,156.608892 173.548208,157.842063 166.045693,155.834541 C153.935432,152.597467 154.360963,137.705334 155.993612,127.936941 C157.894751,116.558332 162.096507,104.05004 159.813982,92.4659035 C161.312024,88.0948041 161.204918,83.1389617 159.440557,78.8995743 C161.769398,78.8937847 164.106923,78.4016742 166.330828,77.5831786 C174.383348,95.8867953 162.606709,111.578608 158.910091,129.182414 Z M187.541515,172.174782 C182.412711,181.328038 173.561234,188.271138 163.577904,181.529224 C163.425929,180.988626 163.279743,180.442239 163.12632,179.903088 C162.805725,178.772681 162.472103,177.64734 162.139204,176.516933 C166.120234,179.822758 172.528526,181.179681 176.228039,176.865029 C176.553701,176.485091 176.251921,175.813505 175.711323,175.97923 C173.423733,176.680488 171.550818,177.692209 169.083752,177.632143 C166.242538,177.566287 163.760274,175.626792 161.913412,173.66414 C161.534198,173.26032 161.204918,172.832618 160.880704,172.404192 C159.849443,169.121525 158.725549,165.869978 157.480076,162.672707 C157.452575,162.303624 157.450404,161.937436 157.437378,161.570524 C161.115904,163.212581 164.864628,163.738705 168.460654,163.414491 C171.937993,170.539962 179.798012,175.344553 187.541515,172.174782 Z M158.234163,95.8506107 C158.905749,112.822634 147.699379,131.455531 154.900114,147.640177 C158.768247,156.337507 169.24803,160.747686 177.323709,157.764628 C171.222986,161.960594 163.952053,161.700065 157.412049,158.494109 C157.342574,158.364568 157.195665,158.297989 157.05165,158.319699 C156.524802,158.053381 156.003744,157.764628 155.488475,157.45923 C152.96279,150.740474 151.435077,143.910993 150.166445,136.791311 C148.193661,125.730404 145.987848,114.923512 145.298893,103.678063 C147.855696,103.415363 150.415395,102.614236 152.723972,101.320274 C155.099853,99.9879576 156.893885,98.0585948 158.234163,95.8506107 Z M195.538311,305.445548 C196.602139,313.138394 202.508912,317.719364 209.343459,315.548288 C204.829792,318.616742 199.214666,317.98713 194.81679,314.115378 C188.660343,308.702162 191.786692,299.9672 194.586656,293.873714 C194.921726,293.142785 195.277059,292.42633 195.627325,291.709875 C194.931134,296.377688 194.949226,301.168529 195.538311,305.445548 Z M213.115341,313.630504 C212.893168,312.573914 211.51743,312.798259 211.240256,313.673926 C207.385872,314.187747 203.540173,314.810122 200.476785,311.777853 C197.694913,309.027824 197.441621,304.012638 197.348265,300.394179 C197.209316,294.915831 198.168932,289.27827 199.520064,283.857818 C202.005223,278.654473 204.009849,273.357048 203.953401,267.22014 C203.798531,250.582462 186.353937,243.598835 172.282471,245.133062 C173.527221,224.898635 169.690206,204.098281 164.430413,184.616494 C168.925987,187.166784 173.735644,187.456985 178.940437,185.097749 C184.027991,182.788448 188.847056,177.016281 189.148835,171.322996 C189.166204,171.021217 188.915083,170.843189 188.654554,170.822925 C188.535868,170.66516 188.379551,170.537791 188.166785,170.532001 C184.339902,170.404631 180.670784,170.648515 177.140615,168.884155 C174.612035,167.620588 172.830305,165.363393 171.490028,162.928893 C182.335276,160.388735 190.93346,149.826451 189.888448,136.909997 C189.253047,129.077479 183.77687,122.072865 176.224421,120.057383 C171.783123,118.875594 167.284654,119.971987 163.964355,122.569317 C164.593244,120.815088 165.225027,119.217176 165.750427,117.902952 C171.363382,103.858262 175.997905,90.599502 169.614942,76.1097418 C171.167985,75.2507195 172.611027,74.2317612 173.874593,73.1028018 C181.232369,66.5237183 181.439345,54.2513503 177.067522,46.0454073 C176.77515,45.4968488 175.783692,45.7197459 175.852443,46.3739634 C175.856785,46.4181087 175.861851,46.4608065 175.867641,46.5049517 C174.056963,50.9976313 171.920625,54.4366154 167.053796,56.0287377 C163.197242,57.2915801 158.848577,56.5526907 155.083208,55.320967 C154.661295,43.804857 148.903602,31.6967671 140.662922,24.3360963 C140.65858,24.3187277 140.657133,24.3028065 140.653514,24.2847142 C140.2743,22.9212786 138.385464,23.2845719 138.288489,24.604586 C137.780457,31.4659094 133.28633,34.9830522 128.177065,38.0920328 C128.324698,25.8015725 119.746778,20.7545449 108.120666,18.6276142 C101.640729,17.4436542 94.8648011,17.5659582 88.308152,17.1498353 C81.9577552,16.7460152 71.4692878,17.2381257 67.2870721,11.4703009 C67.1814131,11.1591134 66.7479216,11.0129276 66.472195,11.2691145 C60.8194372,16.5426577 67.5005612,25.5280169 74.2555018,28.6037077 C70.3880921,29.5879288 66.6089727,30.931101 62.9919604,32.6440799 C62.6511015,32.8047395 62.4593231,33.0377683 62.3276112,33.2888894 C60.9699651,32.5304602 59.5102784,31.922559 58.141777,31.4593961 C56.6943931,30.968733 54.8996371,30.7284673 52.921787,30.6039923 C55.6899087,24.7276137 49.0420744,20.9940869 44.1434037,19.288345 C44.5059733,14.5879658 41.1719245,9.49100343 36.986814,7.57828561 C32.8328222,5.68221271 24.8302367,6.49274769 24.9018822,0.367419063 C24.9018822,0.348603072 24.8888557,0.339195077 24.8874084,0.320379087 C24.8808951,0.289260333 24.8707635,0.263931115 24.857737,0.234983437 C24.8374736,0.184325001 24.8157629,0.1394561 24.7745124,0.106889962 C24.7390515,0.0707053652 24.6978011,0.0526130665 24.6522085,0.0337970759 C24.6435242,0.0309023082 24.6384583,0.0265601565 24.6290503,0.0251127726 C24.514707,-0.0161376683 24.3858898,-0.0168613603 24.2729939,0.102547811 C17.9291103,6.81189584 21.2978963,14.5293468 29.0573214,17.512405 C29.0689004,17.5167471 29.0804795,17.5196419 29.0906112,17.523984 C25.3795189,23.3880599 29.3091662,28.9641063 35.2275189,31.8936113 C35.3382438,31.9493356 35.4714031,31.9797306 35.5857464,32.0303891 C32.0512349,36.8414931 34.4936953,44.3157836 39.5624336,47.2850916 C38.8785448,48.4878676 38.5304489,49.8042633 38.4262373,51.1727647 C28.4928416,60.5641151 15.7790215,74.5009746 1.01353476,66.9854338 C0.952744638,66.9557624 0.892678207,66.9753021 0.832611775,66.9673415 C0.775440111,66.9514202 0.729123827,66.9514202 0.670504779,66.9521439 C0.640833409,66.9564861 0.613333115,66.9564861 0.582938054,66.9658941 C0.472213186,66.9839864 0.394054456,67.0426054 0.326027413,67.1345143 C0.293461275,67.1685278 0.281882204,67.2047124 0.258724062,67.2445155 C0.247868683,67.2749105 0.218197313,67.2821475 0.213131469,67.3176084 C0.20951301,67.337148 0.211684085,67.3552403 0.208789318,67.3740563 C0.190697019,67.4399123 0.184183791,67.497084 0.195762863,67.5643873 C-0.964315327,76.7451433 3.06881989,83.5999535 11.3022632,87.9370393 C19.3678099,92.1843873 29.2541656,90.3918024 37.5042538,87.8205249 C40.6067211,86.8543961 43.6288587,85.647278 46.6017852,84.31279 C41.852195,102.84437 18.761356,109.869247 13.5862349,128.64833 C10.9035089,138.379092 15.1240803,149.069469 22.3530392,155.64421 C27.5846082,160.401761 34.0507958,162.284084 40.6414583,162.218228 C39.916319,166.552419 42.5932555,171.829581 47.7358105,169.717848 C52.2646747,167.854341 51.7993408,161.281771 56.0727417,158.775625 C62.4911656,156.063228 68.4413607,152.402794 75.0066941,149.996518 C78.2821238,148.793742 81.5083425,148.501371 84.7142978,148.693873 C91.4337776,160.866371 84.2489639,177.513457 76.9729651,190.752678 C76.9454648,190.788862 76.9020433,190.792481 76.8817799,190.839521 C74.976299,195.032592 70.24263,197.218865 66.3585753,199.296585 C61.8203031,201.723848 57.0149886,203.643802 52.2675694,205.625271 C52.4376371,203.161824 52.4159263,200.695481 51.996185,198.302956 C52.4615189,198.088019 52.8436282,197.748608 53.170737,197.337551 C53.2445536,197.265905 53.3118569,197.192812 53.3617917,197.110311 C55.8310286,193.522971 54.2237088,184.563664 53.410279,181.865017 C50.4330104,171.984451 38.0209698,167.883289 28.9096882,170.082588 C27.5368446,170.413316 27.1807881,172.530838 28.5058681,173.186503 C35.38456,176.576276 25.0097123,182.271732 22.1952743,185.199066 C18.921292,188.601865 19.064583,194.464494 20.7681538,198.772632 C20.7732197,198.804474 20.7847987,198.828356 20.7971015,198.857304 C21.0431567,199.470995 21.3217781,200.053567 21.6264525,200.590546 C21.8971132,201.067459 22.3421838,201.212921 22.7619251,201.142723 C24.5060227,214.017203 31.1430015,227.626953 36.7957593,239.082997 C37.4029369,240.313273 40.6776429,247.875854 43.1751038,245.342932 C46.2869792,242.180398 47.6562044,236.767183 48.5572008,231.621733 C51.3919022,232.273056 54.2939069,232.757929 57.0830157,233.575701 C55.8527393,238.663256 55.0335201,243.917259 54.8460839,249.48245 C54.326473,264.911563 58.8423108,280.702521 70.5827652,291.210528 C74.1766194,294.430957 78.028108,297.311251 81.7840692,300.177071 C85.7795724,306.762668 85.6695712,313.768006 86.4504348,321.51151 C86.7268851,324.239828 87.8391997,327.576048 90.4054113,329.023432 C94.4276911,331.281351 98.7495794,329.985942 103.152521,330.724108 C103.186535,331.114902 103.256009,331.483985 103.27772,331.882015 C103.769107,340.718294 117.129907,338.887353 123.16188,338.952485 C126.829551,338.98867 132.038685,339.524202 135.362602,337.570234 C141.100756,334.190592 143.619204,324.355619 144.662768,318.406871 C145.987848,310.851527 144.387041,303.216577 148.622086,296.312556 C151.375734,291.825666 156.798358,289.024978 159.995629,284.690063 C165.095486,277.778805 168.152361,269.933985 170.00646,261.705607 C170.20258,261.821398 170.426925,261.893767 170.702651,261.901004 C179.824064,262.110875 183.900621,270.961627 184.96083,278.864343 C184.577997,280.138041 184.156084,281.390028 183.719698,282.598594 C179.515048,294.322403 172.463394,304.504749 178.427339,317.133173 C182.447448,325.643791 189.462194,331.715566 199.245785,331.180034 C208.162394,330.69516 214.935427,322.249675 213.115341,313.630504 L213.115341,313.630504 Z"/>
  </g>
</svg>
