<svg xmlns="http://www.w3.org/2000/svg" width="351" height="269" viewBox="0 0 351 269">
  <path fill="#1A1919" fill-rule="evenodd" d="M2344,337.608 C2343.06,338.342 2342.16,338.924 2341.4,339.653 C2338.18,342.755 2334.94,345.841 2331.83,349.042 C2326.36,354.652 2321.11,360.46 2316.91,367.099 C2315.38,369.514 2314.04,372.074 2312.83,374.668 C2311.59,377.349 2311.49,380.255 2312.11,383.115 C2312.24,383.683 2313.11,384.253 2313.76,384.488 C2314.3,384.68 2315.01,384.39 2315.64,384.285 C2319.65,383.616 2322.56,381.045 2325.28,378.362 C2333.46,370.277 2339.43,360.713 2343.54,349.993 C2345.05,346.064 2345.14,341.826 2344,337.608 Z M2317.51,326.444 C2315.47,326.175 2313.76,326.401 2312.04,326.778 C2305.02,328.32 2298.11,330.128 2291.36,332.696 C2277.47,337.976 2264.94,345.459 2253.58,354.945 C2249.65,358.224 2246.13,361.921 2243.17,366.146 C2241.09,369.114 2240.69,372.331 2241.28,375.736 C2241.88,379.206 2244.62,381.953 2248.06,382.2 C2253.48,382.59 2258.92,382.609 2264.19,380.909 C2277.78,376.53 2289.21,368.829 2298.15,357.768 C2305.38,348.819 2311.58,339.119 2316.75,328.8 C2317.08,328.138 2317.22,327.378 2317.51,326.444 Z M2431.59,269.784 C2431.59,268.721 2431.64,267.78 2431.58,266.846 C2430.94,256.721 2428.74,246.925 2425.08,237.478 C2424.16,235.109 2422.84,232.889 2421.59,230.663 C2421.05,229.701 2420.32,228.806 2419.53,228.033 C2416.38,224.961 2410.86,224.99 2409.42,230.591 C2408.74,233.206 2408.15,235.932 2408.14,238.611 C2408.11,245.16 2408.19,251.73 2408.72,258.253 C2409.13,263.49 2409.98,268.739 2412.48,273.528 C2412.76,274.077 2412.89,274.735 2412.97,275.359 C2413.13,276.547 2412.49,277.698 2411.51,278.129 C2410.53,278.56 2409.52,278.136 2408.65,277.118 C2407.31,275.553 2406.09,273.786 2404.47,272.574 C2397.69,267.498 2390.85,262.496 2383.88,257.683 C2381,255.697 2377.81,254.137 2374.64,252.623 C2373.25,251.957 2371.58,251.655 2370.02,251.594 C2365.62,251.42 2363.35,253.427 2363.22,257.783 C2363.09,261.953 2363.54,266.093 2365.24,269.994 C2367.7,275.601 2370.81,280.786 2374.93,285.342 C2378.9,289.74 2383.13,293.861 2387.75,297.595 C2399.08,306.757 2410.77,315.385 2423.73,322.154 C2426.25,323.472 2428.75,324.872 2431.92,325.644 C2431.92,321.222 2431.92,317.106 2431.92,312.992 C2431.93,308.832 2431.94,304.673 2431.94,300.514 C2431.93,296.355 2431.99,292.194 2431.88,288.037 C2431.77,283.978 2432.34,279.876 2431.51,275.538 C2428.7,276.402 2426.55,277.624 2424.7,279.176 C2423.88,283.442 2426.55,287.119 2426.04,291.325 C2425.5,290.986 2425,290.833 2424.75,290.492 C2423.02,288.122 2421.9,285.484 2421.6,282.556 C2421.19,278.542 2421.46,274.565 2422.51,270.661 C2422.63,270.222 2422.92,269.796 2423.22,269.451 C2423.39,269.256 2423.79,269.122 2424.04,269.175 C2424.3,269.228 2424.65,269.529 2424.68,269.758 C2424.82,270.811 2424.86,271.878 2424.96,273.283 C2425.97,272.841 2426.69,272.581 2427.35,272.217 C2428.74,271.459 2430.1,270.645 2431.59,269.784 Z M2319.61,321.79 C2319.91,320.119 2320.39,318.276 2320.55,316.406 C2320.71,314.663 2320.52,312.891 2320.51,311.133 C2320.5,303.955 2316.79,299.078 2310.74,295.805 C2306.03,293.256 2300.93,292.092 2295.56,291.9 C2277.13,291.243 2259.23,294.222 2241.72,299.762 C2231.2,303.092 2220.96,307.14 2211.26,312.481 C2205.8,315.487 2200.2,318.242 2194.79,321.34 C2189.53,324.358 2184.34,327.533 2179.27,330.878 C2164.05,340.934 2149.8,352.288 2135.86,364.041 C2127.3,371.264 2119.28,379.059 2111.82,387.435 C2104.78,395.331 2098.26,403.6 2092.53,412.486 C2090.63,415.43 2088.9,418.482 2086.9,421.81 C2086.18,420.058 2087.12,419.029 2087.62,418.039 C2091.79,409.902 2096.93,402.386 2102.5,395.16 C2108.66,387.172 2115.34,379.602 2122.59,372.62 C2131.57,363.976 2140.77,355.546 2150.86,348.151 C2157.69,343.142 2164.28,337.789 2171.2,332.912 C2188.1,321.011 2205.87,310.58 2224.96,302.576 C2237.06,297.502 2249.55,293.493 2262.5,291.224 C2274.51,289.121 2286.65,288.441 2298.82,289.2 C2305.5,289.617 2311.67,291.674 2316.88,296.08 C2321,299.559 2323.39,303.935 2323.62,309.361 C2323.73,311.751 2323.66,314.152 2323.61,316.546 C2323.57,318.125 2323.44,319.703 2323.33,321.518 C2324.41,321.733 2325.29,322.004 2326.19,322.068 C2327.78,322.182 2329.38,322.197 2330.98,322.205 C2336.35,322.232 2341.01,323.954 2344.76,327.889 C2345.09,328.232 2345.49,328.511 2346.08,329.017 C2346.91,328.43 2347.81,327.873 2348.61,327.195 C2355.95,321.01 2363.23,314.771 2370.6,308.622 C2373.29,306.369 2376.17,304.327 2378.94,302.165 C2379.8,301.499 2380.59,300.755 2381.71,299.785 C2378.33,296.504 2375.02,293.487 2371.94,290.264 C2366.66,284.756 2362.99,278.216 2360.36,271.099 C2358.62,266.364 2358.39,261.349 2358.72,256.418 C2359.16,249.832 2363.97,246.177 2370.65,247 C2374.32,247.451 2377.9,248.408 2381.07,250.386 C2385.01,252.834 2388.93,255.313 2392.75,257.929 C2396.05,260.184 2399.19,262.659 2402.42,265.015 C2403.04,265.471 2403.74,265.825 2404.78,266.456 C2404.86,265.49 2405.05,264.908 2404.94,264.392 C2402.93,255.245 2403.1,245.967 2403.35,236.701 C2403.46,232.84 2404.39,229.132 2406.67,225.839 C2409.88,221.192 2415.12,219.89 2420.07,222.642 C2423.43,224.513 2425.51,227.484 2427.17,230.836 C2431.19,238.941 2433.45,247.562 2434.73,256.471 C2435.21,259.788 2435.66,263.111 2436.16,266.754 C2437.17,266.566 2438.12,266.59 2438.87,266.215 C2445.31,262.996 2451.97,260.275 2458.77,257.945 C2464.66,255.927 2470.65,254.214 2476.6,252.363 C2477.91,251.954 2479.22,251.532 2480.93,250.988 C2479.41,249.352 2477.68,248.855 2476.26,247.906 C2475.08,247.112 2473.87,246.311 2472.86,245.322 C2471.98,244.466 2471.88,243.342 2472.88,242.27 C2473.3,242.327 2473.88,242.233 2474.2,242.477 C2479.25,246.256 2485.72,247.125 2490.9,250.372 C2492.14,254.615 2490.19,257.756 2488.14,260.823 C2487.72,261.45 2486.85,261.743 2485.99,261.297 C2485.15,260.866 2484.86,260.133 2485.04,259.304 C2485.34,257.906 2485.78,256.537 2486.15,255.158 C2477.15,255.749 2446.41,266.26 2436.82,272.85 C2436.75,273.766 2436.61,274.855 2436.62,275.945 C2436.64,290.978 2436.66,306.013 2436.75,321.046 C2436.77,323.68 2436.21,326.03 2434.86,328.308 C2434.19,329.452 2433.3,329.991 2432.19,329.945 C2430.62,329.88 2428.94,329.78 2427.51,329.191 C2423.83,327.672 2420.14,326.103 2416.69,324.15 C2405.82,318.009 2395.57,310.929 2385.52,303.214 C2384.54,303.825 2383.58,304.347 2382.7,304.977 C2372.3,312.442 2362.41,320.544 2352.82,329.016 C2352.22,329.545 2351.71,330.184 2351.06,330.647 C2348.6,332.415 2347.74,334.646 2348.3,337.709 C2348.69,339.882 2348.59,342.187 2348.41,344.409 C2348.23,346.62 2348,348.926 2347.23,350.975 C2343.12,361.861 2337.12,371.622 2329.2,380.168 C2326.78,382.775 2323.88,384.78 2320.79,386.485 C2318.53,387.733 2316.08,388.518 2313.45,388.408 C2310.25,388.274 2308.43,386.637 2308.02,383.453 C2307.41,378.731 2308.12,374.247 2310.38,369.987 C2314.08,362.998 2318.88,356.829 2324.33,351.163 C2329.54,345.749 2334.91,340.493 2340.21,335.159 C2341.1,334.259 2341.95,333.317 2343.01,332.188 C2342.41,331.227 2341.99,330.179 2341.26,329.445 C2339.64,327.834 2337.63,326.789 2335.39,326.382 C2333.35,326.014 2331.27,325.7 2329.21,325.666 C2326.83,325.628 2324.26,325.416 2322.12,326.217 C2319.96,327.028 2319.92,329.927 2318.9,331.874 C2313.19,342.828 2306.69,353.238 2298.49,362.53 C2290.84,371.196 2281.54,377.568 2271.05,382.225 C2264.2,385.262 2256.96,386.33 2249.5,385.943 C2240.81,385.492 2235.91,379.133 2237.6,370.525 C2238.13,367.804 2239.26,365.388 2240.88,363.143 C2244.09,358.701 2247.92,354.846 2252.1,351.362 C2260.38,344.477 2269.44,338.824 2279.14,334.142 C2286.07,330.797 2293.11,327.741 2300.57,325.867 C2306.59,324.354 2312.72,323.248 2319.61,321.79 L2319.61,321.79 Z" transform="scale(-1 1) rotate(60 1231.875 -1899.42)"/>
</svg>
