<svg xmlns="http://www.w3.org/2000/svg" width="26" height="26" viewBox="0 0 26 26">
  <path fill="#1A1919" fill-rule="evenodd" d="M383.71,868.319 C383.309,871.316 382.433,873.838 380.911,875.715 C380.078,876.383 379.068,876.872 378.313,877.615 C377.662,877.731 377.2,878.036 376.613,878.214 L373.814,878.214 C373.406,878.262 373.8,877.946 373.914,877.915 C373.986,877.609 373.813,877.55 373.814,877.315 C373.699,877.331 373.637,877.292 373.615,877.215 C372.832,877.131 372.79,877.79 372.516,878.214 C372.193,878.237 372.092,878.038 371.716,878.115 C371.687,877.844 372.133,877.542 371.816,877.315 C371.357,877.008 371.301,877.829 371.016,878.015 C370.48,878.049 370.295,877.737 369.916,877.615 C369.867,876.999 370.566,877.131 370.517,876.516 C370.541,876.224 370.328,876.17 370.217,876.016 C369.252,875.916 369.143,876.674 368.717,877.116 C368.328,877.138 368.199,876.9 367.918,876.815 C368.111,876.342 368.511,876.076 368.617,875.516 C368.518,875.383 368.523,875.144 368.317,875.116 C367.891,875.088 367.809,875.407 367.618,875.616 C367.365,875.764 367.205,876.002 367.118,876.315 C366.727,876.241 366.575,875.925 366.219,875.816 C366.574,875.04 367.309,874.641 367.418,873.617 C366.359,873.304 365.999,874.521 365.419,875.016 C365.052,874.951 364.922,874.647 364.719,874.416 C364.816,873.98 365.232,873.864 365.419,873.517 C365.562,873.161 366.002,873.1 366.119,872.717 C366.126,872.377 365.824,872.344 365.619,872.217 C364.701,872.299 364.545,873.142 363.82,873.416 C363.298,872.687 364.078,872.172 364.42,871.717 C364.715,871.147 365.347,870.913 365.319,870.018 C364.799,869.737 364.271,870.208 364.02,870.518 C363.526,870.586 363.34,871.4 362.92,871.218 C362.881,870.858 362.787,870.551 362.621,870.319 C362.955,869.954 363.352,869.65 363.72,869.319 C363.963,868.862 364.527,868.727 364.619,868.12 C364.645,867.828 364.432,867.775 364.32,867.62 C363.129,867.562 363.164,868.73 362.32,869.019 L362.32,868.219 C362.563,867.695 362.93,867.296 363.32,866.919 C363.467,866.333 364.16,866.294 364.22,865.621 C364.277,865.196 363.95,865.157 363.72,865.021 C362.994,865.094 362.771,865.67 362.42,866.121 C362.197,866.078 362.38,865.627 362.32,865.42 C362.497,864.865 363.061,864.696 363.32,864.221 C363.641,863.842 364.066,863.569 364.32,863.122 C363.935,862.437 362.979,863.151 362.721,863.522 C362.461,863.352 362.914,863.057 362.82,862.723 C362.94,862.509 362.942,862.178 363.221,862.124 C363.162,861.798 363.288,861.658 363.32,861.422 C363.645,860.981 363.996,860.566 364.22,860.024 C365.195,858.966 366.576,858.316 367.618,857.325 C369.232,856.807 370.619,856.062 372.615,855.925 C372.898,855.843 372.875,856.067 373.115,856.026 L374.914,856.026 C375.669,856.271 376.375,856.565 377.113,856.826 C377.418,857.02 377.799,857.139 378.112,857.325 C378.469,857.435 378.62,857.75 379.012,857.825 C379.339,858.265 379.717,858.653 380.211,858.924 C380.526,859.409 380.963,859.771 381.211,860.324 C381.528,860.806 381.861,861.272 382.11,861.823 C382.861,862.639 383.193,863.871 383.51,865.121 C383.491,865.839 383.598,866.432 383.71,867.02 L383.71,868.319 Z M385.009,865.621 C384.985,864.545 384.545,863.885 384.409,862.922 C383.996,862.402 383.822,861.643 383.41,861.124 C383.275,860.791 383.129,860.471 383.01,860.124 C382.857,859.809 382.564,859.636 382.51,859.224 C381.822,858.447 381.061,857.743 380.312,857.025 C379.753,856.817 379.363,856.44 378.813,856.225 C378.381,855.857 377.698,855.741 377.313,855.326 C376.445,855.261 375.91,854.864 375.114,854.727 L372.315,854.727 C372.293,854.805 372.232,854.842 372.115,854.827 C370.978,854.788 370.233,855.143 369.217,855.226 C368.621,855.563 367.961,855.835 367.219,856.026 C366.176,856.783 365.055,857.46 364.119,858.325 C363.17,859.441 362.338,860.673 361.621,862.023 C361.238,863.639 360.838,865.238 360.621,867.02 C360.688,868.452 361.065,869.575 361.021,871.118 C361.315,871.458 361.309,872.096 361.621,872.417 C361.666,873.006 362.137,873.167 362.221,873.716 C362.882,874.388 363.393,875.209 364.119,875.816 C364.685,876.583 365.5,877.1 366.219,877.715 C366.845,877.955 367.465,878.202 368.117,878.415 C368.592,878.84 369.338,878.994 369.916,879.314 C370.74,879.491 371.545,879.685 372.416,879.813 C373.979,879.826 375.5,879.791 376.713,879.713 C377.68,879.547 378.355,879.09 379.313,878.915 C379.807,878.343 380.55,878.02 381.012,877.415 C381.319,877.19 381.586,876.924 381.811,876.616 C382.105,876.344 382.48,876.153 382.61,875.715 C383.771,873.645 384.865,871.506 385.209,868.62 C385.086,867.675 385.184,866.512 385.009,865.621 L385.009,865.621 Z" transform="translate(-360 -854)"/>
</svg>
