<svg xmlns="http://www.w3.org/2000/svg" width="448" height="106" viewBox="0 0 448 106">
  <g fill="none" fill-rule="evenodd">
    <g fill="#7247C4">
      <path d="M33.3266912,47.81052 C28.83635,51.1267758 36.7426882,77.6138236 42.1926377,79.8228692 C47.6425872,82.0319148 67.909098,62.9621003 65.8542845,56.9584412 C64.1801852,52.0351181 37.8118171,44.5103886 33.3266912,47.81052 Z"/>
      <path fill-rule="nonzero" d="M97.8153924,59.061224 C96.978076,45.2172691 91.837589,34.6275977 83.3955314,29.2479598 L83.0245684,29.020054 C77.7250972,25.9088742 69.6593021,23.4549113 60.8886774,22.076876 L69.1346545,16.7767401 C69.3519328,16.6283363 69.6010079,16.4481317 69.8129868,16.2732272 C72.6154142,13.9197711 72.9796166,9.73981678 70.6264556,6.9370379 C68.2732947,4.13425903 64.0938645,3.77001095 61.2914372,6.12346705 L45.0962533,19.7395161 L24.3912194,1.49644845 C24.3011284,1.41694641 24.195139,1.33214423 24.0997485,1.25794233 C21.4743936,-0.774987039 17.6983147,-0.294464307 15.6656402,2.3312199 C13.6329658,4.9569041 14.1134282,8.73345661 16.7387831,10.7663861 L31.3653235,22.1033767 C22.441014,23.7888199 13.5802983,27.5254156 8.04765035,35.1629114 L7.92046304,35.343116 C0.236229854,46.4150998 0.501203412,61.9550982 1.33851986,70.2286102 C1.33851986,70.3028121 1.33851986,70.377014 1.36501721,70.4512159 C3.37881626,86.9187381 10.0932462,97.5190098 21.3546225,101.987024 L21.4341145,102.018825 C28.0690524,104.584091 37.1788434,105.999227 47.0782555,105.999227 C53.1514494,105.999227 62.2665399,105.469214 71.2014482,102.882747 C80.8358868,100.100176 87.6934025,95.6427617 91.5885138,89.6324076 C91.6945032,89.4628033 91.8004927,89.2931989 91.9011826,89.102394 C96.2149521,81.6186022 98.4831258,70.101407 97.8153924,59.061224 Z M81.692252,83.1926755 C76.773629,90.8031125 61.3877104,94.2214494 47.034226,94.2214494 C38.8488749,94.2214494 31.0023741,93.1138022 25.6284211,91.0416011 C17.363652,87.7716571 14.1710474,78.8044849 12.9850716,68.9840534 C11.9844044,59.163622 13.6257103,48.4899312 18.1578322,41.955343 C23.1188115,35.0656717 33.7978886,32.5058938 45.5094,32.5058938 C57.8986118,32.5058938 70.7484482,35.3783568 77.0542394,39.0669808 C88.5063186,46.3435336 88.0827558,72.0897053 81.692252,83.1926755 Z"/>
    </g>
    <path fill="#000" fill-rule="nonzero" d="M123.896,84 L123.896,66.072 L136.712,66.072 C148.52,66.072 154.856,59.304 154.856,49.44 C154.856,39.504 148.52,32.736 136.712,32.736 L114.176,32.736 L114.176,84 L123.896,84 Z M136.28,57.72 L123.896,57.72 L123.896,41.088 L136.28,41.088 C141.968,41.088 145.064,44.112 145.064,49.44 C145.064,54.768 141.968,57.72 136.28,57.72 Z M169.616,84 L169.616,32.736 L160.544,32.736 L160.544,84 L169.616,84 Z M188.336,84.864 C193.808,84.864 197.84,82.92 200.288,79.464 C200.432,81.264 200.72,82.992 201.296,84 L210.368,84 C209.36,82.56 208.856,79.608 208.856,76.944 L208.856,57.144 C208.856,50.448 204.464,45.984 193.376,45.984 C181.784,45.984 177.176,50.808 176.672,58.656 L185.6,58.656 C185.96,54.12 188.12,52.752 193.304,52.752 C198.56,52.752 200.072,54.48 200.072,57.36 C200.072,60.096 198.272,61.176 194.816,61.608 L189.2,62.112 C178.688,63.12 174.944,67.512 174.944,73.704 C174.944,80.904 180.416,84.864 188.336,84.864 Z M190.496,78.384 C186.32,78.384 184.232,76.44 184.232,73.344 C184.232,70.392 185.888,68.592 190.928,68.016 L195.824,67.44 C197.768,67.224 199.136,66.792 200.072,65.928 L200.072,69.312 C200.072,75.792 195.32,78.384 190.496,78.384 Z M219.224,98.184 C228.224,98.184 232.256,95.304 235.208,87.024 L249.536,46.848 L240.032,46.848 L237.008,56.208 C234.992,62.76 232.976,69.528 231.032,76.872 C229.16,69.6 227.144,62.616 225.128,56.136 L222.104,46.848 L212.312,46.848 L223.112,77.376 C223.976,79.824 224.84,82.632 224.84,84.864 C224.84,87.96 223.184,90.84 218.72,90.84 L215.264,90.84 L215.264,97.968 C216.416,98.112 217.496,98.184 219.224,98.184 Z M262.424,84 L262.424,63.192 C262.424,56.568 266.744,53.832 270.704,53.832 C275.312,53.832 277.688,56.136 277.688,60.888 L277.688,84 L286.76,84 L286.76,59.376 C286.76,50.52 281.504,45.984 273.728,45.984 C268.688,45.984 264.872,48.432 262.424,51.816 L262.424,32.736 L253.352,32.736 L253.352,84 L262.424,84 Z M311.384,84.864 C322.688,84.864 330.248,77.232 330.248,65.424 C330.248,53.616 322.688,45.984 311.384,45.984 C300.08,45.984 292.448,53.616 292.448,65.424 C292.448,77.232 300.08,84.864 311.384,84.864 Z M311.384,77.376 C305.48,77.376 301.736,73.272 301.736,65.424 C301.736,57.576 305.48,53.472 311.384,53.472 C317.216,53.472 321.032,57.576 321.032,65.424 C321.032,73.272 317.216,77.376 311.384,77.376 Z M348.896,84.864 C354.224,84.864 358.112,82.2 360.56,78.6 L360.56,84 L369.344,84 L369.344,46.848 L360.272,46.848 L360.272,67.656 C360.272,74.28 355.952,77.016 351.992,77.016 C347.312,77.016 345.008,74.712 345.008,69.96 L345.008,46.848 L335.936,46.848 L335.936,71.472 C335.936,80.328 341.192,84.864 348.896,84.864 Z M391.304,85.008 C401.672,85.008 407.792,80.832 407.792,73.344 C407.792,66.936 403.832,63.624 394.904,62.04 L390.224,61.32 C386.192,60.6 384.032,59.52 384.032,56.784 C384.032,54.12 386.12,52.464 390.512,52.464 C395.192,52.464 398.144,53.832 398.36,58.584 L406.928,58.584 C406.64,50.952 401.96,45.984 390.512,45.984 C380.576,45.984 375.104,50.232 375.104,57.216 C375.104,63.552 379.28,67.08 387.272,68.448 L391.52,69.168 C397.136,70.104 398.792,71.4 398.792,74.064 C398.792,76.872 396.704,78.528 391.448,78.528 C386.048,78.528 383.672,76.872 383.168,72.192 L374.312,72.192 C374.888,81.192 380.72,85.008 391.304,85.008 Z M429.464,84.864 C438.392,84.864 444.872,80.04 446.744,72.48 L438.032,72.48 C436.664,75.792 433.856,77.808 429.536,77.808 C424.28,77.808 420.536,74.856 419.888,68.232 L447.68,68.232 L447.68,66.072 C447.68,54.264 440.696,45.984 429.32,45.984 C418.304,45.984 410.96,53.76 410.96,65.424 C410.96,77.304 418.52,84.864 429.464,84.864 Z M438.608,61.896 L419.96,61.896 C420.824,55.776 424.424,53.04 429.248,53.04 C434.648,53.04 437.888,56.64 438.608,61.896 Z"/>
  </g>
</svg>
