<svg xmlns="http://www.w3.org/2000/svg" width="98" height="106" viewBox="0 0 98 106">
  <g fill="#7247C4" fill-rule="evenodd">
    <path d="M33.3266912,47.81052 C28.83635,51.1267758 36.7426882,77.6138236 42.1926377,79.8228692 C47.6425872,82.0319148 67.909098,62.9621003 65.8542845,56.9584412 C64.1801852,52.0351181 37.8118171,44.5103886 33.3266912,47.81052 Z"/>
    <path fill-rule="nonzero" d="M97.8153924,59.061224 C96.978076,45.2172691 91.837589,34.6275977 83.3955314,29.2479598 L83.0245684,29.020054 C77.7250972,25.9088742 69.6593021,23.4549113 60.8886774,22.076876 L69.1346545,16.7767401 C69.3519328,16.6283363 69.6010079,16.4481317 69.8129868,16.2732272 C72.6154142,13.9197711 72.9796166,9.73981678 70.6264556,6.9370379 C68.2732947,4.13425903 64.0938645,3.77001095 61.2914372,6.12346705 L45.0962533,19.7395161 L24.3912194,1.49644845 C24.3011284,1.41694641 24.195139,1.33214423 24.0997485,1.25794233 C21.4743936,-0.774987039 17.6983147,-0.294464307 15.6656402,2.3312199 C13.6329658,4.9569041 14.1134282,8.73345661 16.7387831,10.7663861 L31.3653235,22.1033767 C22.441014,23.7888199 13.5802983,27.5254156 8.04765035,35.1629114 L7.92046304,35.343116 C0.236229854,46.4150998 0.501203412,61.9550982 1.33851986,70.2286102 C1.33851986,70.3028121 1.33851986,70.377014 1.36501721,70.4512159 C3.37881626,86.9187381 10.0932462,97.5190098 21.3546225,101.987024 L21.4341145,102.018825 C28.0690524,104.584091 37.1788434,105.999227 47.0782555,105.999227 C53.1514494,105.999227 62.2665399,105.469214 71.2014482,102.882747 C80.8358868,100.100176 87.6934025,95.6427617 91.5885138,89.6324076 C91.6945032,89.4628033 91.8004927,89.2931989 91.9011826,89.102394 C96.2149521,81.6186022 98.4831258,70.101407 97.8153924,59.061224 Z M81.692252,83.1926755 C76.773629,90.8031125 61.3877104,94.2214494 47.034226,94.2214494 C38.8488749,94.2214494 31.0023741,93.1138022 25.6284211,91.0416011 C17.363652,87.7716571 14.1710474,78.8044849 12.9850716,68.9840534 C11.9844044,59.163622 13.6257103,48.4899312 18.1578322,41.955343 C23.1188115,35.0656717 33.7978886,32.5058938 45.5094,32.5058938 C57.8986118,32.5058938 70.7484482,35.3783568 77.0542394,39.0669808 C88.5063186,46.3435336 88.0827558,72.0897053 81.692252,83.1926755 Z"/>
  </g>
</svg>
